/* XPM */
static char *_a20353eb8434bd2f1c2a8740e7404e78vAgghH6n4FzEMlb_0[] = {
/* columns rows colors chars-per-pixel */
"78 86 256 2 ",
"   c #221D1D",
".  c #271D1A",
"X  c #24221D",
"o  c #2B231D",
"O  c #2A291D",
"+  c #231E21",
"@  c #291D28",
"#  c #321B36",
"$  c #1B2C29",
"%  c #252425",
"&  c #2A2524",
"*  c #252926",
"=  c #2A2925",
"-  c #262529",
";  c #2A262B",
":  c #26292A",
">  c #2B2A2B",
",  c #332523",
"<  c #342A24",
"1  c #33252C",
"2  c #3B242C",
"3  c #322A2D",
"4  c #3B2B2B",
"5  c #3B312A",
"6  c #2C2532",
"7  c #2D2A32",
"8  c #2B2638",
"9  c #322634",
"0  c #332A34",
"q  c #3B2B34",
"w  c #34253B",
"e  c #3A253C",
"r  c #352B3A",
"t  c #3A2B3C",
"y  c #3C2433",
"u  c #383138",
"i  c #283332",
"p  c #1D1F20",
"a  c #432B2A",
"s  c #46352B",
"d  c #442A3B",
"f  c #462837",
"g  c #493735",
"h  c #522E37",
"j  c #381C4A",
"k  c #3B2543",
"l  c #3C2B43",
"z  c #392747",
"x  c #3C2653",
"c  c #342E47",
"v  c #4A1C52",
"b  c #432B44",
"n  c #43254C",
"m  c #432B4B",
"M  c #492947",
"N  c #542A48",
"B  c #573748",
"V  c #452B53",
"C  c #4B2C54",
"Z  c #4C2B5B",
"A  c #532C5C",
"S  c #552857",
"D  c #4A3256",
"F  c #573358",
"G  c #653857",
"H  c #692E54",
"J  c #4B2865",
"K  c #542B63",
"L  c #5B2C6C",
"P  c #572768",
"I  c #583367",
"U  c #5A2976",
"Y  c #5B3375",
"T  c #4C306C",
"R  c #652969",
"E  c #663569",
"W  c #632C7C",
"Q  c #662A78",
"!  c #752A79",
"~  c #763679",
"^  c #6A5446",
"/  c #694657",
"(  c #764A6B",
")  c #5B2C85",
"_  c #6B2C84",
"`  c #662886",
"'  c #752B8A",
"]  c #6A3387",
"[  c #763489",
"{  c #6C2A94",
"}  c #742C9B",
"|  c #7B2C9C",
" . c #792897",
".. c #6B3395",
"X. c #7C2CA3",
"o. c #7929A7",
"O. c #772CB0",
"+. c #6D1D92",
"@. c #863789",
"#. c #842B9A",
"$. c #863599",
"%. c #8F2D8C",
"&. c #832CA4",
"*. c #832CAB",
"=. c #892BA9",
"-. c #952AA9",
";. c #8C33AB",
":. c #8836A8",
">. c #9638AA",
",. c #882CB5",
"<. c #952DB7",
"1. c #8C32B3",
"2. c #9737B7",
"3. c #A639A8",
"4. c #A53AB9",
"5. c #B12FB3",
"6. c #924892",
"7. c #AA4E99",
"8. c #9B44B6",
"9. c #8D49AB",
"0. c #A646B7",
"q. c #B74BB7",
"w. c #B453BC",
"e. c #B965B8",
"r. c #C64BB8",
"t. c #CF53B4",
"y. c #C665B9",
"u. c #CD6FB4",
"i. c #DA5BB3",
"p. c #A539C5",
"a. c #B453C3",
"s. c #BC54C4",
"d. c #BB57C8",
"f. c #BB67C5",
"g. c #C857D4",
"h. c #C865C6",
"j. c #D370CD",
"k. c #ED4FE8",
"l. c #CD8BB8",
"z. c #E991D2",
"x. c #D2AFCF",
"c. c #E5B8C9",
"v. c #F9A8E7",
"b. c #EEB0EC",
"n. c #EBCBD4",
"m. c #774A57",
"M. c #774590",
"N. c #35281D",
"B. c #3B2C24",
"V. c #74554A",
"C. c #A83595",
"Z. c #CE37CD",
"A. c #D8B9C9",
"S. c #D9B9D5",
"D. c #E7A9D8",
"F. c #E6B7D7",
"G. c #785655",
"H. c #F392EC",
"J. c #753469",
"K. c #AA54A9",
"L. c #D44ED2",
"P. c #D1B6B7",
"I. c #C987C7",
"U. c #DAA3E3",
"Y. c #F8B6D8",
"T. c #D4C4CF",
"R. c #533B39",
"E. c #514334",
"W. c #473248",
"Q. c #472557",
"!. c #521C6A",
"~. c #673378",
"^. c #6C2B8B",
"/. c #732C94",
"(. c #783397",
"). c #7B33A5",
"_. c #963899",
"`. c #8332A4",
"'. c #8934B7",
"]. c #9945A8",
"[. c #A749AA",
"{. c #B54BAA",
"}. c #B656AA",
"|. c #AC4CB4",
" X c #AC4CBB",
".X c #B34DBC",
"XX c #AC53B7",
"oX c #B453B4",
"OX c #BB53BC",
"+X c #B958B7",
"@X c #C557BA",
"#X c #9935C4",
"$X c #AA46C4",
"%X c #B74AC6",
"&X c #B350CD",
"*X c #9C45C4",
"=X c #C64BC7",
"-X c #C354C4",
";X c #C355CB",
":X c #C45ACB",
">X c #C859C7",
",X c #E94FD2",
"<X c #E96ED3",
"1X c #D48ECF",
"2X c #FAB7E6",
"3X c #F6CDE9",
"4X c #1D1C1C",
"5X c #5B4546",
"6X c #684A46",
"7X c #5F4F64",
"8X c #ECDBE0",
"9X c #B234CA",
"0X c #F471EB",
"qX c #F3ACD1",
"wX c #6F4F50",
"eX c #884C72",
"rX c #B16899",
"tX c #B98DC9",
"yX c #BAC5B2",
"uX c #DFC4B5",
"iX c #68431E",
"pX c #1A1817",
"aX c #381C29",
"sX c #CE28AC",
"dX c #D8C3C8",
"fX c #BAB0A7",
"gX c #D1C5B7",
"hX c #E839DD",
"jX c #3A2425",
"kX c #D657E4",
"lX c #8A3275",
"zX c #2F2B5C",
"xX c #B425CF",
"cX c #835558",
"vX c #594739",
"bX c #69503A",
"nX c #B46BAC",
"mX c #64493A",
"MX c #6B1B64",
"NX c #B88AB4",
"BX c #E3AAB7",
"VX c #4D1732",
"CX c #9B1998",
"ZX c #D658C7",
"AX c #534652",
"SX c #8E626C",
"DX c #922EC4",
"FX c #342F19",
"GX c #513398",
"HX c #37444E",
"JX c #971A60",
"KX c #611828",
"LX c #341419",
"PX c #B91242",
"IX c #170617",
"UX c black",
/* pixels */
"* * - = - = - - % = * * - * % = % * O % * & % % % % % % * * - - - - - 8 8 @ # @ @ # - @ - @ @ - $ $ @ $ - - - % % - % & @ @ % @ % + - % + % - + - + - + - + ",
"- = * - = % * * - - & % % % % - % * % % * % % % % % % % - - ; ; - - - - 8 # 8 8 6 6 - @ @ @ p @ @ @ p @ p - % % - + @ % % % % % % @ + % % + p % % % + - - p ",
"- * = - - * - = % % & % * % % = % % * % O % % % % % * % - - : ; 8 : 8 6 8 8 j # # 9 ; ; - @ - - p - - p - p % % - - + % @ % @ % % % % - % % % + % % % % % % ",
"= = - * = - * - * - * - = % % - O % % % % % % * % - - = ; ; : > 8 : 8 8 j j 8 j 9 9 6 ; - - - @ - - - - % % % - + - % @ % % @ & + - + + % + % % + - - p % + ",
"- * - * % - = * % - % - - * * % * % * % % % - - % % > = - - 6 6 9 8 w k z x n n r e ; 6 6 @ - - - - p - - $ % % @ % @ - @ @ % % % - % % - % - - - + % % % p ",
"= - = - = = - = % = % * % % = % * * % O & % % = * = - - > > 6 7 w r z k n V n Q.r q 0 ; ; 6 ; 6 - - - - - + % - % % % - % & % @ % @ % % % % % + % % + % - - ",
"- = - * - = - - * - & * * * - - * X % * * X * - % ; ; ; ; 6 6 9 z j n Q.!.S J A e e 9 9 6 6 6 @ - - - p p % - - @ ; @ @ - - & % % % % % % % - % % - - % + % ",
"* % = - * - * % & % % % - & % % X * X X * * > - - % & 6 7 0 r 9 k z Q.Q.Q.J K P e e 9 # 6 6 @ 6 - - $ @ - * - - @ ; ; @ @ @ % % - + - - - + % % % p + - - % ",
"- = - = * - = - * = - = - - = % % O % % * * - & & - ; 6 9 7 y e x x U U M.6.Y U Q.j j j # 9 - @ ; - * = * - - ; # 8 j 8 - + pX+ % % % % % % - % % - % - % - ",
"* - * = = = - % - * * - * % * & O % % O - * ; & > - 9 7 9 9 t t j v P L M.M.Y I Q.J j j 9 9 1 ; 6 ; = > = * 6 - # 8 c c - - % ; - % - @ % % + % % + % + % + ",
"% - % - - * - * * - = = * - = - O % & & - > ; ; 9 6 9 9 r l b e Q.T ~.] 9.K.[ [ !.j j j w # 3 9 # 6 > & = ; # 6 j j x x 8 8 = & & - % % - % @ % p - % % + % ",
"- = * - = - = - % = - * - = - * % & & & & ; 9 9 ; 9 9 9 w l k b Q.P Y ~.9.9.~.] v !.v x w w 9 1 6 6 & 3 & & 6 w j 8 x D @ @ < X - - % % % % - % % % % + % % ",
"= = - * = - * * - % = - = = * % @ ; , ; 9 9 9 y 9 e e e l m V n !.K ~.] 9.6._ [ !.!.Q.v r w y 9 k 8 9 9 1 9 e e T J T U # 8 4 . ; @ % % - % - + + % + - % % ",
"* - - % = - - = = * - = - % & - ; 1 ; 1 9 0 9 r e r t l b b V V K L ~.~.9.M._ [ !.J Q.Q.l l r q w k 9 9 9 9 e e Y T T T # # < . % + % % + % % % - % - + % % ",
"- & = - * % * - - = - = % ; ; ; 6 ; 3 9 9 9 e t d b M M M C C C K P L R [ (.U !.!.P Q.Q.b b d q k k y y y 0 r 0 ) T zXv 9 # & o - - - % - % % % p % + - % + ",
"& - & % - = - = * - % = ; - ; ; 6 ; 9 9 9 0 e d k b M M C D A A P L Q U [ [ U Q P P Q.Q.W.M q d k k e e 9 9 r u GX) J x e w & & - - % % - % - - - % % + - + ",
"6 ; ; ; & = * * * * - ; ; ; 6 7 8 8 9 9 0 t M n J J U U U L E E E E ~.~.[ ' Q ' ! Q L P S N C n n n k k w e 9 9 9 0 0 ; 9 6 - @ - - % % ; % % % % - % @ - % ",
"; 1 ; ; = = * * * * - & ; ; 6 6 8 8 0 0 r t m C J P Y W U Y E ~.~.~.~ ~.! ! ' ' ] ~.Q R A S C C n z k k 9 w 9 r 9 0 0 ; ; 6 6 ; - - % - - % - % % % % % % % ",
"@ @ ; ; = = - * * * - = 6 ; 9 6 c c 6 r b M A A U Y ] ] W W ~.~.] _ ] ^.^./.+. ././.] _ Q L K A C Q.k k w w 9 9 > 7 > 7 ; 6 ; ; - - % - % % - % % % % % - % ",
"9 ; & ; * % * = = = - > ; 6 9 9 8 c r r b M A K Y ~....._ _ ~ ~.] [ ] [ /.[ o.+././.] ^.~.E I I S Q.n n z r 7 7 7 7 7 > ; ; 6 @ * - - - ; % % ; - % % - - + ",
"; 1 ; ; = * * - * * - - ; 7 9 0 r w d W.Z A U Q ` ` o.../.(.(.@.(.).).).o.o.,.o.*.O.X.} ^.^.] W A C C m t w r 9 6 7 > 7 : - 6 - ; - - - - % - % % % + - - % ",
"# @ ; & - = * * * * - - ; 6 9 9 t l b W.A A U ~.` ^.).)./.(.(.(.).`.:.).,.O.,.,.*.*.X.X.^.^.] ` A F D V l l 0 9 7 7 7 > 6 6 6 - - - * - % - % - @ % % - % % ",
"- ; - ; * = = - * > & - 9 9 9 r e b m C L L _ ^.} X.o.*.o.&.#.#.*.,.'.'.DXDXDX,.,.,.*.o.| } /.^.E I A Z W.M t r 0 0 > 7 6 - - - ; ; % % - % - % - - % % % % ",
"; ; - - = = * * * > > > 9 ; 9 q d M N A L L ^.[ } X.*.*.o.o. .#.,.,.,.,.,.DX,.DXDX,.,.,.X.| /./.E G F F W.m t t 0 9 6 6 - 8 : @ & - - - - & = % - % % % - % ",
"6 ; - > : * = = > * - > 3 9 r t M M S S U ` o.o.X.o.,.*.*.*.,.,.,.,.<.,.1.<.<.<.<.,.=.,.&.#././.] _ ~.L C C b d 4 9 3 ; ; ; ; ; - - % % % - - - % % - - % - ",
"; 6 > - = * > = = > > > > r t d M W.S F ` ` o.o.o.X.,.,.,.,.,.<.<.1.<.2.2.2.DX<.<.<.=.=.`.&.| } ] ] Y L B B b d q q 9 3 6 ; 6 @ - - % ; ; % & % % % % - - % ",
": : - > * : = > = > 3 9 0 q d b N N A E { ^.O.O.*.,.,.,.<.DX<.DX<.DXp.p.p.p.p.2.<.<.<.<.;.=.X.X.^.^.~.~.I A M M d q 1 1 ; 6 - 6 ; @ % % % % ; - - % = - % - ",
"8 ; > - = : * = > > > > 0 r u u M N L I { { o.O.,.'.<.,.'.<.DX<.<.2.p.p.$Xp.p.p.4.<.<.<.1.;.*.&.[ ^._ ~.F S W.M f 2 9 1 6 6 - - - ; - ; % - % % % - % % % % ",
"- : ; - : : = = = = 3 > 0 r d d C F Y ~.{ } ,.,.,.'.'.DXDXDX#X#X#XDX#X*X&X&Xp.p.p.<.<.<.DX,.,.,.(.{ ..] I I C C d q 0 9 6 ; ; 6 ; - - % - % % - & % - = - - ",
"- 8 6 : : : > = = > ; > 0 q d W.F F L ~.{ X.O.DX,.'.2.DX<.#X#X#X9X#X&X&X&X9X&Xp.p.p.2.#XDXDX,.O.(.(._ ] E I F D g f q 4 6 ; 6 ; - - % - % - = % - - - % - - ",
"- : : : - - > & > > 6 0 e e d d A R ~.~.o.).O.O.'.'.<.<.2.#X#Xp.&X9X&XxX&X9X9X$X2.2.#X2.DX'.DX,.`.(.^.^.~.~.I A W.h t y 9 9 6 6 ; 6 - - - % - - % - % - - * ",
": : : : > = - > & > 6 0 r r d W.L F Q ~.} ).'.'.1.<.#X2.#X#Xp.p.&X&X&X9X&X&X&Xp.p.p.<.DXDX'.'.,.).).^.] ~.~.I F W.d d r 9 9 ; 6 ; @ ; ; % - & % - % - % * - ",
": : ; > ; 1 1 ; 6 7 7 r k k Q.Z L R ] _ '.).,.'.<.<.2.#X4.4.|.0.&X&Xg.g.&XkX*X&Xp.$X<.4.<.<.,.=.=.`.| (.] [ Q U F N M M 9 9 9 3 6 ; ; @ ; - % $ - - * - * % ",
": : > & 1 6 ; 1 6 6 8 w e b Q.A L R W Q ).).'.,.DXDXp.p.$X$X Xa.&X&XkXkXg.g.&X*X$X$X<.p.<.<.-.,.&.&.`.(._ _ E U F N M b 9 y 9 9 6 6 @ 6 - - % * % * % * * * ",
": : - > @ 9 6 ; 9 7 w r n n Q.S R Q [ ! :.:.*X*X*X#X$Xp.0.%Xd.:XkX&Xf.f.f.f.f.&X&X%X<.p.-.,.-.=.:.=.#. ./.' _ W L K N C b b y w 9 6 6 @ - - % % * * * * X * ",
": : - - 9 1 1 6 6 9 8 l n m A S L P ] ~.:.:.#X8.#X$Xp.$X0.%X:X:XkX&Xf.j.&Xf.g.j.&X%X<.#X=.-.=.=.&.&.#.| /.' W W E K S A b M t e 6 6 6 - - - % - - % * % * % ",
": : > : # , 6 3 9 9 c r m V A L ! ~ 6.9.w.XXXX X0.4.0.4.4.|.OX;Xd.f.H.H.h.+Xs.h.&X&XDX#X=.<.-.<.-.>.>.0.].>.6.[ Q Q P L Q.Q.n j w w 6 6 - - % % * - % % * % ",
": : > - 6 1 ; 9 9 r l c m D K I ~.! ].6.XX8.0.0.0.$X$X0.0.0..Xd.f.j.H.H.f.f.+Xd.kX&X#X#X<.<.<.2.-.-.>.2.9.6.(.[ [ ] R ~.A A n n t w 6 ; - * % - - * % - % * ",
"> > - > ; 1 ; 6 7 0 l l Z Z L E [ 6.K.K.+XoX@XOX|.+X-XOX%X0.d.:XkXd.j.0X>X:X:X:Xg.g.4.p.<.4.4.4.0.0..Xa.w.XX].].6._.[ [ W Q !.Q.r r w 6 - ; * - * - * * * * ",
"> > & & 9 ; 9 7 0 u l l Z K E E 6.6.XXK.oX[.+XoXoX+Xd.s.a.%Xa.-Xg.:XH.0X-X-X:Xd.g.g.$Xp.p.4.$X9X$X%X.X%XXX|.K.[.].9.$.[ Q Q P P r r 9 6 6 ; * = % $ * * * % ",
"- > ; ; 9 6 6 9 9 9 l l K P _ ] ].K.{.XX{.{.oXoX{.+X@XOXs.%X9X4.g.:X;Xg.g.:Xd.%Xg.g.&X9Xp.$X%X&X.X.Xq.q.XX|.|.|.K.[.6.9.6.9.!.!.z l r r 6 ; - - - = * * * = ",
"> - ; ; ; 1 6 ; 3 0 l l K P _ ] K.K.K.XXoXK.}.oXoXq.OXOXs.%X%X%Xd.:X;Xg.kXg.g.g.g.&X&X&X%X%X%X&X.X.XoXoX|.K.|.[.K.].].9.M.9.Q U W.z r w 6 ; > - = - * - * * ",
"& & 3 , ; 6 6 @ 3 0 b l P P ^.[ K.|.K.{.{.{.r.}.}.@XOX@Xs.s.%X;X9Xg.%Xg.kXg.;Xg.g.;X;X&X%Xs.OX%Xw.w.oX{.}.{.|.{.|.[.].].:.6.` ` z l z 9 7 6 > ; - = = * - * ",
"1 & ; ; 9 ; 6 6 9 0 m l P U ' [ K.XXXXK.{.}.r.q.q.@XOXOX;X&X=X%X%X%X=X%Xg.g.g.g.&X;X;Xg.;X-X%X%Xq.oXoX}.XX{.{.|.|.[.].8.9.].+.` z l e z 9 6 - & = - % * * * ",
"; ; ; , @ ; 6 6 9 0 b l P P ' [ [.[.[.oXoX{.q.+X@XOXOX-Xs.-X-Xd.h.:Xj.g.j.H.h.h.;X-X:Xh.:Xs.q.q.oXq.}.oX{.XX|.|.|.[.8.].9.9.~.' l l z t 9 9 ; ; - : * * * * ",
", 1 ; ; 9 ; ; 6 ; 4 b l U P ] (.].[.K.oXq.}.{.q.OXr.OXq.s.OXf.:X:Xw.h.h.j.H.h.d.-X-X-Xh.>Xs.OXOXOX+XoX{.{.{.{.[.K.K.].].9.].^.[ V l z l 9 9 > & - = * * * * ",
"; & ; 3 ; ; 6 6 9 0 b z P P _ ^.7.].[.oX{.{.r.q.q.q.OX.XOXs.d.@Xe.nXz.z.H.v.1X<Xy.+X>X>X-XOXOX+X+XoXoX}.|.oX|.[.[.[.].XX9.9.^.(.l l l w 0 7 ; > - - = * * * ",
"; ; ; & ; ; 6 6 9 0 n z P P ^...6.7.K.[.{.{.q.+XOXOX%XOX-X-X@Xs.7.y.z.z.H.b.j.z.d.y.>X>X@X@XOXOX+Xq.oXoX|.{.|.|.|.[.].K.9.]...[ b l r l 9 7 > & > - * * = * ",
"> & > > ; > ; 6 9 0 l l J J Q ~.CX,.3._.{.[.+X@XhXhXhX,XZXZXt.t.l.NX3X8XA.F.F.D.y.y.>X-X%Xg.%Xs.%X%Xw..X|.|.{.[.7.[.].].9.(.} ..b t r w 7 ; & ; ; - > = : - ",
"> > ; > > & 9 > 9 0 k l v K L ~.+.o._._.{.[.@X@XhXk.hX,X,X<Xt.ZXNXl.8X8XA.S.D.D.y.h.>X-X9X=X%X%X%Xs.a.w..X|.[.{.[.K.].].(.9.} { b t 0 9 9 6 > - > - > - = - ",
"> > > > > > 7 > 9 7 z k Q.Z K Y ,.,.DX,.3.[.t.i.<X<X,X,XZXZXy.y.BXP.8X8XP.gXA.P.l.y.{.t.r.@X}.{.oXoXXXoXa. X X$X[.8.$.].] [ T P t r 9 9 ; ; - ; = - * = : = ",
"= > > > > > > 6 9 r w l n Q.K K O.O.O.O.>.>.rX}.,Xi.,Xi.@X@X@Xt.c.A.n.T.gXfXdXA.l.u.{.}.r.r.{.7.K.XX{.XX X X0.$X8.0.:.9.~ [ P P t e 9 9 ; 6 - & - * > - - = ",
"> > > * > > > > 7 7 9 t M M N Z O.O.+.+.@.$.|.q.r.t.ZX<Xj.j.j.ZX3X3X3Xn.yXfXgXfXqX2X<Xu.ZXi.u.j.}.r.}.{.$X$X*X#Xo.o.^.{ Z K d b r e q 9 ; 6 & - - - > * - > ",
"> > > > > > > > 7 7 r r b b M S O.O.O.+.%.@.[.[.3.q.i.j.<Xu.j.u.3X2X8Xn.fXyXfXgXD.2Xz.u.<Xt.i.<X}.t.{.{.0.4.*X'.O.O.{ ..K K M M r e 9 9 6 6 & - - - = - * = ",
"= > : > = > > > 7 7 0 0 t t b M R G [ ~ X.| =.<.5.9X=X=Xr.sX{.sXj.j.x.1XP.dXx.T.3X2X@Xy.,X<X<XZXj.@X{.[.>.>.:.).} ..) ) n V # 8 9 9 9 6 > ; = - = - > - - - ",
"> > > = > : > ; 7 > w 0 t r l b S K ! ] X.} o.=.-.4.9X%Xr.C.{.i.u.h.x.x.A.dXP.x.2X2X@Xh.<XkXj.ZXj.ZX|.3.:.&.).} { { U ) C I l k 0 9 9 9 ; > - = > = * = > = ",
"> > > > > > > > > 3 7 0 0 0 q q C C B B ~ J.o.o.,.<.<.<.5.5.xXhX,X,XH.<XqXv.2X2Xz.z.kXj.g.j.@Xq.q.3._.%.@.' ] _ Y I S C n k # w 9 6 ; 6 > = * > = - = * > - ",
"> > > > > > > > > > 3 0 0 u 0 q m n f N R R o.+.CX-.-.<.5.9XZ.kX,X,X<X<XqXv.2X2Xz.z.h.>X;Xg.5.3.{._._.#.@.' ~ W L S n Q.k e w # 6 6 6 ; > - = = = = * = - - ",
"> > > i > > > 7 7 > 7 7 i 0 u 0 g 3 k l v N KXH MX@.3.3.xXxXhXxXZ.,X<X<Xz.z.H.H.<Xj.s.$X4.4.%.%.$.#.! ! R R S S M M n k w 9 6 6 6 ; 6 ; = > = = * % = * > = ",
"> > > > > > > > > 3 7 0 3 0 0 3 f 1 M V v N MXKXlXlX4.9XxXxXxXxXZ.,X<X,Xu.u.j.z.j.h..X3.2.>.#.#.>.%.@.' E R K S C C k k 9 # 3 # 6 6 : > = = * & & & = = - - ",
"> > > > > > > : 7 > 7 i i 0 0 i 1 @ 6X6XmXcX6Xm.m.m.cXcX3.].p.xX3.3.rXt.u.u.rXu.nX7._.%.W ! R E Q Q P R M M n b l t l w 9 6 6 6 ; : 6 ; : = * = = * = * - = ",
"> > > > > i > > : > > 7 0 i u 3 jXLXwXG.cXcXcXm.cXJ.cXlX_.>.#X#X5.3.{.}.rXu.rXrX6.6.[ @.! ~ E ~ ~ Q R R A A M m k k e e 9 9 6 6 6 ; ; ; = = = = * & % = > - ",
"> > > > > > : : i > > i i 7 > 0 FXFX( ( H eXvX6XG.^ / 6X( ( ( J.6.6.lXJ.m.m.H H JXlXMXJ.C F h 6XS N N v n n l r t r r w 7 ; > 6 6 > > ; > - - = * = = = - - ",
"> > > > > > > 7 > > i 7 > i 0 > FXFX7X/ ( ( ^ G.^ 5X6XAX( J.( ( 6.6.eXeXH m.H m.H lXJ.R N S h G v N v M M z l k r r w w 7 6 7 ; > ; ; ; * > = = = * = * - = ",
"i < > > i 3 > > > > 0 i i 3 3 - ^ ^ 5X^ V.G.^ V.cXG.6X6XB / 5X/ / / G G H B B N B B W.W.M W.f f d f 1 2 4 4 0 9 0 9 0 9 > ; > ; ; ; - > > - = > > * = = - - ",
"> > > > i < > > > 7 > > > 3 - - V.G.vX5XG.G.V.6XcXG.6X6XB AXB B / G F B N N N B B B B W.g W.f g f f f q 0 4 0 q 0 9 1 9 3 ; 6 > 6 > > - - > = * - * - * % * ",
"> i < > > > i i > > > > > > > * ^ ^ vXvX6XV.6XmXmX6X6XwXB 5XB g B B M h f h M d d q f 2 2 y y a R.E.B g u 4 1 < 3 ; ; 1 > > & ; > > - > - > - - = - = - = = ",
"> i 3 > > > 3 < > 0 > 3 > 7 > > 5X^ ^ vXbX6XmXmXmX6X6XwX5XAXg d W.h d d f f f f f f f d y f f f 5XW.5X5Xg s 3 aX1 ; 3 ; ; ; > ; - > > - > > - - - - = % * - ",
"i > > > i > > i > > 7 i > > > - vXbX^ ^ bXbX^ V.V.G.V.G.B B a 4 q f 4 q q 4 4 4 2 4 2 a a a g g a s s R.E.g 5 3 , ; 1 3 0 ; & - > - & > - - = - > * * * - * ",
"3 < i > 3 > < i > 7 > > 7 7 & - vXbX^ ^ vXbXbXbXV.V.wXV.vXR.y a 4 q q 4 q q 2 1 jXjXjXjXjXy a g s s s s E.5XE.5 ; ; ; 1 > > > > - > > - > > > - - - = - = * ",
"> > > > < i 3 > > > 7 > > 3 & - vXvX^ ^ vXiXbXvXbX^ mX6XR.vX4 a 2 < < < , < < B.g g 4 5 a g R.R.R.R.s s s s 5 E.% , 1 ; 3 ; & ; & > - > > - - & = = = - - * ",
"> > 3 i > > > > > > > 3 i > - * bXE.bX^ bXvXbXE.^ bXvX6XR.R.B.jX< < < & & = < 5 g 4 jXjXa g R.5Xs E.E.E.5 FX5 E.aX@ ; 3 3 > > - > ; > - > > - > - - * = - % ",
"> > > i > i 3 > > > > i 7 > > * E.E.vXvXvX^ bX^ vXmXmXE.s jXB.a O O O O O O FX< FXB.B.B.N.a g E.s a a s E.E.5 5 = & 3 3 & > > > > > * > * : - : > - - = > = ",
"i 3 > < > > > > > > 3 3 > > - - u E.vX5X^ ^ ^ ^ mXvXs s N.N.N.N.O FXO O i FXB.FXB.FXB.5 s s s a s s s s s E.5 5 & & 1 & > > = - - > : - > : > * * = - : - * ",
"> > > > i < 3 i > 3 > > > - % X O i g E.vXvXvXvXvXR.B.N.o N.jXo . pX4X4XX X X X = < < < B.5 s s s R.R.R.g 5 5 2 & & > 3 > - * > - > * > * : : * * > = > = > ",
"i 3 i > > > > > 3 3 i i > = & % O 5 u E.5XvXvXvXE.s N.LXo N.o . . X X X X O O O O O N.N.B.N.B.5 E.R.E.s s 5 < , . & & & = * > > > = : : > : - > - = - * - : ",
"< > > i 3 > < > > i i i 3 3 > > pX4XX O o & N.< B., & & , & + + % X % * @ & @ & & % & & , , 1 2 s g g g 3 3 , & . + % % * * * : * : * : : > : : - = = > = - ",
"> > > > i > i > > 3 > 0 i 3 > > * = = * O o & < o o , , @ +   % p p 4Xp + + . + & . + . . @ , < q 5 q a 3 , & &   + - = - - : * : : > : - * * > * > - - * > ",
"> > > > < > i > > > > > 3 0 > > > % p p 4XpXpX.   . . + - + - ; 7 7 i 0 r 0 > ; - @ + + + @ ; & & 1 1 < & & @ @ - = > > : : : : > : = : : * : : - * - * = = ",
"i 3 i < > > 3 > > 7 7 > > > > > u > - * % O . . &     pX+ - 7 7 7 7 7 7 0 3 0 ; & @ + + . @ & @ ; @ @ @ % @ . + - > > > : * : : * : - : : > * - = > > = - - ",
"> 3 > < i > > 3 > 3 > > i > > 3 = > > * O X % 4X> > < 3 > > 3 > > > i i 3 3 > i < > > = % 4X% % + +   p + + % = > - > = : = = > = > = > - = - = - = % * - = ",
"> i > i < > > > > i > < < > > i > > > > > > % X > 3 i < i 3 > 3 > > i < > > > > > 3 i > * X % X +   4X4X+ + * > > = : > > > : : > - : - > = > - * - = - * - ",
"> > > > > > 3 > > i > i > > > > > 3 > > > > > > > > 3 i i 3 > i > 3 > 3 > > > > > > 3 > < > > < 4X4X4X4X% % = > > = - > > * > = > * > * * - * - - = - = % = ",
"< i > > 3 i i > > < > > 3 i > < i i > > > < i > i 3 > > < i > 3 > > > 3 3 > > > = > > 3 i > > i p p + % * * > > > > > : = > : > - > = > - = * - * - * - = - ",
"> i < > > > i > > 3 > > < > > i 3 > > i < > > > 3 i 3 < > 3 > > > > > i > 3 > > > > i > > > > > > > = : * : > > > > = - = > = = = * > * - - = = % = - * - * ",
"i > > > > < 3 > > i i > i > i 3 > 3 3 i i > > 3 > > > i i 3 i > > 3 > i > i > > > > > > > > > > > > > > > > > > > > = > > > > : > > > - = - * - = - = - = - "
};
