/* XPM */
static char *_a20353eb8434bd2f1c2a8740e7404e78vAgghH6n4FzEMlb_1[] = {
/* columns rows colors chars-per-pixel */
"78 86 256 2 ",
"   c #221D1D",
".  c #271D1A",
"X  c #24221D",
"o  c #2B231D",
"O  c #2A291D",
"+  c #231E21",
"@  c #291D28",
"#  c #321B36",
"$  c #1B2C29",
"%  c #252425",
"&  c #2A2524",
"*  c #252926",
"=  c #2A2925",
"-  c #262529",
";  c #2A262B",
":  c #26292A",
">  c #2B2A2B",
",  c #332523",
"<  c #342A24",
"1  c #33252C",
"2  c #3B242C",
"3  c #322A2D",
"4  c #3B2B2B",
"5  c #3B312A",
"6  c #2C2532",
"7  c #2D2A32",
"8  c #2B2638",
"9  c #322634",
"0  c #332A34",
"q  c #3B2B34",
"w  c #34253B",
"e  c #3A253C",
"r  c #352B3A",
"t  c #3A2B3C",
"y  c #3C2433",
"u  c #383138",
"i  c #283332",
"p  c #1D1F20",
"a  c #432B2A",
"s  c #46352B",
"d  c #442A3B",
"f  c #462837",
"g  c #493735",
"h  c #522E37",
"j  c #381C4A",
"k  c #3B2543",
"l  c #3C2B43",
"z  c #392747",
"x  c #3C2653",
"c  c #342E47",
"v  c #4A1C52",
"b  c #432B44",
"n  c #43254C",
"m  c #432B4B",
"M  c #492947",
"N  c #542A48",
"B  c #573748",
"V  c #452B53",
"C  c #4B2C54",
"Z  c #4C2B5B",
"A  c #532C5C",
"S  c #552857",
"D  c #4A3256",
"F  c #573358",
"G  c #653857",
"H  c #692E54",
"J  c #4B2865",
"K  c #542B63",
"L  c #5B2C6C",
"P  c #572768",
"I  c #583367",
"U  c #5A2976",
"Y  c #5B3375",
"T  c #4C306C",
"R  c #652969",
"E  c #663569",
"W  c #632C7C",
"Q  c #662A78",
"!  c #752A79",
"~  c #763679",
"^  c #6A5446",
"/  c #694657",
"(  c #764A6B",
")  c #5B2C85",
"_  c #6B2C84",
"`  c #662886",
"'  c #752B8A",
"]  c #6A3387",
"[  c #763489",
"{  c #6C2A94",
"}  c #742C9B",
"|  c #7B2C9C",
" . c #792897",
".. c #6B3395",
"X. c #7C2CA3",
"o. c #7929A7",
"O. c #772CB0",
"+. c #6D1D92",
"@. c #863789",
"#. c #842B9A",
"$. c #863599",
"%. c #8F2D8C",
"&. c #832CA4",
"*. c #832CAB",
"=. c #892BA9",
"-. c #952AA9",
";. c #8C33AB",
":. c #8836A8",
">. c #9638AA",
",. c #882CB5",
"<. c #952DB7",
"1. c #8C32B3",
"2. c #9737B7",
"3. c #A639A8",
"4. c #A53AB9",
"5. c #B12FB3",
"6. c #924892",
"7. c #AA4E99",
"8. c #9B44B6",
"9. c #8D49AB",
"0. c #A646B7",
"q. c #B74BB7",
"w. c #B453BC",
"e. c #B965B8",
"r. c #C64BB8",
"t. c #CF53B4",
"y. c #C665B9",
"u. c #CD6FB4",
"i. c #DA5BB3",
"p. c #A539C5",
"a. c #B453C3",
"s. c #BC54C4",
"d. c #BB57C8",
"f. c #BB67C5",
"g. c #C857D4",
"h. c #C865C6",
"j. c #D370CD",
"k. c #ED4FE8",
"l. c #CD8BB8",
"z. c #E991D2",
"x. c #D2AFCF",
"c. c #E5B8C9",
"v. c #F9A8E7",
"b. c #EEB0EC",
"n. c #EBCBD4",
"m. c #774A57",
"M. c #774590",
"N. c #35281D",
"B. c #3B2C24",
"V. c #74554A",
"C. c #A83595",
"Z. c #CE37CD",
"A. c #D8B9C9",
"S. c #D9B9D5",
"D. c #E7A9D8",
"F. c #E6B7D7",
"G. c #785655",
"H. c #F392EC",
"J. c #753469",
"K. c #AA54A9",
"L. c #D44ED2",
"P. c #D1B6B7",
"I. c #C987C7",
"U. c #DAA3E3",
"Y. c #F8B6D8",
"T. c #D4C4CF",
"R. c None",
"E. c #514334",
"W. c #473248",
"Q. c #472557",
"!. c #521C6A",
"~. c #673378",
"^. c #6C2B8B",
"/. c #732C94",
"(. c #783397",
"). c #7B33A5",
"_. c #963899",
"`. c #8332A4",
"'. c #8934B7",
"]. c #9945A8",
"[. c #A749AA",
"{. c #B54BAA",
"}. c #B656AA",
"|. c #AC4CB4",
" X c #AC4CBB",
".X c #B34DBC",
"XX c #AC53B7",
"oX c #B453B4",
"OX c #BB53BC",
"+X c #B958B7",
"@X c #C557BA",
"#X c #9935C4",
"$X c #AA46C4",
"%X c #B74AC6",
"&X c #B350CD",
"*X c #9C45C4",
"=X c #C64BC7",
"-X c #C354C4",
";X c #C355CB",
":X c #C45ACB",
">X c #C859C7",
",X c #E94FD2",
"<X c #E96ED3",
"1X c #D48ECF",
"2X c #FAB7E6",
"3X c #F6CDE9",
"4X c #1D1C1C",
"5X c #5B4546",
"6X c #684A46",
"7X c #5F4F64",
"8X c #ECDBE0",
"9X c #B234CA",
"0X c #F471EB",
"qX c #F3ACD1",
"wX c #6F4F50",
"eX c #884C72",
"rX c #B16899",
"tX c #B98DC9",
"yX c #BAC5B2",
"uX c #DFC4B5",
"iX c #68431E",
"pX c #1A1817",
"aX c #381C29",
"sX c #CE28AC",
"dX c #D8C3C8",
"fX c #BAB0A7",
"gX c #D1C5B7",
"hX c #E839DD",
"jX c #3A2425",
"kX c #D657E4",
"lX c #8A3275",
"zX c #2F2B5C",
"xX c #B425CF",
"cX c #835558",
"vX c #594739",
"bX c #69503A",
"nX c #B46BAC",
"mX c #64493A",
"MX c #6B1B64",
"NX c #B88AB4",
"BX c #E3AAB7",
"VX c #4D1732",
"CX c #9B1998",
"ZX c #D658C7",
"AX c #534652",
"SX c #8E626C",
"DX c #922EC4",
"FX c #342F19",
"GX c #513398",
"HX c #37444E",
"JX c #971A60",
"KX c #611828",
"LX c #341419",
"PX c #B91242",
"IX c #170617",
"UX c black",
/* pixels */
"R.R.R.R.R.R.R.R.* - - = - = - * - % % = - + % % % % - % - - ; - @ 8 # @ j @ @ j @ @ * - % % X $ * % + % % p - + + % % % % - p - + % R.R.R.R.R.R.% + * - - - ",
"R.R.R.R.R.R.R.R.* = * = * - = % * = * % - - % % - % - R.R.R.- ; 7 8 6 @ z j # 8 3 @ - * % X X % - - % % + % + - % + % + p - % - % + R.R.R.R.R.R.R.R.R.R.* - ",
"R.R.R.R.R.R.R.R.- * = - - = - R.R.R.= % - % - % - - = R.R.; ; 6 8 9 j k Z Z j j ; - ; + % % % % + % - % + % % + % - - % % % % + R.R.R.R.R.R.R.R.R.R.R.R.R.R.",
"R.R.R.R.R.R.R.R.= - - * * - * - % - * % % % % % - = - - - - 6 6 r r z l F K j j ; ; ; p % % $ % - - % % % % % % p - + % + - + - % R.R.R.R.R.R.R.R.R.R.R.+ % ",
"R.R.R.R.R.R.R.R.- = - = % = - * R.R.R.- % - - * = - R.R.> ; > 7 j z A D L I v v 8 @ 8 8 - - - - - - - - % % % + - + p % % + % % + % % - % - % R.R.R.R.R.+ % ",
"R.R.R.R.R.R.R.R.= % * - - = = - % % * * - - - - - - - - ; > : > j k I I ~.~.v v 8 8 8 @ - 8 - - ; - - - % % R.R.R.- - % % % p % - % R.R.R.R.R.R.R.R.R.R.% p ",
"R.R.R.R.R.R.R.R.- * - * = - - * % % * % % = - = R.R.R.R.R.R.7 7 j j Y ~.9.M.v v 8 # @ 8 8 - : 8 - - - - + % % + % + % % - - - % - R.R.R.R.R.R.R.R.R.R.R.R.R.",
"R.R.R.R.R.R.R.R.- * = - * = - % % % % - * - - - - ; & ; 6 7 7 8 j v ~.~.M.(.!.!.j 8 8 8 - 8 - 8 ; - * * - - % % % % + - + - p R.R.* R.R.R.R.R.R.R.R.R.R.R.R.",
"R.R.R.* - = - = R.R.R.R.R.R.R.= % % = - - - ; ; ; > > ; R.R.8 w j j c c 7XT zXj 8 8 6 6 8 @ 8 - % - - % - % % - % p % + - % % % + - % % % % + - R.R.R.% - % ",
"- * > = : * > > R.R.R.R.R.R.R.* - * - = ; ; ; ; ; ; 7 7 7 9 8 8 c c 8 c T J c j 8 - 6 6 - 6 6 - - % % % + % % + - - - - % + - p R.R.R.R.R.R.- % - @ - % % % ",
"> = - > = - - = R.R.R.R.R.R.R.R.= - ; ; 6 6 1 6 6 R.R.R.9 9 8 # @ c 8 8 x z j l 8 # - - - - ; ; - - % % - % % - + % % p % % - + - % R.R.R.R.* % % % - % % + ",
"- * - = * > - * R.R.R.R.R.R.R.R.* = 6 ; 9 6 6 9 6 6 6 9 9 w 8 # 8 c zX8 z z k z 8 8 - 6 6 - - - ; - - - % - % % - % % % % - % - - * R.R.R.R.R.- - % % % % % ",
"> R.R.> = > * = R.R.R.R.R.R.R.R.3 ; 9 6 9 y 9 w w w 9 w e k w w # 6 9 9 e e e e w w 6 6 6 ; ; 6 ; ; - & - - = - % % - % % % % - % % R.R.R.R.R.- % - R.R.- % ",
"= - = * - > - > R.R.R.R.R.R.R.R.& ; 9 9 w r e t l t w e e e k k 9 6 9 w f n n # e w 6 6 6 6 6 ; 7 > > > - ; - - - - % % - % - % - R.R.R.R.R.R.* % % % % * % ",
"& - - - > - - & R.R.& > R.R.- - 6 9 9 9 d b t b B W.d k M M n e y y y y VXM VXf b d e e 9 9 9 0 9 r 9 9 ; @ - - % % % - * * % % % - * R.R.R.R.R.+ - - % % % ",
"> ; & - & - > - - - - - ; & > & 9 9 e e e b l l F D M M M n e f e y y d j M M n n b w w r r q r 0 9 9 6 6 ; ; ; & % - - - * - % % - - R.R.R.R.R.R.R.R.% % % ",
"; ; = - - * - = * - - & 6 > 8 7 w w k M Q.Q.P U J K Z C N M f N M f d f a f N N !.!.U Y J Q.x n k k w w 9 9 9 6 - & & % % % O % * R.R.* * - % * % % % % % R.",
"R.; > = = > * > > = & ; ; > 7 8 y r n b Q.J P Y J J A Z N N N M M b f f f f N N P P Y Y T J Q.x l k k w w 9 9 6 ; & % & % & % % & % % & % % % % % % % & * % ",
"; ; - - - : - : = - ; ; 9 9 8 w e l Q.A P U ) ] ` +.U !.F S H N A P S N h N H S U ` ^.(.) !.!.J n n R.R.R.R.0 9 ; ; = - % O * % * R.R.* * - % - % % % % % % ",
"; ; - > * * - * > - ; 6 9 9 8 c l M S A U Y _ ..) +.) U H G F H L L G N N N S G ` _ ../.) ) J U Q.n n k w r 9 6 6 ; = = % % O * % - = % % = % = * % % % % % ",
"; & - = : > R.R.- > - ; 9 6 r t M C P L W ` { ).+.} ` ` R E H G R ~.E F G J.~.~. .} o.o.{ { ) ) R.R.m n w w 6 9 & ; * = O O % % % * % % % % * & % % * % % % ",
"; - > - - * : * = > ; 3 0 0 r t C A L L ` _ { } { o.` { J.E J.E ~.~ E E E J.~ ~ } } o.} +.GX) ) A S C m l e r 6 ; - * > % % % % % - = - = - * % % % & % % % ",
"; ; > * : * : : > - ; 9 9 0 e d P P Q ` /.} o.o.,.O.X.} @.' [ @.[ @.~ ~ ~ ~ |  .,.,.O.O.O.O.{ +.F A C C b l 9 7 9 ; & & % - % % = * - * R.R.R.R.% % R.R.R.R.",
"R.R.R.= : - * > ; & 3 3 9 0 b b S L _ _ | | o.o.O.O.X.X.lX@.[ @.[ [ ~ ~ ~ @.#.o.,.O.,.O.O.O.{ { E F A C b b u 9 9 3 > & % * = = % % % = % % * % % * % % % * ",
"> 6 : : = > > * 6 7 6 6 r l n M P Q ' ^.`.X.'.DXX.:.`.#.' ! _.$.6.lX@.@.6.6.|  .,.=.,.=.o.o.+.o.~.~.L P C V b k 1 0 ; ; & ; - - = % % % = - = R.R.- % R.R.R.",
"R.: : : > - > > 7 6 6 r t t b m !.Q ' _ `.&.#X*X'.;.`.:.@.lX$.>.6.6.6.@.$.[ #.#.,.,.,.,.,.o.o.o.~.~.Y Y D D m k 0 1 ; ; ; & ; - % % - = * - - * % = % * & - ",
"; : : : * > > > 9 6 9 r t W.C N Q Q +.+.&.`.*X&X>.2.;.=.#.#.>.].].6.].].=.`.=.1.<.,.<.<.=.*.o.o.{ { W U K S m M f y 3 3 ; ; - ; % - % - - * - = * = & * % * ",
": ; * > > > = > 7 7 w r l l M C ` W /.' O.'.&X&X2.2.;.>.#.=.0.[.[.].[.].=.=.<.<.<.<.<.DX,.,.o.o./...] ~.I A C b q q 1 3 6 6 ; - = % % - % & R.R.R.R.R.R.- * ",
": : : : > > > > 7 6 r w l b C F +.^.&.`.>.]. Xa.a.$X4.$X2.2.%X$X=.;.-.;.<.DXDX#XDXDXDXDX,.'.'.O.} } ^.` I K C C f 2 9 3 9 ; - - ; % % - * & - * % = - % = - ",
": : : : > - > > 6 r 9 r l W.A F { ^.&.:.8.]. Xa.a.a.4.0.4.2..X4.-.-.1.2.2.DXDX#X#XxX#XDX'.,.,.*.(...] ] ~.I A D d d q 9 R.R.; ; ; - & = * % % % % * * % % % ",
"R.R.6 ; - - ; 7 6 r r l b W.A K  .{ &.;.|.XXa.XX X0.4.0.<.-.4.<.-.2.<.#XxXDXxX#X#X#XDX#X<.<.,.=.).| { ^.) Y I K g d d R.R.# 3 ; ; ; R.R.R.R.* % - * - % R.R.",
"R.R.> ; R.R.> ; 6 8 l r b W.R E  .{ &.:.XXXXd.a.a. X4.4.4.<.<.<.2.-.DXDXDX#X#Xp.#Xp.#X#X<.'.1.=.).X./...R.R.R.K W.g d y e w 9 9 ; ; % = R.R.R.R.% * % & * * ",
"R.R.R.6 > : 8 : = = e b !.P ` ` #. .=.=.a.+Xa.|.d..X4.4.#X4.xX<.p.2.9XDX9XDXxXDXDX#X#X#X-.2.2.$X`.#.| #. .%.+.+.!.` T !.x x e y 1 # - R.R.R.R.R.R.R.R.R.R.R.",
"R.R.: : ; 7 : i < 3 d d P P ^.^.o.&.#.=.XXXXOX+Xd.w.4.4.#Xp.<.<.p.4.p.#Xp.9XxXDXDX#X#X#X<.>.2.$X>.:.#.:.#.#.+.#.) ) !.!.x x d r 9 9 R.R.R.R.R.R.R.R.R.R.R.R.",
"$ : ; : 6 7 7 7 > r n m P Q  . .#.=.=.#.[.[.OXd.d.d.%X4.p.5.5.DXp.#X#X#X9XZ.p.p.#X#X2.#X4.0.$X%X>.>.:.;. .&. .X.+.+.U !.Q.v n b 9 9 R.R.R.R.R.R.R.R.R.R.R.R.",
"R.R.; 6 6 : 7 8 3 0 n C U U  .+.o.*.=.&.].[.OXs.d.s.s.$X9X#X#Xp.9X#Xp.9X&X&XxXp.p.#XDXp.4.%Xs.d.0.8.;.>.#.#. .&.} { ) U A Q.n n w 9 6 6 R.R.R.R.R.R.R.R.R.R.",
"R.R.6 8 : 6 8 7 u r V D U ` +.o.=.CX,.,. X Xw.s.-X-Xg.;X%X4.5.4.#Xp.p.p.9X&XxXDX#X#X<.<.4.9X%X%X$X$X9.2.X.`. .=.&.| /.` R !.!.v R.R.R.; R.R.R.R.R.R.R.R.R.R.",
"$ : : ; ; 7 8 7 r u V Z W _ o.X.*.o.,.,.a.w.w.s.s.d.g.g.=X9X9X4.p.p.&X9X&X9Xp.p.p.p.p.#Xq.q.%X%X&Xa.8.8.=.:.#.&.| | /.+.W Q !.!.l r 9 6 > - R.R.R.R.R.R.R.R.",
": - 6 : > 7 7 7 c l J K ` ` o.*.o.*.<.DXa.%Xs.s.=X>XL.g.g.=X%X%X%X%Xg.g.g.=X9X%Xp.p.%X9X=X=X=X=X$Xa.0.8.>.>.#. .X.&. .o.' ' Q MXl R.R.9 ; ; = R.R.R.R.R.R.R.",
": ; : 6 7 7 7 i l c Z K ^.+.=.=.,.*.#XxXa.a.-X-X=X=Xg.g.g.g.=X&X=X%Xg.g.kXg.%X%Xp.p.9X&X=X%X%Xq.XX&Xa.a.].8.#.#. .&. . .' ' Q _ l l w 8 R.R.- R.R.R.= * * * ",
": ; 6 6 : : 9 9 l l J J (.] &.&.&. .&X$XXXw.d.d.=Xg.kXg.g.g.d.g.-X>Xg.g.kXj.kXkX$Xp.h.:Xd.a.oXq.XXw.XXXXK.8.[.].=.*.X. . .X.` +.l w 9 9 6 6 - - - * R.R.R.R.",
"; : : 6 6 8 7 0 r l Z Z (...&.&.&.&.a.$X+Xw.s.-Xq.q.;X=XkXg.kXkX-X-Xg.g.g.kXg.g.&X$Xd.:Xd.f..Xw.XXXXXXXX[.[.8.[.*.=. .| +.} +.` l l w R.R.6 R.R.- > R.R.R.R.",
": : 6 : 8 : 7 7 r l Z V (.' &.*.#.$.w.XXoX}.@X@X>X>Xg.;X:Xd.g.f.>X>Xg.h.g.g.g.g.g.g.f.f.j.j.nXXXw.XXXXXX|.].].].<.;. .X.+.{ ) R.R.k e w 6 R.R.> > R.R.R.R.R.",
": ; : 6 ; 7 > 7 w l V V [ /.&.&.$.(.w.0.}.}.@X@Xr.OX;XOXh.f.d.f.y.h.ZXg.g.g.g.j.&X:Xe.+X1XtXXX9.XX+XXXK.|.|.].].2.1.| X.^.+.` +.l k w w 9 0 & ; R.R.R.R.R.R.",
": ; 6 : : 8 : 7 R.R.x V U W | X.#.`. X2.}.}.}.y.y.oXh.+X1Xj.NXnXt.y.@X>X>X;XZXg.nXf.I.I.U.x.tXtXK.K.XXXXXX].XXXX8.8.(.| ^...W ` l l l w 9 9 > - > R.R.R.R.R.",
"> ; : ; 8 - : 7 i 0 W.c U W | X.`.| 0.>.}.}.7.@X@X}.e.e.I.I.e.nXu.ZX>X>X>Xg.h.ZXK.f.1X1XU.D.NXNXK.K.XXXXXXK.].XX*X0.} | ^.(.` ` z k w z 0 R.R.R.> R.R.R.R.R.",
"R.: - > 6 : 6 7 8 0 z z U U (.(.'.O.;.=.+X}.{.}.+Xe.1Xj.b.b.2XF.<Xj.j.ZX>XZX>Xh.tX1XS.F.S.A.NXNXXXXXK.oXK.8.8.XXXX9.(...` ..U U l c r r 6 R.R.R.> R.R.R.R.R.",
"> > > : 8 : > 7 7 9 k x U !./.).*.*.;.&.+X}.{.@XK.e.j.I.b.D.D.D.z.<Xj.ZX>X>X@X@X1XI.D.F.x.x.NXNXoX{.XXXXXXXXXXXXXX9.(...` ..U !.l k w w 6 6 R.R.R.R.R.R.R.R.",
": : > ; > > 7 > 7 9 l l Q.Z K L [ [ $.$.3.[.-Xg.,XR.<X<X2Xv.c.P.uXqXn.n.fXl.l.NXA.A.x.S.U.U.nX7.XXXXoXXX|.q.K.K.>.>.(.(.~ ~ A S r r 8 8 7 7 : ; : : R.R.R.= ",
": > : : > > > 7 7 7 R.R.Q.Q.P I [ ' @.' _.3.>XkXk.k.0Xz.2X2XA.c.BXuX3Xn.l.NXNXNXx.x.D.F.U.U.nX7.oXoXXXw.w.R.R.[.$.>./.(.Q ~.S Q.c c 8 8 7 7 7 ; > ; R.R.R.R.",
"R.R.R.R.3 > > i 7 7 r r b m M S { .. ./.>.3.@Xj.<Xi.i.i.qXqXuXn.uXuX8X8XuXP.T.yXdXdXT.S.I.l.}.7.K.}.{.oX.X|.$X0.o.).] ..C A e b r i 8 8 8 8 > > - > > R.R.R.",
"> > > > > > > > 7 7 9 r b M M N ) `  .{ #.>.@X>Xi.<Xi.u.c.c.uX8XP.gX8XdXgXP.T.T.yXT.n.dXnXrXrXrX{.}.K.oX|.0. X0.o.o.) ^.Q.Z y d r 8 7 7 7 : ; : > - R.R.R.- ",
"> > > > > > 3 R.R.> 0 0 e l b W.P I ^.] #.$.[.|.i.,Xu.i.z.c.uX8X8X8X8XS.R.R.x.P.l.A.D.D.i.i.i.i.}.7.{.}. X0.*X*X..^.P Y M F w w 8 8 7 8 8 : > > * R.R.R.R.* ",
"> > > > > > > > > R.R.0 t t b b K P _ _ #.#._.C.i.i.<Xu.l.l.n.3X8X8X8X8XA.P.A.yXP.A.c.l.i.i.i.i.t.R.R.R.R.3.8.'.` ` T U C D l e 8 8 8 7 7 6 ; - - > > R.R.R.",
"> > > > > > > > > 7 3 0 0 r q q Z x B B J.J.>.#.Z.9Xr.>Xu.nXc.c.b.U.U.U.F.D.D.Y.2X2Xz.<X,XsX,X,Xy.h.@X{.>._.:.| I F n M k y 9 1 8 8 6 8 ; ; > - > R.R.R.R.* ",
"> i > 3 i > 3 > i > 0 3 0 r q u Z Q.M N H J.#.#.5.xX@XZXnXrXBXD.U.U.U.b.Y.D.F.D.2XY.z.j.i.,X,X,X>Xh.+X{.:.$.(./.S S n n e w # 9 8 6 8 8 : : R.R.- > > R.R.- ",
"> > > > > > > > 3 R.R.R.R.3 q u b W.N F J.J.lXMX=.CX5.-.Z.L.0XH.z.qXqXqXuXc.n.n.Y.n.u.rXu.e.e.y.}.K.[._.[ ! L P n m c r 9 9 6 ; > ; > = - - - > > - > - > = ",
"> > > > > > > > > > > 7 i 0 q q b d M S R E ! lX-.-.9X-.Z.Z.0X0XD.Y.qXBXBXBXn.n.Y.c.nXrXe.nX{.K.[.]._.@.! ! L P n M w l 6 6 ; 6 & > > > - > - > > > - R.R.R.",
"R.R.R.R.R.R.R.> > R.R.i i 7 0 3 d 0 f t VXN H KX%.#.5.3.=X9Xk.k.}.i.qXH.2Xv.qXY.v.z.rX}.e.+X[.]._.@.[ W L L C N l l w r 7 7 > > > - - * > R.R.> - > > - > - ",
"> > > > > > > > 7 > i 7 7 i 0 0 q 9 M W.R.R.VXMX#.@.3.5.=X9XkXL.i.u.z.v.v.Y.v.Y.z.l.}.}.w.oX]._.@.[ ! ! F R A F l c 8 r : 6 > 7 > - > > > = : - > - - > R.R.",
"R.R.R.R.R.R.R.i R.R.R.R.> 7 0 3 # # vX^ iXV.G.G.J.J.eXeX7.7.4.p.7.7.i.u.R.R.R.rXnXnX6.].@.lX! ! R P A P C n t w r 0 r 9 7 : : 7 > * - = > - > = - > > = - - ",
"R.R.R.R.R.R.R.R.R.R.R.i i i 0 > w # ^ V.cXcXm.cXeXJ.eXeX_.C.4.p.{.{.u.j.u.R.R.7.7.}.6.7.@.[ ~ ! R R S P M C b l r r 7 9 : > : : > * > > > = > > > - - - > = ",
"> > > > > > > 7 > > > 7 > R.R.; R.R.7XG.bXcXiXiX^ bXm.m.eX( J.eX7.SXJ.J.G G lXm.E J.H R Z v v Q.M n M M l e 0 0 7 0 7 > > > > > > > * > R.R.= - > - > - - - ",
"i > > > > > > > > 3 > 0 > > 3 > N.N./ m.V.cXiXbX^ bX/ / J.( ( eX6.6.J.eXJ.H H H H R MXR S L A S N S f N k e q r 0 7 7 6 > > : ; - = > > R.R.> > - = > - - - ",
"R.R.R.R.R.R.R.3 R.R.R.R.R.R.R.R.R.R.R.R.R.R.R.R.R.R.R.R.R.R./ / ( R.R.R.B N N W.R.R.R.R.W.R.R.R.R.R.R.R.R.R.9 0 0 ; 3 3 ; > > - > > R.R.R.R.- > > > * R.R.R.",
"R.R.R.R.R.R.R.R.R.R.R.7 > > > > R.R.R.R.R.R.R.R.R.R.R.R.R.R.R.R.R.B R.R.R.R.R.N F R.R.R.R.R.R.R.R.R.R.R.R.R.R.0 0 3 9 ; > ; ; > > - R.R.R.R.- - - > = R.R.R.",
"R.R.R.R.R.R.R.R.R.R.R.R.R.R.R.R.R.R.R.R.R.R.R.R.R.R.R.R.R.R.W.h R.R.R.R.R.f f f R.R.R.R.R.R.R.R.R.R.R.R.R.R.R.R.R.R.R.R.R.R.R.R.R.R.R.R.R.R.R.R.R.R.R.R.R.R.",
"R.R.R.R.R.R.R.R.R.R.R.R.R.R.R.R.R.R.R.R.R.R.R.R.R.R.R.R.R.R.R.h N d d f R.R.R.R.R.R.R.R.R.R.R.R.R.R.R.R.R.R.R.R.R.R.R.R.R.R.R.R.R.R.R.R.R.R.R.R.R.R.R.R.R.R.",
"R.R.R.R.R.R.R.R.R.R.R.R.R.R.R.R.R.R.R.R.R.R.R.R.R.R.R.R.R.R.R.d R.R.R.R.R.q 2 1 2 2 R.R.R.R.R.R.R.R.R.R.R.R.R.R.R.R.R.R.R.R.R.R.R.R.R.R.R.R.R.R.R.R.R.R.R.R.",
"R.R.R.R.R.R.R.R.R.R.R.R.R.R.R.R.R.R.R.R.R.R.R.R.R.R.R.R.R.R.R.2 R.R.R.q 2 2 , , R.R.R.R.R.R.R.R.R.R.R.R.R.R.R.R.R.R.R.R.R.R.R.R.R.R.R.R.R.R.R.R.R.R.R.R.R.R.",
"R.R.R.R.R.R.R.R.R.R.R.R.R.R.R.R.R.R.R.R.R.R.R.R.R.R.R.R.R.R.R.B.B.3 < < = N.< N.g g a 4 s s vXR.R.R.R.R.R.R.R.R.R.R.R.R.R.R.R.R.R.R.R.R.R.R.R.R.R.R.R.R.R.R.",
"R.R.R.R.R.R.R.R.R.R.R.R.R.R.R.R.R.R.R.R.R.R.R.R.R.R.R.R.R.R.5 R.R.R.& o O & R.R.R.R.B.N.R.R.R.vXR.R.R.R.R.R.R.R.R.R.R.R.R.R.R.R.R.R.R.R.R.R.R.R.R.R.R.R.R.R.",
"R.R.R.R.R.R.R.R.R.R.R.R.R.R.R.R.R.R.R.R.R.R.R.R.R.R.R.R.R.R.R.R.R.R.R.R.R.& < < B.B.B.5 B.R.R.vXR.R.R.R.R.R.R.R.R.R.R.R.R.R.R.R.R.R.R.R.R.R.R.R.R.R.R.R.R.R.",
"R.R.R.R.R.R.R.R.R.R.R.R.R.R.R.R.R.R.R.R.R.R.R.R.R.R.R.R.R.R.R.R.= B.= O < < < < N.B.N.B.s s s s R.R.R.R.R.R.R.R.R.R.R.R.R.R.R.R.R.R.R.R.R.R.R.R.R.R.R.R.R.R.",
"R.R.R.R.R.R.R.R.R.R.R.R.R.R.R.R.R.R.R.R.R.R.R.R.R.R.R.R.R.R.R.R.R.R.R.R.R.R.R.R.O = B.< 4 5 g s g R.R.R.R.R.R.R.R.R.R.R.R.R.R.R.R.R.R.R.R.R.R.R.R.R.R.R.R.R.",
"R.R.R.R.R.R.R.R.R.R.R.R.R.R.R.R.R.R.R.R.R.R.R.R.R.R.R.R.R.R.R.R.R.R.R.R.R.R.R.R.o O O R.R.B.B.s g g R.R.R.R.R.R.R.R.R.R.R.R.R.R.R.R.R.R.R.R.R.R.R.R.R.R.R.R.",
"R.R.R.R.R.R.R.R.R.R.R.R.R.R.R.R.R.R.R.R.R.R.R.R.R.R.R.R.R.R.R.R.R.R.R.R.R.R.% & & @ o R.R.R.2 4 R.R.R.R.R.R.R.R.R.R.R.R.R.R.R.R.R.R.R.R.R.R.R.R.R.R.R.R.R.R.",
"R.R.R.R.R.R.R.R.R.R.R.R.R.R.R.R.R.R.R.R.R.R.R.R.R.R.R.R.R.R.R.R.R.R.R.R.R.R.R.R.. + . . o o 1 3 R.R.R.R.R.R.R.R.R.R.R.R.R.R.R.R.R.R.R.R.R.R.R.R.R.R.R.R.R.R.",
"R.R.R.R.R.R.R.R.R.R.R.R.i 3 R.R.R.R.R.R.R.R.R.R.R.R.R.R.R.R.R.R.R.R.R.R.R.R.R.& % + p + @ & ; 3 3 R.R.R.R.R.R.R.R.R.R.R.R.R.R.R.R.R.R.R.R.R.R.R.R.R.R.R.R.R.",
"R.R.R.R.R.R.R.R.R.R.R.R.R.R.R.R.R.R.R.R.R.R.R.R.R.R.R.R.R.R.R.R.R.R.R.R.R.R.R.R.; - + + + + @ & R.R.R.R.R.R.R.R.R.R.R.R.R.R.R.R.R.R.R.R.R.R.R.R.R.R.R.R.R.R.",
"R.R.R.R.R.R.R.R.R.R.R.R.R.R.R.R.R.R.R.R.R.R.R.R.R.R.R.R.R.R.R.R.R.R.R.R.R.R.R.R.> > 7 - +   @ R.R.R.R.R.R.R.R.R.R.R.R.R.R.R.R.R.R.R.R.R.R.R.R.R.R.R.R.R.R.R.",
"R.R.R.R.R.R.R.R.R.R.R.R.R.R.R.R.R.R.R.R.R.R.R.R.R.R.R.R.R.R.R.R.R.R.R.R.R.R.R.R.3 > > 3 % - + + R.R.R.R.R.R.R.R.R.R.R.R.R.R.R.R.R.R.R.R.R.R.R.R.R.R.R.R.R.R.",
"R.R.R.R.R.R.R.R.R.R.R.R.R.R.R.R.R.R.R.R.R.R.R.R.R.R.R.R.R.R.R.R.R.R.R.R.R.R.R.R.R.R.R.R.R.R.R.R.R.R.R.R.R.R.R.R.R.R.R.R.R.R.R.R.R.R.R.R.R.R.R.R.R.R.R.R.R.R.",
"R.R.R.R.R.R.R.R.R.R.R.R.R.R.R.R.R.R.R.R.R.R.R.R.R.R.R.R.R.R.R.R.R.R.R.R.R.R.R.R.R.R.R.R.R.R.R.R.R.R.R.R.R.R.R.R.R.R.R.R.R.R.R.R.R.R.R.R.R.R.R.R.R.R.R.R.R.R.",
"R.R.R.R.R.R.R.R.R.R.R.R.R.R.R.> R.R.R.R.R.R.R.R.R.R.R.R.R.R.R.R.R.R.R.R.R.R.R.R.R.R.R.R.R.R.R.R.R.R.R.R.R.R.R.R.R.R.R.R.R.R.R.R.R.R.R.R.R.R.R.R.R.R.R.R.R.R.",
"R.R.R.R.R.R.R.R.R.R.R.R.R.R.> > R.R.R.R.R.R.R.R.R.R.R.R.R.R.R.R.R.R.R.R.R.R.R.R.R.R.R.R.R.R.R.R.R.R.R.R.R.R.R.R.R.R.R.R.R.R.R.R.R.R.R.R.R.R.R.R.R.R.R.R.R.R."
};
