/* XPM */
static char *_a20353eb8434bd2f1c2a8740e7404e78vAgghH6n4FzEMlb_10[] = {
/* columns rows colors chars-per-pixel */
"78 86 256 2 ",
"   c #221D1D",
".  c #271D1A",
"X  c #24221D",
"o  c #2B231D",
"O  c #2A291D",
"+  c #231E21",
"@  c #291D28",
"#  c #321B36",
"$  c #1B2C29",
"%  c #252425",
"&  c #2A2524",
"*  c #252926",
"=  c #2A2925",
"-  c #262529",
";  c #2A262B",
":  c #26292A",
">  c #2B2A2B",
",  c #332523",
"<  c #342A24",
"1  c #33252C",
"2  c #3B242C",
"3  c #322A2D",
"4  c #3B2B2B",
"5  c #3B312A",
"6  c #2C2532",
"7  c #2D2A32",
"8  c #2B2638",
"9  c #322634",
"0  c #332A34",
"q  c #3B2B34",
"w  c #34253B",
"e  c #3A253C",
"r  c #352B3A",
"t  c #3A2B3C",
"y  c #3C2433",
"u  c #383138",
"i  c #283332",
"p  c #1D1F20",
"a  c #432B2A",
"s  c #46352B",
"d  c #442A3B",
"f  c #462837",
"g  c #493735",
"h  c #522E37",
"j  c #381C4A",
"k  c #3B2543",
"l  c #3C2B43",
"z  c #392747",
"x  c #3C2653",
"c  c #342E47",
"v  c #4A1C52",
"b  c #432B44",
"n  c #43254C",
"m  c #432B4B",
"M  c #492947",
"N  c #542A48",
"B  c #573748",
"V  c #452B53",
"C  c #4B2C54",
"Z  c #4C2B5B",
"A  c #532C5C",
"S  c #552857",
"D  c #4A3256",
"F  c #573358",
"G  c #653857",
"H  c #692E54",
"J  c #4B2865",
"K  c #542B63",
"L  c #5B2C6C",
"P  c #572768",
"I  c #583367",
"U  c #5A2976",
"Y  c #5B3375",
"T  c #4C306C",
"R  c #652969",
"E  c #663569",
"W  c #632C7C",
"Q  c #662A78",
"!  c #752A79",
"~  c #763679",
"^  c #6A5446",
"/  c #694657",
"(  c #764A6B",
")  c #5B2C85",
"_  c #6B2C84",
"`  c #662886",
"'  c #752B8A",
"]  c #6A3387",
"[  c #763489",
"{  c #6C2A94",
"}  c #742C9B",
"|  c #7B2C9C",
" . c #792897",
".. c #6B3395",
"X. c #7C2CA3",
"o. c #7929A7",
"O. c #772CB0",
"+. c #6D1D92",
"@. c #863789",
"#. c #842B9A",
"$. c #863599",
"%. c #8F2D8C",
"&. c #832CA4",
"*. c #832CAB",
"=. c #892BA9",
"-. c #952AA9",
";. c #8C33AB",
":. c #8836A8",
">. c #9638AA",
",. c #882CB5",
"<. c #952DB7",
"1. c #8C32B3",
"2. c #9737B7",
"3. c #A639A8",
"4. c #A53AB9",
"5. c #B12FB3",
"6. c #924892",
"7. c #AA4E99",
"8. c #9B44B6",
"9. c #8D49AB",
"0. c #A646B7",
"q. c #B74BB7",
"w. c #B453BC",
"e. c #B965B8",
"r. c #C64BB8",
"t. c #CF53B4",
"y. c #C665B9",
"u. c #CD6FB4",
"i. c #DA5BB3",
"p. c #A539C5",
"a. c #B453C3",
"s. c #BC54C4",
"d. c #BB57C8",
"f. c #BB67C5",
"g. c #C857D4",
"h. c #C865C6",
"j. c #D370CD",
"k. c #ED4FE8",
"l. c #CD8BB8",
"z. c #E991D2",
"x. c #D2AFCF",
"c. c #E5B8C9",
"v. c #F9A8E7",
"b. c #EEB0EC",
"n. c #EBCBD4",
"m. c #774A57",
"M. c #774590",
"N. c #35281D",
"B. c #3B2C24",
"V. c #74554A",
"C. c #A83595",
"Z. c #CE37CD",
"A. c #D8B9C9",
"S. c #D9B9D5",
"D. c #E7A9D8",
"F. c #E6B7D7",
"G. c #785655",
"H. c #F392EC",
"J. c #753469",
"K. c #AA54A9",
"L. c #D44ED2",
"P. c #D1B6B7",
"I. c #C987C7",
"U. c #DAA3E3",
"Y. c #F8B6D8",
"T. c #D4C4CF",
"R. c #533B39",
"E. c #514334",
"W. c #473248",
"Q. c #472557",
"!. c #521C6A",
"~. c #673378",
"^. c #6C2B8B",
"/. c #732C94",
"(. c #783397",
"). c #7B33A5",
"_. c #963899",
"`. c #8332A4",
"'. c #8934B7",
"]. c #9945A8",
"[. c #A749AA",
"{. c #B54BAA",
"}. c #B656AA",
"|. c #AC4CB4",
" X c #AC4CBB",
".X c #B34DBC",
"XX c #AC53B7",
"oX c #B453B4",
"OX c #BB53BC",
"+X c #B958B7",
"@X c #C557BA",
"#X c #9935C4",
"$X c #AA46C4",
"%X c #B74AC6",
"&X c #B350CD",
"*X c #9C45C4",
"=X c #C64BC7",
"-X c #C354C4",
";X c #C355CB",
":X c #C45ACB",
">X c #C859C7",
",X c #E94FD2",
"<X c #E96ED3",
"1X c #D48ECF",
"2X c #FAB7E6",
"3X c #F6CDE9",
"4X c #1D1C1C",
"5X c #5B4546",
"6X c #684A46",
"7X c #5F4F64",
"8X c #ECDBE0",
"9X c #B234CA",
"0X c #F471EB",
"qX c #F3ACD1",
"wX c #6F4F50",
"eX c #884C72",
"rX c #B16899",
"tX c #B98DC9",
"yX c #BAC5B2",
"uX c #DFC4B5",
"iX c #68431E",
"pX c #1A1817",
"aX c #381C29",
"sX c #CE28AC",
"dX c #D8C3C8",
"fX c #BAB0A7",
"gX c #D1C5B7",
"hX c #E839DD",
"jX c #3A2425",
"kX c #D657E4",
"lX c None",
"zX c #2F2B5C",
"xX c #B425CF",
"cX c #835558",
"vX c #594739",
"bX c #69503A",
"nX c #B46BAC",
"mX c #64493A",
"MX c #6B1B64",
"NX c #B88AB4",
"BX c #E3AAB7",
"VX c #4D1732",
"CX c #9B1998",
"ZX c #D658C7",
"AX c #534652",
"SX c #8E626C",
"DX c #922EC4",
"FX c #342F19",
"GX c #513398",
"HX c #37444E",
"JX c #971A60",
"KX c #611828",
"LX c #341419",
"PX c #B91242",
"IX c #170617",
"UX c black",
/* pixels */
"lXlXlXlXlXlXlXlXlXlXlXlXlXlX> * O = - 8 z j c j - 6 - ; , , 3 = ; ; : : : : 7 > 1 > , , & % 8 - @ - p - p - - - % % - - - @ p lXlXlXlXlXlXlXlXlXlXlXlXlXlXlX",
"lXlXlXlXlXlXlXlXlXlXlXlXlXlX= - = < ; : j 8 j c - # 1 ; & , 1 1 6 6 ; 7 6 7 > > , 1 < & @ & - 6 - - - p - p p - @ $ p - $ p - p lXlXlXlXlXlXlXlXlXlXlXlXlXlX",
"lXlXlXlXlXlXlXlXlXlXlXlXlXlX- > pX= @ 8 c c T Y 9 9 9 ; ; 3 4 > ; ; 7 6 7 7 9 6 9 9 9 , , ; ; 6 - - - - $ - lXlX- - - - - p - $ lXlXlXlXlXlXlXlXlXlXlXlXlXlX",
"lXlXlXlXlXlXlXlXlXlXlXlXlXlX= * % > - 6 8 j HX7X9 # ; 9 , ; 3 3 3 7 7 7 8 8 9 9 y r 1 & 9 ; ; @ - - % % - % % p $ + - p - - - p - lXlXlXlXlXlXlXlXlXlXlXlXlX",
"lXlXlXlXlXlXlXlXlXlXlXlXlXlXlX- O = - - c c T 7Xw # 8 6 6 # r 3 ; 9 8 r z z x x J x j j 9 w 6 6 - - % % - $ - - - - - p - @ lXlXlXlXlXlXlXlXlXlXlXlXlXlXlXlX",
"lXlXlXlXlXlXlXlXlXlXlXlXlXlXlXlXX = @ 8 c c T I e 8 6 # 6 3 9 7 0 6 r 8 z z x V T zXk w w 9 ; : - - % % - p p - $ - - $ - $ p lXlXlXlXlXlXlXlXlXlXlXlXlXlXlX",
"lXlXlXlXlXlXlXlXlXlXlXlXlXlX> = : > @ 8 8 # 8 8 8 8 8 8 # w 9 w 9 0 z e x x I Y U T Q.x k w 6 6 ; ; - - - % - + @ @ - - - - 8 lXlXlXlXlXlXlXlXlXlX- lXlXlXlX",
"lXlXlXlXlXlXlXlX> lXlXlXlXlX& - - p 8 - 8 j c j # j 8 8 6 6 w w r r c z Q.Z Y Y U !.Q.Q.w z 7 7 : 6 - - - - - % - p - - ; ; lXlXlXlXlXlXlXlXlXlX* lXlXlXlXlX",
"lXlXlXlXlXlXlX> > = > * - = = * = & & & 9 ; @ 6 6 > > > ; > 0 t n Q.S P ` ` { +.) ) J zXx z w w : 6 ; ; - - - - - - - - : - - - * lXlXlXlXlX- lXlXlX- * lXlX",
"lXlXlXlXlXlXlX> : > : > > > & % & = & = 6 6 # 6 > > > 7 0 4 t d M Q.P R { { ` ) ) ) !.!.x x j 8 8 6 : : - - - - - - - - : lXlXlXlXlXlXlXlXlXlX* - - lXlXlXlX",
"lXlXlXlXlXlXlX= = = > = = = & = > & & & ; ; 6 6 ; : 7 7 r t m c J K W ` +.o.O.+.{ +.!.!.x Q.z k 9 8 6 6 - ; ; @ - - - - ; % ; - lXlXlXlXlXlX* lXlX* lXlXlXlX",
"lXlXlXlXlXlXlXlX* - = = = > = = = > & , ; , 6 9 : 7 7 7 t l l D P P Q _ O.+.+.o...GX) ) Q.Q.k w w 9 6 6 ; ; 6 ; 8 - 8 @ % - - - lXlXlXlXlXlXlXlX* % % % % + ",
"lXlXlXlXlXlXlX> > & & > * > = = = = % & ; 3 6 9 8 7 r r l W.Z K ) ` +.{ o.o.+.o.} +.` Q !.v n k z w 6 # 6 > 3 3 w 9 6 6 % ; lXlXlXlXlXlXlXlXlXlXlXlX- % % + ",
"lXlXlXlXlXlXlXlX; > > > - = * = = = & & ; & 6 9 7 7 r r c D D D ) `  .} &.&.O.+.o.{ ` Q K !.b M e l r w 7 7 0 3 l w 9 6 ; & & - : - lXlXlXlXlXlXlXlX% % - + ",
"= - - = - & - > > ; - & > > = = = = & & 9 ; 9 e 0 r l l x Z L L +.{ O.o.=.=.o.o.o.} ^.' R !.S v b n k k w e q 4 V M t y 6 6 6 ; ; lXlXlXlXlXlX- % % % % % % ",
"- = > - > - lXlX& > > - > > = > < = = & 9 9 9 r r u l l D Z L ~.+.O.O.o.,.,.o.o.'.}  .+.R R S Q.n m k l t w q 3 D D d r 9 9 6 ; ; > - - - - - * lXlX- % + % ",
"& > > lXlX> lXlX> - & > ; ; & 3 > ; ; > 0 3 0 q l b C D P R Q _  .{ #.&.<.<.+.o.o.).} { Q L L K Q.V z n n n v v J P x Q.j j 6 + ; ; : lXlXlXlXlXlX* - - + - ",
"lXlXlXlXlXlXlXlXlXlX> & > ; > > > > > 3 4 0 q q b W.Z Z L E _ ~ } {  .| <.<.o.o.).o.)...~.Q L P V Q.n n v n v J K P Q.K z z 8 # ; 7 ; : - - - = lXlXlXlX- - ",
"> > - > > > > - - > - > & ; ; > 3 3 3 3 q q d d C C P U ` ^. . .&.| | &.1.2.o.=.O.*.).O.W W U P Z I C A P S L L U ~.J Q x x j c : : : ; : - - - - & lXlX% % ",
"- - > - = - - > > - > > > 7 3 ; 1 ; 3 1 q u t b C D U L ^.' | #.`.&.&.:.2.$X=.*.*.*.).o.] ] Y Y K I A K I P Q ~.] [ P U x z c j 7 6 : : - * = - - - - % % % ",
"- > > - - - > = lXlXlXlX; ; ; 3 6 3 3 q t d n C A I W ` ' | &.=.:.:.1.8.a.$X*.;.'.O.).O.....] ~.L I Z A P P ~.~.;.2._ ` x x c 8 7 : ; ; = - = - - = - - - - ",
"- - - - - - - - : lXlXlX> & 3 3 3 3 0 q t u V Z K K ` _  .| =.:.X.:.$X8.&X$X;.,.:.,.:.O.(.(.] ] E L K I U Q ] ~.8.2.' ^.j j 8 c > 6 : ; - - - - - - = - - % ",
"> > : > > > > > - > > ; 9 7 9 0 9 9 0 t b b J P U ` /. .&.=.;.>.| :.a.0.s.%X>.-.,.;.'.1.`.| ..(.[ ] ~.~.' [ 6.6.$Xp. .` Q.j 8 c > : > lXlXlX- = = = - - % % ",
"> ; 6 : ; - - > : : - ; 3 > 0 0 w q t d W.M T U ] _  . .&.:.2.2.#.8.a.$Xs..X=.=.;.:.1.1.).X.[ (.[ [ ~.~.~ [ 9.$.&Xp.^./.J x c 8 7 > ; - - = - % - - - = - % ",
"> : 7 : : > : : ; lXlX6 6 7 0 0 q r d d C D U Y o.o.X.o.<.2.;.=.2.0.a. Xd..X0.0.;.-.'.1.;.*.*.X.~ ~ ~ Q [ ' 6.].0.>.! _ n Q.9 w > > 7 : - - - - - > > & - % ",
"; ; ; 7 ; : : ; : : ; > 7 7 0 r t t d W.D A ~.W { ).1.*.1.<.=.=.4.$Xd.a.d.%X4.2.;.1.1.1.1.;.*.O.~ ~ ~ ~ ' [ $.>.].$.! Q x n 8 w 7 : ; lXlXlXlX- - - - - - - ",
": ; : ; : ; : lXlXlX6 ; 9 0 t t u b Q.J K I ^.] X.O.'.1.<.4.4.p.s.&X:Xd.;Xs.4.3.2.2.DXDX'.<.,.O.@.[ @.' #.' #.@.@.' MXMXn v k e > 7 ; 6 - > * - > = - - & - ",
": 7 7 : ; > : lXlXlX6 7 9 r u t b l Q.Z L I ^.^.o.*.2.1.2.2.$X&Xg.d.:X;X:X:X X X2.'.DXDX'.'.'.'.$.@.[ '  .@.[ ' ' ' !.!.n n e w 7 : 7 : - - - = - - - = * lX",
"lXlXlX: 7 ; 7 ; > > ; 6 9 r t c W.W.T T ` { | X.;.<.>.<.-.3.&Xg.&X&Xd.&Xs.d.s.s.#XDX#X#X<.<.1.,.*.`.| | [ (.] _ Q Q !.!.VXM VXe > ; > : % - - - > > = - = lX",
"lXlXlX7 : : : : > > 7 6 9 r u b W.W.U Y ] ..X.).;.,.2.2.4.4.:Xg.d.f.kXf.s.:Xd.g.9Xp.#XDXDX'.1.1.:.:.`.| [ [ ^._ W Q !.!.n Q.f y 7 : ; : - - * = - - - - - - ",
"> ; : : : : > > > > 7 0 r r l c M D U W { } &.:.:.:.-.>.4.4.s.;Xg.g.0XkXg.:Xg.j.9X9X*X#X2.1.<.;.;.;.:.&./. .{ /.` ` U U M C k j 7 ; > - - - - - - > > = - - ",
"> > lXlX: 7 6 : > 7 7 0 r u l W.C B W Q ^.(.`.`.=.;.>.2. X.X;Xd.f.g.1X0Xj.h.d.g.&X&X$X#X<.2.<.;.>.;.=.=.#.| /.^.' /.U Q S v n f 7 7 ; > - & = - > & - - - lX",
"lXlXlX> : : > 7 > > 0 0 t t C F P Y _ _ X.o.=.:.=.#.0.0. XXXs.OXf.f.1X1X&Xh.:Xj.;X;X%X&X9X4.2.-.-.2.=.&.&.&.| | )./.` ` Q.Q.b e 7 7 > : ; : = - * * - = = - ",
"= - > > > : 7 > > > 0 0 t t Z I lXlX_ lXlX*.:.;.=.=. Xa.a.w.OXf.e.f.1X1XXX+Xq.;X>X;X%X9X$Xp.2.4.2.>.`.;.&.#.`.`.X.} _ ` P J k k 7 8 6 ; - lXlX- - = * - - % ",
"= & > > : ; 6 8 3 > 0 r b b A A U _ /.(.=.=.;.-.4.>.d.d.d.a.XXw.U.1Xb.S.u.j.r.t.g.ZX=X%X=X%Xp..X4.3.-.>.=.-.=.#.:.X./.{ A n k e 7 7 6 : : - * * * lXlXlXlX* ",
"= = = = ; : : : > > r r b b A A U ~././.*.*.-.;. X4.d.d.f.d.f.e.1XtXS.U.nXu.{.r.L.g.g.g.;X%X%X$X0.0.2.>.=.-.o.o.X.X./.^.C Q.l z 7 8 8 : - * - * = lXlXlX* = ",
"= = lXlX: : 6 7 i 0 u r b W.Z K ) { } | ;.1.>.4.4.$X-X:Xf.a.j.j.yXtXS.3Xl.l.i.@Xj.g.g.g.g.g.&X&X%X$X8.0.<.;.=.o.o.X.lXlXC n l z 6 8 7 ; > - * = * * = - lXlX",
"= lXlXlX> : 7 7 3 lXlXc z m J K ` { ).(.*.2.2.4.%Xa.-Xd.f.d.j.1XtXtXx.S.1X1Xy.+XZX-Xg.g.&Xg.d.a.$X%X0.0.>.2.=.&.} X.{ ` C lXlXw 7 7 7 ; - lXlXlXlX= - - > - ",
"= lXlXlX: > : 7 7 7 r l m W.K K { } X.X.;.2.4.%Xs.d.s.s.K.e.l.1XT.S.A.T.D.D.1Xu.+Xw.g.g.;X%Xa.%Xa.%X$X X8.8.=.o. .{ ` U Q.V w 8 7 7 > ; > = * - * * = * - = ",
"< = = = : : 7 7 7 7 c l z M J L { } X.`.2.2.0.$Xd.d.d.+XnXe.I.z.S.3Xx.S.D.D.z.z.j.d.;Xg.;Xg.s.s.a. X$X$X2.2.1.;.} } U U Z V w l 7 8 ; ; = > > = = = * = - > ",
"- lXlX> = > = > 3 3 k b Q.Q.P R { ).,.*.<.2.2.0. Xd.OX+X1X<Xl.j.T.T.S.dXT.x.tXtXU.f.&Xg.y.s.w.w.a. X8.0.=.=.o.&.} { U U n n r 7 7 7 ; ; > > : - = lXlXlXlXlX",
"> ; > > > * > > 3 0 e b Q.J P R { ).O.,.;.<.3.4..Xd.OX+X1Xj.1Xz.T.n.A.dXT.x.T.T.U.U.f.&Xd.s.w.w. Xa.2.8.o.+.#.o.} { U P Z n r 7 8 7 > ; > : = - * lXlXlXlXlX",
"; > > > > = = > 0 4 t b Q.Q.U W O.o.*.<.,.<.2.p.w.d.e.+X1Xj.b.2Xn.dXgXdXT.T.T.T.U.1Xj.a.+XOXw.oX X0.-.2.o. .X.X.{ { P U Z x 0 8 7 7 ; > - : = = = lXlXlXlXlX",
"lX; > > : > > > 4 q b b J K U _ X.).'.'.<.<.3. Xa.d.+X+XH.H.D.b.uXdXdXgXx.T.T.x.U.U.j.f.OX+Xw.0.$X0.=.=.X.o.} } { ^.U P Q.V u 0 8 6 > 6 > = - : = lXlXlXlXlX",
"lXlX> > > = i > 3 q b b J Z W ] o.:.<.1.<.<.3.p.+X@XnXnX1XD.F.F.uXP.uXgXT.T.T.S.3XU.I.tXf.d.a.a.XX0.&.#.o.o.}  .` ^.U !.n n c 9 7 8 > ; - = = - * lXlXlXlXlX",
"> > > > * > > < 0 q b W.K K ` ..*.O.2.$X4.4.4.%XoX}.nXe.z.D.F.F.uXdXdXdXS.T.T.S.b.F.U.x.f.a.d.a. X0.;.&.X.o.} } { ^.W U V V w 8 7 6 > ; > > > - = lXlXlXlXlX",
"lX3 > > > = i < q t l W.K I { (.'.O.2.4.|. X=Xr.}.t.nXl.x.F.F.S.F.S.T.T.A.T.T.A.A.c.A.BXe.K.}.+X|.0.0.>.&.X.} } { { _ ` n Q.k w 7 7 > - = > > = = * > * - - ",
"7 > > > * i < i r u b W.K K { (.'.1.2.$X0.q.9X=X}.}.NXI.c.F.T.F.n.A.n.S.T.S.S.A.A.A.qXqXj.nX+X}.XX|.0.].;.| } } ^. .` U n n l t 9 7 ; - > : - - lXlX* = lXlX",
"lXlXlXlXlXlXlX0 r u M D ) ) X.o.:.>.[.[.q.q.=Xt.@Xh.b.b.n.T.dXuXS.S.8X8XdXP.n.P.T.yXT.yXl.NXnXK.w.XX|.0.K.9.9.9././.^.` K J b k 9 7 > > & > > > = * = * lXlX",
"lXlXlXlXlXlX0 3 t u W.C ) ) ).).2.].|.|.q.r.r.=Xh.j.b.U.n.T.dXuXA.A.8X3XA.A.c.c.yXyXT.A.NXNX}.nXw.w.XX|.8.K.K.9.X.} /._ L K k k 9 0 ; 6 & > lXlX* = % = lXlX",
"lXlXlXlXlXlX3 i r u D C ....'.'.[.XX}.{.t.t.t.i.0X0XH.H.c.qXF.n.x.S.8Xn.A.A.F.n.8XT.U.S.j.j.>Xr.+Xq.oX|.K.6.K.].`.#.|  .W !.n n 0 9 ; 3 lXlXlXlX* = - lXlXlX",
"lXlXlXlXlXlX3 3 r l D D ....:.'.[.}.{.{.r.{.sXt.0X0XH.v.c.qXn.c.T.T.n.S.A.BXc.c.S.T.F.D.j.j.=XZXq.+X|.|.K.K.].].].:.#.(.W Q C n r 0 6 ; > ; lXlX= * = = lXlX",
"lXlXlXlXlXlX3 3 r l C C Q [ 8.'.[.[.{.7.7.t.t.t.k.kXH.H.v.lXlX3X3X8Xn.T.A.P.x.BXS.3Xv.v.<X,Xk.,X@X@XoX{.[.[.[.[.a.0.:.$._ W D n r lXlX6 > > lXlX- - - = lXlX",
"lXlXlXlXlXlX3 i r l b C Q ~.'.8.[.[.K.{.{.sXt.t.L.L.H.H.2X2Xn.n.8X3XT.S.BXA.BXA.D.b.v.H.<XZX,X,X>X>Xq.q.[.[.[.[.XX].:.:.] Q n z 9 9 ; > - > > > > - * lXlXlX",
"lXlXlXlXlXlX> > 0 r b M R P ..(.[.>.7.7.sXrXt.r.7.nXI.D.S.P.lXlXT.x.A.A.A.P.c.n.F.qXz.1Xi.i.,Xi.ZX>X@Xq.{.[.K.[.XX0.`.9.] W Q.j 0 0 6 ; > & lXlX= - > - lXlX",
"lXlXlXlXlXlX0 > 0 0 k b S S ' (.3.C.{.7.sX{.t.r.6.rXl.1Xx.x.P.fXfXyXA.A.A.c.P.n.F.c.l.l.i.i.i.i.j.ZX@X@XK.[.[.[.4.[.:.>.] W Z Q.0 0 ; 3 ; > > > - = * = lXlX",
"lX> lXlXlXlX3 > > 0 t l b M A E [ $.2.'.XX|.{.r.].w.[. Xu.1Xz.qXb.v.v.v.v.v.v.D.l.u.<Xu.u.}.@X}.@X@Xq.q.XX[.].XX].$.(.[ M.` Z x 3 0 - 3 ; lXlX> lXlXlXlX= > ",
"> i > > > > 7 > > 0 r r M b S F [ $.8.'.XX[.5.q.|.w.d.f.j.1XqXY.b.v.v.b.v.b.D.v.z.u.u.u.rXt.@X{.OXr.OX|.[.[.9.].$.@.' ' ..) Q.j 0 9 ; ; ; ; - = lXlXlXlX- - ",
"lXlXlXlXlXlXlXlXlX0 r u t t N F U U ).(.].:.[.3.r.L.Z.Z.L.,X,X0Xk.ZX0X<X<Xj.ZXh.<Xh.>XZXt.>X@Xq.w.oX-._.>._.(.(.(.' Q !.J J l x 9 0 > ; - > - > lXlXlXlX- > ",
"lXlXlXlXlXlXlXlXi 3 0 r t t M C P P (.M.6.6._.[.Z.L.hXhXL.,Xi.,XZX,Xj.<Xj.j.y.@XZXj.t.@Xt.@Xr.OXq.|._._.$.9.9.(.' ' S !.x v z k 0 9 ; 9 > & > - lXlXlXlX- = ",
"> > i > 3 > > > lXlX3 u r q d b N N ( ( 6.6.7.6.C.3.5.r.g.L.ZXZXr.5.3.3.C.C.C.@.3.{.C._._._.$.$.@.@.[ [ ( ] Z D E L M M u r 0 9 > 9 ; > & - = > lXlXlXlX- lX",
"lXlXlXlXlXlXlXlXlXlX3 0 r r d u n N M.eXSXeX7.7.r.3.5.9X>XZXr.q.5.{.C.C.7.7.7.%.7.{.[.C.@.@.$.%.[ ' ! ! ~.Q Z J L P b b r r 0 9 9 9 ; ; > > - - lXlXlXlX= > ",
"0 > > > 3 i i i > 0 > i > 0 q u a a ( G.G.( 6.eX6.eXeXeX( M.( 6.SXeXeXeXm.G 6XH J.MXJ.! L P S K R P A S Z K x V l m 0 q 0 > 7 7 7 ; > ; - ; - = lXlXlXlXlX- ",
"lXlXlXlXlXlXlXlX> > > i 0 0 q 3 g E.G.G.( / eXeXSXSXeX( ( 6.( eX6.SXeXeXm.m.H 6XlX! R R ~.J.E L P P A v Z Z z x l z 0 4 3 0 ; 7 7 6 ; > & > * lXlXlXlXlX> - ",
"i 3 i < i > i < lXlX0 i lXlXi 3 ^ ^ ^ wXlXlXm.cXcXcXwX/ B wX/ / ( / / G B B B N F F F B W.B M f lXlXd d M d t w 0 3 3 lXlXlXlXlXlXlXlXlXlXlXlXlXlXlXlXlXlXlX",
"lXlXlXlX3 3 lXlXlXlXlXlX> 3 3 lXlXlXlXlXcXcXcX6XcXcXwXm.B / B F / 5XB N h N N N F F W.W.M M W.M N W.lXlXd d t lXlX4 > > > > > > ; ; lXlXlXlXlXlXlXlXlXlXlXlX",
"i i 3 > > > 3 lXlXlXlXlXlXlXlXlX6X^ bXlXlXbXcXmXV.m.6XwX5X/ B B B B W.f f d N f W.d t y y y d f B B lXlXlXlXlXlXlXlXlXlXlXlXlXlXlXlXlXlXlXlXlXlXlXlXlXlXlXlX",
"3 > lXlXi 3 lXlXlXlXlXlXlXlXlXlX^ ^ 5X6XbXmXH mXmX6X6XG.6X5XB B B f h f f f f f f f y d d f M B B B lXlXlXlXlXlXlXlXlXlXlXlXlXlXlXlXlXlXlXlXlXlXlXlXlXlXlXlX",
"< i lXlXlXlXi 3 lXlXlXlXlXlXlXlXlX^ ^ ^ mXmX6XcXG.G.G.G.5XB a f f 4 q f q 4 2 1 y y d y f f f g g h lXlXlXlXlXlXlXlXlXlXlXlXlXlXlXlXlXlXlXlXlXlXlXlXlXlXlXlX",
"> 3 i 3 < 3 i > lXlXlXlXlXlXlXlXlXmXV.V.mXmXbXV.V.V.V.wXB 5Xf 4 4 f 5 4 4 2 < , 2 jXaXjX2 2 f g lXlXlXlXlXlXlXlXlXlXlXlXlXlXlXlXlXlXlXlXlXlXlXlXlXlXlXlXlXlX",
"i 3 > i > < < lXlXlXlXlXlXlXlXlXvXiX^ ^ lXlXlXlXlX6X6X6XR.B B.B.B.< < < & < B.N.g g 4 4 s g R.B lXlXlXlXlXlXlXlXlXlXlXlXlXlXlXlXlXlXlXlXlXlXlXlXlXlXlXlXlXlX",
"i lXlX3 i i 3 i lXlXlXlXlXlXlXlXlXlX^ ^ mXmXmXmX^ ^ 6X6XE.vXB.2 < < O o o < B.5 g 0 1 jX4 g R.R.lXlXlXlXlXlXlXlXlXlXlXlXlXlXlXlXlXlXlXlXlXlXlXlXlXlXlXlXlXlX",
"3 i 3 3 3 5 > 3 > 3 > > 3 i < lXlXvXvX5XvXbX^ V.mXmXmXiXf a , , O O O O o N.B.< < < N.B.N.s s g s a lXlXlXlXlXlXlXlXlXlXlXlX- lXlXlXlXlXlXlXlXlX> = : - * - ",
"i < 3 i i i > i lXlXi > i > 3 & HXE.vXvXbX^ ^ ^ mXR.s s a N.N.o O O O O o = < < < < B.B.B.s s lXlXlXlXlXlXlXlXlXlXlXlXlXlXlXlXlXlXlXlXlXlXlXlXlX: - > = > lX",
"lX5 i 3 3 > i > 3 i 5 i > > - % O FXE.E.E.5XvXvXvXR.B.N.jX, , o o o X X o X & & & lXlX< N.a s s lXlXlXlXlXlXlXlXlXlXlXlXlXlXlXlXlXlXlXlXlXlXlXlX- - * - lXlX",
"lXi > 3 3 i < 3 > > > 3 3 > % X FXi lXlXlXvXvXvXs s FXN.N.o o o X X 4XX . . & & o o O O N.N.4 5 lXlXlXlXlXlXlXlXlXlXlXlXlXlXlXlXlXlXlXlXlXlXlXlX= * > = > = ",
"3 > 3 lXlXi 3 i i 3 3 3 > > =   lXlXlXO o O . O B., o & % % + % + + 4X+ . + + @ & % % & & , 3 B.5 lXlXlXlXlXlXlXlXlXlXlXlXlXlXlXlXlXlXlXlXlXlXlX> * lXlX> * ",
"5 i i lXlX< 3 i > 5 i i 3 i = = lXlXlX* o O o N.N.o o , . %     % + % 4X+ . @ + . + + + . o , < 4 3 lXlXlXlXlXlXlXlXlXlXlXlXlXlXlXlXlXlXlXlXlXlXlXlX> = - = ",
"> 3 3 3 3 3 i < lXlXlXlXlXlXlXlXX pX4XX   X X & .   + + + + - - ; > & > ; 3 & - @ + + + + + & & > 3 lXlXlXlXlXlXlXlXlXlXlXlXlXlXlXlXlXlXlXlXlXlX> > = - - - ",
"i i 3 i 3 i 3 i lXlXlXlXlXlXlXlXlX% lXlXlXlXlXlX.   + . - % - - 3 > 7 0 ; ; > - - % 4X  + . @ % - & lXlXlXlXlXlXlXlXlXlXlXlXlXlXlXlXlXlXlXlXlXlX* - * - = : ",
"lXlXlXlXlXlXlXlXlXlXlXlXlXlXlXlXlXlXlX% 4XX X X % + = = - > - lXlXlXlXlXlXlX> & ; % + + lXlX+ +     lXlXlXlX  4X* lXlXlXlXlXlXlXlXlXlXlXlXlXlXlXlXlXlXlXlXlX",
"lXlXlXlXlXlXlXlX> 3 i > > lXlXlXlXlX= * & & % X lXlX= > > > - > > > > > > ; - - lXlXlXlXlX% lXlX+ + lXlXlXlX+   lXlXlXlXlXlXlXlXlXlXlXlXlXlXlXlXlXlXlXlXlXlX",
"lXlXlXlXlXlXlXlXi lXlX> > i i i lXlXlXlX> i > > lXlXlXlXlXlXlXlX> > > > > - lXlXlXlXlX> > lXlXlX4X4X4Xp lXlX- % lXlXlXlXlXlXlXlXlXlXlXlXlXlXlXlXlXlXlXlXlXlX",
"lXlXlXlXlXlXlXlXlXlX> > 3 > > > lXlXlXlXlXlXlX> > > > > 3 > > > > > > * > > = > > > > > > > p 4X% p lXlXlXlX* * * lXlXlXlXlXlXlXlXlXlXlXlXlXlXlXlXlXlXlXlXlX",
"lXlXlXlXlXlXlXlX> > > > > > lXlXlXlXlXlXlXlXlXlX> lXlXlX> > > > > > > > = > > = > > > > > > > - : > * > lXlX> lXlXlXlXlXlXlXlXlXlXlXlXlXlXlXlXlXlXlXlXlXlXlX",
"lXlXlXlXlXlXlXlXi < 3 i 3 lXlXlXlXlXlXlXlX> > 3 > > > > > 3 > > > > > > > - lXlXlXlXlXlXlXlXlXlXlXlXlXlXlXlXlXlXlXlXlXlXlXlXlXlXlXlXlXlXlXlXlXlXlXlXlXlX* > "
};
