/* XPM */
static char *_a20353eb8434bd2f1c2a8740e7404e78vAgghH6n4FzEMlb_11[] = {
/* columns rows colors chars-per-pixel */
"78 86 256 2 ",
"   c #221D1D",
".  c #271D1A",
"X  c #24221D",
"o  c #2B231D",
"O  c #2A291D",
"+  c #231E21",
"@  c #291D28",
"#  c #321B36",
"$  c #1B2C29",
"%  c #252425",
"&  c #2A2524",
"*  c #252926",
"=  c #2A2925",
"-  c #262529",
";  c #2A262B",
":  c #26292A",
">  c #2B2A2B",
",  c #332523",
"<  c #342A24",
"1  c #33252C",
"2  c #3B242C",
"3  c #322A2D",
"4  c #3B2B2B",
"5  c #3B312A",
"6  c #2C2532",
"7  c #2D2A32",
"8  c #2B2638",
"9  c #322634",
"0  c #332A34",
"q  c #3B2B34",
"w  c #34253B",
"e  c #3A253C",
"r  c #352B3A",
"t  c #3A2B3C",
"y  c #3C2433",
"u  c #383138",
"i  c #283332",
"p  c #1D1F20",
"a  c #432B2A",
"s  c #46352B",
"d  c #442A3B",
"f  c #462837",
"g  c #493735",
"h  c #522E37",
"j  c #381C4A",
"k  c #3B2543",
"l  c #3C2B43",
"z  c #392747",
"x  c #3C2653",
"c  c #342E47",
"v  c #4A1C52",
"b  c #432B44",
"n  c #43254C",
"m  c #432B4B",
"M  c #492947",
"N  c #542A48",
"B  c #573748",
"V  c #452B53",
"C  c #4B2C54",
"Z  c #4C2B5B",
"A  c #532C5C",
"S  c #552857",
"D  c #4A3256",
"F  c #573358",
"G  c #653857",
"H  c #692E54",
"J  c #4B2865",
"K  c #542B63",
"L  c #5B2C6C",
"P  c #572768",
"I  c #583367",
"U  c #5A2976",
"Y  c #5B3375",
"T  c #4C306C",
"R  c #652969",
"E  c #663569",
"W  c #632C7C",
"Q  c #662A78",
"!  c #752A79",
"~  c #763679",
"^  c #6A5446",
"/  c #694657",
"(  c #764A6B",
")  c #5B2C85",
"_  c #6B2C84",
"`  c #662886",
"'  c #752B8A",
"]  c #6A3387",
"[  c #763489",
"{  c #6C2A94",
"}  c #742C9B",
"|  c #7B2C9C",
" . c #792897",
".. c #6B3395",
"X. c #7C2CA3",
"o. c #7929A7",
"O. c #772CB0",
"+. c #6D1D92",
"@. c #863789",
"#. c #842B9A",
"$. c #863599",
"%. c #8F2D8C",
"&. c #832CA4",
"*. c #832CAB",
"=. c #892BA9",
"-. c #952AA9",
";. c #8C33AB",
":. c #8836A8",
">. c #9638AA",
",. c #882CB5",
"<. c #952DB7",
"1. c #8C32B3",
"2. c #9737B7",
"3. c #A639A8",
"4. c #A53AB9",
"5. c #B12FB3",
"6. c #924892",
"7. c #AA4E99",
"8. c #9B44B6",
"9. c #8D49AB",
"0. c #A646B7",
"q. c #B74BB7",
"w. c #B453BC",
"e. c #B965B8",
"r. c #C64BB8",
"t. c #CF53B4",
"y. c #C665B9",
"u. c #CD6FB4",
"i. c #DA5BB3",
"p. c #A539C5",
"a. c #B453C3",
"s. c #BC54C4",
"d. c #BB57C8",
"f. c #BB67C5",
"g. c #C857D4",
"h. c #C865C6",
"j. c #D370CD",
"k. c #ED4FE8",
"l. c #CD8BB8",
"z. c #E991D2",
"x. c #D2AFCF",
"c. c #E5B8C9",
"v. c #F9A8E7",
"b. c #EEB0EC",
"n. c #EBCBD4",
"m. c #774A57",
"M. c #774590",
"N. c #35281D",
"B. c #3B2C24",
"V. c #74554A",
"C. c #A83595",
"Z. c #CE37CD",
"A. c #D8B9C9",
"S. c #D9B9D5",
"D. c #E7A9D8",
"F. c #E6B7D7",
"G. c #785655",
"H. c #F392EC",
"J. c #753469",
"K. c #AA54A9",
"L. c #D44ED2",
"P. c #D1B6B7",
"I. c #C987C7",
"U. c #DAA3E3",
"Y. c #F8B6D8",
"T. c #D4C4CF",
"R. c #533B39",
"E. c #514334",
"W. c #473248",
"Q. c #472557",
"!. c #521C6A",
"~. c #673378",
"^. c #6C2B8B",
"/. c #732C94",
"(. c #783397",
"). c #7B33A5",
"_. c #963899",
"`. c #8332A4",
"'. c #8934B7",
"]. c #9945A8",
"[. c #A749AA",
"{. c #B54BAA",
"}. c #B656AA",
"|. c #AC4CB4",
" X c #AC4CBB",
".X c #B34DBC",
"XX c #AC53B7",
"oX c #B453B4",
"OX c #BB53BC",
"+X c #B958B7",
"@X c #C557BA",
"#X c #9935C4",
"$X c #AA46C4",
"%X c #B74AC6",
"&X c #B350CD",
"*X c #9C45C4",
"=X c #C64BC7",
"-X c #C354C4",
";X c #C355CB",
":X c #C45ACB",
">X c #C859C7",
",X c #E94FD2",
"<X c #E96ED3",
"1X c #D48ECF",
"2X c #FAB7E6",
"3X c #F6CDE9",
"4X c #1D1C1C",
"5X c #5B4546",
"6X c #684A46",
"7X c #5F4F64",
"8X c #ECDBE0",
"9X c #B234CA",
"0X c #F471EB",
"qX c #F3ACD1",
"wX c #6F4F50",
"eX c #884C72",
"rX c #B16899",
"tX c #B98DC9",
"yX c #BAC5B2",
"uX c #DFC4B5",
"iX c #68431E",
"pX c #1A1817",
"aX c #381C29",
"sX c #CE28AC",
"dX c #D8C3C8",
"fX c #BAB0A7",
"gX c #D1C5B7",
"hX c #E839DD",
"jX c #3A2425",
"kX c #D657E4",
"lX c #8A3275",
"zX c #2F2B5C",
"xX c #B425CF",
"cX c None",
"vX c #594739",
"bX c #69503A",
"nX c #B46BAC",
"mX c #64493A",
"MX c #6B1B64",
"NX c #B88AB4",
"BX c #E3AAB7",
"VX c #4D1732",
"CX c #9B1998",
"ZX c #D658C7",
"AX c #534652",
"SX c #8E626C",
"DX c #922EC4",
"FX c #342F19",
"GX c #513398",
"HX c #37444E",
"JX c #971A60",
"KX c #611828",
"LX c #341419",
"PX c #B91242",
"IX c #170617",
"UX c black",
/* pixels */
"cXcXcXcXcXcXcXcXcXcXcXcXcXcXcXcX% > * % 6 7 D 7Xi ; ; ; ; ; ; ; ; > : > > 7 ; & 6 @ 6 6 - - - - $ + % $ * X * X % - - - @ - % X cXcX- cXcXcXcXcXcXcX% % % % ",
"cXcXcXcXcXcXcXcXcXcXcXcXcXcXcXcX% > * % 8 7 c AX; - ; ; ; ; 9 ; ; ; cXcX> 7 3 3 ; 6 @ 8 8 - @ $ @ $ % + X % X * - - - @ p p X O % % % % cXcXcXcXcXcXcXcXcX- ",
"cXcXcXcXcXcXcXcXcXcXcXcXcXcXcXcX> 7 - - 7 - 6 6 ; 6 ; 6 ; > 6 ; 7 ; > : > > ; 3 ; @ 8 - - @ $ - $ % % $ % X % O + % + 6 % % * % - - - - cXcXcXcX+ % - cXcXcX",
"cXcXcXcXcXcXcXcXcXcXcXcXcXcXcXcX- = > - 7 7 6 6 ; ; ; 3 9 > ; 6 > ; ; 7 > 7 1 ; 8 @ @ 8 - 8 @ - X % % % X % X X - - 6 + % * X % * cXcXcXcXcX- % % % % % cXcX",
"cXcXcXcXcXcXcXcXcXcXcXcXcXcX> * - > - = 7 > ; ; ; ; ; ; 9 3 ; 7 > ; : 7 > > 3 ; ; @ 6 - - - - - % $ % $ % % % % O X % % - % + cXcXcXcXcXcXcX+ % % % % % cXcX",
"cXcXcXcXcXcXcXcXcXcXcXcXcXcX= - - > - > ; ; ; ; ; ; ; ; 7 7 3 ; 6 6 > > > 7 ; 3 6 ; # 6 8 - - - % % + $ % % % & X X % - - - @ - - + * - + % % % + % - cXcXcX",
"cXcXcXcXcXcXcXcXcXcXcXcXcXcX- > > - > & - > > ; ; ; 1 6 9 0 7 7 9 9 9 7 9 9 w w 9 9 6 6 - - * % % % % % % - - % o X o O - @ - - - % - % - % + cXcX% cXcXcXcX",
"cXcXcXcXcXcXcXcXcXcXcXcXcXcX* > ; > ; ; > & & ; ; ; 9 3 0 0 0 0 r r 9 9 e w e w 9 9 6 : - - * - % % % - * * % % o O % o - - - + % % % % - + % % % % % % - % ",
"cXcXcXcXcXcXcXcXcXcXcXcXcXcX> - > : * : > > 3 ; 3 ; ; 9 9 r y t k k x Q.T Z z k 9 w 3 3 ; - ; ; & % - - - = % $ & o & & ; & % % - + cXcXcX+ + cXcXcXcX- cXcX",
"cXcXcXcXcXcXcXcXcXcXcXcXcXcX- > : * > = > = ; ; 6 3 9 9 0 0 r r z x Q.J I T l x r w 0 9 > > ; ; ; - % - - = & X & & - - ; @ @ ; & % % - % - % % % cXcXcXcXcX",
"cXcXcXcXcXcXcXcXcXcXcXcXcXcX= = : > > > > ; 9 ; 9 1 9 y e t l t J Q.U ) ] Y J Q.k e 0 r > & > & ; & ; ; ; 6 j 8 w w # # 1 ; & ; - % - % % % % - + % cXcX- cX",
"cXcXcXcXcXcXcXcXcXcXcXcXcXcXcX> > > > > > > 0 0 9 0 9 r e t l b J T U ` ] U K Q.b b r q 0 3 > > > ; ; ; @ 6 j j w k z 6 @ 1 & - & - cXcX- % % + % % % % % % ",
"cXcXcXcXcXcXcXcXcXcXcXcXcXcXcX> = > > > > 0 0 q t q d l l b M M !.U ` ..` ) P P Q.n l l 0 9 7 7 6 ; 9 ; 8 j j j J K x z 9 6 - > & > % - % % % % % % cXcXcX% ",
"cXcXcXcXcXcXcXcXcXcXcXcXcXcX= * > > > > 0 0 q u t t d b b W.b W.!.) ` ^...{ ~.U C Q.z l 0 r 7 7 0 6 ; 9 c j zXJ T T x j 9 9 & & - & % * % cXcX% + % - cXcX% ",
"* > > * = - cXcXcX> cXcXcXcX> > 3 > 3 3 u t l b b m M M M C D F ` ` +.X.9.).] ] P T x x l r 9 9 7 7 9 9 j j T T Y ) Z j e # > & & cXcXcXcX- - - - - % % % - ",
"= - = cXcX> & & > & > > > > - > > 3 0 0 t u b M b b B W.D B A S { ^.+.O.:.:.[ ] T P V x l l r 9 6 7 9 6 x j ) ) Y Y J Q.e e > 3 - = % * - - - % % * cXcX% % ",
"- * * = - * * > > > ; cXcX> ; cXcX0 q 5 l d D Z J T Q U ` [ ' ` (.).*X9.XX*X/./.W W K P m n l 8 8 7 r 8 j x +.| $X#X+.` j j w 8 * - = = - * * - - % % % % % ",
"- > * > > cXcXcXcX> > ; cXcXcX3 > 0 u u b b Z D L E W W _ /. . .(.).*X9.*XXX/.(.W Q L I D m l c r 0 r r j Q. .| $Xp.^.{ Q.j 9 8 > > : * = - - * % & * * % cX",
"cX: : : : > > > > ; ; > > 6 3 > 4 0 d W.W.C I E ~.~.] ] ' [ #.' #.:.&X*X*XXX| | ' ' ! Q A Z b l l r r r x Q.T I [.>.! Q V n 8 8 = - - = - - = = % - - % & * ",
"> > > > > > > > > : 7 6 7 > 7 0 0 u g u B W.L E ~.~.] ] [ ' @.| `.`.*X*XXX*X| (./.' Q ~.I A W.W.c t c r n n J Y ].$.W Q j k 8 8 > * > > - = * - = * = % % - ",
"> : > : > > > > ; : 7 > ; > 0 0 t u W.W.Z A Q _ ] ] (.(.|  .cXcXcX&.$X0.XX*X).| | /.' ! ~.Q F S C Q.m z j k m V @.' S P 9 9 - - > = * = - = * - * - * - % % ",
": > : : : : > > > > ; ; 0 > 0 r t t W.W.K K W [ [ [ (.(.X.| *.;.=.=.$X$X*Xa.:.9.$.$.[ [ ~.~.L K Z C V z k j z x ! Q v v # # - > - = - - > - - = = % * & - = ",
"> : ; : > : > : ; : ; ; > 7 r u W.c Z K U Y ^.(.).(.).O.1.,.,.'.'.*.a.&X0.$X=.;.2.1.| X./.^.W U L P Z Q.n k l W.J Z n j @ ; = = = - - : = = - * - cXcX% % * ",
"7 : 7 : : : ; 7 7 > 7 7 7 9 t u W.D A K W ~./.| ).).'.).,.'.'.'.1.).&Xa.0. X=.:.8.2.`.X././._ ` U L K Q.M n m D Z Q.k j 9 9 & % > - = = - - = * * % - % % * ",
": : : 7 ; : 7 6 > 7 7 7 7 r u u V D I Y ` ] { } ).'.'.O.DXO.DX'.>.;.$X0.2.-.-.;.,.,.,.O.O.o.` ` Q U K K W.C W.l u r 7 8 - ; > & & ; > - > = > * - * * - = % ",
": > : : > : : > 7 : 7 7 7 u u c V D Y Y ] ..).).O.'.'.'.'.DXDXDX;.2.0.4.>.<.&.-.DXDX,.,.*.O.{ { Q Q K P C C c l r r 8 6 - ; - ; & - > * = - - = - - = * - - ",
"> > : > : > > ; cXcXcX7 r u b u D I W ] o.} *.*.O.'.'.,.DXDX#X#X4.4.%X$X4..X<.2.DXDXDXDXDXDX{ } ] W L T D C l c c r i > : ; > ; - > > = - = - - = - - = * cX",
"cX> : ; cXcX7 7 > > 7 0 u u u b F I ] ] ).).*.,.,.'.DXDX#X#Xp.#X4.4. X0..Xp.-.-.DXDXDXDXDXO.} } ] _ Y L D F W.l r r : ; ; ; > ; - - * - > * > * = > = * & % ",
"> > > > cXcXcX: > > 0 0 t t Q.F I / ] [ `.:.1.1.<.DX#X#Xp.$X9X*X%X&X&X&X&X&X<.4.xXDXDXDXDXDXo.} ..^.W W I Z D x e z 7 ; : : ; ; = - - * = * = - - cXcX* * - ",
"- = > > : : 7 7 > > 0 0 t b Q.I F E [ [ &.`.'.'.2.#Xp.p.$X$Xp.9X9X$X&X&X9X%X2.3.#XDXDXDXDXDX).o.(./.] W Y P D V l t 6 6 7 ; ; : > - = > - > - * = - - * = cX",
"cX> > = cXcXcXcX0 7 r r t l C F E E (.(.*.*.2.#X4.p.$X%X&X&X&Xg.d.g.kXj.&Xd.%Xp.4.4.<.DXDXDXO.DX`.| ^.] ~.Y P Q.l z 8 9 8 6 : : > - - * > * - > - - - cXcX= ",
"= = > > cXcX7 > > 3 r u W.W.A A E E (.(.*.1.2.2.p.$X&X&X&X&Xg.&XkXkXg.g.&Xd.&X0.#X2.DXDXDXDXDXDX| | ..(.] W K Z n n r 6 7 : 6 : - - = > = - = = > * = - % * ",
"= = * = > : 7 > > i r r l M A A ^...(.#.*.1.<.4.0.%Xd.:Xa.e.e.e.U.I.ZX<XL.L.=XZ.9X%Xp.p.2.2.;.=.&.X.| } ^._ Y J V n w 9 8 7 6 6 ; ; ; > > - - > cXcXcXcX- * ",
"cXcXcXcXcXcX> > 0 0 r u W.M A I ) ..| (.1.2.2.4.$X&X;Xd.f.f.j.j.<X1X-XZXL.ZX=XL.&X%X&X%X$X4.1.;.*.X.| } ] _ Y P m n r r 7 7 7 ; ; ; - - - = = : cXcX- - - * ",
"> > > : > > > 7 9 r l l m V K R { } X.X.1.2.4.$X%Xd.OX-Xe.e.I.1X1XI.e.y.g.;X;Xg.g.&X&X%X$X4.2.;.;.=.| X./...Y U V V k w 8 8 6 6 ; > - > > - > = = * = - : - ",
"> - > > > : > 3 0 r u l W.V L R { } &.`.1.8.4.%Xd.d.f.f.h.h.1X1X1Xx.e.+Xg.;XL.g.g.g.%X%Xp.4.2.2.1.,.X.X./.{ ) U C n c z 8 6 6 6 ; 7 & ; * = * - - > - - - - ",
"> ; > > > > 7 > 0 q l b A K Q Q } } O.*.<.<.2. X.Xs.OX+X1X0XU.H.U.x.1Xf.h.d.>X:Xd.d.%X%X0.4.2.2.<.*.} } } /.~.U A Z l l r w 7 9 6 ; ; ; * > - * * - - : * - ",
"& > > > > > > 0 q t l m Z K Q Q } O.O.,.;.<.>.0..Xs.+Xa.j.j.v.v.3XS.U.1X-X+Xg.g.g.d.s.%X$X0.0.0.8.2.:.`.{ /.~.U Z J l l l 8 6 6 ; 6 ; ; = cXcX> * : - : % - ",
"> ; > 7 > 7 > 3 e t V m K P W [ } | ,.'.=.<.2.p.w.d.d.+Xj.1Xb.3XS.S.x.U.h.@XL.L.:Xd.a.q.%X0.4.>.2.2.:.1.(./.` ` K S n k z z 9 w 6 ; ; - cXcXcXcX- * - - - * ",
"; > ; > > > > 3 t t m m K L _ _ X.).1.'.<.<.>.0.w.a.w.+XH.H.D.b.S.S.b.b.j.@X=XZX-Xs..X.X%X0.2.-.'.2.1.;.$.(.] _ L L m M z z 8 r ; 6 > - cXcXcXcX> * - : - % ",
"> 3 > > 7 > 9 0 t t m m L L /.[ [ (.:.:.'.'.#X#X4.p.0.$Xa.a.j.j.b.H.H.j.ZXh.>XL.d.%Xa.$X.X4.>.>.;.2.2.8.9.:.[ ^.Q R P S Q.n e e 9 9 cXcXcXcX= * - cXcX- : - ",
"cXcXcXcXcX> 7 u r t V m L Y ^.[ ' ' :.).2.2.#Xp.p.p.0.$Xd.d.0Xj.b.b.H.j.h.>Xg.=Xs.%X%X.X|.4.>.>.;.;.8.8.9.:.[ [ ~.Q L I C v e e 9 9 cXcXcXcXcX* * : : * * : ",
"> 0 > > > > 0 0 r l C V W Y :.`.6.].|.XX$Xa.4.2.4.>.>.4. X%Xh.+Xj.U.&Xf.ZX:X=X;Xd.%X.X.X[.4.3.4.0.0.0.0.[.8.].9.@.[ [ ! L R v v r w 6 ; > - = = : - - : - - ",
"cXcXcXcX> i 0 0 l t D C Y ~.:.9.9.].a.a.a.%X X0.2.3.4.2.0.$Xe.e.j.j.f.f.g.;X;X=Xs.s.%X.X4.|.0. X|. X$Xa.XX XXX8.].@.~.Q P L S n k w ; ; - > > * : * : - - : ",
"> > > > > 0 r 5 l l Z A ] ..6.9.].].XXXXw.w.XXa.a.a.a. XXX$Xf.f.f.f.tX1XkXj.r.-Xd.d.s.OXw.|.|.|.|. Xw.w. X X0.8.].].6.6.! R S v t w 6 6 > - cXcXcX* - - : cX",
"cXcXcXcX3 > r t l l J K ] ..:.].8.[.oXXX+Xw.s.d.s.s.s.%Xa.a.h.*Xf.f.j.1Xj.f.-X-X-Xd.f.s.oXw.oX Xw.a.w.w. X X|.8.K.K.9.].[ ~ S S k w 6 ; - > > = - : - : - - ",
"3 > > > 3 > 0 q l b T I ..(.].].K.XXoXoXOXOXOXOX-Xd.;Xd.g.-XH.0XS.b.3Xb.1X1Xs.@Xf.s.d.s..XOXq.oXw.oXq.oXw.|.XX[.].K.].9.6.(.Q R l e 9 6 > - cXcX* = : * * cX",
"cXcXcXcX> 3 r q l l K I ..[ ].].].XX{.}.+XOX}.@Xs.d.g.:Xh.s.0Xj.b.b.b.b.j.H.;X>X-Xh.-Xd.s.OXw.q.oXw.oXoX|.XX].XXK.9.].9.6.6.~.Q b l 0 9 > ; cXcXcX* * : cXcX",
"cX> > > > 3 u 0 b l K P ^...].XX|.|.K.{.+Xr.ZXZXhX,X,X,X1XU.x.x.qXn.8X8XA.fX1Xl.=Xg.g.h.=X-X=X%Xq.w.q.}.|.{.K.[.[.[.].].9.9.~.W V x c w 7 ; - cXcXcX> cXcXcX",
"> > > > 3 u 0 u b l Z T ..(.].|.[.XX{.oXr.r.sXL.,XhXL.L.U.U.x.x.F.uX8X8XdXP.U.1Xg.j.h.:Xs.-X;Xs.w.oXoXoXoXXX[.K.].K.].].$.`.] ~.V l r 9 6 > > & cXcX* * * * ",
"> > > < i 3 r 0 l l T K ....:.].[.{.{.{.{.t.t.,XhX,XZ.,Xv.v.n.n.P.gX8X8XT.P.A.c.1XI.-X:X=Xg.@Xq.-Xr.q.q.|.{.K.[.[.[.[.].9.:.] ^.l l c 9 ; 3 & > & % % = % - ",
"i > > > > > u r V l J K ..(.$.].[.[.{.{.{.t.t.t.hXhX,X<Xv.v.n.n.dXgX8XT.T.x.c.c.1Xf.q.-Xr.=X5.q.ZXr.q.q.oX|.[.K.K.K.8.].:.).` ` l t r r 0 ; ; ; & = % * - - ",
"3 > 3 > i 3 u r l x Q.J _ [ $.$.[.0.{.{.{.t.r.t.,Xi.<X<Xv.v.n.8X8X8X8X8XS.x.P.A.F.qXj.z.<Xj.<X<Xt.t.q.{.q.q.|.|.[.|.0.>.).(.] Y l u u r 3 & & > & > % % = * ",
"i > i > < 3 0 0 c l Q.Z W ] $.$.>.>.7.{.C.r.t.5.,X,X0XH.v.qXuXdXuXgXdXgXA.S.P.uXc.qX<Xj.ZXt.t.<XZXt.@Xq.q.oX|.|.|.|.>.].(.(.~.T c l r 7 3 1 > & = = & - - = ",
"3 0 > > > > 0 0 c l m m P L o.O.$.:.2.8.q.oXq.q.7.{.u.I.qXF.T.T.T.gXdXn.F.Y.F.F.Y.qXH.<XZXi.L.<X<XZXOXOX.X.X4.0.8.8.$.$.] ~.I J t r 9 9 ; ; & & - % = = - - ",
"> > > > > > > 0 9 c n V K J o.o.(.$.2.2.q.[.{.oXr.7.u.I.A.F.yXyXfXdXc.c.D.D.S.F.v.z.z.j.ZXZX>XZXZXcXcXw..X0.0.2.>.0.].9.[ W J Q.c r r 9 ; 1 > & = % = % - = ",
"cXcXcXcXcXcXcXcXr 7 l l M m R E ] [ (.M.9.>.8.2.[.}.{.7.j.I.D.z.b.b.F.F.b.F.H.H.0X<XcXcXj.i.L.,X>X@Xs.q.|.3.8.>.:.$.] _ F A M M r r 6 7 - & - & % - * * - * ",
"cXcXcXcXcXcXcXcX7 r l l M M S E ~._ ] M.(.$.:.2.[.}.+Xy.I.j.D.v.D.v.F.b.D.D.H.2X0X<Xj.i.ZXt.L.Z.@X@Xq.|.3.>.:.:.$.(._ W S C b b r r 6 6 ; ; > - = = = cXcXcX",
"cXcXcXcXcXcXcXcXcXcXcXcXcXcXcXcXB D K K U Q ~ lXsXt.L.Z.k.L.,X<XH.0X2X2X2X2XH.z.<Xj.y.y.y.y.cXcX].>._.$.$.6.M.] Y T I K m b w w 7 7 > - > > & cXcXcXcXcX> = ",
"cXcXcXcXcXcXcXcXcXcXcXcXcXcXN M b M I I P W ~ lXr.ZXZ.Z.k.k.,Xt.H.H.2X2X2X2X<XH.<XcXcXcX@X}.q.q._.>.| @.(...[ ~.Y K Z Z M k t w 9 9 > - & > > & cXcXcXcX= - ",
"cXcXcXcXcXcXcXcXcXcXcXcXcXcXcXcXd 4 V.G.m.G.( ( lXlX-.3.L.cXcX,Xu.t.<Xu.y.j.rXu.7.7.7._.6.@.( M.[ ! Q Q R U I I V V b l r r r 7 7 ; > > > - > - cXcXcXcX= cX",
"cXcXcXcXcXcXcXcXcXcXcXcXcXcXt t q q V.G.SXG.( 6.6.7.C.5.Z.L.r.Z.y.t.j.u.j.u.rXrXrX7.K.6.@.@.[ ~ ' ! Q P P P K T V m l l r 0 7 6 6 ; > : > = > > cXcXcXcX> - ",
"cXcXcXcXcXcXcXcXcXcXcXcXcXcX4 q q 4 cXcX( ( 7X( SXG.( ( eX6.%.7.6.eX_.C.@.6.G J.J.~ ' cXcXcXD D H v M N M M b b l t 0 0 0 0 7 6 - > * > = > > - cXcXcXcXcX= ",
"cXcXcXcXcXcXcXcXcXcXcXcXcXcX4 q s 5 SX( ( ( G.7XSXG.( / eXeXlXeX7.7.3.7.lXlXm.J.J.J.! lX~ _ I C S v M v M M b k t w 4 0 > 7 7 7 > > > = > - - cXcXcXcXcX* > ",
"cXcXcXcXcXcXcXcXcXcXcXcXcXcXcXcXwX^ G.^ cXcXcXcXcXSXwXG.cXcXcXcXcX( ( J.G G G F E G cXcXh W.W.h W.M f f q f e y q 1 3 0 > > 7 ; : cXcXcXcXcXcXcXcXcXcXcXcXcX",
"cXcXcXcXcXcXcXcXcXcXcXcXcXcXcXcXG.V.6X6XcXG.G.cXcXcXcXG.cXcXcXG ( / F N N B B B F F B W.W.M h M W.h g f 4 a q 9 9 9 7 > 7 > > > > cXcXcXcXcXcXcXcXcXcXcXcXcX",
"cXcXcXcXcXcXcXcXcXcXcXcXcXcXcXcXcXcXcXcXcXcXcXcXcXcXcXcXcXcXcXcXcXcXB N N N M N cXcXf q y f f d cXcXcXcXg cXcX, 1 ; > ; > - : : cXcXcXcXcXcXcXcXcXcXcXcXcXcX",
"cXcXcXcXcXcXcXcXcXcXcXcXcXcXcXcXcXcXcXcXcXcXcXcXcXcXcXcXcXcXcXcXR.W.h d h d f d h cXcX2 a d f h B 5X6XB cXcX1 & ; 3 ; > > : : ; cXcXcXcXcXcXcXcXcXcXcXcXcXcX",
"cXcXcXcXcXcXcXcXcXcXcXcXcXcXcXcXcXcXcXcXcXcXcXcXcXcXcXcXcXcXcXg g f g f f d 4 f 4 a a q f a g g h s s cXcXR.u 5 ; , ; > 7 > : : cXcXcXcXcXcXcXcXcXcXcXcXcXcX",
"cXcXcXcXcXcXcXcXcXcXcXcXcXcXcXcXcXcXcXcXcXcXcXcXcXcXcXcXcXcXcXq q f q q 4 q 4 2 aX2 2 2 2 4 a h s h s s g E.cXcX; , ; 6 : cXcX; cXcXcXcXcXcXcXcXcXcXcXcXcXcX",
"cXcXcXcXcXcXcXcXcXcXcXcXcXcXcXcXcXcXcXcXcXcXcXcXcXcXcXcXcXcX4 B.3 jX5 B.< cXcX3 4 5 4 B.a cXcXR.R.R.g s s s s 5 , & ; > > > : > cXcXcXcXcXcXcXcXcXcXcXcXcXcX",
"cXcXcXcXcXcXcXcXcXcXcXcXcXcXcXcXcXcXcXcXcXcXcXcXcXcXcXcXcXcXcXcXcXcX< & < < 3 B.g 5 4 jXa cXcXcXs R.E.s a 5 5 E.+ , ; 6 > : ; ; cXcXcXcXcXcXcXcXcXcXcXcXcXcX",
"cXcXcXcXcXcXcXcXcXcXcXcXcXcXcXcXcXcXcXcXcXcXcXcXcXcXcXcXcXcX< < N.O O O O cXcXB.5 < B.N.cXcXcXE.s FXs cXcXcX5 5 cXcX; ; ; ; : ; cXcXcXcXcXcXcXcX- * * - % cX",
"cXcXcXcXcXcXcXcXcXcXcXcXcXcXcXcXcXcXcXcXcXcXcXcXcXcXcXcXcXcX< , N.o O O N.cXcXB.B.B.FXN.cXcXcXcXcXcXiXR.E.E.5 5 o & ; 3 6 : 6 cXcXcXcXcXcXcXcXcX> * - = * - ",
"cXcXcXcXcXcXcXcXcXcXcXcXcXcXcXcXcXcXcXcXcXcXcXcXcXcXcXcXcXcXo O O cXcXcXO O & & O cXcXB.B.5 s s s s s R.s 5 5 < @ & ; 6 - : : : cXcXcXcXcXcXcXcX* = * % - = ",
"cXcXcXcXcXcXcXcXcXcXcXcXcXcXcXcXcXcXcXcXcXcXcXcXcXcXcXcXcXcXcXcXcXcXX X   . O cXcXO & cXcXcXB.s s s R.s s B.N.N.+ @ ; ; - 6 : - cXcXcXcXcXcXcXcX- - = - * cX",
"cXcXcXcXcXcXcXcXcXcXcXcXcXcXcXcXcXcXcXcXcXcXcXcXcXcXcXcXcXcX- % % 4X  X @ + @ & cXcX& & o < < 3 s 5 cXcXcX< , & . cXcX; : ; : - cXcXcXcXcXcXcXcX= - = * - = ",
"cXcXcXcXcXcXcXcXcXcXcXcXcXcXcXcXcXcXcXcXcXcXcXcXcXcXcXcXcXcXcXcXX .   p . . . cXcXcX. & o cXcXcX5 5 5 4 < < o &   @ ; 6 - : - cXcXcXcXcXcXcXcXcXcX* - = * - ",
"cXcXcXcXcXcXcXcXcXcXcXcXcXcX> cXcXcXcXcXpXcXcXcXcX+ & . cXcXcXcX= - > = & ; - % % + + X + @ % & = = = , = % & cXcXcX- & - : - - cXcXcXcXcXcXcXcX- = - - % cX",
"cXcXcXcXcXcXcXcXcXcXcXcXcXcXcXcXcXcX= * X .     & . . cXcXcX% % - > > 0 & 1 & & % - 4X4X. . + & & & & + . + . % + - - & - : - : cXcXcXcXcXcXcXcXcXcXcX% - = ",
"cXcXcXcXcXcXcXcXcXcXcXcXcXcXcX> > > > : O 4X    = = = > > > ; ; > > > > > 3 > = > -   4XcXcXcXcX% + +   cXcXX 4X@ % % - * * > > cXcXcXcXcXcXcXcXcXcXcXcXcX* ",
"cXcXcXcXcXcXcXcXcXcXcXcXcXcX> > > > > > = * X   = > > > > & > > > > > > > > > = > = * % cXcX+ +     + % p 4X% X + % - - - > : > cXcXcXcXcXcXcXcXcXcXcXcX- = ",
"cXcXcXcXcXcXcXcXcXcXcXcXcXcXcXcX> > > = > = > > > cXcXcXcX3 > > > > > > > > cXcXcXcX= - = % p cXcXcXcXcXcXcX  cXcXcXcX= cXcXcXcXcXcXcXcXcXcXcXcXcXcXcXcXcXcX",
"cXcXcXcXcXcXcXcXcXcXcXcXcXcXcXcX> > > > > * cXcXcXcXcXcXcXcXcXcXcXcXcX> > > > > > > > - - * % % cXcX4XcXcX% % - % % cXcXcXcXcXcXcXcXcXcXcXcXcXcXcXcXcXcXcXcX",
"cXcXcXcXcXcXcXcXcXcXcXcXcXcXcXcXcXcXcXcXcX> cXcXcXcXcXcXcXcXcXcXcXcXcXcX> > > > cXcXcXcXcXcXcXcXcXcXcXcXcX* - = = cXcXcXcXcXcXcXcXcXcXcXcXcXcXcXcXcXcXcXcXcX",
"cXcXcXcXcXcXcXcXcXcXcXcXcXcXcXcXcXcXcXcXcXcXcX> cXcXcXcXcXcXcXcXcXcXcXcXcX> cXcXcXcXcXcXcXcXcXcXcXcXcXcXcXcXcXcXcXcXcXcXcXcXcXcXcXcXcXcXcXcXcXcXcXcXcXcXcXcX"
};
