/* XPM */
static char *_a20353eb8434bd2f1c2a8740e7404e78vAgghH6n4FzEMlb_12[] = {
/* columns rows colors chars-per-pixel */
"78 86 256 2 ",
"   c #221D1D",
".  c #271D1A",
"X  c #24221D",
"o  c #2B231D",
"O  c #2A291D",
"+  c #231E21",
"@  c #291D28",
"#  c #321B36",
"$  c #1B2C29",
"%  c #252425",
"&  c #2A2524",
"*  c #252926",
"=  c #2A2925",
"-  c #262529",
";  c #2A262B",
":  c #26292A",
">  c #2B2A2B",
",  c #332523",
"<  c #342A24",
"1  c #33252C",
"2  c #3B242C",
"3  c #322A2D",
"4  c #3B2B2B",
"5  c #3B312A",
"6  c #2C2532",
"7  c #2D2A32",
"8  c #2B2638",
"9  c #322634",
"0  c #332A34",
"q  c #3B2B34",
"w  c #34253B",
"e  c #3A253C",
"r  c #352B3A",
"t  c #3A2B3C",
"y  c #3C2433",
"u  c #383138",
"i  c #283332",
"p  c #1D1F20",
"a  c #432B2A",
"s  c #46352B",
"d  c #442A3B",
"f  c #462837",
"g  c #493735",
"h  c #522E37",
"j  c #381C4A",
"k  c #3B2543",
"l  c #3C2B43",
"z  c #392747",
"x  c #3C2653",
"c  c #342E47",
"v  c #4A1C52",
"b  c #432B44",
"n  c #43254C",
"m  c #432B4B",
"M  c #492947",
"N  c #542A48",
"B  c #573748",
"V  c #452B53",
"C  c #4B2C54",
"Z  c #4C2B5B",
"A  c #532C5C",
"S  c #552857",
"D  c #4A3256",
"F  c #573358",
"G  c #653857",
"H  c #692E54",
"J  c #4B2865",
"K  c #542B63",
"L  c #5B2C6C",
"P  c #572768",
"I  c #583367",
"U  c #5A2976",
"Y  c #5B3375",
"T  c #4C306C",
"R  c #652969",
"E  c #663569",
"W  c #632C7C",
"Q  c #662A78",
"!  c #752A79",
"~  c #763679",
"^  c #6A5446",
"/  c #694657",
"(  c #764A6B",
")  c #5B2C85",
"_  c #6B2C84",
"`  c #662886",
"'  c #752B8A",
"]  c #6A3387",
"[  c #763489",
"{  c #6C2A94",
"}  c #742C9B",
"|  c #7B2C9C",
" . c #792897",
".. c #6B3395",
"X. c #7C2CA3",
"o. c #7929A7",
"O. c #772CB0",
"+. c #6D1D92",
"@. c #863789",
"#. c #842B9A",
"$. c #863599",
"%. c #8F2D8C",
"&. c #832CA4",
"*. c #832CAB",
"=. c #892BA9",
"-. c #952AA9",
";. c #8C33AB",
":. c #8836A8",
">. c #9638AA",
",. c #882CB5",
"<. c #952DB7",
"1. c #8C32B3",
"2. c #9737B7",
"3. c #A639A8",
"4. c #A53AB9",
"5. c #B12FB3",
"6. c #924892",
"7. c #AA4E99",
"8. c #9B44B6",
"9. c #8D49AB",
"0. c #A646B7",
"q. c #B74BB7",
"w. c #B453BC",
"e. c #B965B8",
"r. c #C64BB8",
"t. c #CF53B4",
"y. c #C665B9",
"u. c #CD6FB4",
"i. c #DA5BB3",
"p. c #A539C5",
"a. c #B453C3",
"s. c #BC54C4",
"d. c #BB57C8",
"f. c #BB67C5",
"g. c #C857D4",
"h. c #C865C6",
"j. c #D370CD",
"k. c #ED4FE8",
"l. c #CD8BB8",
"z. c #E991D2",
"x. c #D2AFCF",
"c. c #E5B8C9",
"v. c #F9A8E7",
"b. c #EEB0EC",
"n. c #EBCBD4",
"m. c #774A57",
"M. c #774590",
"N. c #35281D",
"B. c #3B2C24",
"V. c #74554A",
"C. c #A83595",
"Z. c #CE37CD",
"A. c #D8B9C9",
"S. c #D9B9D5",
"D. c #E7A9D8",
"F. c #E6B7D7",
"G. c #785655",
"H. c #F392EC",
"J. c #753469",
"K. c #AA54A9",
"L. c #D44ED2",
"P. c #D1B6B7",
"I. c #C987C7",
"U. c #DAA3E3",
"Y. c #F8B6D8",
"T. c #D4C4CF",
"R. c #533B39",
"E. c #514334",
"W. c #473248",
"Q. c #472557",
"!. c #521C6A",
"~. c #673378",
"^. c #6C2B8B",
"/. c #732C94",
"(. c #783397",
"). c #7B33A5",
"_. c #963899",
"`. c #8332A4",
"'. c #8934B7",
"]. c #9945A8",
"[. c #A749AA",
"{. c #B54BAA",
"}. c #B656AA",
"|. c #AC4CB4",
" X c #AC4CBB",
".X c #B34DBC",
"XX c #AC53B7",
"oX c #B453B4",
"OX c #BB53BC",
"+X c #B958B7",
"@X c #C557BA",
"#X c #9935C4",
"$X c #AA46C4",
"%X c #B74AC6",
"&X c #B350CD",
"*X c #9C45C4",
"=X c #C64BC7",
"-X c #C354C4",
";X c #C355CB",
":X c #C45ACB",
">X c #C859C7",
",X c #E94FD2",
"<X c #E96ED3",
"1X c #D48ECF",
"2X c #FAB7E6",
"3X c #F6CDE9",
"4X c #1D1C1C",
"5X c #5B4546",
"6X c #684A46",
"7X c #5F4F64",
"8X c #ECDBE0",
"9X c #B234CA",
"0X c #F471EB",
"qX c #F3ACD1",
"wX c #6F4F50",
"eX c #884C72",
"rX c #B16899",
"tX c #B98DC9",
"yX c #BAC5B2",
"uX c #DFC4B5",
"iX c #68431E",
"pX c #1A1817",
"aX c #381C29",
"sX c #CE28AC",
"dX c None",
"fX c #BAB0A7",
"gX c #D1C5B7",
"hX c #E839DD",
"jX c #3A2425",
"kX c #D657E4",
"lX c #8A3275",
"zX c #2F2B5C",
"xX c #B425CF",
"cX c #835558",
"vX c #594739",
"bX c #69503A",
"nX c #B46BAC",
"mX c #64493A",
"MX c #6B1B64",
"NX c #B88AB4",
"BX c #E3AAB7",
"VX c #4D1732",
"CX c #9B1998",
"ZX c #D658C7",
"AX c #534652",
"SX c #8E626C",
"DX c #922EC4",
"FX c #342F19",
"GX c #513398",
"HX c #37444E",
"JX c #971A60",
"KX c #611828",
"LX c #341419",
"PX c #B91242",
"IX c #170617",
"UX c black",
/* pixels */
"dXdXdXdXdXdXdXdXdXdXdXdXdXdXdXdX* - = * = - = - > > - > : > 6 ; 6 6 6 # # 6 # @ , ; % * X O * X * % % - % + - + - % - % - % - % - % dXdX* dXdXdXdXdXdXdXdXdX",
"dXdXdXdXdXdXdXdXdXdXdXdXdXdX> > > > - > * > - > - > > ; ; > ; 6 6 6 6 6 z z k w ; ; % O X $ * $ % % - % - + % % + % + % % % + % - - % % - dXdXdXdXdXdXdXdXdX",
"dXdXdXdXdXdXdXdXdXdXdXdXdXdX* > * > - - - > = - > ; ; : > 6 6 6 6 w # z D Z j j 1 - - * O O $ p % - - - % % % - - - % - % - - - - - - - - dXdXdXdXdXdXdXdXdX",
"dXdXdXdXdXdXdXdXdXdXdXdXdXdX- = > > = = = - - - - : ; 7 > dXdXdX6 8 k l I K n x 1 & % = $ X * * * - % - % - % + % % % % % % % dXdXdXdXdX% dXdXdXdXdXdXdXdXdX",
"dXdXdXdXdXdXdXdXdXdXdXdXdXdX- > = > = * = = - - > : > ; 7 7 3 ; j j I I ~.7Xv Q.2 # ; @ - - - 6 - - = = - - % % % - - + % - % % % % % % * dXdXdXdXdXdXdXdXdX",
"dXdXdXdXdXdXdXdXdXdXdXdXdXdXdX= - - dXdX- > - * - - > > 7 > 9 > j x E Y ~.] v v 9 # & ; - - 8 @ - - > - - - - % % % dXdX+ - % dXdXdXdXdX- dXdXdXdXdXdXdXdXdX",
"dXdXdXdXdXdXdXdXdXdXdXdXdXdXdX- = * = * > * - > ; ; 6 6 7 7 7 r v j ( ] 6.9.!.j # 9 @ ; @ & ; 6 = - - - dXdX% % % - % % % - % % dXdXdXdXdXdXdXdXdXdXdXdXdXdX",
"dXdXdXdXdXdXdXdX= dXdXdXdXdX- = - = * = = - > - > > 7 7 7 7 r i n v ~.~.9.:.!.!.9 # 1 # ; ; ; ; - - & - - % - % - + % % - - + % dXdXdXdXdXdXdXdXdXdXdXdXdXdX",
"dXdXdXdXdXdXdX- - = * dXdXdX- > = = > - > - > 6 ; > 6 7 7 8 w r z c j x I AXz z # j : 8 6 ; ; 6 - & = - % & % % % % % % & % % ; % % dXdX- - % dXdXdXdXdXdXdX",
"dXdXdXdXdXdXdX* > - > > > * > & = > = = - > ; ; 7 ; > 6 r 8 r 8 z j z k D D z c w 8 8 : ; 6 6 - & - - = & % - % % & % % % = & % % - = dXdXdXdX- dXdXdXdXdXdX",
"dXdXdXdXdXdXdX> = * * = = = > - & = & dXdXdX6 ; 6 9 7 r r r c 9 w 8 # w l l w w 8 7 : : * : > = & > & - - - = = % % & & - & % % dXdXdX- dXdXdXdXdXdXdXdXdXdX",
"dXdXdXdXdXdXdXdXdX= dXdXdXdX> > > > > ; ; > 7 dXdX9 0 0 w r w w w 8 w # z w w w r 7 i $ = : * > > > > - & & - & & - - % & % - & - * dXdXdXdXdX* dXdXdXdXdXdX",
"dXdXdXdXdXdXdXdX- - = dXdXdX> > ; 0 ; ; 0 9 0 t r 0 t e l w k k 6 8 0 1 y 9 9 0 r r > > i 3 6 > ; ; ; > = - = - % % % = % = - % - % dXdXdXdXdX- dXdXdXdXdXdX",
"dXdXdXdXdXdXdX& = = * dXdXdX& > > & 0 3 9 9 t t t l t t l l t r i u 3 r t r 0 r u 0 0 > 0 7 > 6 > > & > - > - & & ; % - & - & % % - dXdXdXdXdX- dXdXdXdXdXdX",
"- & - = > - - & - & > & ; > 3 6 3 0 0 3 r r u t D W.M l l b x l i 5 q y d l t t t e q t e y w e 3 ; 7 ; ; ; 6 ; ; - - & = - - = - - * - * - - - % % - % % % ",
"> > - > & > > - dXdX& ; ; & 7 > 7 4 dXdXdXdXl W.AXAXW.W.m W.b z 5 i q 0 d d b b b l d t t e k l 0 4 > 0 7 > ; & - & & % - % - = = - - * % - % % % + % % p % ",
"1 & , ; & & = > = > - dXdXdX> 0 9 l z z Q.Z !.) Y L A A W.l W.l x V d b s f b d !.T ) T J Q.M b l l r 9 7 6 8 ; - : * * - * * - - - - dXdX- * * dXdXdXdXX % ",
"& 1 ; 3 & > = = = : - & ; 3 3 0 9 c l x Z K ) ) ~.P K Z D W.W.c c l b d t f d d !.Y ) ) K Z b M x l r 0 7 7 7 6 : ; - : > * % % & & - = - - * dXdX% % % % % ",
"3 ; & & = = = > = = ; ; 3 9 9 r z z Z Z U Y ..{ ` ` Q U Z F D B F I F C B B F F ) ) ....W U A S V n t w 8 r 8 8 8 : ; * * % * * - dXdXdXdXdX% * % % % % % % ",
"; ; ; & % * = * = > 0 ; 6 3 0 q l x Z K U ] { { ' +.` ` Z I F F A A B D N D F A ) ) ....~.U K K C m l t r r r 8 7 > : - % * * * - - - = = - dXdX* * % % - * ",
", ; ; & = * = = > = > ; 7 0 r l x V P U _ _  . .o.o. .+.U E E E E ( I / ( E ~.~.GX{ O.O.(.{ ] Y A C k b r e 0 7 > > : : * * * * - > = - - * dXdXdXdXdX* - % ",
"; & - & % O * > = dXdX7 9 9 t W.D D U Y _ ^.X. .+.o.+.#.Q ~.( E E E E E E E E E { { ..O.)...] ` F C M b l r 0 9 > > : : * % * * - > - - - dXdXdX* dXdX* % % ",
"; 1 ; ; = dXdX> > > 7 7 9 r x l J I ` ` /.} X.#.*.o.&.#.~.[ ~ ( ~ [ ( ~ M.~ [ (.o.O.O.O.O.O.} { R P A dXdXz e 0 7 7 > ; * - * - > - > > > - > = dXdXdXdXdXdX",
"; 6 & - > = = > > > ; 9 w w z V D I ` ^.|  .&.&.,.*.&.:.[ [ [ ( eXeX[ ( [ ( $.(.).O.O.'.O.O.} { ~.L A A m n r e > 0 6 ; = * = > - > - & - > - = dXdX* dXdXdX",
"6 ; > 7 > : > > > 6 6 9 l l Q.C L Q ` ^.| `.;.:.:.&.&.&.(.$.6.[ 6.6.6.6.9.6.(.' $.`.`.`.X.X.} } ] _ Y P C C b e 0 9 6 ; ; ; - : - - : dXdX* * - * & % % % % ",
"; > > > : : > > > 7 8 w k l V Z L L ^.{ (.`.8.0.2.;.-.=.[ (.$.9.6.M.6.6.6.(.$.$.=.:.*.`.`.X.o.X._ ` W U S Q.b k r 0 7 6 : ; : - : - - - - = dXdX* % * % % % ",
"6 ; > ; : : > > > 7 w c l m Z Z Q Q /.^.(.$.*X*X8.2.;.;. .| 9.8.8.0.].].>.$.;.>.;.;.;.;.*.).).X.^.^.~.U P K m M l t 9 6 6 6 ; > ; : > - - - = * * * % % % % ",
"> 6 7 > : : 7 ; 6 8 w r l z Z I ` Q (./.(.9.*X&X8.8.1.;.#.`.8.9.8.].].]._.$.;.;.;.;.,.*.*.'.).X.../._ ` E I C b t k r 9 6 6 ; ; ; - = - - - = - % - % % % % ",
"6 > 6 : : : dXdX7 7 r r z W.S F +.#.| (.:.].a.XXa.a.8.0.2.2.$X$X=.=.1.2.<.'.2.2.2.'.<.,.'.*.*.*.(.} ^.^.W W A Q.b k r r 9 9 > ; > ; - - - - dXdX& % % % % % ",
"6 6 > : : : > > 7 8 c c l W.F I ' ' (.$.].8.f.*X&XXX0.$X8.2.$X$X#.:.:.'.2.2.<.'.<.<.'.<.,.1.:.O. .| [ ^.~.W I Q.t l r r 0 6 7 > ; > : - - = - % * - % % - * ",
"> > 6 7 > > 6 7 9 u l l V W.L E +. . .`.XX|.a.XXf.a.8.$X2.;.4.2.2.2.DXp.#Xp.#XDXDX<.<.'.'.,.;.=.&.X.| } ~.Q F N b n l w e w 9 9 9 6 ; ; - - - * * = & * * = ",
"> ; : > > i 7 7 0 r l l V D E E %.#. .$.a.XXf. X&XXX$X0.2.2.<.-.#X2.#Xp.#Xp.#X#X2.DX'.<.'.<.1.=.`.:.| | [ ~.E S C C l l l w c w 6 9 > ; > dXdX- * * - * * * ",
"- > > 7 7 7 9 9 < 5 W.d K Z ^.' ;.&.#.`.+XoX}.}.d.w.4.4.p.2.<.2.#X#Xp.#X9X#XxX#XDX#XDXDX'.'.2.$X:.=.`.#. . .' ` ` Q !.!.v v k e 9 7 6 ; > ; : - * - * * * % ",
"& - 7 > ; 7 r 9 5 i W.l T Z ^.' =.:.`.`.oXK.e.e.d.%X4.4.2.2.p.2.<.#Xp.p.p.p.#X#X#X#X*XDX2.2.2.$X;.&.| `. .#.{ ` +.` U !.Z v M e 9 9 ; 6 > ; - * : - * % % % ",
"> > 7 > 9 9 9 r 3 q W.l L P +./.*.,.1.1.|. Xs.d.-Xd.%X4.4.2.2.p.9X#Xp.$XxX&XxXp.#X#X#X#X2.p.$X&X4.>.#.;. .#. . .' ^.` U P v n M r 9 6 7 7 6 - - * * * $ $ * ",
"dXdXdX7 0 9 w r 3 q D z Y P '  .,.,.1.;.0.0.d.h.:Xd.&X$Xp.p.p.4.p.p.&X9XkX&X9X9X#X*X#Xp.0.%Xd.&X$X4.;.;.#.=.&. .' /.` ` P S M n r w 7 6 : : - - - * % % * X ",
"& ; 7 > 9 7 t t l l Z Z ] Y o.o.,.,.,.,.$X$Xd.d.-X;Xg.g.%X X4.4.#X#X$Xp.*XxX9X#X2.4.2.2.5.4.s.%X$X$X2.2.#.=.&. .} | { ^.` U Q.v 0 9 7 6 7 ; - : * * % * * X ",
"> > > 7 9 9 r t b b A Z ] ) o.&.,.,.DXDX&Xa.d.d.d.;Xg.L.s.%X4.4.p.9X&X&X&X&X9Xp.p.p.p.p.q.q.%X%X%Xa.0.8.=.-. . . .| /./.^.) J Q.t r 6 7 : ; : - * - * * * $ ",
"dXdX; > 9 3 t r l b K J ^.{ *.*.,.,.,.#Xd..X-Xd.;X;Xg.g.>X;X%X0.$X%Xg.g.g.g.&X&X$X9X$X$X=X%X=Xq.a.w.0. X>.>. .#.o.&.} | [ W A C l r 9 9 6 : - : * * * % * * ",
"> > > 3 3 0 q t m l K Z { +.*.*.*.,.*X*Xd..Xd.;X;X>Xg.L.g.;X-Xd.%X%Xg.g.kXkXg.9X4.9X$X%X-X-X%X.Xa.%X Xa.3.8.&.#.X.&.| } ] ~.A A l l w 6 6 6 - : * * * * % * ",
"& > > > 0 3 q q z n Z J /...,.,.#.#.a.XXa.XXd.w.>Xg.ZXg.g.g.d.g.>X>Xg.g.kXg.g.g.9X&X;Xg.d.w.@X{.0.w.w.XXXX8.8.8.&.&.o.#.o.o.+.+.l z w w 6 : : ; dXdX* * * * ",
"> 3 0 > 3 3 u 5 b b K Z ..] ,.O.$.$.a.XXe.XXOXOXq.=X;X;Xg.g.kXkXh.>Xg.g.L.g.ZXg.dXdXa.:Xf.f.-Xq.s..Xa. X X[.XX8.&.=.#.o.+.*.` ` l l r 9 6 6 ; : * * * $ * * ",
"> 3 7 > 3 3 4 q t l Z Q.....*.,.$.[ XXXXoX}.+X@Xh.h.g.;Xd.d.d.d.@Xh.h.:Xg.g.ZXL.g.j.+Xf.j.f.e.nX+XoXoX|.|.[.8.[.<.=.&.o.+.o.` ) l x w w 6 6 ; ; * * * * * * ",
"> > > 3 3 3 4 5 l l Z Z ....*.,.$.$.XX].+XoX+X@XOXOX-Xq.g.f.d.f.d.>X:X:XkXg.g.g.&Xg.XXe.1Xf.XXXX+XoXXX|.XX|.XX|.2.2.=. .o.o.) ) m x k w 6 : : > % * * * * * ",
"> > > 3 3 < 5 5 t u V V ] ) ).*.`.`.8.].+X}.}.@Xy.}.h.e.1Xf.NXnXy.y.>X>X>X>Xh.ZXe.f.I.tXS.U.tXtX}.}.}.K.K.[.[.[.$X2.=.o.+.| ] ] x z l w 6 ; - > = * * * * * ",
"3 3 i < 3 3 3 u t q W.l ) ) *.O.&.&.9.9.+X+X}.+X+X}.y.e.1XtXnXK.h.y.>X>X>Xg.ZXZXnXf.I.1XS.x.NXtX}.}.K.oXK.[.[.7.8.<.#.&././.U ~.V l r w ; ; > - * O * * * * ",
"= > > i > < 3 5 r q x c Y Y ).).,.O.1.*.s.s.{.q.}.+X0X1X3Xb.F.F.j.j.h.y.>X>XZX@X1XI.D.S.x.S.NXNX}.oX}.{.K.K.7.[.$X2.| #.{ ..U U z z w w 6 ; - > = % dXdX: - ",
"> 3 3 3 i > 3 3 r u W.c ) T O.O.,.O.*.*.w.d.{.q.XXa.1Xj.2XD.3XF.z.u.j.>XZX>XZXZXU.tXS.U.x.x.NXNX+XoX}.K.K.K.7.7.8.2.X.X.{ { !.!.l z w dXdX6 > = * = dXdX* : ",
"> i 3 > = > < < i u z x D x T Y =.*.&.&.0.4.;X=XhXhX0X0X2Xv.n.S.BXuXn.8Xl.NXl.NXx.A.A.x.U.U.e.XXOXa.}.{.K.K.7.9.].].#.#.] ] x Q.c w 8 8 dXdX: : - = * - * dX",
"dXdXdXdXi < > 5 0 0 x l x D T I o.o.&.X.4.3.g.g.,X,X<X0X2X2XF.c.uXdXdXdXl.l.x.1XA.A.S.x.U.U.e.nXw.OX}.K.K.K.K.6.>.>.#.$.` ] Q.Q.w z 7 6 ; 6 : : - - - = - - ",
"i > > > i * < > 7 0 c u c W.D D Q ' &.&.2.>.r.@X<X,X<X<Xv.2XuXuXuXuX8XgXgXdXdXT.gXgXT.P.l.NXrX}.}.r.oX}.K.K.|.K.#.#.+.#.Q.Z w t c 8 7 7 > 7 - - = % - = ; ; ",
"> i > > < i > FX0 8 r c c c W.D +. .o. .3.4.@XZX<X,Xi.,Xv.2Xn.n.gXgXT.gXA.P.T.T.yXA.A.gXnXrX7.}.@X}.}.K.8.K.K.XX#.#.' ' J Z t t 8 c : 6 ; : - : & * - - ; ; ",
"> > i = > = > i 0 7 r r l l l W.P Y Q U @.$.0.a.i.i.y.u.l.z.n.n.8X8X8XT.x.P.x.A.x.T.A.BXu.i.i.i.t.rX{.{.0.[.4.2.(.).Y P q d < i r 8 8 6 : : - - * % % - - - ",
"i = = > = i > = 7 7 r r t l u d L R Q R 6.@.8.[.i.i.y.u.l.BXuXn.8XT.T.T.A.A.P.A.P.T.x.x.u.i.<Xi.i.i.{.{.3.>.2.2.^.^.K P q f 5 5 c 8 7 : : : - - * & - - ; & ",
"> = > = > > > i > 7 0 7 r t b l C C K S ] ` $.:.sX5.}.@Xu.u.BXqXU.S.S.S.D.D.D.2Xb.F.1Xu.,Xi.,X,X@Xt.q.4.2.>.:.&.J Q.l z z l 0 8 8 6 - 8 6 - : ; & * * dXdXdX",
"dXi > i > i > > 7 > > 0 r u t u n C K K ` !.' | 5.5.+Xh.y.}.z.BXx.U.F.U.D.D.2X2X3XY.dXdX<X,Xi.,Xh.>XOX{.>.CX&.#.J J x z 9 r r 8 : 8 8 - 8 - - - * = - - dXdX",
"dXdXdXdXdXdX> > > > > 0 u 3 t u b W.B B I G ' /.CXCX5.5.L.Z.0XH.qXv.qXqXBXuXn.uXn.Y.rXrXi.i.ZX@Xw.0.].9.[ ^.Y P x J z z r r 7 7 > ; > ; > - = : - = * > dXdX",
"dXdXdXdXdXdX> > i i > 5 i q q t d b d d S A Q ' _.CX9X9XZ.9X<XkXqXqXqXqXn.c.n.n.Y.qXu.rX@Xu.@X}.w.[.].].] _ U P D x k c l 8 9 6 6 ; & > > & - - > > - * dXdX",
"dXi > > > i i > < < > i i u 0 0 u q u d VXM h N %.lX5.5.Z.Z.k.k.sXi.z.v.v.qXY.qXz.qXnXrX}.{.3.C.(.@._ ~.Y P Z V c l r r c 8 7 6 > > : > > - > = = > > dXdXdX",
"< i i > > > > 3 3 > > > 3 3 3 i 3 5 W.D B N H H %.lX5.4.Z.L.k.L.i.<Xz.H.qXqXqXqXl.l.}.rX7.7.C.%.@.(.~._ P Y Z V l t 0 9 w 8 8 8 - > - > - > > = > : dXdXdXdX",
"dXi 3 dXdXdXdXdX< > = = = i < i 4 3 5X^ 6XV.H m.J.m.6.eX[.|.q.5.{.q.y.h.u.u.u.y.nXnX6.].@.' Q ! E P N N C M d d r 4 3 3 8 r 7 7 ; > > > - > = * = = : dXdX= ",
"> > i > i dXdXdXi < > i 3 > 3 3 3 5 5XG.cXV.cXcXJ.J.eXlX_._.%._.r.{.@Xe.y.rX7.7.7.7.6.6.[ ! ! ~ R H M N M m d t 4 r 3 > 8 8 dXdX> > dXdXdX- - dXdX> > dXdXdX",
"dXdXdXdXdXdXdXdX= < i = i 5 < i FXFX7XG.G m.6X6XV.G.G./ ( lX~ M.6.6.( [ ( ( H H S G MX+.E R F S M f f y q a 0 q 9 9 3 6 7 7 ; 7 > - dXdX> - = dXdX: > dXdXdX",
"i 3 3 i 3 i > i = i < > O > > < s s 5X7Xm.m.6XwXG.G.wXwXeX~ J.~ 9.6.6.6.J.( H G H J.+.Q P S S v M M M d y y q q r 9 0 ; 7 6 6 : - dXdXdX- > : = - = > dXdXdX",
"dXdXdXdXdXdXdXdXdXdX> > > i > > ^ ^ bXdXdXV.bXcXV.V./ 6X5X/ AX/ m./ G F B H N B B B W.d d W.f a d d 1 4 q 1 0 3 0 9 > > 3 > > ; > dXdX: - * - = dXdXdXdXdX> ",
"dXdXdXdXdXdXdXdXdXdX3 dXdXdX> > ^ ^ vXvXV.G.V.m.cXV.6X6XB 5X5XB / B B B N h N B C B g d d d f f e f q 3 2 2 ; 9 9 0 1 dXdX; - - dXdX- * dXdXdXdXdXdXdXdXdX* ",
"dXdXdXdXdXdXdXdXdXdXdXdXdXdXdXdXbXbXvXvXbX^ bXbXmX6X6X6X5X5XW.R.B B M h f f f f d f 2 2 jX2 2 f g B E.g q 1 3 & 3 & 3 & > = > = - = - > = - = - > * * > - dX",
"dXdXdXdXdXdXdXdXdXdXdXdXdXdXdXdXvXbXmXvXbXbXmXbXmXmX6X^ 5X5XN g g f f f f f f f a dXdXy f a f g B B W.5Xg g < & & , & > > = * = = > - dXdX* > * dXdXdXdXdXdX",
"dXdXdXdXdXdXdXdXdXdXdXdXdXdXdXdXdXbX^ bXbXbXbXbXV.V.^ dXdXR.4 f q q 4 4 4 2 2 2 aX2 jXa a a s f s B.FX5 E.g u > , & & = > > > = dXdX- * > = : dXdXdXdXdXdXdX",
"dXdXdXdXdXdXdXdXdXdXdXdXdXdX3 & vXbX^ ^ bXiXbXbXV.V.^ wXR.5X4 2 B.2 4 dXdX2 , , aX, , jXjX2 a s s s s E.E.E.E.5 & N.= 3 = > = - dXdXdXdXdX- > = * > > * > > ",
"dXdXdXdXdXdXdXdXdXdXdXdXdXdXdX% vXvXbX^ E.iXbXE.bXbXvXdXdXR.B.< B.< < N.= < N.B.s 5 B.dXdXR.R.E.R.s s 5 s 5 u 5 o aX& & > = > = > * - = dXdX* - dXdXdXdXdXdX",
"dXdXdXdXdXdXdXdXdXdXdXdXdXdXdXdXdXdXbXbXbXE.bXE.vXbXvXdXdXdXdX< < < O o o = < 5 s 5 B.B.a s E.dXdXE.E.E.FX5 g E.o o 3 < > = > & = - - = * * > = dXdXdXdXdXdX",
"dX> > i > > > > > i > > i 3 = % HXE.E.vXbX^ ^ ^ vXvXmXR.s N.B.N.= O O O o dXdX< B.< N.B.FXs g s B.B.dXdXdXg g 5 o o & 1 & ; ; & - - > & = - & - dXdXdXdXdXdX",
"> > > 3 3 i i < > > dXdX> > =   E.E.E.^ ^ dXdXdXdXE.s a N.N.N.N.O dXdXdXdXdXdX, < < N.B.dXdXdXdXdXdXs s g s 5 5 N.= & 3 & & & > - = = > > & & > dXdXdXdXdXdX",
"dX3 > 3 > > > > > i i 3 > > * 4XO 5 u 5XvXvXvX5XvXs N.N.N.dXdXdXdX. X X X o & & & & , < B.B.a s s R.h R.g 5 jXjX, , & 3 - > - - - > - = > - - > dXdXdXdXdXdX",
"> dXdX> > < i dXdXdXdXdX> dXdXdX< i g E.vX5XvXvXE.s N.N.o dXdXdXdXdX4X  .   & o dXdXo o N.FX3 dXdXdXdXdXdXdX< N.@ & 3 & & > = * & & & - - > & & dXdXdXdXdXdX",
"> i i < i 3 > dXdXdXdXi dXdXdX= pXdXdX* dXdXo , jXdXdX, & dXdX+ % + 4Xp   dXdX@ + @ & & & & , B.s s g q B.< @ o + & & & > : > = > - - & > - - & dXdXdXdXdXdX",
"3 3 > 3 > > > > 3 i > 3 > 3 < = = i = O & & < N.o & O & & & &   + + + 4X    dXdX+ + + . o . dXdX3 q f 2 1 & & @ + . - & - > - > & > & - > & = dXdXdXdXdXdXdX",
"dXi i 3 i < > 3 dXdXdXdXdX> i 3 = % 4X4X.   . & o X + + + + % ; ; ; & - 1 dXdX+ + +   4X  + ; & ; , , & & + @ - % - & & : > = : > > dXdXdX- > = dXdXdXdXdXdX",
"> > < dXdXdXi 3 dXdXdXdXdXdXdXi u > - - & = + . % . 4X4X+ - 3 > > > 3 0 ; 1 1 % dXdXdXp . @ + % + @ @ @ + @ . . 4 7 3 - > dXdX= - & > = > & & > dXdXdXdXdXdX",
"i dXdX> > > i > dXdXdXdXdXdXdXi > > > > X   dXdXdXdX> > > > > > dXdXdXdXdXdXdXdXdX> > & +   4X4X+ + p + X % - % * : = > * > > * dXdXdXdXdXdXdXdXdXdXdXdXdXdX",
"< > > 3 i dXdX> dXdX3 i 3 i dXdXdXdXdXdXdXdX% dXdXdXdXdXdX> 3 > > > > > > > > > dXdX> = - + % + 4XdXdXX + @ % % * = - - - = * dXdXdXdXdXdXdXdXdXdXdXdXdXdXdX",
"dX> > > < > < > > > 3 > i 3 > dXdXdXdXdXdXdXdXdXdXdXdXdX> > > > > > > > > > > > > > > > = * * - p 4X4X% % % * * - - > * > * dXdXdXdXdXdXdXdXdXdXdXdXdXdXdXdX",
"> 3 3 dXdXdXi dXdXdXdXdXdXdXdX3 dXdXdXdXdXdXdXdXdXdXdXdX> > > > > > > > > > > > > > > > > - = * * * % % % % - = = > dXdX= - dXdXdXdXdXdXdXdXdXdXdXdXdXdXdXdX",
"dXdXi < > > i > dXdXdXdXdXdXdXi dXdXdXdXdXdXdXdXdXdX> > > > > > > > > > > > > > > > > > > > > > - = * - > * > * dXdXdXdXdX> dXdXdXdXdXdXdXdXdXdXdXdXdXdXdXdX",
"dX> > > > 3 3 > i > i > > > dXdXdXdXdXdXdXdXdXdXdXdXdXdXdX> > > > > > > > > > > > > > > > > > > > > > - > > > > > > > - > = dXdXdXdXdXdXdXdXdXdXdXdXdXdXdXdX"
};
