/* XPM */
static char *_a20353eb8434bd2f1c2a8740e7404e78vAgghH6n4FzEMlb_13[] = {
/* columns rows colors chars-per-pixel */
"78 86 256 2 ",
"   c #221D1D",
".  c #271D1A",
"X  c #24221D",
"o  c #2B231D",
"O  c #2A291D",
"+  c #231E21",
"@  c #291D28",
"#  c #321B36",
"$  c #1B2C29",
"%  c #252425",
"&  c #2A2524",
"*  c #252926",
"=  c #2A2925",
"-  c #262529",
";  c #2A262B",
":  c #26292A",
">  c #2B2A2B",
",  c #332523",
"<  c #342A24",
"1  c #33252C",
"2  c #3B242C",
"3  c #322A2D",
"4  c #3B2B2B",
"5  c #3B312A",
"6  c #2C2532",
"7  c #2D2A32",
"8  c #2B2638",
"9  c #322634",
"0  c #332A34",
"q  c #3B2B34",
"w  c #34253B",
"e  c #3A253C",
"r  c #352B3A",
"t  c #3A2B3C",
"y  c #3C2433",
"u  c #383138",
"i  c #283332",
"p  c #1D1F20",
"a  c #432B2A",
"s  c #46352B",
"d  c #442A3B",
"f  c #462837",
"g  c #493735",
"h  c #522E37",
"j  c #381C4A",
"k  c #3B2543",
"l  c #3C2B43",
"z  c #392747",
"x  c #3C2653",
"c  c #342E47",
"v  c #4A1C52",
"b  c #432B44",
"n  c #43254C",
"m  c #432B4B",
"M  c #492947",
"N  c #542A48",
"B  c #573748",
"V  c #452B53",
"C  c #4B2C54",
"Z  c #4C2B5B",
"A  c #532C5C",
"S  c #552857",
"D  c #4A3256",
"F  c #573358",
"G  c #653857",
"H  c #692E54",
"J  c #4B2865",
"K  c #542B63",
"L  c #5B2C6C",
"P  c #572768",
"I  c #583367",
"U  c #5A2976",
"Y  c #5B3375",
"T  c #4C306C",
"R  c #652969",
"E  c #663569",
"W  c #632C7C",
"Q  c #662A78",
"!  c #752A79",
"~  c #763679",
"^  c #6A5446",
"/  c #694657",
"(  c #764A6B",
")  c #5B2C85",
"_  c #6B2C84",
"`  c #662886",
"'  c #752B8A",
"]  c #6A3387",
"[  c #763489",
"{  c #6C2A94",
"}  c #742C9B",
"|  c #7B2C9C",
" . c #792897",
".. c #6B3395",
"X. c #7C2CA3",
"o. c #7929A7",
"O. c #772CB0",
"+. c #6D1D92",
"@. c #863789",
"#. c #842B9A",
"$. c #863599",
"%. c #8F2D8C",
"&. c #832CA4",
"*. c #832CAB",
"=. c #892BA9",
"-. c #952AA9",
";. c #8C33AB",
":. c #8836A8",
">. c #9638AA",
",. c #882CB5",
"<. c #952DB7",
"1. c #8C32B3",
"2. c #9737B7",
"3. c #A639A8",
"4. c #A53AB9",
"5. c #B12FB3",
"6. c #924892",
"7. c #AA4E99",
"8. c #9B44B6",
"9. c #8D49AB",
"0. c #A646B7",
"q. c #B74BB7",
"w. c #B453BC",
"e. c #B965B8",
"r. c #C64BB8",
"t. c #CF53B4",
"y. c #C665B9",
"u. c #CD6FB4",
"i. c #DA5BB3",
"p. c #A539C5",
"a. c #B453C3",
"s. c #BC54C4",
"d. c #BB57C8",
"f. c #BB67C5",
"g. c #C857D4",
"h. c #C865C6",
"j. c #D370CD",
"k. c #ED4FE8",
"l. c #CD8BB8",
"z. c #E991D2",
"x. c #D2AFCF",
"c. c #E5B8C9",
"v. c #F9A8E7",
"b. c #EEB0EC",
"n. c #EBCBD4",
"m. c #774A57",
"M. c #774590",
"N. c #35281D",
"B. c #3B2C24",
"V. c #74554A",
"C. c #A83595",
"Z. c #CE37CD",
"A. c #D8B9C9",
"S. c #D9B9D5",
"D. c #E7A9D8",
"F. c #E6B7D7",
"G. c #785655",
"H. c #F392EC",
"J. c #753469",
"K. c #AA54A9",
"L. c #D44ED2",
"P. c #D1B6B7",
"I. c #C987C7",
"U. c #DAA3E3",
"Y. c #F8B6D8",
"T. c #D4C4CF",
"R. c #533B39",
"E. c #514334",
"W. c #473248",
"Q. c #472557",
"!. c #521C6A",
"~. c #673378",
"^. c #6C2B8B",
"/. c #732C94",
"(. c #783397",
"). c #7B33A5",
"_. c #963899",
"`. c #8332A4",
"'. c #8934B7",
"]. c #9945A8",
"[. c #A749AA",
"{. c #B54BAA",
"}. c #B656AA",
"|. c #AC4CB4",
" X c #AC4CBB",
".X c #B34DBC",
"XX c #AC53B7",
"oX c #B453B4",
"OX c #BB53BC",
"+X c #B958B7",
"@X c #C557BA",
"#X c #9935C4",
"$X c #AA46C4",
"%X c #B74AC6",
"&X c #B350CD",
"*X c #9C45C4",
"=X c #C64BC7",
"-X c #C354C4",
";X c #C355CB",
":X c #C45ACB",
">X c #C859C7",
",X c #E94FD2",
"<X c #E96ED3",
"1X c #D48ECF",
"2X c #FAB7E6",
"3X c #F6CDE9",
"4X c #1D1C1C",
"5X c #5B4546",
"6X c #684A46",
"7X c #5F4F64",
"8X c #ECDBE0",
"9X c #B234CA",
"0X c #F471EB",
"qX c #F3ACD1",
"wX c #6F4F50",
"eX c #884C72",
"rX c #B16899",
"tX c #B98DC9",
"yX c None",
"uX c #DFC4B5",
"iX c #68431E",
"pX c #1A1817",
"aX c #381C29",
"sX c #CE28AC",
"dX c #D8C3C8",
"fX c #BAB0A7",
"gX c #D1C5B7",
"hX c #E839DD",
"jX c #3A2425",
"kX c #D657E4",
"lX c #8A3275",
"zX c #2F2B5C",
"xX c #B425CF",
"cX c #835558",
"vX c #594739",
"bX c #69503A",
"nX c #B46BAC",
"mX c #64493A",
"MX c #6B1B64",
"NX c #B88AB4",
"BX c #E3AAB7",
"VX c #4D1732",
"CX c #9B1998",
"ZX c #D658C7",
"AX c #534652",
"SX c #8E626C",
"DX c #922EC4",
"FX c #342F19",
"GX c #513398",
"HX c #37444E",
"JX c #971A60",
"KX c #611828",
"LX c #341419",
"PX c #B91242",
"IX c #170617",
"UX c black",
/* pixels */
"> > = - > - > yXyXyXyXyXyXyX= % O O O O i > > 7 0 7 3 3 9 9 8 9 w 8 8 8 D D c 8 & & 9 # 9 # @ 6 ; - yXyXyXyXyX- yXyX% & + & % + yXyXyXyXyXyXyXyXyXyXyXyXyXyX",
"> * > > * > yXyXyXyXyXyXyXyX= = O O O O O i 0 i > 7 3 i 7 0 r 8 w w j k 7XzXc 8 o 3 # 9 9 # 6 @ ; @ yXyXyXyXyX* % % % % - % % yXyX* yXyXyXyXyXyXyXyXyXyXyXyX",
"yXyX* > > = > yXyXyXyXyXyXyXyX= O * = = > 3 7 0 9 7 0 3 7 9 8 w 8 c w 8 AXD r 8 o & 9 9 # 8 6 6 - yXyXyXyXyXyX% & & - & % % % % yXyXyXyXyXyXyXyXyXyXyXyXyXyX",
"> = > - - > * yXyXyXyXyXyXyX* = O * = * > i 0 8 7 6 3 0 9 r r 8 w 8 z 8 T l c # & 1 e 9 w # 6 ; ; ; yXyXyXyXyX% + % % % @ % & yXyXyXyXyXyXyXyXyXyXyXyXyXyXyX",
"- > > * > - > yXyXyXyXyXyXyX= = : > > > 8 8 8 j l z w e 9 w 8 w 8 c j 8 c 8 8 8 & 3 9 9 # w ; 9 ; ; yXyXyXyX- - + % & % % & yXyXyXyXyXyXyXyXyXyXyXyXyXyXyXyX",
"yXyX> > > > > * > yXyXyXyXyX* yXyXyX; > 8 8 c c k z w z 8 r r w 8 8 8 j 8 j 8 8 < 3 e y w w 9 6 ; ; yXyXyXyXyX- % % % % % % & % yXyXyXyXyXyXyXyXyXyXyXyXyXyX",
"> yXyX= = > - > yXyXyXyXyXyXyXyX: ; : 8 c c c c Q.V n j z w r w 8 w j 8 8 8 # 8 & 3 e 9 w w 9 9 9 ; - - - - = = % % & % % @ yXyXyXyXyXyXyXyXyXyXyXyXyXyXyXyX",
"* > - > yXyXyX= yXyXyXyX> > = > : * 8 - c 8 zXc I A n n w k r w w 8 8 j 8 j # 8 < 3 r e k w 9 9 9 6 ; ; - - yXyX% & % - & % & yXyXyXyXyXyXyXyXyXyXyXyXyXyXyX",
"yXyXyXyXyXyXyX: > > > * * * = > ; : w r j z T I Y ) Q.Q.z k 0 t 0 r 0 0 9 0 9 9 w w x j Q.J x x w 8 6 6 ; ; - % % & yXyXyXyXyXyXyXyXyXyXyXyXyXyXyXyXyXyXyXyX",
"> > > = > > > = > * yXyXyXyX= > 6 7 w c x n Y Y GX] I K n k q r 0 0 9 3 9 9 q 0 e l n n Q.T V x e 9 6 : 7 ; & - & % yXyXyXyXyXyXyXyXyXyXyXyXyXyXyXyXyXyXyXyX",
"yX: : > = : : yXyX> yXyX> > > > 8 9 l x !.T } ).).).~.Y Q.Q.l l r e 9 9 0 r t u x x !.!.U ) T !.n x w z 9 7 7 - - - yXyXyXyXyXyXyXyXyXyXyXyXyXyXyXyXyXyXyXyX",
"- > = > - > = > - > > - > > > > r c D x v !.} ).).).[ ~.C S l l e q r r r 0 0 q x j !.T Y ] Y P n n l l r 6 ; ; - & yXyXyXyXyXyXyXyXyXyXyXyXyXyXyXyXyXyXyXyX",
"> - > - : : * - = > * > > > > > c c Q.J ] ) 9.9.*X*XM.M.S !.C M b b t t t t b b J !.) ` { } ) U K Q.n x 8 9 6 ; ; ; yXyXyXyXyXyXyXyXyXyXyXyXyXyXyXyXyXyXyXyX",
"yX> > > > * > : > = > > > > > 3 w l Q.Q.] ] *X*X*X9.M...v S M W.M n b b l W.D W.J T ` { } { W W K Q.V z r 8 7 ; ; & yXyXyXyXyXyXyXyXyXyXyXyXyXyXyXyXyXyXyXyX",
"1 ; = - yXyX* > = > > > > > 7 0 w c Q.Z ] ] 9.9.9.9.M.).P P A D m M W.W.W.D Z Z ) ` } } ).*...^.U J V n l z 9 9 6 ; & - yXyX= yXyXyXyXyXyXyXyXyXyXyXyXyXyXyX",
"& ; & ; * > > > * = = > > > 7 7 l c x zX( GX*X9.9.).M.M.P P F I A D D D V D A I ` ` } { } 9.$...Q P Z V l l r 6 6 ; - - yXyXyXyXyX* yXyXyXyXyXyXyXyXyX- + % ",
"> > - > > = > = : : = * > > 9 7 0 t Q.x (.] $X8.$.$.] _ T T T HXK F D D P T W W { ^.+.} `.1./.' E P C M k k w 9 6 6 ; - : * - = % yXyXyXyXyX- % % % % % + - ",
"> ; > > > yXyX> > : * > > > ; 0 0 t Q.Q.] _ 2.8.(.(.^._ T T T AXI I F F T I W ] { } o.X.`.:./.^.E P C n b b t 9 7 6 > : * * - * - - = yXyXyX% - % - - % % % ",
"> > = = = > * = > > > > > > 0 0 r 0 m n ] ] 8.9.[ [ ' ` ~.Y Y Y I I E Q W '  .'  .`.1.:.:.:.} /.~.W P K Q.n l w 8 8 7 : - * * - - = = yXyXyX* % % % @ - % - ",
"= = > = = = * * : > = > 7 7 3 3 0 q n V W W :.$.[ [ _ _ Y ` I E Y ~.E ~.] [ (.^./.:.9.2.>.;.(.| ] _ L P C n l t w r 7 7 : - yXyXyX% - - * - % - % % - % % % ",
"= * = * * * * yXyX; > > ; 0 3 0 > 3 m n L P [ ~.~ W [ ! ! [ ~ ~.~ ( ^.[  . .#.| #.;.>.1.>.:.(.(././.W U K Z m k r 0 7 > : - * - - % - % & % - % - % - % % % ",
"& = * = = * * * > > 3 ; 9 3 u 4 5 u m b E A ~.~.W ! ~ _ ] ' ~ [ ] ] [ [ $.| #.&.&.;.>.>.>.;.| | /.^.~.W K S m l r 0 > > : * : * = - % - - - % % + % % % @ - ",
"= * = * = = * O ; yXyX> 0 r 0 u u u M b L S E Q Q ~ ' [ [ #.[ [ [ [ X.#.*.&.*.;.&.;.1.>.:.$.(.`.(./.^._ Q L Z V t e 0 ; > > yXyX= - % - - = % % - % % % - % ",
"= = = = * = * = > ; 3 9 0 0 r t f u W.W.S S R Q ~.~ (.(.$.@.@.@.@.$.`.X.*.=.;.;.=.1.9.:.=.:. .:.(. .^._ Y Y F V t 9 > 7 7 ; = * - % % - - - % % % % - % % - ",
"= = > : : > * O > > > 7 w r k x x l Z Z P P Q ' _ ^.(.$.:.=.'.'.:.:.*.*.,.=.1.1.1.<.1.1.:.:.:.'.#.| (./.W ~.L Q.b y 9 9 7 6 - - - ; - * - * - - % ; % - - % ",
"> > > > = * = i > > 7 7 y t m l b V Z T P P Q ' ' [ (.).`.;.<.#X2.1.1.2.1.1.;.<.;.'.2.1.;.;.9.;.`.| (.(._ _ I Z M b r 9 7 > > ; ; ; - % - - yXyX% % - % % % ",
"> > > > : > : > > > 7 0 r r m b Q.Z P Y ` ` o.O./.{ X.&.:.'.#X#X#X2.#X#XDX<.<.,.'.<.2.1.;.=.'.2.:.`.| | [ [ E P M n l t r 6 6 6 ; ; yXyXyXyX% % & - ; % % % ",
"= > > * : > : * > > 7 6 w t m m Q.Q.P Y ` ` o.O.| } :.:.2.8.$Xp.#X#X#XDXDXDX#XDXDX2.<.'.<.2.;.8.:.`.X.`.[ ' ~.L C M l w r 6 6 6 ; > yXyX* - - - - yXyX; % - ",
"> > > > > : > > > > > 0 q r b m Q.J U ^.{ } o.,.:.;.8.8.0. X X0.$Xp.p.DX<.DXDX#X#X#X'.2.2.0.2.1.2.:.#.`.| #.^.{ A Q.b l r 9 9 6 ; 7 > - = - - > & - > = % % ",
"> > > > > i i : > > 0 0 q t M M J K ` ^./.} ,.'.;.9.8.0.|.$Xa. Xp.p.9XxXxXDX#X#X#X#X2.2.2.$X8.2.8.1.&.`.#.#.(.^.A Q.t t r r 9 9 > > > - - - - - - yXyX- % % ",
"> > > > > > > > 7 > 0 0 t u V M K L /./.&.*.<.,.>.>.|.[.XX+Xs.OX&X&X9X&X9X#Xp.p.#Xp.p.0.0.%X0.0. X0.>.=.#.#.X.#.F N m n t z r r 0 0 > 7 > ; - & - - - = - % ",
"> > > > : > > > > 0 0 q d d D D L E /./.*.*.<.<.0.[. Xw.OXs.s.s.&X9X&X&X9X9Xp.p.$Xp.$X0.%X$X%X%X$X$X>.>.=.&.#. .A S C m l k t r 9 6 7 yXyX; - - = % - - - - ",
"> > > > > = > > > > r u W.W.D T U Q  . .&.:.>.>.+XOXOXOXOX-Xs.-X&X&X%X&X9X9Xp.$X%X$X%Xs.%Xd.OX%X.X.X0.0.>.>.:. .^.+.Q Q !.v M f q 0 9 > ; ; & - > = - * = - ",
"> > > > > > > = > > r t l c D I ~.R  .| =.`.>.].w.w.OXOXOX@Xd.d.&Xg.g.=X%X%X%X$X4.$X%Xg.d.g.%Xs.d.a.$X0.2.>.:.#.^.^._ W !.!.M M r r 0 6 6 > - = = * = - - - ",
"> > = > = < < = 3 7 r t m W.Z I _ ` o.&.;.1.9.8.w.+Xr.s.-X@X-X;Xg.;Xg.g.%X%X%X%X%X%Xs.:Xg.;Xa.OXs.OXOXs.0.3.>.#. . .' ^.Q U S v t t 9 6 7 ; - - - = - * = - ",
"> > = = i = = > ; ; r l c m D I ] ] *.=.=.1.8.XXq.w.OX@Xs.-X-X-Xg.g.g.g.;X=X%X%X%X&Xs.;X;X:Xs.s.OXw.s.s. X0.>.>.#. ./.' Q W S M l t 0 9 > 6 - = * = - % - - ",
"> > > > > > = = 3 ; w t W.m Z T ..^.,.*.:.:.$X&Xa.a.r.-X-X-X>X>X:XZXZXg.g.g.=X%Xs.;X;X:X>X:X-X>Xs.OXOXOX X[.8.>.#.#. . ./.{ ) U t t 0 7 yXyXyX= - = = - - - ",
"> > > > > < = = ; 3 9 t z m T I ] ] ,.,.;.:.d.&Xd.s.r.-X-X-XZX>Xg.h.g.g.L.>X;X;X:X:X>Xg.>X:Xh.>X-Xs.OXw.|.|.3.>. .#.(. .^...) U d t r 4 6 6 & yXyXyX= % - * ",
"> > > > = = = > > > r r l W.D F ] ..,.,.'.:.&X&XOXa.%Xs.OX-X-X-X>X>Xg.g.>X>X:Xh.>X-X:X>X>X>X>X-X@XOX+XoX|.|.3.>. .#.| &.} } ..` b l r 9 ; 6 = = = * = * % = ",
"> > > > > = = 3 & > 9 r l c J I ` ` ,.,.:.'.f.&Xa.s.OXs.-Xs.h.>X:X>XZXg.>X;Xh.g.:X>Xg.>X>X:X-X-X-Xs.OXw.q.w.8.[.#.#.X.#.).} ^.) b l t w ; 7 - > - - - - - - ",
"i 3 3 > > > > > > < 0 0 l l V D ` ] ,.,.:.`.&X&X}.+Xs.-X;X-X>X@XZXg.ZXZX@X@X1Xj.d.d.:X>X-X-Xs.OXw.OXa.a.a.w.>.0.#.#.&.*. .X.W W m l r yXyX6 ; - & & * - - - ",
"3 > i > > < i < > > 0 u l l m D ` ) ,.,.:.:.&X&XoX}.s.s.d.:X@X@XZXZXZXZX@Xy.H.U.h.d.ZXg.>X-X-Xs.OXOXw.w.w.s.2. X#.#.o.&.o.).` U yXyXyXw 6 ; ; & = % % = * = ",
"yXyX> > > > O > = 3 3 0 t t W.D Y ` *.*.9.).f.&XoX+X%X-X-X;X@X@XZXZXi.y.j.1Xb.U.h.h.ZX-X@X:X-X@Xs.q.XX Xa.a.>.2.=.&.O.*.} ).] Y n x k yXyX; & - - = * - - - ",
"> i > > > > > < > < 0 0 t l V V ) U *.*.).).f.*X{.}.@X-Xs.=X@X@X=Xr.y.@XI.U.b.b.f.d.ZX-X-X-X-Xs.a.w.w.w.XX&X9.2.<.=.*.o...} ` U b x e yXyX6 ; ; = = - = - = ",
"> > 3 i > i O > > < 0 3 l u m W.I I /.| `.:.XX*XoX+X-X-Xs.;X@Xt.@Xt.I.1XU.b.b.S.e.e.ZX=X@X-X+X-X+XoXoXXXXXd.;.>.,.*.,.o.} { P T m n k w 9 ; > & - - = - - - ",
"> > > > 5 = < > > < i u t l V D P K | } $.:.8.8.oXoX=X%X=X;Xt.@X@X@X1X1XU.S.b.U.f.f.>X>X@X>X@Xd.d.+XoXXX Xa.>.;.=.=.o.o.{ { U !.n z w yXyX3 - - = % - = = - ",
"i 3 < > > > > > = > 3 0 t t c D D D ' [ O.*.1.9.a.OX=X;X;X-Xt.@X}.u.D.F.T.x.S.b.@X+X-Xh.h.f.@X@XOX+XXX|.|.XX=.`.&.#.o.X.' ` K Q.l c 9 9 yXyX& yXyXyX= - - yX",
"yX> i > > i < > 3 > 3 0 t u m W.C Z W _ 1.*.'.2.s.s.;Xg.s.-Xt.t.y.u.Y.3XS.x.S.n.y.h.-X>Xd.@XOXOXOXw.XXq.|.|._._.&.&. .X.^.^.J J l c yXyXyXyX- & - - = - = - ",
"yXyXyXyX> > > i < > i 3 q u z m T zXT Y *.*.5.DXk.k.L.L.ZXL.{.7.NXNX3X3XA.BXP.P.U.U.e.f.h.:X-XOXd.a.w.|.|.|.#.$.=.;.}  ._ ` j n r 0 7 6 ; - - > = - yXyXyXyX",
"yXyXyXyX> > > < i > 5 i r u c l x x Y U *.,.p.p.hXk.k.k.,X,Xy.rXNXfX3X3XP.A.P.P.kXtXXXf.h.>Xw.q.a.%XXX|.8.[.#.$.;.:. .#.U W n n r 9 7 7 > ; - > - * yXyXyXyX",
"< i yXyXyXyXi = < < i > 0 3 l u v S R ! CXCX9XZ.hXhXk.k.,X,XZXi.fXx.S.8XS.A.A.A.tXU.nX9.w.w.q.w.{.q.|.|.0.[.#.&.&.&.' | Q.K k e 0 7 7 : > : - - - - = - - * ",
"i > yXyXyXyX= > > i < < 3 u u l N N R R CX3.sXZ.hXhXhXhX,X,Xt.i.x.x.3Xn.n.A.F.n.tXx.e.nXw.a.|.s.q.+Xq.[.].3.#.&.| #.^.' Z yXyXe 0 7 > 7 ; ; - > = - * * = - ",
"yXyXyXyXyXyXi = > > i < 0 0 u u N N H H lX%.C.5.hXsXhXk.k.k.i.<X8X8XS.S.A.A.x.S.U.S.U.tX>XZX<X<Xj.i.oX{.#.#.=.-.).} Y L b b 4 > 7 > > > > : ; ; - - - = - * ",
"yXyXyXyXyXyX= = > > < i 3 > r t f N MXH JXCXC.5.hXhXk.0X,X,Xj.<X8X3X8XT.x.A.x.A.U.U.U.tX>XZXkX<X<XZXoX{.CX%.=.=.(./.U T l b 3 0 7 > 7 ; ; : ; - - = * - - % ",
"> > yXyXyXi yXyXyXi > > 3 3 0 0 t d S S ' _ -.-.5.5.L.kXZ.L.j.j.c.S.S.F.c.F.F.F.b.b.H.j.i.,X,X,Xy.ZXw.5.#.#.&.&.) U J x l l r 9 7 7 7 : : ; yXyX- - = = = * ",
"yXyX= yXyX> = > < > 3 i > i 0 > t t S S Q Q #.#.-.-.Z.kX=XL.<Xj.x.S.F.S.F.F.F.D.b.H.z.1X,XyXyXZXZX@Xq.{.#.%.|  .) U V x l l r 9 7 7 7 7 : ; : : - yXyX* = - ",
"i yXyXyXyXyXyXi i i 3 > i 3 0 u i c c AXK I '  .CX#.3.q.{.sXi.i.v.D.b.F.F.S.F.n.b.z.j.j.j.j.t.@X-X{.>.%.@.#.' W T Z l x r r 0 yXyXyX7 : : : : yXyX- > & % - ",
"> > > i yXyXyXyXyX> < i i 3 i 8 c i c x P L _ #._.>.3.{.5.{.,Xi.b.H.2X2XF.b.n.F.v.z.h.j.i.ZX@Xr.OX|._.$.' ' W W J J V l r r 9 7 > > : ; 8 : - : yXyXyX- = - ",
"i 3 3 3 i 3 3 3 = i 3 i i > 0 0 0 0 f yXyXVXMXH %.%.C.sXi.sXk.,Xu.z.qX2XY.2Xv.Y.H.z.y.@Xh.@X{.{.].6.] ~ Q Q Z Z l l t 0 r r yXyXyX7 : : ; : : ; > - - - - - ",
"yXyXyXyX< i i > < yXyXyXyXyXi > 4 y W.W.N yXyXMXlXC.C.sX,X,Xk.,Xu.z.v.2X3X2XY.qXz.1Xy.}.t.t.[.3.[.6.[ ! ~.Y I Z W.l t 0 9 9 7 6 : 8 : - - : : 8 > - & % % yX",
"yX> i < > i 3 < > 3 > > > > > 3 2 d B 6XG wX( G.eXeXsX7.,XL.k.k.u.u.1XBX2X2X1Xl.u.y.K.[.[._.@.@.Q MXK S C C M b q 0 3 3 7 7 6 7 7 : : ; 8 : : : - - - = * - ",
"i 3 yXyX3 i yXyXyX> i u > 0 > 0 4 a 6Xm.V.m.m.( lXeXC.C.r.=XkXL.u.u.l.z.2Xv.1Xu.nX}.[.7._.%.@.@.J.R F S F A W.M q q 3 3 7 6 6 7 6 : : 8 ; : : ; > = - - - yX",
"yXyXyXyXyXyXyXyX3 > > > i > 3 3 yXa ^ wX/ / 5X^ cXcXcXeX].K.XXXXu.rXnXrXNXNXrX6.lXlX%.%.' ! R R S v M f f q q q q 0 3 3 > yXyXyX: 7 ; : - : - > > - - - yXyX",
"yXyXyXyXyXyXyXyX< i > 3 3 > 3 = 5 s AXwX7X7X5X/ SXcXcXlX6.].].6.u.u.nXrXf.NXrX6.lXlXlX%.! Q !.MXN N f f q f f 4 q 3 3 3 7 > yXyX: ; : : ; : : > & > - = = - ",
"yXyXyXyXyXyXyXyXyXyXyXyXyX> < = ^ ^ ^ ^ bXcXmXcXcXcXwXm.B m./ ( ( ( ( J.G G G H E G F B S B M d N d 9 f q a e 0 4 7 > 0 yXyX; yXyXyX- - > - - > yXyXyX= - * ",
"yXyXyXyXyXyXyXyXyXyXyXyXi > = & G.7X5X5XcXcXcXmXcXcXV.m.B m.G / m.J.E H G G G G F I F B N N N N M d g f y y e yXyXyXyXyXyXyX> ; > > > - = - - = = > > * - - ",
"yXyXyXyXyXyXyXyXyXyXyXyXyXyX= o ^ wXvXmXcXbX6XmXH cX6Xm./ / B B B B B M h N N M N N f d f f f f B 5X5XB g q 4 yXyXyXyXyXyXyXyXyX> yXyXyXyXyXyXyXyXyXyXyXyXyX",
"yXyXyXyXyXyXyXyXyXyXyXyXyXyX= O ^ ^ yXyXyXmX6XmXmX6X6Xm.5X/ B B B B N N N N N h h M f f f f d B B B B 5XW.d q & & 1 yXyXyXyXyXyXyXyXyXyXyXyXyXyXyXyXyXyXyXyX",
"yXyXyXyXyXyXyXyXyXyXyXyX> > 3 & yXyXyXyXyXyXyXV.V.G.G.yXyX5Xd f f f f d f y a y y f f f f f g h h a s g E.E.u u yXyXyXyXyXyXyXyXyXyXyXyXyXyXyXyXyXyXyXyXyXyX",
"yXyXyXyXyXyXyXyXyXyXyXyXyXyX1 & E.vX^ bXmXyXyXV.wXV.wXG.B 5Xf f f f g f d d f f a aXf a VXa h h h f a g E.R.g 5 , & yXyXyXyXyXyXyXyXyXyXyXyXyXyXyXyXyXyXyXyX",
"yXyXyXyXyXyXyXyXyXyXyX0 > > 3 & vXE.yXyXmXyXyXmX^ ^ 5X6Xg 5XB.4 2 4 4 2 1 2 4 4 g g a a a g R.R.vXg s g s s u g yXyXyXyXyXyXyXyXyXyXyXyXyXyXyXyXyXyXyXyXyXyX",
"yXyXyXyXyXyXyXyXyXyXyXyXyXyX< & bXyXyX^ bXvXvXvX^ ^ 5X^ R.5X4 5 4 2 1 , 1 2 4 u g f 2 4 a h R.B R.R.E.s s 5 5 yXyXyXyXyXyXyXyXyXyXyXyXyXyXyXyXyXyXyXyXyXyXyX",
"i 3 i 3 i 3 3 i yXyXyXyXyX> < & 5XvXE.^ 5X^ ^ V.E.vXvXg s jX< < < O = O < < B.B.4 3 < B.B.s s g yXyXyXyXyXyXyXyXyXyXyXyXyXyXyXyXyXyXyXyXyXyXyXyXyXyXyXyXyXyX",
"yXyXyXyXyXyXyXyX3 > > yXyXyXyX& E.HXvXvX^ ^ ^ ^ vXvXE.a B.< < = = yXyXo o o < jX< < B.yXyXyXyXyXyXyXyXyXyXyXs < yXyXyXyXyXyXyXyXyXyXyXyXyXyXyXyXyXyXyXyXyXyX",
"yXyXyXyXyXyXyXyXyX3 yXyXyXyX= & $ i 5 5XE.5X5XvXvXg 5 B.< , = O & & % X & & & & & , < < N.a a g yXyXyXyXyXyXyXyXyXyX; 1 yXyXyXyXyXyXyXyXyXyXyXyXyXyXyXyXyXyX",
"yXyXyXyXyXyXyXyXyXyXyXyX3 - %   O = u E.5XvXvX6XE.a yXyXyXyX% O X .   4X  . & & & & o & N.B.4 4 yXyXyXyXyXyXyXyXyXyXyXyXyXyXyXyXyXyXyXyXyXyXyXyXyXyXyXyXyXyX",
"3 > > > 3 > yXyXyXyX> yXyXyX% + yXyX* = O & o o 3 < & & % % X % + p + +   @ @ - yXyX= % N.yXyX4 q g yXyXyXyXyX& % yXyXyXyX> yXyXyXyXyXyXyXyXyXyXyXyXyXyXyXyX",
"> > 3 i yXyXyXyXyXyXyXyXyXyX= + * * > = & o N.& = & X & % % p 4X+ % + p   + + @ @ . - + @ + , 3 3 3 yXyXyXyXyXyX. + yXyXyXyXyXyXyXyXyXyXyXyXyXyXyXyXyXyXyXyX",
"i 3 > > > > i yXyXyXyXyXi > > = . 4X+ p 4X  % & . X - + - + + - ; - > & @ , & yXyXyXyX+ @ . yXyX& & yXyXyXyX& @   + yXyXyXyXyX* yXyXyXyXyXyXyXyXyXyXyXyXyXyX",
"yXyXyXyXyXyXyXyXyXyXyXyXyX3 > > * = - - .   @ . X % + + - - - + > > 7 0 9 1 ; - ; @ 4X  + + @ % & yXyXyXyXyXyX+ + - ; yXyXyX> > yXyXyXyXyXyXyXyXyXyXyXyXyXyX",
"yXyXyXyXyXyXyXyX> 3 > > > > > > ; > > > % yXyXyXyXyXyXyXyXyXyXyXyX3 > > > ; > ; - -   4X4X4XyXyXyXyX+ + 4X+   + + + * = > > = yXyXyXyXyXyXyXyXyXyXyXyXyXyXyX",
"yXyXyXyXyXyXyXyXyXi > > > > yXyXyXyXyXyXyXyXyXyXyX- > > > > > > > > > 7 > 3 ; > > & - + X 4X+ 4X  4X4X4X+   4X+ + - = > * > > = yXyXyXyXyXyXyXyXyXyXyXyXyXyX",
"yXyXyXyXyXyXyXyXyXyX> > > > yXyXyXyXyXyXyXyXyXyXyXyXyXyXyXyXyXyXyXyXyXyXyXyXyXyX- = - % % % p p 4Xp 4X4X4X4X    % * yXyXyX> > : yXyXyXyXyXyXyXyXyXyXyXyXyXyX",
"yXyXyXyXyXyXyXyXyXyXyX3 i > > > yXyXyXyXyXyXyXyXyXyXyXyXyXyXyXyXyXyXyXyXyXyXyXyXyX- = * & * % % - + % + % + - - % * yXyX> * = : yXyXyXyXyXyXyXyXyXyXyXyXyXyX",
"yXyXyXyXyXyXyXyXyXyXyXyXyXyX> > yXyXyXyXyXyXyXyXyXyXyXyXyXyXyXyXyXyXyXyXyXyXyXyXyXyXyXyXyXyXyXyX= - & > = * - & yXyXyX> > yXyXyXyXyXyXyXyXyXyXyXyXyXyXyXyXyX",
"yXyXyXyXyXyXyXyX> yXyXyXyXyXyXyXyXyXyXyXyXyXyXyXyXyXyXyXyXyXyXyXyXyXyXyXyXyXyXyXyXyXyXyXyXyXyXyX- > > > > > & > > > > > > > > = yXyXyXyXyXyXyXyXyXyXyXyXyXyX"
};
