/* XPM */
static char *_a20353eb8434bd2f1c2a8740e7404e78vAgghH6n4FzEMlb_14[] = {
/* columns rows colors chars-per-pixel */
"78 86 256 2 ",
"   c #221D1D",
".  c #271D1A",
"X  c #24221D",
"o  c #2B231D",
"O  c #2A291D",
"+  c #231E21",
"@  c #291D28",
"#  c #321B36",
"$  c #1B2C29",
"%  c #252425",
"&  c #2A2524",
"*  c #252926",
"=  c #2A2925",
"-  c #262529",
";  c #2A262B",
":  c #26292A",
">  c #2B2A2B",
",  c #332523",
"<  c #342A24",
"1  c #33252C",
"2  c #3B242C",
"3  c #322A2D",
"4  c #3B2B2B",
"5  c #3B312A",
"6  c #2C2532",
"7  c #2D2A32",
"8  c #2B2638",
"9  c #322634",
"0  c #332A34",
"q  c #3B2B34",
"w  c #34253B",
"e  c #3A253C",
"r  c #352B3A",
"t  c #3A2B3C",
"y  c #3C2433",
"u  c #383138",
"i  c #283332",
"p  c #1D1F20",
"a  c #432B2A",
"s  c #46352B",
"d  c #442A3B",
"f  c #462837",
"g  c #493735",
"h  c #522E37",
"j  c #381C4A",
"k  c #3B2543",
"l  c #3C2B43",
"z  c #392747",
"x  c #3C2653",
"c  c #342E47",
"v  c #4A1C52",
"b  c #432B44",
"n  c #43254C",
"m  c #432B4B",
"M  c #492947",
"N  c #542A48",
"B  c #573748",
"V  c #452B53",
"C  c #4B2C54",
"Z  c #4C2B5B",
"A  c #532C5C",
"S  c #552857",
"D  c #4A3256",
"F  c #573358",
"G  c #653857",
"H  c #692E54",
"J  c #4B2865",
"K  c #542B63",
"L  c #5B2C6C",
"P  c #572768",
"I  c #583367",
"U  c #5A2976",
"Y  c #5B3375",
"T  c #4C306C",
"R  c #652969",
"E  c #663569",
"W  c #632C7C",
"Q  c #662A78",
"!  c #752A79",
"~  c #763679",
"^  c #6A5446",
"/  c #694657",
"(  c #764A6B",
")  c #5B2C85",
"_  c #6B2C84",
"`  c #662886",
"'  c #752B8A",
"]  c #6A3387",
"[  c #763489",
"{  c #6C2A94",
"}  c #742C9B",
"|  c #7B2C9C",
" . c #792897",
".. c #6B3395",
"X. c #7C2CA3",
"o. c #7929A7",
"O. c #772CB0",
"+. c #6D1D92",
"@. c #863789",
"#. c #842B9A",
"$. c #863599",
"%. c #8F2D8C",
"&. c #832CA4",
"*. c #832CAB",
"=. c #892BA9",
"-. c #952AA9",
";. c #8C33AB",
":. c #8836A8",
">. c #9638AA",
",. c #882CB5",
"<. c #952DB7",
"1. c #8C32B3",
"2. c #9737B7",
"3. c #A639A8",
"4. c #A53AB9",
"5. c #B12FB3",
"6. c #924892",
"7. c #AA4E99",
"8. c #9B44B6",
"9. c #8D49AB",
"0. c #A646B7",
"q. c #B74BB7",
"w. c #B453BC",
"e. c #B965B8",
"r. c #C64BB8",
"t. c #CF53B4",
"y. c #C665B9",
"u. c #CD6FB4",
"i. c #DA5BB3",
"p. c #A539C5",
"a. c #B453C3",
"s. c #BC54C4",
"d. c #BB57C8",
"f. c #BB67C5",
"g. c #C857D4",
"h. c #C865C6",
"j. c #D370CD",
"k. c #ED4FE8",
"l. c #CD8BB8",
"z. c #E991D2",
"x. c #D2AFCF",
"c. c #E5B8C9",
"v. c #F9A8E7",
"b. c #EEB0EC",
"n. c #EBCBD4",
"m. c #774A57",
"M. c #774590",
"N. c #35281D",
"B. c #3B2C24",
"V. c #74554A",
"C. c #A83595",
"Z. c #CE37CD",
"A. c #D8B9C9",
"S. c #D9B9D5",
"D. c #E7A9D8",
"F. c #E6B7D7",
"G. c #785655",
"H. c #F392EC",
"J. c #753469",
"K. c #AA54A9",
"L. c #D44ED2",
"P. c #D1B6B7",
"I. c #C987C7",
"U. c #DAA3E3",
"Y. c #F8B6D8",
"T. c #D4C4CF",
"R. c #533B39",
"E. c #514334",
"W. c #473248",
"Q. c #472557",
"!. c #521C6A",
"~. c #673378",
"^. c #6C2B8B",
"/. c #732C94",
"(. c #783397",
"). c #7B33A5",
"_. c #963899",
"`. c #8332A4",
"'. c #8934B7",
"]. c #9945A8",
"[. c #A749AA",
"{. c #B54BAA",
"}. c #B656AA",
"|. c #AC4CB4",
" X c #AC4CBB",
".X c #B34DBC",
"XX c #AC53B7",
"oX c #B453B4",
"OX c #BB53BC",
"+X c #B958B7",
"@X c #C557BA",
"#X c #9935C4",
"$X c #AA46C4",
"%X c #B74AC6",
"&X c #B350CD",
"*X c #9C45C4",
"=X c #C64BC7",
"-X c #C354C4",
";X c #C355CB",
":X c #C45ACB",
">X c #C859C7",
",X c #E94FD2",
"<X c #E96ED3",
"1X c #D48ECF",
"2X c #FAB7E6",
"3X c #F6CDE9",
"4X c #1D1C1C",
"5X c #5B4546",
"6X c #684A46",
"7X c #5F4F64",
"8X c #ECDBE0",
"9X c #B234CA",
"0X c #F471EB",
"qX c #F3ACD1",
"wX c #6F4F50",
"eX c #884C72",
"rX c #B16899",
"tX c #B98DC9",
"yX c #BAC5B2",
"uX c #DFC4B5",
"iX c #68431E",
"pX c #1A1817",
"aX c None",
"sX c #CE28AC",
"dX c #D8C3C8",
"fX c #BAB0A7",
"gX c #D1C5B7",
"hX c #E839DD",
"jX c #3A2425",
"kX c #D657E4",
"lX c #8A3275",
"zX c #2F2B5C",
"xX c #B425CF",
"cX c #835558",
"vX c #594739",
"bX c #69503A",
"nX c #B46BAC",
"mX c #64493A",
"MX c #6B1B64",
"NX c #B88AB4",
"BX c #E3AAB7",
"VX c #4D1732",
"CX c #9B1998",
"ZX c #D658C7",
"AX c #534652",
"SX c #8E626C",
"DX c #922EC4",
"FX c #342F19",
"GX c #513398",
"HX c #37444E",
"JX c #971A60",
"KX c #611828",
"LX c #341419",
"PX c #B91242",
"IX c #170617",
"UX c black",
/* pixels */
"aXaXaXaXaXaXaXaXaX> * > - = * * = O > > 0 u e 9 & 3 3 > > 0 6 8 ; : % & k t x j j z w w 6 6 - - - = - aXaX& % & aXaXaXaX= - aXaXaXaXaXaXaX* aXaXaXaXaXaXaXaX",
"aXaXaXaXaXaXaXaX> * aXaX> > * > > * > > 6 7 w 9 3 > > 3 3 0 7 6 6 6 > & e e z z n z k w 6 6 ; - - > % & % % % % aXaXaXaXaX- - - % - aXaXaX- aXaXaXaXaXaXaXaX",
"aXaXaXaXaXaXaXaX= > * > > > > > > > 3 > 6 9 e e 9 e 0 q 9 r 8 8 w c 6 0 e f v n J Z n x w w ; 6 ; - % % ; aXaXaXaXaXaXaXaXaXaXaXaXaXaXaXaX- aXaXaXaXaXaXaXaX",
"aXaXaXaXaXaXaXaX- > > - > > : : > > 3 3 # 9 b b t r q 9 0 r i 8 c 8 r 0 n n Q.Q.I K Q.v w 9 9 7 > 6 & & & % % % = % % % + % - % - = % % % * aXaXaXaXaXaXaXaX",
"aXaXaXaXaXaXaXaXaX* > > > : > > > ; w c z z T T C v k # w w i r 8 r t l v !.!.) ] ` A Q.z j l 9 9 6 : : - - * % - = = % - % - % - aXaXaXaX- aXaXaXaXaXaXaXaX",
"aXaXaXaXaXaXaX> > > > > aXaX> > ; > r u z x Y M.S C n b w l u u 0 r t e v !.) ` ] W K Z n z c 8 6 7 ; ; @ ; - * % * % % - - = % % - aXaXaX* aXaXaXaXaXaXaXaX",
"aXaXaXaXaXaXaXaX= > > > > > > > 7 r n z !.P ..).~.Y C v z x c l c W.C C U U +.{ } { Q P Q.Q.z z 9 7 6 6 : ; - = = - % % - - - - - - aXaXaX* aXaXaXaXaXaXaXaX",
"aXaXaXaXaXaXaX> > > = > > > > > r t V x !.P ).M.( ~.A Q.z l l l W.c Z Z U ` /.} } { W U K J l z r 0 7 6 6 ; ; - = % % % - = % % - * aXaXaX- aXaXaXaXaXaXaXaX",
"aX: > = > = aXaX: > > = > > > i c u Q.Q.] ] 9.K.M.M.!.S D m D l D zXY Y ^./. . .:.`.~.[ A J n x k k 9 9 6 aXaX- * * * - - = - - % % = - * aXaXaX* aXaXaXaXaX",
"aXaXaX> > > > > = > > : > > > > w l V Q.] ] 9.9.6.[ S !.D V D x T D L Y ^.^. .+.:.>.! [ P P n V l l r r 7 7 > > * - * = - - - = aXaXaXaX- aXaXaX* aXaXaXaXaX",
"aX> aXaX: > > : > > > > > > > < y w x Q.Y ] 9.9.9.(.U !.F C F F L U ` ] | | o.,.1.2.} | U Q J !.C Q.b e 0 0 > ; - > - > > - - > = - - - - aXaXaX- aXaXaXaXaX",
": > > > = > > > > : > = > > > > w w Q.x ] Y 9.9.M.[ P P I A A F Y Y ^.] `.&.,.,.:.;.}  .R Q P P S C k b 0 r > > - - - - = > - - - - aXaX% - aXaX- aXaXaXaXaX",
"aX> - > > : > > > > > > > > i 3 ; 9 k z I Z ] 7XK L J P L L U R ^.[ (.^.#.;.;.9.2.:.| X.` /.Q Q K A n n t t r 0 6 ; ; ; - - = - = aXaXaX- - aXaX- aXaXaXaXaX",
"> > > > : : : aXaX> > > > > > > 3 > z z Z V Y Y Z P P P L Y Q ~.' (.| /.`.:.'.9.8.9.O.).` ' _ Q L I C C l l r 0 7 7 ; : > - - = - aXaXaX- * - - % aXaXaXaXaX",
"; > - & > > > > > > > > > > 3 > 0 u l l D l F F D I ~.Y ! ] _ '  .#.&.=.;.;.>.8.8.8.:.:.' /.' ^.~.Q F K C m l r 6 6 ; 6 > ; - - aXaXaXaX- % - - * aXaXaXaXaX",
"> ; > > > : > > > > > > > > > 0 0 0 l l C z A Z A I ~.Q W [ ' [ #.| ;.;.>.;.>.8.$XXX9.8. .#.' ' ~.~.I I C W.l t r 9 6 6 ; > ; - - aXaX= aXaX* % - aXaXaXaXaX",
"aX; > > : : > : : : : : 7 > 7 r 7 r l l W.W.F Z F I ~.~.^.(.X.X.*.*.:.;.8.>.].8.XX0.].8.`.:.(.(.] _ ~.Y K K W.b l r 7 6 7 ; ; ; > ; - - - = - - % % % % % % ",
"> > ; > : > > : ; : > > > 7 7 0 u r c c W.W.D F F F ~ ( /.[ ).).*.*.1.:.8.].8.8.$X X].8.:.8.$.(.[ /.~.] I I D m l t r 9 7 6 ; > ; ; - - - - = aXaX% % aXaXaX",
"aX: > : : : : : 7 > > > 7 7 aXaXaXu u l W.C I L E ~.[ [ | #.'.*.*.:.2.;.8.2. X0.XXXX].8.9.8.`.(. .^.^.^.Q Q I S m n k k q w 6 6 ; ; - - = * - * = % % % % % ",
"> : : > > > : > > 7 > aXaXaX0 u 0 u W.g W.D I E E E [ [ #.`.'.O.1.1.2.;. X8.a.a.a.a.8.|.8.8.:.`. .^.' /.~.~.I F n n z k w 9 6 ; ; - * > - - = * % % % % % % ",
"* * * = * * * > 7 ; 7 7 9 0 5 3 u u W.W.K A _ ] ] ^.X.:.O.9.DXDX<.2.$X4.0.4.d.d.w.a.XXw.8.8.>.8. .+./.(.[ ] E F !.!.v n e y 9 6 ; ; - - * - - * * % % % % % ",
"= > * * * > aXaXaXaX6 7 0 r 0 3 u l W.W.I I _ [ ] ^.).`.'.O.DX#X2.4.&X$X&X0.d.d.XXd.w.a.>.0.>.8. . .(.$.[ [ E F P P M Q.l e 9 9 > > - : - - * % * * % % % % ",
"* aXaXaX* * = * 7 6 7 9 r r t t m m J I ) ) } O.} { *.o.'.'.#X#X4.4.$X Xd.s.;X-XOXs.%Xs.4.0.8.0.,.,.1.'.9.(.~ ~.) U S P b k r 6 6 ; ; & aXaX- : = % % * = % ",
"* = * * = aXaXaX; 7 r 9 r l t u M m K Y ) ) ..O.(.} ).`.'.#X#Xp.$X4.%X%Xg.;X:Xs.s.-Xw.s.0. X8.0.,.,.1.8.9.9.[ ~ ] _ P P m b r 9 0 6 ; - - - * - - - & * - % ",
": : : = : : > - > > 6 9 w t b m J T ) ) { { o.).:.).1.2.8.8. X0.$X X%X%X-Xd.>Xs.q.;Xs.s.g.OX4.3.-.>.8.8.].9.9.M.^.^.U U J Q.r w 9 7 > 6 : ; - : * * $ X % aX",
"aX: > : : > > > > 7 9 r r l m m T T ) ....} *.1.1.9.8.*X$Xa.&Xa.%X%X%X;X:X;X:X-Xs.:Xs.s.:Xs.4.4.2.:.2.*X8.].(.....^._ Y Q.Q.l r 9 7 6 ; : ; : - - * * * * % ",
": : : aXaXaX> > > 7 9 0 t t m V U ) O.{ o.*.1.'.>.1.0.0.|.oXw.+X;Xd.;X;Xg.:X:X>X>X>X-XOX-XOX3.3.0.0.8. X|.0.*X8.:.:...^.J J l k r 9 6 6 ; ; : * % * * * * X ",
"> > : : aXaX> > 7 7 7 9 e aXaXaX) ) GXO.o.O.'.'.8.8. XXXw.OXs.s.-X:X;X:X:X>Xg.>X>X;X-X-X-Xs..Xq.0.|. Xa.XXa.XXXX9.:.....J J l t 9 7 8 : : ; - - % - * X $ * ",
"> : > : aXaXaXaXaX7 0 aXaXu m m ) ` } } o.*.1.8.0.0.|.oXOXOXOX-X-X:X;X:Xg.g.:X:X:X:X>X>Xs.s.OXq.q..X.X.Xa. X8.8.2.;.| (.!.) n j r 9 7 7 > : - : - * * * % * ",
"> > : aXaXaX> i i > 3 aXaXq m x ) ` } } &.*.>.8.0.|.XXw.OXOXs.s.-X;X;X:X>X>X>X>X;X-Xg.h.=Xq.s.OX.X.X|..X X X0. X1.:.} ).) ` n z r 9 7 6 ; - : - * - $ % % $ ",
": i > > > > > > > 7 0 0 q g l b U ` { /.| #._.].|.XXXXXXs.OX-Xr.-X-X-X;X-X:X>X>XOX-X<Xj.OXq.-X%X.X.XXX.Xa. X$X X:.&.} ).` ` V m r r 7 6 aXaX: - % * % * * - ",
"> : > : aXaXaXaXaX> 0 3 q q b m ` ` { /.#.#.$.].8.XXw.aXaXOXs.-X-X-X-X>X;X:X>X@Xw.f.0X<X-Xw.q.OXoXoX.XXX XXX8.8.=.X.} ).] _ V z r 9 6 6 aXaX* * * % * * * * ",
"aXaXaXaXaXaXFXi > > 9 0 l W.m V U ) ^.[ X.&.;.>.f.XXa.XX%Xs.=X=X;X;XZX=Xt.r.nX+XtXtXtXU.&X&X=Xr.w.w.XXXX$XXX8.8.o.o.{ &.] ` l l r 8 6 > > - - = - % * * - aX",
"aXaXaXaXaXaXaXaX3 aXaX0 r z l V U Y ^...X.).>.2.*X*Xa.a.@X-X%Xr.=X-X=XZXr.t.y.y.1X1XtXtXa.&Xq.s.w.w. XXX X$X'.:.*.O.{ } U W l z r 6 ; 6 - - = % * & * - - $ ",
"> > > i aXaX= = > = 0 r l l m D U Y ..] X.X.;.2.9.*X Xa.%X-X-X-Xs.-Xh.-X@XnXu.1XS.U.1XtX+XXX@Xr.w.w.XXXX$X0.;.=.O.*. ./.P U c l r 6 7 7 > = * * % % * - % % ",
"> > > > aXaXaX< > > 9 r l l m D T Y ] ] X.X.;.;.9.9. Xa.-X%X%X-Xs.%X-Xr.e.e.I.D.b.U.tXe.f.w.-X@Xe.XXXXw.0.0.=.&.*.O.{ ^.U P l l r 6 6 ; > - % = & * - * - * ",
"> > > > > > > aXaX> 0 r l l m V U Y ) ..X.X.:.:.O.9.XX&Xa.a.OXs.@X-Xf.f.I.tXx.F.D.D.}.rX+X@XoXw.XXXXXXXX8.8.&. .X.o./.' K P 9 9 w r 7 6 > - % & % = * - - % ",
"aXaXaXaXaXaXaX< = 3 0 r l l V D Y ) ....X.`.`.&.).*X8.a.d.d.s.s.OX-Xe.f.I.x.S.U.D.D.7.K.OX+XOXw.XXXXXXXX2.;.&.|  . .^.' P !.9 0 9 9 6 : - * & % * % * - - - ",
"aXaXaXaXaXaXaXaXaXaX0 t aXaXV W.U ] ] (.X.| `.`.#.2.XXa.a.a.XXe.+Xe.tXtXT.x.S.S.D.D.}.rX@X@XOX+Xw.oX|. X>.=.#.|  .o.' _ S v q q 9 8 ; 7 > = & * & * * aXaX- ",
"aXaXaXaXaXaXaX< > < r aXaXl V D U ] ] (.#.| -.=.=.>.0.a.a.&XXXXX}.}.tXtXS.x.S.x.D.Y.y.7.@XOXw.+Xw.XX[.[.#.$.`.|  .+.Q Q !.Q.q 0 r 6 6 ; - - * - * & * * aXaX",
"aXaXaXaXaX< < i > i 5 r l W.D D ) ^.| (.#.(.>.>.>.0.|.w.XXK.j.j.b.D.S.U.T.T.T.yXU.S.I.j.@X@XoXoXq.|.].3.8.>.#.#.+. .MX+.v !.q 0 9 8 6 ; > - * = % - - * aXaX",
"aXaXaXaXaX> < O > 3 t aXaXaXV V _ ..(.(.=.#.8.2. X$X.Xw.XXe.I.I.D.v.S.S.yXT.T.x.U.S.1Xu.@X+X+XXX|.0.>.[.].].&.| +. .Q Q v !.r 4 9 8 ; 6 - > = * & * * * * - ",
"aXaXaX3 = = = i > 3 r u l l V D { /.#.X.>.:.[.[. Xa.w.w.nXnXU.1Xx.U.S.S.yXx.yXdXc.A.l.l.+X}.s.w. X0.].[.>.:. .' o.+.` +.A P q r 8 9 : ; > - = = % = - $ aXaX",
"aXaXaXi < i < O = 3 r r l W.V D /.} `.`.>.>.oX0.a.a.w.+XnXnXU.D.F.S.S.S.T.A.T.T.c.x.1Xl.y.e.-Xd.3.0.].|.>.>.$.| o.o.` Q !.K t q 9 8 6 ; - > = * * % * - * % ",
"> > > 3 i > < = > 3 u r l l V D o.o.*.`.].].K.{.w.w.}.K.NXNXdXdXS.S.S.F.A.c.dXA.x.A.x.tXtXf.%X@X.X.X|. X].8.:.$.*.o.` +.P U k z 8 9 7 6 - - = - & * * * - % ",
"> > > i O > i FX3 3 r u l aXaXaXo.).`.`.]._.|.K..Xw.oX}.NXl.A.dXS.S.F.F.c.A.dXA.S.S.x.x.U.1X@Xs.%Xs.XXw.8.8.9.:.O.O.^./.!.P l 9 r 9 6 ; & - * = * & * * - * ",
"aXaXaXaXaXaXaX< > i r u W.l V D ).O.&.`._.>.}.[.w..XK.}.P.P.dXgXS.F.F.S.c.dXdXuXT.T.T.T.1XtX%Xr.%Xs..Xw.8.[.].:.,.,.{ ^.!.U l z r 7 > 6 > - = * * * * aXaXaX",
"aXaXaXaXaX= = i aXaXr u c W.V D O.).`.&.[.[.}.7..XOX}.}.x.P.gXgXS.T.n.n.dXc.uXdXx.T.T.x.1Xj.s.%XOXa.q.w.0.0.9.9.,.,.^.{ U U z w 9 7 6 ; - > = = % * - % aXaX",
"aX> > 3 i 3 3 > i 3 l c z V Z T :.).#.`.4.4.Z.Z.L.L.H.0Xb.S.T.yXdXA.8X8Xn.dXT.T.P.dXS.A.b.U.tXtX%Xs.|.w.8.XX9.].X.=. . .P R # e > ; > ; & > % % & = - aXaXaX",
"i 3 aXaXaXaXaXaX3 3 r c m V T D | ).#.`.5.4.k.hX,Xk.H.H.3X3XyXgXF.S.3X3Xc.dXT.T.A.T.S.x.b.U.U.1X%Xa.q.oX[.XX].>.:.=.'  .U !.# k 3 > ; > & - = % - - = - - - ",
"> 7 > i i > 3 > 0 0 r r W.c W.D ! ! #.#.5.{.t.i.hXk.0X0Xv.v.dXuXT.F.3X8Xn.S.S.S.S.T.S.A.A.P.BXBX[.{.[.oX8.K.].].&.=.+.#.Q.Z b e 3 > > > > > - = = - - - - - ",
"> > > > > > > 3 > 3 0 r c l c D R ! #.#.3.5.ZX,X,Xk.k.0Xv.2XdXuXT.n.3X3Xn.S.8XS.T.T.T.x.BXx.c.BX{.+X{.|.K.[.>.[.#.=.! ' Q.J d e > 3 ; & - & = = * = - = - % ",
"> i i > > : > i > i 0 r u l W.W.Y L ~ ~ %._.9X&XhXt.@Xj.2X3X8Xn.8X3Xn.n.U.x.S.aXaXb.S.S.BXc.n.n.u.<XrX{.7.[.>.>.).).U U m W.0 % > > > > & & = = - = aXaXaX- ",
"> > 7 > > i > > 0 7 0 u u l l g P P ~ ~ _.>.5.&X,X,Xh.<XqXv.n.n.n.n.n.n.S.S.S.U.S.S.F.S.n.Y.qXuXz.<Xt.{.7.C.>.>.).).aXaXb M 1 % > 3 > & ; - % % * - - - - = ",
"> > : : > > aXaXaX7 7 0 u u u W.Z Z ] ] ,.*.9X9Xr.%XXXf.I.x.P.A.BXuXP.uXS.S.S.F.F.S.D.b.2X2Xz.z.i.u.t.7._._.@.%...) T T l b q 9 > ; > > > - = = = aXaX% - - ",
"aXaX7 > > > > 7 3 i 7 0 u u l u Z Q.] ] o.o.#Xp.5.q.XXe.l.1XP.yXfXuXuXdX3XF.S.x.S.x.D.D.2XY.z.BXu.u.t.}.C._.%.' GX) T J aXaXaXr 3 > > & > & = & - * - - aXaX",
"> : > i i > > > 7 > 7 7 u 8 l u J J P Q (.(.*.,.p.p.0. XrXnXx.3Xv.b.3Xb.U.U.S.b.Y.3XY.qXBXl.rXrX-Xq.q.3.-.-.X.X.) Y D x c aXaX> > > & > - > = - - * - aXaX= ",
"7 7 > > > > 7 aXaX7 7 0 r u r l J Q.!.L _ /.*.,.p.$X X.X7.K.D.qXb.b.b.b.3X3XS.S.Y.Y.Y.qXBXz.u.rX:XOX X4.=.=.} X.U T Q.n t r 0 > > > > > > > > - = = aXaXaXaX",
"aX> 7 > > 7 > 7 3 > 0 0 i 0 u r d d Q.V !.!.' #.5.sXhXhXZXZ.0X0Xv.D.D.D.2X3Xb.n.qXqXz.l.i.+XXX|.8.>.(.$.` ^.Y U Q.V c r 9 9 7 ; > & = > = = > - - * = - - - ",
"> > > > i > aXaX> 7 > i 0 7 8 u y d S F R Q #.$.5.5.sXZ.,X,X0X0XqXD.v.qX2X3XF.F.qXqXBXu.@Xy.a.d.>.:.#.`.' /.) U Z x t r 0 0 9 7 > - - = - > - = = - - aXaXaX",
"7 > 7 i i 3 > > > > > 7 7 0 > 0 B.a m.G.( J.eX@.sX5.sXZ.Z.,Xk.0Xl.BXqXY.3XaXaXD.rXrX}.rX>.3.<.<.#.$._ ] U U J Z g q aXaXaX0 7 8 > > > > > - > - > aXaXaXaXaX",
"> > > > > > > 7 0 > 7 7 7 i i 0 a 4 ( G.eX( 6.6.5.Z.xXsXhXZ.k.k.z.z.Y.qX2X2Xl.l.u.rX}.}. X X#X<.$.(.] [ Y Y T I q q < aXaX> 8 8 & > - > = > = - * * - - - = ",
"i > > > > > i > > > 3 > > aXaX> 5 a ( G.( ( m.cX6.6.3.>.|.0.@Xu.u.u.u.nXI.tXnXnX[.7.C.eX%.%.! lXH R S F M V d b r 3 3 3 7 > 7 7 & > > = > > > = aXaX= - - - ",
"3 > > 0 0 > 3 > 3 i i > > > 0 > g u SX( ( eXm.cXSX6.].#.0.[.oXrXu.l.y.rXI.tXnXK.7.7.eX6.%._.@.lXR R S F C C l t 0 4 aXaXaX6 7 6 - - > > - * - = * = aXaXaXaX",
"aXaXaXaXaXaXaXaXaXaXaXaXaX3 > > ^ ^ ^ ^ cXcXV.cXcXcXcXcXH ( ( eXeXeXeX( ( J.m.E J.~.G F F H N M B N f d g d t e 0 3 3 3 aXaXaX: > ; - : * - > = = - > * aXaX",
"aXaXaXaXaXaXaXaXaXaXaXaX7 > > > aXaXaXaXV.cXV.m.cXcXH cXH m.m.J.( eXJ.J.J.G G J.E ( E G S H F N N N N d e d r w ; 4 > ; aXaXaX> > > * : : * = - aXaXaXaX= aX",
"aXaXaXaXaXaXaXaXaXaXaXaXaXaX> = 6X^ mXmXV.m.V.mXJXV.cXcX/ m.H G G G F N N N N F B H N M N M VXN B / AXaXaXy 2 3 aXaX= aXaX* : : : - * * : - - : aXaXaXaXaXaX",
"aXaXaXaXaXaXaXaXaXaXaXaX> > > * 5X6XmXmXbXm.mXbXV.cXcXcXm.G B B G G H H H G G N S N N d f M N B B G AXB W.W.9 , aXaX> > > * = * : : : - * * : aXaXaXaXaXaXaX",
"aXaXaXaXaXaXaXaXaXaXaXaXaXaX- = aXaXV.bXbXbXH V.wXG.G.G./ 5XW.h h d d f f d f f f h M N f f N B h h g g vXW.s 3 & , & > > * : = > - : * - - * : - aXaX- - = ",
"aXaXaXaXaXaXaXaXaXaXaXaXaXaX> = vXbXV.V.mXmXaXaXaXG.G.aXaX/ h M M M N B N N N f VXf VXf f VXVXh h h f R.B E.g u , , > > > > > * * * : - : * * : = * = * = % ",
"aXaXaXaXaXaXaXaXaXaXaX> > > > aXaXvXbXbXmXR.aXaXV.^ 6X/ R.5Xq 0 a y f a y y y y W.W.h d h N B mXB R.g s g s s aXaXo = > = aXaX* - * : * - * - * aXaX% - - - ",
"aXaXaXaXaXaXaXaXaXaXaXaXaXaX1 & vXaXaXaXiXvXmXmX^ wX5X6X5X5Xq q a y y 2 2 d g f R.g a a f aXaXaXaXaXR.g B.5 u aXaXaX> = > * = > : : - * : : * - - * & * % % ",
"aXaXaXaXaXaXaXaXaXaXaXaXaXaX> % vXE.aXaXaXaXaXaXvX5XvXE.s B.3 < < = O = = N.jX5 5 2 aXaXaXaXaXR.aXaXaXaXaXaXaXaX= o % & & > = & = * = - = > * - * * = * - * ",
"aXaXaXaXaXaXaXaX> aXaXaXaXaXaX= HXHXAXaXaXaXaXaXaXaXg a 3 aXaXaXaXO O O o = < 3 3 3 B.B.B.a aXaXaXaXaXaXaXaX5 5 & < ; 3 - - - & - > = - - * - = aXaXaX- * * ",
"aXaXaXaXaXaXaXaXaXaXaXaXaXaX% % O aXaXE.5XAXvX5X5XE.< < < & = = & % % % O & & & = < < < < 5 5 aXaXs R.g aXaXB.jX= 1 & ; * * = * - = > * - > > = aXaXaXaXaXaX",
"aXaXaXaXaXaXaXaXaXaXi aXaXaX& 4XO i E.HXvXE.5XaXaX5 = O & & O % X X X       & = % & & O = B.5 a s E.g g 5 aXaXo & , & ; > > - > > * > - = - * - aXaXaXaXaXaX",
"aXaXaXaXaXaXaXaXaXaXaXaX3 aXaXX aXaXaX: % & O aXaX= - - % % + + % + p p + + @ + % aXaX= , aXaX3 u u g g 3 & , + & % = - > * - : * = = > * - = : aXaXaXaXaXaX",
"i > > > 3 i 3 3 aXaXaXaXaXaXaX% * = > : & = & aXaX% * ; % p $ p aXaXp + + + + + + + + - + & aXaXaX5 q 4 1 , + & 4X. - > * : = : - - - * - = - = aXaXaXaXaXaX",
"3 > > u > i i i aXaXaXaXaXaXaX> p 4XX aXaXaXaX> X % @ p - p p - > - - - @ ; - - % + + + + + - & & & & & % @ @ - 4X. - & - : > : > * - > > = : > aXaXaXaXaXaX",
"aX3 > > > > < > i 3 > > aXaXaXaX: : - - + + . + X   p @ $ @ - p > 3 > 7 3 3 ; = - - + aXaXaXaX- aXaX% aXaX. aXaX% - * - : : * : = > = - = - * - aXaXaXaXaXaX",
"aXaXaXaXaXaXaXaXaX> > > > > > > > * % + X p % % X - > = > > > 7 aXaX7 aXaXaXaXaXaXaX4XpX4X+ % 4X  4X4X  aXaXaXaX* > - * > - - = aXaX* = * * - = - * % % aXaX",
"> < i > > > > > > > > > > > > > > : * % % aXaX% - = > > > > > > > > > > aXaX0 aXaXaX% X   %   4X4X+ 4X4X    + % * aXaXaXaX= : * aXaX- - - - = % % * & aXaXaX",
"aXaXaXaXi > > > > > > > > > > > > > - > aXaXaXaX= > > > 3 i > > > > > > > > > > > = % * - * p 4X4X4X4X4X4X+ + * = - aXaX= - * > * - % = = - - * % = % * aXaX",
"aX> > > > > > aXaXaXaXaXaXaXaXaXaXaXaX= > > > > > > > 3 aXaXaXaXaXaXaXaXaXaXaXaXaXaX- - = > * % + +   % aXaX% * = > aXaX* > > : * = * - - = = - - * - - * = ",
"> > > > > > > > > > > > > > > > > > > > > > > u i > > 3 > > > > > > > > > > > > > > > > > > > > - = - = = = - = aXaXaXaX= = * = - * = - % aXaXaX% aXaX% * aX",
"aXaXaXaX< i > aXaXaXaXaXaXaXaXaX> > > > > > > > 3 > 3 i i 3 > > > > > > > > > > > > > > > > > > > > & - > - - > > - > * = i = : = - - * * = = - % % * % * - "
};
