/* XPM */
static char *_a20353eb8434bd2f1c2a8740e7404e78vAgghH6n4FzEMlb_15[] = {
/* columns rows colors chars-per-pixel */
"78 86 256 2 ",
"   c #221D1D",
".  c #271D1A",
"X  c #24221D",
"o  c #2B231D",
"O  c #2A291D",
"+  c #231E21",
"@  c #291D28",
"#  c #321B36",
"$  c #1B2C29",
"%  c #252425",
"&  c #2A2524",
"*  c #252926",
"=  c #2A2925",
"-  c #262529",
";  c #2A262B",
":  c #26292A",
">  c #2B2A2B",
",  c #332523",
"<  c #342A24",
"1  c #33252C",
"2  c #3B242C",
"3  c #322A2D",
"4  c #3B2B2B",
"5  c #3B312A",
"6  c #2C2532",
"7  c #2D2A32",
"8  c #2B2638",
"9  c #322634",
"0  c #332A34",
"q  c #3B2B34",
"w  c #34253B",
"e  c #3A253C",
"r  c #352B3A",
"t  c #3A2B3C",
"y  c #3C2433",
"u  c #383138",
"i  c #283332",
"p  c #1D1F20",
"a  c #432B2A",
"s  c #46352B",
"d  c #442A3B",
"f  c #462837",
"g  c #493735",
"h  c #522E37",
"j  c #381C4A",
"k  c #3B2543",
"l  c #3C2B43",
"z  c #392747",
"x  c #3C2653",
"c  c #342E47",
"v  c #4A1C52",
"b  c #432B44",
"n  c #43254C",
"m  c #432B4B",
"M  c #492947",
"N  c #542A48",
"B  c #573748",
"V  c #452B53",
"C  c #4B2C54",
"Z  c #4C2B5B",
"A  c #532C5C",
"S  c #552857",
"D  c #4A3256",
"F  c #573358",
"G  c #653857",
"H  c #692E54",
"J  c #4B2865",
"K  c #542B63",
"L  c #5B2C6C",
"P  c #572768",
"I  c #583367",
"U  c #5A2976",
"Y  c #5B3375",
"T  c #4C306C",
"R  c #652969",
"E  c #663569",
"W  c #632C7C",
"Q  c #662A78",
"!  c #752A79",
"~  c #763679",
"^  c #6A5446",
"/  c #694657",
"(  c #764A6B",
")  c #5B2C85",
"_  c #6B2C84",
"`  c #662886",
"'  c #752B8A",
"]  c #6A3387",
"[  c #763489",
"{  c #6C2A94",
"}  c #742C9B",
"|  c #7B2C9C",
" . c #792897",
".. c #6B3395",
"X. c #7C2CA3",
"o. c #7929A7",
"O. c #772CB0",
"+. c #6D1D92",
"@. c #863789",
"#. c #842B9A",
"$. c #863599",
"%. c #8F2D8C",
"&. c #832CA4",
"*. c #832CAB",
"=. c #892BA9",
"-. c #952AA9",
";. c #8C33AB",
":. c #8836A8",
">. c #9638AA",
",. c #882CB5",
"<. c #952DB7",
"1. c #8C32B3",
"2. c #9737B7",
"3. c #A639A8",
"4. c #A53AB9",
"5. c #B12FB3",
"6. c #924892",
"7. c #AA4E99",
"8. c #9B44B6",
"9. c #8D49AB",
"0. c #A646B7",
"q. c #B74BB7",
"w. c #B453BC",
"e. c #B965B8",
"r. c #C64BB8",
"t. c #CF53B4",
"y. c #C665B9",
"u. c #CD6FB4",
"i. c #DA5BB3",
"p. c #A539C5",
"a. c #B453C3",
"s. c #BC54C4",
"d. c #BB57C8",
"f. c #BB67C5",
"g. c #C857D4",
"h. c #C865C6",
"j. c #D370CD",
"k. c #ED4FE8",
"l. c #CD8BB8",
"z. c #E991D2",
"x. c #D2AFCF",
"c. c #E5B8C9",
"v. c #F9A8E7",
"b. c #EEB0EC",
"n. c #EBCBD4",
"m. c #774A57",
"M. c #774590",
"N. c #35281D",
"B. c #3B2C24",
"V. c #74554A",
"C. c #A83595",
"Z. c #CE37CD",
"A. c #D8B9C9",
"S. c #D9B9D5",
"D. c #E7A9D8",
"F. c #E6B7D7",
"G. c #785655",
"H. c #F392EC",
"J. c #753469",
"K. c #AA54A9",
"L. c #D44ED2",
"P. c #D1B6B7",
"I. c #C987C7",
"U. c #DAA3E3",
"Y. c #F8B6D8",
"T. c #D4C4CF",
"R. c #533B39",
"E. c #514334",
"W. c #473248",
"Q. c #472557",
"!. c #521C6A",
"~. c #673378",
"^. c #6C2B8B",
"/. c #732C94",
"(. c #783397",
"). c #7B33A5",
"_. c #963899",
"`. c #8332A4",
"'. c #8934B7",
"]. c #9945A8",
"[. c #A749AA",
"{. c #B54BAA",
"}. c #B656AA",
"|. c #AC4CB4",
" X c #AC4CBB",
".X c #B34DBC",
"XX c #AC53B7",
"oX c #B453B4",
"OX c #BB53BC",
"+X c #B958B7",
"@X c #C557BA",
"#X c #9935C4",
"$X c #AA46C4",
"%X c #B74AC6",
"&X c #B350CD",
"*X c #9C45C4",
"=X c #C64BC7",
"-X c #C354C4",
";X c #C355CB",
":X c #C45ACB",
">X c #C859C7",
",X c #E94FD2",
"<X c #E96ED3",
"1X c #D48ECF",
"2X c #FAB7E6",
"3X c #F6CDE9",
"4X c #1D1C1C",
"5X c #5B4546",
"6X c #684A46",
"7X c #5F4F64",
"8X c #ECDBE0",
"9X c #B234CA",
"0X c #F471EB",
"qX c #F3ACD1",
"wX c #6F4F50",
"eX c #884C72",
"rX c #B16899",
"tX c #B98DC9",
"yX c #BAC5B2",
"uX c None",
"iX c #68431E",
"pX c #1A1817",
"aX c #381C29",
"sX c #CE28AC",
"dX c #D8C3C8",
"fX c #BAB0A7",
"gX c #D1C5B7",
"hX c #E839DD",
"jX c #3A2425",
"kX c #D657E4",
"lX c #8A3275",
"zX c #2F2B5C",
"xX c #B425CF",
"cX c #835558",
"vX c #594739",
"bX c #69503A",
"nX c #B46BAC",
"mX c #64493A",
"MX c #6B1B64",
"NX c #B88AB4",
"BX c #E3AAB7",
"VX c #4D1732",
"CX c #9B1998",
"ZX c #D658C7",
"AX c #534652",
"SX c #8E626C",
"DX c #922EC4",
"FX c #342F19",
"GX c #513398",
"HX c #37444E",
"JX c #971A60",
"KX c #611828",
"LX c #341419",
"PX c #B91242",
"IX c #170617",
"UX c black",
/* pixels */
"uXuXuXuXuXuXuXuXuXuX> > > > * : * = ; ; w w j 8 8 9 ; ; O = O % * * 9 r r w 9 0 9 y 3 ; ; - - 8 - % - % % % % % % * p - p % - p + - uXuXuX- uXuXuXuXuX* - uX",
"uXuXuXuXuXuXuXuXuX> : > > > : > > = - - # 6 j j @ 6 ; 1 O * O O * * 0 r r e 9 9 2 0 > 3 ; - - - % % % % % % % % % % - $ - - - - - % uXuXuX% uXuXuXuXuXuX% uX",
"uXuXuXuXuXuXuXuX> : > = > > > > = > > 0 c c AX7X# w # 8 ; 6 > > % - 7 9 k w w w w e 7 6 6 ; - - * - * % % % % % % + % % p @ - $ - % - - - % uXuXuXuXuXuX- + ",
"uXuXuXuXuXuXuXuX= > > > uXuXuXuXuXuX> - 6 w Z 7X# # 8 w 7 ; > > * * r r w w z w e r r 6 ; ; - 6 - - * % % % % % % % % % - $ @ - - * % % % - uXuXuXuXuXuX+ p ",
"uXuXuXuXuXuXuXuXuXuXuXuXuXuXuX: > > > - 8 c D T 8 w w # 8 8 8 8 : : w z x j x Q.x x c w 8 6 - - - % - - % % % uXuXp - - % p - - + - uXuXuX% uXuXuXuXuXuXuX+ ",
"uXuXuXuXuXuXuXuXuXuXuXuXuXuXuXuX* = > 0 r c AX7Xw # 8 9 8 8 8 8 > > t 8 x z x J T x c c 8 8 : ; % - = = % % % % - % % p % $ - - - % uXuXuX- uXuXuXuXuXuXuXuX",
"uXuXuXuXuXuXuXuXuXuXuXuXuXuX: : = = - - 6 - # j # # 6 6 w 8 r r 0 0 x z J J U U Y U x x 8 8 6 6 - - - - % % % = - - - + - - - @ - % uXuXuX- uXuXuXuXuXuX% uX",
"uXuXuXuXuXuXuXuXuXuXuXuXuXuX: : = = > > w 9 k j 6 6 9 9 8 r c r i u j j J T ) ) Y U V x c w 7 6 - > - = % % * * - - - - - + $ - uXuXuXuXuX% * % % % % * % uX",
"uXuXuXuXuXuXuXuXuXuXuXuXuXuX= = = = & = 1 & , ; 1 ; ; 0 8 r u u n z !.!.+.` { ^.) !.!.J z z 8 9 ; ; - - 8 8 8 @ - - - - @ - uXuXuX- - uXuX* uXuXuXuXuXuXuX* ",
"uXuXuXuXuXuXuXuXuXuX: = > > = = = = & & ; 3 ; 3 ; 3 9 0 r i c c V V !.!.+. .} { U U J J z z c 8 ; ; ; + @ @ - 8 - 8 - 6 - - % - uXuX% - - - * uXuXuXuXuXuXuX",
"uXuXuXuXuXuXuXuXuXuXuXuXuXuXuX= , > & , & 1 ; ; 9 3 0 0 c u c l J T +.` +.*.o.+.+.) !.J x k t w 9 6 6 6 8 8 @ 8 8 - @ - - ; - - - = = - - * - uXuXuXuXuXuXuX",
"uXuXuXuXuXuXuXuXuXuXuX* > > & > = & = & 3 ; 3 9 4 9 r r l c l c J P ` ` *.+.o.,.{ +.U T x x l w 9 9 6 - 8 @ 8 6 8 8 8 - ; ; - ; - * uXuX- - - - uXuXuXuXuXuX",
"uXuXuXuXuXuXuXuX: : > = > > > > = * - & > 6 3 0 9 9 0 r c V D c U W +. .o.o.o.,.{ } U !.S n b b q q 9 9 8 6 8 # 8 6 ; 6 - - - uXuXuXuXuXuXuX- uXuXuXuXuXuXuX",
"uXuXuXuXuXuXuXuXuXuX* = > > > = = * > > ; > 3 3 0 4 y t W.l D D W ` }  .#.o.CX+.(.} U R Z Z b M t r r 0 8 r 8 w 8 r 6 6 : 6 6 : - - - = = * % uXuXuXuXuXuXuX",
"uXuXuXuXuXuXuXuXuXuXuXuX: > > > > > > > 7 7 t r q q t d V D Z D {  .*.*.o.+.O.,.X.} ` Q L L A C b M e t 8 8 8 7 W.b r 9 6 6 6 - - - = > uXuXuX= uXuXuXuXuXuX",
"uXuXuXuXuXuXuXuXuXuXuXuX: > * > > > 7 0 8 r t u t g t d D D T T  ./.&.,.*.CXO.O.} | _ _ R R C N W.b q e w l 8 8 D D r w 6 6 6 - - - * - - - - * uXuXuXuXuXuX",
"uX> > & > > ; > = = = = i = = = > > 7 0 7 r l l l b C C F I W ~  . .*.=.*X2.(.#.o.X...{ _ Q A F N v n n n n Q.j K I j V # 8 8 6 - : : 6 - ; - % - - % % % % ",
"- > - > > ; 3 ; = > = = = = i < > > 7 3 9 u l l M W.Z A I E _ ~ o.X.=.;.1.2.| X.).X.(.(.] W D D N N e n n n Q.n Z Z j V k # r 6 ; - : : - - % - * uXuXuXuXuX",
"uX> > > - > > > = = O i > > = > > 7 0 r u u u W.C D F I R ~.[ [ &.=.=.=.2.2.*.*.O.*.O.X.^.^.R R H S v S K K L L U Y x L x k c uXuXuX: : ; - - - - - uXuXuXuX",
"uX> > = > > > > = = = = > > > > i 0 0 0 r u u g F D R L ~.~.[ $.#.=.;.1.2.8.:.*.'.`.).X.../.R E I L S S T L ~.~.] M.J T z x c w ; 6 : : - - - - - * % % % % ",
"= = = = = : = = = = * = > ; 3 3 0 r 3 5 u t D W.P I _ ] ^.(.X.`.=.;.2.0.$X8.:.=.X.X.| | } } ~._ F R J S Q U ..] 9.9.) ` j n l c ; ; ; ; - - - % % % % % % % ",
"- * > * = = * > O * O = 3 ; 3 & 0 r 3 3 t u W.B I Y ] ] (.[ `.`.=.;.2.uXuX$X:.`.`.`.X.`.| } _ W R F S K U Q [ ..*X8.] ` j x c c > > : ; - % % - % - % % % % ",
"= > = > = - = > O = = = ; ; 9 9 0 r q t M W.K I ) { } X.} | =.,.-.;.$Xa.&X0.=.=.=.=.:.*.X.| ' { E E ~.~.+.' ;.8.*X*X{ { Q.x 8 j 7 ; ; ; - - - - - % % % * uX",
"uXuXuX> = = = * = = = = ; 3 3 0 t t t u M C K Y ) ..).).).(.,.,.;.;.a.$Xa.0.=.>.;.:.1.;.&.X./. .J.~.W ~. . .2.8.*X*X+.{ J x 8 8 : ; : > ; & - = % % % % uXuX",
"= = uXuX= = > * > ; 6 7 6 r w z 4 4 d b D D U ~.{ { O.,.1.*.=.=.2. Xa.&Xa.d.2.$X;.<.1.;.:.*. . .! J.J.~.' [ ].8.XX9.[ ~ b b 3 4 ; : : > uXuXuX- * - % % - * ",
"> = = > = > = > ; > 7 ; r 8 r r 4 3 g W.D F Q ~.o.} O.DX#X,.<.<.0.$X&Xd.:X&X2.$X1.1.<.1.;.&.| } E J.~.~ [ [ $.9.].:.! ! b M 3 u > 6 6 : uXuX* > - - = % % * ",
"> > > > > = = > : 7 6 7 9 0 t t t t V Z U Y ] ] ,.O.DXDX<.<.p.%X.X.X.Xw.:Xh.0.0.<.2.DX#X1.,.*.=.[ @.[ !  .[ (.$.$.' Q Q n M 0 9 : : : uXuXuX- - % % = - & * ",
"= uXuX> > > > > 6 ; 6 7 9 9 e t b d D T ~.Y /.(.O.,.DXDX<.<.$X&Xd.s.d.d.g.g.$X$X#X<.<.DX1.<.*.,.@.' ' '  .[ /./.' ' !.R M C r y 7 ; > uXuXuXuXuX- % % % - uX",
"uX> > > > > > > 6 7 6 7 9 9 0 t m C U Y ..{ } ).<.<.<.<.4.<.%Xg.-XOXh.:Xf.h.a.a.#XDX#XDXDXDX<.'.=.o.| | /./.~._ W U S P M C r 9 7 : : ; ; uXuX- = - = - & % ",
"> > > > > > > > > 6 7 7 9 r t q C D U Y ....} :.,.<.<.<.p.9Xs.g.>X-Xj.j.-X:Xd.a.p.#X#XDXDXDX'.'.*.1.X.X././._ _ Q U P P n C w e 7 : ; > uXuX% = - % % - % - ",
"> > > > > i > > > ; 7 6 0 r q f C I _ ] { } &.*.,.=.-.>. X X;X>Xe.h.j.j.f.-X>X>Xp.9Xp.2.<.<.,.DXDXDX'.*.| (.^.' Q ~.P L n Z w z : 6 : ; uXuX- uXuX- & * - % ",
"> > > > > > > > 6 7 0 7 r r t t C A W ] } | :.;.<.=.-.<.9X%X;X;Xd.y.H.1XOX+X:Xh.%Xp.#X#X#X#X'.,.DX'.,.,.| } ' ^.~ Q P U n V w w 7 6 > > ; ; = - % * % - * - ",
"> > > > > > > > > > 0 9 l l V D K L _ _ o.o.=.1.<.=.0.0.&Xd.d.d.e.f.H.1X&X+X>X:Xg.;X=X$Xp.#X2.'.2.;.=.=.o.=.+.O.+.+.U ` n M w 9 7 8 7 8 - - * % * : - - - = ",
"> > > > 6 > > > uXuX0 q l l Q.Z P Y ] ] X.o.=.1.2.<. X%Xd.g.d.f.y.e.j.H.a.h.>X>Xg.;X%X9Xp.p.2.DX2.>.#.=.#.*.,.,. .o.Q _ n Q.9 w 7 7 : : * - % * * - - * - % ",
"= uXuXuX> > > 7 > 3 r uXuXb V Z L ~./.(.=.o.=.<.3.2.&X%Xd.d.d.a.1Xj.b.v.e.y.h.j.ZXg.g.g.&X&X&X&X0.>.-._.=.=.*.,.*.*.{ /.Q.J z x r 8 8 : - - * - uXuXuX* - - ",
"= > > > > > 7 > > 3 0 0 l W.Z D Q ~.' (.*.&.<.2.0.p.d.d.d.d.g.f.U.1Xv.b.h.y.ZX@X>X>Xg.g.g.d.g.g.0.4.-.>.=.,.o.o.&.*././.Q.Q.c z 8 8 : : * - - * uXuX= - = - ",
"> > > > > > 0 7 > > r uXuXb Z D W ! /.(.&.&.2.2.$X&X%X;Xe.+Xj.1XtXtXU.3Xj.I.h.e.e.@X-X:X;X;X;X;XOX.X|.0.8.>.=.&.X.*./.} Q.J z x r 7 7 8 * uXuX- uXuX= * - - ",
"> > > > > > > > 3 3 q t l W.V T W ' (.#.;.`.2.4.$Xd.d.d.f.f.I.1X1XU.S.b.1X1Xj.e.h.h.h.:Xg.g.g.;Xd.s.w.w.0.2.*.&.X.*.^.^.J x z c 8 8 : uXuX- * * uXuX- * = uX",
"uXuXuXuX> > > > 3 i r d W.V Z K _ /.&.`.2.1.0.$X$Xd.OXs.nXnXl.1XT.S.3Xb.b.F.I.l.nXe.h.+X-X@Xr.s.w.w.oX|.>.>.X.| | (.W _ n C 8 8 7 7 : 8 * - $ - uXuX- - - uX",
"uXuX3 i > > > 3 3 0 t t c l J I ^.(.X.`.>.2.$X&Xa.d.+Xd.nXnXl.z.8XS.S.S.D.F.1XI.e.e.e.+X-Xs.%X-Xw.w..XXX8.2.`.`.$.| W _ n C 9 r 8 8 8 : * - - * uXuX= uXuX= ",
"> > < i = = 3 3 3 3 u t V D T L } O.*.*.1.2.8.$Xa.a.f.&X1X1Xz.1XS.S.S.8XS.S.b.b.I.I.e.f.@X-Xs.OX%Xa.0.0.&.;.X.).(.(.Q Q b W.4 9 8 7 7 6 ; : : - uXuX= - = - ",
"> > > > = > i > 3 u t b V V I Y { o.O.1.;.2.>.0.*X&X&Xf.j.j.j.1XS.S.T.U.T.F.S.S.U.1Xe.e.s.@Xs.%Xa.a.>.0.#.:.X.X.(.[ U Q b C 4 3 8 7 : : - - * - uXuX- % - uX",
"uXuXuX> > < 3 3 3 5 u W.V D U Y O.O.O.O.;.2.;.>.&Xf.e.XXtXI.D.3XS.S.T.T.T.T.T.S.U.x.nXnX+X+Xd.s.$X$X<.2.O.'.O.o.^.^.U U b C 9 9 8 8 : - : - * * uXuXuX* - = ",
"uXuXuX> = < i 3 3 u t b D J U ] O.O.O.'.:.2.>.>.&X*Xe.f.1XU.F.b.8XS.T.S.S.T.T.T.b.S.f.nXOX+XOX.X$X$X1.1.1.'.O.O.^.` !.U n C 0 0 8 8 - 8 - : * - uXuXuX= - - ",
"> > i > > > i 3 3 5 b u D D _ ] O.O.'.'.>.>.2.0.a.a.nXnXl.x.A.c.S.S.T.S.T.T.S.dXF.F.l.nXe.e.XXXX$X0.,.2.*.'.O.o.{ ` U U n Z z r 8 7 7 : : - - * uXuX= - - = ",
"> > < > < > 3 3 3 u l W.J Z _ ..DX'.'.2.>.[.0. XXXXXnXnXl.D.c.A.S.S.S.T.T.S.dXS.S.F.1Xl.e.}.XXXX$X8.'.2.O.'.O.O.{ { ) ` V Z z uXuX7 7 : - - - * uXuXuX= - = ",
"uXuX> > = > i 4 3 q W.W.Z Z ..(.O.DX2.8.[.|..X.XXXXXNXNXgXgXdXdXT.S.T.S.n.T.S.S.A.F.F.x.nXrXK.K.a. X2.0.`.:.} ).o.o.) ` Q.Z k w 8 8 7 ; uXuX> * * * - * uXuX",
"uXuX> > < < 3 uXuX5 W.c F T ..).DX'.8.0.0. X.Xd.e.}.NX1XP.dXA.dXS.S.8XS.S.dXdXdXA.S.F.D.nX7.e.nXa.w.4.0.`.;.).O.).} ` ^.Q.K k k 8 6 7 > uXuX- * uXuX= - > uX",
"uX7 uXuX> i 3 3 w l V V U ) o.O._.].|..Xq.OX@X>Xy.u.qXv.S.dXgXgXS.S.8X3XS.T.T.S.yXA.A.x.1XI.}.}.q.OXK.[.K.9.:.:.).o.^.} P L n n r 7 7 7 - - ; > = % % = & uX",
"uXuXuXuXuXuX4 3 z r V n ) _ o.*.].[.|..Xq.q.-XZXy.t.v.qXc.n.gXgXT.S.8X8XT.S.T.T.x.uXuXA.I.I.K.+X.X.XK.{.K.9.].9.*.*.{ /.P P n n 9 9 7 ; & > & > = - % - - & ",
"7 uXuX7 > 0 0 0 t t A C ] ..1.2.[.[.[.q.r.r.@Xh.0X0XH.H.b.b.b.3XT.S.n.3XuXuXT.T.A.A.x.S.e.I.q.3.q.q.{.K.K.7.8.].'.O.| | R Q v n 0 9 7 6 ; & > & = & & & & - ",
"7 > 0 i > > 0 0 q t D C ] M.'.'.q.|.[.|.q.@X>XZX0X0XH.H.3Xb.S.S.n.T.3X8XT.S.T.T.T.x.x.S.u.j.t.r.{.oX{.}.K.K.8.].8.'.).`.Q ~.v M r 0 6 ; ; ; & ; = - & - & % ",
"7 7 > 7 > 7 0 u u u W.W.] ) M.9.|.[.[.{.q.@X@XZX,XL.H.H.3X3X3X3XuXuX8XS.A.x.x.A.x.D.v.Y.<XZX<X,Xt.@X7.t.7.7.].K.*X*X`.9.~.~.F C r 7 7 6 ; ; & ; = - - & > = ",
"7 uXuX7 i > 0 0 u u D W.Y M.O.*X7.[.[.[.{.@X>X>XL.>XH.H.2X3X8X3Xn.n.n.T.A.A.A.A.S.F.D.D.<Xi.<X,X@Xt.}.uXuX7.[.[.&X*X:.;.[ ~.A A 0 9 6 ; & ; ; & = % & uXuXuX",
": i > 7 > > 0 u u 5 c c T Y ..)._.].[.[.q.q.r.@X}.7.I.I.T.T.yXyXA.A.S.S.S.S.A.A.v.qXz.j.,Xi.,Xi.i.>XuXuX7.7.C.[.*X*X1.9.~.~.A Q.0 9 6 ; > ; ; > % = % & % - ",
"8 7 7 : 0 7 0 0 5 u c c T Y ..)._.C.[.q.{.{.q.@XrX7.I.x.S.T.yXyXP.A.dXF.n.S.A.A.D.Y.1Xj.i.i.i.i.>Xi.7.}.7.7.{.3.*X*X9.:.~.~.S n r 9 6 6 ; 3 & ; % & & - - = ",
"; i : 7 7 7 0 7 u i l l D D T F @.@.[.$.oX|.{.|.}.[.7.7.l.l.qXqXv.H.2Xv.v.v.v.v.H.<X<Xu.i.i.sXt.t.{.{.{.[.[.[.[.8.1.$.(.] Y P T 9 9 7 6 uXuX; & % & % - - & ",
"7 7 8 8 > i 7 7 3 i r l x V T Z @.[ _.%.{.[.5.|.7.{.rX}.rXl.z.qXH.v.v.v.v.v.z.H.z.z.i.i.i.i.i.i.{.r.{.{.[.[.].].;.(./.` U U J J r 9 7 ; ; & & > % = ; = & & ",
": 8 i : 7 i 7 0 3 0 u u c AXW.D T U 6.M.3.3.3.3.Z.Z.,XL.,X,X,X,X<XZX<XZXh.j.u.j.<Xi.t.t.t.t.7.7.{.7._._.%.$.$.[ [ ' W Q J J x x r 7 ; 6 ; 1 - & & = uXuXuX& ",
"i 7 7 8 6 : > 0 0 0 0 r r c l W.!.P [ M.>._.3.5.,XkXk.,X,X,X,X,XL.ZXj.0Xj.j.y.@XZXt.>Xr.{.C.7.}.{.3.].[.6.$.(.[ ' W U !.Q.v j j 9 9 7 6 ; ; = & = % = - - > ",
": 7 : 8 7 7 7 7 i > 0 r u u b W.V D M.( 6.6.7._.5.5.5.xXkX,X,XZX@._.7.6.6.6.eXeX{.[.3.3._._.@.@.[ ! ~ ~ ~.Y Y P K K n n z c : 8 9 9 7 > ; ; & ; & % & = - % ",
"8 7 7 7 7 7 i > 3 3 0 0 r u b l V l SXM.6.lX7.7.xX5.5.Z.L.,X,XL.6.6.C.C.7.6.eXC.C.7.3._.$.@.~ lX[ ' ~ ] ) ) Y Y K Z n n 9 w 7 i 6 9 ; 6 & ; ; & % = % - = - ",
"0 > i 7 0 > 0 > 3 uXuX3 3 r q 4 q a G.( m./ eXSX6.eXeXeX( 6.( ( eXeXm.cXlXH JXG ! ! ! ! ~.L K T !.A K J J J J x n k q r > i $ O 7 7 ; > > ; & > = = & - = % ",
"7 i 7 > i uXuXuXuXuXuXuX0 0 4 0 f d G.G.( / 6.SXSXeXlXeX6.eXJ.m.rXeXeXJ.cXeXH H R ! ! ! L L K K P !.!.S x J J Q.k k r r > i O $ 6 7 & ; ; > - & % & - & - = ",
"> > 3 > > > > 3 uXuXuXu > > < < wX^ ^ ^ V.cXcXcXcXcXwXm.AXwX/ / ( / / G B N F B F F W.B W.N W.d N uXuXM uXuXl uXuXuXuXuXuXuXuX> 6 > > - = = uXuXuX= - * * * ",
"3 i 3 i i uXuXuX> uXuXuX3 i < , uXuX6XuXuXuXuXV.cXcXwXm.B / G F / B B N N N N N F F W.b M W.W.h N M uXuXg d t w 4 0 > 3 > 7 > > ; ; - - > uXuXuX- = * uXuX% ",
"i > i 3 i 0 uXuX3 > > > > > = = 7X6XmXvXm.cXbXbX^ V.wXwX6X/ B B B B M h h f M f M d a y y y f f B B uXuXuXd q uXuXuX> > > > : : : > = : - = > * % - - = - * ",
"3 3 i 3 3 > uXuXuXuXuXuXuXuXO O ^ ^ 6XuXuXV.6XH mX6X6Xm.5XAXB g W.h d f f d f f f d d y y e f b B / uXuXuXuXuXuXuXuXuXuXuXuXuXuXuX- - = - * > - * - = % = - ",
"i 3 i uXuXi uXuXuXuXuXuXuXuX, ; uXuX^ ^ bXmXbXV.V.G.G.G.B 5Xa a a y q q q q 2 1 2 2 2 y f 4 g a uXuXuXuXuXuXuXuXuXuXuXuXuXuXuXuXuX> * > = - > = uXuX* * - * ",
"< i 3 3 3 > uXuXuXuXuXuXuXuX3 % E.uXuX^ mXmXV.V.V.G.wXwX5XB a y a q q q 4 2 jX, aXaX2 jX2 2 f g uXuXuXuXuXuXuXuXuXuXuXuXuXuXuXuXuX= - = > * - * uXuX* - % = ",
"uXuX3 i 3 i uXuX3 uXuXuXuXuX< = vXbX^ ^ mXvXuXuXbX^ vX6XR.E.2 2 B.3 < < & < < < u g B.4 a g R.B R.uXuXuXuXuXuXuXuXuXuXuXuXuX= uXuX= - - uXuXuX= uXuXuX% % % ",
"i 3 i 0 > 5 uXuXi uXuXuXuXuXuXuXuXuXuXbXvXiXuXuXuXbX6X6XR.B B.B.< < O o = < B.5 g 5 2 < a g R.R.uXuXuXuXuXuXuXuXuXuXuXuXuXuXuXuX> - * > = > = uXuXuX% % uXuX",
"uXuXuXuXuXuXuXuXuXuXuXuXuXuX< o E.vXvXvXvX^ ^ ^ vXmXuXuXuXuXjX< = O O O N.= < jXB.5 B.FXFXs s s uXuXuXuXuXuXuXuXuXuXuXuXuXuXuXuXuXuXuXuXuXuXuXuXuX- uXuX% % ",
"3 > 3 i > 3 uXuXuXuXuXuXuXuXuX& HXHXvX^ uXuXuXuXuXuXs s B.N., < uXuXuXuXO O < B.< < N.N.s FXuXuXuXuXuXuXuXuXuXuXuXuXuXuXuXuXuXuXuXuXuXuXuXuXuXuX* uXuXuX% % ",
"uXuXuXuXuXuXuXuXuXuX> uXuXuX= & uXuXi E.E.vXuXuXvXE.N.N., & O O O % X X O O & & O = N.N.FXFXs s uXuXuXuXuXuXuXuXuXuXuXuXuXuXuXuXuXuXuXuXuXuXuXuXuX* * - % % ",
"uXuXuXuXuXuXuXuXuXuXu uXuXuX%   $ FXE.E.HXvXvX5XE.a N.O o N.X X X X X 4XX   % & X O O N.N.N.N.5 uXuXuXuXuXuXuXuXuXuXuXuXuXuXuXuXuXuXuXuXuXuXuXuXuX= % % % - ",
"uXuXuXuXuXuXuXuX> uXuXuXi 3 %   pXO $ O O O O O 3 , O % & % X p 4X% 4XX + + + uXuX* % O O o , B.uXuXuXuXuXuXuXuXuXuXuXuXuXuXuXuXuXuXuXuXuXuXuXuXuX* % % = * ",
"uXuXuX3 > > 3 i uXuXuXuXuXuX* X O $ O $ = O O % O o % O % X 4X% % X % p + + + +   . X X o X o < uXuXuXuXuXuXuXuXuXuXuXuXuXuXuXuXuXuXuXuXuXuXuXuXuXuX% - % uX",
"uXuXuXi i 3 > > i > > uXuXuX= & uXuXuXuXpX4X% = uXuX* % uXuX% % > > > > 1 & - 4X% X   X .   % = uXuXuXuXuXuXuXuXuXuXuXuXuX* - - uXuXuXuXuXuXuXuXuX* - = % = ",
"uXuXuXuXuXuXuXuXuXuXuXuXuXuXuX= * * X $ X X   X X & 4X% ; - * 4X> > > > 0 3 = 4X= % 4X4X4X  . X uXuXuXuXuXuXuXuXuXuXuX> : : : * * uXuXuXuXuXuXuXuX* - % * % ",
"> > > > > > > 3 > > > > > > > > = = > * X X % % * - i 3 = > > > > > > > > > - = = -   uXuXX p % 4X% p + + + + + + + = - uXuXuXuX* uXuXuXuXuXuXuXuXuXuXuXuXuX",
"uXuXuXuXuXuXuXuXuXuXuXuXuXuXuXuXuX* > > = uXuX* > > 3 i > > > > > > > > > > = = - = %   4X4XuXuXuX4X  4X4X  4X+ + uXuX= = - * * - uXuXuXuXuXuXuXuXuXuXuXuXuX",
"uXuXuXuXuXuXuXuXuXuXuXuXuXuXuXuXuXuX> : > > > > > uXuXuXuX> > > > > > > > > > > - = * + p 4X4X4X+ 4X  4X4X4X    % * > - - = - - uXuXuXuXuXuXuXuXuXuXuXuXuXuX",
"uXuXuXuXuXuXuXuXuXuXuXuXuXuXuXuXuXuXuX> > > > > 3 > > > i uXuXuXuXuXuXuXuXuXuXuXuXuXuX* % % % % % - + uXuXuXuX- - * > * - * = * uXuXuXuXuXuXuXuXuXuXuXuXuXuX",
"uXuXuXuXuXuXuXuXuXuXuXuXuXuXuXuXuXuXuXuXuXuXuX> > > 3 uXuXi 3 > > > > > > > > = > > > > > > > > = - & > uXuXuX> uXuXuXuXuXuX: * uXuXuXuXuXuXuXuXuXuXuXuXuXuX",
"uXuXuXuXuXuXuXuXuXuXuXuXuXuXuXuXuXuXuXuXuXuXuXi i > > uXuXuXuXuXuXuXuXuXuXuXuXuXuXuXuXuXuXuXuXuX- > > > > > > & > > > > : = * * uXuXuXuXuXuXuXuXuXuXuXuXuXuX"
};
