/* XPM */
static char *_a20353eb8434bd2f1c2a8740e7404e78vAgghH6n4FzEMlb_16[] = {
/* columns rows colors chars-per-pixel */
"78 86 256 2 ",
"   c #221D1D",
".  c #271D1A",
"X  c #24221D",
"o  c #2B231D",
"O  c #2A291D",
"+  c #231E21",
"@  c #291D28",
"#  c #321B36",
"$  c #1B2C29",
"%  c #252425",
"&  c #2A2524",
"*  c #252926",
"=  c #2A2925",
"-  c #262529",
";  c #2A262B",
":  c #26292A",
">  c #2B2A2B",
",  c #332523",
"<  c #342A24",
"1  c #33252C",
"2  c #3B242C",
"3  c #322A2D",
"4  c #3B2B2B",
"5  c #3B312A",
"6  c #2C2532",
"7  c #2D2A32",
"8  c #2B2638",
"9  c #322634",
"0  c #332A34",
"q  c #3B2B34",
"w  c #34253B",
"e  c #3A253C",
"r  c #352B3A",
"t  c #3A2B3C",
"y  c #3C2433",
"u  c #383138",
"i  c #283332",
"p  c #1D1F20",
"a  c #432B2A",
"s  c #46352B",
"d  c #442A3B",
"f  c #462837",
"g  c #493735",
"h  c #522E37",
"j  c #381C4A",
"k  c #3B2543",
"l  c #3C2B43",
"z  c #392747",
"x  c #3C2653",
"c  c #342E47",
"v  c #4A1C52",
"b  c #432B44",
"n  c #43254C",
"m  c #432B4B",
"M  c #492947",
"N  c #542A48",
"B  c #573748",
"V  c #452B53",
"C  c #4B2C54",
"Z  c #4C2B5B",
"A  c #532C5C",
"S  c #552857",
"D  c #4A3256",
"F  c #573358",
"G  c #653857",
"H  c #692E54",
"J  c #4B2865",
"K  c #542B63",
"L  c #5B2C6C",
"P  c #572768",
"I  c #583367",
"U  c #5A2976",
"Y  c #5B3375",
"T  c #4C306C",
"R  c #652969",
"E  c #663569",
"W  c #632C7C",
"Q  c #662A78",
"!  c #752A79",
"~  c #763679",
"^  c #6A5446",
"/  c #694657",
"(  c #764A6B",
")  c #5B2C85",
"_  c #6B2C84",
"`  c #662886",
"'  c #752B8A",
"]  c #6A3387",
"[  c #763489",
"{  c #6C2A94",
"}  c #742C9B",
"|  c #7B2C9C",
" . c #792897",
".. c #6B3395",
"X. c #7C2CA3",
"o. c #7929A7",
"O. c #772CB0",
"+. c #6D1D92",
"@. c #863789",
"#. c #842B9A",
"$. c #863599",
"%. c #8F2D8C",
"&. c #832CA4",
"*. c #832CAB",
"=. c #892BA9",
"-. c #952AA9",
";. c #8C33AB",
":. c #8836A8",
">. c #9638AA",
",. c #882CB5",
"<. c #952DB7",
"1. c #8C32B3",
"2. c #9737B7",
"3. c #A639A8",
"4. c #A53AB9",
"5. c #B12FB3",
"6. c #924892",
"7. c #AA4E99",
"8. c #9B44B6",
"9. c #8D49AB",
"0. c #A646B7",
"q. c #B74BB7",
"w. c #B453BC",
"e. c #B965B8",
"r. c #C64BB8",
"t. c #CF53B4",
"y. c #C665B9",
"u. c #CD6FB4",
"i. c #DA5BB3",
"p. c #A539C5",
"a. c #B453C3",
"s. c #BC54C4",
"d. c #BB57C8",
"f. c #BB67C5",
"g. c #C857D4",
"h. c #C865C6",
"j. c #D370CD",
"k. c #ED4FE8",
"l. c #CD8BB8",
"z. c #E991D2",
"x. c #D2AFCF",
"c. c #E5B8C9",
"v. c #F9A8E7",
"b. c #EEB0EC",
"n. c #EBCBD4",
"m. c #774A57",
"M. c #774590",
"N. c #35281D",
"B. c #3B2C24",
"V. c #74554A",
"C. c #A83595",
"Z. c #CE37CD",
"A. c #D8B9C9",
"S. c #D9B9D5",
"D. c #E7A9D8",
"F. c #E6B7D7",
"G. c #785655",
"H. c #F392EC",
"J. c #753469",
"K. c #AA54A9",
"L. c #D44ED2",
"P. c #D1B6B7",
"I. c #C987C7",
"U. c #DAA3E3",
"Y. c #F8B6D8",
"T. c #D4C4CF",
"R. c #533B39",
"E. c #514334",
"W. c #473248",
"Q. c #472557",
"!. c #521C6A",
"~. c #673378",
"^. c #6C2B8B",
"/. c #732C94",
"(. c #783397",
"). c #7B33A5",
"_. c #963899",
"`. c #8332A4",
"'. c #8934B7",
"]. c #9945A8",
"[. c #A749AA",
"{. c #B54BAA",
"}. c #B656AA",
"|. c #AC4CB4",
" X c #AC4CBB",
".X c #B34DBC",
"XX c #AC53B7",
"oX c #B453B4",
"OX c #BB53BC",
"+X c #B958B7",
"@X c #C557BA",
"#X c #9935C4",
"$X c #AA46C4",
"%X c #B74AC6",
"&X c #B350CD",
"*X c #9C45C4",
"=X c #C64BC7",
"-X c #C354C4",
";X c #C355CB",
":X c #C45ACB",
">X c #C859C7",
",X c #E94FD2",
"<X c #E96ED3",
"1X c #D48ECF",
"2X c #FAB7E6",
"3X c #F6CDE9",
"4X c #1D1C1C",
"5X c #5B4546",
"6X c #684A46",
"7X c #5F4F64",
"8X c #ECDBE0",
"9X c #B234CA",
"0X c #F471EB",
"qX c #F3ACD1",
"wX c #6F4F50",
"eX c #884C72",
"rX c #B16899",
"tX c #B98DC9",
"yX c #BAC5B2",
"uX c #DFC4B5",
"iX c #68431E",
"pX c #1A1817",
"aX c #381C29",
"sX c None",
"dX c #D8C3C8",
"fX c #BAB0A7",
"gX c #D1C5B7",
"hX c #E839DD",
"jX c #3A2425",
"kX c #D657E4",
"lX c #8A3275",
"zX c #2F2B5C",
"xX c #B425CF",
"cX c #835558",
"vX c #594739",
"bX c #69503A",
"nX c #B46BAC",
"mX c #64493A",
"MX c #6B1B64",
"NX c #B88AB4",
"BX c #E3AAB7",
"VX c #4D1732",
"CX c #9B1998",
"ZX c #D658C7",
"AX c #534652",
"SX c #8E626C",
"DX c #922EC4",
"FX c #342F19",
"GX c #513398",
"HX c #37444E",
"JX c #971A60",
"KX c #611828",
"LX c #341419",
"PX c #B91242",
"IX c #170617",
"UX c black",
/* pixels */
"> > > = > > = > > > > > > > > > : 8 8 : 8 c D 7Xc 8 6 6 = > - ; ; 1 ; @ aX@ ; 1 3 ; 6 - - 8 - - - - % % % % - p - - @ $ p - - $ % % sXsXsXsXsXsXsXsXsXsXsXsX",
"sX> : > > > > : sXsXsXsXsXsX> > ; 8 7 7 t c D AXj 8 # 8 > > ; ; ; ; # ; & , ; ; ; @ 6 @ - sXsXsXsX- * % % % - - - - @ sXsXp - p - * sXsXsXsXsXsXsXsXsXsXsXsX",
"sXsXsXsXsXsXsXsXsX> > > > > * > : : 6 ; 6 6 w l 6 8 6 6 = - ; ; 1 ; 9 # 1 aX1 ; 6 - - 8 - 8 @ sXsX% - % % % % - - - - - % % % + sXsXsXsXsXsXsXsXsXsXsXsXsXsX",
"sX> > > > > > > sXsXsXsXsXsX= > > : 6 6 9 6 w # # 8 # 6 = > ; 3 ; 1 # ; 1 @ ; 9 6 + 8 - - - $ @ sXsXsXsXsXsX- - - p $ @ $ % % % sXsXsXsXsXsXsXsXsXsXsXsXsXsX",
"> > > > > > > > sXsXsXsXsXsXsX> ; > ; > 3 6 3 3 6 6 ; 9 - > ; > 3 ; 9 6 1 1 ; 1 ; 1 6 - - - - - * * - * sXsXsXsXsXsXsX+ - - @ p - sXsXsXsXsXsXsXsXsXsXsXsXsX",
"sXsXsXsXsXsXsXsXsXsXsXsXsXsXsXsX7 > ; > ; ; ; 9 6 6 9 6 > > > > ; 1 9 9 1 9 3 6 ; 6 6 - 8 8 - - - sXsXsXsXsXsXsX% % - - - - - - - - sXsXsXsXsXsXsXsXsXsXsXsX",
"sXsX= > > > = sXsXsXsXsXsXsX> = > & & > ; & 3 ; ; 1 ; ; > > 3 3 9 9 9 9 9 9 9 9 6 9 $ 8 @ - - - - - @ @ = % - - - - - - 8 @ - - - - sXsXsXsXsXsXsXsXsXsXsXsX",
"> > > : > > sXsXsXsXsXsXsXsXsX> > > & & ; ; & 3 3 ; 3 1 > > 3 7 0 9 y 9 # 9 y 1 6 6 - - - @ - @ % - - & - % ; & % - % @ @ @ - - - - sXsXsXsXsXsXsXsXsXsXsXsX",
"= > = = = > = > > = > * > : = * : = = & > > 3 > 3 & > > 7 7 0 r q y k n T I x j z w 6 ; ; ; 8 8 - @ @ 6 - 6 sXsX1 ; # & - @ ; ; @ % sXsXsXsXsXsXsXsXsXsXsXsX",
"sX= > > = = > > > = * * * = * = = = - = > , & 3 9 3 0 3 8 7 u u e d n n T T x j 8 w 7 ; 6 ; 8 @ 6 - 6 @ @ # @ - @ 6 ; ; @ ; @ - - sXsXsXsXsXsXsXsXsXsXsXsXsX",
"> > > > > > & > > = sXsXsXsXsXsX* = = > > > 3 3 0 3 r r l c c u Q.C U U ..) zXv k k 9 7 6 ; 8 8 - - # 6 # 8 8 # w 8 9 6 @ 9 - - % % sXsXsXsXsXsXsXsXsXsXsXsX",
"> & > & > > > > > > > > > > = sXsX= = > > > 7 0 0 0 r u c u c c Q.A W Q ..{ !.!.m n 0 0 6 - 8 j @ ; 6 # w 8 8 j 9 w # 9 9 @ sXsXsX- sXsXsXsXsXsXsXsXsXsXsXsX",
"sXsX> > - > > > > = > > > > = = > : > > 7 i 8 u t u t l c D x x !.P ^.^.).{ !.) m n 0 0 3 3 w 8 , , 9 # j 8 j j x x z z 9 9 ; @ ; - sXsXsXsXsXsXsXsXsXsXsXsX",
"sX& > & = > > & > > > > > > = > > > > > 0 0 u u t t t l x D AXx P L _ /.).).) U C V u q 3 3 w 9 1 3 9 9 zXj zXj T D z j 9 9 3 1 ; & sXsXsXsXsXsXsXsXsXsXsXsX",
"> > > > : > > > > > > > > > > = > 7 0 3 0 r u W.l b l W.zXD T T _ _  .#.;.1.^.` A N d u q q 9 9 a y w w j j T T Y Y x Q.w e 6 ; > sXsXsXsXsXsXsXsXsXsXsXsXsX",
"sX> > > > > = > > = > > > > = > 7 > 0 r r u l l W.c W.W.T T AXT ' '  .| 9.9.` { S C d d q t r r y 2 w w j zXT T Y Y Q.Q.w w 6 6 & sXsXsXsXsXsXsXsXsXsXsXsXsX",
"= - - > - = - - ; > : : > > 7 7 8 u r t t l W.C D D I T Y Y ` ] /.| 1.9.].8.' [ L L C m b d e t e w k z x v +.} #X#X^.^.k e 6 - > - = - = - sXsX* - - - sXsX",
"sXsX> - > > > > > : : > > 7 7 0 7 r c r l l m W.I I I I Y ] ..(.#.(.8.8.8.0.#.(.Q L S C b b d d t t l w !.J +.{ *X*X/.` e j 6 6 - > - > - = sXsX- sXsXsXsXsX",
"sXsX- sXsX= > = > > : > 7 7 9 0 r r l l M C K K Y L ~._ ....| | X.`.8.$X0.XX$.| ' _ Y L B m M b m l l z v J ` _ 9.9.] W j # : 8 > - * > - sXsXsXsXsXsX- % - ",
"> = > * > > > - > > 7 > 7 7 9 r r c W.W.D D K I Y Y _ ~.{ (.X.} &.&.$X$XXX$X#.(.[ ] ~.Y B C M W.m W.z l Q.P U ` 9.1.W Q j j 8 : - - - - - = sXsXsXsXsXsXsX- ",
"= > = : = = > * ; > 9 9 0 0 3 3 u l V W.Z A R ~.] ] (./.X.*.*.,.1.=.$X$X0.$X(.#.).} .._ L I C S C C M n V V J P ~ ~.Q.S 6 w 8 8 : - > > - = sXsXsXsX+ - % % ",
"> = > = > = = > > ; 7 7 9 u 3 u u c W.W.A I ~.~.] (.(.(.&.&.1.2.2.;.&X&Xa.$X$.:.).} ..] I I F F Q.S m b x n Q.Q.I L v Q.w # @ 8 - ; - - - - sXsX* - - % % - ",
"> : sXsX> > > > > > 9 7 r r u f W.W.D Z U Y ] ..| (.).'.1.*.,.'.1.,.&X$X$X2.#.:.*.).(.{ ~.W E I R S C C l l m n m F # n # 6 8 - ; ; - - * sXsXsXsXsX* % % + ",
"> > > > > > > > > > 9 9 w t q u W.W.F F ` ] (.[ (.).O.*.'.'.2.'.1.,.&X$X8.$X| 2.`.).).).] ] E I R R C N l l m z n M e m 6 # 6 8 ; ; > - = - sXsXsXsX- - % - ",
"> > > > > > > > > > 0 0 w l x m W.F I E ] (.} (.).).'.'.'.DX2.2.<.1.$X$X2.4.=.2.1.:.O.*.).} _ _ Q R K Z W.l f e k k w e 9 6 ; 6 > - - = - - - - - sXsX- - % ",
"> > > i > = > > = 3 0 0 t t b V W.D I Y _ ..).).*.:.'.DX'.<.'.2.2.2.$X$X>.2.;.1.1.1.1.O.).)...^.Q Q I J l l q q k k w w 6 6 : ; ; - - - - = sXsX= - % % % - ",
"> > > > < i > > > > 0 0 t b V Z F F ~.~.} ).'.'.'.sXsXsX'.DXDX#X2.2. X0.0.0.2.2.1.'.'.'.O.X.} } ~ W Y P D x b t e k 9 w 6 : ; - - - - = - - sXsXsXsX% - ; % ",
"> > > > i > > > > 3 q r l W.V D I G ] [ ).).:.'.DX'.DXDXDX#X*X#X4.2.$X$X$X$X2.2.<.'.'.'.1.O.| } _ ! Y Y D V d t k r r 9 6 8 : - - - - - = - sXsXsXsX- = - % ",
"= > = > = i > > 3 3 0 r b b D Z ~.Y [ (.*.'.'.<.DX'.DXDXp.&Xp.p.0.p.d.s.$X0.2.2.<.DXDXDX,.,.o.o.} /.` U T Z V x k k w w 6 ; ; ; ; > - * - - sXsXsXsX- = % % ",
"i < = i = = > > > 3 q r b b Z D ~.~.[ (.*.2.2.'.DX#XDX#X9X&X&X*X0.&Xg.d.$Xa.4.#X<.#XDXDX,.,.*.o.| | ] ` I I D V b e w 9 6 ; - : - - - - = sXsXsXsXsX- sXsX% ",
"> > > 5 > > > > 7 3 r t m m Z T ] [ | `.;.2.-.2.8.*X$Xp.&X&X&X&X%X;Xg.;Xs.;X$Xp.DXDXDXDXDX,.,.*.`.X.{ { Y Y I Q.b e z w 6 6 ; : > ; - * - - * = sXsX- - % sX",
"sXsXsXsXsXsXi < 7 0 e t m b Z Z ] ^.).`.1.<.<.2.2.$X&X$Xp.&XkXkXg.;X;X;Xg.;X$Xp.p.DXDXDXDXDX,.'.&.&.../.Y Y K S n k w w 9 6 : : - - - - - = - = sXsX- % - sX",
"sXsXsXsXsXsX6 7 0 9 t l m W.Z A ^.^.O.:.<.2.p.2.p.&X&Xg.h.g.f.y.<X1Xs.@Xh.j.=XL..X3.#X2.2.<.<.'.DXDXO.} W W L K n M k e 6 9 ; ; ; ; > - = - - & * % % % - - ",
"sXsXsXsXsXsX7 7 7 9 l l V D A I ^.^.*.*.,.<.p.p.p.*Xg.g.d.:Xh.@X1X0X@Xd.ZXg.kX&Xq.|.$X2.2.'.'.,.O.,.O.} ] ` L K M M e k 9 6 ; 6 ; ; : * = * = * % = & & = = ",
"sXsXsXsXsXsX7 9 9 r l l m C L E (.(.O.1.,.<.$Xp.&Xg.d.d.f.+Xl.1X1XtX&Xe.OXZXg.L.;X%X$X0.2.1.1.2.*.,.O.o.[ _ Y L A Q.k k 9 9 6 ; > ; - = * & & O = = ; - & > ",
"sXsXsXsXsXsXsX7 r r l W.V Z L E (.(.'.,.<.<.p.$Xg.&Xd.a.e.e.1X1XU.U.a.f.-X>X;X;X:X;X%X%X0.4.2.2.'.1.o.o.^.' U L A Z m k r 9 ; 6 ; - > - - % % & % = & - - & ",
"> > > > > > 9 7 r r m b V D R ~.).X.;.=.=.2.p.%X&Xa.e.XXu.1Xx.x.U.U.1X1X@X@X>X@X-X;Xd.%X$Xp.2.2.:.*.`.X.(...) ` U T J x 9 r > > 7 ; - * & * & & sXsX> = = sX",
"sXsXsXsXsXsX7 9 9 r z m V D Q ~.).(.;.,.,.2.p.p.&X&Xf.w.1XD.F.D.b.b.1X1Xy.OX@X-X-X-X&X%X$X$X$X2.1.=.X.`.(.....] Y T Q.x l 8 > 3 ; > > = * & & % & sXsX& - % ",
"> > > > > > 3 0 r u V m Z I Q _ o.} ;.1.1.<.2.2.$X*Xe.|.tXI.S.U.U.b.U.H.y.+X@X@X@Xs.;X%X9X$X$X4.;.:.&.#.#.(.(.] ) U J J l r 9 9 7 > > - = * % & = & & - & sX",
"sXsXsXsXsXsX0 0 c u V V Z Z ~.[ X.X.=.1.;.2.>.<.$X$Xf.e.1X1XS.S.U.b.v.2Xh.y.@Xy.-X-Xg.&X$Xp.4.2.;.;.=.`.(.`.....] ) J J l l r 0 0 > & & - % = & % % - & - & ",
"> > > > i > 3 u u l D x T I ....' #.#.#.=.'.2.2.2.p.a.0.h.f.H.1Xb.b.1XI.f.-Xg.g.g.kX&X&X$Xp.1.=.=.;.>.].>.$.|  .` _ J !.z x r r w w 6 # ; ; & % & & % & = % ",
"> > < > < 3 0 5 u l Z D Y I ..(.$.#.;.;.2.8.#X#X2.4.0.0.f.a.1X1XU.b.z.1X-X+X:Xg.g.&X&X&X$Xp.<.2.>.;.>.2.].>.$.(.` _ P P z n w l e w 9 6 ; - ; & O & % - - * ",
"= > > > > u 5 u u b T x W Y ).)._.>.[.0.8.XX$X8.5.<.3.<.8.8.f.&Xl.1XnXe.d.h.g.kXg.L.g.9X4.p.2.0.0. X Xw. X X].].].@.] [ K I V x w w w 6 6 6 @ ; & & % = = - ",
"> > < > > > 0 5 l l T J ~.Y ).:.].[. X Xa.a.$X$X4.4.4.4.$X Xf.d.I.I.nXu.@X@Xg.g.=Xq.$X9X2.2.$X$X$Xa.XX X X X|.XX$.(.W ~.Z Q.j z w w 9 9 ; ; ; % % & = % * * ",
"< > = i i 3 u 5 t b T x ] ..9.9.3.{.{.}.XXw.a.d.r.=X5.5.&X9X&X&XnXnXl.nXh.j.kXZXq.q.:Xg.:X&X%Xa.|.XX|.[.[.[.K.|.XX[._.@.W ! U !.w e r 6 9 ; ; & O & % % = - ",
"i > = < 3 3 5 u l t Z Z ..M.'.*X{.oXOXq.w.+Xa.+XL.=X=Xq.&Xp.g.&XrXrXI.l.y.>XL.g.q.r.>Xg.d.g.d.d.w.w.w.oXq.XX|.[.[.K.@.@.W Q !.v l r r 6 ; 9 ; ; & sXsX& - * ",
"< i > > > 3 3 u b b I J (.(.*X*XoXK.+X}.OXOXw.w.{.t.t.t.g.g.0XU.F.qX3X2Xj.j.j.ZXoX@XOXs.:X-X-X-Xw.w.XXXX[.K.[.[.[.[.].].@.[ ` U r k w 9 9 ; ; & & O * & = - ",
"= * < > > > u 5 l l K J (.M.*X$X{.|.}.{.+XoXq.w.r.t.r.r.=X=X0X0XqXx.2X3Xz.z.L.:Xh.h.h.h.:X;X-X:XOXw.+X+XoXXX7.[.[.[.K.].$.(.` W k e e 9 9 ; & - & & % * - = ",
"i > i = i 5 3 5 t l I A (.(.$X&X[.{.q.s.q.q.r.>Xk.k.k.k.1X1XyXyXT.x.sXsXx.yXx.fXe.f.f.f.w.w.OX-X%XOX X XXX].6.].7.[.7.K.9.$.W Q M l l w 9 6 ; ; & & > = = - ",
"> > i = > > 3 3 b l P Q./.(.*X&X|.{.w.OXq.@X>X>Xk.k.L.,X1Xz.x.T.sXsX3X8XS.x.x.x.f.f.a.f.|.w.@Xr.%Xs..X.XK.[.[.6.].].6.].9.#.! Q W.l r w 6 6 & ; - > * * - - ",
"> i = > > > 3 u b sXsXQ.sXsX*X*X}.K.{.{.r.@Xt.ZX,Xk.k.0Xv.v.8Xn.sXsX8X3XA.A.A.fX1XI.K.e.q.OX@Xq.%X=X.X$XK.].7.6.[.].].XX=.;.' +.l x l 9 9 ; & 3 & & - = - = ",
": > > sXsXsX3 3 d q S N ] ..'.DX}.{.[.{.{.@Xi.ZX,X,X0Xk.2XY.n.8XT.T.n.sXsXsXdXx.1X1XXXoXq.q.q.r.q.q..X.XK.[.[.7.].K.].].<.;.' ' b k w z 6 6 ; ; - % * - - % ",
"> i > > = i i 4 g f D A M.] 9.o.[.[.3.sXsXr.ZXsXsXi.<X<XqXv.uX8X3X8X8Xn.A.P.sXsXv.v.<X<XZX<Xi.i.t.r.{.{.{.{.K.[.8.|.>.8.;.*.+.| l z w 9 7 6 ; sXsX= * - - = ",
": > i * i = > u u q F D ] ] o.X._.3.3.{.r.q.r.ZXZX,X<X<Xv.2XuXuX3X8Xn.S.x.A.x.A.z.Y.H.<X,X,Xi.i.ZXt.@Xr.[.[.[.[.K.].8.0.&.=.+. .l z w 8 6 6 - : = = * - - - ",
"i i : i = > 5 u t q D b Y T (.(.-.>.4.%X9X%X%Xg.{.@Xj.I.c.c.fXyXn.dXS.S.A.S.S.c.qXY.<X<Xi.,Xi.i.i.i.@X{.[.[.7.[.].[.>.>.).X.U Q z 9 w 8 : : : ; - - = = = - ",
": : i * > i > u u q m z J J (.(.#.-.<.3.%Xp.%X%Xq.r.I.1Xc.c.fXsXsXsXS.S.S.A.S.c.qXY.0Xz.i.i.i.i.ZXt.+X{.{.[.3._.[.6.$.>.).| !.!.c w 8 8 : 8 6 : > * - * - - ",
": : i : i > > i 0 0 l l x D D T ........(.' _.2.K.K.K.K.e.I.U.b.v.v.S.F.T.F.v.b.<X<Xj.ZXi.,Xt.ZXsXsX}.{.{.3.].>.@.[ _ ~.R R Q.Q.c r 6 6 8 : - : * - - sXsXsX",
"i i : : i > i > 7 0 u c V V D T ) ..M.M.@.$.-.>.].].nXK.l.I.1Xb.sXsXS.F.F.S.U.v.H.1Xi.j.ZXi.r.t.7.sXsX}.[.{.6.6.[ ' W R P !.n v w 8 6 6 6 : ; : - - % * sXsX",
"sXi : i > : > > 7 u r c u HXV D A D A A R Q ' ' {.{.L.=XkX,X,XkXH.H.2X2X3X2Xz.0X<XZXr.ZXt.t.t.{.C.6._.@.@.(.[ ~.L Y A C b n r r 7 6 6 6 8 8 - ; - - - sXsXsX",
": : : i : i > i i 8 8 r c c x W.D C P I R ~ @.#.r.=XL.>X,XkX,XZ.0XH.3X2XY.Y.z.z.j.ZXt.t.r.{.sXsX%.%.[ lX[ [ _ W L P C C n k 9 9 6 6 sXsXsX- - - - : * sXsXsX",
"i > i : > i > > 7 i 0 0 r sXsXb f d SXSX6.eXeXlX%.%.C.C.t.ZXZXt.ZX=Xu.u.nXu.nXh.}.{.7.[.@.@.lX~ ~ ~.L L L L P J Q.V b t r 0 > > 6 ; > ; - - - - - - - % sXsX",
": i : i i i > > 7 7 7 r r r d t q y ( ( SXeX@.6.C._.3.C.>Xu.=Xr.>Xt.l.j.u.l.K.XX}.{.3.C.@._.~ ~ E R U P !.!.J J V n e e y 9 > > 6 6 ; ; - - - = % * ; $ sXsX",
"> i i > > > > i 7 7 7 i 7 0 u 0 4 s ( ( eXm.m.eXSXeX( J.( M.M.( 6.eX6.%.@.lXlXcXlX! ! ~ E E F S F C M m N M d b r r 3 3 < 3 3 > 3 & & - - > * - - $ - sXsXsX",
"> > > > > i > > 7 i 3 i 7 7 0 3 g g ( ( J.( ( eXSXSXcX( M.( ( ( 7.7.7._.lXlXlXH J.J.MX! H R F S C S m N M n b d t y 3 3 > = > > ; ; - % - = - - - % - - sXsX",
"sXi > i > i > > > > > > 0 > > > sXsXV.sXsXsXG.cXSXcXm.wXB m./ m.( ( ( / G G G F G G B F B B M f N h a f f f q y q 0 > 3 7 6 > > ; - - - > = * * sXsXsXsXsX- ",
"sXsX> 3 > > i < sXsXi > 0 i = > sXsX^ sXsXsXsXm.sXsXsXsXG wX/ / / / H H N S F B F F B W.M N W.M d M f f a f y 9 4 9 3 ; > 6 ; ; ; - - - - > sXsXsXsXsXsX* = ",
"> 3 > i > 3 sXsX> > > > > > > * sXsXsXsXsXsXsXsXbXm.6XG./ 6XF B F B B B N M N N W.M f f y f sXsXsXsXB R.f 4 3 , sXsXsXsXsX: : > > sXsXsXsXsX- sXsX* % - * * ",
"i 3 > > > i sXsX> sXsXsXsXsX> = sXsXsXsXsXsXsXsXsXV.V.m.AX/ h N B h N M N h h W.h M d f f f f M B B 6XB g g 1 @ sXsX& > : > : : sXsXsXsXsXsX- % sXsXsX* - sX",
"sX> 3 i i < sXsX> sXsXsXsXsX- = sXsXsXsXsXsXsXsXsXsXV.cX6X6Xh f d g d f f d f f a y f f a a h h h h s R.E.R.u < sXsX> > > > : > sXsXsXsXsXsX= - sXsXsXsXsXsX",
"3 < i > 3 i sXsXsXsXsXsXsXsX> - sXsXsXsXsXsXsXsXsXV.V.cXB sXsXf d f d d f q 2 2 a sXsX2 y a g h h a a s R.g g 5 sXsXsX3 > : > - sXsXsXsXsXsXsX= - sXsXsX* - ",
"> i 3 > sXsXsXsX> sXsXsXsXsX3 sXsXsXsXsXsXsXsXsX6XbXG bXvXR.4 a 5 5 4 2 < 3 3 4 g g a f f h R.R.R.R.s s s s 5 s o & - = > : > = sXsXsXsXsXsX* sXsXsX* % % % ",
"3 3 > 3 i > sXsX3 sXsXsXsXsX& sXsXsXsXsXsXmXmXmXbX6XmXsXsXsXs 4 < 2 3 < < 3 4 s g d a a a h R.R.s R.E.s 5 B.5 sXsX, > > > > > - sXsXsXsXsXsXsXsX* sXsXsXsXsX",
"sXsXsXsXsXsXsXsXsX> > > > > 3 o vXvXvXvX^ ^ ^ V.mXsXsXsXsX4 < 5 B.= O O O < jXjXjX3 B.N.N.s s R.FXa s iXg E.5 5 & o & , = = % sXsXsXsXsXsXsX= - = sXsXsX= - ",
"sXsXsXsXsXsXsXsXsXsX= i > > & sXsXsXsXsXsXsXsXsXmXR.E.sXsXjXN.sXsXsXsXsXsXsXsX< sXsXsX< a s s s s s s a E.sXsXsX= O 1 & - = = % sXsXsXsXsXsXsX* sXsXsX* * * ",
"sXsXsXsXsXsXsXsXsX> > > > > * X O FX5 5XE.5XvXvXmXg a N.< < = O O & sXsXsXsXsX= = = = < FX5 5 s s s s R.s s sXsX& , > = = * * = sXsXsXsXsXsX- sXsXsXsXsXsXsX",
"sXsXsXsXsXsXsXsXsXsX> > > = % X O i g E.5XvX5XbXsXsXsXsXsXsXsXsXsXsXsXsXsXsXsXsX= = N.= O N.< B.s g s s sXsXsXsXsX& & = = - = = sXsXsXsXsXsXsX* sXsXsXsXsXsX",
"sXsXsXsXsXsXsXsXsXi > > sXsX* sXsXX O * o o o o sXsXsXsXsXsXsXsXsXsXsXsXsXsX@ + & % % & & & , < s 5 g s 3 , & . o X = = * sXsX* sXsXsXsXsXsXsX- sXsXsXsXsXsX",
"sXsXsXsXsXsXsXsX> 3 > > sXsXsXsX$ O = = & O o o sXsXsXsXsXsXsXsXX % sXsXsXsXsXsXX % % & X . sXsX< u 4 4 3 & & % . X & % * * = - sXsXsXsXsXsXsX* sXsXsXsXsXsX",
"sXsXsXsXsXsXsXsX> > > > > sXsX=   pXp 4X4X  . %   + % sXsXsX+ sXsXsXsXsXsXsX+ + sXsXsXsX+ + + = > sXsXsXsXsX& + 4X  = = * * = * sXsXsXsXsXsX- * sXsXsXsXsXsX",
"sXsXsXsXsXsXsXsX> > > > > > sXsXO % * % X     .     p p : + % sXsXsXsX7 sXsX%   % sXsXsX+ . - - & = @ & sXsXsX. % % * % - * * sXsXsXsXsXsXsX= sXsXsXsXsXsX- ",
"sXsXsXsXsXsXsXsXsXsXsXsXsXsXsXsXsXsXsX> O sXsXsX& > 0 u * > > i > > > > > > > > sXsX+ 4X4X% + % p +   p +   + 4X+   sXsXsXsXsXsXsXsXsXsXsXsXsXsXsXsXsXsXsXsX",
"sXsXsXsXsXsXsXsXsXsXsXsXsXsXsXsXsXsXsXsX% = * - sXsXsX> : > > > > > > > > > > > sXsX* sXsXsXp   4X4X4X4X4X4XsXsX  sXsXsXsXsXsX& sXsXsXsXsXsXsXsXsXsXsXsXsXsX",
"sXsXsXsXsXsXsXsXsXsXsXsXsXsXsXsXsXsXsXsXsXsXsXsX3 sXsXsXsXsXsXsXsXsXsXsXsXsXsXsX> sXsXsX% 4X4X4X4X4X4X4X4X4X+ sXsX% - % * * % % sXsXsXsXsXsXsXsXsXsXsXsXsXsX",
"sXsXsXsXsXsXsXsXsXsXsXsXsXsXsXsXsXsXsXsXsXsXsXsX> sXsXsXsXsXsXsXsXsXsXsXsXsXsXsXsXsX> sXsXX % % + sXsX+ + + + - % % = - * - - % sXsXsXsXsXsXsXsXsXsXsXsXsXsX",
"sXsXsXsXsXsXsXsXsXsXsXsXsXsXsXsXsXsXsXsXsXsXsXsXsXsXsXsXsXsXsXsXsXsXsXsXsXsXsXsXsXsXsXsXsX* * - = = % - = * % & * = - * : * * % sXsXsXsXsXsXsXsXsXsXsXsXsXsX",
"sXsXsXsXsXsXsXsXsXsXsXsXsXsXsXsXsXsXsXsXsXsXsXsXsXsXsXsXsXsXsXsX3 sXsXsXsXsXsXsXsXsXsXsXsXsXsXsXsXsXsX& > - & > > : > > = sXsX- sXsXsXsXsXsXsXsXsXsXsXsXsXsX"
};
