/* XPM */
static char *_a20353eb8434bd2f1c2a8740e7404e78vAgghH6n4FzEMlb_17[] = {
/* columns rows colors chars-per-pixel */
"78 86 256 2 ",
"   c #221D1D",
".  c #271D1A",
"X  c #24221D",
"o  c #2B231D",
"O  c #2A291D",
"+  c #231E21",
"@  c #291D28",
"#  c #321B36",
"$  c #1B2C29",
"%  c #252425",
"&  c #2A2524",
"*  c #252926",
"=  c #2A2925",
"-  c #262529",
";  c #2A262B",
":  c #26292A",
">  c #2B2A2B",
",  c #332523",
"<  c #342A24",
"1  c #33252C",
"2  c #3B242C",
"3  c #322A2D",
"4  c #3B2B2B",
"5  c #3B312A",
"6  c #2C2532",
"7  c #2D2A32",
"8  c #2B2638",
"9  c #322634",
"0  c #332A34",
"q  c #3B2B34",
"w  c #34253B",
"e  c #3A253C",
"r  c #352B3A",
"t  c #3A2B3C",
"y  c #3C2433",
"u  c #383138",
"i  c #283332",
"p  c #1D1F20",
"a  c #432B2A",
"s  c #46352B",
"d  c #442A3B",
"f  c #462837",
"g  c #493735",
"h  c #522E37",
"j  c #381C4A",
"k  c #3B2543",
"l  c #3C2B43",
"z  c #392747",
"x  c #3C2653",
"c  c #342E47",
"v  c #4A1C52",
"b  c #432B44",
"n  c #43254C",
"m  c #432B4B",
"M  c #492947",
"N  c #542A48",
"B  c #573748",
"V  c #452B53",
"C  c #4B2C54",
"Z  c #4C2B5B",
"A  c #532C5C",
"S  c #552857",
"D  c #4A3256",
"F  c #573358",
"G  c #653857",
"H  c #692E54",
"J  c #4B2865",
"K  c #542B63",
"L  c #5B2C6C",
"P  c #572768",
"I  c #583367",
"U  c #5A2976",
"Y  c #5B3375",
"T  c #4C306C",
"R  c #652969",
"E  c #663569",
"W  c #632C7C",
"Q  c #662A78",
"!  c #752A79",
"~  c #763679",
"^  c #6A5446",
"/  c #694657",
"(  c #764A6B",
")  c #5B2C85",
"_  c #6B2C84",
"`  c #662886",
"'  c #752B8A",
"]  c #6A3387",
"[  c #763489",
"{  c #6C2A94",
"}  c #742C9B",
"|  c #7B2C9C",
" . c #792897",
".. c #6B3395",
"X. c #7C2CA3",
"o. c #7929A7",
"O. c #772CB0",
"+. c #6D1D92",
"@. c #863789",
"#. c #842B9A",
"$. c #863599",
"%. c #8F2D8C",
"&. c #832CA4",
"*. c #832CAB",
"=. c #892BA9",
"-. c #952AA9",
";. c #8C33AB",
":. c #8836A8",
">. c #9638AA",
",. c #882CB5",
"<. c #952DB7",
"1. c #8C32B3",
"2. c #9737B7",
"3. c #A639A8",
"4. c #A53AB9",
"5. c #B12FB3",
"6. c #924892",
"7. c #AA4E99",
"8. c #9B44B6",
"9. c #8D49AB",
"0. c #A646B7",
"q. c #B74BB7",
"w. c #B453BC",
"e. c #B965B8",
"r. c #C64BB8",
"t. c #CF53B4",
"y. c #C665B9",
"u. c #CD6FB4",
"i. c #DA5BB3",
"p. c #A539C5",
"a. c #B453C3",
"s. c #BC54C4",
"d. c #BB57C8",
"f. c #BB67C5",
"g. c #C857D4",
"h. c #C865C6",
"j. c #D370CD",
"k. c #ED4FE8",
"l. c #CD8BB8",
"z. c #E991D2",
"x. c #D2AFCF",
"c. c #E5B8C9",
"v. c #F9A8E7",
"b. c #EEB0EC",
"n. c #EBCBD4",
"m. c #774A57",
"M. c #774590",
"N. c #35281D",
"B. c #3B2C24",
"V. c #74554A",
"C. c None",
"Z. c #CE37CD",
"A. c #D8B9C9",
"S. c #D9B9D5",
"D. c #E7A9D8",
"F. c #E6B7D7",
"G. c #785655",
"H. c #F392EC",
"J. c #753469",
"K. c #AA54A9",
"L. c #D44ED2",
"P. c #D1B6B7",
"I. c #C987C7",
"U. c #DAA3E3",
"Y. c #F8B6D8",
"T. c #D4C4CF",
"R. c #533B39",
"E. c #514334",
"W. c #473248",
"Q. c #472557",
"!. c #521C6A",
"~. c #673378",
"^. c #6C2B8B",
"/. c #732C94",
"(. c #783397",
"). c #7B33A5",
"_. c #963899",
"`. c #8332A4",
"'. c #8934B7",
"]. c #9945A8",
"[. c #A749AA",
"{. c #B54BAA",
"}. c #B656AA",
"|. c #AC4CB4",
" X c #AC4CBB",
".X c #B34DBC",
"XX c #AC53B7",
"oX c #B453B4",
"OX c #BB53BC",
"+X c #B958B7",
"@X c #C557BA",
"#X c #9935C4",
"$X c #AA46C4",
"%X c #B74AC6",
"&X c #B350CD",
"*X c #9C45C4",
"=X c #C64BC7",
"-X c #C354C4",
";X c #C355CB",
":X c #C45ACB",
">X c #C859C7",
",X c #E94FD2",
"<X c #E96ED3",
"1X c #D48ECF",
"2X c #FAB7E6",
"3X c #F6CDE9",
"4X c #1D1C1C",
"5X c #5B4546",
"6X c #684A46",
"7X c #5F4F64",
"8X c #ECDBE0",
"9X c #B234CA",
"0X c #F471EB",
"qX c #F3ACD1",
"wX c #6F4F50",
"eX c #884C72",
"rX c #B16899",
"tX c #B98DC9",
"yX c #BAC5B2",
"uX c #DFC4B5",
"iX c #68431E",
"pX c #1A1817",
"aX c #381C29",
"sX c #CE28AC",
"dX c #D8C3C8",
"fX c #BAB0A7",
"gX c #D1C5B7",
"hX c #E839DD",
"jX c #3A2425",
"kX c #D657E4",
"lX c #8A3275",
"zX c #2F2B5C",
"xX c #B425CF",
"cX c #835558",
"vX c #594739",
"bX c #69503A",
"nX c #B46BAC",
"mX c #64493A",
"MX c #6B1B64",
"NX c #B88AB4",
"BX c #E3AAB7",
"VX c #4D1732",
"CX c #9B1998",
"ZX c #D658C7",
"AX c #534652",
"SX c #8E626C",
"DX c #922EC4",
"FX c #342F19",
"GX c #513398",
"HX c #37444E",
"JX c #971A60",
"KX c #611828",
"LX c #341419",
"PX c #B91242",
"IX c #170617",
"UX c black",
/* pixels */
"> > = - * - > > * - > = - : - > - : ; > > - - > = > : = : > : : $ > i $ 6 - - ; $ $ 8 - - - - - @ p - - + - - - % % - % - % - % p - - p - % - p % p - p p - ",
"> * > > > > = > = C.C.C.C.= > - > : > - - > > - = = > - ; 7 : 8 % : : : r 0 9 3 8 - $ - - @ @ - - - - p % - % % % % + % % % + % - - p - % + p p p - - p - C.",
"C.C.C.C.C.C.C.C.C.C.C.C.C.= - C.C.- - > > - > > = * > = 7 : 6 6 8 6 j w C C b VX8 $ - $ C.C.C.C.% - - - % % + - + - % - - % - - $ p % - $ p p - p @ $ p p p ",
"> : = > * > > * > > > = > > - > : - > : - > > - - = > : : : 6 6 6 8 z l F C n k 8 8 - - - - @ - % % % - % - - % - - % % % C.C.C.C.% % p p - - p % - p + p C.",
"C.* > = : > > > > > - * > = - C.C.: - ; ; > > ; = = = - > > : 6 k k T I ~.Y n x 8 w C.C.$ - $ % % % + - % - % % % - C.C.% - % % - p - - - p p - $ @ % % $ p ",
"C.C.C.C.C.C.C.C.C.C.C.C.* > * > > > > > > ; > > = > > > ; > 7 7 j b Y Y ( ] v j # w 8 ; ; - - - - - - % % % % - C.C.C.C.+ - - % - p - p % - p p % p - - - p ",
"> - > > > - > > > > > > > * > - > - > & ; > ; > > = > > 7 > 6 7 j j Y 7XM.M.v j 8 w : 8 - * % % % - % % % % + % % - % % % - % % % $ @ $ p C.C.- p p @ p p - ",
"> * = > > * = C.C.C.C.C.- > = > ; > ; > - - ; 7 = > - > > 7 7 8 z z Y ] M.9.J j k w 6 : : - $ * - % % % % - - - % % % - % - + % - % p C.C.C.p $ % $ p p - p ",
"> : > = > = : > = : > = > > = = > ; : > 6 > > ; 6 ; > > > > 0 0 z j j z E E C j # 8 C.C.- - * * - % = - % % - + % % % - % % - + - - % % $ p p % - p + p @ p ",
"> > > > > > > > > > * > > : > - ; : 6 ; > ; ; 6 > > 7 7 6 > > 3 w c j z K A M VX# 8 6 ; ; - * X - - - - - % - % - + - + % % % - - p - % - - @ $ p p - $ p $ ",
"= > > : : > > > > * > > > > & > 7 ; 6 ; 6 6 7 7 9 9 9 9 6 9 6 6 - 6 c c n z k k c w > > 6 6 & % & - & - % - % % - % % - + - - % $ - - % - - % % - - p % % p ",
": > > > = > > > > > = - > > > = ; ; ; ; 6 6 6 r r 9 7 9 9 9 6 6 6 8 c j n z k b r w > > 6 9 & ; ; & % % % % - % % - % % - % % % % C.C.% p - % % - p @ $ % - ",
"> > > - : > : : : > = > > > > > 6 : 6 7 8 7 w l l l w w l l w w a a a f y # y r i 0 : 7 w 8 # 9 > ; > - - - = - - % % % % % % % - p - % - % C.C.C.C.% C.C.C.",
"C.> > > : : : > : : C.C.C.C.C.C.: 7 8 7 r 9 c l l r z w l l e t a LXVXa # f l 9 u r i 7 k w w # > - - > - - - - % % % % % - % - $ - - - % % % p % p @ $ - p ",
"; > ; > 7 ; > > > > > > : > > > 6 r 9 r w l c c D V k n l V l k KXKXKXKXf N d e c r r i j k VXVX; 3 ; 3 ; ; - - ; @ % % % - % % - % - - - $ - - % % p % - % ",
"7 6 > ; > : 7 C.C.C.C.C.: > > 7 6 7 c r l l x V AXD m b V V m k cXmXH H h VXd d u u HXu k k z n 9 3 7 ; 1 ; ; - = % - % - - = % % % % - p - p - $ + @ $ p + ",
"> > C.C.> > > & C.C.C.C.C.C.9 0 9 r z m Q.Q.) ) W U J !.m C c l PXPXPXPXh KXh W.v A L L P v V n t q 0 9 9 9 9 6 - & % - % = % % % - % % - % C.C.- - - - + - ",
"> - > = > & ; C.C.C.C.C.C.C.0 0 r l m M Z Z ) ) U U A Q.C C W.W.PXPXPXPXKXKXd M Q.I ~.Q P P V C d t r y y 9 9 6 ; & = - & - % ; - % ; % % ; % & - = % - C.C.",
"C.= > > > > > > C.C.C.C.C.C.0 9 k l Q.C P T +.) ` ` P U C D N g PXPXcXPXG H A D U Q _ _ Q !.J Z b b t e e 9 9 9 ; & - * % & = & ; % % ; % & C.C.C.C.C.C.+ % ",
"> > > > > > > > C.C.C.C.C.C.q r l b Q.A U U ` +.^.{ ] ~.C N B B PXPXKXPXh H F D U Q [ ' Q Q K K m M t y 9 9 9 9 & ; = = % % % % % - % % - % C.C.C.C.C.C.C.% ",
"* = = = = : - > > C.C.C.C.C.0 5 M C K P U ` } } { { { ] I I G G cXJXmXG 7XY ] ] ^.^.| X.} /.` ) A Q.b k e y 9 9 & % = = * % % % & - - % - - - - % - C.C.C.C.",
"= > * > = = > = > > C.C.C.C.C.5 n C K I ` ` ..).} } ....E E ( / cXcXG G I 7X) ~.^.^.} ).| (.] ) I A b b e e 9 9 ; - = - O % % = % - % - - = % = - % C.C.+ % ",
"> = - = > = = * ; 7 7 9 r l q q J K R ~.^.{ o.o.o.} (.).[ [ ~ [ [ ( ( ( ] M.(.} o.o.*.,.).o...` L L C n k e w y 9 9 ; & & % % & - % = % - % - - % C.C.- % % ",
"= * = * = * = > > 7 9 9 r l t t J K Q W /.(.`.*.X.X.} (.~ M.M.[ M.~.M.( M.] ).).).).,.*.O.O.} { E L A C l e e 9 9 9 & & & & & % % % - % % - - - % * = C.C.% ",
"- = = > = = > = 7 6 9 r z z n C J U { { :.O.1.8.O.*.*.=. .' @.$.6.(.6.9.9.9.@.' =.,.=.=.o.*...o.W Q T P m m q e 2 9 1 3 % & - - % ; C.C.C.C.C.C.C.C.C.C.% - ",
"> = > = C.C.= > 6 > 9 9 l l C Z U Y { { 1.).8.*X1.'.;.1.@.[ 6.6.6.6.9.6.(.@.@.(.,.,.1.=.&.).).} ~.W L P m m t r 9 e 1 1 & & - & - % C.C.C.C.C.C.C.* % - % % ",
"> > > : > = > > 3 6 w w z m Z Z ` ) { { ).(.8.XX2.>.;.2.#. .].8.8.8.0.>.-.#.-.-.<.<.,.,.*.O.).).' ' Y U Z V m k e e 9 9 > & - = > * C.C.C.C.C.C.C.- - C.C.- ",
": = > > > > > 3 9 0 w t m m Z K ` ^. .{ 9.).*Xa.0.8.2.>.#.$.0.0.8.[.[.>._._.>.-.DX,.'.'.*.,.).X./.^.~.Y T J m l e t 9 9 > - * C.C.C.C.C.C.C.C.C.C.- * C.C.C.",
"> > > > > > > i 9 0 r d V V K I ` { (.(.$.:.8.XXa.a.4.p.2.2.$X&X-.-.-.-.-.-.<.4.DXDX'.'.,.,.*.*.| | ^.^.I T A V d d 0 y 3 1 - - : - C.C.C.C.C.C.C.= C.C.C.- ",
"> > > > > > i > 0 0 t l m C J Y ` ` (.(.].XXXXXXd.a.0.0.2.2.$X$X=.-.-.-.5.4.<.<.O.DXDX'.,.,.,.*.&.X...^.Y Y I C.C.C.e 0 3 ; > - - ; C.C.C.C.C.C.C.- C.C.C.- ",
"> > > > > 7 > 0 0 0 e l C Z L U { +.#.| K.XXXXXXXX X4.$X8.2.2.2.<.2.5.#Xp.p.p.5.DXDXDXDX,.'.,.<.,.*.| } W Y K K M d e e y 9 3 ; C.C.; - - - - C.C.= = C.C.- ",
"> > ; 3 3 > 0 3 0 0 b l Z Z L Y } { | $.XXXXf.XXw. X$X%X2.2.#X#X4.-.<.<.p.9X#XDXDXDXDXDX'.<.DX,.,.,.).| ] ] I K N M d e q 9 3 9 > - - > - - - - % - C.C.C.% ",
"; > 7 > > 3 0 0 u i D c K P ` ^.:.#.$.#.K.+X+X}.%X0.4.<.2.3.4.2.<.<.p.p.p.9XDX#X*XDXDXDXDXDX>.0.<.,.O.*. . .' ^.` ) J J j e 9 9 : 6 ; - - 6 C.C.- = * - - % ",
"6 ; 0 3 0 0 i 0 0 u W.l L K ` /.X.`.=.#.XXXX+XoX;X%X4.4.4.2.#X2.<.4.#Xp.xXp.#X9XDX#X*XDXDX#X>. XDXC.C.,. . .` ^.) +.J !.z k 9 2 6 7 : 6 @ - - - = - % * % % ",
"> 3 > 7 7 0 r 0 u i W.l L L /./.*.,.,.=.|. Xd.s.g.%X$Xp.2.3.2.4.9X#Xp.#X9X&XxX#X#X#X#X#X*X0.$X&X2.2.=.-.=.&.o. .+.{ ) U S n d e 9 7 ; ; 6 - - * % * = - - % ",
"; 6 0 > 0 > 0 i u u D l ~.L /.(.,.,.=.&. X Xs.d.;Xd.&X9X4.4.4.4.$Xp.p.p.9X9X9Xp.#X#X#X#X*X$Xa.&X$X4.-.;.=.=.*.*.o.+.) U A S n e 8 6 6 6 - 6 - - = - = - % % ",
"; > 0 > 0 0 0 u u u F D ~.W &.&.,.DX,.,.$Xa.a.s.;X;Xg.=Xq.4.4.5.#X#Xp.#X9X$Xp.#X2.<.2.2.4..X%Xs.a.4.2.>.=.-.&.X.X.} ..` L U C Q.z w 8 8 6 6 ; ; * % * * - % ",
"> 9 3 6 7 0 0 u c W.F D ] ! X.`.DXO.,.,.a.&Xd.s.%X;XL.g.%Xq..X4.p.p.&X&X&X9Xp.9Xp.p.4.2.4.$X%X%X%X$X0.0.>.2.X.&.o.} ..^.~.Y Z Q.z w w 8 6 : ; - % = & % C.C.",
"C.; > 9 0 7 u r l l I D ] W &.*.,.,.<.<.d.a.s.OX=X>Xg.g.=X-X%X$X$X%Xg.g.=Xg.%X9X9X4.0.$X=X-X%X-Xw.w.XXXX].>.&.| X.| /./.] ` Y U k z z w 8 6 ; 6 = - % - + % ",
"; 3 7 > 0 8 i u l l Z Z _ ` &.=.o.,.8.8.d.a.>X-X;X;XL.g.;X;X=X%X%X%Xg.g.kXg.%X=X4.4. X%X;X;X-X-Xa.w..X X8.>.#.#.X.X././...] U U z c w w 6 w 6 - = * = - - - ",
"3 3 i 3 0 0 9 r k l Z Z [ ' &.*.#.`.a.a.a.w.:X+X-X>Xg.L.g.;Xg.g.d.-Xg.g.kXg.ZXkX$X4.:Xh.d.f.OXq.XXw.XX|.[.8.8._. .X.o.o.+.X.` U k l c w 8 9 6 6 * & = * - - ",
"> > > > 0 7 7 0 l C.C.C (.[ *.*.).#.a.XXe.XXh.-X-X>Xg.g.g.;Xg.&Xd.f.g.g.g.kXg.g.s.%Xd.d.f.f.r.OXw.oXXX|.|.|.|.8.&.=.o.o.X.X.` ` k c 9 w 9 8 : 6 = * - * % - ",
"< = < < 0 7 u 8 l c Z Z ] ] :.*.$.$.XXXX}.}.@Xy.OX-Xg.:Xh.h.f.f.:Xf.g.g.L.g.ZXg.j.g.f.e.f.j.nX*XoX}.oXoXXXK.|. X-.;.&.=.X.*.` +.k z w w 9 9 6 : = - - & C.C.",
"= < > 3 > 7 8 u c c D D ] ] *.*.(.$.XX].+X}.}.@XOXOXs.s.h.:Xd.&Xe.h.ZXg.kXkXg.g.d.d.f.e.tXtXXX*XoX+XXX|.XXXX0.0.p.2.*.o. .&.{ ` z c z w w 8 ; ; & % * - = - ",
"FXO FXi 3 > i 4 i c W.V ~.Y ).).:.`.8.].+X{.}.@Xy.y.y.h.l.tXnXnXy.e.>X-X=XL.>Xh.f.f.tXtXU.U.tXtX+XoX+Xw.XXXX|.0.0.4.&.o. .X.` ^.V l k k 8 8 6 6 * % = * - - ",
"= FX= FX> < > u u c D c ~.Y ).).).:.2.>.+X}.}.@X}.@X+Xy.I.tXf.e.h.h.h.:XL.>X>X>Xf.f.tXx.x.U.tXtXoX}.oX|.XX[.].[.0.>. .+.+.*.` ` m k l z 9 # - 6 & * = * = - ",
"FXFX< = > > 3 0 r i V l Y Y ).).DX'.1.,.d.s.q.+Xe.y.j.1XD.b.D.S.1Xj.j.ZXZXZX>Xh.1X1XU.b.S.T.tXtX+Xq.q.q.|.[.[.].$X8.X. .{ /.!.R V x k w 6 6 ; ; & % - * * - ",
"FXO C.C.< < 3 i i r W.l Y T ).O.O.'.1.'.+X-Xq.{.{.h.j.1XD.F.S.S.j.1XZXh.-X>X@X>X1X1XU.U.U.x.tXtXq.oX.XXXXX].[.].8.].X.X.' /.!.!.l k z j w 6 ; - * - = - - - ",
"i 8 > i > > < < u 0 l l V V Y Y $.:.$.`.>.>.:Xg.,Xk.<X<XF.2XgXgXuXdXn.8XNXfXtXfXx.S.x.x.b.D.nXK.{.q.q.{.K.].[.XX9.>.$.| ~.Q P J w 8 8 7 6 C.C.C.- = * - - % ",
"i i > > > > > i 0 0 t t x n T Y (.).$.#.>.].ZXkXk.k.<X<X2X3XdXdXdXuXn.8XfXtXfXtXx.T.U.S.U.1X}.}.q.{.{.|.[.K.].K.>.`.(./.W U P J 7 r 7 7 6 6 ; > * - - * * * ",
"8 i > > i > < i i 0 u t z V Z K /./.#.#.>.].g.kX<X<X,X<XF.F.gXgXuXc.n.8Xx.P.A.P.T.x.x.A.l.l.7.7.{.{.K.7.C.C.].].$.[ ' _ U P Q.x 8 8 8 8 ; ; - - * * * % - $ ",
"8 7 > 7 C.C.C.> 3 3 t r z l V Z /./. .+.[.0.g.kXk.0Xi.i.n.n.dXgXn.uXn.n.dXA.T.T.T.x.x.A.u.nXt.}.oXoX7.[.K.K.].].(.[ W Q T J x j r 8 7 6 > 6 - - - : % : * - ",
"i : 7 : i > = 3 3 i 0 0 t l W.W.Y L P !.%.$.4..Xi.,Xu.j.z.BXn.n.n.3Xn.C.C.A.P.P.x.A.F.qXj.i.0XZX+Xr.|.{. X0.].8.~.~.I A x l c 8 8 7 8 : 7 ; - - - C.C.% * * ",
"8 8 > 7 > > > 3 3 > 0 0 u l d W.U L U !.[ @.q.|.t.i.u.u.l.l.uXn.C.C.C.n.A.A.P.A.S.A.D.D.<Xy.,X,X@X}.{.|.0.>._.(.~.Q A Z l z r 8 8 8 7 ; ; ; > - - - - % * - ",
"> : i > i i > > > 0 0 0 r r u l l W.D B Q ~ _._.CX5.=Xg.y.nXBXz.b.S.U.b.S.S.S.F.D.qXz.1X<XL.L.,X@X@Xd..X0.2.:.(.F D W.l u i * $ : : : C.C.; - * * * - % - * ",
"i 7 > i > > 7 > i > 7 0 r 0 t l l W.B / ! Q %.%.5.L.=X<XnXu.z.BXS.U.S.b.b.S.F.S.Y.D.1Xu.ZXZX,XL.ZXy.d. X8.<.).).D D b l 0 > O $ 8 8 - - - : > - - - * - * - ",
"> i > > C.C.C.C.7 > 7 7 0 7 r l b W.A C R R ! ! -.,.DX9X9XhX0X0XU.b.qXqXqXc.Y.3XY.qXu.u.i.i.r.t.OX+X[.].' ' U !.I Z l x r 7 7 ; > ; > * - > - = - = % * * - ",
"> > i 3 > 3 i i i 7 7 7 7 0 c u b W.C F R S MX! =.CXxXxXZ.kXkX0Xv.b.Y.qXA.c.Y.3XY.qXrXrXu.i.t.r.}.{.].7.! ' R P Z Q.z k r 9 ; 6 & - - > * = - = * - = - - = ",
"> > i C.C.> > > > 7 7 7 7 i 0 u d u d r VXVXH H +.#.#X#XZ.Z.kXkXkXj.z.qXY.n.qXD.z.1XnXe.rX}.}.[.[ @.~.] L I Z C b l r r 7 7 > 7 - > * > - > = * - = - = = * ",
"> i > > i > C.C.3 > i 3 7 > 0 0 u t d l a h N H (.@.#X*X9XZ.L.kXL.<Xz.qXBXY.qXv.1X1XK.}.t.7.7.oX' [ ] ] L Y Z Z k k 7 6 : 8 : ; > - - - - = - > * - C.C.= - ",
"i i 3 i > > i > 0 > > > > 7 i 3 0 4 5X^ V.iXiXiXlXcX%.@.[.].3.3.ZX@Xu.nXNXrXrXnXnXK.9.9.$.$.[ ! R P P J x n w t 0 3 > 7 7 ; - : = - - = - - = - % & * * - * ",
"< > > < 3 i 3 3 > 3 i 3 > > 3 i 4 4 ^ wXcXbXm.bXcXlXlXlX]._.3._.r.r.nXj.NXNXrXrX6.K.>.6.@.@.~ ! R L J P n V k w 0 7 7 : : 7 > - > - > = = - * * = - - = C.C.",
"3 3 i 3 3 > 3 i > > > i > > > 3 FXN.bXbXiXV.bXbXV.G.m.m.eXeX6.@.lX6.( [ ( J.6XG MXJ.MX! R H S S N M k b y t 1 1 3 3 > 6 : 6 - - - - - * > = = - % - * % = * ",
"> i > > > > 3 i > > > 0 > > > > FXB.bXcXbXV.iXbXV.G.wXm.G J.lXlXeX6.6.6.E G H h S H MXMXH v N v N M b b y e 4 9 > 9 7 6 6 ; ; > = > - > = - * * & = - = - * ",
"> > C.C.< 3 > > > > i i 3 > > > ^ ^ ^ ^ bXcXbXcXcXcX6X/ R.6XAX/ / / / G N B N N F F W.W.g d f y d f 2 a 4 4 0 0 3 3 6 > ; > > * = - - * = - * * * - C.C.- % ",
"> > > > > i > > > > 3 > > > > > ^ 7X5XvXbXcXH bXcXbX5X6XW.5XB 5X/ B B N N N h N B B g f M d d f f f 4 2 3 1 9 > 3 > > 7 > 7 - > > - = - - * * * - * % & & % ",
"> > i > C.C.i < > > > i > > > = 6X^ vXvX6XcXmXmXbX6X6X6XB 5XB W.B B M f f f f f d f y aXjX2 jXf h B E.W.B.3 3 = 3 1 3 > > > - - = > * * % * % % * C.C.C.C.C.",
"C.< 3 > > > i > 3 C.C.C.C.C.C.> vX^ mXvXbXmXmXmXiXmX6X6X5XAXg h R.f h f f f f f d f a 2 y 2 2 f B B 5XE.g s 3 & C.C.C.C.> > > * C.C.C.C.= - - = C.C.C.C.C.C.",
"3 > i > > < > i C.C.C.C.C.C.> : vXmX^ bXbXbXC.C.C.V.V.G.vX5X4 a f 4 q q 4 2 jX, , jXjXa jXa s a s s s s E.g i < , , & 3 > > = > - > = - % - * - * C.C.C.C.C.",
"> C.C.C.> i > 3 C.C.C.C.C.C.C.> E.vXC.C.bXiXbXV.V.V.^ 6XR.R.y a 4 4 4 4 2 1 1 , aXaXaXN.jXB.a s s s FXs g E.E.5 & C.C.& > > > > = - = % - = - % C.C.C.= * * ",
"> > > > < i > > > > > > > > > = E.E.bX^ bXiXbXvXbXbXvX^ R.E.jX5 jX< < & = N.N.< s 5 5 a a s R.R.R.s s s 5 E.5 5 . , 3 & > = > - C.C.C.* & - % & C.C.% - * - ",
"> > C.C.> i > > > C.C.C.C.C.> * iXC.C.C.iXvXbXvX^ bXvXvXR.R.5 < < < o O N.= N.5 5 B.N.B.a s vXC.C.C.C.C.FXFXC.C.& , & 1 > - - ; - = = * * * * % C.C.C.= % - ",
"i > 3 > > > > > > > > i > 0 i > 5XvXvX5XvXmX^ bXvXvXC.C.C.B.< , = O O O X o < jX2 3 < B.5 s s g a a a C.C.C.C.C.C.& C.C.; ; & & - - % - - - - % C.C.C.C.C.C.",
"i < > > 3 i > > C.C.C.C.C.C.3 = g E.vXvX^ ^ ^ ^ vXvXg B.N.B.& N.& O O X o < , , < 3 N.B.B.a s s s s B.s C.C.C.C., & ; 3 ; & ; ; * - - - & % = - - C.C.C.C.C.",
"C.C.C.C.C.C.C.C.C.C.C.C.- = * * = 3 g 5XvXvXvX^ vXE.B.N.& o o o % X X % X & = = = & < < B.B.C.C.C.R.C.C.C.C.jX< , < @ 3 & ; & > - - & - - % - - C.C.C.C.C.C.",
"C.C.C.C.C.C.C.C.C.C.C.C.* = - = < 5 g vXR.vX6XvXE.s C.C.C.o o X X X 4X4X  C.C.C.% & & & O < B.a s R.s s a C.C.N.@ @ ; 1 ; > - & = = - - % % % - * C.C.C.C.C.",
"C.C.C.C.C.C.C.C.C.> > > > > = = pX  & & o , o jX< < = = C.C.C.4X4X4X+ 4X+ + + - % - - % C.C.C.3 a s C.C.4 & C.C..   ; ; - - - - - - - - = C.C.C.% C.C.C.C.C.",
"> > i < > > > > C.C.C.C.C.C.> = = = & & N.& o o o o O % C.C.% % % - % % @ @ + @ . + . % . @ , 1 < 3 a 4 < & @ , 4X. ; ; > - > - = - = - = - % % C.C.C.C.C.C.",
"> > > > > > > > > > > > > > > 3 & %     . C.C.4X. 4X% 4XC.C.% : - - - ; % ; ; + - + + p + + % % < % , 1 @ & @ + + % - ; = - > - - = - - - - % % * C.C.C.C.C.",
"C.> i > > > > > > > > > > > > i 3 & + + & & . . & + p pX% + 7 > > > ; > & 3 > - - + C.C.C.+ + - = & @ + C.C.+ @ @ 1 & & - - = - - - - = - - - % - C.C.C.C.C.",
"C.C.C.C.C.C.C.C.C.< > > > > 3 i > = 3 > X 4X  + - > > u : C.C.C.C.C.C.C.3 > > > > > - *   4X+ + 4X+ + + + + + - - = * > - = - * C.C.C.C.C.C.C.C.C.C.C.C.C.C.",
"C.C.C.C.C.C.C.C.C.i i > > > > > 3 > i > * O * = > > > > > > > > > > > > > > 3 7 > & > - = % C.C.    4X  + . % - = C.C.- - C.C.= C.C.C.C.C.C.C.C.C.C.C.C.C.C.",
"C.C.C.C.C.C.C.C.3 > > > i 3 > > 3 i 3 > > > > > > C.C.C.C.C.C.C.C.C.C.C.C.C.C.C.C.> > > = > * - 4X4X4Xp + % = = - * - = * = * - C.C.C.C.C.C.C.C.C.C.C.C.C.C.",
"C.C.C.C.C.C.C.C.C.C.C.C.> > > > > > > > > > > > > > 3 C.C.C.C.C.C.C.C.C.C.C.C.C.C.> > > > > - * - -   % % % * > - = C.C.C.* * : C.C.C.C.C.C.C.C.C.C.C.C.C.C.",
"C.C.C.C.C.C.C.C.i > > > > i 3 3 3 C.C.C.C.C.C.C.C.C.C.C.C.C.C.C.C.C.C.C.C.C.C.> = > = > > > > * - & > & - > > - C.C.* * * * = = C.C.C.C.C.C.C.C.C.C.C.C.C.C.",
"C.C.C.C.C.C.C.C.3 > < i C.C.C.C.C.C.C.C.C.C.C.C.> C.C.C.C.C.C.C.> > > > > > > > > > > > * > > > > > > > > > > = > * = - = > : * C.C.C.C.C.C.C.C.C.C.C.C.C.C."
};
