/* XPM */
static char *_a20353eb8434bd2f1c2a8740e7404e78vAgghH6n4FzEMlb_18[] = {
/* columns rows colors chars-per-pixel */
"78 86 256 2 ",
"   c #221D1D",
".  c #271D1A",
"X  c #24221D",
"o  c #2B231D",
"O  c #2A291D",
"+  c #231E21",
"@  c #291D28",
"#  c #321B36",
"$  c #1B2C29",
"%  c #252425",
"&  c #2A2524",
"*  c #252926",
"=  c #2A2925",
"-  c #262529",
";  c #2A262B",
":  c #26292A",
">  c #2B2A2B",
",  c #332523",
"<  c #342A24",
"1  c #33252C",
"2  c #3B242C",
"3  c #322A2D",
"4  c #3B2B2B",
"5  c #3B312A",
"6  c #2C2532",
"7  c #2D2A32",
"8  c #2B2638",
"9  c #322634",
"0  c #332A34",
"q  c #3B2B34",
"w  c #34253B",
"e  c #3A253C",
"r  c #352B3A",
"t  c #3A2B3C",
"y  c #3C2433",
"u  c #383138",
"i  c #283332",
"p  c #1D1F20",
"a  c #432B2A",
"s  c #46352B",
"d  c #442A3B",
"f  c #462837",
"g  c #493735",
"h  c #522E37",
"j  c #381C4A",
"k  c #3B2543",
"l  c #3C2B43",
"z  c #392747",
"x  c #3C2653",
"c  c #342E47",
"v  c #4A1C52",
"b  c #432B44",
"n  c #43254C",
"m  c #432B4B",
"M  c #492947",
"N  c #542A48",
"B  c #573748",
"V  c #452B53",
"C  c #4B2C54",
"Z  c #4C2B5B",
"A  c #532C5C",
"S  c #552857",
"D  c #4A3256",
"F  c #573358",
"G  c #653857",
"H  c #692E54",
"J  c #4B2865",
"K  c #542B63",
"L  c #5B2C6C",
"P  c #572768",
"I  c #583367",
"U  c #5A2976",
"Y  c #5B3375",
"T  c #4C306C",
"R  c #652969",
"E  c #663569",
"W  c #632C7C",
"Q  c #662A78",
"!  c #752A79",
"~  c #763679",
"^  c #6A5446",
"/  c #694657",
"(  c #764A6B",
")  c #5B2C85",
"_  c #6B2C84",
"`  c #662886",
"'  c #752B8A",
"]  c #6A3387",
"[  c #763489",
"{  c #6C2A94",
"}  c #742C9B",
"|  c #7B2C9C",
" . c #792897",
".. c #6B3395",
"X. c #7C2CA3",
"o. c #7929A7",
"O. c #772CB0",
"+. c #6D1D92",
"@. c #863789",
"#. c #842B9A",
"$. c #863599",
"%. c #8F2D8C",
"&. c #832CA4",
"*. c #832CAB",
"=. c #892BA9",
"-. c #952AA9",
";. c #8C33AB",
":. c #8836A8",
">. c #9638AA",
",. c #882CB5",
"<. c #952DB7",
"1. c #8C32B3",
"2. c #9737B7",
"3. c #A639A8",
"4. c #A53AB9",
"5. c #B12FB3",
"6. c #924892",
"7. c #AA4E99",
"8. c #9B44B6",
"9. c #8D49AB",
"0. c #A646B7",
"q. c #B74BB7",
"w. c #B453BC",
"e. c #B965B8",
"r. c #C64BB8",
"t. c #CF53B4",
"y. c #C665B9",
"u. c #CD6FB4",
"i. c #DA5BB3",
"p. c #A539C5",
"a. c #B453C3",
"s. c #BC54C4",
"d. c #BB57C8",
"f. c #BB67C5",
"g. c #C857D4",
"h. c #C865C6",
"j. c #D370CD",
"k. c #ED4FE8",
"l. c #CD8BB8",
"z. c #E991D2",
"x. c #D2AFCF",
"c. c #E5B8C9",
"v. c #F9A8E7",
"b. c #EEB0EC",
"n. c #EBCBD4",
"m. c #774A57",
"M. c #774590",
"N. c #35281D",
"B. c #3B2C24",
"V. c #74554A",
"C. c #A83595",
"Z. c #CE37CD",
"A. c #D8B9C9",
"S. c #D9B9D5",
"D. c #E7A9D8",
"F. c #E6B7D7",
"G. c #785655",
"H. c #F392EC",
"J. c #753469",
"K. c #AA54A9",
"L. c #D44ED2",
"P. c #D1B6B7",
"I. c #C987C7",
"U. c #DAA3E3",
"Y. c #F8B6D8",
"T. c #D4C4CF",
"R. c #533B39",
"E. c #514334",
"W. c #473248",
"Q. c #472557",
"!. c #521C6A",
"~. c #673378",
"^. c #6C2B8B",
"/. c #732C94",
"(. c #783397",
"). c #7B33A5",
"_. c #963899",
"`. c #8332A4",
"'. c #8934B7",
"]. c #9945A8",
"[. c #A749AA",
"{. c #B54BAA",
"}. c #B656AA",
"|. c #AC4CB4",
" X c #AC4CBB",
".X c #B34DBC",
"XX c #AC53B7",
"oX c #B453B4",
"OX c #BB53BC",
"+X c #B958B7",
"@X c #C557BA",
"#X c #9935C4",
"$X c #AA46C4",
"%X c #B74AC6",
"&X c #B350CD",
"*X c #9C45C4",
"=X c #C64BC7",
"-X c #C354C4",
";X c #C355CB",
":X c #C45ACB",
">X c #C859C7",
",X c #E94FD2",
"<X c #E96ED3",
"1X c #D48ECF",
"2X c #FAB7E6",
"3X c #F6CDE9",
"4X c #1D1C1C",
"5X c #5B4546",
"6X c #684A46",
"7X c #5F4F64",
"8X c #ECDBE0",
"9X c #B234CA",
"0X c #F471EB",
"qX c #F3ACD1",
"wX c #6F4F50",
"eX c #884C72",
"rX c #B16899",
"tX c None",
"yX c #BAC5B2",
"uX c #DFC4B5",
"iX c #68431E",
"pX c #1A1817",
"aX c #381C29",
"sX c #CE28AC",
"dX c #D8C3C8",
"fX c #BAB0A7",
"gX c #D1C5B7",
"hX c #E839DD",
"jX c #3A2425",
"kX c #D657E4",
"lX c #8A3275",
"zX c #2F2B5C",
"xX c #B425CF",
"cX c #835558",
"vX c #594739",
"bX c #69503A",
"nX c #B46BAC",
"mX c #64493A",
"MX c #6B1B64",
"NX c #B88AB4",
"BX c #E3AAB7",
"VX c #4D1732",
"CX c #9B1998",
"ZX c #D658C7",
"AX c #534652",
"SX c #8E626C",
"DX c #922EC4",
"FX c #342F19",
"GX c #513398",
"HX c #37444E",
"JX c #971A60",
"KX c #611828",
"LX c #341419",
"PX c #B91242",
"IX c #170617",
"UX c black",
/* pixels */
"> > > = : > > > : > > > > : > > : 6 : : 6 8 6 6 ; ; ; 7 > = 4 0 - c # # J AXzX8 6 - # aX1 # $ $ - 6 - @ tXtXtX+ - - - - - $ @ @ - % % % % + - + + + % % - tX",
"tX> : > > > > = > > > * = > > > ; > 6 6 : 6 6 6 6 6 7 > = = 9 > 8 $ # # D T zX8 - 6 aXy 1 1 8 $ 8 : - - - % - - - p - p $ - @ $ @ - - + % % p % + - % + + - ",
"> : > tXtXtX* > > > > > > > > : 6 : 6 6 6 6 8 8 r 9 9 9 ; 3 ; 0 8 i w n I F 8 $ - 8 aX9 aX# : $ 6 6 8 @ - - * tXtXtX; - $ - $ @ % % tXtX% % + + % p p % + % ",
"> > tXtX> > > > = : > > > > > > ; : 6 6 8 6 9 9 6 9 9 6 3 & 0 ; c 8 j e F x zXzX6 : y aX9 aX$ i 6 6 8 - - tXtXtXtXtX- - @ - - p % - % % + % % % p % tXtX- tX",
"tX> tXtX> > > > > > > > * > > > 6 : 8 6 8 8 w c z w w w 0 9 9 9 6 8 # y z b 8 8 $ 8 6 aXaX9 : ; 6 # 6 @ - tXtXtXp @ p @ - p - - % - = % % % - % - p % p + - ",
"> > > > > > > > > > > > > > > > : i 8 6 w 8 l c l l w w t t q 9 : : VXy # # 8 j 8 $ 6 # y aX8 ; 9 3 6 6 - % - tXtX$ - $ $ @ - - % % % - + % % @ - - + % + tX",
"tX> > > > > > > > > > > > > > > 7 7 9 8 l z z l x z z n b l l l 8 $ y q 6 8 $ 8 $ i 1 # aXy 6 9 9 1 6 ; % % % * % % - - - p - - % % - - - - % % - % % p - + ",
"= > > : > > tXtXtXtX> : > > > 7 7 8 w r l l x m AXD m b z W.w w i i 0 q e c 8 $ 8 i aX9 2 VX1 9 # 9 9 ; - % - % $ % p - - $ - - tXtX- = % - - % % % - % % + ",
"tXtXtXtXtXtXtXtX> > > : > > > > 8 i l w n Q.L L E E v Q.m x w 9 $ : , < 0 4 8 i zX$ zXj !.R Q.x k w 8 w 6 6 6 @ % % % % % % % % % tXtX- % ; - tXtX% - % % % ",
"> > > > > > > > > > = > > > > > 7 r w c Q.n Q Q J.E S A z n r r : 8 , , 4 4 i i i c j J P P Z Q.k e w w @ # ; ; - % % % % % * % - = tXtX% % % - - % % % % + ",
"tXtXtXtXtXtXtXtXtXtXtXtXtXtX7 tXtXi e k P v  . .(.$.R Q n Q.c c B.a jXLXjXB.i i zXzX!.!.Q W U !.z z w 9 8 w 6 @ % o - % - * % = % - % - % % - = - % - % p % ",
"tXtXtXtXtXtXtXtXtXtX> > > > 3 i 0 r k k S !.| &.6.$.R Q V C W.l a a s KXq 5 c u x x J !.W ! L P l k z w 9 # 6 @ % % % % % * * % % ; % % ; % % - - + % % % + ",
"tXtXtXtX> ; > > > > > : > > > i r u M n R Q :.:.8.8.' [ C M M b KXKXPXiXKXKXd M T T ) +.+. .^.` Z x l l w w 6 6 * % % * % * - tXtX% tXtX% - - = tXtXtXtX+ tX",
"tXtXtXtX> > > ; ; > ; > > > > 0 0 u M M ! ~.9.8.*X8.[ (.Q.v b b KXJXKXKXiXJXh h T Y { ` #. .' ` J x z k w w 9 6 * * % % % * % % % - % ; - % - % - - - % % % ",
"> ; > ; > tXtX; : > > > > > > > 9 t M Q.Q ! 0.$X$X*X$.| Q.Q.A C PXPXPXPXPXPXh H ) ) ..} #.o.+.+.L T V n e e 9 6 - = % - * % tXtXtXtX% % % - - % - - % % % % ",
"; > ; > ; > ; > ; > tXtXtXtXtX0 r e M M Q _ 8.*X$X*X(.(.K Z F A PXPXPXPXJXKXh H ) ) } } =.o. . .T T V n k e 9 9 ; - * % : % * % = % - % % % % - % + - % % % ",
"> > = > = = > > > tXtXtX: > > i r r C n _ [ $X$X8.<.(./.I I F I F G E E Q R Q !  .^./.(.`.:.| /.W U Z A e k 9 9 ; ; tXtX= % % = - = % - = - % % = % % % % % ",
"= = tXtXtX= : > : > tXtX: > > i r r C V ' [ #X*X;.&./.^.Y Y I L F F F E ~.~._ [  ./.#.`.:.>.(./.] Y Z A k b # y 9 ; - & = - - * - - - = = * * * - % % % % * ",
"> > * : : > * > > > > : > > > 0 c c D C [ [ ].2.$.[ [ _ I E E Y ~.E ~.E ~.[ ' '  . .>.1.>.>.X.| ] ^.K R n m t l y 9 , ; & % - & - = - = - - - % & % % % % & ",
"= : = : = : > * : : > > i > 7 0 c r D C ~ [ ;.`.#.' ~ ~.E I E 7XE ~.E ~._ [ /.(.| #.2.9.2.9.).| ^.' K I n C b l r 9 ; 1 & & = % - % * - * = - % * % tXtXtXtX",
"tXtX* : * = * * * = > > 7 7 9 9 u u M n R L [ [ ] ( ~.~.~.~.~ [ [ ] [ [ X.(.*.).&.*.2.8.2.1.).X.(./.U Q Q.K b z e 9 9 3 % - & ; % = - * - = & % * % % % % % ",
"* * * O * * : tXtX* > > 7 7 0 r r u C e P S ~ [ ~ ~ ~.~.~.( [ ] [ [ [ ..(.).`.:.:.*.8.'.2.2.).X.(...Q W Z I m m t y 9 9 & & - - * - = - * * * % * % % % % % ",
"O : = * * : * = * > > > 0 6 r t c t W.d S S E Q ~.~.] ] (.(.#.@.(.(.(.(.).*.,.,.,.'.2.'.1.,.o.o.X.| _ ..U U Q.V e d y 9 > & - - - = - = - = * tXtXtX% % tXtX",
"tXtX* = * O * * > > > > 9 9 r t l r M M E F R P ~.~.M.M.6.[ (.#.(.(.(.(.*.*.,.,.'.'.#X'.,.=. .*.| ).^.[ Y Y Z V b e 9 9 1 > & > * - = % * - = % = - % % % % ",
"* = = * = * = * i > > > 9 9 l l b d S S U ~.` /.] ..(.9.| #.-.-.*X:.o.*.'.'.,.,.,.DX<.'.,.2.*X*X&.X./.[ L ~.A C M e e 9 4 ; - & = * * - - * % % - = tXtXtXtX",
"= * * = * = * = = : i > r r k z b b C F Q Q ^.......(.(. . .;.>.1.'.,.'.'.DX'.DX<.<.#X'.;.<.2.*XX.&.^.(.E E A S b M r 9 ; 3 > - > * - = = - - - = - tXtXtXtX",
"* = i = = : * : > > 0 3 r t b b m N F R Q '  .| ).).9.'.;.1.$Xp.2.2.2.2.#X#XDX#X#XDX<.<.<.<.2.$X=.*.} X.W [ L A S M k k 0 9 ; & - - > - - * * tXtXtXtXtXtXtX",
"> * i = = = i = > > > 0 r l l z C F L I W ' X.&.o.o.).).=.1.2.#X2.2.2.#XDXDX#X#XDXDX<.<.2.2.0.2.'.1.} ).! ] L I F N b e 0 0 ; 3 = > * = % = % = * tXtXtXtXtX",
"= > : = > : = > > > 3 0 r t m V J K L W /.#.-.,.'.1.*X*X$X$X&X&X$Xp.#X4.#X#X#X#X#X<.<.#X#X$X*X#X8.'.`.'._ ' U U K A C m e r 9 ; ; ; > > - - = tXtXtXtXtXtXtX",
"O i > O O i = i > > 3 0 r t b V Z K R ~.#.(.,.=.=.,.*X$X$X*X$X0.&X$Xp.2.2.#X#X#X#XDX#Xp.$X$Xp.2.8.#X:.:./.' Q Q E I C m t w 0 9 > > > tXtXtX* * tXtXtXtXtXtX",
"tXtXtXi > * i = 0 7 0 r t l m V T L W [ &.&.,.,.4.2.&Xd.a.a.f.&X$X$Xp.p.#X#Xp.p.#X#X$Xp.$X$X2.0.#X$X1.8./.$._ _ ~.Q K J n x w w > > > & - > * - tXtXtXtXtXtX",
": i > > : > = > i 0 0 t b b V C Y Y _ ] `.#.,.<.$X$Xa.&Xf.a.d.d.4.%X%X$X9XtXtX9XDXp.&X&X$X$X$X$X8.*X8.8.`.#.' [ ~.Q P K V m w z 3 3 > > > - = > tXtXtXtXtXtX",
"> 3 > < = i O i > 3 t t l W.I 7X_ Q O.O.,.*.3.>.w.w.s.d.d.f.y.-X;Xd.%X%X$X%X9X%X9X%X%X%X%X&X&Xd.&Xa.$X&X2.].X.X.{ { ) U Z Q.k t 8 r 7 7 ; ; - = tXtXtXtXtXtX",
"i i > i < < > = 3 0 w t l m K I ] ` O.O.,.*.[.3.a.s.d.d.d.d.d.e.g.:Xg.&X%X9X9X%X%X%X%X&X&Xg.&Xg.&X&X X&X>.8.:.:.{ } ] W A A l l r r 8 7 > ; & > tXtXtX= * - ",
"3 > > i = i i < 0 3 r t V V I I _ _ O.O.,.*.[.[.+XOXs.d.-Xd.y.-Xd.d.g.s.=X%Xq.4.%X%X;X&X;X;Xs.d.d.d. Xd.8.0.1.9.| } ^.` U P J Q.l l r r 7 6 - - = = tXtXtX- ",
"> 0 < i > O = < 3 0 e l z V Z F _ _ O.O.'.,.|.[.w.w.d.d.:Xd.-X+X:X:Xd.g.g.;X;X=X%X=X;Xd.g.;Xd.;Xd.a.d.f.XX$X8.8.| X./.^.Q U I Z l l c w 7 6 ; - - tXtX= = - ",
"i i 3 > < i = i 3 3 e t b V Z I _ ^.,.O.'.,. X|.w.w.-Xd.-Xd.h.@XkXg.g.g.g.:X:Xd.:X:X:Xd.;Xd.-Xs.OXa.e.w.8.XX>.:.| | X.+.` ` U Y l z l r r 6 6 ; - = tXtXtX- ",
"3 7 i > > > < = > 0 w l m V A K _ _ ,.O.<.'.w..X+XOXd.;Xd.d.@Xh.g.g.ZXg.g.g.g.g.:X:X:Xg.;X;Xd.s.OXw.+Xw.XXXX8.>. . . .+._ ^.L U l b c r 9 6 > : - - & = = - ",
"> > 3 i < > > > 7 3 r t m m Z I [ _ O.o.<.'.s.s.OXOXd.d.d.:X@Xh.g.kXg.kXf.h.h.f.:Xd.:Xg.:X;Xs.s.s.+Xw.w.XXXX8.>.#.&.=.o. .X.` U m c r c r tXtX; & tXtXtX- - ",
"i > 3 3 > = > > 3 3 r t l V V D [ _ ,.O.'.<.a.d.@XOX-Xd.d.f.-X-XkXg.g.g.:Xd.h.:Xh.:Xg.:X:X;Xs.s.+Xa.w.w.XXXX>.>.#.=.*.o. . .` U l l l r 9 6 7 ; > = = = - = ",
"3 i i < > > 3 > 3 0 r u l b W.W.W _ :.o.<.1.OXs.@Xs.d.d.;Xd.@Xy.L.L.>XZXe.e.z.j.g.h.:Xg.>X>X;X:X+Xd.e.w.XXw.>.>.+.-.*.,.o.o.+.+.l z l w 7 6 > ; - = tXtXtX= ",
"i 3 < i i < < i i 0 r t l W.W.D W ~.1.o.<.,.q.s.OXOXs.d.d.d.>X+XL.L.>XZXe.y.H.1Xh.f.:X;X;X;X;X-Xd.a.a.d.a.d.2.>.1.-.O.,.o.o.+.+.D z r l 9 9 ; ; > - tXtX- - ",
"3 > i 3 < i 3 > 0 7 0 r c l W.W.Q ~.:.).-.=.4.s.OX@Xs.s.-Xd.@Xh.ZX,Xh.h.l.I.b.b.y.-Xg.;X;X;X-X+XOXs.a.a.a.a.>.;.=.=.&.*.o.O.) +.V l l w 6 9 ; ; = = tXtXtXtX",
"3 < i < > > 3 i > 7 r u t l l W.Q Q ).(.<.=.q..XOXw.d.d.d.d.@X@XL.ZX@X@X1X1XH.b.f.OX>X;X;X;Xe.+XOXOXa.a.XXa.>.>.;.&.tXtXo.o.) ) b k z z 8 6 6 ; = tXtXtXtXtX",
"< i 5 i < i 3 > i 7 9 r r l c W.P L (.(.:.&.[.|.q.oXd.s.s.s.OX@Xh.j.j.l.Y.3Xb.3XOX+X-X;X;X;XOX+Xd.OXa.s.XXa.:.>.=.:.o.o.| /.U J tXtXtXw 9 9 ; ; = & tXtXtXtX",
"i > > > > > < i > 7 0 r r u W.W.Y L (...=.#.3.[.w.q.s.s.a.s.@XOX@Xt.I.z.F.F.b.F.-Xe.;X;X;X>Xf.+Xs.s.a.%XXXXX;.>.X.=.*.).(.^.!.!.n l k z 6 6 6 6 % % tXtXtXtX",
"< i i < > > > > > 7 9 0 r l l b Z A ..] :.#.3.3..X.Xs.a.s.d.OX@Xy.y.qX2XF.c.S.S.e.d.-X:X>X-X@X+Xs.@X+X.X X X;.>.&.X.).X.[ ~.T Q.z l w tXtXtXtXtXtX- - - tXtX",
"i > > i > < i > 7 7 0 r r u l l K Z ` ^.#.#.3.3.s.a.s.a.d.d.@X+X}.u.2X2XA.x.F.n.+Xf.d.-X-X-Xs.OX-Xs.OXw. XXX#.&.&.X.).X.] W P J tXtXt 9 # tXtX& - = - & - - ",
"> > i < i = = = i > > i 5 0 u u x x ) ) :.&.4.5.k.L.k.k.L.>X@X+Xl.1X3X3XT.T.S.U.U.f.a.f.s.s.OX@X@Xq.oXoX$X$XX.+.;.:./.(.Q W Z Q.r r 7 tXtX; - & - - = - * - ",
"> i i i i = i = = i 3 3 0 u u t x D ) ] #.=.5..X,XhXk.kXZXL.>Xr.l.l.3X3XdXS.3XS.j.I.w.a.OXs.@X@Xw.q.oXq.0.0.o.o.X.;.).(.P P Z P r r 6 6 ; 6 = - - - * - $ - ",
"i O = i i i i = > i = > > u u u x c T Y -.-.5.Z.k.hXhXk.,XhX,XhXA.F.8X8XgXgXS.T.1X1XK.XX|.-XOXq.OXq.q.|.p.$X,.o. .#.(.(.P v Q.C 9 7 6 > - - & = - * - - - - ",
"i i = = O i = * i = > 3 3 i 0 8 z c T L -.3.5.9XhXhXhXhX,X,X,X,XF.F.T.n.yXyXyXA.U.1X+XXXs.OXOX{.q.OX|.|.<.<.O.,.| | ^.^.!.S j M 8 7 tXtX; > > = - - - * - - ",
"O i FXi * $ = i > = i > 0 0 u 0 t b C Z #.-.5.3.hXhXk.,XL.L.<X<X3X3X3XS.yXyXP.A.b.z.0Xj.L.ZXi.<X@X>X X.X<.=.*.'.(.^.U U n V z w 7 7 > : & - = - - - % * - - ",
"i O i = FXi = * > 3 i > > > > u t l Q.C %.%.-.-.Z.hXk.k.=Xr.>X<X3X3XT.A.gXP.A.gXD.D.H.H.ZXZXj.<X>XZX X0.-.=. . ...^.!.U Q.Q.c 8 6 7 : 6 > - * = - - - - % * ",
"O * = i i i O i > > > > > 3 i u u u M S ! ! CX=.<.xX9Xg.>Xd.e.j.z.U.x.P.uXuXqXc.v.qX1XH.ZXZXi.i.j.j.q.[.=.#. .{ U U Q.J c l 7 i > 7 - > > : = * - ; - * - ; ",
"i i i O O i i O > > > > 0 3 i 0 q u Q.v !.MX#.=.-.<.9Xg.>Xd.e.1XH.z.BXx.P.dXc.c.tXtXtX0Xt.t.u.u.j.ZX3.3.#. . .' U T J Q.c c 8 i 7 > : - : - * = : - - - % $ ",
"= tXtXtXtX< > = i i > 0 > > i 3 c c zXD Y U #.| #.=.5.-.q.q.i.j.U.F.D.b.S.S.3Xx.v.v.j.h.i.i.t.i.y.oX_._.[ $.W W T J m l c r 7 : 6 tXtX> - - > = = % - = = - ",
"< < i = = i > = i < 3 > > 0 > u c c D T U U  ./.CX#.3.3.q.q.>XZXb.b.F.2Xn.F.c.x.v.H.j.h.ZXu.t.t.OX}._.$.' ' Y U T J x x r 8 i : ; ; - - - > - - - - - - - - ",
"i = = tXtXtX= i 3 3 > 0 > > 3 7 HX0 l w n v R MXCXC.Z.r.hXZ.,X,X1Xz.qX3Xc.c.Y.Y.z.z.}.y.u.u.}.{.6.6.] tXtXY Q.Z m M t tXtXtXtX> tXtX- - > - - - - % - - - - ",
"= i i * < i i > tXtX> > 0 tXtX> c i W.c v M H R C.C.sXr.hXhXk.,X1Xz.Y.3Xn.tXtXY.z.z.rX}.ZXt.7.C.$.].[ ] Y tXtXK m n r 9 7 7 tXtXtXtXtX* = - > = - - = - - = ",
"= > = i = > > = > > > > > 3 > 0 aXaXwX/ wX/ 6X6XlXeXr.{.L.kX,X,X<XZXBXz.Y.n.BXl.rX}.{.oX]._.@.@.U ~.T U V Q.l m r q 7 > > > ; > - = - > - > - - = * - - - = ",
"i = = = i > i = 3 7 3 7 > > 7 > a N.m.G.m.G.m.G.lXlX{.7.g.>X,Xk.t.i.u.BXqXqXz.l.7.nXK.[._._._.%.Q tXtXT Z Z l l q 9 > > > ; tXtX= > > - - & - - - = = - - * ",
"> = i = : > > > > 6 3 > > > > i a LXcXwX6XV.^ G.( ( eXlX6.6.K.9.t.j.u.u.NXl.eXrXM.6.@.@.E R S S S v # M b M 1 9 0 3 6 > > > - > - - - > > - - = * - - - - - ",
"= i = > > > > > 3 > > > 3 > 3 3 a N.G.V.6XwX^ ^ 6.( eXJ.6.~ 9.$.t.<XrXrXl.l.7.7.6.6.' @.R R S S S N # k d b 1 1 3 3 > 7 ; > - - tXtXtX- > & - - % tXtXtX= - ",
"tXtXtXtXtXtXtXtXtXtXtXtXtXtXtXtXtXG.AX^ V.V.6XcXcXG./ wXB / / / ( ( ( G G G G H F E F B N C W.d h f aXf y q 9 9 3 ; > tXtXtX* - * * tXtXtXtXtXtXtXtXtXtXtXtX",
"tXtXtXtXtXtXtXtXtXtXtXtXtXtX= > 7X^ tXtXV.V.wXG V.V.wXwXB / G / / E H S N S N N F F B D N M N M N f f a 2 2 9 9 ; > > > > - > > * tXtXtXtXtXtXtXtXtXtXtXtXtX",
"tXtXtXtXtXtXtXtXtXtXtXtXtXtXtXtX^ AXtXtXtX^ 6XmX6X6X6XwX/ tXtXB B B N M N N M N N M d f f e f h N B B R.4 q 2 < > 1 > > > : - - - - tXtXtXtXtXtXtXtXtXtXtXtX",
"tXtXtXtXtXtXtXtXtXtXtXtXtXtXtXtX5X^ vX^ 6X6XbXbXmX6X6Xm.B 5XN h N h M M VXM f N h M d d y f d W.h tXtXB g q 4 , 1 & & & : : * : = * tXtXtXtXtXtXtXtXtXtXtXtX",
"tXtXtXtXtXtXtXtXtXtXtXtXtXtXtXtXE.bX^ ^ bXvXbX^ 6XV.6XG.5X5Xf f f f d f f e f y 2 y a f f f f h h s s R.R.E.u 3 & , = > > : > * - * tXtXtXtXtXtXtXtXtXtXtXtX",
"tXtXtXtXtXtXtXtXtXtXtXtXtXtXtXtXtXtX^ ^ vXbX^ bXV.V.wXwXB 5Xa a y f e f e y 2 aXaXaXaX2 aXa g h a KXa s R.g g s o & - > > : * - tXtXtXtXtXtXtXtXtXtXtXtXtXtX",
"tXtXtXtXtXtXtXtXtXtXtXtXtXtXtXtXtXtX^ tXtXvXbXbX6X^ 6X6XR.R.2 2 4 4 q 9 1 2 1 jXg g a a f h R.B R.R.s s s s s g o , & & : = & > tXtXtXtXtXtXtXtXtXtXtXtXtXtX",
"tXtXtXtXtXtXtXtXtXtXtXtX> > = & vXtXtXtXvXtXtXtXbXbXmX6XR.5XjX1 < jX1 , , 1 2 q d q 2 jXa h R.R.R.R.s s s B.s g o & ; - = - - - - * tXtXtXtXtXtXtXtXtXtXtXtX",
"tXtXtXtXtXtXtXtXtXtXtX> > > > & E.AXE.^ ^ bX^ V.vXmXvXR.s jX< < tXtXtXtXO & 3 < 3 3 N.B.B.tXtXtXB.FXtXtXE.tXtXtXO o & ; & - & ; tXtXtXtXtXtXtXtXtXtXtXtXtXtX",
"tXtXtXtXtXtXtXtXtXtXtXtXtXtX& & HXE.E.^ ^ ^ ^ ^ mXR.s B.B.B.= B.= O X tXtXo < , , , < B.N.a a s s s FXs 5 E.5 FX= = & ; - - - & tXtXtXtXtXtXtXtXtXtXtXtXtXtX",
"tXtXtXtXtXtXtXtXtXtXi 3 > > *   O O 5 5XE.5X5XvXtXtX< tXtX< O & X X   tXtX% % , & tXtX= B.5 5 g s s tXtXtXtXB.N., , ; ; - * - * tXtXtXtXtXtXtXtXtXtXtXtXtXtX",
"tXtXtXtXtXtX> > > > > > > - % . O O u E.vXvXvXvXg 5 O tXtXtXO X X 4XtXtXtX+ + % O & o & o tXtX4 s E.R.s 5 FXN.o & @ & ; - : - - tXtXtXtXtXtXtXtXtXtXtXtXtXtX",
"tXtXtXtXtXtXtXtXtXtX< > > > %   pX4XX * O o o o < & O % tXtXtXp + p % p tXtXtXtXtXtXtXtX- & & 1 FXtXtX5 B., & o . 4X% ; = tXtXtXtXtXtXtXtXtXtXtXtXtXtXtXtXtX",
"tXtXtXtXtXtXtXi > > i tXtXtX= X $ O = = & o o o O o X O tXtXtXtXtXtXtX- % @ - + + + %   . . , < < 5 5 tXtXo o o pX4X% ; % - * tXtXtXtXtXtXtXtXtXtXtXtXtXtXtX",
"tXtXtXtXtXtXtXtXtXi > > > > > %   pX4Xp pX4X. +     %   - + p % - > > ; & 3 - 4X+ + 4X  + + @ % = = & & & & . X tXtX= ; - - % tXtXtXtXtXtXtXtXtXtXtXtXtXtXtX",
"tXtXtXtXtXtXtXtXtXtXtXtXtXtX= = & % % %   .   . % + X X ; * % p tXtXtXtX3 ; - 4XtXtXtXtXtX  + % O X X . .   4X% - - % - - : * tXtXtXtXtXtXtXtXtXtXtXtXtXtXtX",
"tXtXtXtXtXtXtXtXtXtXtXtXtXtX> > > > = * tXtX4XpX> > > = > > > > > > > : > > - > > = % 4XtXtXtX% tXtXtXp   +     + + - = tXtXtXtXtXtXtXtXtXtXtXtXtXtXtXtXtXtX",
"tXtXtXtXtXtXtXtXtXtX> > > > > > > > > > = % X % > > 3 > > > = > : > = > > > - tXtXtX% % p 4X4X4X  4X4X4X4X4X4X+ + % % - * tXtXtX* tXtXtXtXtXtXtXtXtXtXtXtXtX",
"tXtXtXtXtXtXtXtXtXtXtXtXtXtXtXtXtX> tXtXtX= > > > > > > > > > > > = > = > > > > > > * + 4X4X4X4X4X4X4X4X4X4X  4X+ = - * * * tXtX= tXtXtXtXtXtXtXtXtXtXtXtXtX",
"tXtXtXtXtXtXtXtXtXtXtXtXtXtXtXtXtXtXtXtXi tXtXtXtXtXtXtX> = > > > > : > = > > = > - * * % % p % % - + + + + % - % - = = * * - = tXtXtXtXtXtXtXtXtXtXtXtXtXtX",
"tXtXtXtXtXtXtXtXtXtXtXtXtXtXi i u > > i i < tXtXtXtXtX> > > = > > = > > > - > > > - - * - = > : - = - = * % - & tXtX- * = * * * * tXtXtXtXtXtXtXtXtXtXtXtXtX",
"tXtXtXtXtXtXtXtXtXtXtXtXtXtX3 > > i > 3 > 3 > > > > > > > > : > > > > > > > > > > = = > > > > > - > > & > > & > > = = > = = * - - tXtXtXtXtXtXtXtXtXtXtXtXtX"
};
