/* XPM */
static char *_a20353eb8434bd2f1c2a8740e7404e78vAgghH6n4FzEMlb_19[] = {
/* columns rows colors chars-per-pixel */
"78 86 256 2 ",
"   c #221D1D",
".  c #271D1A",
"X  c #24221D",
"o  c #2B231D",
"O  c #2A291D",
"+  c #231E21",
"@  c #291D28",
"#  c #321B36",
"$  c #1B2C29",
"%  c #252425",
"&  c #2A2524",
"*  c #252926",
"=  c #2A2925",
"-  c #262529",
";  c #2A262B",
":  c #26292A",
">  c #2B2A2B",
",  c #332523",
"<  c #342A24",
"1  c #33252C",
"2  c #3B242C",
"3  c #322A2D",
"4  c #3B2B2B",
"5  c #3B312A",
"6  c #2C2532",
"7  c #2D2A32",
"8  c #2B2638",
"9  c #322634",
"0  c #332A34",
"q  c #3B2B34",
"w  c #34253B",
"e  c #3A253C",
"r  c #352B3A",
"t  c #3A2B3C",
"y  c #3C2433",
"u  c #383138",
"i  c #283332",
"p  c #1D1F20",
"a  c #432B2A",
"s  c #46352B",
"d  c #442A3B",
"f  c #462837",
"g  c #493735",
"h  c #522E37",
"j  c #381C4A",
"k  c #3B2543",
"l  c #3C2B43",
"z  c #392747",
"x  c #3C2653",
"c  c #342E47",
"v  c #4A1C52",
"b  c #432B44",
"n  c #43254C",
"m  c #432B4B",
"M  c #492947",
"N  c #542A48",
"B  c #573748",
"V  c #452B53",
"C  c #4B2C54",
"Z  c #4C2B5B",
"A  c #532C5C",
"S  c #552857",
"D  c #4A3256",
"F  c #573358",
"G  c #653857",
"H  c #692E54",
"J  c #4B2865",
"K  c #542B63",
"L  c #5B2C6C",
"P  c #572768",
"I  c #583367",
"U  c #5A2976",
"Y  c #5B3375",
"T  c #4C306C",
"R  c #652969",
"E  c #663569",
"W  c #632C7C",
"Q  c #662A78",
"!  c #752A79",
"~  c #763679",
"^  c #6A5446",
"/  c #694657",
"(  c #764A6B",
")  c #5B2C85",
"_  c #6B2C84",
"`  c #662886",
"'  c #752B8A",
"]  c #6A3387",
"[  c #763489",
"{  c #6C2A94",
"}  c #742C9B",
"|  c #7B2C9C",
" . c #792897",
".. c #6B3395",
"X. c #7C2CA3",
"o. c #7929A7",
"O. c #772CB0",
"+. c #6D1D92",
"@. c #863789",
"#. c #842B9A",
"$. c #863599",
"%. c #8F2D8C",
"&. c #832CA4",
"*. c #832CAB",
"=. c #892BA9",
"-. c #952AA9",
";. c #8C33AB",
":. c #8836A8",
">. c #9638AA",
",. c #882CB5",
"<. c #952DB7",
"1. c #8C32B3",
"2. c #9737B7",
"3. c #A639A8",
"4. c #A53AB9",
"5. c #B12FB3",
"6. c #924892",
"7. c #AA4E99",
"8. c #9B44B6",
"9. c #8D49AB",
"0. c #A646B7",
"q. c #B74BB7",
"w. c #B453BC",
"e. c #B965B8",
"r. c #C64BB8",
"t. c #CF53B4",
"y. c #C665B9",
"u. c #CD6FB4",
"i. c #DA5BB3",
"p. c #A539C5",
"a. c #B453C3",
"s. c #BC54C4",
"d. c #BB57C8",
"f. c #BB67C5",
"g. c #C857D4",
"h. c #C865C6",
"j. c #D370CD",
"k. c #ED4FE8",
"l. c #CD8BB8",
"z. c #E991D2",
"x. c #D2AFCF",
"c. c #E5B8C9",
"v. c #F9A8E7",
"b. c #EEB0EC",
"n. c #EBCBD4",
"m. c #774A57",
"M. c #774590",
"N. c #35281D",
"B. c #3B2C24",
"V. c #74554A",
"C. c #A83595",
"Z. c #CE37CD",
"A. c #D8B9C9",
"S. c #D9B9D5",
"D. c #E7A9D8",
"F. c #E6B7D7",
"G. c #785655",
"H. c #F392EC",
"J. c #753469",
"K. c #AA54A9",
"L. c #D44ED2",
"P. c #D1B6B7",
"I. c #C987C7",
"U. c #DAA3E3",
"Y. c #F8B6D8",
"T. c #D4C4CF",
"R. c #533B39",
"E. c #514334",
"W. c #473248",
"Q. c #472557",
"!. c #521C6A",
"~. c #673378",
"^. c #6C2B8B",
"/. c #732C94",
"(. c #783397",
"). c #7B33A5",
"_. c #963899",
"`. c #8332A4",
"'. c #8934B7",
"]. c #9945A8",
"[. c #A749AA",
"{. c #B54BAA",
"}. c #B656AA",
"|. c #AC4CB4",
" X c #AC4CBB",
".X c #B34DBC",
"XX c #AC53B7",
"oX c #B453B4",
"OX c #BB53BC",
"+X c #B958B7",
"@X c #C557BA",
"#X c None",
"$X c #AA46C4",
"%X c #B74AC6",
"&X c #B350CD",
"*X c #9C45C4",
"=X c #C64BC7",
"-X c #C354C4",
";X c #C355CB",
":X c #C45ACB",
">X c #C859C7",
",X c #E94FD2",
"<X c #E96ED3",
"1X c #D48ECF",
"2X c #FAB7E6",
"3X c #F6CDE9",
"4X c #1D1C1C",
"5X c #5B4546",
"6X c #684A46",
"7X c #5F4F64",
"8X c #ECDBE0",
"9X c #B234CA",
"0X c #F471EB",
"qX c #F3ACD1",
"wX c #6F4F50",
"eX c #884C72",
"rX c #B16899",
"tX c #B98DC9",
"yX c #BAC5B2",
"uX c #DFC4B5",
"iX c #68431E",
"pX c #1A1817",
"aX c #381C29",
"sX c #CE28AC",
"dX c #D8C3C8",
"fX c #BAB0A7",
"gX c #D1C5B7",
"hX c #E839DD",
"jX c #3A2425",
"kX c #D657E4",
"lX c #8A3275",
"zX c #2F2B5C",
"xX c #B425CF",
"cX c #835558",
"vX c #594739",
"bX c #69503A",
"nX c #B46BAC",
"mX c #64493A",
"MX c #6B1B64",
"NX c #B88AB4",
"BX c #E3AAB7",
"VX c #4D1732",
"CX c #9B1998",
"ZX c #D658C7",
"AX c #534652",
"SX c #8E626C",
"DX c #922EC4",
"FX c #342F19",
"GX c #513398",
"HX c #37444E",
"JX c #971A60",
"KX c #611828",
"LX c #341419",
"PX c #B91242",
"IX c #170617",
"UX c black",
/* pixels */
"#X#X#X#X#X#X#X#X#X#X#X#X#X#X& > , + # w # w # 8 8 # 7 7 = > > > = < = > > > 9 9 ; # > 7 2 y 9 # % - = - % % + % - - - - % % % - #X#X- % - % #X#X#X% + % % p ",
"#X#X#X#X#X#X#X#X#X#X#X#X#X#X; ; , . 2 y # j k w 8 w : 7 > > > > > < = X 7 7 9 9 9 3 > 6 y # 2 aX- % % % % % % % - - - - - - - * * #X#X#X#X#X+ % % #X#Xp p % ",
"#X#X#X#X#X#X#X#X#X#X#X#X#X#X3 ; < @ y r w k z w w 8 8 9 7 7 9 9 5 FXi i j # j j Q.J z j e # # # 6 @ - + O % % % % % * - % - * - * % % + % % - % % + % % % + ",
"#X#X#X#X#X#X#X#X#X#X#X#X#X#X; ; 1 & 9 y # # # k w z w w 0 0 0 7 O i i u 8 c x V I P C x e e e e 9 6 ; - % & % % % % % * % - - - - #X#X#X#X#X#X#X% % % #X#X#X",
"#X#X#X#X#X#X#X#X#X#X#X#X#X#X3 ; 1 @ k k x x 7XI x z k z l r l 9 r 9 c c x x J T MXQ !.A z 8 w 8 # 9 ; @ = #X#X#X% % % - - % * % % % % #X#X#X#X#X#X% #X#X#X#X",
"#X#X#X#X#X#X#X#X#X#X#X#X#X#X3 > 9 1 k e z x 7X7XD m l l l c t t r r c c x x J T ! Q U P l k c 8 9 w 6 - & % % - & - * * % - % % % - - + % - #X#X#X#X#Xp #X#X",
"#X#X#X#X#X#X#X#X#X#X#X#X#X#X6 > 9 3 b l j x 7XM.I I n n l W.c l N N Q.A T U U ` +.%._ Q x x c 8 k # 9 # % - = - * #X#X% % ; - % - % % % + % - % % % % % % #X",
"#X#X#X#X#X#X#X#X#X#X#X#X#X#X; 0 ; 9 n m Q.T 7XM.7XY C C z l r w H N Q.Q.U U ` ^.#.#._ _ D zXz z z w 9 9 & ; - * % % - = % % % #X#X#X% % % % + % % + p + + % ",
"#X#X#X#X#X#X#X#X#X#X#X#X#X#X#X7 0 0 m m ~.~ $X8.$.M.C #X#X#Xf f H H MXJXJXCXCXCXCX=.+.+.I J b M x z w w ; # ; - * * % % * - - #X#X#X#X#X- % % #X#Xp + #X#X#X",
"#X#X#X#X#X#X#X#X#X#X#X#X#X#X#X#X9 t W.m ~.~ 8.0.M.(.Z Z m l M M H KXKXH CXJXCXCXCXCX} { I J S M n m l t 9 ; ; - - * % - - - % - #X#X#X* % - + % % % % p #X#X",
"#X#X#X#X#X#X#X#X#X#X#X#X#X#X#X#X8 i D m [ ~ >.9.).(.J J Z C S F U !.JXCXJXCXCXCX-.>.(./.W U S S S Z k k e 9 ; 3 = = - * % - * % * % % % % % % % + - % % % #X",
"#X#X#X#X#X#X#X#X#X#X#X#X#X#X> 0 7 7 D m ~ [ :.:.(...I I D A F F R Q ! %.sXJXCXsXC.>.(.} ~.L S S A A n b 9 9 & - - % = - - - * = - = = * % % % % #X#X+ #X#X#X",
"#X#X#X#X#X#X#X#X#X#X#X#X#X#X#X0 i u W.e R L [ ] [ ` I P F I I I ` ^.#.#.CXCX5.C.>.-.(.| ] _ MXP L R b n t e 9 3 , & - = - - = = - * * % % % % % % % + - #X#X",
"#X#X#X#X#X#X#X#X#X#X#X#X#X#X#X> 7 7 b 9 S S ~ ! _ ` T I I I I / ' /.#.#.CXCXsX5.3.-.).| ] ] S R P R C C b l q 9 ; & % - = - = - = = - - % % % % % p % p - #X",
"#X#X#X#X#X#X#X#X#X#X#X#X#X#X#X7 > 9 d # C C R E Q R I R E Y ~ ~.X.).O.:.%._.5.3.0.3.:.:./.^.Q R Q W A Q.C n e 2 9 # @ 9 & - - - - - #X#X#X#X+ #X#Xp % + % + ",
"#X#X#X#X#X#X#X#X#X#X#X#X> > 3 i 0 0 r 9 S M P P !.L I L E ~ ~.~.o.).).O._.>.3.5. X4.:.:.(.(.! ! Q ! P P D m b t 9 9 6 3 ; - % - * - #X#X#X#X#X#X#X% % - + + ",
"> > > = > > > > > > ; > > > 7 7 7 0 t r C C A A S R R ~.[ [ [ $.#.=.2.<.>.>.3.|. X0.>.>.>.;.*.o. . .U ` P P D n t w 9 6 > ; ; - - - - - - % @ - % % % % X $ ",
"> > > > : > - > > ; > > > > 7 7 r 7 t t C M A C R H ~.~.] ~.(.[ =.=.>.-.3.>.0.0..X.X>.0.>.2.=.*.} /.W ` Y Y D m l l 9 9 7 ; ; ; ; ; - * % % % % % % % % % % ",
": : > : > : > > > > > > > > 9 0 r r l z Z Z K K Q Q ..[ (./.#.&.;.=.2.-.0.4.|.3.%X0.>.0.2.4.;.&.X. .` ' E E A M b M e e 9 6 ; 6 ; - - ; ; - - - % % X % % p ",
"> : : > : #X#X= > ; > > > 7 9 0 0 u m m Z Z I Y ~.~.[ (.' (.&.&.=.>.-.2.0.0.0. X.Xw.4. X2.4.<.1.&.} ' ' ~.~.F A m n t w 9 6 6 : ; ; ; - - ; - - % % % % % % ",
": : : > : > > > > > #X#X#X> 0 0 t u V C T T Y W ^.[ (.(.X.=.2.1.2.2.p.4. X0.q..Xw.a.w.%X2.4.2.1.&. ./.(._ ~ I A C C n k r 9 7 7 > ; ; ; ; - - - % % % $ p + ",
"> > : : > : #X#X#X> > > > 7 r r l b V D K I ~.] _ _ (.} *.`.2.<.2.4.$Xp.$X0.a.s.a.:Xd.d.$X4.2.0.#.&./.`._ [ E L S S m b 0 0 7 ; ; : ; ; - ; - - #X#X#X#X#X#X",
": > : > > : > > > #X#X#X#X7 #X#Xl V V Z L U ^.^.{ } :.1.2.2.4.4.0.4.%X Xs..Xd.d.d.:Xd.d.0.4.0.>.;.;.&.:.(.(.~ ~ E K Z n k w 6 6 6 6 ; ; ; - - - * % % X % p ",
"> * : > : * > > > > > > 7 7 r r l l Z I U ~.^.^.} (.>.9.4.4.4.0.4.4.$X$Xd.d.:X-Xd.d.a.a. X%X2.4.2.;.:.;.6.(.[ ~.~.E D V l k 7 7 7 8 ; ; - ; - - - #X#X#X$ p ",
": : > : = > i > > > > > 7 9 t t !.!.) ) { { O.O.} ).2.8.5.|.q.5.%X.X%X%Xs.;X:Xd.:X-Xa.a.s.%X4.3.2.8.2.9.:.:.M.M.] ~.I J V x c z 7 7 ; ; ; ; ; - * % $ % % % ",
"> > = > > = = > > = > > 0 0 t l !.) ` ) { { O.O.O.).8.*X4..Xq.%X%X%Xs.;X;X;X:X:X:X-Xs.w.d.a.0.4.8.2.8.8.9.].9.M.] ] Y I D V c w 7 0 > ; > ; * ; * % % % % p ",
"i : #X#Xi = > > #X#X#X> 9 r u W.!.U +.{ } ..:.:.:.>.8.0.{.q.q.OX=X-X;X>Xg.>X;X:X>X:Xs.OX-XOX|.0.0.].0.XX|.[.9.9.).} ..] P J x z 7 > 6 > ; : ; - * - % % $ % ",
"= > > : = i > > 7 #X#X#X0 r u l ) ) GX+.} ).1.:.;.1.8.$Xq.OX@X@X-X;X;Xg.>X>X>X;X;X;Xs.d.OXs..X.X X X8. XXX0.XX*X).).....Y J V j 7 7 > ; 6 - ; - % - % % % % ",
"> : : i #X#X> > > > > 0 0 t l W.!.` { +.o.X.:.>.].]. X X Xw.-X>Xg.>Xg.>Xg.:X;X>X:X:X:X:Xs.OXOX.Xq.w.|.|.XX|.8.XX:.).).{ W U !.v 0 > > > ; ; - - % = * % % % ",
": > > > > > > > > 7 7 #X#X#Xl W.U U +.{ X.).9.>.].8. Xw.w.w.f.@X:X>X>X>X>X>X>Xg.:Xh.j.g.-Xs.s.OXw..Xw.w.XX8.8.8.:.).} { W U J Q.7 7 7 > > : ; - % % % % p $ ",
"> > i > : i > > 7 i 0 0 r t W.m U U  ./.| ).9.].[.|. Xw.w.#X#Xd.:X>Xg.;Xg.>X>Xg.g.g.j.0Xg.:Xs.OXq.w.XXoXXXXX0.].:.`.} o.+.GX!.!.7 7 7 6 ; ; - * % * % % % % ",
"#X#X#X#X> > > > 3 > 0 q t u l W.U Q /.{ (.).>.].0. Xa.a.s.s.s.-X>X>X>X>X>Xg.:X:Xg.d.j.j.h.:Xs.OXXXoX|.oXXXK.a.8.`.| o.o.{ ) ) !.7 7 7 7 ; ; - - * % % % % #X",
"#X> = = = = i < i > 0 u u l c D K I ~._ | (.1.'.0.a.w.OXd.d.+X-X-X-XZXg.>Xh.@Xy.tXtXf.tX&X&Xf.&X|.w.XXXXXX8.:.9.#.#.' [ R I M M 7 7 7 7 - > - - #X#X= * % % ",
"> = i i = i = > 3 > 0 0 l l D W.K I ~.~.} (.1.1.8. X%Xa.+X+Xd.h.@X>Xg.>Xh.:X@Xe.U.tXtXkXf.g.a.&X|.a.XX X|.[.:.$.#.| [ (.I L C m 0 7 7 ; - - % - #X#X* - $ % ",
"i > = > > i = > 3 3 0 0 l c D D K L ] [ ).`.,.,.8.$Xw.w.+Xd.OX+Xy.@Xg.g.e.y.l.I.U.b.f.I.&X&X&X&X.X.XXX X8.8.:.:.`.#.[ [ I I m V 7 7 6 : & > - * * * * % X % ",
"> > = i = = i < i > 0 u l l c x L L ] [ (.).'.'.8.$X.Xw.+Xa.e.@X>X@XZXg.e.+X1X1XU.b.f.f.&Xf.f.&Xa.a..XXX[.8.:.`.#.=.$.(.T I c D 8 6 6 6 - & > * - - - % % % ",
"> > = i > > = > 3 i q 0 l l V D L Q ^./.#.:.;.>.2.8..X.Xw.a.OXd.f.+Xf.f.NXNXx.D.F.b.+Xe.d.s.w.w.#X#Xw.XX].8.$.#.#.#.[  .K A V D 7 7 ; - - = % - * - * % % % ",
"i > = = = > i = 3 > 0 0 l l x D Q ~.' (.$.=.>.;.>.8.|.|.w.w.+X+Xe.e.f.f.tXI.S.S.D.x.+Xw.a.a.s.a.w.s.w.w.9.>.:.#.#.#.[ ' J Z x z r 6 : 6 % % % % - * % % $ % ",
"> i i = > i > > 3 3 0 r l c D c ` _ | #.=.;.2.>.2.2.$X%Xa.w.w.w.f.+XtXf.x.S.S.S.D.D.oXw.w.w.w.f.s.w.w.|.$.`.`.| #. .Q ' Z C l r 7 7 6 ; ; % * % % * * % * % ",
"> > > > > > #X#X#Xi 0 q l l c AXW _ (.| :.:.-.2.3.3.%X%Xf.XXe.d.e.e.j.tXS.T.x.x.c.F.XXe.e.a.a.a.s.XX0.|.#._.#.#.#.#.Q ! C C l e 9 6 ; ; ; % & % % & - - - % ",
"> > i = i i = = 3 i q u t l D x /.^.X.).;.;.>.>.4.4.%Xd.+X+XNXl.U.D.T.T.T.S.S.S.x.c.j.j.e.XXf.a.s..X8.[.`.:.`.| #. .Q +.v S q 9 7 6 7 ; - - * - - * * - % $ ",
"> i #X#X= > > < 3 i 0 q l l zXD ^.{ X.X.1.;.4.4..X4.:X;X+X+XI.I.D.U.S.T.S.T.S.A.D.qX1XI.XXXXa.f.a. X[.[.:.].#.| %.#.! Q v M t q 7 7 ; 6 - - - * * - * % % % ",
"> i > < > > i < 3 3 #X#X#X#Xm D { } O.).;.:.0.3..X0.y.e.nXnXx.x.F.F.T.T.T.A.A.dXS.c.1Xe.K.nXa.a.w.q.3.0.>.8.:.o.+.%.MX` M S t q 7 8 6 > > - > - * - * % % % ",
"i < > i > i < i i 3 u r l l c F { { ).).>.;.$X0. X0.h.+XK.e.x.c.F.F.T.T.A.dXA.A.S.S.U.NXe.e.+Xw.q.|.].0.;.8.'.o. .+.!.MXn M t q 7 7 7 6 & ; = * - * - % $ % ",
"i < > > i > > 5 > i 5 r W.c zXAX{ } *.*.>._.XX#X#XOX+XK.nXl.c.S.T.T.A.dXT.A.T.S.S.A.b.x.I.e.+X}.|.|.0.0.8.*X'.1.#.#.+.MXQ.C l e 0 7 7 ; & - - * = = - % % % ",
"3 i i i < i #X#Xu > r u l l x D O.o.*.O.>.>.q..Xs.@X7.}.u.I.S.c.dXdXdXA.dXT.dXS.S.S.S.U.1XI.+XoXq.|.0. X8.*X'.'.#.+.U Q C S l t 8 7 6 7 ; - = * * - * % % % ",
"> #X#X#X#X= i > 3 0 u u c l x D O.O.*.)._.>.q.OXq.@XK.rXD.D.A.uXA.uXdXS.S.A.dXdXT.T.S.S.U.l.K.+Xq.oX|.q. X8.2.-.*.o.` +.!.P z n 7 7 7 6 ; & = - - * - % % % ",
"3 i #X#X#Xi 5 > 0 i 0 u l l x x O.GX:.&.3.>.q.q.}.OX}.}.U.D.dXP.dXdXn.T.dXdXT.c.T.A.S.S.z.I.[.}.@XOX#X#X$X0.8.<.*.=.+.' P P n k 9 0 7 9 ; ; * - * * - * % % ",
"< i 5 > > < i i i 4 r u l l W.W.O.O.O.O.8.0.r.L.L.kXu.1XBXBXuXBXA.dXn.n.uXuXuXuXdXP.T.F.T.x.U.NX+Xq.}.{.{.[.0.2.`.`././.P L v n 9 9 7 : ; > = = * - * #X#X#X",
"#X> i > < i 3 > i 0 0 r c l W.W.O.O.).9.4.$X=Xt.g.kXu.1XqXqXuXuXA.A.3X8XuXP.uXP.dXdXF.c.T.x.U.I.{.@X+X{.[.[.8.].&.:.(.} !.!.v n 0 9 7 7 - ; % = * = - * - * ",
"i < < i < > 3 i 3 7 r u u b c D ) ] #.#.[.q.t.Z.g.kX<X0Xv.qXqXY.F.S.3X3Xn.S.c.n.Y.n.dXdXT.yXBXBX@X}.{.{.[.[.8.>.#.`.(.[ v v j n r #X#X#X> > & & #X#X% * - * ",
"< i < i i > > < 3 7 9 r u c l W.U ) @.%.3.[.r.r.g.g.0XH.v.qXn.Y.n.F.3Xn.S.A.S.c.A.A.A.x.x.x.uXBX}.{.{.{.[.[.>.;.`.#X#X#XQ.v j n 9 7 > ; > - & #X#X#X#X% * * ",
"i 3 > i > > > > 7 > 9 0 r u c W.T I [  ._._.r.r.kXkXj.<Xv.v.n.3X3Xn.n.n.x.A.x.x.x.S.A.c.c.qXuXc.i.j.{.q.[.3.-.$.(.(.Y #X#XQ.z 8 ; ; > > = > = = - * * #X#X* ",
"i > < i < i > = 7 i 9 u t l l W.T I #.%._.%.sXr.L.g.:Xg.v.v.3X3X8X3Xc.A.x.A.c.x.U.S.A.A.c.n.qXBXi.<Xt.}.3.>._.#.).} U Y Q.Q.k 8 7 ; > - - = * % - - - * - % ",
"< > i > i > < #X#X#X0 7 0 r l W.J T { (.$.#.3.4.&Xg.K.nXl.P.P.gXuXuXP.P.A.n.n.F.F.n.F.b.b.b.z.z.u.<Xu.@X_._.#.$.] Y Z T l c 8 7 7 > > = = #X#X= = = - - * - ",
"i > > i i = i * > > > 0 0 u u u T T { ..#.#.-.<.9X=XK.rXl.P.fXgXfXuXP.P.A.n.S.S.S.T.b.n.b.b.z.1Xi.u.i.@X_.%.#.#.] Y J J l #X#X#X> - - : = #X#X#X- - * = - * ",
"* i i * O i = * i > i 3 i 5 u u J J K R [ (.,.<.5.q.$X2.{.}.BXY.qXD.U.S.S.S.n.A.n.n.n.F.x.z.u.y.i.t.OX[.@.#././.T I D x r i 7 i : - > - = - * - = - - - % * ",
"i O i i i = i i i : > 3 3 3 r u Q.Q.P P ' [ -.,.4.9X4.$X}.t.BXqXb.D.b.b.S.3Xc.BXn.n.n.F.x.l.y.nXt.t.+X[.#.#./.^.I J l #X#Xr : ; : - : = * > > = = % * = - - ",
"$ i O i i O = = > > > > i 3 0 u z n N N J.J.#._.5.5.Z.hXL.hX0X0XD.v.2XqXc.Y.qXn.qXqXz.BXj.y.d.w.oX[.$.(._ ) T U D V #X#X#X#X#X#X= > * > - * - - - * - * = - ",
"i FXi $ FXi i = : > i > 3 0 i u k j h N E J._.=.5.5.kXhXhXL.0X<Xz.v.2X2Xn.n.BXY.Y.BXz.l.y.}.XX0.[.3.9.$.^.] U U C #X#X#X#X#X#X#X#X#X= - = > = : = #X#X#X* = ",
"O i O i i i = #X#X#X#X#X#X0 0 u f # G.wXG / lX6.lX7.sXZ.Z.hXk.k.<Xz.v.Y.2XY.1X#X#Xt.i.7.5.C.5.5.@.#._ ] U T J J #X#X#X#X#X#X#X#X#X#X> = - = = * * - = #X#X#X",
"#XO O i FX> = > i > 7 > 0 > i u e aXSX#X#XG 6.@.7.lXZ.sXZ.L.k.0Xz.z.qXY.Y.Y.z.u.i.rXi.}.5.5.<.-.$.[ W W U U T zXd r #X#X#X#X#X#X#X#X* - > - - * % = - * = % ",
"i #X#Xi > i > > 3 > #X#X3 #X#X#Xf , G.G./ m.eX6.eXeXK.7.[.|.}.u.i.u.l.u.1XI.rXrX7.C.{.7.%.lX%.! R P K A V D b b r 0 #X#X#X#X#X#X#X> - - * = * = & % % & - * ",
"#X#X< = #X#X#X#X#Xi 7 3 > 3 3 3 f 1 G.wXwXm.eXlXeXeX6._.].[.6.rXi.z.nXNX1XNX6.6.C.C.7.C.CXlX! ! L L A A m C l t 0 0 #X#X#X#X> - * - = = * - & * % % - * * * ",
"#X#X#X#X#X#X#X#X#X#X#X#X#X7 3 = G.7X^ #X#X#Xm.cXcXcXwXm.#X#XG ( eX( eX( J.J.J.J.( ( F G F G N N B N f h t d u t 0 9 > > > #X#X#X= - #X#X#X#X#X#X#X#X#X#X#X#X",
"#X#X#X#X#X#X#X#X#X#X#X#X#X#X#X= 7XG.6X^ cXcX6XcXcX#X#X6X#X#X#Xm.( ( J.J.H E G J.G E I F S F N N N N f f d d t t 9 6 #X#X#X#X#X#X= * #X#X#X#X#X#X#X- * - - * ",
"#X#X#X#X#X#X#X#X#X#X#X#X#X#X= = 7X^ vXmXcX6XH mXbXV.6Xm.5X/ B N G G H N S N S S H B N N n VXf N #X#X5XB g u q 4 3 3 #X#X#X#X#X#X#X#X#X#X#X= #X#X#X#X#X% % % ",
"#X#X#X#X#X#X#X#X#X#X#X#X#X#X3 = ^ 5X6XmXbXbXmXmXmXG 6XcX/ #X#X#XG B S H B H B H B N N M VXN h N B B / AXW.d q 3 3 #X#X#X#X#X#X#X#X#X#X#X#X#X#X#X#X% % % % % ",
"#X#X#X#X#X#X#X#X#X#X#X#X#X#X; > vXbXV.V.bXbXV.V.V.V.wXG.B 6Xf f h d #X#XM VXf f f M VXh f f h N N h #X#XvX5Xu 5 , & #X#X#X#X#X#X* #X#X#X#X* #X#X#X#X- % % % ",
"#X#X#X#X#X#X#X#X#X#X3 > > > > & vX#X#X#XmXmXV.V.V.cXwXm.5XR.f f W.M N N M N M f f VXf f VXh f h h h a g R.R.g u & #X#X#X#X#X#X#X- #X#X#X#X- #X#X#X#X% % % #X",
"#X#X#X#X#X#X#X#X#X#X#X#X#X#X1 & vX#X#X#XvXiXvXmXbX6XmX#X#X#XjXa 4 a q y 2 4 q a B g g f h R.R.6XvXR.g s g g g s & #X#X#X#X#X= * #X#X#X#X#X= #X#X#X* % % % % ",
"#X#X#X#X#X#X#X#X#X#X#X#X#X#X, & ^ #X#X^ mXmX^ #X#X#X#XV.B R.2 jX2 2 4 jX1 2 4 f R.f f a f h B R.R.R.R.g s 5 g E.#X#X#X#X#X#X#X: #X#X#X#X#X- #X#X#X% % * % % ",
"#X#X#X#X#X#X#X3 > > > > > > 3 % E.E.#X#XvXvX^ ^ mX#X#X#X#X#XB.< < < , & , < B.5 4 5 jXB.a s R.s a a a s s #X#X#X#X#X#X#X#X#X#X#X#X#X#X#X#X#X#X#X#X#X% % % % ",
"#X#X#X#X#X#X#X#X#X#X#X#X#X#X#X= E.HXvX5X#X#X#X#X#X#X#Xa B.B.< B.O FXO o o & jX, 2 < jXjXB.s #X#X#X#Xs s E.s 5 5 #X#X#X#X#X#X#X#X#X#X#X#X#X= #X#X#X#X% % % & ",
"#X#X#X#X#X#X#X#X#X#X#X#X#X#X& % $ i g 5X5X5XvX5X5Xs a < < , = O X X X X o O % & = O < < FXB.5 s s s R.g s s jXB.#X#X#X#X#X#X#X#X#X#X#X#X#X- #X#X#X% % % #X#X",
"#X#X#X#X#X#X#X#X#X#X#X#X#X#X#XX O 5 g E.5XvX5X#X#Xa N.N.& & o . #X#XX #X#X. X #X#XO o o N.N.B.5 s s E.#X#XB.< #X#X#X#X#X#X#X#X#X#X#X#X#X#X- #X#X#X% % % % * ",
"#X#X#X#X#X#X#X#X#X#X#X#X#X#X#X#X#XX % = o & o N.3 , & & % & + + + 4XX p   . #X#X+ % o % O & , B.5 #X#X#X3 < & + #X#X#X#X#X#X#X#X#X= #X#X#X#X#X#X#X#X#X#X% % ",
"i > > i 3 i #X#X#X#X#X#X#X#X#X#X% = #X#X#X& o o o & . o % + + % - + % % % & + +   % X #X#XX o < 3 3 4 4 3 , & & #X#X#X#X#X#X#X#X#X#X#X#X#X#X#X#X#X#X#X% % % ",
"> 3 > > > > i 3 #X#Xi 3 #X#X#X#X4X#X#X4XpX  + + o . + % ; + % + * * = = ; & * + X X         + = > & & , % % @ @ #X#X; #X#X#X#X#X#X#X#X#X#X= #X#X#X- % % % % ",
"#X#X#X#X#X#X#X#X#Xi 3 #X#X#X#X#X- - + 4X  pX. + + + + + 6 - % - * > = > = 1 =   % % 4X4X4X. #X#X= % % @ + . . + #X#X#X#X#X#X#X#X#X#X#X#X#X#X#X#X#X#X% % % % ",
"> > 3 i > > > > > > > > > > > > > - % 4X#X#XX +   % % & = > * * * > > > #X#X#X= - -   4XpX#X#X#X#X#X    p   4X% - % #X#X#X#X#X#X#X#X#X#X#X#X% % - % % % % % ",
"i > > > i < i #X#X#X#X3 i > > > > > > * #X#X% % % * = #X#X#X#X- = #X#X#X#X#X= - - = % X   4Xp   #X#X#X#X    + % = = * #X#X#X#X#X= #X#X#X#X#X* - % % * & % % ",
"< > < > 3 > i 3 #X#X#X#X#X#X#X#X#X#X> - #X#X= = = - #X#X#X#X#X#X#X#X#X#X#X#X#X#X- * = > * % p 4X4X4X4X4X4X+ % % - = * * * * * * - #X#X#X#X#X% = % * % % % % ",
"3 i i #X#X#X#X#X#X#X#X#X#X#X#X#X#X#X#X#X> #X#X#X#X#X#X#X#X#X#X#X#X#X#X#X#X#X#X#X= * > > > * % % + % + + + % % % * = * #X#X#X#X* = #X#X#X#X#X% #X#X#X% % % * ",
"> > i < > > 3 #X#X#X#X#X#X#X> i > > > > i 3 #X#X#X#X#X#X#X#X#X#X#X#X#X#X#X#X#X#X#X#X#X> > > #X#X#X#X#X#X#X- = = #X#X* - #X#X#X> - #X#X#X#X#X* #X#X- % % % % ",
"> > > > 3 #X#X#X#X#X#X#X#X#X> > > > > > > > #X#X#X#X#X#X#X#X#X#X#X#X#X#X#X#X#X#X#X#X* > - = #X#X#X#X#X#X#X#X> > - > - * #X#X#X* * #X#X#X#X#X* #X#X* % % % % "
};
