/* XPM */
static char *_a20353eb8434bd2f1c2a8740e7404e78vAgghH6n4FzEMlb_2[] = {
/* columns rows colors chars-per-pixel */
"78 86 256 2 ",
"   c #221D1D",
".  c #271D1A",
"X  c #24221D",
"o  c #2B231D",
"O  c #2A291D",
"+  c #231E21",
"@  c #291D28",
"#  c #321B36",
"$  c #1B2C29",
"%  c #252425",
"&  c #2A2524",
"*  c #252926",
"=  c #2A2925",
"-  c #262529",
";  c #2A262B",
":  c #26292A",
">  c #2B2A2B",
",  c #332523",
"<  c #342A24",
"1  c #33252C",
"2  c #3B242C",
"3  c #322A2D",
"4  c #3B2B2B",
"5  c #3B312A",
"6  c #2C2532",
"7  c #2D2A32",
"8  c #2B2638",
"9  c #322634",
"0  c #332A34",
"q  c #3B2B34",
"w  c #34253B",
"e  c #3A253C",
"r  c #352B3A",
"t  c #3A2B3C",
"y  c #3C2433",
"u  c #383138",
"i  c #283332",
"p  c #1D1F20",
"a  c #432B2A",
"s  c #46352B",
"d  c #442A3B",
"f  c #462837",
"g  c #493735",
"h  c #522E37",
"j  c #381C4A",
"k  c #3B2543",
"l  c #3C2B43",
"z  c #392747",
"x  c #3C2653",
"c  c #342E47",
"v  c #4A1C52",
"b  c #432B44",
"n  c #43254C",
"m  c #432B4B",
"M  c #492947",
"N  c #542A48",
"B  c #573748",
"V  c #452B53",
"C  c #4B2C54",
"Z  c #4C2B5B",
"A  c #532C5C",
"S  c #552857",
"D  c #4A3256",
"F  c #573358",
"G  c #653857",
"H  c #692E54",
"J  c #4B2865",
"K  c #542B63",
"L  c #5B2C6C",
"P  c #572768",
"I  c #583367",
"U  c #5A2976",
"Y  c #5B3375",
"T  c #4C306C",
"R  c #652969",
"E  c #663569",
"W  c #632C7C",
"Q  c #662A78",
"!  c #752A79",
"~  c #763679",
"^  c #6A5446",
"/  c #694657",
"(  c #764A6B",
")  c #5B2C85",
"_  c #6B2C84",
"`  c #662886",
"'  c #752B8A",
"]  c #6A3387",
"[  c #763489",
"{  c #6C2A94",
"}  c #742C9B",
"|  c #7B2C9C",
" . c #792897",
".. c #6B3395",
"X. c #7C2CA3",
"o. c #7929A7",
"O. c #772CB0",
"+. c #6D1D92",
"@. c #863789",
"#. c #842B9A",
"$. c #863599",
"%. c #8F2D8C",
"&. c #832CA4",
"*. c #832CAB",
"=. c #892BA9",
"-. c #952AA9",
";. c #8C33AB",
":. c #8836A8",
">. c #9638AA",
",. c #882CB5",
"<. c #952DB7",
"1. c #8C32B3",
"2. c #9737B7",
"3. c #A639A8",
"4. c #A53AB9",
"5. c #B12FB3",
"6. c #924892",
"7. c #AA4E99",
"8. c #9B44B6",
"9. c #8D49AB",
"0. c #A646B7",
"q. c #B74BB7",
"w. c #B453BC",
"e. c #B965B8",
"r. c #C64BB8",
"t. c #CF53B4",
"y. c #C665B9",
"u. c #CD6FB4",
"i. c #DA5BB3",
"p. c #A539C5",
"a. c #B453C3",
"s. c #BC54C4",
"d. c #BB57C8",
"f. c #BB67C5",
"g. c #C857D4",
"h. c #C865C6",
"j. c #D370CD",
"k. c #ED4FE8",
"l. c #CD8BB8",
"z. c #E991D2",
"x. c #D2AFCF",
"c. c #E5B8C9",
"v. c #F9A8E7",
"b. c #EEB0EC",
"n. c #EBCBD4",
"m. c #774A57",
"M. c #774590",
"N. c #35281D",
"B. c #3B2C24",
"V. c #74554A",
"C. c #A83595",
"Z. c #CE37CD",
"A. c #D8B9C9",
"S. c #D9B9D5",
"D. c #E7A9D8",
"F. c #E6B7D7",
"G. c #785655",
"H. c #F392EC",
"J. c #753469",
"K. c #AA54A9",
"L. c #D44ED2",
"P. c #D1B6B7",
"I. c #C987C7",
"U. c #DAA3E3",
"Y. c #F8B6D8",
"T. c #D4C4CF",
"R. c #533B39",
"E. c #514334",
"W. c None",
"Q. c #472557",
"!. c #521C6A",
"~. c #673378",
"^. c #6C2B8B",
"/. c #732C94",
"(. c #783397",
"). c #7B33A5",
"_. c #963899",
"`. c #8332A4",
"'. c #8934B7",
"]. c #9945A8",
"[. c #A749AA",
"{. c #B54BAA",
"}. c #B656AA",
"|. c #AC4CB4",
" X c #AC4CBB",
".X c #B34DBC",
"XX c #AC53B7",
"oX c #B453B4",
"OX c #BB53BC",
"+X c #B958B7",
"@X c #C557BA",
"#X c #9935C4",
"$X c #AA46C4",
"%X c #B74AC6",
"&X c #B350CD",
"*X c #9C45C4",
"=X c #C64BC7",
"-X c #C354C4",
";X c #C355CB",
":X c #C45ACB",
">X c #C859C7",
",X c #E94FD2",
"<X c #E96ED3",
"1X c #D48ECF",
"2X c #FAB7E6",
"3X c #F6CDE9",
"4X c #1D1C1C",
"5X c #5B4546",
"6X c #684A46",
"7X c #5F4F64",
"8X c #ECDBE0",
"9X c #B234CA",
"0X c #F471EB",
"qX c #F3ACD1",
"wX c #6F4F50",
"eX c #884C72",
"rX c #B16899",
"tX c #B98DC9",
"yX c #BAC5B2",
"uX c #DFC4B5",
"iX c #68431E",
"pX c #1A1817",
"aX c #381C29",
"sX c #CE28AC",
"dX c #D8C3C8",
"fX c #BAB0A7",
"gX c #D1C5B7",
"hX c #E839DD",
"jX c #3A2425",
"kX c #D657E4",
"lX c #8A3275",
"zX c #2F2B5C",
"xX c #B425CF",
"cX c #835558",
"vX c #594739",
"bX c #69503A",
"nX c #B46BAC",
"mX c #64493A",
"MX c #6B1B64",
"NX c #B88AB4",
"BX c #E3AAB7",
"VX c #4D1732",
"CX c #9B1998",
"ZX c #D658C7",
"AX c #534652",
"SX c #8E626C",
"DX c #922EC4",
"FX c #342F19",
"GX c #513398",
"HX c #37444E",
"JX c #971A60",
"KX c #611828",
"LX c #341419",
"PX c #B91242",
"IX c #170617",
"UX c black",
/* pixels */
"W.W.W.W.W.W.W.W.W.* - % * & % W.W.W.W.W.W.W.W.W.W.W.W.W.W.W.W.W.X 3 8 # j j p 8 & + - - - - X * W.W.* % % % % % % % % % % % p % W.W.W.W.W.W.W.W.W.W.W.W.W.W.",
"W.W.W.W.W.W.W.W.W.- = % - % - * W.W.W.W.W.W.W.W.W.W.W.W.W.W.W.W.= 3 j 8 j j @ # ; % @ 6 - @ X X * % * % % % p % % % % X % % % % W.W.W.W.W.W.W.W.W.W.W.W.W.W.",
"W.W.W.W.W.W.W.W.W.= - * % % % & W.W.W.W.W.W.W.W.W.W.W.W.W.W.W.W.3 3 j z P J j # @ - @ 8 - @ $ % % % * % % X % % % % X % % % % X W.W.W.W.W.W.W.W.W.W.W.W.W.W.",
"W.W.W.W.W.W.W.W.% % % % = % - * W.W.W.W.W.W.W.W.W.W.W.W.W.W.W.W.> 3 x x T L e # - p 8 p - $ p % * - * % % % % % X % % % % % % $ W.W.W.W.W.W.W.W.W.W.W.W.W.W.",
"W.W.W.W.W.W.W.W.W.- % * * % = - W.W.W.W.W.W.W.W.W.W.W.W.W.W.W.W.e e J T U Y v VXW.W.W.W.W.8 * % * - - % % % % % % % X % % p W.W.W.W.W.W.W.W.W.W.W.W.W.W.W.W.",
"W.W.W.W.W.W.W.W.% = % * - % % % W.W.W.W.W.W.W.W.W.W.W.W.W.W.W.W.y e Y Y ] _ v j 8 8 8 # 8 8 * - % % * % % % X % % % X % % % % W.W.W.W.W.W.W.W.W.W.W.W.W.W.W.",
"W.W.W.W.W.W.W.W.% & % % % % % W.W.W.W.W.W.W.W.W.W.W.W.W.W.W.W.W.W.e Y ] M.9.W.W.W.W.8 @ 8 8 ; - = % % % % % % % % X % % % % % X W.W.W.W.W.W.W.W.W.W.W.W.W.W.",
"W.W.W.W.W.W.W.W.* * - * = % - = W.W.W.W.W.W.W.W.W.W.W.W.W.W.W.W.W.j ) ] 9.:.v v 8 # 8 8 8 8 ; ; * - = % % X % % * $ % % % % % W.W.W.W.W.W.W.W.W.W.W.W.W.W.W.",
"= - = - % * - * W.W.W.W.W.W.W.- W.W.W.W.W.W.W.W.W.W.W.W.W.W.W.W.3 0 j x GXT c c ; 3 8 # 8 8 + W.W.* % % % & % % - % % % % & W.W.W.W.W.W.W.W.W.W.W.W.W.W.W.W.",
"* = - % - - = = W.W.W.W.W.W.W.W.W.W.W.W.W.W.W.W.W.W.W.W.W.W.W.W.6 r zXzX) T 8 w ; 6 8 8 8 8 + @ & % = % % % % % % % % % % % % % W.W.W.W.W.W.W.W.W.W.W.W.W.W.",
"- * - * W.W.= - W.W.W.W.W.W.W.W.W.W.W.W.W.W.W.W.W.W.W.W.W.W.W.W.; i c j x x 9 t 6 # 8 - - 8 = - * * % % * % % % * % * % % % % * W.W.W.W.W.W.W.W.W.W.W.W.W.W.",
"= - * = - = - % W.W.W.W.W.W.W.W.W.W.W.W.W.W.W.W.W.W.W.W.W.W.W.W.; 8 W.W.x x 9 t 6 8 @ 8 # 6 % = = * * % % % W.W.W.W.* - W.W.* = W.W.W.W.W.W.W.W.W.W.W.W.W.W.",
"- * - = - * - * W.W.W.W.W.W.W.W.; W.W.W.W.W.W.W.W.W.W.W.W.W.W.W.& 1 w j j k 2 y w 9 8 # 8 8 - > - - > = - % % % % % % % = % % * W.W.W.W.W.W.W.W.W.W.W.W.W.W.",
"W.W.* - * = = - W.W.W.W.W.W.W.W.; W.W.W.W.W.W.W.W.W.W.W.W.W.W.W.< < w w z x 4 1 q 9 8 8 8 8 > > & > > - - = % % % % = - * - - = W.W.W.W.W.W.W.W.W.W.W.W.W.W.",
"; % - = = - - = = - W.W.* = = W.W.W.W.W.W.W.W.W.W.W.W.W.W.W.W.W.2 jXe n v v f VXW.W.j w w w ; ; 3 & ; 1 W.W.% % % % - * W.W.W.W.W.W.W.W.W.W.W.W.W.W.W.W.W.W.",
"% % * - - * * * - = - - - > & - W.W.W.W.W.W.W.W.W.W.W.W.W.W.W.W.a 2 k n v n f f d b k k z w 0 4 3 3 W.W.; ; ; - % % * * W.W.W.W.W.W.W.W.W.W.W.W.W.W.W.W.W.W.",
"W.W.- - > - - > = * - > - & > W.W.W.W.W.W.W.W.W.W.W.W.W.W.W.W.W.d f f g a a W.W.W.J W.W.W.W.n x W.W.W.W.W.W.6 ; - @ W.W.W.W.W.W.W.W.W.W.W.W.W.W.= - * - - W.",
"W.W.W.- = - = - * = - & W.W.8 7 W.W.W.W.W.W.W.W.W.W.W.W.W.W.W.W.W.W.a f a a W.W.W.W.W.W.J J n n k k e w r 9 6 3 & W.W.W.W.W.W.W.W.W.W.W.W.W.W.W.* - % % * = ",
"; @ ; > * W.W.- - = W.W.W.; 8 8 W.W.W.W.W.W.W.W.W.W.W.W.W.W.W.W.S P N W.W.W.S H Q Q W.[ U P J Z W.W.W.j W.W.W.W.W.W.W.W.W.W.W.W.W.W.W.W.W.W.W.W.* = = - W.W.",
"W.6 - - - - - > = > & & 9 0 r r W.W.W.W.W.W.W.W.W.W.W.W.W.W.W.W.W.W.H S h B N H Q W W.W.Y ) K J W.W.W.W.W.W.W.W.W.W.W.W.W.W.W.W.W.W.W.W.W.W.W.W.- % % % % - ",
"; ; - - - : - : * = - > 9 0 r r W.W.W.W.W.W.W.W.W.W.W.W.W.W.W.W.E W.R W.W.G ~ W.W. .X.} W.W.W.W.W.W.W.W.W.W.W.W.W.W.W.W.W.W.W.W.W.W.W.W.W.W.W.W.W.W.- % & W.",
"W.W.W.> : - - - W.W.& 9 3 7 9 u W.W.W.W.W.W.W.W.W.W.W.W.W.W.W.W.W.J.G E G W.W.W.W.W.W.W...{ W.W.W.W.W.W.W.W.W.W.W.W.W.W.W.W.W.W.W.W.W.W.W.W.W.W.= * * % * * ",
"6 ; - - : - : : = & & 1 9 9 q W.W.W.W.W.W.W.W.W.W.W.W.W.W.W.W.W.W.[ ~ ~ [ W.W.| ,.o.O.O.O.+.{ { W.W.W.W.W.W.W.W.W.W.W.W.W.W.W.W.W.W.W.W.W.W.W.W.- % * - - * ",
"; ; = : - > - : = - W.W.W.W.t l W.W.W.W.W.W.W.W.W.W.W.W.W.W.W.W.~ lX~ ~ ( lX#.| ,.*.W.W.W.W.W.W.W.W.W.W.W.W.W.W.W.W.W.W.W.W.W.W.W.W.W.W.W.W.W.W.W.% % = % & ",
"; ; : * = = > > W.W.W.W.w l b W.W.W.W.W.W.W.W.W.W.W.W.W.W.W.W.W.W.W.6.~ 6.@.$.' =.*.W.W.W.W.} +.W.W.W.W.W.W.W.W.W.W.W.W.W.W.W.W.W.W.W.W.W.W.* % W.W.W.W.W.W.",
"W.; : * > = = : W.W.W.W.e t n M W.W.W.W.W.W.W.W.W.W.W.W.W.W.W.W.W.W.@.6.@.@.| W.W.=.=.,.*.&.} W.W.W.W.W.W.W.W.W.W.W.W.W.W.W.W.W.W.W.W.W.W.W.W.W.W.W.W.W.W.W.",
"> : * * > = = = 8 7 9 w l l W.W.W.W.W.W.W.W.W.W.W.W.W.W.W.W.W.W.6.W.W.W.W.$.=.-.<.=.,.-.W.W.W.X.W.W.W.W.W.W.W.W.W.W.W.W.W.W.W.W.W.W.W.W.W.W.W.W.W.W.W.W.W.W.",
"- - W.W.= = > W.W.W.W.w l b m W.W.W.W.W.W.W.W.W.W.W.W.W.W.W.W.W.W.W.W.W.:.W.W.2.<.<.-.<.*.*.*.W.W.W.W.W.W.W.W.W.W.W.W.W.W.W.W.W.W.W.W.W.W.W.W.W.W.W.W.W.W.W.",
"W.W.= * > = = W.W.7 8 r W.W.W.A W.W.W.W.W.W.W.W.W.W.W.W.W.W.W.W.W.>.;.-.<.<.W.W.W.W.#XDX1.1.,.*.W.W.W.W.W.W.W.W.W.W.W.W.W.W.W.W.W.W.W.W.W.W.W.W.W.W.W.W.W.W.",
"> - * = - * > > 9 8 r w l l M W.W.W.W.W.W.W.W.W.W.W.W.W.W.W.W.W.=.-.;.-.<.<.#X#XxX#X#X<.W.W.*.O.W.W.W.W.W.W.W.W.W.W.W.W.W.W.W.W.& - - W.W.W.W.* W.W.W.W.W.W.",
"W.- > > > > & > W.W.W.W.W.M A L W.W.W.W.W.W.W.W.W.W.W.W.W.W.W.W.W.>.2.#X#XDXDXp.#X#X#XW.W.1.;.W.W.W.W.W.W.W.W.W.W.W.W.W.W.W.6 ; % % - - * * * * W.W.W.W.W.W.",
"W.W.- > = - W.W.W.W.z t b M K I W.W.W.W.W.W.W.W.W.W.W.W.W.W.W.W.>.>.<.<.#X#XxX#XW.W.<.2.1.<.,.;.W.W.W.W.W.W.W.W.W.W.W.W.W.W.W.3 = & % - = % & * W.W.W.W.W.W.",
"W.W.W.W.W.W.W.W.W.W.W.W.W.W.W.W.W.W.W.W.W.W.W.W.W.W.W.W.W.W.W.W.W.W.W.W.W.W.W.W.W.W.W.W.W.W.W.W.W.W.W.W.W.W.W.W.W.W.W.W.W.W.W.W.W.W.W.W.W.W.W.W.W.W.W.W.W.W.",
"W.W.W.W.W.W.W.W.W.W.W.W.W.W.W.W.W.W.W.W.W.W.W.W.W.W.W.W.W.W.W.W.W.W.W.W.W.W.W.W.W.W.W.W.W.W.W.W.W.W.W.W.W.W.W.W.W.W.W.W.W.W.W.W.W.W.W.W.W.W.W.W.W.W.W.W.W.W.",
"W.W.W.W.W.W.W.W.W.W.W.W.W.W.W.W.W.W.W.W.W.W.W.W.W.W.W.W.W.W.W.W.W.W.W.W.W.W.W.W.W.W.W.W.W.W.W.W.W.W.W.W.W.W.W.W.W.W.W.W.W.W.W.W.W.W.W.W.W.W.W.W.W.W.W.W.W.W.",
"W.W.W.W.W.W.W.W.W.W.W.W.W.W.W.W.W.W.W.W.W.W.W.W.W.W.W.W.W.W.W.W.W.W.W.W.W.W.W.W.W.W.W.W.W.W.W.W.W.W.W.W.W.W.W.W.W.W.W.W.W.W.W.W.W.W.W.W.W.W.W.W.W.W.W.W.W.W.",
"W.W.W.W.W.W.W.W.W.W.W.W.W.W.W.W.W.W.W.W.W.W.W.W.W.W.W.W.W.W.W.W.W.W.W.W.W.W.W.W.W.W.W.W.W.W.W.W.W.W.W.W.W.W.W.W.W.W.W.W.W.W.W.W.W.W.W.W.W.W.W.W.W.W.W.W.W.W.",
"W.W.W.W.W.W.W.W.W.W.W.W.W.W.W.W.W.W.W.W.W.W.W.W.W.W.W.W.W.W.W.W.W.W.W.W.W.W.W.W.W.W.W.W.W.W.W.W.W.W.W.W.W.W.W.W.W.W.W.W.W.W.W.W.W.W.W.W.W.W.W.W.W.W.W.W.W.W.",
"W.W.W.W.W.W.W.W.W.W.W.W.W.W.W.W.W.W.W.W.W.W.W.W.W.W.W.W.W.W.W.W.W.W.W.W.W.W.W.W.W.W.W.W.W.W.W.W.W.W.W.W.W.W.W.W.W.W.W.W.W.W.W.W.W.W.W.W.W.W.W.W.W.W.W.W.W.W.",
"W.W.W.W.W.W.W.W.W.W.W.W.W.W.W.W.W.W.W.W.W.W.W.W.W.W.W.W.W.W.W.W.W.W.W.W.W.W.W.W.W.W.W.W.W.W.W.W.W.W.W.W.W.W.W.W.W.W.W.W.W.W.W.W.W.W.W.W.W.W.W.W.W.W.W.W.W.W.",
"W.W.W.W.W.W.W.W.W.W.W.W.W.W.W.W.W.W.W.W.W.W.W.W.W.W.W.W.W.W.W.W.W.W.W.W.W.W.W.W.W.W.W.W.W.W.W.W.W.W.W.W.W.W.W.W.W.W.W.W.W.W.W.W.W.W.W.W.W.W.W.W.W.W.W.W.W.W.",
"W.W.W.W.W.W.W.W.W.W.W.W.W.W.W.W.W.W.W.W.W.W.W.W.W.W.W.W.W.W.W.W.W.W.W.W.W.W.W.W.W.W.W.W.W.W.W.W.W.W.W.W.W.W.W.W.W.W.W.W.W.W.W.W.W.W.W.W.W.W.W.W.W.W.W.W.W.W.",
"W.W.W.W.W.W.W.W.W.W.W.W.W.W.W.W.W.W.W.W.W.W.W.W.W.W.W.W.W.W.W.W.W.W.W.W.W.W.W.W.W.W.W.W.W.W.W.W.W.W.W.W.W.W.W.W.W.W.W.W.W.W.W.W.W.W.W.W.W.W.W.W.W.W.W.W.W.W.",
"W.W.W.W.W.W.W.W.W.W.W.W.W.W.W.W.W.W.W.W.W.W.W.W.W.W.W.W.W.W.W.W.W.W.W.W.W.W.W.W.W.W.W.W.W.W.W.W.W.W.W.W.W.W.W.W.W.W.W.W.W.W.W.W.W.W.W.W.W.W.W.W.W.W.W.W.W.W.",
"W.W.W.W.W.W.W.W.W.W.W.W.W.W.W.W.W.W.W.W.W.W.W.W.W.W.W.W.W.W.W.W.W.W.W.W.W.W.W.W.W.W.W.W.W.W.W.W.W.W.W.W.W.W.W.W.W.W.W.W.W.W.W.W.W.W.W.W.W.W.W.W.W.W.W.W.W.W.",
"W.W.W.W.W.W.W.W.W.W.W.W.W.W.W.W.W.W.W.W.W.W.W.W.W.W.W.W.W.W.W.W.W.W.W.W.W.W.W.W.W.W.W.W.W.W.W.W.W.W.W.W.W.W.W.W.W.W.W.W.W.W.W.W.W.W.W.W.W.W.W.W.W.W.W.W.W.W.",
"W.W.W.W.W.W.W.W.W.W.W.W.W.W.W.W.W.W.W.W.W.W.W.W.W.W.W.W.W.W.W.W.W.W.W.W.W.W.W.W.W.W.W.W.W.W.W.W.W.W.W.W.W.W.W.W.W.W.W.W.W.W.W.W.W.W.W.W.W.W.W.W.W.W.W.W.W.W.",
"W.W.W.W.W.W.W.W.W.W.W.W.W.W.W.W.W.W.W.W.W.W.W.W.W.W.W.W.W.W.W.W.W.W.W.W.W.W.W.W.W.W.W.W.W.W.W.W.W.W.W.W.W.W.W.W.W.W.W.W.W.W.W.W.W.W.W.W.W.W.W.W.W.W.W.W.W.W.",
"W.W.W.W.W.W.W.W.W.W.W.W.W.W.W.W. .#.&.;.>.8.a.f.g.g.W.z.W.b.S.x.BXc.n.n.l.NXI.tXS.S.A.S.D.D.nX6.W.W.W.W.W.W.W.W.W.W.W.W.W.W.W.W.c 7 7 7 7 7 > > W.W.W.W.W.W.",
"W.W.W.W.W.W.W.W.W.W.W.W.W.W.W.W.' ' |  .:.8.f.f.0Xg.H.W.W.W.U.S.uXW.W.W.W.l.W.W.W.W.S.F.D.x.rX6.W.W.W.W.W.W.W.W.W.W.W.W.W.W.W.W.r r 8 7 > > > - W.W.W.W.W.W.",
"W.W.W.W.W.W.W.W.W.W.W.W.W.W.W.W.+.CX%.+.-.5.L.k.,X,XZXt.Y.W.W.uXP.dXW.W.W.W.W.W.P.gXdXA.I.NXK.W.W.W.W.W.W.W.W.W.W.W.W.W.W.W.W.W.u 7 7 7 7 > : W.W.W.W.W.W.W.",
"W.W.W.W.W.W.W.W.W.W.W.W.W.W.W.W.+.! CXCXCX5.L.kX,Xk.i.,XuXn.W.W.W.dXn.8XW.W.W.W.P.gXW.W.W.nXK.W.W.W.W.W.W.W.W.W.W.W.W.W.W.W.W.W.8 8 : 8 > ; > W.W.W.W.W.W.W.",
"W.W.W.W.W.W.W.W.W.W.W.W.W.W.W.W.MXH ! ! -.-.xXZ.hXhX,X,Xz.BXW.W.W.W.W.W.x.yXtXyXP.P.v.W.W.t.,X,XW.W.W.W.W.W.W.W.W.W.W.W.W.W.W.W.7 W.W.i > > = > > W.W.W.W.W.",
"W.W.W.W.W.W.W.W.W.W.W.W.W.W.W.W.S S ! lXCXCXxXxXhXk.W.,Xu.BXuX8X8X8X8X8XT.x.T.T.P.x.D.D.i.i.ZX,XW.W.W.W.W.W.W.W.W.W.W.W.W.W.W.W.7 7 7 7 ; - : W.W.W.W.W.W.W.",
"W.W.W.W.W.W.W.W.W.W.W.W.W.W.W.W.zXHXD AX_ ' =.-.Z.xXZ.g.W.W.P.x.D.c.b.U.b.U.H.b.H.b.H.H.,X,XW.W.W.W.W.W.W.W.W.W.W.W.W.W.W.W.W.W.7 6 8 : > ; : = W.W.W.W.W.W.",
"W.W.W.W.W.W.W.W.W.W.W.W.W.W.W.W.c c z V Q ! -.-.xXxXg.kXW.W.A.P.BXc.D.F.b.b.b.b.b.v.j.j.,XW.W.W.W.W.W.W.W.W.W.W.W.W.W.W.W.W.W.W.6 6 7 ; ; : = > W.W.W.W.W.W.",
"W.W.W.W.W.W.W.W.W.W.W.W.W.W.W.W.d l D F E E J.MX%.CX3.-.9XW.W.W.BXBXqXc.Y.Y.F.F.D.D.nXrXe.W.W.W.W.W.W.W.W.W.W.W.W.W.W.W.W.W.W.W.W.W.W.W.W.W.W.W.8 : 8 - : - ",
"W.W.W.W.W.W.W.W.W.W.W.W.W.W.W.W.W.r b D S W.W.J.#.%.4.-.9Xg.0X0XBXqXBXqXc.c.S.D.D.W.W.W.nXnXK.W.W.W.W.W.W.W.W.W.W.W.W.W.W.W.W.W.W.W.W.W.W.W.W.W.; : ; - 6 W.",
"W.W.W.W.W.W.W.W.W.W.W.W.W.W.W.W.u 0 r u VXM S MX%.%.W.W.Z.Z.k.k.t.i.v.v.v.v.v.Y.z.z.nXW.d.s.0.3.W.W.W.W.W.W.W.W.W.W.W.W.W.W.W.W.W.W.W.W.W.W.W.W.: : : 6 - W.",
"W.W.W.W.W.W.W.W.W.W.W.W.W.W.W.W.r 7 b W.M N N KX%.@.5.3.Z.Z.k.k.W.W.W.H.qXqXv.qXW.W.W.W.s.w.8.>.W.W.W.W.W.W.W.W.W.W.W.W.W.W.W.W.W.W.W.W.W.W.W.W.6 6 8 - - 6 ",
"W.W.W.W.W.W.W.W.W.W.W.W.W.W.W.W.8 8 vX5XbXbXwX/ ~ ~ W.W.W.C.5.5.q.q.h.i.i.W.W.SXrXnX7.6.%.[ ' ` W.W.W.W.W.W.W.W.W.W.W.W.W.W.W.W.W.W.W.W.W.W.W.W.: 8 - 6 : 6 ",
"W.W.W.W.W.W.W.W.W.W.W.W.W.W.W.W.8 @ ^ ^ cXG./ G.( ~ lXW.C.C.5.5.q.r.y.W.W.W.W.rXW.W.W.W.$.#.' ' W.W.W.W.W.W.W.W.W.W.W.W.W.W.W.W.W.W.W.W.W.W.W.W.6 : - ; ; ; ",
"W.W.W.W.W.W.W.W.W.W.W.W.W.W.W.W.O W.W.W.W.V.W.W.G.^ m.( ( ( 7X( 6.6.J.~ H J.lXcX! ~ MXQ C S N N W.W.W.W.W.W.W.W.W.W.W.W.W.W.W.W.W.W.W.W.W.W.W.W.6 : : : > W.",
"W.W.W.W.W.W.W.W.W.W.W.W.W.W.W.W.FXFX7X/ V.G.W.W.W.^ AX/ 7X( m.G.6.6.~ W.E H H H R R P W.W.A F W.W.W.W.W.W.W.W.W.W.W.W.W.W.W.W.W.W.W.W.W.W.W.W.W.; ; 6 : W.W.",
"W.W.W.W.W.W.W.W.< > > i < 3 = = W.W.W.W.W.W.6XW.W.V.W.W.W.W.W.W.W.W.W.W.W.W.W.W.W.W.W.W.W.W.W.W.W.W.W.W.W.W.W.W.W.W.W.W.W.W.; ; > > = > > > = > - > - > = W.",
"W.W.W.W.W.W.W.W.i > > i > > > = ^ W.W.W.V.G.wX6XG.W.W.W.W.W.W.W.W.W.W.W.W.W.W.W.W.W.W.W.W.W.W.W.W.W.W.W.W.W.W.W.W.W.W.W.W.W.> ; = > W.W.* - * > > - > - > - ",
"W.W.W.W.W.W.W.W.W.W.W.W.W.W.W.W.W.W.W.W.W.W.W.W.W.W.W.W.W.W.W.W.W.W.W.W.W.W.W.W.W.W.W.W.W.W.W.W.W.W.W.W.W.W.W.W.W.W.W.W.W.W.W.W.W.= : : > * - > = > = * W.W.",
"W.W.W.W.W.W.W.W.3 i > > i 3 > = vX^ 5XvXmXW.W.W.W.W.W.W.W.W.W.W.W.W.W.W.W.W.W.W.W.W.W.W.W.W.W.W.W.W.W.W.W.W.W.W.W.W.W.W.W.W.W.W.W.W.W.= - > = > - > - > - > ",
"W.W.W.W.W.W.W.W.i 3 > > 3 > - % vX^ W.W.W.vXbX^ W.W.W.W.W.W.W.W.W.W.W.W.W.W.W.W.W.W.W.W.W.W.W.W.W.W.W.W.W.W.W.W.W.W.W.W.W.W.W.W.- > = > > > W.W.W.> * - W.W.",
"W.W.W.W.W.W.W.W.W.> > 3 > > > * W.W.W.W.W.W.W.W.W.W.W.W.W.W.W.W.W.W.W.W.W.W.W.W.W.W.W.W.W.W.W.W.W.W.W.W.W.W.W.W.W.W.W.W.W.W.W.W.> * > > = : > > - * - = = > ",
"W.W.W.W.W.W.W.W.W.W.> > > > > * E.bXbXW.W.W.W.W.W.W.W.W.W.W.a W.W.W.W.W.W.W.W.W.W.W.W.W.W.W.W.W.W.W.W.W.W.W.W.W.W.W.W.W.W.W.W.W.= - * - W.W.* * = > * > - > ",
"W.W.W.W.W.W.W.W.= 3 i W.W.W.> * vXW.W.W.W.bXW.W.W.W.W.W.W.W.B.W.W.W.W.W.W.W.W.W.W.W.W.W.W.W.W.W.W.W.W.W.W.W.W.W.W.W.W.W.W.W.W.W.= > > = > = > - W.W.W.W.W.W.",
"W.W.W.W.W.W.7 > > > > > 3 3 > : W.W.W.W.W.bXV.V.vXvXmXR.W.W.W.N.O o W.W.W.W.W.W.W.W.W.W.W.W.W.W.W.W.W.W.W.W.W.W.W.W.W.W.W.W.W.W.- * - - - > * > W.W.W.W.W.W.",
"W.W.W.W.W.W.W.W.W.W.W.i i > = * E.W.W.W.W.W.W.W.W.R.s a N.N.N.N.N.O W.W.W.W.W.W.W.W.W.W.W.W.W.W.W.W.W.W.W.W.W.W.W.W.W.W.W.W.> & > = > = = * - = W.W.W.W.W.W.",
"W.W.W.W.W.W.i W.W.> > i > > = % * = 5 E.E.vXvXvXvXs B.B.N., , o X . W.W.W.W.W.W.W.W.W.W.W.W.W.W.W.W.W.W.W.W.W.W.o & 3 W.W.W.- = - - = - - > > - W.W.W.W.W.W.",
"W.W.W.W.W.W.W.W.> > > 3 > > % W.W.3 W.W.vXvXvXvXs W.W.W.W.W.W.o X . W.W.W.W.W.W.W.W.W.W.W.W.W.W.W.W.W.W.W.W.W.W.W.W.1 > W.W.- > = = * > = - * = W.W.W.W.W.W.",
"W.W.W.W.W.W.W.r > 3 < > > = O   pXpXO % W.W.o o W.W.o & & & % & p % W.W.W.W.W.W.W.W.W.W.W.W.W.W.W.W.W.W.W.W.W.W.  % & > > : * - > * * - > * > * W.W.W.W.W.W.",
"W.W.W.W.W.W.W.W.W.> i 3 > > % & % & = = W.W.W.o o o & , % W.W.W.% W.W.W.W.W.W.W.W.W.W.o W.W.W.W.W.W.W.W.W.W.W.W.. & > > : : W.W.> - = > = - - = W.W.W.W.W.W.",
"W.W.W.W.W.W.W.W.i i 3 i W.W.= = 4XpXpX4X    + & . . % + + + @ - > W.W.W.W.W.W.W.- + + W.W.o = , W.W.W.W.W.W.W.W.4X% = & > : * : * > * - - * - - W.W.W.W.W.W.",
"W.W.W.W.W.W.W.W.i < 3 > i 3 = = > - p % . % .   . . 4X4X@ - + + 7 7 7 7 9 3 9 & % - % . + + % @ W.W.W.W.W.W.W.W.p - % - : : > - = - - = > = > = W.W.W.W.W.W.",
"W.W.W.W.W.W.W.W.< i > 3 i 3 W.W.> W.W.W.W.W.W.W.W.3 W.W.W.W.W.W.W.W.W.W.W.> > > > > % X % %   4X+ + + %   %   %   % = = > W.W.W.W.W.W.W.W.W.W.W.W.W.W.W.W.W.",
"W.W.W.W.W.W.W.W.i W.W.3 3 3 i W.W.W.W.W.W.W.W.W.< > W.W.W.W.W.W.W.W.W.W.W.0 3 > i < % %   % 4X4X4X    4X4X+ 4Xp   - - - * W.W.W.W.W.W.W.W.W.W.W.W.W.W.W.W.W.",
"W.W.W.W.W.W.W.W.3 3 W.W.W.W.i < W.W.W.W.W.W.W.W.W.W.W.W.W.W.W.W.W.W.W.W.W.W.W.W.W.W.* - p 4X4X4X4X4X4X4X4X4X4XX % * > * W.W.W.W.W.W.W.W.W.W.W.W.W.W.W.W.W.W.",
"W.W.W.W.W.W.W.W.W.> 3 < i W.W.3 W.W.W.W.W.W.W.W.W.W.W.W.W.W.W.W.W.W.W.W.W.W.i 3 > > > * % % p   W.W.W.p p % p % - * W.W.W.W.W.W.W.W.W.W.W.W.W.W.W.W.W.W.W.W.",
"W.W.W.W.W.W.W.W.i < > i i 3 3 i W.W.W.W.W.W.W.W.W.W.W.W.W.W.W.W.W.W.W.W.W.W.W.W.W.W.W.3 = = > * > > > : > W.W.W.- > > W.W.W.W.W.W.W.W.W.W.W.W.W.W.W.W.W.W.W.",
"W.W.W.W.W.W.W.W.3 i > 3 > i W.W.W.W.W.W.W.W.W.W.W.W.W.W.W.W.W.W.W.W.W.W.W.W.W.W.W.W.W.W.W.W.W.W.W.W.W.W.3 W.W.W.W.W.W.W.W.= * > > * W.W.W.W.W.W.W.W.W.W.W.W."
};
