/* XPM */
static char *_a20353eb8434bd2f1c2a8740e7404e78vAgghH6n4FzEMlb_20[] = {
/* columns rows colors chars-per-pixel */
"78 86 256 2 ",
"   c #221D1D",
".  c #271D1A",
"X  c #24221D",
"o  c #2B231D",
"O  c #2A291D",
"+  c #231E21",
"@  c #291D28",
"#  c #321B36",
"$  c #1B2C29",
"%  c #252425",
"&  c #2A2524",
"*  c #252926",
"=  c #2A2925",
"-  c #262529",
";  c #2A262B",
":  c #26292A",
">  c #2B2A2B",
",  c #332523",
"<  c #342A24",
"1  c #33252C",
"2  c #3B242C",
"3  c #322A2D",
"4  c #3B2B2B",
"5  c #3B312A",
"6  c #2C2532",
"7  c #2D2A32",
"8  c #2B2638",
"9  c #322634",
"0  c #332A34",
"q  c #3B2B34",
"w  c #34253B",
"e  c #3A253C",
"r  c #352B3A",
"t  c #3A2B3C",
"y  c #3C2433",
"u  c #383138",
"i  c #283332",
"p  c #1D1F20",
"a  c #432B2A",
"s  c #46352B",
"d  c #442A3B",
"f  c #462837",
"g  c #493735",
"h  c #522E37",
"j  c #381C4A",
"k  c #3B2543",
"l  c #3C2B43",
"z  c #392747",
"x  c #3C2653",
"c  c #342E47",
"v  c #4A1C52",
"b  c #432B44",
"n  c #43254C",
"m  c #432B4B",
"M  c #492947",
"N  c #542A48",
"B  c #573748",
"V  c #452B53",
"C  c #4B2C54",
"Z  c #4C2B5B",
"A  c #532C5C",
"S  c #552857",
"D  c #4A3256",
"F  c #573358",
"G  c #653857",
"H  c #692E54",
"J  c #4B2865",
"K  c #542B63",
"L  c #5B2C6C",
"P  c #572768",
"I  c #583367",
"U  c #5A2976",
"Y  c #5B3375",
"T  c #4C306C",
"R  c #652969",
"E  c #663569",
"W  c #632C7C",
"Q  c #662A78",
"!  c #752A79",
"~  c #763679",
"^  c #6A5446",
"/  c #694657",
"(  c #764A6B",
")  c #5B2C85",
"_  c #6B2C84",
"`  c #662886",
"'  c #752B8A",
"]  c #6A3387",
"[  c #763489",
"{  c #6C2A94",
"}  c #742C9B",
"|  c #7B2C9C",
" . c #792897",
".. c #6B3395",
"X. c #7C2CA3",
"o. c #7929A7",
"O. c #772CB0",
"+. c #6D1D92",
"@. c #863789",
"#. c #842B9A",
"$. c #863599",
"%. c #8F2D8C",
"&. c #832CA4",
"*. c #832CAB",
"=. c #892BA9",
"-. c #952AA9",
";. c #8C33AB",
":. c #8836A8",
">. c #9638AA",
",. c #882CB5",
"<. c #952DB7",
"1. c #8C32B3",
"2. c #9737B7",
"3. c #A639A8",
"4. c #A53AB9",
"5. c #B12FB3",
"6. c #924892",
"7. c #AA4E99",
"8. c #9B44B6",
"9. c #8D49AB",
"0. c #A646B7",
"q. c #B74BB7",
"w. c #B453BC",
"e. c #B965B8",
"r. c #C64BB8",
"t. c #CF53B4",
"y. c #C665B9",
"u. c #CD6FB4",
"i. c #DA5BB3",
"p. c #A539C5",
"a. c #B453C3",
"s. c #BC54C4",
"d. c #BB57C8",
"f. c #BB67C5",
"g. c #C857D4",
"h. c #C865C6",
"j. c #D370CD",
"k. c #ED4FE8",
"l. c #CD8BB8",
"z. c #E991D2",
"x. c #D2AFCF",
"c. c #E5B8C9",
"v. c #F9A8E7",
"b. c #EEB0EC",
"n. c #EBCBD4",
"m. c #774A57",
"M. c #774590",
"N. c #35281D",
"B. c #3B2C24",
"V. c #74554A",
"C. c #A83595",
"Z. c #CE37CD",
"A. c #D8B9C9",
"S. c #D9B9D5",
"D. c #E7A9D8",
"F. c #E6B7D7",
"G. c #785655",
"H. c #F392EC",
"J. c #753469",
"K. c #AA54A9",
"L. c #D44ED2",
"P. c #D1B6B7",
"I. c #C987C7",
"U. c #DAA3E3",
"Y. c #F8B6D8",
"T. c #D4C4CF",
"R. c #533B39",
"E. c #514334",
"W. c #473248",
"Q. c #472557",
"!. c #521C6A",
"~. c #673378",
"^. c #6C2B8B",
"/. c #732C94",
"(. c #783397",
"). c #7B33A5",
"_. c #963899",
"`. c #8332A4",
"'. c #8934B7",
"]. c #9945A8",
"[. c #A749AA",
"{. c #B54BAA",
"}. c #B656AA",
"|. c #AC4CB4",
" X c #AC4CBB",
".X c #B34DBC",
"XX c #AC53B7",
"oX c #B453B4",
"OX c #BB53BC",
"+X c #B958B7",
"@X c #C557BA",
"#X c #9935C4",
"$X c #AA46C4",
"%X c #B74AC6",
"&X c #B350CD",
"*X c #9C45C4",
"=X c #C64BC7",
"-X c #C354C4",
";X c #C355CB",
":X c #C45ACB",
">X c #C859C7",
",X c #E94FD2",
"<X c #E96ED3",
"1X c #D48ECF",
"2X c #FAB7E6",
"3X c #F6CDE9",
"4X c #1D1C1C",
"5X c #5B4546",
"6X c #684A46",
"7X c #5F4F64",
"8X c #ECDBE0",
"9X c #B234CA",
"0X c #F471EB",
"qX c #F3ACD1",
"wX c #6F4F50",
"eX c #884C72",
"rX c #B16899",
"tX c #B98DC9",
"yX c #BAC5B2",
"uX c #DFC4B5",
"iX c #68431E",
"pX c None",
"aX c #381C29",
"sX c #CE28AC",
"dX c #D8C3C8",
"fX c #BAB0A7",
"gX c #D1C5B7",
"hX c #E839DD",
"jX c #3A2425",
"kX c #D657E4",
"lX c #8A3275",
"zX c #2F2B5C",
"xX c #B425CF",
"cX c #835558",
"vX c #594739",
"bX c #69503A",
"nX c #B46BAC",
"mX c #64493A",
"MX c #6B1B64",
"NX c #B88AB4",
"BX c #E3AAB7",
"VX c #4D1732",
"CX c #9B1998",
"ZX c #D658C7",
"AX c #534652",
"SX c #8E626C",
"DX c #922EC4",
"FX c #342F19",
"GX c #513398",
"HX c #37444E",
"JX c #971A60",
"KX c #611828",
"LX c #341419",
"PX c #B91242",
"IX c #170617",
"UX c black",
/* pixels */
"pXpXpXpXpXpXpXpXpXpXpXpXpXpX> > O O > i ; 6 8 - 8 6 - : O O > < B.< > > * * , , = = : > * * % % % * % - p - pXpXpX% % % % @ p % pXpXpXpXpXpXpXpXpXpX% % - - ",
"pXpXpXpXpXpXpXpXpXpXpXpXpXpX- > > O > > @ - 8 8 - 8 ; > FXO < < jXjX: : = * < 1 > > > : : * * % pXpXpX+ - $ % % + - - - $ - % % - pXpXpXpXpX% pXpXpXpX+ + pX",
"pXpXpXpXpXpXpXpXpXpXpXpXpXpX> > = * 7 r c c AX7X8 8 6 8 > = > 7 > 6 : 8 8 8 y e 8 8 8 8 7 8 - 8 - - % % % % p - % % $ p - - $ p pXpXpXpXpXpXpXpXpXpXpXpXpXp ",
"pXpXpXpXpXpXpXpXpXpXpXpXpXpXpX> = * 8 6 8 j HXT # 8 7 7 > > 7 7 ; ; 8 $ 8 # e k w c 7 8 7 : : : 8 - - % % - - - % % - + p p pXpXpXpXpXpXpXpXpXpXpXpXpXpXp pX",
"pXpXpXpXpXpXpXpXpXpXpXpXpXpX> > > = 6 6 c c HXT 8 8 9 8 6 6 8 w 8 $ 8 8 v j v !.Z Q.j j 8 8 8 : - - % - $ p - p - - - p pXpX% - % % % % % % % + pXpXpX% pXpX",
"pXpXpXpXpXpXpXpXpXpXpXpXpXpX> - = * 8 r j c 7X7Xw j 8 8 6 7 8 w $ 8 c # v n v S J Q.z z 8 c 7 7 - 8 % % - - - p p p - - - % p $ pXpXpXpXpXpX+ % pXpXpX+ % - ",
"> > > > > > > > > > > > > > > > = O > 8 p p 8 j 6 r 6 7 9 9 w w 8 i M M MXMXMXMXK K x k 8 8 7 > : - - - - % % $ - - - - + - - - * - pXpXpXpX+ pXpXpXpXpXpXpX",
"pXpXpXpXpXpXpXpXpXpXpXpXpXpX> - = O 7 8 $ j c j 6 8 6 9 r 6 pXpXzXi VXVXMXMXMXlXL K n x 8 i 0 ; - - : - % % - % - - p - - - - - - * % % - % % - pXpXpX% pXpX",
"pXpXpXpXpXpXpXpXpXpXpXpXpXpXpX> > = & 3 > 6 & > 3 > 6 3 9 9 r r i c N S JXJXCXCXMXQ v v y y y 2 7 ; - - - - @ + p - p - - - - - % & pXpXpXpXpXpX% pXpXpXpXpX",
"pXpXpXpXpXpXpXpXpXpXpXpXpXpXpXpX3 > > > ; > = > > 3 ; 9 r r r r c c H MXpXpXpXMX+.!.Q.v f y y aX7 6 6 6 6 ; 6 - - - ; p - p - : - - pXpXpXpXpXpXpXpXpXpXpXpX",
"pXpXpXpXpXpXpXpXpXpXpXpXpXpX= > > = > > > > > > > > > 9 r t m m P !.MXJX+.CXCXCX' _ U P d # y y 6 ; 6 6 6 - @ 6 - 6 - 6 6 @ 6 @ % - - % - - - + pXpXpXpXpXpX",
"pXpXpXpXpXpXpXpXpXpXpXpXpXpX: > = & > > > > = > > 3 0 r r l V V R !.! ! CXCXCXCX' +.P P n b y e 0 9 6 6 @ 8 6 ; 8 @ 8 @ - 8 - - - - % - % % % % % pXpXpXpXpX",
"pXpXpX= > > > = > = > > > > > > > = = = > > > > 0 0 9 r k m Z A ' +.CXo.o.o.O.O.#.+.U U v j c r e y 9 w 9 # 9 # 6 # 6 6 - @ ; ; ; - - - % % % + pXpXpXpXpXpX",
"pXpX: > > > : > : > > > > > = > = > > > > > > > > 0 q t b m A A +.%.+.#.o.o.O.DX#.#.Q Q C Q.l c t d e 9 9 9 9 9 r 9 6 9 6 6 ; ; ; - - = - - - - % % pXpXpXpX",
"pX> > > pXpXpX> pXpXpXpXpXpXpX: > > > > 3 7 0 7 0 0 t q M Z L R #.=.O.O.O.O.O.O.#.+.+.Q J J c c b b e e w w w 9 W.l e w 1 6 6 6 ; ; - pXpXpX* - pXpXpXpXpXpX",
"- > - > > > - pXpXpXpXpXpXpX> > > > > > > 3 > 0 u r q d C C Y ~.+.=.O.O.O.O.O.O.#.o.+.' K Z x c M M k e l e t w AXW.w e 6 ; 6 6 ; - * % % - pXpXpXpXpXpXpXpX",
"pX: : : ; > > > - > > ; > ; ; > 3 1 3 3 9 q e t l l D F Y E ! ! o.=.*.*.1.<.*.o.*.O.(.} Y L A A C N n b m M V z I K n v # 6 6 6 ; ; - - - - % pXpX- + % + - ",
"; > 7 : : : pXpXpXpX; > ; > 3 ; 3 & 3 1 y r t d l W.I F L I R ! =.,.*.*.2.<.,.*.*.*.} } ~.L S S B C b M C n C n I I z Q.z w 8 @ 7 & > * = - - - % % + % % - ",
": : : : : 7 > > ; > > ; 3 ; 3 > 0 3 9 0 e e f M C B Y Y ^._ #.#.=.=.*.=.2.#X1.=.*.*.| } ~.Q P L I F Q.S K A K K W ] K P j k 8 8 pXpXpX- - % - = % - - % % + ",
": > > ; : : ; > > > ; ; > > > 9 4 3 y w d l d N C F I Y /.[ #.%.=.#.=.1.2.$X;.=.*.o.X.} ~.~.E ~.E G S S K A R L ] [ E Y z j 8 8 ; > - - - - % % % - + % % - ",
"> : ; : pXpXpXpXpXpXpXpXpXpX> 3 3 4 y q b b C S L R Q ! CX-.CXCXCX-.<.4.&X%X<.=.=.=.=.#.[ ^.~.~.G F S A R !._ _ :.>._ _ V j w 8 7 ; - = = % - % % - + % % % ",
": : : 7 ; : : ; > ; > > > > 3 3 9 q r t b M B S A I ~.' -.CXCXCX=.-.4.0.s.%X-.=.=.=.=.#.^.' ] _ E R A I Q Q [ [ 8.8.' ^.V x c 8 pXpX> - - % % - % % % % + % ",
"7 ; : : : > 7 > > > > > > 3 i 3 0 y e b M M A K R Q ' #.CX5.CXxX_.-.q..X%X.X-.-.<.-.,.=.(.| /.^.E ~.~.~.' [ >.9.$Xp.^.{ Q.j c # ; ; - & % - - - % - % % % + ",
": : : ; > : : ; > > > > > 7 0 > q q d b S C K L R Q #.#.5.-.sXsX-.-.%X.X.X.X>.3.2.<.<.,.$.(.^.+.E ( ~.~. .(.>.8.$X2. .{ J Q.c 8 > ; > - - % - = - + % + % % ",
": > pXpX: > > > > > 7 pXpX7 0 0 q q b C A K ` ` _ ] &.#.5.5.xX5.3.q..X.X%XOX3.%X2.<.#X'.<.,.o.,.J.~ ~ ~ [ $.]. X X8.' ! M N 9 9 > ; - - > - = - - % % - pXpX",
"pX: : > > > > pXpXpXpX7 > 7 > 0 r t M M K K ` ' ] ] `.`.CX5.sX5.q.%X%X.Xd.s.3. X#X<.<.<.,.,.,.O.~ ~ [ ! ' ' `.].].:.! ! M Q.9 9 7 ; > - - * - - % - % % % - ",
"pXpXpXpXpXpXpX7 > > > 7 > 0 i i u d A F Q W (.).).} &.;.3.-.5.5.s.OXOXOXs.s.0.3.p.#XDX<.DX<.,.,.@.' ' [ '  .| $.$. .R Q n M y 9 ; ; > - - = - - - % - % - pX",
"pXpXpXpXpXpXpXpXpXpX; 7 0 i u u b t C A Q W  .#.O.o.*.1.C.C.r.r.-Xs.s..X-X>X|.0.#XDX<.<.DX<.,.,.@.@.' %.' ' '  .[ ' !.Q N m e q > > - > - - - = - & - + pXpX",
"pXpXpXpXpXpXpXpXpXpXpXpX7 0 i u W.u S I Q ' X.&.O.O.;.1._.>.|.OX-Xw.f.d.-Xh.a.a.#X#XDXDX<.DX<.'.*.O.| } /.^._ ` W R J P n C y e 7 ; ; - - = - - - % % % + - ",
"pXpXpXpXpXpXpXpXpX> > 0 0 0 u u W.W.A I _ [ &.&.*.*.;.'._.3.oXs.s.a.g.d.h.:Xh.d.p.p.#XDXDX'.#X'.,.*.X.} (...^.` W Q P L n Q.j y > > > - - > - & % - - % % % ",
"7 i > : pXpXpXpX> 7 0 3 0 u u u D D R ~./.| =.,.*.*.:.>.3.|.w.:X+Xf.j.0X:X+Xs.h.$Xp.p.<.2.<.'.<.DXDX'.O.(.).^.{ ` ` P Q n Q.# e ; 6 & > - - pXpXpX% % % - - ",
": > : > > > > 7 7 pXpXi u u u u D F E ~./.(.*.;.'.*.<.2.|.|.OXf.-Xh.H.z.d.d.-Xd.$X9X2.p.2.#XDX,.DXDX'.,.} )./.^._ _ U Q n Q.w e 7 6 > - > - - - % % % - - * ",
"> 3 i > > > 3 > pXpXpX0 t b M D L L _ ] O.O.DXDX>.#. X8.&X&X&XkXe.e.j.1X&Xf.;X>XkXg.s.4.p.4.<.<.2.>.=.;.X.).o.o.^./.W Q V Z c 8 6 6 ; - ; ; - = pXpX* pXpXpX",
"pXi > > < > > 3 pXpXpXpXt t m D L ~.^.[ *.O.,.DX-.=. X XkX&Xg.g.e.e.1X0X&Xd.-X-Xg.=X%X%X$X4.#X2.2.<.:.<.X.`.).} /./.W _ V Z 8 j : 7 : 6 - - * = pXpXpXpXpXpX",
"7 7 > > i = = i > 0 r u t l C Z W _ ' (.'.,.<.,.0.>.&Xa.&X&Xf.g.1X1Xb.b.h.e.-X@X>X>Xg.;X;X&Xg.&X4.<.=.-.o.1.O.o.(.(.[ ] J V c j 6 6 6 ; pXpXpX: pXpXpXpXpXpX",
"7 7 > > > pXpX> 3 i q u t b C F W ] ..(.,.'.<.<.|.0.&Xf.g.&XkXj.I.1Xb.b.h.@XOXoX>XZXg.>X&X=X&XkX X0.>.>.:.1.O.o.| #.[ [ D x c c 6 : ; ; pXpXpX- pXpXpXpXpXpX",
"pX7 > > pXpXpXpXi 3 u u l M Z A ^.' | #.;.-.<.2.w.q.+X+Xy.}.j.u.tXtXS.b.I.I.f.e.oX+X>X>X=X=X%X%Xa. X8.XX9.1.).} (.| [ [ x D c c 6 6 pXpX; & - % - = pXpXpXpX",
"7 7 7 > > pXpXpXpX3 0 5 l W.K I ' ' #.&.<.=.<.2.+Xw.OX+Xy.}.j.z.tXtXU.U.1X1Xu.e.y.f.h.:X>X-X=X=X%Xa.a.$X8.9.).).| | ] [ J x c c 7 pXpXpX- - = * pXpXpXpXpXpX",
"pX> > > = > > > > 0 0 u z W.L L  . .&.&.-.<.4.4.OX@X+X@Xy.}.z.z.T.T.S.n.S.b.1Xl.e.nX+X+X;X;X-Xs.s.a.a.a.'.1.).}  .(.Q ~.D V c j 6 pXpXpX& ; = - * pXpXpXpXpX",
"7 0 i > > < i > 0 0 i u W.W.L L } | &.&.-.<.4.4.-X-X}.+XnX}.z.1XS.T.S.S.D.F.1X1Xh.e.+X@X>X>X-X-Xa..X X X9.:.).X. .$.W ] x V 8 8 7 6 > 6 - ; - * = - pXpXpXpX",
"pX7 i 3 > > > i 5 r 0 u V W.U Q o.o.:.O.>.>.>.4.g.g.s.s.I.1XtXNXT.T.S.S.dXF.c.n.I.j.K.+X-X>X;X%Xa.a.2.0.:.'.o.).[ #.Q Q n C 3 > pXpXpXpXpXpX= * pXpXpXpXpXpX",
"0 > > < 3 > i 3 i 0 u u V D Q ~.o.O.O.).=.-.3.0.%Xg.h.:Xj.I.I.U.T.S.pXpXpXF.S.c.U.1XK.oXOX>Xs.s..X X>.0.).'.o.o.[  .R Q b m 0 0 7 7 7 6 > & > - pXpXpXpXpXpX",
"pX> > i > > 3 3 0 0 c W.D F W W } O.{ o.#.;.-.3.%X>Xh.f.tXI.x.S.S.dXT.T.dXS.c.T.D.U.K.nXOX:Xd.:X$X0.;.2.O.1.O.).| +.Q Q b W.u i pXpXpXpXpXpXpXpXpXpXpXpXpXpX",
"pX3 i 3 > > 3 3 r u u c A A _ W O.O.O.O.=.-.-.3.-X;Xs.f.I.1XA.n.dXS.T.S.dXT.F.c.b.F.e.e.OX-X.X:X0.4.;.2.o.1.*.O.' ' !.R b W.u 3 pXpXpXpXpXpXpXpXpXpXpXpXpXpX",
"3 i 3 3 > 3 3 > r u b W.Z K _ [ ..).X.)._.>.3.3.+X+XK.e.x.x.n.dXdXS.dXS.dXS.S.S.S.b.l.f.e.e.w.XX0.0.;.<.o.'.O.o.o.+.U U V V c r pXpXpXpXpXpXpXpXpXpXpXpXpXpX",
"pX> > i i i > 3 r u m l A F _ ] o.).| `.-.3.3.[.+X+XnXe.x.F.A.dXdXdXdXS.dXdXdXF.x.F.1X1Xe.+Xw.w.$X0.;.2.o.,.o.O. .+.Q W n V r r pXpXpXpXpXpXpXpXpXpXpXpXpXpX",
"i > > i > > > > c r V m A K [ (.).).:.].[.oXq.q.}.}.u.j.c.c.gXP.A.dXS.dXpXpXF.F.F.F.U.D.+XXXf.XXw. X>.4.&.;.o.o.&.pXpX` J Z c r r 7 7 > - pXpXpXpXpXpXpXpXpX",
"> > pXpXpX> 7 > w u m m A A ..(.:.M.9.8.q.q.+X@X7.e.l.1XA.x.gXgXA.pXpXdXA.dXdXT.F.S.b.b.e.nX+XXXa.w.2.0.&.1.=.*.&. .` ` Z Z l r 7 9 7 6 ; > pXpXpXpXpXpXpXpX",
"i > 0 i 3 7 > > l l C Q.U ` &.&.6.].K.[.{.r.t.@Xy.u.v.qXc.c.P.P.uXc.n.n.A.c.n.c.T.yXT.x.I.tXXXnX}.{.[.|.|.[.>._.| #.^.{ pXpXk k r pXpX> ; & - % pXpX= - - * ",
"3 3 7 3 0 pXpX0 l r C V U ` *.=.].].[.XX{.{.r.t.y.u.qXv.c.BXuXgXc.n.3X3Xc.c.c.c.yXT.T.A.I.NXe.K.+X{.oXoX|.[.].].| | ^./.P U k k 9 9 > ; ; > = * pXpX= * * = ",
"3 i > > 0 pXpX3 w l V Z ~.] =.1.K.].7.K.{.}.t.t.0X0XH.H.2X2XF.qXA.P.8X8XdXdXdXT.T.x.x.U.f.j.+X+X{.{.}.{.K.7.].[.>.=./.| W W M z 9 0 pXpXpX- = = = - - * * - ",
"> > > 0 > > 3 i r l C V ] ] 1.8.K.K.[.[.r.t.t.i.0X0Xv.pXpX2XY.F.dXdXn.n.dXpXpXT.x.P.x.S.f.f.h.oXoX{.}.{.}.K.[.[.8.>.| | Q _ n n r 0 pXpXpX> = * - * = - - = ",
"pXpX3 > 3 > i 3 r r V m ] M.).9.K.K.K.K.{.t.t.i.ZXkXH.v.2X3X2X3X8X8Xn.n.P.P.P.P.S.b.2Xv.kXZX<XkX@Xt.t.7.7.t.{.[.$X2.&.:.[ [ C C r r 6 6 - - = & * * = pXpX= ",
"3 i i > 3 pXpX> w r W.m ( ) 9.9.].K.K.[.{.+Xt.t.ZXZXH.H.2X3Xn.n.8X8XdXP.P.P.dXdXD.F.v.H.j.ZX,X<Xt.t.{.{.{.7.{.[.&X0.:.;.[ ] C C r 9 6 ; > pXpXpX= pXpXpX* - ",
"3 > > 3 3 i 3 3 r r W.m I T ..M.6.7.K.{.{.{.t.r.rXrXI.1XS.dXfXgXc.c.BXA.c.n.c.n.qXqXz.1X<Xi.,Xi.t.u.t.{.r.r.{.q.&X$X:.:.~.~.C n r 9 6 ; & - & * - * pXpXpXpX",
"> 3 i 3 > > 3 3 9 u z b Z I Y ] 6.].{.{.{.{.r.r.7.6.l.x.A.S.gXyXA.P.BXP.c.n.c.c.Y.qXz.l.i.<X,X,Xi.ZX@Xr.{.5.[.[.$X*X;.:.R Q N n w 9 ; ; & > = % = pXpXpXpXpX",
"> i 7 > > i > 3 7 0 l c V C J I @.lX_.6.[.[.[.{.7.7.7.7.u.l.qXqXv.v.v.H.v.v.v.H.z.<X<Xj.ZXi.t.7.{.t.{.{.[.0.].9.;.>.(.(.] ~.Z Q.r 6 ; ; - pXpX* pXpXpXpXpXpX",
"7 > > i > > 7 i i 0 t l m V J T ! ! _._.{.[.{.|.{.}.7.{.rXu.z.qXv.v.v.v.v.v.H.v.z.<Xi.y.ZXi.t.t.{.t.q.[.8.8.K.8.:.$./.` ~.P Q.x r 7 6 ; & - * * pXpXpXpXpXpX",
"> > 7 > 7 > 7 > 0 i r t l l W.W.J P M.M.>.3.3.5.L.L.,XL.,X,Xt.,XZXZXZXZXu.j.j.h.j.t.@Xt.@Xr.7.7.7.{.7._.6.:.(.[ [ [ L !.Q.J x z w 7 : ; - = - - : * % * - * ",
"> i > > i > > 7 i 0 r t c l W.D !.S [ M.C.>.3.5.k.k.k.,X,X,X,X,Xt.@Xu.j.j.h.h.y.u.y.y.}.}.}.{.7.{.7._.6.@.(./.` _ _ P !.x j c j 8 6 ; ; pXpX% * * - * pXpX- ",
"> > > 7 > > 7 : i 0 u 8 c l l l m m ( M.6.6.7.6.5.5.5.Z.Z.L.=XL.%._.6.6.6.6.eX@.K.7.7.C.6.@.[ 6.C.@.~ _ ] ) Y J J J Q.n z w - 8 8 6 : ; : - * - - - * - % * ",
"> 7 : > > i i 7 3 i 8 u r t W.z m l M.( eXeX6.6.9XZ.5.Z.L.,XL.r.7.7.7.7.6.6.eX6.].C._.%.[ @.lX[ lXpXpX! ) ) Y J Q.Q.n z c z - : : 6 ; ; - - * pXpX* % * - % ",
"7 : i > > > > i > 0 7 0 0 r 0 r q f ( m.eXcXeXeXSXrX6.SXM.eX( M.eX6.6.( ( J.E E JX! ! lXR R Q L Q !.P J J J x x n z e 9 u > : > > ; > - - = % - - $ * - * - ",
"> 7 > > > 7 > > > > 7 0 > > 0 r f q G.G.m.eXeXeX6.6.eXeX( eXeXSXSX6.eX( / G F R MXMX%.MXQ U P Q !.!.v !.J Q.Q.v k n 2 ; > 3 > i 7 > ; - - - * - * % * % pXpX",
"pXpXpXpXpXpXpXpXpX7 i 7 > pXpX3 G.G.wXwXcXG.pXpXpXpXpXpXAXm./ / 7X/ J.G S N N B F F F W.B W.M b N f a d d d r e 0 0 > > > > > - - - > pXpXpX= - % % % & O pX",
"pXpXpXpXpXpXpXpXpXpXpX7 i > > > G.7X5X^ V.cXV.V.cXG.wXm.pXpXpX( / / B B N N N N S F D W.M n M M d M f f e q r 9 > 3 > > > > pXpXpX> - pXpXpX= * O % * % * % ",
"pXpXpXpXpXpXpXpXpXpXpXpXpXpX> pXpXwXvXbXcXV.6XmX^ 6XwXwXpXpXW.B B B B N h f M M M b f y y e y d pXpXB B q q 4 1 > pXpXpXpXpXpXpXpXpXpXpXpXpX- * % pXpXpXpXpX",
"pXpXpXpXpXpXpXpXpXpXpXpXpXpX> > pXpXpXpXpXpXpXpX6X6XwXwXpXpXh f B h d d d f f f f b d f e y f b B G 5XB g pXpX1 1 pXpXpXpXpXpXpXpXpXpXpXpXpX= - & * * * * & ",
"pXpXpXpXpXpXpXpXpXpXpXpXpXpX= = vX^ pXpXpXpXpXpXpXpXV.G.5XB s d f 4 f q q y 2 2 2 2 2 y y d f g h h a g B g u q , o pXpXpXpXpXpXpXpXpXpXpXpXpXpXX * % pXpXpX",
"pXpXpXpXpXpXpXpXpXpX> > > > = = pXpXpXpXpXbXV.6XV.G.wXwXB vXf q f a q 4 y 2 2 1 9 aX2 2 2 a d g h f pXpXpXE.g 5 o pXpXpXpXpXpXpXpXpXpXpXpXpXpXpX% % % O O % ",
"pXpXpXpXpXpXpXpXpXpXpXpXpXpX& pXpXpXpXpXpXvXmXmX6X^ 6XpXpXpXB.jX< < 3 < , < < 4 g f 4 q f g R.B R.g s pXpXs pXpXo & pXpXpXpXpXpXpXpXpXpXpXpXpXpX% % p % % X ",
"pXpXpXpXpXpXpXpXpXpXpXpXpXpX= O pXpXvX^ vXiXmXpXpX^ vXpXpXvXjX, < < < & & < 3 B.g 0 2 B.f g B vXg R.R.s B.pXpXg pXpXpXpXpXpXpXpXpXpXpXpXpXpXpXpXO % % X pXpX",
"pXpXpXpXpXpXpX> > > > > > > > pXpXHXE.bXvXbX^ vXpXpXpXpXpXB.< < N.O O X o o < < 4 B.N.< B.s s pXpXB.pXpXE.E.g pXpXpXpXpXpXpXpXpX= = - * = - % = % % pXpXpXpX",
"pXpXpXpXpXpXpXpXpXpXpXpXpXpX= & E.E.vXvXpXpXpXpXpXE.s B.B.< < < O X X O O o , , 3 < N.< B.a s s s s s s s pXpXpXpXpXpXpXpXpXpXpX- * = - - * % % % pXpXpXpX* ",
"pXpXpXpXpXpXpXpXpXpXpXpXpXpX* O $ FXE.HXE.AXvXvXvXE.B.N.< < & O O X 4XX   . * & & = = < N.5 pXpXpXpXpXpXpXpXpXpXpXpXpXpXpXpXpXpXpX= * - = - % % pXpXpXpXpXpX",
"pXpXpXpXpXpXpXpXpXpXpXpXpXpXpX4XFXi E.HXvXpXpXpXpXB.O N.O & X   4XX 4XpXpX  + % X O O = N.N.5 a s R.pXpXpXpXpXpXpXpXpXpXpXpXpXpX* * - = - * = pXpXpXpXpXpXpX",
"pXpXpXpXpXpXpXpXpXpXpXpXpXpXpX4XpXpX$ O O % X O < pXpXo % % % 4X4X% 4X4X+ + + + - + = % & pXpX3 s u pXpXpXpXpXpXpXpXpXpXpXpXpXpXpXpX% pXpXpXpX* pXpXpXpXpXpX",
"pXpXpX> > > pXpXpXpXpXpXpXpX* X $ O $ O O O O X O X O X X X p % % pXpX* & % @ pXpXpX% . X . pXpXpX5 pXpXpXpXpXpXpXpXpXpXpXpXpXpX* - * - * = pXpXpXpXpXpXpXpX",
"pX> > > > > > pXpXpXpXpXpXpX= * pXpXp 4X4X4XX   + + X % - p % X * > - > & 1 % + + % + 4X+ + % % pXpXpXpXpXpXpXpXpX- pXpXpXpXpXpX% - = = - - pXpXpXpXpXpXpXpX",
"pXpXpXpXpXpXpXpXpXpX> i > > > = * O p p p pX4XX % p - * ; - * % pXpX> > > & - 4X% % + 4X+ pXpX- pXpXpXpXpXpXpX& * & pXpXpXpXpXpXpX= * - = - * - pXpXpXpXpXpX",
"pXpXpXpXpXpXpXpXpXpXpXpXpXpXi > : > > = % X p   = - = > > > > > = pXpXpXpXpXpX> = - % 4X4Xp X + pXpX+ p 4X+ p     + = - pXpXpXpXpXpXpXpXpXpXpXpX* pXpXpXpXpX",
"pXpXpXpXpXpXpXpXpXpXpXpXpXpX3 > i > > > = * * * & > pXpXpXpX> > > pXpXpXpX- = > - - pXpX4X4X4X  4X4X4X4X4X4X  + + - % = pXpXpXpX* pXpXpXpX* pXpX* pXpXpXpXpX",
"pXpXpXpXpXpXpXpXpXpXpXpXpXpXpXpX> > > > pXpXpX> > > pXpXpXpXpXpXpXpXpXpXpXpXpXpX> > * + 4Xp 4Xp 4X4X4X4X4X  . 4X% = - * * * * * = pXpXpXpX* % * - pXpXpXpXpX",
"pXpXpXpXpXpXpXpXpXpXpXpXpXpXpXpXpXpXpXpX= > > > > > > > > > pXpXpXpXpXpXpXpXpX> > - * % % % X % % pXpXpXpX+ % - % * pXpXpXpXpX- * pXpXpXpX* % % * pXpXpXpXpX",
"pXpXpXpXpXpXpXpXpXpXpXpXpXpXpX> > > > > > > > i > > > > > > > pXpXpXpXpXpXpXpXpXpXpX* * - - pXpXpXpXpXpXpX= - - pXpX: * pXpXpX= * pXpXpXpX* * - - pXpXpXpXpX",
"pXpXpXpXpXpXpXpXpXpXpXpXpXpXpXi > > > > > > > > > > > > > > > pXpXpXpXpXpXpXpXpXpXpX> > > 3 pXpXpXpXpXpXpXpXpX& > - > - pXpXpXpX- pXpXpXpX* * * pXpXpXpXpXpX"
};
