/* XPM */
static char *_a20353eb8434bd2f1c2a8740e7404e78vAgghH6n4FzEMlb_21[] = {
/* columns rows colors chars-per-pixel */
"78 86 256 2 ",
"   c #221D1D",
".  c #271D1A",
"X  c #24221D",
"o  c #2B231D",
"O  c #2A291D",
"+  c #231E21",
"@  c #291D28",
"#  c #321B36",
"$  c #1B2C29",
"%  c #252425",
"&  c #2A2524",
"*  c #252926",
"=  c #2A2925",
"-  c #262529",
";  c #2A262B",
":  c #26292A",
">  c #2B2A2B",
",  c #332523",
"<  c #342A24",
"1  c #33252C",
"2  c #3B242C",
"3  c #322A2D",
"4  c #3B2B2B",
"5  c #3B312A",
"6  c #2C2532",
"7  c #2D2A32",
"8  c #2B2638",
"9  c #322634",
"0  c #332A34",
"q  c #3B2B34",
"w  c #34253B",
"e  c #3A253C",
"r  c #352B3A",
"t  c #3A2B3C",
"y  c #3C2433",
"u  c #383138",
"i  c #283332",
"p  c #1D1F20",
"a  c #432B2A",
"s  c #46352B",
"d  c #442A3B",
"f  c #462837",
"g  c #493735",
"h  c #522E37",
"j  c #381C4A",
"k  c #3B2543",
"l  c #3C2B43",
"z  c #392747",
"x  c #3C2653",
"c  c #342E47",
"v  c #4A1C52",
"b  c #432B44",
"n  c #43254C",
"m  c #432B4B",
"M  c #492947",
"N  c #542A48",
"B  c #573748",
"V  c #452B53",
"C  c #4B2C54",
"Z  c #4C2B5B",
"A  c #532C5C",
"S  c #552857",
"D  c #4A3256",
"F  c #573358",
"G  c #653857",
"H  c #692E54",
"J  c #4B2865",
"K  c #542B63",
"L  c #5B2C6C",
"P  c #572768",
"I  c #583367",
"U  c #5A2976",
"Y  c #5B3375",
"T  c #4C306C",
"R  c #652969",
"E  c #663569",
"W  c #632C7C",
"Q  c #662A78",
"!  c #752A79",
"~  c #763679",
"^  c #6A5446",
"/  c #694657",
"(  c #764A6B",
")  c #5B2C85",
"_  c #6B2C84",
"`  c #662886",
"'  c #752B8A",
"]  c #6A3387",
"[  c #763489",
"{  c #6C2A94",
"}  c #742C9B",
"|  c #7B2C9C",
" . c #792897",
".. c #6B3395",
"X. c #7C2CA3",
"o. c #7929A7",
"O. c #772CB0",
"+. c #6D1D92",
"@. c #863789",
"#. c #842B9A",
"$. c #863599",
"%. c #8F2D8C",
"&. c #832CA4",
"*. c #832CAB",
"=. c #892BA9",
"-. c #952AA9",
";. c #8C33AB",
":. c #8836A8",
">. c #9638AA",
",. c #882CB5",
"<. c #952DB7",
"1. c #8C32B3",
"2. c #9737B7",
"3. c #A639A8",
"4. c #A53AB9",
"5. c #B12FB3",
"6. c #924892",
"7. c #AA4E99",
"8. c #9B44B6",
"9. c #8D49AB",
"0. c #A646B7",
"q. c #B74BB7",
"w. c #B453BC",
"e. c #B965B8",
"r. c #C64BB8",
"t. c #CF53B4",
"y. c #C665B9",
"u. c #CD6FB4",
"i. c #DA5BB3",
"p. c #A539C5",
"a. c #B453C3",
"s. c #BC54C4",
"d. c #BB57C8",
"f. c #BB67C5",
"g. c #C857D4",
"h. c #C865C6",
"j. c #D370CD",
"k. c #ED4FE8",
"l. c #CD8BB8",
"z. c #E991D2",
"x. c #D2AFCF",
"c. c #E5B8C9",
"v. c #F9A8E7",
"b. c #EEB0EC",
"n. c #EBCBD4",
"m. c #774A57",
"M. c #774590",
"N. c #35281D",
"B. c #3B2C24",
"V. c #74554A",
"C. c #A83595",
"Z. c #CE37CD",
"A. c #D8B9C9",
"S. c #D9B9D5",
"D. c None",
"F. c #E6B7D7",
"G. c #785655",
"H. c #F392EC",
"J. c #753469",
"K. c #AA54A9",
"L. c #D44ED2",
"P. c #D1B6B7",
"I. c #C987C7",
"U. c #DAA3E3",
"Y. c #F8B6D8",
"T. c #D4C4CF",
"R. c #533B39",
"E. c #514334",
"W. c #473248",
"Q. c #472557",
"!. c #521C6A",
"~. c #673378",
"^. c #6C2B8B",
"/. c #732C94",
"(. c #783397",
"). c #7B33A5",
"_. c #963899",
"`. c #8332A4",
"'. c #8934B7",
"]. c #9945A8",
"[. c #A749AA",
"{. c #B54BAA",
"}. c #B656AA",
"|. c #AC4CB4",
" X c #AC4CBB",
".X c #B34DBC",
"XX c #AC53B7",
"oX c #B453B4",
"OX c #BB53BC",
"+X c #B958B7",
"@X c #C557BA",
"#X c #9935C4",
"$X c #AA46C4",
"%X c #B74AC6",
"&X c #B350CD",
"*X c #9C45C4",
"=X c #C64BC7",
"-X c #C354C4",
";X c #C355CB",
":X c #C45ACB",
">X c #C859C7",
",X c #E94FD2",
"<X c #E96ED3",
"1X c #D48ECF",
"2X c #FAB7E6",
"3X c #F6CDE9",
"4X c #1D1C1C",
"5X c #5B4546",
"6X c #684A46",
"7X c #5F4F64",
"8X c #ECDBE0",
"9X c #B234CA",
"0X c #F471EB",
"qX c #F3ACD1",
"wX c #6F4F50",
"eX c #884C72",
"rX c #B16899",
"tX c #B98DC9",
"yX c #BAC5B2",
"uX c #DFC4B5",
"iX c #68431E",
"pX c #1A1817",
"aX c #381C29",
"sX c #CE28AC",
"dX c #D8C3C8",
"fX c #BAB0A7",
"gX c #D1C5B7",
"hX c #E839DD",
"jX c #3A2425",
"kX c #D657E4",
"lX c #8A3275",
"zX c #2F2B5C",
"xX c #B425CF",
"cX c #835558",
"vX c #594739",
"bX c #69503A",
"nX c #B46BAC",
"mX c #64493A",
"MX c #6B1B64",
"NX c #B88AB4",
"BX c #E3AAB7",
"VX c #4D1732",
"CX c #9B1998",
"ZX c #D658C7",
"AX c #534652",
"SX c #8E626C",
"DX c #922EC4",
"FX c #342F19",
"GX c #513398",
"HX c #37444E",
"JX c #971A60",
"KX c #611828",
"LX c #341419",
"PX c #B91242",
"IX c #170617",
"UX c black",
/* pixels */
"D.D.D.D.D.D.D.D.D.D.D.D.D.D.D.D.= > : > > = = > > = > > > ; > ; > ; > ; ; , 1 ; ; 3 ; 1 - - % & % % % % $ + $ $ % % % X & X & O D.D.D.D.D.D.D.D.D.D.D.D.D.D.",
"D.D.D.D.D.D.D.D.D.D.D.D.D.D.D.D.D.> > > : > > > > - > > > > ; > ; > > > ; 3 1 1 1 3 9 ; ; % @ - % ; - = % % % % X % X % X % X D.D.D.D.D.D.D.D.D.D.D.D.D.D.D.",
"D.D.D.D.D.D.D.D.D.D.D.D.D.D.D.D.: > > > > = > > = > > > > > > > > ; > & , aXaXaXaXy 1 aX; ; % * % * % % % * $ % % X % O % O % X D.D.D.D.D.D.D.D.D.D.D.D.D.+ ",
"D.D.D.D.D.D.D.D.D.D.D.D.D.D.D.D.> = > > > > : > & 3 > & = > > > > > 9 > 1 1 1 aXaX# 1 # , @ = - $ % * * % $ X % % & X & X % X & D.D.D.D.D.D.D.D.D.D.D.D.D.% ",
"D.D.D.D.D.D.D.D.D.D.D.D.D.D.D.D.D.> > * = > > = > > = > > > > 0 7 7 9 9 y # aXaXaXaX# VX; ; % % % $ $ % $ % % $ + % & % % & % . D.D.D.D.D.D.D.D.D.D.D.D.D.D.",
"D.D.D.D.D.D.D.D.D.D.D.D.D.D.D.D.> > > > > > > > > = > > > > > > 7 8 w 9 k d VXv aXVXaX# ; ; * * $ X $ X $ % % $ % & + & + & & % ; D.D.D.D.D.D.D.D.D.D.D.D.D.",
"D.D.D.D.D.D.D.D.D.D.D.D.D.D.D.D.> > > - > : > > > > > > 3 > 9 0 r l x k S I P S # M # y 6 6 - : : % $ $ % - % - & & @ , @ % % % D.D.D.D.D.D.D.D.D.D.D.D.D.D.",
"D.D.D.D.D.D.D.D.D.D.D.D.D.D.D.D.- > > > > > > = > = & > 3 3 r r c l n V A L R R v v f 9 7 6 : > : * $ % % * $ - % ; & & & & @ @ D.D.D.D.D.D.D.D.D.D.D.D.D.D.",
"D.> > > > > > D.D.D.D.D.D.D.D.D.D.D.= = > = > > & - D.D.8 7 w r z n P ~.9.9._ +.n M 9 # 6 6 ; ; > - > - - - 6 : @ 9 8 6 6 ; @ @ - - D.D.D.D.D.D.D.D.D.D.D.D.",
"D.D.D.D.D.D.D.D.D.D.D.D.D.D.D.D.= > = = = > > > > > 0 9 7 r w w j M U ~.9.9.` MXf b w 9 9 6 ; 6 : : - - 8 - - : 6 6 w r 6 ; @ ; + D.D.D.D.D.D.D.D.D.D.D.D.D.",
"> > > > > i D.D.D.D.D.D.D.D.D.D.D.D.= > > = > > 7 7 0 0 r l k l v A _ (.*X*X} { b n w w 9 ; 1 1 & ; & ; : 6 8 8 w 8 x x 8 j 8 # - 6 D.D.D.D.D.D.D.D.D.D.D.D.",
"> > > > > 3 D.D.D.D.D.D.D.D.D.D.D.> = = > 3 3 > 0 > D.D.D.D.m m v A [ [ 8.*X} { C m c r 9 9 9 3 3 3 ; ; ; 7 8 8 k k V D k 8 w @ 6 D.D.D.D.D.D.D.D.D.D.D.D.D.",
"D.D.D.> > > > > D.D.D.D.D.D.D.D.= > & 3 3 3 0 r 0 0 t t b b Z Z v K Q ! 9.9.....K Z l x t e y y 9 1 1 1 3 0 w w J x T J # # w 8 ; ; D.D.D.D.D.D.D.D.D.D.D.D.",
"D.D.> > > > > D.D.D.D.D.D.D.D.D.D.D.3 > 3 3 0 u 0 q t u D.D.C Q.S I ] ] 9.*X(.} L P V n l l q e 9 9 1 2 0 0 w c T T D Q.# 8 6 6 6 ; D.D.D.D.D.D.D.D.D.D.D.D.",
"D.D.D.D.D.> D.D.D.D.D.D.D.D.D.> 3 3 4 1 y r u t u u b l C C D.D.v R ! Q `.$.+.+.W U K Z m C k k e e w 9 9 7 w c Y T !.x # # 6 @ - - D.D.D.* D.D.D.D.D.D.D.D.",
"> < i > > > > D.D.D.D.D.D.D.D.D.& > 9 4 r t u d b c g W.C C L ~ R R ! R #.$.` { ~.W K Z S M m l k k r q 0 9 w i GX) x v j e ; 6 - D.D.D.D.D.D.D.D.D.D.D.D.D.",
"D.> > ; > ; 7 ; = > > > > > = D.D.> r r r l c W.!.U Q MXJXJXPXPXJ.J.~.~.M.] ! ~ I I H JXD W.W.c b d e w w 9 w w 3 & ; > 6 6 - & = - - % D.D.D.D.D.% D.D.D.D.",
"> 7 6 > 6 > ; > > > > > > D.D.3 i 0 u u c W.c D U U Q Q JXJXi.PXeXJ.R Q ] Q ! ! ( ( lXJXB M m zXb M l t r w w # 3 , ; ; ; ; & - % - - * % - - @ % + D.D.D.D.",
"> > > ; ; > 7 > > > > > > > 3 3 q r t l c m J T ) { [ (.CXC.sXPXC.C.! %...] %.CXsXsXPXsXlXJXzXHXC C l l e r 9 9 ; 1 - ; - - ; > - - & - % % % - % % D.D.D.D.",
"> 6 ; 7 7 ; 7 ; = > > > > > 3 i r q t W.D D Z I ] ..(.(.lXC.PXC.sXPX[ @.(.(.CX_.PXsXsXsXJXlXHXHXF F m l t r 9 9 ; ; ; & > > - - = - * - % % D.D.D.D.D.D.D.D.",
"9 > ; > > > ; > > > > > > > 3 i q q M M J K U ` ) ..).).@._.C.C.sXCXCXCXO.'.DX-.sXsXsXsXCXJXT GXI A D W.t r y 0 3 ; ; & > - > - - > = - - % % - % + D.D.D.D.",
"> > > 3 ; > > 7 > > > > 3 D.D.i d d S S K K ` ] ....).).@.%.%.%.CXCXCX3.'.DX<.<.sXsXsXsXlXCX) ) E I D W.b l r y 9 3 0 > - > > - - & - - % - D.D.D.D.D.D.D.D.",
"> > > ; > > ; 3 D.D.D.D.D.D.> u d W.S F Q Q ^./.o.} O.:.#.%._.#.).).'.DXDXDXDXDX'.'.CX%.{ +.#.o.~.E I D C M l t 9 9 9 ; & > = - - - % % - % % + % % D.D.D.D.",
"3 ; > > 9 ; > > > > > > > > 0 0 d M S A Q _ /.(.).).1.1.#.' _.%.:.O.'.,.DXDXDXDX'.'.).#.} +.CX#.E E I F W.C l t r 9 > ; > > - - - & - % % % % % D.D.- D.D.D.",
"> * > = = > * i = 3 D.D.0 0 0 r b W.D F W ] X.o.;.,.,.'.<.,.-.-.#X<.5.<.<.<.'.'.*.:.:.1.#.#.#.%.] _ Y K F S b k 0 y , ; ; ; ; > % * - - * - % - - - D.D.D.D.",
"D.> > : = i > = > > > 0 9 9 u u W.D D F W _ X.o.,.=.,.DX<.'.-.<.<.xXp.5.2.2.2.1.1.'.;.:.=.-.%.#.[ _ E Y D D b b r r 3 ; ; ; - - - * - * - - % % % * % % % % ",
"D.D.D.D.= : i = 9 7 0 3 0 q u t W.D Y Y ^...O.,.<.,.DXDXDXDX-.<.<.'.#X#X4.4.4.5.5.<.DXDX;.;.*.X.D.D.Q R I S W.m e y 0 6 & > > - - * : - % % % D.D.D.D.D.D.- ",
"D.D.D.D.> = = > > ; 3 0 0 t l l D AXI Y ] (.*.*.'.'.DXDX<.<.<.<.'.DX#X$X%X9X9XxX#X#X#XDX2.;.:.*.(.[ ~.E E I V b t t > 3 > > - > - * * % - % + - D.D.* D.D.D.",
"D.> > > 3 > O > > 3 3 0 q r M M S F W _ /.| *.,.'.<.DXDX2.#X2.#X'.DXp.$X%X%X9X9X9XDXDXDXDX<.=.=.#.| [ ..Y I D D l k 0 3 7 6 > ; : - - - - % % % D.D.* D.D.D.",
"i > i > > > i < ; 0 3 0 q t b b A F _ ~ | | *.,.'.'.#X2.2.#X#Xp.*X*X&X&X%X%XZ.Z.#X*X#X#X<.<.<.,.).)...] ~.~.F Z b l 3 > ; > > ; - - - - % % - % D.D.D.D.D.D.",
"3 7 7 > > < > = > 3 0 0 t b b C L F ' ' ).).;.;.1.<.2.2.2.2.4.5.&X$X%X%X*Xa.8.8.#XxXDXDXDXDX<.5.:.O.(./.] ~.I K V Q.t r 9 6 ; > ; ; - - % - - % % % * - - - ",
"7 > > 7 > > i = 3 3 r r t t M C L R _ _ | `.*.1.,.2.#X2.2.2.<.5.&X&Xg.&Xd.&X$X$X#Xp.#X#X#X#XxX<.*.:.(.(.] ] I I Z V l u r 6 > ; ; - * * * % * * & - * % D.D.",
"7 3 3 i > > > D.D.i u D.D.l C Z L Q ] ' :.X.1.1.,.<.<.#Xp.p.$X%X%X%X;X>Xs.:X%X%Xp.p.#X#X#X#X<.<.*.=.X.| /.^.` Y Y J V x c w > > : ; > - - = - % * = - - - D.",
"D.D.D.D.> > > > 3 i 0 0 b b Z A Q Q _ ^.).} *.O.<.2.p.p.p.%X%X&X%X%X>Xg.;X:X%X X9X9XDXp.xX#X<.,.*.*.).| ../.] ) Y T V Q.r w > 7 > > - : - * * * - % = % - - ",
"> i > > > > > 3 3 u u u W.l K I Q Q [ ^.9.:.8.*X4.p.9X$X%X%Xd.g.g.s.OX-X@Xg.:Xs.9X&XDXp.DXDX,.-.:.=.`.#.| (.^./.` ) J J l z 9 0 7 8 D.D.D.D.D.D.% & % % * - ",
"0 > > > i > 3 > > 3 0 u l W.K K U Q [ _ :.`.*X*X$X$X&X$X%X%Xg.g.kX-Xg.j.-X:X:Xs.&X&X#X#XDXDX<.,.=.=.`.`.(.#.....~.Y T J z l u 0 7 6 ; - D.D.D.D.& & % % - * ",
"> > > i > i 3 3 u 0 u u c W.L L @.@.6.6.XX8.&Xd.4. Xp..X4.q.s.:Xa.h.H.H.h.-X-Xs.&X%XDX5.<.<.<.,.=.=.`.;.:.$.(./._ ` !.J x k c r 9 y 9 # 6 ; ; - - * % % % * ",
"> > > 3 > > 3 i > u r u W.W.Y Y ~ [ 9.$.XX8.&X$Xp.$X.X9X.X Xs.:Xs.kXH.H.g.>X:X>Xg.g.p.p.<.<.2.DX2.>.9.1.].>.:.$./.^.U P V D.D.l e 9 9 6 ; , ; - D.D.* D.D.D.",
"3 > > > > > > 0 0 0 l l C Z W ~.6.6.K.K.d.|.d.d.%Xa.;Xs.%X.Xs.:Xf.+Xj.U.:Xh.>X-XkXj.5.4.#X4.#X$X0.0. XXX|.8.XX].$.$._ W P J Q.Q.e 9 9 1 # 1 @ , D.D.D.D.D.D.",
"> > 3 i 3 > > i 7 u l l C Z W ~.6.6.K.K.XX Xa.d.a.d.:Xg.s.s.w.OX+X+XH.H.>Xh.>X-X;X>X%X4.p.9X9X&X$Xa.0.0.8.[.XX8.].$.! ! P J n n e e 9 9 ; & & ; D.D.* - - - ",
"> > D.D.D.0 > 3 7 u z W.Z Z _ _ 9.K.XX9.XXXX+X+XOXd.h.:Xs.OXOXd.h.h.oXoXf.h.:X-X>X>X&X9X9X&X&X9X$Xa.w. XXX8.[.8.].].].6._.$.L P m b 9 9 1 1 , - D.D.D.D.D.% ",
"> > > > > D.D.7 7 r m l K Z ] ' 9.K.K.K.XXXXw.+XOXs.-X-X:X:X-Xd.a.d.@Xe.j.j.;X:X@X-X9X&X&X9X&Xg.a.%Xw.XX[.|.[.[.].[.[.[.6.@.W P k k 0 9 9 ; 1 @ D.D.% % % * ",
"0 7 > 7 7 > > > 0 u V m I S } (.XXXXXXXXXXoXw.+XOXOXOX-X>X:Xd.d.$X&Xf.e.h.h.-Xh.w.-XkXg.L.&X&Xg.s.s.w.XXXX[.K.[.K.[.[.K.].[.' Q b k r 9 9 3 ; ; D.D.% % % * ",
"i > 7 > i 7 3 i 9 u m n K K (.(.].K.K.XXoXoXoXoX+XOX@Xs.-X:X:Xd.&X&X}.oXe.h.+X>X@X@XkXg.g.&XL.&Xs.%Xw.XX|.|.[.[.K.[.].7.[.[.[ ` m b t 9 3 6 ; @ D.D.* D.D.D.",
"> : > > > > 7 i 0 u l l Z I (.$.K.].K.XXoXXXoXoX+X@XOX@X;X-X:X:Xd.&Xe.nXf.1Xf.h.>X>XZX>Xg.>X=X;X%Xs.q.q.|.q.K.7.7._.].[.[.[. .' V l l w 0 6 1 @ - = * - % & ",
"7 7 D.D.> > > > 7 0 l m K I (.(.9.].XXXXXXoXoX{.oXoX@XOXd.d.;X;X&Xg.e.e.1XU.w.e.OXr.g.ZXL.L.g.;X-XOX%Xq.q.|.K.[.[.7.[.K.].0.' +.V z r w ; 9 & ; - = * - % - ",
": i 7 : 7 > 7 > 7 0 n b D.D.(.M.].K.K.XXoX|.q.{.q.q.OXOX-X;XOX@Xh.h.1Xx.b.b.I.j.y.+X@X@X:X-X=X%X=X-Xq.OX{.|.K.7.7.7.|.{.8.[. . .m k w w 9 9 ; ; = % D.D.D.* ",
"> > > > > > i > > 0 b b A A [ [ ].].[.[.oXq.oXoXoX+X-Xs.;Xd.@X@X{.y.x.U.U.b.1X1Xy.e.+Xy.>Xh.;X-X%X=Xq.q.|.q.7.}.[.[.K.[.|.0.|  .V k w w 0 9 , ; % % - = - = ",
"> 3 > > 3 > > 3 i 5 l l C C ~.[ #.=.-.7.[.{.@X>XhXhXhX,X,X,Xt.{.NXl.8X8Xc.c.U.n.f.nXa.h.-X:X-Xq.OXs.q.w.[.{.[.{.[.K.[.[.&.>./.{ m z w w 9 3 ; ; % & - = % * ",
"i > i 0 i > i 3 0 i b t C S ~ [ +.CX_._.{.[.r.i.k.hXhX,X,X,Xt.{.NXBXn.8XA.S.S.2Xf.f.d.h.q.@X%X-X%Xr.oXoXK.{.[.}.[.[.].[.:.`./.{ z k w 9 ; 9 1 ; & - * - - * ",
"D.D.3 3 > 0 > 3 > 3 u t M D Y I ,.,.DXDX[.|.}.7.i.i.,X,XZXkXu.}.gXD.D.D.uXuXuXP.tXj.XXf.OX-Xr.q.q.{.{.oX[.q.0.0.[.].6._.' ` !.U l z 9 9 1 3 ; @ D.D.% % % * ",
"3 > 3 > 3 D.D.3 i 3 t t m M K L o.o.,.,.3.3.rXt.i.i.,XhXL.ZXu.u.A.dXuXdXuXP.uXP.I.tXK.d.q.OXq.{.{.{.[.q.{.[.[.[.|.XX9.].' +.!.!.k z y 9 9 ; ; , D.D.- = & % ",
"3 > 7 > 0 > 3 3 3 i u u l l C C ,.O.o.o.@._.[.q.t.t.j.<X<X<X<X<X8X3XT.dXfXfXuXuXv.v.<X<XZXD.D.<Xr.q.{.r.3.0.9.>.X.| ^...R P Q.v y 9 9 9 6 ; & - - * % % * * ",
"3 > 3 3 3 > i i 3 > 0 0 l l n C O.O.+.+.@.@.[.0.5.r.ZX<X<X,Xu.<X3XD.D.dXuXuXfXuXD.v.<Xj.ZXZXZXj.ZXr.5.q.3.3.>.>.}  .` /.R U S Q.0 9 3 D.D.3 ; - - - - $ - - ",
"> > 0 i i 7 > > > > i 0 u c l V H R [ ~ `.| =.;.4.9XZ.Z.sX5.{.i.tXtXA.x.uXc.A.c.2Xv.j.j.<Xk.ZXi.<Xg.q.q.>.3.#.#.....U ) M C 1 2 3 3 > ; ; > : - % % % % - - ",
"i 3 > > 3 > 0 > > > 0 i r l z l S S [ [ &. . .=.5.4.Z.9Xr.Z.t.7.NXtXA.c.D.D.P.3X2Xv.@Xj.<X<XZXZXj.L.q.q._.#. .' { ) !.U Q.n 4 2 0 D.D.& > - - % $ % * % & % ",
"> > > > > > > > > i i > u i l l n M N B ! J.+.=.,.,.CX-.5.9XZ.hX@Xh.H.<XqXv.v.qXH.z.i.j.,Xi.r.r.w.|.>._.' $.[ ] T T n V l k r 9 3 ; > - & > - - $ % % % % % ",
"i > 7 7 > > i > = < > > 0 u l r b n N N R R =.o.CXDX5.<.5.xXxXkX+Xy.<Xz.z.qXv.D.D.z.ZX@XD.D.r.5.[.>._.$.' ' ] ~.J J n n k k 9 9 ; - > - - - % - % $ X $ % % ",
"3 > > > > i > > i i > > i 0 r r f 4 M W.v v KXH %.lX4.5.xXxXxXxX=XL.<X0Xz.z.<Xz.<Xj.t.r.{.C.C.C.$.$.(._ Q U Y K z k r r 0 9 7 ; > = > - - - - % % $ * X % % ",
"7 > 3 > > 3 i > = = > i 7 0 0 r y a M W.N H MXKXlX%.5.9XxXxXxXxXr.=X<X<Xz.z.z.<XZX@X7.7.C.lX%.3.[ [ ' _ U Q K Q.z k w 9 > 6 ; 6 - - * - : * % % $ + % % * % ",
"3 > i 3 3 > > > > > > 7 i 0 0 4 jX2 6X/ iXV.cXmXH cXlXcX3.[.9XxX>.3.+X@Xi.u.u.rX7.rX%.%.lX%.R ~ L K A S M C f d r y 0 > > > - > - - - - * - - * % % $ % % % ",
"> > > 3 > > > 3 i > 7 > 3 > 9 > VXa G.G.cXcXH cXcXH JXcX>.0.p.DX.X[.+X}.rXrXSXrX@.7.%.lX! lX! lXL I R P C A b b r 0 ; 6 > ; > - > & - = - - - % % % % p % % ",
"> 3 > 3 > 3 > > 3 3 3 > > 7 3 3 FXFX7X( lXlX6XG 7X^ 6X6X( D.D.J.6.@.lXlXJ.cXJXH H E R ! !.R F E C M b d t q q 9 q 4 > 3 > ; - - - - * - - % D.D.% % % % % % ",
"> > > > > 3 > 3 > > > > 0 ; 3 > FXFX( G.J.cX^ V.V.^ / 7XJ.J.( J.K.D.D.J.m.J.G G S J.Q Q MXR v A M n M d e y 4 4 0 6 6 3 ; > ; & - % - = - - - : % D.D.D.& % ",
"D.D.D.D.D.D.D.D.D.> > > > > > > wXG.^ 6XV.V.H cXV.V.6X6XB / 6XG / / / H N D.D.D.G F W.W.b W.d d f f , f , 3 9 q 3 1 ; ; ; ; > ; - - = * - - - D.D.D.D.= - - ",
"D.D.D.D.D.D.D.D.D.D.0 > D.D.D.3 D.D.D.5Xm.V.bXm.V.V.G wXB 6XF B G / F D.D.D.M N F F W.M M M d f M f d 1 1 1 9 3 1 9 ; ; ; > & - = - - - * - - % = - % % % D.",
"D.D.D.D.D.D.D.D.D.D.D.> D.D.D.D.^ 5XvXvXV.bXmXbXmX6XB 6X5X5XB R.B B h N d d M M d d f f y y aXy h B R.R.0 4 , ; 1 , 1 ; > > ; ; > = - - - - % % % % % @ D.D.",
"D.D.D.D.D.D.D.D.D.D.D.D.D.D.D.D.5XbXmXD.D.mXmXbXmXmXbXV.B D.D.D.W.d D.D.D.D.D.D.D.f d d d y a q B B B 5Xg s 1 & ; , ; 1 ; & & ; - - D.D.- = % % = % % & & % ",
"D.D.D.D.D.D.D.D.D.D.D.D.D.D.D.D.mXbXV.^ bXbXbXbXV.G.V.wXD.D.4 a f s q D.D.D.D.D.D.D.D.f 2 4 d f h a s s E.D.D.< , , ; ; > ; - > > - & - - % % % = % % % % - ",
"D.D.D.D.D.D.D.D.D.D.D.D.D.D.D.D.D.D.bXbXvXiXbXbXV.V.^ V.R.vX4 f 4 q q q q 2 2 2 aX2 2 2 jX2 D.D.D.a FXs g D.D.D.@ , & , > > & - = - - - % % % - & - % % % * ",
"D.D.D.D.D.D.D.D.D.D.D.D.D.D.= % D.D.bXbXiXE.bXvXmXbXvXD.D.5XB.B.D.D.D.D.D.D.D.5 g u f 4 a D.D.R.R.s s s 5 E.s 5 LX, ; 1 ; ; & ; - - & - = - - % & % % % % & ",
"D.D.D.D.D.D.D.D.D.D.D.D.D.D.D.X bXE.bXvXvXvXbXE.bXbXvXbXR.E.B.jX< N.= & & , < 3 5 5 B.B.a a R.R.R.R.E.E.FX5 5 E.o @ ; , ; ; - & - = - - % % % ; % & % + D.D.",
"D.D.D.D.D.D.D.D.D.D.D.D.D.D.= D.D.E.vX5XmXmX^ bXvXvXD.D.a D.D., O O $ O O * < < < < D.D.D.D.D.g FXB.s D.D.D.5 D.D.O % D.D.D.D.- D.D.D.- * % % % % * D.D.D.D.",
"D.D.D.D.D.D.i 3 D.D.D.D.D.D.* X u E.E.vX6XbX^ ^ vXvXs a N.B., D.D.O O O O = = = , < < < N.D.D.D.D.D.D.D.D.E.5 FX= = - , - % D.D.D.D.* % % % D.D.D.D.D.D.D.D.",
"D.D.D.D.D.D.D.3 3 i D.D.D.D.D.X > 5 u vXE.5XvX5X^ E.5 < N., D.D.X 4XpX4XO pXO X O % < D.D.D.D.D.D.D.iXs s 5 B.N.& , & & = * * = - * - % % % D.D.D.D.* D.D.D.",
"D.D.D.D.D.D.D.3 > > > > > > * X = 5 g E.E.vXvXvXs 5 N.O . o o   X X p p $ X X X % X D.D.D.B.D.D.D.D.g D.D.D.D.D.D.& D.D.> - D.D.D.D.& % % % * % - % % % % % ",
"> > 3 > > > i D.D.D.> > > > = = D.D.* & o & o B.< < D.D.D.  p % % p p p 4X+ + + X % % D.D.D.< B.5 s D.D.D.D.o o   . = - - * * D.D.D.D.% % % % % D.D.D.X D.D.",
"D.D.i > > > i > > > > > 3 i > = = = = & N.& o o O o O & %   % * 4X4Xp p p +     4X+   . . & , 3 3 3 5 2 < N.@ D.D.D.- ; : * * * * * - = % % % % * D.D.D.D.D.",
"3 3 D.D.D.D.D.D.D.D.D.D.D.< > > = 4XpX4X4X+ + 4X  4X%   - + % * > i > > > > > % 4X% X + D.D.D.= = = & & % + % + . + = & * - * * % * * % % % % = - D.D.D.D.D.",
"D.D.> > i < D.D.D.D.i D.D.i 3 > 0 - 4X4X+ + . . +   4X4X+ + > > i > > > 3 > - - % % 4X4X. + % % = & & . .   . % - % % & - = - > D.D.- - % % % % % D.D.D.p D.",
"D.D.D.D.D.D.D.D.D.D.D.D.D.D.> > > > > * X % % - % = = = > > > > > > > > > > = : * > = *     % %   + 4X  +   . % - - * * D.D.D.D.- = % % % % % * % D.D.D.D.D.",
"D.D.D.D.D.D.D.D.D.> > > > > > > > = > - % % & = & & > D.D.D.D.D.D.D.D.D.D.> > > > > > - - + 4X- 4X4X  + + + % % = = * > D.D.D.D.D.* * % % % % - % % X % D.D.",
"D.D.D.D.D.D.D.D.> i > > 3 > D.D.D.D.D.D.D.D.D.D.D.D.D.D.D.D.D.D.D.D.D.D.D.D.D.D.D.D.> > > * % % 4X4X4X4X4X+ % * = = * D.D.D.D.D.D.* % % % % D.D.p % D.D.D.D.",
"D.D.D.D.D.D.D.D.D.D.D.> D.D.D.D.D.D.D.D.D.D.D.D.D.D.D.D.D.D.D.D.D.D.D.D.D.D.D.D.D.> > > > : = = - + +   % - - * - D.D.D.D.D.D.> * * % % % % * % % % % * D.D.",
"D.D.D.D.D.D.D.D.> > > > > > D.D.D.D.D.D.D.D.D.D.D.D.D.D.D.D.D.D.D.D.D.D.D.D.D.D.D.D.> = > > : - D.D.D.D.= - - > = - * * > D.D.D.D.D.- - * % % - % % X D.D.D.",
"D.D.D.D.D.D.D.D.> > > > > > > > D.D.D.D.D.D.D.D.D.D.D.D.D.D.D.D.D.D.D.D.D.D.D.D.D.D.* > : > > = D.D.D.D.D.D.D.= - = - D.D.D.D.D.D.* % % % % % D.D.% p % % % "
};
