/* XPM */
static char *_a20353eb8434bd2f1c2a8740e7404e78vAgghH6n4FzEMlb_22[] = {
/* columns rows colors chars-per-pixel */
"78 86 256 2 ",
"   c #221D1D",
".  c #271D1A",
"X  c #24221D",
"o  c #2B231D",
"O  c #2A291D",
"+  c #231E21",
"@  c #291D28",
"#  c #321B36",
"$  c #1B2C29",
"%  c #252425",
"&  c #2A2524",
"*  c #252926",
"=  c #2A2925",
"-  c #262529",
";  c #2A262B",
":  c #26292A",
">  c #2B2A2B",
",  c #332523",
"<  c #342A24",
"1  c #33252C",
"2  c #3B242C",
"3  c #322A2D",
"4  c #3B2B2B",
"5  c #3B312A",
"6  c #2C2532",
"7  c #2D2A32",
"8  c #2B2638",
"9  c #322634",
"0  c #332A34",
"q  c #3B2B34",
"w  c #34253B",
"e  c #3A253C",
"r  c #352B3A",
"t  c #3A2B3C",
"y  c #3C2433",
"u  c #383138",
"i  c #283332",
"p  c #1D1F20",
"a  c #432B2A",
"s  c #46352B",
"d  c #442A3B",
"f  c #462837",
"g  c #493735",
"h  c #522E37",
"j  c #381C4A",
"k  c #3B2543",
"l  c #3C2B43",
"z  c #392747",
"x  c #3C2653",
"c  c #342E47",
"v  c #4A1C52",
"b  c #432B44",
"n  c #43254C",
"m  c #432B4B",
"M  c #492947",
"N  c #542A48",
"B  c #573748",
"V  c #452B53",
"C  c #4B2C54",
"Z  c #4C2B5B",
"A  c #532C5C",
"S  c #552857",
"D  c #4A3256",
"F  c #573358",
"G  c #653857",
"H  c #692E54",
"J  c #4B2865",
"K  c #542B63",
"L  c #5B2C6C",
"P  c #572768",
"I  c #583367",
"U  c #5A2976",
"Y  c #5B3375",
"T  c #4C306C",
"R  c #652969",
"E  c #663569",
"W  c #632C7C",
"Q  c #662A78",
"!  c #752A79",
"~  c #763679",
"^  c #6A5446",
"/  c #694657",
"(  c #764A6B",
")  c #5B2C85",
"_  c #6B2C84",
"`  c #662886",
"'  c #752B8A",
"]  c #6A3387",
"[  c #763489",
"{  c #6C2A94",
"}  c #742C9B",
"|  c #7B2C9C",
" . c #792897",
".. c #6B3395",
"X. c #7C2CA3",
"o. c #7929A7",
"O. c #772CB0",
"+. c #6D1D92",
"@. c #863789",
"#. c #842B9A",
"$. c #863599",
"%. c #8F2D8C",
"&. c #832CA4",
"*. c #832CAB",
"=. c #892BA9",
"-. c #952AA9",
";. c #8C33AB",
":. c #8836A8",
">. c #9638AA",
",. c #882CB5",
"<. c #952DB7",
"1. c #8C32B3",
"2. c #9737B7",
"3. c #A639A8",
"4. c #A53AB9",
"5. c #B12FB3",
"6. c #924892",
"7. c #AA4E99",
"8. c #9B44B6",
"9. c #8D49AB",
"0. c #A646B7",
"q. c #B74BB7",
"w. c #B453BC",
"e. c #B965B8",
"r. c #C64BB8",
"t. c #CF53B4",
"y. c #C665B9",
"u. c #CD6FB4",
"i. c #DA5BB3",
"p. c #A539C5",
"a. c #B453C3",
"s. c #BC54C4",
"d. c #BB57C8",
"f. c #BB67C5",
"g. c #C857D4",
"h. c #C865C6",
"j. c #D370CD",
"k. c #ED4FE8",
"l. c #CD8BB8",
"z. c #E991D2",
"x. c #D2AFCF",
"c. c #E5B8C9",
"v. c #F9A8E7",
"b. c #EEB0EC",
"n. c #EBCBD4",
"m. c None",
"M. c #774590",
"N. c #35281D",
"B. c #3B2C24",
"V. c #74554A",
"C. c #A83595",
"Z. c #CE37CD",
"A. c #D8B9C9",
"S. c #D9B9D5",
"D. c #E7A9D8",
"F. c #E6B7D7",
"G. c #785655",
"H. c #F392EC",
"J. c #753469",
"K. c #AA54A9",
"L. c #D44ED2",
"P. c #D1B6B7",
"I. c #C987C7",
"U. c #DAA3E3",
"Y. c #F8B6D8",
"T. c #D4C4CF",
"R. c #533B39",
"E. c #514334",
"W. c #473248",
"Q. c #472557",
"!. c #521C6A",
"~. c #673378",
"^. c #6C2B8B",
"/. c #732C94",
"(. c #783397",
"). c #7B33A5",
"_. c #963899",
"`. c #8332A4",
"'. c #8934B7",
"]. c #9945A8",
"[. c #A749AA",
"{. c #B54BAA",
"}. c #B656AA",
"|. c #AC4CB4",
" X c #AC4CBB",
".X c #B34DBC",
"XX c #AC53B7",
"oX c #B453B4",
"OX c #BB53BC",
"+X c #B958B7",
"@X c #C557BA",
"#X c #9935C4",
"$X c #AA46C4",
"%X c #B74AC6",
"&X c #B350CD",
"*X c #9C45C4",
"=X c #C64BC7",
"-X c #C354C4",
";X c #C355CB",
":X c #C45ACB",
">X c #C859C7",
",X c #E94FD2",
"<X c #E96ED3",
"1X c #D48ECF",
"2X c #FAB7E6",
"3X c #F6CDE9",
"4X c #1D1C1C",
"5X c #5B4546",
"6X c #684A46",
"7X c #5F4F64",
"8X c #ECDBE0",
"9X c #B234CA",
"0X c #F471EB",
"qX c #F3ACD1",
"wX c #6F4F50",
"eX c #884C72",
"rX c #B16899",
"tX c #B98DC9",
"yX c #BAC5B2",
"uX c #DFC4B5",
"iX c #68431E",
"pX c #1A1817",
"aX c #381C29",
"sX c #CE28AC",
"dX c #D8C3C8",
"fX c #BAB0A7",
"gX c #D1C5B7",
"hX c #E839DD",
"jX c #3A2425",
"kX c #D657E4",
"lX c #8A3275",
"zX c #2F2B5C",
"xX c #B425CF",
"cX c #835558",
"vX c #594739",
"bX c #69503A",
"nX c #B46BAC",
"mX c #64493A",
"MX c #6B1B64",
"NX c #B88AB4",
"BX c #E3AAB7",
"VX c #4D1732",
"CX c #9B1998",
"ZX c #D658C7",
"AX c #534652",
"SX c #8E626C",
"DX c #922EC4",
"FX c #342F19",
"GX c #513398",
"HX c #37444E",
"JX c #971A60",
"KX c #611828",
"LX c #341419",
"PX c #B91242",
"IX c #170617",
"UX c black",
/* pixels */
"m.m.m.m.m.m.m.m.m.m.m.m.m.m.m.: : : : : : $ : : 6 ; 6 ; ; 9 6 @ , @ 8 # j j @ aX$ 8 # 8 # aX. 1 - * - - % - % - % - % - + - % % m.m.m.m.m.m.m.m.m.m.m.m.m.m.",
"m.m.m.m.m.m.m.m.m.m.m.m.m.m.> : : : $ : : : : : > ; 6 6 ; 9 9 9 4 a z 8 c IXIXIXp - 8 # VX# o O - > % - % % % @ % % % % - % % m.m.m.m.m.m.m.m.m.m.m.m.m.m.m.",
"m.m.m.m.m.m.m.m.m.m.m.m.m.m.m.m.; ; & ; : ; ; ; ; ; ; ; 9 ; ; 7 6 6 x zXx # IXIXIX, 8 8 8 8 $ $ = % = - - % % - % - % % % % - + m.m.m.m.m.m.m.m.m.m.m.m.m.m.",
"m.m.m.m.m.m.m.m.m.m.m.m.m.m.m.m.; > ; - > ; ; ; ; ; ; 1 ; ; 6 6 7 6 x zXQ.j IXIXIX@ 8 8 8 8 $ $ - % - - % - % % - + % - % % % % m.m.m.m.m.m.m.m.m.m.m.m.m.m.",
"m.m.m.m.m.m.m.m.m.m.m.m.m.m.m.; - ; 1 3 , ; ; & ; 9 ; ; ; 3 ; 7 8 8 T J U J IXIXLXaX- - $ $ X O - - - - - - % % m.m.- % - % % - m.m.m.m.m.m.m.m.m.m.m.m.m.m.",
"m.m.m.m.m.m.m.m.m.m.m.m.m.m.; > ; ; & ; ; 3 ; ; ; ; ; - ; ; 6 > 8 j T T ] M.j j @ aX8 - i $ X FX- : = - = - % % - % % % % % - @ * m.m.m.m.m.m.m.m.m.m.m.m.m.",
"m.m.m.m.m.m.m.m.m.m.m.m.m.m.m.m.; > ; ; ; ; : 6 6 ; 6 6 6 9 9 9 c x [ Q @.%.N S aXa 8 : i * LXjX: - - = - m.m.% - % - % % - % - m.m.m.m.m.m.m.m.m.m.m.m.m.m.",
"m.m.m.m.m.m.m.m.m.m.m.m.m.m.m.m.; > 6 ; ; ; ; : 7 6 6 6 9 ; 9 0 w c [ [ ].3.VXv f y : - > % LXjX* = - - - % % - - % - + % % % % m.m.m.m.m.m.m.m.m.m.m.m.m.m.",
"m.m.= > > = > : m.m.m.m.m.m.m.= - : : : : : 8 i : 8 8 i : 7 : > y y j j 7XT c 6 $ $ $ 8 # @ aXaX& ; % % % % % % % + % % % % % % - - - m.m.m.m.m.m.m.m.m.m.m.",
"m.: m.m.m.m.m.m.m.m.m.m.m.m.= > : * : > : 8 8 8 8 - i i i : i > y f j x T zXc j i $ zX$ # 8 aXaX- % @ ; % @ % @ % % % @ @ % % @ - m.m.m.m.m.m.m.m.m.m.m.m.m.",
"= > : > : > > = m.m.m.m.m.m.m.m.m.> ; > 8 7 8 8 8 8 8 8 7 7 0 0 $ i 8 zXHXzX6 9 $ $ $ $ j 8 : ; ; % - % & @ % ; % @ % - % % % & m.m.m.m.m.m.m.m.m.m.m.m.m.m.",
": > > > = > m.m.m.m.m.m.m.m.m.m.> > > ; 6 8 8 8 8 i i 8 0 r 0 9 i $ zX$ zXc 6 z $ $ $ zXc c 8 8 & ; & - % - % - ; % % & & @ - - ; m.m.m.m.m.m.m.m.m.m.m.m.m.",
"m.= > : > > > : m.m.m.m.m.m.m.m.& > 9 3 w 9 w l l l e d f e f j $ i zX$ zX$ aXa u q h VXe e * i ; & ; ; - - - & % @ - & - ; % ; - - m.m.m.m.m.m.m.m.m.m.m.m.",
"m.m.m.m.: m.m.m.m.m.m.m.m.m.- > 3 > 9 q w r l l l b d k f d M VX$ i i c i zXf f h h h s VX# * : ; > > > ; & ; % ; % ; % ; % - & ; m.m.m.m.m.m.m.m.m.m.m.m.m.",
"- > > > ; m.m.m.m.m.m.m.m.m.m.& 2 9 y e b b z b S S N v M VXKXKXi i c l x M KXN PXPXPXJXN KXq 5 0 ; 9 6 6 ; ; ; & & ; ; - & ; % - = m.m.m.m.m.m.m.m.m.m.m.m.",
"m.> > - > > ; m.m.m.m.m.m.m.3 > 1 y e e d b b b G A N M h N VXKX5 5 l l m n KXKXPXPXPXPXKXKX< B.3 > 0 ; ; 6 ; ; - ; - ; & ; % ; m.m.m.m.m.m.m.m.m.m.m.m.m.m.",
"m.m.: > > > > > ; 7 > ; 7 > 3 0 r r z x D D U ) Q R MXMXKXH KXPXd h u l n f N VXJXPXsXJXH v j c l z 7 8 9 8 ; @ ; & - > & & > = m.m.m.m.m.m.m.m.m.m.m.m.m.m.",
"m.> > > = > - = > 6 7 3 7 7 3 0 r c c z zXD ) ) ~.Q MXMXJXKXPXiXN M u c e f H N JXC.JXJXMXMXc x l l r 9 6 9 1 ; ; > - - - = * m.m.m.m.m.m.m.m.m.m.m.m.m.m.m.",
"= : > > > > > > ; > 6 3 3 > y q b M Q.C P P +. .[ _ ~.Q H KXJXJXF D HXD D F R S lXJX%.lXJ.MXx x z x k w 9 9 ; ; > - = = = * - = * = m.m.m.m.m.m.m.m.m.m.m.m.",
"m.> > = > > & > 7 > ; > 7 0 0 t M b V Z U U { } _ ' ! ~ H H KXJXD C AXx x D A A JXlXJXlXQ ! J J l z r z w w 9 6 = = = = = = - * - = m.m.m.m.m.m.m.m.m.m.m.m.",
"< = = > > > > > > 7 6 7 7 7 t t n Q.P L ` ' +.| { { ` W I L E E I 7XY 7X~.7X] J.[ ` ' | o.{ ) { D C l e r 9 9 6 > - > = * = * - * - m.m.m.m.m.m.m.m.m.m.m.m.",
"i > > > = > > > 6 > ; 6 7 0 q u C C P U '  . .} {  ._ ] E E J.E 7XY Y Y 7XI ~.~.$.' '  .GX+...) F m l l r e 9 6 < = = > = - % * - * m.m.m.m.m.m.m.m.m.m.m.m.",
"= > > > > = > m.m.; 7 7 9 0 r u J T U `  .&.*.*.o.o.^.(.] M.[ M.M.[ M.M.M.~ M.M.).O.} O.O.O.O.+.K A C C b k e w 3 ; & & = * - = = = m.m.m.m.m.m.m.m.m.m.m.m.",
"> = > = > = > > 7 > 7 7 0 0 u u D T ` ` &.| *.=.*.o.(.(.] [ M.~ M.M.[ ( ] M.M.M.O.).O.).O.O.GXO.E A A Z b n l 9 3 3 - = - = = - > - m.m.m.m.m.m.m.m.m.m.m.m.",
"m.> > > > > 7 > 9 7 r r u c c AXT ) ) ) &.#.<.p.#.:.&.-.&.=.>.>._.@.$.6.[.6.$.' :.).).).O.'.-.CX~._ L P C V e z 9 1 3 = = = = * m.m.m.m.m.m.m.m.m.m.m.m.m.m.",
"m.m.m.> 7 > > 7 7 7 0 8 u u l W.T T ..) &.#.p.$X:.;.=.>.#.&.>.>.6.].6.6._._.$.%.`.).).).'.).-.CX] ~.Y T D C l l q 9 & - - & - = m.m.m.m.m.m.m.m.m.m.m.m.m.m.",
"3 i > > > > > 3 r 7 r r l l V D ..) } ` &.&.$X&X2.2.-.>.=.<.2.8.8.|.8.].>.`.=.>.'.1.,.,.*.,.,.,./.^.Q E L K m m y 9 3 3 = = = % m.m.m.m.m.m.m.m.m.m.m.m.m.m.",
"> > > > > > 7 i 7 0 r r l l C D ) ) } { =.=.$X&X8.8.>.2.=.1.0.$X8.8.].9._.#._.>.1.1.,.,.'.*.-.=.[ /.~.~.E K C m r q 3 & - = = % m.m.m.m.m.m.m.m.m.m.m.m.m.m.",
"7 7 > > > 3 3 7 9 r r l b m A K ..{ #.(.>.>.a.a.a.a.8.8.2.2.$X$X:.:.;.>.<.>.2.2.DX<.5.<.,.=.&.).| } ..] ~.Y Z V l e 3 = & > > - m.m.m.m.m.m.m.m.m.m.m.m.m.m.",
"7 7 0 > > > > 7 r 0 r t m V P I ` { (.| [.>.$Xa.a.a.$X0.2.2.$X$X&.`.:.1.2.2.2.1.<.DX<.<.-.;.:.`.m.m.m.m.m.Y T D b t 3 1 > & - = m.m.m.m.m.m.m.m.m.m.m.m.m.m.",
"7 7 > > > > 0 3 r r l l m D L Y { { | #.0.|..X Xa.XX8.0.2.;.4.-.2.1.2.#Xp.p.p.#XDXDX5.DX<.;.:.=.`.*.| (.m.m.m.m.m.n t q 9 3 & & 6 m.m.m.- * - * m.m.m.% % % ",
"7 6 > 3 > 3 3 0 u r t W.V D L L ).{  .$.XX|.w..Xa.a.8.8.2.-.2.;.2.2.2.#X#X#X#X#XDXDXxX5.2.<.1.:.`.`.(.} ] ] Y P C C t q 0 0 & 3 ; ; - * - = m.m.m.m.% % % % ",
"7 7 3 ; > 3 3 u t l b M A P +.{ =.#.#.#.{.}.}.}.d.q.0.4.4.2.<.p.#X2.9XDX9X#X9X#XDX#X#X#XDX#X8.$X*.:.} ).{ } ) ) ) U J !.j j 9 9 9 @ ; ; > = * * % % % % % % ",
"6 9 ; 3 > > 3 q r u b b P L '  .| &.#.#.K.}.+XoX:Xw.4.4.#X2.p.2.p.#X9X#Xp.9X#XxX#X#X*XDX#X#X#X$X'.>.(.:.(.).] ] ) ) U J x z e 9 9 ; ; ; > * = = % % X % $ % ",
"0 ; ; > 0 0 0 0 u l C D L Q  . .*.,.=.-.|.|.OX-X:Xs.$X4.4.<.#X4.p.2.#X#XxX&X9X9X#X#Xp.#X*Xp.&X&X2.>.`.`.{ X.(.{ ..) ) ) K v k j 9 1 ; 1 - ; m.m.* * * * X * ",
"9 7 3 ; 3 0 0 r t u C D L Q  .| o.,.=.=.0.|.OXd.-Xd.s.%Xp.p.p.#Xp.#X9Xp.&XkX9X9X*X#X#X#X$X$X&Xg.0.8.=.:.} X...} ..{ ) ) K v n k 9 9 ; ; & - m.m.X X * * * m.",
"m.3 7 > ; r q u l W.D D W W } X.DX,.,.,.%Xa.s.;X;X;Xg.;X%X4.5.5.p.#Xp.p.#X&XxX#X2.#X<.4.4.q.s.%X$Xa.>.8.&.&.X.X.O.} { { ) U J x e 9 3 1 ; ; % - $ % * * * X ",
"0 7 > 0 0 0 r u d c D D Q _ } | O.DX<.DXa.d.%X;X;X:Xg.g.s.%X.X4.p.p.&X&X&X9Xp.9Xp.p.4.p.5.%X%X%X$Xa.8.8.=.;.&.o.o.O.{ +.` U J !.t w 9 ; 1 , % = * % X * % $ ",
"m.m.3 > 0 0 r u l W.A I ] ] } } O.1.2.<.d.+X-X-X=X>Xg.L.:X-X$X8.%X%XkX&Xg.g.9X&X$X9X X%X-X@XOXOXw..XXXa.>.0.:. .X.o.{ O.{ +.) ) r w 9 6 6 ; - - * * X * m.m.",
"m.0 > 3 3 7 r r l W.A A [ ] } ).*.,.0.$X-Xw.-X;XZXg.>Xg.g.:Xd.&X%X%Xg.g.kXkX9Xg.4.p.p.%X%X-X%Xq.w.a. X X>.>.&.#.X.o.o.O.{ GX) ) l k r 9 1 9 = - % % $ % X $ ",
"< > = > 3 7 r r l l D Z M.] ).).`.#.a.XXXXoX-XOX=XZXg.kXg.kXg.g.;X-Xg.g.g.kX:Xg.&X%X:X:Xd.OXw.+XoX X|.|.0.0.0.8.X.*.o.o.{ { ) ) l z 8 r 6 ; : - * % * % % * ",
"< = 3 > 7 3 0 r l l Z Z M.] ).).`.`.a.a.w.w.-X@X%XL.%Xg.d.kXg.kXd.;Xg.g.kXg.g.g.%X%Xs.d.d.d.OXw.w.oXXX|.[.8.XX8.*.1.X.o...).) ) l z r r 7 ; - - - * X m.m.m.",
"= = < < > 7 3 0 r c Z V ] ~.O.'.`.).a.XX+X}.OX-X>Xj.g.:Xf.g.f.g.-Xh.h.g.kXL.L.g.:X:Xe.h.j.1XXXXXoXoXXXK.[.[.8.|.*.;.} ).{ } !.) z l w c 6 6 m.m.m.m.m.* * X ",
"< = > > 0 > 0 7 u l Z D ) ~.).).`.:.a. X@XoXOX>Xq.%X%X%Xd.j.&Xf.y.h.:Xg.g.kXj.ZXa.d.+Xe.1XtXnXnXoXoXXX|.|.XXXX|.2.1.X.X.{ o.) ) x z w w 7 m.m.; - - % $ X * ",
"> FX> < > > 9 7 u 5 m M E Y ).).'.O.$X8.q.OX{.>Xh.+Xf.f.j.tXnXnXy.@X@X@X=X>XZX>Xe.f.I.1XU.S.tXtXoX}.q.q.XX|.[.].8.8.).`.X.)._ ] x c w w 9 6 ; ; - % % % % X ",
"< = = = > 3 7 u 0 u C C Y ~.).).O.,.8.2.OXOXoX@X+XoXe.f.I.tXnXrXh.y.>X>X=X=X>XZXe.f.1X1XU.U.tXtX}.oXq.oXoX[.[.[.XX0.X.X.} o.~.] z m.m.m.6 6 ; - % - X % * % ",
"= < 3 = > m.m.7 0 u M b I Y } (.DXO.>.&.OXOX{.@XXXf.j.j.b.U.b.b.j.<Xj.h.g.>XZXZXtX1XU.U.S.U.tXtXr.q.oX|.|.{.0.[.XX8.| #.` ' R R z k r 8 6 6 ; - * % * % % % ",
"O i > > 0 3 i 7 0 u b M K K } o.,.O.&.`.s.d.q.r.w.f.tXI.D.U.3Xb.z.j.j.h.ZX>X>X@X1XtXU.b.x.x.tXtX}.q.oXoXXX[.|.|. X].#.&.' /.MX!.c z w 9 6 6 - - * % % * % * ",
"i 7 > 0 m.m.3 > u u b t D D I Y 6.).:.`.].3.=XZX,X,X<X0Xv.2XS.S.c.n.3X3Xl.NXI.tXS.x.x.S.qXx.nX}.+X{.oX}. X X X X].>. .`.{ ..x x r 7 8 7 8 : - - - - m.m.m.m.",
"3 7 3 i 3 i > 0 3 3 b l W.D Z T (.$.$.(.>.[.ZXZX,X,X0X0Xv.v.8XT.c.n.3X8Xl.tX1X1XS.S.x.x.D.z.}.}.{.+X{.q. X X0.$X$._. .| ` ) z x 7 r 0 7 : 6 6 - - m.m.m.m.m.",
"8 7 7 7 3 > i > 0 0 u l c W.D D _ ' ' [ [.>.:X>X,X,Xi.i.Y.qXgXgXP.P.dX8XP.P.T.A.T.T.A.yXNXl.rX7.{.{.{.}.XX X$X0.[ $.` /.!.J l z 7 7 8 : 6 8 - - - * m.m.m.m.",
"7 7 r 7 > 3 3 i 3 0 t u b c V D _ [ (.(.0.].>Xg.0Xk.ZXi.n.n.uXuXgXgXdXdXT.x.T.T.T.yXgXT.nXnXt.rX7.[.7.}. XXX8.8.#.$.W _ !.!.c w 7 7 8 8 : : 6 - - - m.m.m.m.",
"7 i 3 > > > i FX0 0 0 0 W.t W.V L P W W (._.C.3.i.=Xu.i.BXqXn.3X8X8Xn.T.P.A.P.P.x.A.x.1Xi.y.i.i.t.{.3.r.[.[.m.m._ ^.P L x D r 7 7 7 8 : 8 : : ; * - = - % % ",
"7 0 3 i 3 i O i > m.m.u t l W.m U Q _ ] _._.3.3.>XZXj.<Xl.l.n.3X8X8XT.A.P.P.P.P.P.dXBXx.i.i.i.<X@Xt.{.{.[.C.>.6./.' J L x Z r r 7 8 7 : 6 - 6 ; % - % % = % ",
"> > > 3 < < = FX> 0 0 > t t l b m W.Q.n R R lXC.{.{.r.t.t.}.D.z.U.U.U.U.D.D.qXv.2XY.z.<X,Xi.,X,XZXy.{.{._._.@.$.U Y V D 0 t 7 7 6 6 - 6 - - - m.m.- % - * % ",
"> > > i = > O i 3 > 7 7 q u t l W.W.A M R J.%.C.{.{.ZX>Xt.t.b.z.D.D.D.D.qXD.qXD.3X2X1Xj.i.,Xi.,Xj.j.q.{._.%.$.! !.T V F q r 6 7 : 6 : - 8 : > - - = = - - m.",
"m.m.m.m.m.m.m.m.i = m.m.0 m.m.r d W.W.AXR ~.' (.-.-.5.5.Z.Z.k.0XqXY.BXY.uXBXn.c.c.c.rXrXu.rXt.{.oX+X].].' ' !.!.x x z l r 8 7 7 ; : ; - : ; - > % - % % % - ",
"m.m.m.m.m.m.m.m.> > > > i u r t u d g B R R  .#.#.#.q.5.sXZ.0X0Xv.Y.Y.Y.c.uXn.n.3XF.u.u.i.i.t.t.XX{.]._.' ' Q Q x x c w r 8 7 ; > > ; ; - - - m.m.* = % % * ",
"> > > 3 > > > > > > > i > m.m.0 5 3 l c M S N KX%.%.9X5.L.Z.k.k.t.u.z.v.n.qXY.c.U.<X}.}.rX7.7.3.[ @._ ! !.MXQ.Q.c u 7 8 : 8 ; : - ; m.m.m.m.m.- * - = - = - ",
"i > > 3 3 i > < > > u > 7 3 0 0 3 i D AXv A N v %.lX5.#XkXZ.L.,Xy.i.z.v.qXY.c.qXz.z.rXnXt.7.6.7.' @.m.m.L Q Q.Q.8 8 8 7 6 : 8 : > - - m.m.- - : & % * % % m.",
"m.m.m.m.m.m.m.m.m.3 > 0 > 7 3 3 w l 5X^ ^ V.wX^ J.J.eXeX7.[.4.p.Z.L.@Xy.u.nXnXnXnX}.].C.@.lXMXR P L S S C C y e 7 8 : 8 : - - - ; ; : m.m.m.m.- * % % & % = ",
"m.m.m.m.m.m.i 3 7 > > m.m.m.3 3 w t wX7XV.V.wXV.J.lXlXlXC.7.4.-.sXZXy.ZXu.u.e.rX7.K._.6.lX@.J.J.P A S S C C w e 7 7 8 : - 8 - 8 : ; m.m.m.m.= - * - * * % - ",
"> > 3 > > > 3 i > > > > > > > 3 3 i ( 7X6XV.iXbXV.^ wX/ eX@.lX~ 6.6.( E ( G ~.E J.J.R J.S P M M m.m.d n q r @ 1 7 3 > ; 8 : : - > ; m.m.m.- - = - = - % * - ",
"3 3 i > 3 > > > > > 7 > > 7 & 1 3 3 7Xm.6XV.iX^ ^ m.m./ ~ ~ ( ( 6.rX( / ( G E E MXS MX! R S n n m.m.e d y e @ 9 0 ; 6 : ; : : : - - m.m.m.= * : - * m.m.m.* ",
"m.m.m.m.m.m.m.m.m.m.m.m.m.m.m.m.m.m.m.m.m.m.m.m.m.m.m.m.m.m.m.m.m.m.G B N N N N F C M d d d f f d m.m.m.1 3 3 3 3 ; ; ; > > ; m.m.m.m.= m.m.m.m.m.m.m.& % % ",
"m.m.m.m.m.m.m.m.m.m.> m.m.m.m.m.m.m.m.m.m.m.m.m.m.m.m.m.m.m.m.m./ B G m.m.f h N B B W.d d W.M h f e m.m.m.m.1 ; 3 3 ; 6 7 ; m.m.- - - % m.m.m.m.% % & m.m.m.",
"m.m.m.m.m.m.m.m.m.m.m.m.m.m.m.m.m.m.m.m.m.m.m.m.m.m.m.m.m.m.m.B m.m.m.f f f f d d a 2 jXaXaXaXa R.R.m.m.m.m.m.m.m.m.m.m.m.m.m.- - - - - * m.m.m.m.- & - m.m.",
"m.m.m.m.m.m.m.m.m.m.m.m.m.m.m.m.m.m.m.m.m.m.m.m.m.m.m.m.m.m.m.m.g f f f VXf f f f y f 2 y y y f m.m.m.m.m.m.m.m.m.m.m.m.m.m.m.- > * - % m.m.m.m.- - * - & - ",
"m.m.m.m.m.m.m.m.m.m.m.m.m.m.m.m.m.m.m.m.m.m.m.m.m.m.m.m.m.m.m.m.4 4 4 4 4 q 2 jX2 2 2 a 2 a f g g m.m.m.m.m.m.m.m.m.m.m.m.m.m.- = % % m.m.m.m.m.% - % = m.m.",
"m.m.m.m.m.m.m.m.m.m.m.m.m.m.m.m.m.m.m.m.m.m.m.m.m.m.m.m.m.m.m.4 4 4 q 2 2 2 2 , , aXjXjXm.m.a g f m.m.m.m.m.m.m.m.m.m.m.m.m.m.& - % - % m.m.m.m.- % % % % % ",
"m.m.m.m.m.m.m.m.m.m.m.m.m.m.m.m.m.m.m.m.m.m.m.m.m.m.m.m.m.m.4 jX< < < & o , , B.s s B.B.a a R.R.E.R.m.m.m.m.m.m.m.m.m.m.m.m.m.- - - % - * m.m.m.- % % % % + ",
"m.m.m.m.m.m.m.m.m.m.m.m.m.m.m.m.m.m.m.m.m.m.m.m.m.m.m.m.m.m.m.B.m.m.N.O o N.< < g 3 jX< jXs vX5Xs s m.m.m.m.m.m.m.m.m.m.m.m.m.< - % - - - m.m.m.m.- % -   m.",
"m.m.m.m.m.m.m.m.m.m.m.m.m.m.m.m.m.m.m.m.m.m.m.m.m.m.m.m.m.m.m.m.m.m.m.m.m.= m.m.m.m.m.m.m.m.m.m.m.m.m.m.m.m.m.m.m.m.m.m.m.m.m.m.m.m.m.m.m.m.m.m.m.m.m.m.m.m.",
"m.m.m.m.m.m.m.m.m.m.m.m.m.m.m.m.m.m.m.m.m.m.m.m.m.m.m.m.m.m.m.m.= m.m.m.m.m.m.m.m.m.m.m.m.m.m.m.m.m.m.m.m.m.m.m.m.m.m.m.m.m.m.m.m.m.m.m.m.m.m.m.m.m.m.m.m.% ",
"m.m.m.m.m.m.m.m.m.m.m.m.m.m.m.m.m.m.m.m.m.m.m.m.m.m.m.m.m.m.m.m.m.m.m.m.m.m.m.m.m.m.m.m.m.m.m.m.m.m.m.m.m.m.m.m.m.m.m.m.m.m.m.m.m.m.m.m.m.m.m.m.m.m.m.- - m.",
"m.m.m.m.m.m.m.m.m.m.m.m.m.m.m.m.m.m.m.m.m.m.m.m.m.m.m.m.m.m.m.m.m.m.m.m.m.m.m.m.m.m.m.m.m.m.m.m.m.m.m.m.m.m.m.m.m.m.m.m.m.m.m.m.m.m.m.m.m.m.m.m.m.m.m.m.* m.",
"m.m.m.m.m.m.m.m.m.m.m.m.m.m.m.m.m.m.m.m.m.m.m.m.m.m.m.m.m.m.m.m.m.m.m.m.m.m.m.m.m.m.m.m.m.m.m.m.m.m.m.m.m.m.m.m.m.m.m.m.m.m.m.m.m.m.m.m.m.m.m.m.m.m.m.% m.m.",
"m.m.m.m.m.m.m.m.m.m.m.m.m.m.m.m.m.m.m.m.m.m.m.m.m.m.m.m.m.m.m.m.m.m.m.m.m.m.m.m.m.m.m.m.m.m.m.m.m.m.m.m.m.m.m.m.m.m.m.m.m.m.m.m.m.m.m.m.m.m.m.m.m.m.m.m.* m.",
"m.m.m.m.m.m.m.m.m.m.m.m.m.m.m.m.m.m.m.m.m.m.m.m.m.m.m.m.m.m.m.m.m.m.m.m.m.m.m.m.m.m.m.m.m.% m.m.m.m.m.m.m.m.m.m.m.m.m.m.m.m.m.m.m.m.m.m.m.m.m.m.m.m.* % - m.",
"m.m.m.m.m.m.m.m.m.m.m.m.m.m.m.m.m.m.m.m.m.m.m.m.m.m.m.m.m.m.m.m.m.m.m.m.m.m.m.m.- % % m.  % m.m.m.m.m.m.m.m.m.m.m.m.m.m.m.m.m.m.m.* m.m.m.m.m.m.m.m.- % % m.",
"m.m.m.m.m.m.m.m.m.m.m.m.m.m.m.m.m.m.m.> % % % % m.m.m.m.m.m.m.m.m.m.m.m.m.m.m.m.= > % % % %   pXm.m.m.m.m.m.m.m.m.m.m.m.m.m.m.m.m.m.m.- % - & % % % % - m.m.",
"m.m.m.m.m.m.m.m.m.m.m.m.m.m.m.m.m.m.m.> = % * - m.m.m.m.m.m.m.m.m.m.> > > > > > : * * * - = %   m.m.m.m.m.m.m.m.m.m.m.m.m.m.m.m.m.m.m.= % * * % % % % * m.m.",
"m.m.m.m.m.m.m.m.m.m.m.m.m.m.m.m.m.m.m.m.m.m.> > > > > > > > > > > > m.m.m.m.m.m.m.m.= - > > = % + m.m.m.m.m.m.m.m.m.m.m.m.m.m.m.m.m.m.* = - - - % % % % % * ",
"m.m.m.m.m.m.m.m.m.m.m.m.m.m.m.m.m.m.m.m.m.m.m.m.m.m.m.m.m.m.m.m.m.m.> m.m.m.m.m.m.: = > - : * * % % m.m.m.m.m.m.m.m.m.m.m.m.m.= m.m.m.m.m.m.m.* m.m.m.m.m.% ",
"m.m.m.m.m.m.m.m.m.m.m.m.m.m.m.m.m.m.m.m.m.m.m.m.m.m.m.m.m.m.m.m.m.> m.m.m.m.m.m.m.> = > * * - m.m.m.m.m.m.m.m.m.m.m.m.m.m.m.m.m.m.m.m.* = - - m.m.m.m.m.- m.",
"m.m.m.m.m.m.m.m.m.m.m.m.m.m.m.m.m.m.m.m.m.m.m.m.m.m.m.m.m.m.m.m.m.m.m.m.m.m.m.m.m.> > > > - = * m.m.m.m.m.m.m.m.m.m.m.m.m.m.m.m.m.m.m.* * * m.m.m.m.m.m.m.= "
};
