/* XPM */
static char *_a20353eb8434bd2f1c2a8740e7404e78vAgghH6n4FzEMlb_23[] = {
/* columns rows colors chars-per-pixel */
"78 86 256 2 ",
"   c #221D1D",
".  c #271D1A",
"X  c #24221D",
"o  c #2B231D",
"O  c #2A291D",
"+  c #231E21",
"@  c #291D28",
"#  c #321B36",
"$  c #1B2C29",
"%  c #252425",
"&  c #2A2524",
"*  c #252926",
"=  c #2A2925",
"-  c #262529",
";  c #2A262B",
":  c #26292A",
">  c #2B2A2B",
",  c #332523",
"<  c #342A24",
"1  c #33252C",
"2  c #3B242C",
"3  c #322A2D",
"4  c #3B2B2B",
"5  c #3B312A",
"6  c #2C2532",
"7  c #2D2A32",
"8  c #2B2638",
"9  c #322634",
"0  c #332A34",
"q  c #3B2B34",
"w  c #34253B",
"e  c #3A253C",
"r  c #352B3A",
"t  c #3A2B3C",
"y  c #3C2433",
"u  c #383138",
"i  c #283332",
"p  c #1D1F20",
"a  c #432B2A",
"s  c #46352B",
"d  c #442A3B",
"f  c #462837",
"g  c #493735",
"h  c #522E37",
"j  c #381C4A",
"k  c #3B2543",
"l  c #3C2B43",
"z  c #392747",
"x  c #3C2653",
"c  c #342E47",
"v  c #4A1C52",
"b  c #432B44",
"n  c #43254C",
"m  c #432B4B",
"M  c #492947",
"N  c #542A48",
"B  c #573748",
"V  c #452B53",
"C  c #4B2C54",
"Z  c #4C2B5B",
"A  c #532C5C",
"S  c #552857",
"D  c #4A3256",
"F  c #573358",
"G  c #653857",
"H  c #692E54",
"J  c #4B2865",
"K  c #542B63",
"L  c #5B2C6C",
"P  c #572768",
"I  c #583367",
"U  c #5A2976",
"Y  c #5B3375",
"T  c #4C306C",
"R  c #652969",
"E  c #663569",
"W  c #632C7C",
"Q  c #662A78",
"!  c #752A79",
"~  c #763679",
"^  c #6A5446",
"/  c #694657",
"(  c #764A6B",
")  c #5B2C85",
"_  c #6B2C84",
"`  c #662886",
"'  c #752B8A",
"]  c #6A3387",
"[  c #763489",
"{  c #6C2A94",
"}  c #742C9B",
"|  c #7B2C9C",
" . c #792897",
".. c #6B3395",
"X. c #7C2CA3",
"o. c #7929A7",
"O. c #772CB0",
"+. c #6D1D92",
"@. c #863789",
"#. c #842B9A",
"$. c #863599",
"%. c #8F2D8C",
"&. c #832CA4",
"*. c #832CAB",
"=. c #892BA9",
"-. c #952AA9",
";. c #8C33AB",
":. c #8836A8",
">. c #9638AA",
",. c #882CB5",
"<. c #952DB7",
"1. c #8C32B3",
"2. c #9737B7",
"3. c #A639A8",
"4. c #A53AB9",
"5. c #B12FB3",
"6. c #924892",
"7. c #AA4E99",
"8. c #9B44B6",
"9. c #8D49AB",
"0. c #A646B7",
"q. c #B74BB7",
"w. c #B453BC",
"e. c #B965B8",
"r. c #C64BB8",
"t. c #CF53B4",
"y. c #C665B9",
"u. c #CD6FB4",
"i. c #DA5BB3",
"p. c #A539C5",
"a. c #B453C3",
"s. c #BC54C4",
"d. c #BB57C8",
"f. c #BB67C5",
"g. c #C857D4",
"h. c #C865C6",
"j. c #D370CD",
"k. c #ED4FE8",
"l. c #CD8BB8",
"z. c #E991D2",
"x. c #D2AFCF",
"c. c #E5B8C9",
"v. c #F9A8E7",
"b. c #EEB0EC",
"n. c #EBCBD4",
"m. c #774A57",
"M. c #774590",
"N. c #35281D",
"B. c #3B2C24",
"V. c #74554A",
"C. c #A83595",
"Z. c #CE37CD",
"A. c #D8B9C9",
"S. c #D9B9D5",
"D. c #E7A9D8",
"F. c #E6B7D7",
"G. c #785655",
"H. c None",
"J. c #753469",
"K. c #AA54A9",
"L. c #D44ED2",
"P. c #D1B6B7",
"I. c #C987C7",
"U. c #DAA3E3",
"Y. c #F8B6D8",
"T. c #D4C4CF",
"R. c #533B39",
"E. c #514334",
"W. c #473248",
"Q. c #472557",
"!. c #521C6A",
"~. c #673378",
"^. c #6C2B8B",
"/. c #732C94",
"(. c #783397",
"). c #7B33A5",
"_. c #963899",
"`. c #8332A4",
"'. c #8934B7",
"]. c #9945A8",
"[. c #A749AA",
"{. c #B54BAA",
"}. c #B656AA",
"|. c #AC4CB4",
" X c #AC4CBB",
".X c #B34DBC",
"XX c #AC53B7",
"oX c #B453B4",
"OX c #BB53BC",
"+X c #B958B7",
"@X c #C557BA",
"#X c #9935C4",
"$X c #AA46C4",
"%X c #B74AC6",
"&X c #B350CD",
"*X c #9C45C4",
"=X c #C64BC7",
"-X c #C354C4",
";X c #C355CB",
":X c #C45ACB",
">X c #C859C7",
",X c #E94FD2",
"<X c #E96ED3",
"1X c #D48ECF",
"2X c #FAB7E6",
"3X c #F6CDE9",
"4X c #1D1C1C",
"5X c #5B4546",
"6X c #684A46",
"7X c #5F4F64",
"8X c #ECDBE0",
"9X c #B234CA",
"0X c #F471EB",
"qX c #F3ACD1",
"wX c #6F4F50",
"eX c #884C72",
"rX c #B16899",
"tX c #B98DC9",
"yX c #BAC5B2",
"uX c #DFC4B5",
"iX c #68431E",
"pX c #1A1817",
"aX c #381C29",
"sX c #CE28AC",
"dX c #D8C3C8",
"fX c #BAB0A7",
"gX c #D1C5B7",
"hX c #E839DD",
"jX c #3A2425",
"kX c #D657E4",
"lX c #8A3275",
"zX c #2F2B5C",
"xX c #B425CF",
"cX c #835558",
"vX c #594739",
"bX c #69503A",
"nX c #B46BAC",
"mX c #64493A",
"MX c #6B1B64",
"NX c #B88AB4",
"BX c #E3AAB7",
"VX c #4D1732",
"CX c #9B1998",
"ZX c #D658C7",
"AX c #534652",
"SX c #8E626C",
"DX c #922EC4",
"FX c #342F19",
"GX c #513398",
"HX c #37444E",
"JX c #971A60",
"KX c #611828",
"LX c #341419",
"PX c #B91242",
"IX c #170617",
"UX c black",
/* pixels */
"H.H.H.H.H.H.H.H.H.H.H.H.H.H.H.H.H.H.H.H.8 - 8 $ 8 $ : 8 > > ; > X O j c A F LXLXLXLXIX+ p $ $ $ $ O $ * @ $ @ p H.H.H.H.H.H.H.H.% + % % + % p H.H.H.+ + % + ",
"H.H.H.H.H.H.H.H.H.H.H.H.H.H.H.H.; : : : : 8 $ 8 $ 8 8 $ - > > - X p # 8 F F LXLXLXLXLX. - $ $ $ O $ : * 8 p - 8 H.H.H.H.H.H.H.H.% % % + p % % p - p p % p H.",
"H.H.H.H.H.H.H.H.H.H.H.H.H.H.H.H.: : : : 8 $ 8 8 : 8 6 6 ; 9 3 6 $ $ : # MXH KXLXLXKXaXVXH.H.H.H.- ; * - p 8 @ 8 H.H.H.H.H.H.H.H.H.- - H.H.+ % % + + - H.H.H.",
"H.H.H.H.H.H.H.H.H.H.H.H.H.H.> > : : : > i - 8 8 8 8 6 7 9 6 9 9 O O z c H KXKXKXLXVXaXVX8 - $ $ : 8 : - 8 @ $ p H.H.H.H.H.H.H.H.H.% H.H.H.H.H.+ + + H.H.+ + ",
"H.H.H.H.H.H.H.H.H.H.H.H.H.H.H.> ; > > 7 7 8 w r w w w w 9 9 9 6 - 8 zX8 j x @ aX= jXe # # e 1 , 8 6 - - - 8 p 8 H.H.H.H.H.H.H.H.H.H.H.- H.H.H.H.% + % p H.H.",
"H.H.H.H.H.H.H.H.H.H.H.H.H.H.> > > ; 6 > 8 8 l l l z 9 w y 9 w w - $ 8 zXj z aXjX5 5 y e # # 1 1 - 6 8 - - @ 8 - H.H.H.H.H.H.H.H.H.H.H.* H.H.H.H.H.% + % + H.",
"H.H.H.H.H.H.H.H.H.H.H.H.H.H.- > 0 3 y 9 t t z c b z l k w e e r r ; zX$ HX$ $ $ $ $ 8 i n k a aX6 6 : - - - - p H.H.H.H.H.H.H.H.H.* H.H.H.H.H.H.H.H.p + + - ",
"H.H.H.H.H.H.H.H.H.H.H.H.H.H.H.> ; 3 w r e l l m D W.m k r t q r q ; zX$ $ HX$ $ $ $ c 8 m k VX# 8 # 6 6 8 - - 8 : H.H.H.H.H.H.H.H.H.- - - * - H.H.% % p + p ",
"H.H.H.H.H.H.H.H.H.H.H.H.H.H.H.3 9 3 e e v n U L ! R v VXv f n VX4 < c c 8 c - 1 N.N.VXN P P x v 9 6 8 6 8 @ - - - - % & H.H.H.H.H.% H.H.H.H.H.H.H.H.% + % + ",
"H.H.H.H.H.H.H.H.H.H.H.H.H.H.3 = 3 3 e k v Q.E ~.~ ! N v VXv f h q 1 c 8 c c 1 q a s N N P R v x 9 6 6 8 @ 8 8 6 - - % % % % * % - + H.H.H.H.H.H.H.H.+ - + p ",
"H.H.H.H.H.H.H.H.H.H.H.H.H.H.& > 9 e k k v !.^.(._.$.MXR v v v VXq 9 8 8 VXN KXJXKXPXJXMXQ ` zXT x k 8 # 8 8 ; @ - % - % % % % % % % * H.H.H.H.H.H.H.p p + + ",
"H.H.H.H.H.H.H.H.H.H.H.H.H.H.> 3 9 y n b J U (.9.6.$.! ! H v VXN y 4 j # VXh PXKXPXKXJXJXQ ` ) T x x k 8 c # 6 6 - * - % % % % % % - - H.H.H.H.H.H.H.% + H.H.",
"H.H.H.H.H.H.H.H.H.H.H.H.H.H.H.3 y d n v _ _ :.9.XX9.@.~ MXv KXVXr 0 k # v N JXJXJXPXC.JXCX+.) ) C n k z w w 6 6 & ; = % % % % % % + H.H.H.H.H.H.H.H.% p % H.",
"H.H.H.H.H.H.H.H.H.H.H.H.H.H.> > y e v M _ _ 9.9.8.9.@.lXv MXMXN u u c c VXMXKXJXPXJXJXJX+.%.) ) D V l z k w 9 6 & % = = % O % % - % % - * - % % - % + % p + ",
"H.H.H.H.H.H.H.H.H.H.H.H.H.H.H.7 e l n Q.[ [ 9.(.9.6.@.! MXN MXMXB B Z J Q.zXB D 5XH @.' #.#.+.o.K Z Q.V k e w 9 9 ; = % & % % = - % % % - * % % H.H.H.H.H.% ",
"H.H.H.H.H.H.H.H.H.H.H.H.H.H.> 7 t d Q.Q.] [ 9.9.K.6.@.! MXMXKXMXD C J D D T B D F G @.%.=.=.+.o.K K Q.V b k y 9 1 3 = = & & % - % - % % - H.H.H.H.H.H.H.H.% ",
"H.H.H.H.H.H.H.H.> & H.H.H.H.> 0 l l Q.Q.[ ] *X9.6.M.[ ~ MXMXH H F G F I Y L ~.Q  .' `.&.=.;. . .W U P J d n 1 1 4 3 3 - & = - = - % % % % H.H.H.H.H.H.H.% + ",
"H.H.H.H.H.H.> > > > 6 > > H.H.H.l l Q.Q.(.[ *X*XM.M.~ ~.MXH H H R E E E E L ] ] #.#.=.=.`.<.X. .Y U J Q.n M 2 1 9 1 > & > & - = = % - % - H.H.H.* - H.H.H.% ",
"H.H.H.H.H.H.H.H.> & ; > ; > 0 0 t l n x M.M.M.*X~ [ ~ Q ! J.MXJ.J.~.~.~.] ] (...#.' >.:.>.>.|  .^.` U P C M a 2 1 9 3 > 3 ; H.H.- % % - - H.H.H.H.H.* % % % ",
"H.H.H.H.H.H.= > > > 0 6 0 ; 0 0 l l V Q.GXM.9.9.~ ] ~ ~.~ ~ J.J.~ ~ ~.~ [ ] [ (.#.#.>.-.;.>.| | { ` U P N M q 2 9 2 3 & & & & % = % % + % % % % - - - % % + ",
"H.H.H.H.H.H.H.H.3 > ; > ; 7 8 r c u x x T T M.M.Q ~.' ~ ] [ ..[ [ (.[ (.).(.).(.#.&.>.>.;.>. .| { { U U A S d y r y 3 3 > & & & * * - - * H.H.H.H.% - H.H.H.",
"H.H.H.H.H.H.H.= > > > ; 7 7 r i u c V x T T ~.~.Q ~.[ [ ] [ [ [ ..[ (.[ (.(.X.).&.`.8.2.>.>.| | } { ) Y S S f f d y 9 3 & > - > - % % % - H.H.H.H.H.* H.H.H.",
"H.H.H.H.H.H.H.= > > ; > 6 7 0 u l l V V L J ~.~._ ] (.#.(.(.| (.).#.:.`.O.*.*.,.,.:.2.>.;.=.`.&.} } ` ` K A N M b k r 9 0 ; > - % - H.H.H.H.H.H.- - % % % % ",
"H.H.H.H.H.H.= > > > 0 > 6 7 8 u u c V V Y Y Y ~.[ [ $.#.(.#.(.| `.X.`.`.:.1.*.:.*.*.2.2.>.=.`.`.}  .^.` E K M W.b b e w > 0 > & - - % - - H.H.H.H.H.H.H.H.H.",
"H.H.H.H.H.H.> > > 7 7 7 7 r r c t u Z D U L ^...[ [ $.$.#.=.<.'.;.1.:.'.'.'.<.,.'.<.<.2.:.;.>.:.(. .^.^.Q L A Z n n w w 9 9 > : - - * - + - - - - - * H.H.H.",
"H.H.H.H.H.H.H.H.0 > 7 9 0 0 u u l W.D T Y Q ' [ (.(.$.`.&.;.<.#X1.1.1.'.1.'.<.'.'.'.'.<.;.>.2.>.| | ..^.~.~.K C m n l r r 7 ; > : - * - H.H.H.H.H.H.- H.H.H.",
"H.H.H.7 > > > > 7 7 7 r r r W.c M W.Y Y ^._ | #.`.`.H.H.>.2.$X$X2.2.#X2.2.<.#X<.<.<.<.2.<.>.8.2.;.X.(.(.~.! Y K Z Q.z k r 9 6 7 ; - - H.H.H.H.H.* - H.H.H.H.",
"H.H.H.H.H.H.> > > 7 7 0 r r l l W.W.Y ~.] ^.#.#.$.`.:.2.;.1.*X#X#X2.#X#X#X2.DX#X#X<.#X2.2.4.8.>.'.1.).$.[ [ ~.E K Z V x l 8 7 ; ; - H.H.% H.H.H.% - H.H.H.H.",
"H.H.7 7 H.H.> > 7 3 9 r r t z W.C K ` .././.:.>.:.;.8.&X8.$X$X0.p.p.p.p.#X2.#X#X<.#X#X#X8.2.8.>.2.'.:.:.(.[ ~.Q P K Z V x z 8 8 ; : - - - - = H.H.H.H.H.H.H.",
"H.H.7 7 > > = 3 > 7 0 0 r l M M J Z _ ] } } ;.>.1.9.8.$X8.8.$X$X$X$Xp.p.p.#X#X#X#X#Xp.#Xp.4.8.2.2.8.9.:.@.[ ~.R I P Z Q.l z r 8 7 6 ; - = - H.H.H.H.H.H.H.H.",
"H.H.H.H.H.H.> 3 0 > u r l l V D Y L /.' #.| >.>.0.8.[.a.a.d.d.&X$X$Xp.9X5.4.5.<.2.4.p.#X0.8.2.0.8.8.2.;.$.[ Q ! Y U J P V x k z 9 6 - ; - - % % % - * - - % ",
"i > 7 7 H.H.> i 0 0 r u l b D D L Y ..(.X.#.8.].0.0. Xa.a.d.f.&X%X&X&X9Xp.9Xp.p.2.#X$X$X$X$X0.0.$X8.8.2.$.@.~ Q U U T T Q.x z k 9 9 ; ; - % - % - % - - % * ",
"> 7 > i > > > = 7 3 r r l W.D I ) ~.(.| `.&.0.>.d.d.s.d.d.-X;Xd.&X&Xd.%X%Xq.%X4.0.0.$X%Xa.a..X.Xa.a.$X8.9.>.(.| W U U T J J l e w 9 ; ; ; ; * - - % % % % % ",
"i > > > 5 > > i 0 0 r u l z C F ] ` /.(.`.#.0.8.a.a.s.d.-X;Xd.;X&Xd.g.s.=X%X%X%X$X&Xs.s.d.d.d.a.$X%X&Xa.8.8.:.(.] _ ) Y J Q.b e 9 9 6 ; ; ; - * % % * H.H.H.",
"> > > > i O = < > 0 r t l x Z I ] ] } ).1.*.0.>.a.a.&Xd.d.d.g.>X:Xf.g.d.r.r.q.%X8.a.f.&Xd.d.d.OXOX%XXXa.0.a.].>.(.' ] ` U P C n 9 9 1 ; ; H.H.- % % % % % $ ",
"7 > > > i : i FX0 i r u c W.D I ] ~.X.X.*.&.$X>.a.a.f.d.d.-X;X>Xd.g.:Xd.-X=X%X=X&X&X&Xf.f.d.s.s.s..X Xa.a.XX>.>.(...] ] Q U A Q.w 9 6 9 : ; - - - % * $ % - ",
"> > > i i O i i i 3 r u z W.Z I ] ] ).O.,.*.0.$Xa.a.d.d.s.-X>XZXh.:Xh.g.;X;X=X-Xd.:Xd.&X:Xd.s.s.OXq.w.q.oX|.>.>.#.&.| } /.` U T e w ; ; ; ; & - % % % $ * % ",
"> H.H.> < i O < 3 0 r r m c Z I ] ] O.).*.*.%X%Xa.a.a.a.d.s.L.>Xg.>Xg.g.ZX;X;X;Xd.:Xd.f.d.d.-X;X-XOXw.w.w.|.].>.#.#.(. ...^.Y U H.H.H.H.6 ; ; & % * * % % - ",
"> 7 > 7 > > > 3 0 > r r l W.Z I ] ] (.).:.&.a.a.a.+Xd.d.>XZX>X-XZX>XH.ZX>Xg.d.d.:Xd.g.d.:X:Xd.:X-XOX+Xw.oXK.].>.`.#.X.X.} } { ) t e H.H.; H.H.H.$ % % % % * ",
"> > > > < > > > i 0 r t z l Z I ) ] } ).:.*.XXa.w.s.>X-X=X=XZXZXZXg.ZXj.>Xh.g.:Xd.:Xd.d.g.g.:X:Xe.w.oXoXoXoX8.>.#.#.o.o.} } { H.H.H.6 9 ; 6 - - * % - % % % ",
"> > > > i > > i 0 7 r r l m Z I ~.] } ).:.$.w.w.w.f.d.f.-X-X-X>X>X-XZXj.y.{.1XtXd.d.g.:X>Xg.>X;X=Xr.oX{.oX|.>.>.:.&.X.X.X.} H.H.H.w 9 6 > ; - H.H.* H.H.H.% ",
"i > > > < > 3 3 6 0 0 r l z D T Y ~.).).$.$.XXXXw.d.d.w.@X-X>X>X>X@Xj.ZXe.e.1X1Xg.f.g.:Xg.g.;X;Xt.@XoXXX|.oX].].>.&.*.o.X.X.) +.l w 9 7 ; H.H.H.H.H.% - H.H.",
"3 3 3 > 3 = > i 7 7 7 r c c Z Z Y ~.} `.:.$.XXXXXXw.e.w.-XOX-X>X>X>Xh.@XI.1Xb.b.h.h.g.f.g.g.=X-X=Xr..Xq.XXoX].8.:.&.*.*. .=.' _ l l 9 6 7 ; - = H.H.H.H.H.H.",
"> i > 3 > H.H.3 7 7 r r t l Z Z Y Y ).).$.:.XXXXw.XXa.d.OXf.-Xy.-X@Xy.+XI.U.b.b.h.h.:Xg.g.g.>X;X@X=XXXq. XXX>.8.;.=.X.o. .o.Q U k c 9 9 6 ; - - % H.H.H.H.H.",
"H.< < i 3 > i 3 > 0 7 i r u m D K L (.| ).'.|.0.q.w.w.s.e.d.@X=Xt.@Xl.l.x.b.F.U.e.e.d.@X-X-X=X-Xs.OXa.XX Xa.8.].&.o.&.X.+. .!.!.w l 8 6 9 ; & ; % H.H.H.H.H.",
"i i > > > > 3 3 7 > u 8 r u C D P L /.(.:.).8.8.w.w.OXOXw.+X-XZX}.@X1X1XS.S.F.U.@XnXOXs.-Xs.OXOXOXw.a.a.a. X].$.&.&.&.&.|  .!.v l l 7 7 ; ; - % * H.H.H.H.H.",
"< > i < > > > > > 0 7 0 0 u b V S A _ [ o.).>.>.oXw.@X>X-X:Xt.t.rXrXqXF.S.x.T.b.e.nX@Xy.-X@X@X@Xa.a.XX X&X$X>.:.X.| X.o.+.` Q.n 8 w 6 6 6 ; % ; - - * * - % ",
"< H.H.< i 3 3 i 7 7 7 7 r r b W.A A _ ^.).).:.>.oX+X=X>X-X>Xt.Z.i.u.Y.3XS.S.S.S.y.y.@X@X>X>X@X@Xd.a.w. X0.0.$.;.| X.} X.` +.x x l w 6 # ; ; % * % * % - * * ",
"> > i > > i < > > > 0 i 0 u u u zXHXT GX..O.-.5.k.k.,Xk.i.,Xi.t.NXl.n.n.c.x.S.A.U.j.XXf.j.ZX@Xq.w.w.w.|.2.8.1.;.:.:. .| U W x k H.H.6 6 ; ; : H.H.H.H.H.H.H.",
"> > i > > > i = < i > 0 0 u l u c zXT T *.`.-.<.hXZ.k.,X,X,Xt.i.fXBX8Xn.A.A.A.A.U.tXf.f.y.h.{.q.w.q.XX|.0.8.1.;.`.$.} } U U z z 7 8 6 6 ; ; - H.H.H.H.H.H.H.",
"i = < i < i > i > i 3 > > u u u n m !.P -.CXZ.sXZ.Z.hX,X,X,Xt.i.P.P.n.n.P.P.uXA.tXf.nXnXOX@X{.r.oX{.{.|.2.[.;.=.#.$.^.^.J !.w k 8 7 : 6 - - H.H.H.H.H.H.H.H.",
"< = i < i > > > > > > 3 > > > u M N MXP -.5.xX5.hXhX,Xk.sXi.i.i.P.BXn.dXP.A.dXP.U.tXf.nXoXOXq.r.{.{.{.|.[.>.:.&.(.#._ ` Q.Q.z w 6 6 8 6 : 6 - - * * H.H.H.H.",
"i = > i < i > < 3 i > 0 > > 0 u d W.S R CX5.xXxXZ.hXk.k.,X,X<Xl.8XS.n.S.P.P.uXP.U.U.tXj.ZXZX<X<X@X{.[.|.>.#.|  ./.^.U P x V 9 9 : 7 : 6 6 - - - - % H.H.H.H.",
"= i > > i = > > > > > > u > 3 i b E.S S CXCX5.xXZ.xXk.hXt.,Xi.<X3XF.S.S.P.A.uXBXU.U.U.1XZXZX<XH.H.q.|.0.-._.|  .[ /.P P z m w 9 7 7 6 : - ; ; - = % H.H.H.H.",
"H.< i = = i > > > > H.H.3 3 > i i i HXx R ~ -.>.0.>.=XZXr.L.j.H.H.H.H.b.c.c.qXc.v.v.z.1XZXi.ZXZXh.@XoX3.#.#././.` Y Z Z q r 7 7 7 > : ; ; ; - = - * H.H.H.H.",
"i = = i > < i = 3 i > > 3 i 3 3 i HXc V R ~ #.=.;.-.r.r.r.t.u.I.b.b.U.F.qXc.c.qX2XqXz.<Xi.ZXZXi.@X>X0.[.#.$...` U U Z A r 0 7 7 6 : ; - - - - % % % H.H.H.H.",
"i < > = i > 3 3 > > 3 > 7 7 0 u t d W.D E E /.[ -.#.-.C.3.r.i.i.F.D.S.D.A.c.c.c.D.c.u.u.u.i.@Xr.@XoX].%.[ (.W P Q.J l H.H.9 > & > ; H.H.= - % = H.H.H.H.H.H.",
"= i > i > > > i > 3 > 7 > 3 3 3 t t b B K E ' ' >.CX5.3.{.q.ZXt.b.b.b.b.n.F.c.qXqXqXu.u.ZXy.t.r.@X|._.#.[ [ U P J Q.z z 9 7 ; > & & - - - * - * H.H.H.H.H.H.",
"i = i = > i 3 > > > > > > 7 3 3 a B.M M v S MXMX>._.Z..X,XhX,X,Xh.1Xv.2XY.Y.Y.Y.z.z.y.y.h.+X{.[.]._.' ! Q P V V b l 9 r 6 6 ; ; - - = % * % & % H.H.H.* * H.",
"H.< < = i < i > > > > 3 3 > 1 3 B.4 N N MXS H KX_._.%X9Xk.,Xk.,XI.1X2X3XY.Y.Y.H.H.H.H.@X@X{.3.C.]._.' ' Y U C V l e 9 H.H.6 ; ; - % * % - - * - H.H.H.H.H.H.",
"= i = > > i < < 3 > H.H.; > 1 q 4 q 6X^ H cXcXG @.@.6.7.t.t.,XL.j.j.1X1X2XY.z.u.h.e.oX[.3._.@.%.Q ! L L C C u q 0 0 7 : 7 6 8 - - - - - % % = % H.H.H.* % % ",
"i = > > H.H.H.i > > > > 7 > 4 1 q 5 V.G.cXcXJ.lXeX@.lXlXt.t.L.L.j.<X1X1X3Xv.l.u.}.oX[.[.>.CX' ' ! Q R P C V q q 3 0 > 7 : : - 6 ; - - - * - * % H.H.H.- % % ",
"i < > i > > > 3 > > 7 > > 0 ; 7 FXFX^ H.bXm.mX6XSXG.cXeX6.6.6.6.f.e.rXrXl.NXrX7.%.@.#.$.' ! Q R S S M M q 5 2 < > ; > > 6 8 6 @ - - - = % = - - H.H.H.* - - ",
"= = i < > 3 i i > > ; 3 > > > > FXO ^ wXwXV.B 6XSXSXJ.( ( M.6.7.nXtXrXrXl.NX7.6.@.@.#._.! ! R MXS N M M q 5 < < > 0 H.H.- : - - * - % % % - * * H.H.H.- * H.",
"H.H.H.H.H.H.H.H.H.H.H.H.H.H.H.3 H.H.wXH.H.cXG cXcXcXm.m.B m./ m.( ( J.J.G H H R F E F B B C B d N f y H.H.q 0 ; 3 & ; ; 7 6 ; ; * - * * - = * % = % % % % * ",
"H.H.H.H.H.H.H.H.3 i > 0 H.H.3 1 H.H.6XH.H.m.V.cXcXm.m.G G m.G G m.( E G H N G H E G F C M C N M N d f q 1 q 9 3 H.H.H.> H.H.H.H.H.H.& % % % % - % % % H.H.H.",
"H.H.H.H.H.H.H.H.H.H.H.H.H.3 > > 6XwXvXmXcXV.bXH mXbXG V./ 6XB F H B B N N N N N N N d f VXy y f B B 5XB g q 4 & 1 & ; & : > - - * - % % % % % * % % % % O H.",
"H.H.H.H.H.H.H.H.> > > > > i > 3 5X6X6XH.H.bXbXH.H.m.V.m.B G h N h B N N M N M N M d M f y f f N B B 5X5XW.d 0 , ; 3 & 1 > - > * = - * - = - = % % % * % * % ",
"H.H.H.H.H.H.H.H.H.H.H.H.H.H.> * vXH.H.bXbXbXV.H.H.H.wXG.6X5Xf f a f f f y VXy f a f f f f f h R.f h s g E.R.u 3 , , - H.H.H.& - % - H.H.H.H.* = % * % % % % ",
"H.H.H.H.H.H.H.H.H.H.H.H.H.H.> H.H.H.V.^ iXbXbXbXwXV.wXwXB B f a f f f f f f f a a aXa 2 aXa g h h a a H.H.H.H.H.& , ; ; > > > - % = % * H.H.H.H.% % % % % - ",
"H.H.H.H.H.H.H.H.H.H.H.H.H.H.* = H.H.H.^ vXE.mXR.^ ^ vX^ R.vX4 B.4 jX2 jX, 1 2 a f f g a a h R.R.h H.H.H.s s g 5 & o ; 3 ; - & & * = & * * * % * % % % % % % ",
"H.H.H.H.H.H.H.H.H.H.H.H.H.H.H.= H.H.H.bXmXmXmXmX^ 5X5X5XR.R.2 < jXjX< , aXjX4 2 g g 2 a a h R.mXR.s R.s s 5 u E.LXH.H.; & - - - % - % % - & % - % % % % % H.",
"H.H.H.H.H.H.H.H.H.H.H.H.H.H.& * E.AXvX^ mX^ H.H.H.H.H.E.5 3 < < < = O O & & < 4 B.3 B.B.H.H.g g a B.B.H.H.5 g H.H.& % & ; % & & % H.H.H.- % % % % % % % % * ",
"H.H.H.H.H.H.> > > > > > > > & H.H.H.vXH.H.^ H.H.H.E.s B.< < < = & & O o o & < < 3 < B.H.H.H.H.H.H.H.H.H.E.s 5 i & , @ 3 - - ; - * H.H.H.- - H.H.H.H.H.H.H.H.",
"H.H.H.H.H.H.H.> > > > > > = H.H.= 3 E.AXvXH.H.H.vXE.= N.< & * % % O % % & % = - = = H.H.H.H.H.H.H.H.R.s s s B.jXH.H.- & - = - - = H.H.H.H.= H.H.H.H.H.% % H.",
"H.H.H.H.H.H.H.H.H.H.H.H.H.H.%   = 3 5 5XvX5X5XvXE.< = o & o X X X X 4X  . + - & O O O < H.H.B.H.H.H.E.H.H.H.H.H.H.@ - 3 - - * H.H.H.H.H.* * H.H.H.H.H.H.H.H.",
"i > > i 3 H.H.H.H.H.H.H.H.H.% X pX4X= % H.H.. N.3 , & & % % + + + + + p + + + @ + % & H.H.H.H.3 s 5 g g 3 & , + + + ; ; : - % * * - % % * * H.H.H.H.X H.H.H.",
"H.H.H.H.H.H.H.H.H.H.H.H.> > * p O * & & , @ o o o & . . H.H.+ + % + % % @ @ - + + - & + H.H.& < 3 5 4 4 < , + & 4X. & > : : - - H.H.H.H.* - H.H.H.% % % % H.",
"H.H.H.H.H.H.H.H.H.> > > > > = O 4XpX+ 4X4X4X+ + . + + - @ 4X4Xp - % - - & & - - 4XX H.H.H.+ & - = = ; , % @ % % 4X+ % ; - - > = * H.H.H.H.- H.H.H.% % % % H.",
"H.H.H.H.H.H.H.H.H.H.> > > > > = ; @ + + .     + + - - - - + + 4X- H.H.H.H.0 - 4X% -   H.H.  + - = % + + + .   +   + % ; - - * - H.H.H.H.H.= H.H.H.H.% H.H.H.",
"H.H.H.H.H.H.H.H.H.H.H.H.H.H.H.H.H.H.H.H.H.H.+ % % & & & > > > > > > - > > ; ; > ; = + 4X4X4X+ + H.H.H.H.4X  + + X @ % % - - * H.H.* * - * H.H.H.H.H.H.% H.H.",
"H.H.H.H.H.H.H.H.H.H.H.H.H.H.H.H.H.; H.H.H.H.% & & > & > > > > > > > > > ; > > > 3 - * p p 4X4XH.H.H.H.4X+ 4X+ + % % % - - = % = = - = = = H.H.H.H.H.H.H.H.H.",
"H.H.H.H.H.H.H.H.H.H.H.H.H.H.H.H.H.H.H.H.H.H.H.H.H.H.H.H.H.H.H.H.H.H.H.H.H.H.H.H.H.H.* - % 4X4X4X4XH.H.H.H.H.. % - * - = % = - * * - - * - - % % % * H.H.H.H.",
"H.H.H.H.H.H.H.H.H.H.H.H.H.H.H.H.H.H.H.H.H.H.H.H.H.H.H.H.H.H.H.H.H.H.H.H.H.H.H.H.H.H.H.* * % %   + + + % + + - % H.H.= % * * = - - = = - * % - H.H.H.H.H.H.H.",
"H.H.H.H.H.H.H.H.H.H.H.H.H.H.H.H.H.H.H.H.H.H.H.H.H.H.H.H.H.H.H.H.H.H.H.H.H.H.H.H.H.H.* * - > = * H.H.H.H.H.H.= = H.H.: * * H.H.H.H.= * H.H.H.H.H.H.H.H.H.H.H.",
"H.H.H.H.H.H.H.H.H.H.H.H.H.H.H.H.H.H.H.H.H.H.H.H.H.H.H.H.H.H.H.H.H.H.= > > > > > > > > > > > > > > H.H.H.H.H.- > H.H.= - * H.H.H.H.H.H.H.H.H.H.H.H.H.H.H.H.H."
};
