/* XPM */
static char *_a20353eb8434bd2f1c2a8740e7404e78vAgghH6n4FzEMlb_24[] = {
/* columns rows colors chars-per-pixel */
"78 86 256 2 ",
"   c #221D1D",
".  c #271D1A",
"X  c #24221D",
"o  c #2B231D",
"O  c #2A291D",
"+  c #231E21",
"@  c #291D28",
"#  c #321B36",
"$  c #1B2C29",
"%  c #252425",
"&  c #2A2524",
"*  c #252926",
"=  c #2A2925",
"-  c #262529",
";  c #2A262B",
":  c #26292A",
">  c #2B2A2B",
",  c #332523",
"<  c #342A24",
"1  c #33252C",
"2  c #3B242C",
"3  c #322A2D",
"4  c #3B2B2B",
"5  c #3B312A",
"6  c #2C2532",
"7  c #2D2A32",
"8  c #2B2638",
"9  c #322634",
"0  c #332A34",
"q  c #3B2B34",
"w  c #34253B",
"e  c #3A253C",
"r  c #352B3A",
"t  c #3A2B3C",
"y  c #3C2433",
"u  c #383138",
"i  c #283332",
"p  c #1D1F20",
"a  c #432B2A",
"s  c #46352B",
"d  c #442A3B",
"f  c #462837",
"g  c #493735",
"h  c #522E37",
"j  c #381C4A",
"k  c #3B2543",
"l  c #3C2B43",
"z  c #392747",
"x  c #3C2653",
"c  c #342E47",
"v  c #4A1C52",
"b  c #432B44",
"n  c #43254C",
"m  c #432B4B",
"M  c #492947",
"N  c #542A48",
"B  c #573748",
"V  c #452B53",
"C  c #4B2C54",
"Z  c #4C2B5B",
"A  c #532C5C",
"S  c #552857",
"D  c #4A3256",
"F  c #573358",
"G  c #653857",
"H  c #692E54",
"J  c #4B2865",
"K  c #542B63",
"L  c #5B2C6C",
"P  c #572768",
"I  c #583367",
"U  c #5A2976",
"Y  c #5B3375",
"T  c #4C306C",
"R  c #652969",
"E  c #663569",
"W  c #632C7C",
"Q  c #662A78",
"!  c #752A79",
"~  c #763679",
"^  c #6A5446",
"/  c #694657",
"(  c #764A6B",
")  c #5B2C85",
"_  c #6B2C84",
"`  c #662886",
"'  c #752B8A",
"]  c #6A3387",
"[  c #763489",
"{  c #6C2A94",
"}  c #742C9B",
"|  c #7B2C9C",
" . c #792897",
".. c #6B3395",
"X. c #7C2CA3",
"o. c #7929A7",
"O. c #772CB0",
"+. c #6D1D92",
"@. c #863789",
"#. c #842B9A",
"$. c #863599",
"%. c #8F2D8C",
"&. c #832CA4",
"*. c #832CAB",
"=. c #892BA9",
"-. c #952AA9",
";. c #8C33AB",
":. c #8836A8",
">. c #9638AA",
",. c #882CB5",
"<. c #952DB7",
"1. c #8C32B3",
"2. c #9737B7",
"3. c #A639A8",
"4. c #A53AB9",
"5. c #B12FB3",
"6. c #924892",
"7. c #AA4E99",
"8. c #9B44B6",
"9. c #8D49AB",
"0. c #A646B7",
"q. c #B74BB7",
"w. c #B453BC",
"e. c #B965B8",
"r. c #C64BB8",
"t. c #CF53B4",
"y. c #C665B9",
"u. c #CD6FB4",
"i. c #DA5BB3",
"p. c #A539C5",
"a. c #B453C3",
"s. c #BC54C4",
"d. c #BB57C8",
"f. c #BB67C5",
"g. c #C857D4",
"h. c #C865C6",
"j. c #D370CD",
"k. c #ED4FE8",
"l. c #CD8BB8",
"z. c #E991D2",
"x. c #D2AFCF",
"c. c #E5B8C9",
"v. c #F9A8E7",
"b. c #EEB0EC",
"n. c #EBCBD4",
"m. c #774A57",
"M. c #774590",
"N. c None",
"B. c #3B2C24",
"V. c #74554A",
"C. c #A83595",
"Z. c #CE37CD",
"A. c #D8B9C9",
"S. c #D9B9D5",
"D. c #E7A9D8",
"F. c #E6B7D7",
"G. c #785655",
"H. c #F392EC",
"J. c #753469",
"K. c #AA54A9",
"L. c #D44ED2",
"P. c #D1B6B7",
"I. c #C987C7",
"U. c #DAA3E3",
"Y. c #F8B6D8",
"T. c #D4C4CF",
"R. c #533B39",
"E. c #514334",
"W. c #473248",
"Q. c #472557",
"!. c #521C6A",
"~. c #673378",
"^. c #6C2B8B",
"/. c #732C94",
"(. c #783397",
"). c #7B33A5",
"_. c #963899",
"`. c #8332A4",
"'. c #8934B7",
"]. c #9945A8",
"[. c #A749AA",
"{. c #B54BAA",
"}. c #B656AA",
"|. c #AC4CB4",
" X c #AC4CBB",
".X c #B34DBC",
"XX c #AC53B7",
"oX c #B453B4",
"OX c #BB53BC",
"+X c #B958B7",
"@X c #C557BA",
"#X c #9935C4",
"$X c #AA46C4",
"%X c #B74AC6",
"&X c #B350CD",
"*X c #9C45C4",
"=X c #C64BC7",
"-X c #C354C4",
";X c #C355CB",
":X c #C45ACB",
">X c #C859C7",
",X c #E94FD2",
"<X c #E96ED3",
"1X c #D48ECF",
"2X c #FAB7E6",
"3X c #F6CDE9",
"4X c #1D1C1C",
"5X c #5B4546",
"6X c #684A46",
"7X c #5F4F64",
"8X c #ECDBE0",
"9X c #B234CA",
"0X c #F471EB",
"qX c #F3ACD1",
"wX c #6F4F50",
"eX c #884C72",
"rX c #B16899",
"tX c #B98DC9",
"yX c #BAC5B2",
"uX c #DFC4B5",
"iX c #68431E",
"pX c #1A1817",
"aX c #381C29",
"sX c #CE28AC",
"dX c #D8C3C8",
"fX c #BAB0A7",
"gX c #D1C5B7",
"hX c #E839DD",
"jX c #3A2425",
"kX c #D657E4",
"lX c #8A3275",
"zX c #2F2B5C",
"xX c #B425CF",
"cX c #835558",
"vX c #594739",
"bX c #69503A",
"nX c #B46BAC",
"mX c #64493A",
"MX c #6B1B64",
"NX c #B88AB4",
"BX c #E3AAB7",
"VX c #4D1732",
"CX c #9B1998",
"ZX c #D658C7",
"AX c #534652",
"SX c #8E626C",
"DX c #922EC4",
"FX c #342F19",
"GX c #513398",
"HX c #37444E",
"JX c #971A60",
"KX c #611828",
"LX c #341419",
"PX c #B91242",
"IX c #170617",
"UX c black",
/* pixels */
"N.N.N.N.N.N.N.N.N.N.N.N.N.N.N.& ; , 1 1 9 6 6 8 * : : : 3 ; 1 , , & $ $ i > VXKXKXKXv 1 : $ aXaXO * - - % % - - N.N.N.N.N.N.N.N.N.N.N.N.% + N.N.N.N.N.N.N.N.",
"N.N.N.N.N.N.N.N.N.N.N.N.N.N.; > 1 ; 1 ; 6 9 6 : : : : : 3 & , 1 & < $ $ i i VXKXKXKX# # i $ aXaX= * - - % % % + N.N.N.N.N.N.N.N.N.N.N.N.+ + N.N.N.N.N.N.N.N.",
"N.N.N.N.N.N.N.N.N.N.N.N.N.N.; 3 ; 3 9 9 # w w w 6 6 7 7 ; 3 9 3 y 9 i $ j # MXVXH MXr 9 i $ y aX- - % - - % @ % N.N.N.N.N.N.N.N.% - % p N.N.N.N.N.N.N.N.N.N.",
"N.N.N.N.N.N.N.N.N.N.N.N.N.N.N.6 9 1 9 9 w k j 8 6 7 0 0 4 0 1 4 y y i i e # MXMXJ.H c 9 $ 8 a VX- = = % - - - % N.N.N.N.N.N.N.N.N.N.N.- % % % p N.N.N.N.N.N.",
"N.N.N.N.N.N.N.N.N.N.N.N.N.N.N.3 9 0 w w x V GXM.n n k k q 9 r r VXM c zXx x P MX%.MX!.v k k e w 9 ; - - - = - % N.N.N.N.N.N.N.N.N.N.N.+ + % + % N.N.N.N.N.N.",
"N.N.N.N.N.N.N.N.N.N.N.N.N.N.3 ; 9 9 k w v D GXM.F n b k q q q t n M c x x x MXR JXCXv S z l r e 9 ; - - % - % N.N.N.N.N.N.N.N.N.% % % % % % + p % N.N.N.N.N.",
"N.N.N.N.N.N.N.N.N.N.N.N.N.N.> 7 y 9 j j v !.M.M.~.I n n k k t t v N zXx J !.JX%.CXPXMXJXQ.v c zX3 ; ; ; ; @ - - * - % N.N.N.N.N.% % % + N.N.N.N.+ N.N.N.N.N.",
"N.N.N.N.N.N.N.N.N.N.N.N.N.N.N.N.9 w z j v J ).M.~ Y I n b b d d N N zXzXT ) JXCXsXCXJXJXS S x x 3 1 6 ; ; 6 ; - % % % % % * N.N.N.% - - - + + % N.N.N.N.N.N.",
"N.N.> > > > > > N.N.N.N.N.N.N.> 9 y k j [ ] 9.9.M.M.J Q.V Q.n Q.v N J Q.) ) CXCXsXCXCXCXS S V z z k 9 6 9 6 ; ; = N.N.N.N.* N.N.N.N.N.N.N.- % + % + N.N.N.N.",
"N.> N.N.N.N.N.N.N.N.N.N.N.N.= > # 9 k k [ ] 9.9.M.] J v n V Q.J H S T T ..M.CXCXxXsXsXPXF I V V m z w r 6 9 ; ; & - - - % % % N.N.N.N.N.N.% p % p N.N.N.N.N.",
"> > > > > i > > N.N.N.N.N.N.> N.N.y j k ] ] 9.9.( M.Q.Q.Q.J !.!.U U T Y ) GX:.).3.2.CXCXY ~.D J C n e w 9 w ; ; = & - * N.N.N.N.N.N.N.N.+ % + % - p N.N.N.N.",
"> > > > > 3 > > > > > > > > > > 9 2 e k ~ ] 9.9.7X7Xv v j j j !.Q Y Y ) ) ..*.&.<.<.CXCXY Y T T D m l k w y 9 3 % & = = N.N.N.N.N.N.N.N.- % % + N.N.N.N.N.N.",
"N.> > > > > > > N.N.N.N.N.N.N.> 7 9 z k Q.K ( ] T I Q.# j v v !.` ^./.}  .`.<.-.'.1.(./.W _ U ) A C C m t k 9 9 ; 1 - = = * N.N.N.N.N.N.N.N.+ % + - N.N.N.N.",
"N.N.i > > N.N.N.N.N.N.N.N.N.N.N.8 6 w w v Q.Y E K K v j v j j Q ` ..| | | `.<.<.8.8.$.(.] ] ) ) F A C m l k q 0 9 ; = = = % * * % N.N.N.+ % % % + p N.N.N.N.",
"> > < > > > 7 > > > 7 > > > > > 8 9 k w Q.j S K S S v v !.v !._ } o.=.,.5.CXsXsX9X5.>.>.| #.^.{ W L K J V Q.k k e w 6 1 ; ; % - % N.N.N.N.% % % + % N.N.p N.",
"N.N.N.> > > > > > N.N.N.N.N.N.N.6 8 w k J v v v J S P !.!.W Q ^.o...-.-.5.sXxXZ.q.%X8.>.#.#.` { ] W Y K Z V z k r w 9 1 3 ; ; - - N.N.N.N.+ N.N.N.N.N.% % N.",
"N.N.> > > > 7 > > > 6 N.N.N.0 > 9 0 t t m V C S S H E E W ] (.} *.o.CX5.sXsXsXsX{.q.9.].'.9.#.=.^.^.W U K J n M k e 9 9 9 9 - - & - N.N.N.N.N.N.N.N.% p @ p ",
"> > > 7 > > > > > > > 7 0 > > 7 0 0 t l n V C C S F E ~ ] [ ).| <.*.5.CXsXsXi.sXq.q.>.].9.2.-.2.[ /.Q ~.I K C n b l q 9 6 ; & - - - N.N.N.N.N.N.- N.N.N.$ - ",
"> > > > 7 > > > > 7 7 > > 7 0 3 0 0 b b W.V K P R ~.' ~  .#.*.O.1.o.5.-.sXsXsXsX{.q.].].1.8.-.=.).} ] ` ~.U Z Q.m m e 9 3 6 6 ; - & N.N.N.N.N.N.N.p + % % p ",
"> > > > ; > > ; > > > 6 7 > 0 0 0 q b b V Z T I R J.! [ | (.1.:.*.,.sXsXsX,X,XsX{.q.].8.9.9.=.;.| | ..] ~.Y K Z C m t e 9 3 3 ; ; & - = - = N.N.N.% % p p - ",
"> > > > > > > > > > 0 > 0 > 0 0 q t N C K P ` ` ] ^.| | &.:.DXDX'.'.$X2.r.5.r.t.r.q.|.w.8.8.2.2.`.X.).} ] ] I K A Z M z q 0 9 ; ; ; - - - = N.N.N.- - p + p ",
"> > > > > > > ; > > 7 > > > 0 r f d C N P L _ ..] [ #.#.&.'.DX#X'.9.$X0.r.q.t.@X@X+XXXOX2.8.9.1.`.`.).(...] Y I K J m n t w 9 1 ; ; - - % N.N.N.N.- p $ p - ",
"> > > > > > > 3 > > 7 > 7 > i r d W.A R Q Q { | X.X.&.=.;.<.#X#X9.*X$X8.+Xw.>X-XOXw.w.OX>.0.2.>.=.$.$.:.(.(.` W U U K Z n z 9 9 6 ; ; ; % - N.N.% % p % % p ",
"> > > > 3 > > ; 7 > > 0 > 7 7 r d W.A E W _ (.).).`.;.:.1.2.*X*X*X8.*X8.d.d.@X>X+XOXs.h.>.0. X8.:.:.&.>.).9.] ..] W P K n b 9 9 ; 6 ; & N.N.N.- % % % p p - ",
"i > > > > > > > > 0 0 N.N.N.0 r x T ] ) +.} *.,.+.=.2.$X8.*X8.8.*X0.OX%X-X>XL.>XOX-Xr.OX:Xq.8.0.>.>.>.:.>.].$.$.] ] Y P C n y 9 # 1 - - - - - % $ % $ % - p ",
"> > i > > i > > 0 i 7 7 7 N.N.N.Z J ) ] } } *.*.=.;.2.$X8.*Xa.$Xa.&Xs.d.>X=XZX@Xr.>X@X%Xg.;X3.3.2.8.[. X].].].9.(.] ~.U S n e e 9 3 & ; - & % - + % @ % - p ",
"> > > > > > > 3 7 7 7 9 0 r u l U T ) ..X.o.*.X.>.>.>.0.XX&X&Xa.a.d.d.d.>X=X=X>X-X;X-X-X:X-X[.[.|.q.|.|.K.[.|.XX(.(.[ ^.L !.j j 9 # ; 3 & - - % - % % p + + ",
": > i > > i 3 i 7 7 r 7 0 u c l P I ....o.*.;.=.0.2.0.0.&X&Xd.f.d.d.:X:X;X>X>X>X>X-X-X@Xs.s.w..X.X|..XXXXX[.].[.$.$.[ (.L P Q.Q.2 9 ; & > - - = % % p @ $ % ",
"> > > > > i N.N.N.7 0 0 0 r l W.U W } (.&.:.>.2.8.0. Xa.XXa.a.&X=X;X:X-X;X:X:X:X>X:X:Xd.w.w.w.a..XOXq.w.{.[.[.].>.;.| ).` U J !.9 9 6 6 ; N.N.* $ % + % % $ ",
"> 7 7 > > 3 > > 7 7 9 N.N.u l W.U W (.`.X.:.8.8.]. X+Xa.a.a.a.d.=X>X-X;X;X:X:X:X-X>Xh.:Xa.a.f.d.d.s.OXw.XX{.K.[.$.`.| X.` ` U J r r 6 6 ; N.N.N.N.% $ % % p ",
"> 3 > > > > > > N.N.9 r t t b W.U W (.(.| `.2.8.0.XXXXoXa.w.s.s.>X=X-X>X+X:Xd.y.:Xh.j.j.a.w.f.d.OXOXw.q.oX|.K.[.&.&.}  .^.+.T !.r 9 6 N.N.N.N.N.* - p - p N.",
"N.N.> N.N.N.N.3 0 0 0 r l l W.V U Q (.(.&.`.>.8.a.XXXXoXa.%Xa.d.=X>X>X:Xd.-Xf.d.h.g.0X1Xd.w.+Xs.OXw.q.oXoXXX|.[.X.#.} } ] ) J J 0 0 6 6 & N.N.N.N.- p + % % ",
"> > > > i N.N.N.0 i 9 u l l m D L Y ^...X.`.>.2.f.*Xf.w.q.OX@X-X=X>X=XL.t.t.@Xe.1XtX1XU.*X&Xr.=Xq.oXoX|.8.8.:.`.&.&.}  .U ` n v r 7 ; ; - - - % % $ % X % % ",
"7 > > i > N.N.N.N.7 0 r l c W.D Y Y ^.^.).`.:.8.*XXXd.XX.Xs.q.-X=X-XZXL.r.@Xe.j.tXI.tXj.&Xa.r.=X+Xq.{.|.0.XX>.#.| &. .| ` ` n j 9 6 ; ; - = % % % % % % % N.",
"N.N.N.N.N.N.N.N.N.> 0 r l l C Z Y Y ....X.`.1.2.9.*Xa.XXw.@X@X-X@X-X-X=X+Xe.u.1XU.b.1XI.f.XX@Xr.oXoXXX|.XX X:.#.#.`.| #._ ! k k 7 7 ; ; - - * % % % % % p % ",
"N.N.N.N.N.N.N.N.i 0 0 u l l Z D I Y ] ..o.:.>.1.9.9.|.|.w.OX%X@X%XOXs.q.@X@XI.U.U.b.I.NXXXw.-Xr..XXX|.|. X|.;.&.X.|  .| ~.R j k 8 6 ; ; - = % % % % % $ $ % ",
"N.N.N.N.N.N.N.N.N.> N.N.l l V D T Y ..(.`.`.=.*.'.:.].|.w.f.oXoXXXf.f.f.NXtXx.S.z.x.}.K.w.e.f.a.XX Xa. X8.].=.$.#.#.' ' MX!.f e 7 6 ; ; * - % * $ % % % % $ ",
"N.N.N.N.N.N.N.N.N.3 0 r l W.V Z Y Y [ ..`.:.:.=.:.*.>.[.w.f.{.|.XXXXXXf.tXx.U.x.U.D.K.K.a.w.a.&Xw.a.XX$X].9.$.#.#.#.' ' !.S k k 7 6 > ; - - % % % p % % % % ",
"7 > > > O i < > 3 i N.N.N.l D D Y Y ..(.`.`.=.=.=.-.|. XXXXXXXXXnXnXtXtXT.T.T.T.D.F.e.rX+X+Xf.XXw.w.a.&X$.$.(./. .| ^.` n z e 9 9 0 > - - % % * % % % % % % ",
": > > i i = > > 3 > 0 u l l C D Y ~...(.`.=.&.=.&.2.%XOXe.XXK.a.nXK.tXtXS.x.T.S.D.b.nX}.OX+Xa.a. X X0.0.:.$.(./.|  .+.U z k e 9 9 6 ; - - - % % N.N.N.N.N.N.",
"7 i 7 i = > > 5 3 i q N.N.W.C Z { { (.(.:.=.>.>.2.p.OXa.XXK.I.1XD.D.x.x.x.yXx.x.x.S.1Xf.+XoXa.XXXX|.2.8.:.:.&.| } } ` ) n z y 9 7 6 ; - - - % % % % N.N.N.N.",
"> > > > > > = = 3 i 0 t l l D D ` ..| (.;.`.2.2.p.$Xs.+XnXe.I.I.D.v.S.U.yXT.T.T.S.S.1XNX+XXXe.a. X0.].0.>.2.`.&.} | ) ) n n e 9 9 6 > ; - = % - % N.N.N.N.% ",
"> > > > = > FXi i 0 r t l l Z D ).} ).| ].>.4.0.$X&XOXw.nXK.x.U.F.D.S.S.yXT.T.dXA.x.I.NXe.nXf.w.|.[.>.[.].>.X.o.X.X.) ` V n e 9 7 9 ; - - - - * * * * - % % ",
"7 i 7 i i i FXi 3 i r u l W.D Z ).} | | ].>. X$X%Xd.+XoXnXnXx.U.F.F.S.T.dXT.gXA.A.x.x.l.f.e.a.XX|.].>.0.>.:.X.'.X.| ) ` V M r e 9 9 7 - * - % * * - - * * % ",
"> > i > = = O i 3 i q u c W.D D O.O.*.`.>.>.[.q.q.s.}.}.NXNXx.T.S.A.A.c.uXuXgXgXT.x.tXT.tXtXd.s.w.oXXXXX[.8.:.1.X. .` Q C n k z 9 0 > ; - - % - * - * - * % ",
"i > > > < i O 5 i 0 q t l l V J O.).*.`.].].|..Xw.OX}.nXNXNXS.S.T.S.dXc.dXdXgXgXyXT.U.x.tXtXd.&X+XoXXXXX8.8.2.>.| X.` ^.n n w w 9 9 > ; % * $ * - * % * % % ",
"> > > > = i i < i 3 u c W.l D D O.O.:.O._.>.[.XX@X{.K.}.x.x.T.S.A.T.n.c.uXdXuXgXx.T.T.x.U.tX&X&Xw.oXoXXX[.[.8.;. .&.' [ C Q.e e 9 ; ; ; - = * - N.N.N.% N.N.",
"> i i i < * < i i > r u l m D HX'.'.1.:._._.XXw.}.{.7.nXx.A.T.S.T.T.n.n.dXuXuXP.x.T.T.x.f.tXkX&Xw.+X|.oX|.XX0.>.| &.! ' Q.n k e 9 9 3 - - - % - * $ % : * % ",
"0 0 > > < > i > 3 3 r r l W.W.D O.).O.O.$X&XhXkXL.<XH.0XF.c.gXgXA.A.8X8XdXuXdXdXP.dXA.x.U.U.tXtX%Xg..X.XXX[.>.:.`.X./.#.P !.e e 7 > ; ; - > - % N.N.N.N.N.N.",
"N.i > 0 i > 5 > 3 i r u l l c D ).).).O.DX#XhXhXr.ZX<Xz.Y.F.uXgXdXn.3X3XdXA.gXT.fXT.A.x.b.S.tXI.=X&X.X.X|.[.8.>.X.&. . .P !.e e 6 0 ; ; * - N.N.N.N.N.N.N.N.",
"> 7 > i i < > < > 3 r q c W.W.D R ~._ ! 5.3.,Xt.,Xk.0X0Xv.v.T.T.c.A.3Xn.F.c.S.S.S.S.S.A.P.P.BXl.w.OX{.}.[.7.6.].#. .' ' S N.N.w > > > > N.N.N.N.N.N.N.N.N.N.",
"0 3 i 3 > > > > > i 0 0 u c W.c L ~.~ ~ {.5.,X,X,X,X<X<Xv.b.n.T.c.A.3Xn.S.S.S.T.T.T.A.x.P.x.BXBXoX@XK.{.{.7.>._.#.#.[ ' !.v k w > > - - - = = N.N.N.N.N.N.N.",
"> i 3 > > i i < > > 9 0 l l c D P MXQ ~ %.C.sXr.,XhXt.<X2X3X8X3X3X3X8Xn.S.S.b.U.U.b.S.S.BXc.uXY.j.j.}.{.K.[.>.$.| | ` ` b z e 9 ; ; & - - N.N.N.N.N.N.N.N.N.",
"> 0 i > 3 3 > > 7 7 9 r r l l W.H E ~ @._.3.5.sXL.,Xj.<XD.b.8X8Xn.n.n.S.F.S.S.S.F.S.F.F.Y.c.Y.uX1Xu.}.}.[.[.%._.| | ` ) z x r 9 3 ; - - = - = N.N.N.N.N.N.N.",
"3 i 3 7 > > > > > > r 7 w u l c P K ~.~. .$.<.5.0.%Xe.f.l.l.yXgXuXuXP.BXF.F.F.F.F.F.b.b.2X2Xz.z.u.u.y.}.|.].| #.[ ] U J w l 6 6 & - - * - - - * N.N.N.N.N.- ",
"7 > > 3 N.N.N.N.N.N.7 7 r t c V P L Y E /.(.<.5.4.q.w.e.l.fXyXfXBXuXP.uXT.n.b.n.b.3XD.F.2Xn.z.z.y.y.+X+X].]. .[ ] _ P J l k 8 6 - - = & - - - - N.N.N.N.N.* ",
"i > > 3 i i > i 7 > 7 7 0 r u r N Q.L E [ (.*.o.#X#Xq.|.K.nXD.2Xc.D.b.b.x.S.F.D.Y.Y.Y.qXz.l.rXrXOXOX3._.#.| ..).U U C Z 3 0 = O & ; - * - - - - N.N.N.N.N.% ",
"3 > 3 3 3 > > > i 7 7 7 r 0 r u N M v R ' [ *.=.2.#XOXq.rXrXqXD.U.U.b.b.F.3XF.Y.Y.3XY.Y.z.BXu.rXh.s.3.3.#.| ..{ !.U Q.Z 3 3 = o & % = * % - = N.N.N.% * % % ",
"3 3 i 3 > > i > > : 7 7 7 0 0 q N.N.N.N.MXQ ! ! 5.5.Z.k.L.L.0X0XY.c.D.qXY.n.qXY.Y.qXz.l.t.+X|.0.0.2._.#././.) U J Z w l 3 > = & = N.N.N.N.N.N.N.N.N.- * * % ",
"3 > 3 i > > > i 7 i 7 7 7 0 r 0 N.a S F U ! lXlXsXCXhXZ.,XL.0X0XD.D.D.c.Y.3XqXc.Y.qXz.u.}.e.a.a.0.3.#.#././.) U Z Z r r ; 1 & & N.N.N.N.N.N.N.N.N.N.N.N.N.N.",
"3 7 > i > > > > > i 7 7 7 0 0 r 4 d 6XG.( cX~ lX5.5.xXxXhXkX0X0Xl.BXqXY.Y.N.N.BXu.rX7.7.>.0.<.<.#.$.+.[ U U J J d r 9 9 9 6 6 @ ; @ N.N.N.N.N.N.N.N.* N.N.N.",
"> 3 3 3 N.N.N.> 7 7 7 7 7 0 0 0 f f G.G.eXeXeXeXsX5.xXZ.xXZ.k.k.l.BXqXqX2XY.l.z.rX}.K.}.0. X#Xp.#.$.'  .W U Q.x t 0 9 6 6 6 @ 6 - N.N.N.N.N.N.N.N.N.N.N.N.N.",
"3 > N.N.N.i > i i > i 3 > 3 3 0 a g ( ( ( eXG cX6.6.5.2.8.8.K.u.u.u.l.rXI.u.}.}.7.6.%._.%.%.! ' Q ! S R M Q.u u < = : > 8 - 8 8 % N.N.N.N.N.N.N.% % N.N.N.N.",
"> 3 3 3 > i 7 : 7 7 > 7 7 7 0 > q g ( ( ( eXJ.eXeX6.<.=.8.8.K.7.u.l.rXrXI.I.rX7.7.7.6.6.$.%.' lXR ! v v C M 3 u < = : + 8 8 8 # - * N.N.N.N.N.N.% - N.N.N.% ",
"i 3 3 3 > N.N.i i i > > 3 3 N.N.N.N.N.wXcXcXV.cXcXcXcXcXH ( eX( eX6.( ( J.J.H J.~ ~ I E F S H M M N f d y d 4 0 0 > ; > ; : ; - N.N.N.N.N.N.- % * % % % % X ",
"> 3 i N.N.N.N.< > 0 N.N.> > > > N.N.N.N.cXcXcXcXcXcXH cXJ.m.J.( eXeXJ.J.J.R J.J.E ( E F F S B N M h d f # y 0 1 > 6 > > - 6 - N.N.N.N.N.N.N.* * % % - N.N.N.",
"N.3 > 3 i N.N.N.N.N.N.N.N.> > > ^ wX6XvXcXbXH mXH m.m.m./ / B G G G G H S H S F H F B M M f f h N.N.N.5Xf e 2 3 & 3 & > : : ; * N.N.N.N.N.N.- % % % X % % N.",
"N.3 > i 3 i N.N.N.N.N.N.N.> > > 6XN.N.N.N.N.V.mXcXV.m.cXG m.h H G F H S H N H F B S B M VXM h B B G / B B g 9 , 1 & > > : : * - N.N.N.N.N.N.% % % % % % % % ",
"i > 3 i 3 i N.N.N.N.N.N.N.N.= = N.N.N.N.N.mXV.V.G.N.N.N./ 5Xh M f f f VXf f VXf f f f h f h h B h f s h N.N.N.0 , & & > > : : N.N.N.N.N.N.N.N.- N.N.N.N.N.N.",
"N.N.N.N.N.N.N.N.N.N.N.N.N.N.= * N.N.N.N.mXmXN.N.N.G.N.N.N.6Xh f N h N h N M h f f VXVXf f f h N.N.N.N.h g R.g u o & > & > : * * N.N.N.N.N.N.N.% % % % % % * ",
"N.N.N.N.N.N.N.N.N.N.N.N.N.N.= O N.N.N.N.mXN.N.vX5X^ 5X^ W.5X0 q 2 a y a aXa a f W.W.f f a R.mXR.R.R.g s s s s g o , & ; : = = - N.N.N.N.N.N.N.% N.N.N.N.N.N.",
"N.N.N.N.N.N.N.N.N.N.N.N.N.N.& % N.N.N.^ mXmXmXvX5X^ 5X5XE.N.N.3 VXaXa jXaXVXf f R.h a N.N.N.N.5Xh R.N.N.a 5 g g o & - & - * = N.N.N.N.N.N.N.N.% % % % X N.N.",
"N.N.N.N.N.N.N.N.N.N.N.N.N.N.= = N.N.N.N.N.N.N.N.5XN.N.N.N.< > < < < = & & = < 3 5 N.N.N.N.N.N.R.N.N.N.N.N.N.N.N.N.N.N.N.N.N.N.N.N.N.N.N.N.N.N.N.N.N.N.N.N.N.",
"N.N.N.N.N.N.N.N.N.N.i > > > = & N.N.N.N.N.N.N.N.N.vXs 5 > < = = = & & O & & 3 2 N.N.N.N.N.N.N.N.N.N.N.N.N.N.N.N.N.N.N.N.N.N.N.N.N.N.N.N.N.N.N.N.N.N.N.N.N.N.",
"N.N.N.N.N.N.N.N.N.N.3 > > > % N.N.N.N.N.N.N.N.N.N.s i O = * * O > * N.N.N.- - & N.N.N.N.N.N.N.N.N.N.N.N.N.N.N.N.N.N.N.N.N.N.N.N.N.N.N.N.N.N.N.N.N.N.N.N.N.N.",
"N.N.N.N.N.N.3 i i N.N.N.N.N.N.4XN.N.N.N.N.N.N.N.g 5 FXO O O X * p p p p N.N.@ % N.N.N.N.N.N.N.N.N.N.N.N.N.N.N.N.N.N.N.N.N.N.N.N.N.N.N.N.N.N.N.N.N.N.N.N.N.N.",
"N.N.N.N.N.N.N.N.< > i 3 > > * 4XpX. N.N.N.N.N.N.< & o % % % % 4Xp $ + @ + @ N.N.N.N.N.N.N.N.N.N.N.N.N.N.N.N.N.N.N.N.N.N.N.N.N.N.N.N.N.N.N.N.N.N.N.N.N.N.N.N.",
"> 3 > > > > > N.N.N.N.N.N.N.N.O % & N.N.N.N.N.N.& N.N.% % 4X% p N.N.@ p N.N.N.N.N.N.N.N.N.N.N.N.N.N.N.N.N.N.N.N.N.N.N.N.N.N.N.N.N.N.N.N.N.N.N.N.N.N.N.N.N.N.",
"> > > > > > > > > i > > > > > = N.N.N.N.    + +   % % - + + N.N.+ - - ; - ; ; N.N.N.N.N.N.N.- N.N.N.N.N.N.N.N.N.N.N.N.> N.N.N.N.N.N.N.N.N.N.N.N.N.N.N.N.N.N.",
"N.N.N.N.> > N.N.N.N.N.3 > > > > % - + +       . % + + % 6 p p N.N.7 > ; 7 6 ; p + - + N.N.N.N.N.N.N.N.N.N.N.. + + + - - N.N.N.N.N.N.N.N.N.N.N.N.N.N.N.N.N.N.",
"N.N.i < > > > > > > > > > > > > 3 - =   X   % + 4X% - - = N.N.N.N.N.N.N.; > > N.N.N.N.N.pXN.N.4X4X  4X4XN.N.p . % % - = N.N.N.N.* * % % % - * p % % % % % % ",
"> > > i > > > N.N.N.N.N.N.N.N.N.N.N.- * % % * - % % = > > > > > > > > > - > > > > - % N.N.N.N.4X4X4X4XN.N.  + % % % % * N.N.N.N.* & * % % N.N.N.N.* N.N.N.N.",
"> > > > > > > > N.N.N.N.N.N.N.N.N.N.- > > > > > = > > > i N.N.N.N.N.N.N.N.N.N.N.N.N.N.= * + 4X4X4XpXpXN.N.N.% - % % * - * * = * - % % % % % N.N.N.N.N.N.N.N.",
"> > > > > > > > > > > > > > > > > > = > > N.N.N.N.N.N.N.N.N.N.N.N.N.N.N.N.N.N.N.N.N.> - > : % 4X+ + %   + - * - = * - = - * * - % * % % % % % X N.N.N.N.N.N.",
"N.N.> > > > > N.N.N.N.N.N.N.N.N.N.N.N.N.N.N.N.N.N.N.N.= > > = N.N.N.N.N.N.N.N.N.N.N.N.> N.N.N.N.N.N.N.N.N.= = = = = - N.N.N.N.N.% % = % % % % % N.N.N.N.N.N.",
"N.N.N.N.> > > > > > > > > > > > > > > > > > > > > > > > 3 N.N.N.N.N.N.N.N.N.N.N.N.N.: = * N.N.N.N.N.N.N.N.- - - - - * N.N.N.N.N.% % % % % N.N.% N.N.N.N.N.N."
};
