/* XPM */
static char *_a20353eb8434bd2f1c2a8740e7404e78vAgghH6n4FzEMlb_25[] = {
/* columns rows colors chars-per-pixel */
"78 86 256 2 ",
"   c #221D1D",
".  c #271D1A",
"X  c #24221D",
"o  c #2B231D",
"O  c #2A291D",
"+  c #231E21",
"@  c #291D28",
"#  c #321B36",
"$  c #1B2C29",
"%  c #252425",
"&  c #2A2524",
"*  c #252926",
"=  c #2A2925",
"-  c #262529",
";  c #2A262B",
":  c #26292A",
">  c #2B2A2B",
",  c #332523",
"<  c #342A24",
"1  c #33252C",
"2  c #3B242C",
"3  c #322A2D",
"4  c #3B2B2B",
"5  c #3B312A",
"6  c #2C2532",
"7  c #2D2A32",
"8  c #2B2638",
"9  c #322634",
"0  c #332A34",
"q  c #3B2B34",
"w  c #34253B",
"e  c #3A253C",
"r  c #352B3A",
"t  c #3A2B3C",
"y  c #3C2433",
"u  c #383138",
"i  c #283332",
"p  c #1D1F20",
"a  c #432B2A",
"s  c #46352B",
"d  c #442A3B",
"f  c #462837",
"g  c #493735",
"h  c #522E37",
"j  c #381C4A",
"k  c #3B2543",
"l  c #3C2B43",
"z  c #392747",
"x  c #3C2653",
"c  c #342E47",
"v  c #4A1C52",
"b  c #432B44",
"n  c #43254C",
"m  c #432B4B",
"M  c #492947",
"N  c #542A48",
"B  c #573748",
"V  c #452B53",
"C  c #4B2C54",
"Z  c #4C2B5B",
"A  c #532C5C",
"S  c #552857",
"D  c #4A3256",
"F  c #573358",
"G  c #653857",
"H  c #692E54",
"J  c #4B2865",
"K  c #542B63",
"L  c #5B2C6C",
"P  c #572768",
"I  c #583367",
"U  c #5A2976",
"Y  c #5B3375",
"T  c #4C306C",
"R  c #652969",
"E  c #663569",
"W  c #632C7C",
"Q  c #662A78",
"!  c #752A79",
"~  c #763679",
"^  c #6A5446",
"/  c #694657",
"(  c #764A6B",
")  c #5B2C85",
"_  c #6B2C84",
"`  c #662886",
"'  c #752B8A",
"]  c #6A3387",
"[  c #763489",
"{  c #6C2A94",
"}  c #742C9B",
"|  c #7B2C9C",
" . c #792897",
".. c #6B3395",
"X. c #7C2CA3",
"o. c #7929A7",
"O. c #772CB0",
"+. c #6D1D92",
"@. c #863789",
"#. c #842B9A",
"$. c #863599",
"%. c #8F2D8C",
"&. c #832CA4",
"*. c #832CAB",
"=. c #892BA9",
"-. c #952AA9",
";. c #8C33AB",
":. c #8836A8",
">. c #9638AA",
",. c #882CB5",
"<. c #952DB7",
"1. c #8C32B3",
"2. c #9737B7",
"3. c #A639A8",
"4. c #A53AB9",
"5. c #B12FB3",
"6. c #924892",
"7. c #AA4E99",
"8. c #9B44B6",
"9. c #8D49AB",
"0. c #A646B7",
"q. c #B74BB7",
"w. c #B453BC",
"e. c #B965B8",
"r. c #C64BB8",
"t. c #CF53B4",
"y. c #C665B9",
"u. c #CD6FB4",
"i. c #DA5BB3",
"p. c #A539C5",
"a. c #B453C3",
"s. c #BC54C4",
"d. c #BB57C8",
"f. c #BB67C5",
"g. c #C857D4",
"h. c #C865C6",
"j. c #D370CD",
"k. c #ED4FE8",
"l. c #CD8BB8",
"z. c #E991D2",
"x. c #D2AFCF",
"c. c #E5B8C9",
"v. c #F9A8E7",
"b. c #EEB0EC",
"n. c #EBCBD4",
"m. c #774A57",
"M. c #774590",
"N. c #35281D",
"B. c #3B2C24",
"V. c #74554A",
"C. c #A83595",
"Z. c #CE37CD",
"A. c #D8B9C9",
"S. c #D9B9D5",
"D. c #E7A9D8",
"F. c #E6B7D7",
"G. c #785655",
"H. c #F392EC",
"J. c #753469",
"K. c #AA54A9",
"L. c #D44ED2",
"P. c #D1B6B7",
"I. c #C987C7",
"U. c #DAA3E3",
"Y. c #F8B6D8",
"T. c #D4C4CF",
"R. c #533B39",
"E. c #514334",
"W. c #473248",
"Q. c #472557",
"!. c #521C6A",
"~. c #673378",
"^. c #6C2B8B",
"/. c #732C94",
"(. c #783397",
"). c #7B33A5",
"_. c #963899",
"`. c #8332A4",
"'. c #8934B7",
"]. c #9945A8",
"[. c #A749AA",
"{. c #B54BAA",
"}. c #B656AA",
"|. c #AC4CB4",
" X c #AC4CBB",
".X c #B34DBC",
"XX c #AC53B7",
"oX c #B453B4",
"OX c #BB53BC",
"+X c #B958B7",
"@X c #C557BA",
"#X c #9935C4",
"$X c #AA46C4",
"%X c #B74AC6",
"&X c #B350CD",
"*X c #9C45C4",
"=X c #C64BC7",
"-X c #C354C4",
";X c #C355CB",
":X c #C45ACB",
">X c #C859C7",
",X c #E94FD2",
"<X c #E96ED3",
"1X c #D48ECF",
"2X c #FAB7E6",
"3X c #F6CDE9",
"4X c #1D1C1C",
"5X c #5B4546",
"6X c #684A46",
"7X c #5F4F64",
"8X c #ECDBE0",
"9X c #B234CA",
"0X c #F471EB",
"qX c #F3ACD1",
"wX c #6F4F50",
"eX c #884C72",
"rX c #B16899",
"tX c #B98DC9",
"yX c #BAC5B2",
"uX c #DFC4B5",
"iX c None",
"pX c #1A1817",
"aX c #381C29",
"sX c #CE28AC",
"dX c #D8C3C8",
"fX c #BAB0A7",
"gX c #D1C5B7",
"hX c #E839DD",
"jX c #3A2425",
"kX c #D657E4",
"lX c #8A3275",
"zX c #2F2B5C",
"xX c #B425CF",
"cX c #835558",
"vX c #594739",
"bX c #69503A",
"nX c #B46BAC",
"mX c #64493A",
"MX c #6B1B64",
"NX c #B88AB4",
"BX c #E3AAB7",
"VX c #4D1732",
"CX c #9B1998",
"ZX c #D658C7",
"AX c #534652",
"SX c #8E626C",
"DX c #922EC4",
"FX c #342F19",
"GX c #513398",
"HX c #37444E",
"JX c #971A60",
"KX c #611828",
"LX c #341419",
"PX c #B91242",
"IX c #170617",
"UX c black",
/* pixels */
"iXiXiXiXiXiXiXiX> > * > - > - - = = ; ; c w c 8 8 8 @ 6 ; 6 > > aXa i $ > @ KXVXKXKXLXFXN.N.$ $ + % p iXiXX X * p * * X $ % - + % % % + iXiXiXiXiXiXiXiXiXiX",
"iXiXiXiXiXiXiXiXiX* > = > = & > - = ; - 8 8 8 c 8 8 # 6 6 ; > 9 a aX$ i i , KXVXLXKXLXLXO O % $ % $ % % $ p X p X p * p % p % % % % % % iXiXiXiXiXiXiXiXiXiX",
"iXiXiXiXiXiXiXiX= > * iXiXiXiX> = = > 0 c c D 7X8 w 6 9 6 9 ; ; & = $ $ @ @ VXVXKXLXjXaX& % * * $ % % % X % X X * X $ * - % $ @ % % % + % p iXiXiXiXiXiXiXiX",
"iXiXiXiXiXiXiXiX- > > - > > & - = > 0 - 8 c AXT w 8 9 9 6 6 7 ; & = $ $ @ @ VXLXLXKXjXa = & % % - $ % - X $ X * X X * X p p @ $ iXiXiX+ + iXiXiXiXiXiXiXiXiX",
"iXiXiXiXiXiXiXiX: = > = > > - - = > > - 8 c zX7X8 # 6 9 7 6 7 7 : i $ 8 j # VX# VXv VXn 1 3 & - - ; = - * % % X X * p iXiX$ p iXiXiXiXiXp iXiXiXiXiXiXiXiXiX",
"iXiXiXiXiXiXiXiXiXiX- : = - & > = - 0 7 c zXAX7Xw 8 9 9 7 8 7 7 8 8 i i w j VXv VXv # # 1 9 & = - - iXiXiX% X X X X % % % - - - % % % + % + % iXiXiXiXiXiXiX",
"iXiXiXiXiXiXiXiX= - = > * > > - * = > - 6 : 8 j 6 8 6 6 r 7 r 9 c r k k v v MXMXU !.x j e e , # ; ; - - * - % % iXiX- iXiXiXiXiXiXiX- p iXiXp iXiXiXiXiXiXiX",
"iXiXiXiXiXiXiXiXiXiXiX- > = > > > > - : 8 c 8 w 6 8 6 6 9 9 r r c w d n v v MXJ.Q !.x j e e 9 , ; ; - - - % % % * % - % % - % ; iXiX% % % + % iXiXiXiXiXiXiX",
": > > > = > : iXiXiXiXiXiXiXiX& = 1 < & 9 9 9 6 6 8 8 8 r 9 k k N VXMXJXJXJXCXCX) ) zX!.k k 9 1 , ; * - - - - @ - ; - - @ p - - iXiXiX+ % + + % iXiXiXiXiXiX",
"iXiX= > > > > = iXiXiXiXiXiX; > & 1 & 3 9 6 6 9 6 p IXIXIXIX# k N MXJXJXsXJXCX+.) ) !.zXk k 9 9 ; - - - - - - - - - - - p - - - - - % % iXiXiXiXiXiXiXiXiXiX",
"iX= > : > : iXiXiXiXiXiXiXiXiX1 & > = 1 & ; 3 @ 9 ; IXIXIX@ M M MXMXJXCXsXCXCXCX+.) T !.m n y y 9 1 6 ; 8 - 6 - @ 8 - @ - @ - % - + * + p % p + iXiXiXiXiXiX",
"iXiXiX= > > > : > > > > > > > > = > , & ; 9 9 ; 9 @ @ IXIX@ n C JXJXPXsXsXCXJXCX{ { ) T V M t q 0 3 6 8 @ 8 6 8 8 - @ 8 @ @ - + - - - % iXiXiX% iXiXiXiXiXiX",
": > = > : iXiXiXiXiXiXiXiXiXiX& > & , < ; 1 1 9 9 aXIXIXIX# v S #.%.sXCXsXPXJXsX} { Q U S M f q 0 0 9 9 8 w w w # 8 6 6 8 6 @ - - - - % iXiXiXiXiXiXiXiXiXiX",
"iXiX> : > > = iXiXiXiXiXiXiX3 > 3 & > & 3 1 9 9 e b k b b M R R CXlXsXPXsXsXsXCX^.{ Q U S S d a q r u r w w w 8 z 8 # # 6 @ - 6 - - iXiXiXiXiX+ iXiXiXiXiXiX",
"iX: > > > = * > > > > > ; > & 6 ; > 3 ; 9 9 9 w # k n n Z Q.L U +.o.CXsXsXsXsXsXo. .` ` F S h f t t t t l w w z l l e # 8 # 8 6 ; @ iXiXiXiXiXp + + iXiXiXiX",
"iXiXiX= > > > > > > > > > > 3 > 7 > ; > 9 9 e r b e M n C Z T Y  .+.CXC.PXsXsXPX=.o.^.` S S g f d b t t k 9 z c AXV k w # 8 8 @ - ; * % * iXiX% % % - % % % ",
": > : > : > > iXiXiXiXiXiXiX; 0 > > > 7 0 0 r l m b V C Z A L E O.} #.$._.:.>.#.,.*.GXO.Q U W.N d M b b x x v x U L j x j j 8 8 6 6 - - - + + iXiXiX+ % - p ",
": > > > > i iXiXiXiXiXiX7 > 7 > > 7 7 7 r r l l W.c D D F I ~.~.GX} #.#.>.>.>.$.,.*.O...~.L B W.W.g b b V j x x K Y j J j # w 8 : 6 % - - - % % - % iXiXp % ",
"> > > > > > > > > > iXiXiXiX> 7 6 7 0 0 r r l m V V T I U ~.] (.O.O.&.=.3.3.-.-.&.=.O.)...] I I F B C M Z Q.T P Q ] J Y c j c 8 6 6 & % % - % % % % % p % + ",
": : : : : : > > > > > 7 iXiXiX> 9 7 7 r u c W.m D Z L T ~.~.^.[ O.O.=.=.3.3.-.#.&.=.).O.] ) E I F F C A K K Y L ] (.P Y zXj c j 7 6 & % % @ % + + + % % + + ",
"* : : : : : iXiXiXiXiXiXiXiX7 > 9 i u 8 l l C C P T ` ] ^...| X.O.O.*X'.4.5.=.&.*.*.O.O.../.~.W E S K P P Q [ _ 9.9._ _ z x c 8 > iXiXiX% + - + - + % + % $ ",
": > : : : : > > iXiXiX0 > > 7 7 7 7 8 u d W.C A P L ] ] ^.[ X.).O.O.*X*X%X.X;.;.*.=.).O.(.(.~ ! E E K L Q Q (.[ 8.8.] ^.j x c c 7 iXiXiXiXiXiX% - + + % % + ",
"> > : > > > > > iXiXiXiXiXiX7 7 0 0 r u M M L I W _ (.(.).*.=.,.,.O.f.*XXXXX&.:.<.<.).O.| | %.%.~ ~.~.~.' [ >.>.*X8.` ' Q.x 8 8 iXiX& ; - % % % % - + % p - ",
"i > > > i > > > iXiXiXiXiXiXiX7 0 0 u c W.B I E ~.] } ).).'.'.'.2.'.f.a.a.w.#.;.<.2.O.:.X.+.%.%.( ~.] ~.[  .>.].$X8.` ^.Q.x c 8 ; & - % % @ + iXiXp - + - + ",
"> > i > > > 0 i i > 0 > i 0 0 0 u r z W.Z T ~.~. . .*.<.'.'.<.<.2. Xq.r.-XOX>.$XDX,.,.'.*.*.X.X.~ ~ ~.J.[ [ 9.K.XX].! ! Q.V 9 ; 7 ; - - - % iXiX- % + % % + ",
"iXiXiXiXiXiXiXiX3 3 0 > 7 7 0 u u u c W.T I W ] } | =.*.<.'.DX<.4.$X@XOX-XOX8.0.,.<.DX#X:.,.&.o.~ ~ ! ! ' [ 6.9.[.=.' Q M b 0 9 > ; - = % ; - = iXiX- % % % ",
"iXiXiXiXiXiXiXiX> 3 7 > 0 0 u u b c Z F Y ` ^./.X.`.,.,.<.'.4.4.%X;X>X@X>X-X0.$X<.<.#X#X#X<.*.-.#.[  .' _ ' [ 9.$. .MXQ n C 9 e 7 ; - & ; iXiXiXiXiX- + % p ",
"> iXiXiXiXiXiXiXi > 0 i i 0 i u b l Z I ] ~./.[ X.*.<.<.1.2.$Xp.;X:XZX>X>X-X0.%X<.p.DXDX<.<.,.=.$.#.@.[ _ ' ^.[ %.' !.MXM m e r > 6 & - & % iXiXiX- % % % - ",
"i > > > > > > i 3 > i 3 0 0 u u W.W.K L ^./.#.#.=.;.;.<.2.2.$X$X;Xs.OXs.-Xg.d.;Xp.<.#XDXDXDX'.'.=.*.X.X.^._ ] _ W R P P j n r l 7 6 - & - iXiXiX- - % % % + ",
"> > i > i : > > > 7 0 > i u u u l W.K I ^.[ (.`.;.;.2.4.2.p.0.$Xd.a.>Xg.:Xh.g.g.9X4.xX<.DXDXDXDX1.*.`.X.(.^.] _ ~.! !.P k n w 9 6 6 - - - iXiXiXiXiX- + iXiX",
"iXi > > > i > > 3 3 0 0 0 u u u Z Z Y Y /./.`.:.=.;.<.2.0.$X Xa.+Xy.j.1Xf.f.:Xg.9Xp.#XDXO.'.'.'.DXDX,.*.(.(._ [ _ _ !.Q z Q.w 8 6 6 & - - = + % % % % % % % ",
"> > > : > > > > 7 i 0 3 0 u u u D D ~.~.| } X.:.<.-.2.4.$X&Xa.a.+X+XH.1Xf.h.h.g.$X$X#XDX*X'.DXO.DXDX,.'.(.(.[ ' _ _ P U n n 8 8 6 6 & % - - iXiXiXiX% % % % ",
"= > > > > > > > 3 3 u 3 u t m C F T ] ..).).'.'.>.-.$X%X&X&Xd.&Xf.f.j.j.d.j.g.j.kX>Xd.9X$X$XDX'.2.;.=.=.X.X.o.O. . .Q ` v V # w 6 8 : iXiXiXiXiX* % % % % % ",
"> i iXiXiXiXi 3 > i 3 u t t m D T I ] ..).O.'.'.2.-.a.&Xf.d.f.d.f.f.H.H.d.:X;Xg.g.;X&X%X$X#X*XDX2.>.`.`.} &.o.o. . .W _ x n w w 6 : : iXiXiXiXiX* - % % % O ",
"> > > > > > 3 > 3 3 3 u l b D D iXiXiXM.O.O.'.'.4.4.d.:Xd.f.f.d.j.1Xv.v.h.h.>X>X:X>X:X;X&Xg.&X&X3.2.>._.o.=.o.o.} | ^.] n Q.w z 7 7 : iXiXiXiXiXiXiXiXiX% % ",
"> > > > > 7 3 i 3 i u u u b D D Y ] M...9.9.'.#X.Xq.:Xg.h.d.f.j.1XI.v.b.h.h.>X-X-X:Xg.&X&X&XkXg.$X0.-.>.,.<.*.o.} X.^.^.Q.n 9 l 7 8 iXiXiX- $ % % % % % % % ",
"i iXiXiX> 7 i > 3 u u iXiXW.Z T ] [ (.(.:.9.2.8.%X&X>X>Xy.+Xu.I.tXtXF.b.l.j.e.nXoX+Xf.d.%X%Xd.%Xw.w.0.|.2.9.X.| } )./.' V n w l 7 7 : ; - iXiXiX% % = % % % ",
"= > > > : 7 > 3 3 5 3 u c W.D I ] ] (.(.:.1.2.0.&X;X>X:Xe.y.I.j.x.tXU.U.I.1Xy.nXd.f.:Xh.g.;Xd.;Xs.a.a.XX8.2.&.X.} | _ ^.Q.x w z 8 7 iXiX% % $ % % % % % % % ",
"> i > > > > 3 i iXiXu q M W.K I /.(.} `.;.>.2.$X;Xg.-X:Xe.nX1X1XT.S.S.F.D.F.1Xl.e.nX+X+X;Xg.%Xq.w.s.+Xw.8.>.).X.| (.` Q C n 9 9 6 6 : * iXiX$ % % % % % % % ",
"> iXiXiX> > 3 3 3 0 q u m m K I /.(.| X.:.2.4.$X;X:Xs.-XnXnXz.1XS.S.S.n.D.D.I.I.e.e.f.d.>X;X-X%Xw..XXXw.8.:.| X.| /.W ` n n w 9 6 6 : iXiXiXiX* % * % % % * ",
"i = iXiXi i i 3 3 5 u l V D U U o.O.o.o.&.=.2.0.;X;X>X-Xl.j.l.l.S.S.S.S.S.F.b.S.I.1X+Xw.-X:X=Xq.%Xs.0.0.X.*.o.O.(.' Q Q v M 1 1 iXiX> ; iXiXiX* % * % % * iX",
"iXiXiXiXiXiX3 3 3 3 t u V D L Y O.O.,.,.1.<.2.0.;X;X:X-XI.I.1X1XS.8XS.T.S.F.S.b.U.1Xe.w.s.-Xs.%X.Xq.>.>. .,.o.o.[ (.Q U M M 3 4 7 8 : - - % % $ % & % % iXiX",
"iX< > > > > 0 i u i l u Z D W ` o.o.o.*.=.=.>.-.=X;Xy.d.l.1Xx.S.F.T.T.F.T.n.S.S.F.U.e.e.OX-Xs.s..X0.-.>.o.,.o.o. .^.R U n m 0 0 7 7 : : - % $ - % % % % % % ",
"> iXiXiX7 3 i 3 0 u d l Z Z ` W o.O.o.,.>.=.>.>.-X;XOXe.I.1XS.T.T.T.F.T.S.S.F.F.b.D.f.e.-Xs.a.:X.X4.=.-.o.,.O.o.' ` U MXM b q q 7 8 iXiX% % iXiX% % * % % iX",
"iXiXiXiX> > 0 0 r u b W.T Z ` ..).o.`.`.#.>.>.3.-Xw.}.e.x.D.S.n.F.T.T.F.T.n.n.S.b.F.I.u.f.oXw.OX X4.#.-.o.*.O.o.{ +.!.U Q.n t r 7 7 7 iXiX% % % % % % % % % ",
"> > > > i > 3 i 0 r t W.Z I _ ] o.o.).`.>.>.0.[.w.w.e.y.1XS.S.dXT.F.S.S.S.S.F.S.F.3XU.1Xf.+Xw.oX%X0.-.>.X.,.o.O. .+.+.Q n C r e 7 7 ; ; - % * $ * O * % iXiX",
"iXiXiXiXi 7 3 0 r u b V T P ] ..:.:.>.8.0..Xq.|.{.@Xh.j.F.F.c.A.F.S.T.T.T.n.S.S.b.F.b.U.e.}.w.w.%X.X3.3.&.&.X.O.} | +.` Z Z k r r 6 6 : * % * % % % % % % % ",
"i > i i > > 3 i r r m m T I ..(.*.9.8.8.q.w.oXw.r.>XI.1XF.F.A.uXT.F.F.n.F.S.S.F.n.U.b.b.e.K.f.+X.Xa.0.0.X.&.o.*.X.| ^.` Z Z r k 7 8 : : % % * % % % % % % % ",
"i i > 0 > i 3 3 t l V D U T o.o.].9.[.|.q.oX@X@Xt.i.qXqXn.BXuXP.S.S.8X8XuXdXgXgXT.yXyXyXx.fXrX7..Xq.0.|.8.|.9.;.:.O.{ } J P z k 9 9 iXiXiXiXiXiX% % % % % % ",
"3 0 7 > > 3 3 i r c Z V U U ).O.9.K.|.XXq.+Xt.@Xi.u.v.qXc.c.uXuXS.S.8X8XdXuXuXgXx.T.x.T.NXNXrXrXq.oXw.oXXXiXiXiX1.o.{ o.T T l k 0 9 3 ; & - % % % % % % % % ",
"7 7 i 3 i 3 3 i u t Z D ] ) :.9.K.9.[.K.{.@Xr.ZX0X0Xv.H.3Xb.S.n.S.S.8X3XS.A.T.A.S.x.U.b.e.j.r.5.oXoX{.|.K.8.[.>.2.'.o.O.U Y b l 0 9 1 ; > - - * $ % * % % % ",
"i 7 > 7 > > 3 > r u C V M.M.'.'.K.K.].[.r.t.@Xt.0X0Xv.H.2X2Xn.c.T.S.n.n.T.A.A.T.T.x.x.S.u.e.i.t.q.q.{.oX|.[.0.[.8.'.O.).Y ~.m m e 9 ; ; iXiX* * % % % % - * ",
"0 7 0 iXiXiX> 3 0 u m C Y ] ).9.K.9.K.[.{.@Xt.t.ZXZXH.H.3XiXiX8X8XiXiXT.T.S.S.A.U.D.b.H.ZXZX,X<Xt.}.t.7.{.7.[.[.0.>.:.:.] _ C n 9 9 , 1 - - % % % % % iXiXiX",
"7 7 iXiXi 3 3 3 0 u C V ( ] ).9.K.].].7.{.@Xr.t.>XZXv.H.2X3Xn.8XS.8X8XS.S.S.S.A.U.S.U.v.ZXt.<X,X@Xt.}.r.7.[.[.[.0.8.*.'.] ] Q.n 9 9 6 ; > - * % % % * % % % ",
"7 > i 7 3 > > i 3 u W.b D T M.M.6.].7.{.{.{.r.r.rXrXz.z.dXdXgXyXP.P.P.P.S.dXc.n.Y.c.1Xz.y.t.i.i.@Xi.OX{.[.[.[.3.>.2.>.:.^._ v v 9 9 ; 3 - - % $ $ % % % % iX",
"iX0 3 7 3 > i 3 0 q b b A T ] ) @.6.].{.3.{.{.r.7.7.l.l.dXdXgXfXuXiXiXgXdXn.S.dXF.A.l.l.u.y.i.i.i.h.}.{.{.7.3.7.>.].1.:.] _ Q.j 9 9 3 ; - - % - * % % % % * ",
"0 > 3 3 > > > 0 7 r l t D D T F @.%.6.%.{.{.{.{.{.7.7.7.u.z.qXqXqXqXv.v.b.D.D.b.D.1Xy.y.i.y.@Xt.@X@Xq.{.[.[.[.].].:.|  .[ _ J x 9 1 ; # & * % X % % X % % * ",
"7 0 > i 7 i > 3 7 0 l l W.m D T ! lX_._.3.[.{.{.{.{.t.7.rXl.z.Y.z.v.v.v.U.D.U.D.z.1Xu.y.u.t.@X@Xr.r.{.{.[.].8.].:.$.^.' U P !.v 9 9 ; ; % * % % % p % % % % ",
"> 3 0 > > i > i 7 7 u t l W.V D P R [ 6.C.>.3.C.L.hXk.k.,X,X,X,XZX,Xi.ZXZXh.ZXj.<XZX>Xt.t.r.{.[.7.[._._.$.@.M.$.[ ] W !.x !.j x 9 @ @ ; - - * % % X % % % % ",
"0 > > 7 > 3 0 > 0 7 r r l c V V P P ~ M._.C.C.5.k.k.k.k.k.,X,XZ.t.ZXi.ZXj.ZXZX>Xj.ZXt.t.}.{.7.C.[.{.6.].:.6.(.(.] ` U !.v x x j 3 # 1 ; % % - % + $ % % % % ",
"> iXiX0 > i 0 7 i 7 7 0 l l b W.M m ( M.7.eX7.lXxX5.Z.Z.Z.L.Z.Z.C.3.7.C.7.7.%.C.r.7.C.sX6.%.@.$.@.@.' ! ~.U T P J J V n j # : 8 6 @ ; @ - + % % % $ % % % % ",
"3 3 > > 7 > > 7 7 7 r 0 t u b l b b M.SXeXlX7.7.9X9X5.Z.Z.hX,XL.5.5.C.C.C.C.eXC.7.C.C.C._._.[ @.lX@.[ ! ` Y U P Q.Q.V n c 8 : 8 1 # @ ; % % % $ % % % p iXiX",
"iX3 0 > i > > 3 > > 7 7 0 r t t a VXG.( cXlXeXeXSX6.lXeXeXeX( 6.eXeX6.( ( / / G H J.J.! R R T T !.MXP MX!.J v x z j t l > i $ $ ; ; - - % % % % % % % % % iX",
"iXi > iXiX7 > i > 7 7 7 0 9 q 0 a f G.G.cXm.eXSX6.eXlXlX~ ( ~ ( SX6.( ~ 7X( AXF lXMXMXR L P T Z MXMX!.!.!.!.x x z k t u > : $ O @ - @ - iXiX% % X p % % % % ",
"> 3 i iXiX> iXiX> iXiXiX7 7 3 > iXiXiXiXiXG.m.cXSXcXm.m.B m./ ( / ( / F N N B B F F W.W.W.M M d N iXiXf iXiXiXiXiX0 > > 7 : - * - % % - - - iXiXiXiX* iXiXiX",
"7 > > > > > > > iXiXiXiX7 > 3 iXiXiXiX6XcXcXcXcXcXG.wXwXG m./ / G / B N M h f N S F B W.W.M W.d N d iXiXiXiXq 1 7 > iXiXiXiX> - & - - * % = iXiXiX* iXiXiXiX",
"iX> > > > > > > iXiXiXiXiXiXiXiXiXiXiXiXiXiXiXiXbX6Xm.m.6X/ W.B B B W.d d d d M d e e y e y 9 e iXiXiXiXiXiX0 1 3 1 iXiXiXiXiXiX= iXiXiXiX- iXiXiXiXiXiXiXiX",
"> > > > > > > iXiXiXiXiXiXiXiXiXiXiXiXiXiXiXiXiX6XV.V.m.5XB h g f h f f f d d d d f e y y f y d iXiXiXiXiXiXiXiXiXiXiXiXiXiXiXiX- iXiXiXiX* % % * % % % % % ",
"> > > > > > > > iXiXiXiXiXiXiXiXiXiXiXiXiXiXiXiXV.cXV.cXB B f s d a q 0 q q y 2 2 y y a f y d h iXiXiXiXiXiXiXiXiXiXiXiXiXiXiXiX* iXiXiXiX- iXiXiXiXiXiXiXiX",
"iX> > > > > i > iXiXiXiXiXiXiXiXiXiXiXiXiXiXiXiXV.G.m.m.6XB f a a 4 q 4 4 4 2 1 aX, 1 1 2 2 q g iXiXiXiXiXiXiXiXiXiXiXiXiXiXiXiXiXiXiXiXiX* % % - iXiXiXiXiX",
"iXi i = > > < iXiXiXiXiXiXiXiXiXiXiXiXiXiXiXvXvXbXbXmX6XR.vXjXjX= < < < & = < B.u 5 s 4 a g R.5XiXiXiXiXiXiXiXiXiXiXiXiXiXiXiXiXiXiXiXiXiX- iXiXiXiXiXiXiXiX",
"iX< > > > > iXiXiXiXiXiXiXiXiXiXiXiXmXiXiXiXiXmXmX^ mX6XB R.a jX< < = O o , 3 < q 5 2 B.4 f R.R.R.iXiXiXiXiXiXiXiXiXiXiXiXiXiXiXiXiXiXiXiX* % % * iXiXiXiXiX",
"> > > iXiXiXiXiXiXiXiXiXiXiXiXiXiXE.vXbXmXbXiXiXbXiXiXiXs jX< < & o O % O & iXiXB.5 < < N.s s g iXiXiXiXiXiXiXiXiXiXiXiXiXiX* - % - % % % % % X iXiXiXiXiXiX",
"> > > > > > iXiXiXiXiXiXiXiXiXiXE.iXiX5X^ bXbXbXmXE.s a B.N.< = & O O O O & < & < < FXN.FXB.iXiXiXiXiXiXiXiXiXiXiXiXiXiXiXiX- % * * % % % % % X iXiXiXiXiXiX",
"iX> i = iXiXiXiXiXiXiXiXiXiXiXiX$ < g E.vXvXvXvXvXE.FXN.< < = O * O X p + % = = * = = < < iXiXiXiXiXiXiXiXiXiXiXiXiXiXiXiXiXiXiXiX% % % % % iXiXiXiXiXiXiXiX",
"iX> > > > > > i > iXiXiXiXiXiXiXO < E.E.vXvXvXiXiXB.B.o o o X X p p p 4X  % + - O O O O O N.< 5 s g iXiXiXiXiXiXiXiXiXiXiXiXiXiXiX% % % % % X % % iXiXiXiXiX",
"> iXiXiX< > > > iXiXiXiXiXiXiX  pXX O O O o o FX< < & , & & - + + + p p + + + - % % O % O O & < g iXiXiXiXiXiXiXiXiXiXiXiXiXiXiXiX* % % % % iXiXiXiXiXiXiXiX",
"iXiXiXiXiXiXiXiXiXiXiXiXiXiX= X O X O * o o o o o LXo o + . % + p % % - @ + iXiX4XX X 4XX X o < 4 iXiXiXiXiXiXiXiXiXiXiXiXiXiXiXiX- % % % % p iXiXiXiXiXiXiX",
"iXiXiXiXiXiXiXiXiXiXiX3 > > = = pXpX4XpXpX4X. . & + @ . - +   + % - - - ; - = + 4X% p p   X % = iXiXiXiXiXiX+ - 4X  iXiX: - * * * - % % % O % % % iXiXiXiXiX",
"iXiXiXiXiXiXiXi iXiXiXiXi 3 > = = % %   . 4XiXiX& & & & ; + + - * > : > > > -   % O 4X4X4X4XX % % + iXiXiXiXiXiXiX% - - - * iXiXiXiX% % % % iXiXiXiXiXiXiXiX",
"iXiXiXiXiXiXiXiXiXiXiXiXiXiXiXiX= > > = % 4X4X  = - & > & & ; - * > > = > > = * - % 4X4X4X+ 4X4X% p 4X4X4Xp   4X  iXiX* iXiXiXiX% % * % % % iXiXiXiXiXiXiXiX",
"iXiXiXiXiXiXiXiXiXiXiXiXiXiXiXiXiX> > > * O % % > & & > 3 ; > > > > > > > > > > = * + p 4X4X4X4X4X4X4X4X4X4X4X4XiXiXiXiXiXiX* % % - % X % % % iXiXiXiXiXiXiX",
"iXiXiXiXiXiXiXiXiXiXiXiXiXiXiXiXiXiX3 > > > * > > > > > > iXiXiXiXiXiXiXiXiXiXiXiXiX- X 4X4XpX4X4X4X4X4X4X4X4X% % % $ % % % * % % iXiXiXiXiXiXiXiXiXiXiXiXiX",
"iXiXiXiXiXiXiXiXiXiXiXiXiXiXiXiXiXiX> iXiXiXiXiXiXiXiXiXiXiXiXiXiXiXiXiXiXiXiXiXiXiX* - % p % % p 4Xp p 4Xp 4X% % % % % % % % % % % iXiXiXiXiXiXiXiXiXiXiXiX",
"iXiXiXiXiXiXiXiXiXiXiXiXiXiXiXiXiXiXiXiXiXiXiX> > > > > > > > iXiXiXiXiXiXiXiX- > : * * * - = - * * = - * * = = % * - % % % % * % % % iXiXiXiXiXiXiXiXiXiXiX",
"iXiXiXiXiXiXiXiXiXiXiXiXiXiXiXiXiXiXiXiXiXiXiXiXiXiXiXiX> iXiXiXiXiXiXiXiXiXiX* iXiXiX* > > > > > * > > = > - > * - $ % * * % % iXiXiXiXiXiXiXiXiXiXiXiXiXiX"
};
