/* XPM */
static char *_a20353eb8434bd2f1c2a8740e7404e78vAgghH6n4FzEMlb_26[] = {
/* columns rows colors chars-per-pixel */
"78 86 256 2 ",
"   c #221D1D",
".  c #271D1A",
"X  c #24221D",
"o  c #2B231D",
"O  c #2A291D",
"+  c #231E21",
"@  c #291D28",
"#  c #321B36",
"$  c #1B2C29",
"%  c #252425",
"&  c #2A2524",
"*  c #252926",
"=  c #2A2925",
"-  c #262529",
";  c #2A262B",
":  c #26292A",
">  c #2B2A2B",
",  c #332523",
"<  c #342A24",
"1  c #33252C",
"2  c #3B242C",
"3  c #322A2D",
"4  c #3B2B2B",
"5  c #3B312A",
"6  c #2C2532",
"7  c #2D2A32",
"8  c #2B2638",
"9  c #322634",
"0  c #332A34",
"q  c #3B2B34",
"w  c #34253B",
"e  c #3A253C",
"r  c #352B3A",
"t  c #3A2B3C",
"y  c #3C2433",
"u  c #383138",
"i  c #283332",
"p  c #1D1F20",
"a  c #432B2A",
"s  c #46352B",
"d  c #442A3B",
"f  c #462837",
"g  c #493735",
"h  c #522E37",
"j  c #381C4A",
"k  c #3B2543",
"l  c #3C2B43",
"z  c #392747",
"x  c #3C2653",
"c  c #342E47",
"v  c #4A1C52",
"b  c #432B44",
"n  c #43254C",
"m  c #432B4B",
"M  c #492947",
"N  c #542A48",
"B  c #573748",
"V  c #452B53",
"C  c #4B2C54",
"Z  c #4C2B5B",
"A  c #532C5C",
"S  c #552857",
"D  c #4A3256",
"F  c #573358",
"G  c #653857",
"H  c #692E54",
"J  c #4B2865",
"K  c #542B63",
"L  c #5B2C6C",
"P  c #572768",
"I  c #583367",
"U  c #5A2976",
"Y  c #5B3375",
"T  c #4C306C",
"R  c #652969",
"E  c #663569",
"W  c #632C7C",
"Q  c #662A78",
"!  c #752A79",
"~  c #763679",
"^  c #6A5446",
"/  c #694657",
"(  c #764A6B",
")  c #5B2C85",
"_  c #6B2C84",
"`  c #662886",
"'  c #752B8A",
"]  c #6A3387",
"[  c #763489",
"{  c #6C2A94",
"}  c #742C9B",
"|  c #7B2C9C",
" . c #792897",
".. c #6B3395",
"X. c #7C2CA3",
"o. c #7929A7",
"O. c #772CB0",
"+. c #6D1D92",
"@. c #863789",
"#. c #842B9A",
"$. c #863599",
"%. c #8F2D8C",
"&. c #832CA4",
"*. c #832CAB",
"=. c #892BA9",
"-. c #952AA9",
";. c #8C33AB",
":. c #8836A8",
">. c #9638AA",
",. c #882CB5",
"<. c #952DB7",
"1. c #8C32B3",
"2. c #9737B7",
"3. c #A639A8",
"4. c #A53AB9",
"5. c #B12FB3",
"6. c #924892",
"7. c #AA4E99",
"8. c #9B44B6",
"9. c #8D49AB",
"0. c #A646B7",
"q. c #B74BB7",
"w. c #B453BC",
"e. c #B965B8",
"r. c #C64BB8",
"t. c #CF53B4",
"y. c #C665B9",
"u. c #CD6FB4",
"i. c #DA5BB3",
"p. c #A539C5",
"a. c #B453C3",
"s. c #BC54C4",
"d. c #BB57C8",
"f. c #BB67C5",
"g. c #C857D4",
"h. c #C865C6",
"j. c #D370CD",
"k. c #ED4FE8",
"l. c #CD8BB8",
"z. c #E991D2",
"x. c #D2AFCF",
"c. c #E5B8C9",
"v. c #F9A8E7",
"b. c #EEB0EC",
"n. c #EBCBD4",
"m. c #774A57",
"M. c #774590",
"N. c #35281D",
"B. c #3B2C24",
"V. c #74554A",
"C. c #A83595",
"Z. c #CE37CD",
"A. c #D8B9C9",
"S. c #D9B9D5",
"D. c #E7A9D8",
"F. c #E6B7D7",
"G. c #785655",
"H. c #F392EC",
"J. c #753469",
"K. c #AA54A9",
"L. c #D44ED2",
"P. c #D1B6B7",
"I. c #C987C7",
"U. c #DAA3E3",
"Y. c #F8B6D8",
"T. c #D4C4CF",
"R. c #533B39",
"E. c #514334",
"W. c #473248",
"Q. c #472557",
"!. c #521C6A",
"~. c #673378",
"^. c #6C2B8B",
"/. c #732C94",
"(. c #783397",
"). c #7B33A5",
"_. c #963899",
"`. c #8332A4",
"'. c #8934B7",
"]. c #9945A8",
"[. c #A749AA",
"{. c #B54BAA",
"}. c #B656AA",
"|. c #AC4CB4",
" X c #AC4CBB",
".X c #B34DBC",
"XX c #AC53B7",
"oX c #B453B4",
"OX c #BB53BC",
"+X c #B958B7",
"@X c #C557BA",
"#X c #9935C4",
"$X c #AA46C4",
"%X c #B74AC6",
"&X c #B350CD",
"*X c #9C45C4",
"=X c #C64BC7",
"-X c #C354C4",
";X c #C355CB",
":X c #C45ACB",
">X c #C859C7",
",X c #E94FD2",
"<X c #E96ED3",
"1X c #D48ECF",
"2X c #FAB7E6",
"3X c #F6CDE9",
"4X c #1D1C1C",
"5X c #5B4546",
"6X c #684A46",
"7X c #5F4F64",
"8X c #ECDBE0",
"9X c #B234CA",
"0X c #F471EB",
"qX c #F3ACD1",
"wX c #6F4F50",
"eX c #884C72",
"rX c #B16899",
"tX c #B98DC9",
"yX c None",
"uX c #DFC4B5",
"iX c #68431E",
"pX c #1A1817",
"aX c #381C29",
"sX c #CE28AC",
"dX c #D8C3C8",
"fX c #BAB0A7",
"gX c #D1C5B7",
"hX c #E839DD",
"jX c #3A2425",
"kX c #D657E4",
"lX c #8A3275",
"zX c #2F2B5C",
"xX c #B425CF",
"cX c #835558",
"vX c #594739",
"bX c #69503A",
"nX c #B46BAC",
"mX c #64493A",
"MX c #6B1B64",
"NX c #B88AB4",
"BX c #E3AAB7",
"VX c #4D1732",
"CX c #9B1998",
"ZX c #D658C7",
"AX c #534652",
"SX c #8E626C",
"DX c #922EC4",
"FX c #342F19",
"GX c #513398",
"HX c #37444E",
"JX c #971A60",
"KX c #611828",
"LX c #341419",
"PX c #B91242",
"IX c #170617",
"UX c black",
/* pixels */
"yXyXyXyXyXyXyXyXyXyX> > > > : > ; 1 ; @ # q AX7X1 2 9 9 6 9 6 6 $ $ i > LX. IXIX$ $ pX$ 4XX % % % % % % % % - % % - - % + % + - % % % % yXyXyXyXyXyXyXyXyXyX",
"yXyXyXyXyXyXyXyXyX> : > yXyX> > ; ; 9 @ 1 9 W.B 2 # 9 # 8 8 6 6 $ $ > < @ LXLXpX$ $ $ $ X * % - $ % % + % % + - % % % % - % yXyXyXyXyXyXyXyXyXyXyXyXyXyXyXyX",
"yXyXyXyXyXyXyXyX> : > = = > = > 6 3 6 6 1 y 1 1 0 9 6 6 8 : 6 : $ O LXVX& = $ $ $ $ - - % @ % + % $ % % % - % - % - % % - + + - yXyXyXyXyXyXyXyXyXyXyXyXyXyX",
"yXyXyXyXyXyXyXyX= > > > > > > : ; ; 6 : 9 9 3 # ; 6 6 6 : 8 : > i $ N.LX@ X $ $ $ $ % * * - % % % % yXyX+ % - + - + % - % - + % yXyXyX% yXyXyXyXyXyXyXyXyXyX",
"yXyXyXyXyXyXyXyXyX> > > > > > = 7 : - 8 ; 9 ; @ - ; : : 7 ; ; ; KXKXKXKXa VX$ $ ; , aX@ @ % $ $ % % % % % - % - % % + - % + - + % % % % yXyXyXyXyXyXyXyXyXyX",
"yXyXyXyXyXyXyXyXyX= > : : > : > : - p - 6 6 ; ; ; > ; ; ; > ; 6 KXKXPXKXN f $ $ ; - # aX, @ p % % % % yXyXyX% % % - - - - % % % yXyXyXyXyX% yXyXyXyXyXyXyXyX",
"yXyXyXyXyXyXyXyX> > yXyX> : > > ; - ; yXyX; ; 1 ; & 3 , 1 1 jXjXKXiXPXKXMXKXi i # 2 aXy @ aX% $ % % - % % % % - + % - - - - - % * % % yXyXyXyXyXyXyXyXyXyXyX",
"yXyXyXyXyXyXyXyXyX= > > > > = > : - 6 7 0 0 3 ; ; 1 - & , & 1 jXKXPXJXJXJXKXc c y # VXaX@ , $ - * % % % % - + - % - + - yXyX- % yXyXyXyXyX% yXyXyXyXyXyXyXyX",
"yXyXyXyXyXyXyXyXyXyXyXyXyXyXyX> > ; 8 7 7 6 3 9 # @ aXaXLXaXVXf KXh JXJXsXPXJXJX# y # ; ; ; & & = & % % - - + - & ; ; ; ; - - - % yXyX% yXyX% yXyXyXyXyXyXyX",
"yXyXyXyXyXyXyXyXyXyXyXyXyXyX> > ; ; ; 7 ; 0 0 1 1 # LXIXLXaXf VXKXh KXJXJXPXKXKX# # 9 ; ; ; ; - - ; % - % - - - & ; & - ; - - = - % % % % % % yXyXyXyXyXyXyX",
"yXyXyXyXyXyXyXyXyXyXyXyXyXyXyX= ; ; 1 6 0 3 9 0 2 aXaXLXaXVXVXN Q.v MXJXJXJXJXKXt k 9 9 ; ; ; & ; ; yXyX@ 6 @ # # 9 9 6 9 yXyXyXyX- * % - % % yXyXyXyXyXyXyX",
"yXyXyXyXyXyXyXyXyXyXyXyXyXyX: > ; ; 6 3 6 9 9 9 y y aXaXaXVXM N Q.J MXlXsXJXJXPXl l r y 3 9 ; ; ; & 6 6 # 6 8 - w 9 w 9 ; ; - % - * yXyXyXyXyXyXyXyXyXyXyXyX",
"yXyXyXyXyXyXyXyXyXyXyXyXyXyXyX> ; 6 9 ; 0 3 0 r y e e d M C S v J T ' ! CXJXMXJXC n l z 9 9 3 & 1 3 w w j j c j J x j zX6 6 - - % % - - yXyXyXyXyXyXyXyXyXyX",
"yXyXyXyXyXyXyXyXyXyXyXyXyXyX> > > > 0 0 0 r q t t d M M C D S S T U %.! CXCXMXJXZ V l k w w 3 0 0 0 r e z c c x T zXj 8 8 6 - - yXyXyXyXyXyXyX% yXyXyXyXyXyX",
"yXyXyXyXyXyXyXyXyXyXyX: > : > > 7 0 0 r 0 r u u u c W.W.D Z T T ..)  .+.%.%.T T L K n n t k 9 y 9 0 e w x j T T ) T x j w 8 - = = - - - - * yXyXyX% yXyXyXyX",
"yXyXyXyXyXyXyXyXyXyXyX= > > > > 0 0 r r u t l u W.W.c D D T T I ..U #.>._.6.Y I L K C V l l r r q 4 z e x x T Y GXT x z w w - - - * * - * - - yXyXyXyXyXyXyX",
"> > > > > > : > > > 3 > ; yXyXyXr 0 r l l c C W.D D I T ~.~.! `  .' >.>.].|.[ ~.` U K J W.c c i N.5 0 0 Q.!.) ] *X).(.{ z j $ % - = - % - - yXyXyXyXyXyXyXyX",
"> > : > > = > > > > > > > 3 > 7 7 r l l l W.W.D T D Y Y ~.~._ [  .[ >.0.].XX@._ ] Y I J W.W.c u < FXy 0 x J ` ^.*X8.} ..z k - * - = % % % yXyXyXyXyXyXyXyXyX",
"yX: > = > : = yXyXyXyXyXyXyX7 7 r u c l W.c A K I Y ) ] ^.] ).} &.=.0.%X.X X#.%./.' Y U Z Z c b 5 3 0 2 v Q.Y ] ).9.( ~.z z : : - - % - - + yXyXyXyXyXyXyXyX",
"= > > > > > > > > > i 7 7 0 9 r u r l W.W.D D I Y Y ....[ (.X.:.-.`.0.%Xw.q.%.@.(./.] Y F I D W.q B.q 9 V V Y Y 9.).Y T z z 7 : - - = - % % yXyXyXyXyXyXyXyX",
"> > > > = yXyXyXyX7 yXyX> > 0 0 t l M D Z Z Y ~.] ] } (.).*.1.;.;.1.8.XXa.d.>.%.| (./.^.~.Y F A b d t t l l l z ~.E n j j z : : ; - yXyXyX- yXyXyXyXyXyXyXyX",
"> yXyX> > > > > > > > 0 0 i u u t b W.D I I Y ~.^.[ ).).`.:.1.;.1.;.]. Xw.d.>.$.#.| [ ^.Y ~.F Z W.d d t l z l l K P z z j 8 : 8 & - > * % = yXyXyXyXyXyXyXyX",
"- > > > > > > > > > 3 0 0 0 u u b W.A F U E ^.(.`.).,.'.'.1.<.,.1.,.4.0.q.0.:.`.`.| X.| ~.[ ~.L A C m b z l l c l c w c 8 j 6 8 % & - - yXyXyXyXyXyXyXyXyXyX",
"> > > > > yXyXyXyXyX7 i 0 0 u u l W.A F ~.~.^.(.O.).,.'.<.1.<.<.<.'.a.&X0.[.| :.:.).#.| [ [ ~.E F A C m z z l u c l w c w z : - - - = % - % yXyX- yXyXyXyXyX",
"yXyX: > > > > > 7 3 0 0 r u l c D W.I E ! ' #.#.1.1.,.,.DX'.#X#X'.'.8.8.>.>.=.>.,.,.,.o.+.&.(.' Q R K A V l c u e l 3 0 6 7 ; > - - - = yXyXyXyXyXyXyXyXyXyX",
"yX: : > > > > > i 3 > 0 r u l W.D D I E ' [ #.;.1.'.DX'.<.DXyXyX'.1.4.>.3.3.=.=.DXDX,.,.&. .' ' Q Q K A V z u r z z 0 9 7 ; > - - - % - % - yXyXyXyXyXyXyXyX",
"yXyXyXyXyXyX3 yXyXyXu u l l D D I Y ~._ (.(.=.=.1.'.2.DX<.2.<.<.2.4.%X%X.X X-.=.DXDXDX,.=.&. . .' ! L U D V l l l k 0 0 8 : ; ; * - - - - % yXyX* yXyXyXyXyX",
"yXyXyXyXyXyX> i 0 > u 3 u l Z F Y E ~.] #.#.;.:.1.'.#X#X2.p.p.2.4.<.4.q.4.[.;.#.DXDX,.<.=.&.|  .[ _ E Y T D l c b l 4 7 7 7 ; : - - - - % - yXyX* yXyXyXyXyX",
"yXyXi > > > i 3 i 3 u u b W.Z T W ~.(.$.#.&.<.<.'.DX#Xp.$X$X0.0.0.$X=X;X;X%X4.2.#X<.<.<.1.,.X.&.(.' _ ~.T T c c V l r 9 7 7 : : & ; - = yXyXyXyXyXyXyXyXyXyX",
"yX= : > > > > > 3 u u u l W.Z I W ] (.(.=.&.,.2.#X2.DX#X$X$Xa.&X$Xp.s.;X%X X2.2.#X#X<.DX<.,.=.:.| | ] ] I I D V m l r 9 7 7 : ; - - - - - * yXyX- yXyXyXyXyX",
"yX> > > > > 7 0 i 3 u u l W.T I ] [ | `.:.;.<.2.p.#X$Xp.$X&X&Xd.;Xd.h.j.:X;X%X$X2.<.<.<.'.<.*.;.).`.[ ..Y U T Z C m r y 8 6 ; ; ; - - yXyXyX% - * yXyXyXyXyX",
"yXyXyXi i > > > 3 0 t u W.W.K I _ ^.(.X.;.;.<.2.$Xp.$X&X$X$Xa.f.g.d.@X-X;X;X&X$Xp.2.#X2.1.,.*.=.`.#.(.^.Y Y J J C z w r 0 6 > ; - % % - * - - - yXyXyXyXyXyX",
"yXyXyXyXyXyX3 3 3 i u t m W.A F { (.X.`.=.2.4.$X$X9X%X:Xf.h.+X+X<Xz.ZX@XZXZXZ.Z.4.5.0.4.>.=.:.=.*.O.(.).] ` U P C n e e 9 9 ; 1 & ; : * % % % X yXyXyXyXyXyX",
"yXyXyXyXyXyXyXi 3 u l l m W.F F { /.X.`.=.2.p.$Xp.$Xs.d.d.d.d.j.j.0Xu.ZXZXL.L.r.%X%X4.0.1.2.=.:.*.'.).} ^.` U J C M e e y 9 ; ; - - - * % % yXyXyXyXyXyXyXyX",
"yXyXyXyXyXyXyX3 3 u c W.D D I E } ).`.'.1.2..X9X.X;X-X@Xe.f.j.1X1Xj.y.e.-X@Xt.ZX=Xr.4. X8.8.1.2.,.'.).).' _ U U S n b k y 9 9 1 ; - * * % * X yXyXyXyXyXyXyX",
"yXyXyX7 > 3 yXyX5 i l c m V A Y ..(.:.1.1.2.p.$X%Xs.@XOXe.h.1XH.U.1Xy.h.ZX>XZXL.>X=X|..X0.$X2.1.'.*.*.X./.^.W W C S M d 9 9 # 1 & - * * * % $ * yXyXyXyXyXyX",
"yXyXi 3 3 7 > i 0 i b l Z Z Y ~.).).:.'.2.2.$X$X:Xd.f.w.u.I.D.D.F.x.tXtXe.e.>X>X>X-Xs.%X4.$X4.>.:.).).).[ /.) U T P Z n r w 1 1 ; & > : = % % % yXyXyXyXyX* ",
"> > > > > i 0 0 0 u c W.Z Z E ~.).).'.9.1.2.4.2.:Xd.h.+XI.z.Y.Y.b.3X1XtXe.e.>XZXZX=X=X=X X$X2.$X:.*.`.X.(./.] ` L P V Q.t y 1 1 ; ; > - % * * * yXyXyXyXyXyX",
"yX3 i > > > 0 3 r u V D K I W W | (.*.'.<.1.2.#X#X$Xd.d.I.I.U.b.T.T.D.x.h.y.ZXZX>X;X=X=X$X$X8.2.;.=.:.X.(.} ..` Y T J Z l k 3 1 6 ; 7 & = * - % % $ % X % X ",
"> i > > > 3 i i r u D c K L ~.~.(.(.`.:.1.<.2.2.2.*Xf.a.1X1XF.b.T.S.b.b.j.@X>XZXL.g.&X%X%X%X>.2.;.&.`.`.).(...` Y Y J A l t 3 3 3 6 > yXyXyXyX- % X % % % % ",
"yXyXyXyXyXyXu i u u D b I K _ [ $.$.`.=.>.;.2.2.<.p.&X&Xf.f.U.kXb.b.1Xl.@X@XZXZXg.g.&X&X*X*X8.:.#.:.>.8.].=.#. .^.` J U x V j j 9 7 ; ; ; ; - + * * X yXyXX ",
"yXyXyXyXyXyXyXyXc u D M K Y ] [ (.#.`.:.;.-.<.2.2.2.0.$Xf.&Xj.1Xb.D.l.I.@X@XZX>Xg.g.g.d.&X$X2.>.;.:.>.2.>.>.$.| _ ` T L x n 8 j 6 6 7 ; - ; % - * p * % p X ",
"i i yXyXyXyXyX0 W.x I V L U (.(._.].XXa.a.$X$X4.<.p.4.2.$X0.f.f.l.l.}.nXr.>X=XZ.g.g.$X4.2.>.2.8.0.$X8.0.0.0.8.|.M.(.~._ J P x x r 0 7 6 - 6 - - X $ X $ * $ ",
"> > yXyXyXyX> u c c Z V Y U `.9.].].a.a.&X&X$Xp.2.2.p.$X$X$Xd.g.l.l.nXu.@X@XZXr.g.&X$X4.1.>.8.8.0.a.XX X|.0.8.XX:.(.Q ~.J T j x r 9 6 7 ; - - - * X $ X * X ",
"7 7 > 0 i i 3 i c V I J ] ] 9.9.].]. XXXXXXX|.|.w.OX%X5.%X$X&X&XrXl.nXtXh.h.g.=X5.%X%X%Xd.s.a.a.XX0.XXXXXX8.|.[.K.].(.[ U _ T U l 8 7 6 ; - - - * X $ % * $ ",
"i 0 i > > 3 i 5 l c J Q.M...9.*XXXXXa.a.+Xw.+Xs.-X-X-Xq.%X$Xd.&XrXrXj.1X@X-X=X;Xq.=X-X-Xd.a.a.a.a. XXXXXXX X].XX].].6.6.U W !.!.r w 9 6 6 - - - $ X * X * p ",
"7 7 i 0 3 i 3 3 x x J Z M.] 9.*X XXXXXa.}.+X+X{.}.@X}.t.h.>X0XH.n.F.3X2Xj.j.kX:X>X@X=X=XOXs.|.q. X|. X[.[.[.[.].[.].].].[ [ U U w w 6 6 6 - - - $ X p * X * ",
"7 7 > > 3 > > u l c K Z M...9.XX8.XX.Xw.oXoX}.t.}.@Xt.@X>X-X1X0XF.S.2X3XH.j.kXh.@XZX-Xr.:X.Xq..Xq. X|.|.|.0.].[.].K.].].M.[ _ ` l w 9 6 6 6 - * % X $ * * % ",
"7 i 3 > < > i > l c P I [ [ q.|.8. XXX Xw.OX-X>XhXk.L.ZX1XD.x.S.n.dX8X8Xn.A.x.1X@X+XoXoX|.w.q.q.q.q.XX|.|.8.].>.[.[.].2.:.X.' /.n j 9 # 9 ; - 6 % % % % % X ",
"> 0 i > i > 5 3 m c P P [ [ {.4.9.XXa.a.q.OX@X@Xk.hXL.L.U.U.S.T.S.dX8X8XT.A.U.1Xy.y.}.oX.XoXr.r.XXq.{.|.|.[.[.].[.].0.8.:.X./.[ n n w 9 6 6 - 6 % % X % % $ ",
"> 0 3 > 3 > 3 3 x z L R [ [ >.3.K.K.{.K.r.r.t.i.hXhX,Xk.H.v.2X3XS.A.8Xn.T.A.F.D.l.tX&X;Xq.r.yXyXq.q.XX|.[.|.[.[.7.].]._.$.#.' ' Q.j r 9 6 6 ; - % % % X X X ",
"i > > 0 > < i i z x S P @.[ 3._.K.K.[.K.{.t.t.t.hXhXk.<Xv.v.3X3Xn.dXT.n.F.c.D.b.x.I.%X;Xq.-Xq.{.{.yXyX{.yXyXyXyX[.K.6.[.$.#.' ' n x 9 6 6 ; ; - % % % % % X ",
"3 3 3 3 > > u i z z K K ~.] (.(.].8.[.|.yXyXyXZX,X,X<X,X2X2Xn.n.8X8X8Xn.F.F.c.x.D.c.0X0Xi.,XyXyXi.r.t.{.7.7.{.[.[.[.|.6.&.$..._ z k w 9 6 8 8 - % % X % X % ",
"0 > yXyX> > 3 3 z z P K ~.~.(.).$.].[.[.q.r.=X=X,X,X<X<X2X2Xn.uXT.T.n.S.F.S.A.c.D.qXkX0Xi.,Xi.,Xi.@XyXyX{.{.[.[.K.[.>.].#.#.` ) k k 9 # : @ - - % % % X X % ",
"> 3 > 3 i i yXyXc r C n Y L (.(.&.>.4. X9X%X;X=Xt.t.u.z.BXn.P.uXP.P.x.D.b.2XF.F.qXv.0X0X,Xt.,Xi.ZXy.@X}.[.3.[.[.XX].>.$.[ /.U T r w 6 ; 6 6 - - * % % % % % ",
"3 > i 3 > yXyXyXr r m k A K /.[ | :.2.$X.X9X5.%X{.{.l.z.c.c.uXyXT.dXF.F.Y.2XF.n.z.Y.<X0X,Xi.t.i.@XZX@X{.[.7.[.C.|.>.:.#.] ` T J z # 6 6 6 - - @ yXyXyXyXyX% ",
"3 3 3 i > > 3 i 9 0 t b W.m Z T (.(.$. .#._.3.5.w..X|.}.nX1Xv.v.b.b.c.c.Y.qXv.H.H.<Xy.y.ZXi.sX,Xt.{.{.yXyX3.>._. .$.....K K l l w 9 ; 6 - - - $ yXyXyXyXyXyX",
"> > 3 > > i 3 > 0 yXyXd b W.C D _ ^.(.(.CX#.-.5.0.0.{.[.u.h.1Xv.b.v.n.c.Y.qXv.H.H.j.ZXy.ZXZX,Xt.{.[.C.[.[.7.]._.' [ ..) K K l k w 8 6 ; - - - - + % % % % % ",
"i 3 3 3 > > i 3 > i q r l l M W.C D 7X~.! J.lXlXr.r.L.=XkX,X,XZ.u.z.3X3X3XY.H.1X0Xg.:Xh.>X{.q.{._.%.@.@.lX[ ~ Q Q ` !.J W.l r w 6 6 - - - - $ p % p % % - % ",
"3 3 3 i > i > 3 > i 0 0 l l m W.V V ~ ( MX! %.%.r.r.=X=X,XyXyXyXj.z.2X2XY.b.z.z.j.>X-XOX+X{.3.5._.%.@.[ @.@.! Q U !.J Q.l t w 9 6 @ 6 6 - $ @ $ % % + % % % ",
"= > 3 > i < > < 7 > 0 0 u t d l 5 u G.G.eXeX( eXlXlXC.7.ZXL.ZXZXi.t.j.i.u.nXnXK.rX].7.C._.%.M.[ Y Y Y P !.MX!.P S S d t 3 3 3 > - 6 @ - - - $ % % p % p % + ",
"3 > > > > < i i > > 7 0 0 r t t u u ( 7XeXSXJ.6.7.6.C.7.r.r.Z.t.t.<Xu.u.nXu.nXK.].6._._.@.@.@.~ Y P P K MX!.S !.Q.Q.t r 3 < 1 & 6 - - @ $ - p - $ @ - - % - ",
"< i < i > i yXyXyXi > i 7 0 u 0 r 0 7X( ( ( 7X( SX( ( ( eXeXcXeXrXeXeXlXlX~ E E E H J.J.R E I T M M b M M f f M f y 0 0 7 > > ; 6 - - - - $ $ p $ % - + % + ",
"< > > > > > > > > 3 > > 7 7 4 3 HXAX( 7X( ( 7XM.SX( m.eXJ.cXlXeX7.SXeXeX6.eXE J.E H MXMXR R K Z B M N M h d e y 2 y 0 0 7 7 ; ; : - - - p @ % % + % + - % % ",
"i > yXyXyXyXyX> > > > > > i yXyXG.yXyXyXG.cXV.cXcXyXyXG.B ( / m.( ( ( / G H G G G F B M M B M f N h 2 f f 4 q 3 9 6 > 0 ; 7 : - - - % % $ yXyXyX% X yXyXyXyX",
"> > > > i > > > 3 i yXyX> 3 yXyXyXyXyX5XcXcXwXm.cXcXm.G./ m.G ( ( m.G G S N N S F G F B N N M d f f h a 3 2 4 < ; 9 & > 6 ; ; * - - % % % p % % % % yXyXyXyX",
"yXyXyXyXyXyXyXyXyXyXyXyXyXyXyXyX6X^ vXvXV.V.6XmX6XyXyXyXyXyXB B B B B M N N N N M h f f y aXaXaXB G vXB f 2 1 < 3 ; ; ; : - - - % % % % % % % $ % % % % * yX",
"yXyXyXyXyXyXyXyXyXyXyXyXyXyXyXyXAXwXmX^ mXmXV.^ mXyXyXyXB 5Xh N N h N h f f f d d d b f f f f f B B B 5XR.g 1 , ; ; & ; - : % % * % % % % % % + % % % - - yX",
"yXyXyXyXyXyXyXyXyXyXyXyXyXyXyXyXbXyXyX^ bXbXyXyXyXyXyXyXyX6Xf f g f f f f f d f a f f f f a f R.h a a s E.g s 3 & , % & > - - % % $ % % $ % $ % * - % * yXyX",
"yXyXyXyXyXyXyXyXyXyXyXyXyXyXyXyXyXyX^ bXvXbXyXyXyXyXyXyXyXyXyXf f f g q 4 f 2 2 aXaXa 2 aXaXh h a a a a g g s 5 , o ; yXyX- - - % % % % + % yXyXyXyXyXyXyXyX",
"yXyXyXyXyXyXyXyXyXyXyXyXyXyXyXyXE.yXyXyXvXyXyXyXyXyXyXyXyXyXa N.5 4 5 2 3 2 B.a f s a a a h R.R.R.h s iXs s s s o @ % ; - = - % + % % $ % + yXyXyXyXyXyXyXyX",
"yXyXyXyXyXyXyXyXyXyXyXyXyXyXyXyXyXyXbXbXbXbXyXyXyXyXyXyXR.R.4 B.jXjX3 < < < 4 4 g 4 2 4 a h R.vXs yXyXyXFXB.5 E.. @ & - - - % yXyX% % % % % $ X * p % p X yX",
"yXyXyXyXyXyXyXyXyXyXyXyXyXyXyXyXyXyXyXyXyXyXyXyXmXyXyXyXyX< < < = O O o yXyXB.3 3 B.B.5 B.s g E.a a a yXyXyXs yXyXO % % * % % % $ yXyXyXyX* - % % % % % % % ",
"yXyXyXyXyXyXyXyXyXyXyXyXyXyXyXyXyXyXyXyXyXyXyXyXyXvXs B.< B.< < O O o X o o < < < < < B.B.a g yXyXyXyXyXyXyXyX< O = & & * * % % % yXyXyXyX* % % yXyXX yXyXyX",
"yXyXyXyXyXyXyXyXyXyXyXyXyXyXyXyXyXyXyXyXyXyXyXyXyXg B.N.= < * O O X X X X % & & = & yXyXB.5 s s s s iXs s 5 B.< yXyX% ; % - % % * % % % % * yXyXyXyXyXyXyXyX",
"yXyXyXyXyXyXyXyXyXyXyXyXyXyXyXyXyXyXyXyXyXyXyXyXE.FXN.O yXyXyXyXX 4X4X4X.   X % % & O O N.< 4 yXyXyXs s B.B.N.o o @ ; & * % * % - % % % % % % yXyXyXyXyXyXyX",
"yXyXyXyXyXyXyXyXyXyXyXyXyXyXyXyXyXyXyXyXyXyXyXyXjXN.& o & % yXyX  + 4X4X    + + X + = % & & , B.5 yXyX5 < , & . .   % - = * % % % yXyXyXyX* yXyXyXyXyXyXyXyX",
"yXyXyXyXyXyXyXyXyXyXyXyXyXyXyXyXyXyXyXyXyXyXyXyXyXo o & % yXyXyX+ % % % yXyX+ +   +     X . yXyX< yXyXyXyXo yXyXpX  - = - % % % yXyXyXyXyX- % yXyXyXyXyXyXyX",
"yXyXyXyXyXyXyXyXyXyXyX> > > > yXyXyXyXyXyX. . . o . . + @ 4X  % yXyX= > @ & - yXyX4X4XyXyX+ - & > = % & & + + + pX4X* = % % % % - yXyXyXyX- yXyXyXyXyXyXyXyX",
"yXyXyXyXyXyXyXyXyXyXyXyXyXyXyX> yXyX      pX. yXyX+ & % yXyXyX4X= > - - - = - pX% % % pX    + - % X . + .   . .   X % % % % % $ % yXyXyXyX* yXyXyXyXyXyXyXyX",
"yXyXyXyXyXyXyXyXyXyXyXyXyXyXyXyXyXyXyXyXyX  yXyX> > = = > > 3 > yXyXyXyXyXyXyX& - -   4X4X4X4X4X4X4X4X4X4X4X4X4X4X% % - % % % yXyXyXyXyXyX* % % yXyXyXyXyXyX",
"yXyXyXyXyXyXyXyXyXyXyXyXyXyXyXyX= > i > & % yXyXyX> 3 > > > > > > > > > - = > > & - % % 4X4X4X4X4X4X4X4X4X4X4X4X4XX yXyX% * yXyXyXyXyX% yXyXyXyXyXyXyXyXyXyX",
"yXyXyXyXyXyXyXyXyXyXyXyXyXyXyXyX3 yXyXyXyXyXyXyXyXyXyXyXyXyXyXyXyXyXyXyXyXyXyXyXyXyX% 4XyXyXyXyXyXyXyXyXyXyXyXyXp yXyXyXyXyXyXyXyXyXyXyXyXyXyXyXyXyXyXyXyXyX",
"yXyXyXyXyXyXyXyXyXyXyXyXyXyXyXyXyXyXyXyXyXyXyXyXyXyXyXyXyXyXyXyXyXyXyXyXyXyXyXyXyX* * % yXyXyXyXyXyXyXyXyX4XyXyXyXyXyXyXyXyXyXyXyXyX* % % % % % yXyXyXyXyXyX",
"yXyXyXyXyXyXyXyXyXyXyXyXyXyXyXyXyXyXyXyXyXyXyXyXyXyXyXyXyXyXyXyXyXyXyXyXyXyXyXyXyX* = yXyXyXyXyXyXyXyXyXyXyXyXyXyXyXyXyXyXyXyXyXyX* - yXyXyXyXyXyXyXyXyXyXyX",
"yXyXyXyXyXyXyXyXyXyXyXyXyXyXyXyXyXyXyXyXyXyXyXyXyXyXyXyXyXyXyXyXyXyXyXyXyXyXyXyXyX- yXyXyXyXyXyXyXyXyXyXyXyXyXyXyXyXyXyXyXyXyXyXyX* % % - yXyXyXyXyXyXyXyXyX"
};
