/* XPM */
static char *_a20353eb8434bd2f1c2a8740e7404e78vAgghH6n4FzEMlb_27[] = {
/* columns rows colors chars-per-pixel */
"78 86 256 2 ",
"   c #221D1D",
".  c #271D1A",
"X  c #24221D",
"o  c #2B231D",
"O  c #2A291D",
"+  c #231E21",
"@  c #291D28",
"#  c #321B36",
"$  c #1B2C29",
"%  c #252425",
"&  c #2A2524",
"*  c #252926",
"=  c #2A2925",
"-  c #262529",
";  c #2A262B",
":  c #26292A",
">  c #2B2A2B",
",  c #332523",
"<  c #342A24",
"1  c #33252C",
"2  c #3B242C",
"3  c #322A2D",
"4  c #3B2B2B",
"5  c #3B312A",
"6  c #2C2532",
"7  c #2D2A32",
"8  c #2B2638",
"9  c #322634",
"0  c #332A34",
"q  c #3B2B34",
"w  c #34253B",
"e  c #3A253C",
"r  c #352B3A",
"t  c #3A2B3C",
"y  c #3C2433",
"u  c #383138",
"i  c #283332",
"p  c #1D1F20",
"a  c #432B2A",
"s  c #46352B",
"d  c #442A3B",
"f  c #462837",
"g  c #493735",
"h  c #522E37",
"j  c #381C4A",
"k  c #3B2543",
"l  c #3C2B43",
"z  c #392747",
"x  c #3C2653",
"c  c #342E47",
"v  c #4A1C52",
"b  c #432B44",
"n  c #43254C",
"m  c #432B4B",
"M  c #492947",
"N  c #542A48",
"B  c #573748",
"V  c #452B53",
"C  c #4B2C54",
"Z  c #4C2B5B",
"A  c #532C5C",
"S  c #552857",
"D  c #4A3256",
"F  c #573358",
"G  c #653857",
"H  c #692E54",
"J  c #4B2865",
"K  c #542B63",
"L  c #5B2C6C",
"P  c #572768",
"I  c #583367",
"U  c #5A2976",
"Y  c #5B3375",
"T  c #4C306C",
"R  c #652969",
"E  c #663569",
"W  c #632C7C",
"Q  c #662A78",
"!  c #752A79",
"~  c #763679",
"^  c #6A5446",
"/  c #694657",
"(  c #764A6B",
")  c #5B2C85",
"_  c #6B2C84",
"`  c #662886",
"'  c #752B8A",
"]  c #6A3387",
"[  c #763489",
"{  c #6C2A94",
"}  c #742C9B",
"|  c #7B2C9C",
" . c #792897",
".. c #6B3395",
"X. c #7C2CA3",
"o. c #7929A7",
"O. c #772CB0",
"+. c #6D1D92",
"@. c #863789",
"#. c #842B9A",
"$. c #863599",
"%. c #8F2D8C",
"&. c #832CA4",
"*. c #832CAB",
"=. c #892BA9",
"-. c #952AA9",
";. c #8C33AB",
":. c #8836A8",
">. c #9638AA",
",. c #882CB5",
"<. c #952DB7",
"1. c #8C32B3",
"2. c #9737B7",
"3. c #A639A8",
"4. c #A53AB9",
"5. c #B12FB3",
"6. c #924892",
"7. c #AA4E99",
"8. c #9B44B6",
"9. c #8D49AB",
"0. c #A646B7",
"q. c #B74BB7",
"w. c #B453BC",
"e. c #B965B8",
"r. c #C64BB8",
"t. c #CF53B4",
"y. c #C665B9",
"u. c #CD6FB4",
"i. c #DA5BB3",
"p. c #A539C5",
"a. c #B453C3",
"s. c #BC54C4",
"d. c #BB57C8",
"f. c #BB67C5",
"g. c #C857D4",
"h. c #C865C6",
"j. c #D370CD",
"k. c #ED4FE8",
"l. c #CD8BB8",
"z. c #E991D2",
"x. c #D2AFCF",
"c. c #E5B8C9",
"v. c #F9A8E7",
"b. c #EEB0EC",
"n. c #EBCBD4",
"m. c #774A57",
"M. c #774590",
"N. c #35281D",
"B. c #3B2C24",
"V. c #74554A",
"C. c #A83595",
"Z. c #CE37CD",
"A. c None",
"S. c #D9B9D5",
"D. c #E7A9D8",
"F. c #E6B7D7",
"G. c #785655",
"H. c #F392EC",
"J. c #753469",
"K. c #AA54A9",
"L. c #D44ED2",
"P. c #D1B6B7",
"I. c #C987C7",
"U. c #DAA3E3",
"Y. c #F8B6D8",
"T. c #D4C4CF",
"R. c #533B39",
"E. c #514334",
"W. c #473248",
"Q. c #472557",
"!. c #521C6A",
"~. c #673378",
"^. c #6C2B8B",
"/. c #732C94",
"(. c #783397",
"). c #7B33A5",
"_. c #963899",
"`. c #8332A4",
"'. c #8934B7",
"]. c #9945A8",
"[. c #A749AA",
"{. c #B54BAA",
"}. c #B656AA",
"|. c #AC4CB4",
" X c #AC4CBB",
".X c #B34DBC",
"XX c #AC53B7",
"oX c #B453B4",
"OX c #BB53BC",
"+X c #B958B7",
"@X c #C557BA",
"#X c #9935C4",
"$X c #AA46C4",
"%X c #B74AC6",
"&X c #B350CD",
"*X c #9C45C4",
"=X c #C64BC7",
"-X c #C354C4",
";X c #C355CB",
":X c #C45ACB",
">X c #C859C7",
",X c #E94FD2",
"<X c #E96ED3",
"1X c #D48ECF",
"2X c #FAB7E6",
"3X c #F6CDE9",
"4X c #1D1C1C",
"5X c #5B4546",
"6X c #684A46",
"7X c #5F4F64",
"8X c #ECDBE0",
"9X c #B234CA",
"0X c #F471EB",
"qX c #F3ACD1",
"wX c #6F4F50",
"eX c #884C72",
"rX c #B16899",
"tX c #B98DC9",
"yX c #BAC5B2",
"uX c #DFC4B5",
"iX c #68431E",
"pX c #1A1817",
"aX c #381C29",
"sX c #CE28AC",
"dX c #D8C3C8",
"fX c #BAB0A7",
"gX c #D1C5B7",
"hX c #E839DD",
"jX c #3A2425",
"kX c #D657E4",
"lX c #8A3275",
"zX c #2F2B5C",
"xX c #B425CF",
"cX c #835558",
"vX c #594739",
"bX c #69503A",
"nX c #B46BAC",
"mX c #64493A",
"MX c #6B1B64",
"NX c #B88AB4",
"BX c #E3AAB7",
"VX c #4D1732",
"CX c #9B1998",
"ZX c #D658C7",
"AX c #534652",
"SX c #8E626C",
"DX c #922EC4",
"FX c #342F19",
"GX c #513398",
"HX c #37444E",
"JX c #971A60",
"KX c #611828",
"LX c #341419",
"PX c #B91242",
"IX c #170617",
"UX c black",
/* pixels */
"A.A.A.A.A.A.A.A.A.A.A.A.A.A.A.A.: > = = 1 < & 1 = O > - 6 6 6 9 1 2 aX# y aXaXaX# # 8 8 $ $ p 8 $ $ p 8 + % % - - - % @ % % @ % % % % % % % + % % p % p % p ",
"A.A.A.A.A.A.A.A.A.A.A.A.A.A.A.A.> : > 3 1 1 < < = = > 3 r 8 9 9 3 3 aXVXy # aX# # # @ @ 8 $ $ 8 p $ p p $ - $ p + - @ & % @ @ % % % % % % + + - + % p - + A.",
"A.A.A.A.A.A.A.A.A.A.A.A.A.A.> : i * $ $ : : > * O * = * i : : i KXKXKXKX# 6 j # $ 8 $ @ @ 8 p p p $ 8 p - % $ % - + % % % + & + A.A.A.A.A.+ + - p % - - + % ",
"A.A.A.A.A.A.A.A.A.A.A.A.A.A.A.A.$ i $ $ $ $ i * * * = * $ : : $ KXPXKXKXe j c j 8 8 8 $ 8 p $ 8 $ 8 p $ p - p p @ - % @ @ - & @ A.A.A.A.A.A.A.A.- A.A.A.A.- ",
"A.A.A.A.A.A.A.A.A.A.A.A.A.A.A.A.> > $ i $ $ $ * O < jXaXjX1 : > KXKXJXKXN N n Q.$ 8 8 8 # # $ - p $ p - p - $ @ % @ @ A.A.% @ & % % % % % A.A.A.+ % + p - % ",
"A.A.A.A.A.A.A.A.A.A.A.A.A.A.A.A.& % $ $ $ $ : : N.< jXLX2 1 > > KXPXKXKXv N C Q.8 8 c j aX# 8 - p 8 $ @ @ $ @ $ & % % - % @ % + A.A.A.A.A.A.A.A.+ % % + + % ",
"A.A.A.A.A.A.A.A.A.A.A.A.A.A.A.A.aXa > > i i , 1 a VXKXKXVXVXa y KXKXKXN MXMXJXMXk k j VX# aX8 @ 8 p @ $ $ p - @ @ & @ @ @ & - @ A.A.A.A.A.A.% % % + + - A.A.",
"A.A.A.A.A.A.A.A.A.A.A.A.A.A.A.A.a B.> > $ $ 1 , VXaXKXLXVXVXVXy h VXMXKXMXMXCXJXk j y # VXaX6 : $ $ $ @ @ $ @ $ & @ 1 @ & @ ; A.A.A.A.A.A.A.+ % % $ - p % A.",
"A.A.A.A.A.A.A.A.A.A.A.A.A.A.A.A.2 aX> : : : 1 1 KXVXVXKXVXVXf M x HXP L C.sXPXCXKXv VX9 > ; 2 aX* * % O $ p - - # 6 8 # - 6 X O A.A.A.A.A.A.A.A.$ % A.A.p % ",
"A.A.A.A.A.A.A.A.A.A.A.A.A.A.A.* aXaX; > : $ 3 6 LXVXKXKXVXVXd W.zXzXL P C.C.JXJXMXKXw y 7 > y aX: * X = % @ - 6 # 6 8 r 6 6 O o A.A.A.A.A.A.A.A.A.+ % % - + ",
"A.A.A.A.A.A.A.A.A.A.A.A.A.A.A.A.A.> $ 8 $ $ i : VXaXVXf f f c V !.!.! MXsXsXsXJXS Q.c 8 8 8 6 9 : 6 & & * - # 6 j j x zX6 1 o . A.A.A.A.A.A.A.% - + % + % A.",
"A.A.A.A.A.A.A.A.A.A.A.A.A.A.A.A.> 7 $ $ i i i i VXa f VXf d c V v !.lXA.A.sXJXCXA V c c 8 i 9 9 6 : > > - = w 6 8 z x D 9 & O O A.A.A.A.A.A.A.A.+ % + - - p ",
"A.A.A.A.A.A.A.A.A.A.A.A.A.A.A.: : : i : 7 > 0 7 0 q 5 u t l x c P R ' %.[.3.[ [ K J c c c c w 9 8 7 7 3 > 1 9 9 zXT T ) # j O O A.A.A.A.A.A.A.A.- + - + % + ",
"A.A.A.A.A.A.A.A.A.A.A.A.A.A.A.: ; > : i 7 i 0 0 0 r u u l W.D HXP L ' %.].>.....I K x z c c w e 8 0 3 0 3 ; w w ) T T !.8 8 O X A.A.A.A.A.A.A.A.p % % + + % ",
"A.A.A.A.A.A.A.A.A.A.A.> > & > - 3 1 y 9 f y d f d d b W.M C A P P Y ) ` ..M.GXGX! MXJ J c m t t r y 0 0 9 9 # 8 ) GX!.zX8 j O X - + % % - % - A.A.A.p - + A.",
"A.A.A.A.A.A.A.A.& > & > > > > > 9 3 e y f f d b g d h W.N B L E U T ) ) ) GXzXGX! ! T P x z l l e e 0 4 7 6 j 8 A.A.zXzX8 8 O O - % % % % % A.A.A.A.+ A.A.A.",
"A.A.A.A.A.A.A.A.A.; A.A.3 ; 0 > 0 3 r r t t W.W.GXT GXT T Y R R I L E ~._ ! _ ' O.GX) ) S Q.f h d q q 4 e w w w 0 0 7 - 6 6 = - - - + % p - % A.A.A.A.A.A.A.",
"A.A.A.A.A.A.A.A.A.A.A.A.; A.A.; 7 7 u u l l W.W.) ) ) ) E Y E J.I I Q ~._ ! ' @.O...) ) F S h f d d q 0 t r e w y 9 7 ; 6 ; & % - - A.A.A.A.A.+ % A.A.A.A.A.",
"A.A.A.A.A.A.A.A.A.; ; 3 0 > 9 0 9 r t l c V D Z ) ) ......] [ [ _ ] [ [ #.| &.=.O.).(.{ ! R MXH S n b b t l r r 7 7 7 > - % - % % p % + + - + A.A.A.A.A.A.A.",
"A.A.A.A.A.A.A.A.& 3 > ; 3 9 9 0 9 A.A.l W.W.A.A.) ) ....M.] [ @.] ] [ (.(.$.&.=.O.O.(. .J.MXJ.MXF C M b l t 0 9 9 7 > > - - - % % % % % p - A.A.% A.A.A.A.A.",
"A.A.A.A.A.A.A.A.3 ; 3 > 3 0 3 3 r u b W.F D U Y ..] (.(.$.(.`.$.$.| `.:.;.=.-.;.:.*.#.| lXJXJXMXR P S C k e 9 r 0 6 > ; ; - - = - % % % - p + - + A.A.A.A.A.",
"A.A.A.A.A.A.A.A.A.; ; 0 0 3 0 0 r t C B I D L ~.] ..} (.(.).$.#.(.$.`.:.;.;.1.;.'.*.&.#.CXlX! JXR R A S b l r r 7 7 7 > > - - - - + + % + % % p % A.A.A.A.A.",
"A.A.A.A.A.A.A.A.A.3 > 3 ; 0 0 r d b C D L I _ ] (.`.=.,.:.=.&.&.=.;.1.1.-.<.<.=.=.=.=.&.CX%.JXCX! Q L S C m r r 9 9 6 ; & - - % % % - + % + + A.A.A.A.A.A.A.",
"A.A.A.A.A.A.A.A.; 3 ; ; 3 0 3 u u W.C D L ~.' ^.).).*.*.&.`.&.=.;.1.1.<.2.<.<.<.<.-.=.=.CXCX%.JX_ ! L L D m t r 9 9 6 6 ; % - - % % - - + - % + A.A.% A.A.A.",
"A.A.3 > 3 > > > 3 > 0 > 3 0 r r t g Z F ` W X.o.(.).).).*.*.=.;.<.<.<.xX<.<.<.<.'.'.O.'.O.).' @.~ ! E R D W.t 0 r e 1 1 ; ; - - * * - - % % % A.A.A.A.A.A.A.",
"A.> > > > > > > > > > 3 3 i u u b W.F F W ] o.o.} (.).:.1.1.<.<.DXDX#X#XDXxXDX,.'.'.'.'.*.:.%.[ ' ' ~.R F D d q r 9 3 1 ; - - - & % % + - + % % + * A.A.A.A.",
"A.A.A.3 A.A.A.A.3 i 7 > > u l u W.D Y Y ^...O.O.1.1.'.1.<.1.<.'.<.<.#X<.<.5.p.5.'.*X*X'.1.*.| #.[ ' ~.~.I A C m e e 9 # ; ; = - - - - % - + % + A.A.% + + p ",
"3 3 > > 3 3 i > > > > 0 u u u u D F E I /./.,.,.*.'.'.1.'.<.'.2.p.p.p.p.9Xp.9X#XDX'.DX'.,.,.#.`.' @.~ W E F V M b y 9 9 9 ; = - * * A.A.A.% % % A.A.A.A.A.A.",
"> A.A.< > 3 > > A.A.3 3 0 5 l W.B F ~.~ | | *.,.,.DX<.<.DX#XDXDXp.9Xp.9X9X%Xp.$X#X2.DXDXDX,.'.*.#. .[ _ Q L A Q.M k 9 9 , ; ; ; > = - - % % % + - - - A.A.A.",
"3 > > > > > 3 > > 3 3 i u u u l F F Q ~ | `.'.,.<.,.A.A.#X2.'.'.DXp.$X&X%X%X9Xp.#X2.DXO.DX'.'.O.#.| [ ' ~.R A S M d 9 9 ; 1 > - - - - * % % % A.A.A.A.A.A.A.",
"= > > > > > > > > i 3 3 t u m W.F G _ [ | `.1.'.DX'.2.2.<.<.4.5.9X4.%X%Xq.%Xs..Xp.2.#X'.'.DXDXDX&.#.[ ' ~.R P S Q.n t y 9 9 6 6 A.A.A.A.% + % % % A.A.A.A.A.",
"A.A.< > i < i 3 0 i 3 u r u l V B G ! [ `.`.1.'.'.#X#X#X4.#X4.p.%X=X9X%X=Xs.%X9X2.2.DX#X'.DXDXDX#.#. .' ! Q P P S n d y 9 9 ; 9 - - - A.A.A.% % % % - % % % ",
"i > > < 0 > > > 7 0 7 u l c V Z W W [ _ :.| 1.:.<.<.2.p.p.p.$X%X%X;X>X-X;X=X0.%X4.4.<.2.DX'.DX,.DXDXO.O.[ _ E R B M d d t e 9 6 ; A.A.- * * % % % % p % $ + ",
"< < i A.A.3 i 0 > i 0 u l c D D W Q _ W `.} 1.'.<.#X#Xp.$X&X%X&X;X;XZX>X:X-X5..X%Xp.#X<.#XDX,.,.DXO.,.O.[ [ E R F B W.d l e 9 8 ; > > - - = - - % % X % X % ",
"> > > > > i 7 > 0 u i c l V Z I Q Q [ ' 9.:.*X8.2.p.$X$X%X&X:Xd.s.s.+X+X:X:X&Xg.=X9X2.4.'.#X,.,.,.,.*.O.(.(._ U I I S C x k z w ; 9 > ; - - * = % % % $ A.A.",
"A.A.A.> A.A.> > 0 8 u u x x T T Q U ' _ 9.:.*X*Xp.$X$X9X%X&Xh.kX-XOX@Xh.:Xh.g.g.=X9Xp.4.2.<.'.,.,.,.1.*.(.[ ] W E K A C b x k w 6 6 6 > = - % % A.A.A.A.A.A.",
"A.A.A.> A.A.A.A.i i r l x D T I ! [ 6.].XXXXd.&X0.4.0.4.0..Xs.:Xd.:XH.H.f.f.d.g.=X%Xp.4.2.<.'.<.=.*.>.8.].;.#.%.^.` U U J x zXj 6 0 6 ; - - % % % % + % % % ",
"A.A.A.A.A.A.i > r u r r D x K T ! ~ 6.6.XX8.&X$X$X$X$X4.4.4.s.:Xf.d.b.H.d.h.g.:XL.9X9X4.<.#X2.#X2.1.1.9.>.:.$.| ..^.U U Q.J zXj r 9 7 ; - - % % % % % $ $ A.",
"A.A.A.< > > 7 > 7 u c l D V P T 6.6.K.K.w.|.a.d.s.s.s.%X.X.XOXh.d.y.1X1X-Xj.j.g.g.g.&X9Xp.p.#X*X8. X0.|.|.8.[.|.;.#.{ ^.!.U !.J r 9 6 6 ; ; % - % % % % % % ",
"A.A.< i A.A.> i 8 r l c Z V Y Y 6.6.K.].XX].%Xs.&X&X;Xs..X Xw.-Xf.h.<Xz.>X>Xg.:Xg.A.A.A.p.$X*X*X$X$XXX$X X0.XX8.8.:.{ ) ) !.!.x r r 6 6 6 ; - % % % A.A.A.A.",
"A.> A.A.A.A.> i r 0 c c I J Y U ].K.K.9.XXK..Xw.OXOX-XOXOX.XOX%X:X:X:Xd.h.-X-X:Xg.g.%Xp.$Xp.$X&X$Xa.w. X X X XXXXXXXK.9.9.9.P W l r 7 6 6 A.A.- % + % $ X $ ",
"> > > > > > > > i 8 x m T Z Y ) 9.K.K.K.XX|.w.w.OXOX@Xs.-X%X%X%Xd.d.d.a.-Xh.d.:Xg.%X%X4.$X$X$X&Xa.a. X X XXX XXX8.].].6.6.M.U U l r 9 7 : ; * - % % % % % % ",
"i i 0 7 > 0 7 > 0 u x c Z J ] M.XXXXXXXX|.w.oXOXOXOX@X-X-X;X-Xs.a.%Xf.d.f.f.a.f.%X%X%X;Xd.d.s.s.a..Xw.|.XX|.[.8.].8.[.K.].].W W m k r 0 6 A.A.A.% $ % % % % ",
"0 7 7 7 i > 3 i 7 u c D J Q...] XXXXXXXXoXOXoX@XOXOXOX@X;X:X:Xs.a..Xd.e.a.+Xa.g.%X=X%X;Xd.&Xa.%X.Xw. XXX|.|.0.[.K.[.].].].]._ ^.m k 0 0 6 6 - - % % % + $ % ",
"7 7 7 7 0 0 > i 7 0 z c T J ..M.XXK.K.K.w.OXw.OXOX@X+XOX-X>X:X:Xd.h.f.f.j.j.OX>X=X>X:X-XA.A.OXq.OXq.q.q.XX|.|.|.]._.[.[.[.8.} } n n r w 6 ; - - p - % % % % ",
"A.A.7 0 > i > 3 0 r z x K T [ [ 8.8.|.XXoX+X+XoXq.q.r.OX-X:X:X-Xw.w.&Xf.j.U.s.g.ZX@X-X-Xs.s.%XOXOX.Xq.q.q.oX|.[.[.[.].].8. X}  .Q.n r w 7 6 - - - - % % % % ",
"i > A.A.i > 3 > 7 i z x K P [ ] ].K.8.XXw.oXq.{.q.oXq.OX-Xs.-Xf.f.d.U.H.b.b.kXj.+X@X+XoXs.a.r.=Xr.q.q.q.|.{.|.[.[.[.7.[.].[. .#.n n e e 9 6 - - - % % $ % % ",
"> 0 A.A.A.< i > 7 7 z z P P [ ] 6.9.[.[.|.q.q.{.{.w.r.OX-X;Xs.s.XXf.j.U.b.b.<X1Xj.h.oXw.%Xd.-X@Xr.q.q.q.|.[.[.|.[.[.].[.[.3.' #.n n 9 9 A.A.A.- % * p % % % ",
"0 0 > i i 3 3 i 3 i k c A P ~.[ #.#._.7.7.{.t.@Xk.hX,XhXZXZXsXr.l.l.n.n.T.T.x.b.y.y.oX+X.Xs.=Xr.q.q.q.{.|.{.[.].7.[.7.].:.`.} { n k 9 9 6 6 - @ A.A.A.A.A.A.",
"A.> 3 3 > > > > i 3 c l !.S ~ [ CX+.%._.7.7.t.i.A.A.sX,X=X,XZXZXrXBXn.A.n.T.U.3Xy.h.y.y.|.q.q.r.q.q.q.A.A.A.A.A.7.[.].].:.#.{ { n k 9 9 9 @ - - % @ A.A.A.A.",
"A.A.> 3 3 3 > > 3 3 u c Q.Q.L Y ,.,.DX,.3.[.}.rX,Xi.,Xi.j.kXh.h.BXuXA.A.dXdXgXT.l.I.g.s.A.A.q.r.q.q.|.{.0.A.A.0.[.[.9._.(.{ ) U e w 3 # ; ; - % % - * % % % ",
"A.A.A.7 i 3 i > 3 i l l Q.Q.P L ,.,.,.,._.>.rXi.i.i.i.,XL.j.ZXy.uXBXn.dXgXgXgXuXI.I.s.s.r.=X{.sXq.{.{.|.|.|.A.A.A.].$.$./.) ) T k w 1 9 6 @ - @ @ + % % % $ ",
"3 > > A.A.A.i 3 0 i r u l k Z A O.O.O.o.$.%.4..Xr.t.i.j.<Xj.0XkXn.n.n.n.P.P.gXyXBXD.0X<XA.A.i.<Xt.{.{.{..X0.xX<.`.&.....I K b b e 9 9 6 - @ + $ A.A.A.A.% A.",
"A.3 3 3 3 i i > > > 0 r m k C A O.O.O.+.@.%.>.-.C.r.u.<Xj.i.kX<Xn.n.n.BXP.P.fXgXx.Y.ZXkX,XA.A.<Xt.r.{.{.q.4.<.-.| | ..{ I J b e w 9 6 ; - 6 A.A.A.p % % % A.",
"A.A.A.A.3 > > > i 3 0 0 u t b W.R R ^._ ).o.=.*.5.9X=X9Xr.5.r.r.l.NXz.z.qXqXP.c.3X2XZXZXk.<XZXZXi.t.{.3.4.4.DX,.` ` U T W.b 4 3 6 9 6 6 - - - % p + - A.A.A.",
"A.A.A.A.A.3 i > 3 > i 0 t q l W.!.R ` ^.o.o.=.=.-.5.5.5.5.sXt.t.l.l.D.qXY.n.P.P.2X2XZXZX,X<Xt.ZXZXi.5.C.<.-.<.=.` ) J J b t 4 3 6 6 @ @ - - % p % % + - + A.",
"A.A.A.> i < < i > i 3 > 0 0 l u M W.F G ! _ #.+.o.CX-.-.5.9XZ.kXZXZXz.u.qXD.2Xv.z.<Xi.u.j.ZXr.r.p.4.2.-.@.' ] ~.!.Q.V z r 0 6 6 1 ; @ ; - @ + % % % % % + % ",
"A.A.A.3 3 i > > > 3 > 3 0 0 t l b M F F Q W =.-.,.<.<.<.5.xXxXhXkXL.z.z.F.A.A.2Xz.<Xi.i.>X@X5.sX0.4.>.>.' ' ~.Q A !.l k r 3 w 6 ; # 6 @ - - - - % % % - % % ",
"> i > > < > > > 0 > 0 i 0 7 0 u f g M C v S H KXCXlX4.5.xXxXxXxXr.,X<Xu.z.BXH.z.j.j.{.q.q.3._.>.#.%.! Q R P C S b n e t 8 8 6 6 ; ; ; % - - % + A.A.A.A.A.A.",
"> < 5 A.A.> i 5 > > i > > 7 q q a 4 D D v H H H ! lX#Xp.hXxXhXxXZ.Z.<X<Xl.l.z.<XZX>X{.[.3.>.%.>.@.' ! ! P MXM n e e w w 8 8 8 8 , @ - @ - % % % A.A.A.A.A.A.",
"> > > > > > > > i > > > > 7 0 3 2 y 6X6XmXcXm.m.J.cXcXeX[.>.9Xp.5.5.t.r.i.u.rXrXK.K._._.lX@.~.M.!.v !.S S M f y w w 8 8 8 8 8 7 ; @ % % % % % % * % % % X % ",
"i < < A.A.A.> > 3 > 3 > > > 0 3 # 9 wXwXV.cXm.m.cXH JXeX3.0.p.xXsXsXt.r.rXi.u.rX7.7.%.%.@.@.~.] S MXv MXM v y 2 8 w 6 6 8 8 - 8 & ; @ % % + % % % % % % % % ",
"> > > > A.A.A.A.A.A.i 3 > > > 4 5 B.G.m.H cX5Xm.^ ^ ^ ^ ( ( eX( 6.6.lX~ cXH KXH R ~ MX~ I E F AXN f VXn b d e w 8 9 6 6 - 8 : 8 % & % % % & % % % % X % % % ",
"> > i > > > > > > > A.A.A.A.& 6 5 s ( G.G J.^ G.G.^ / AXE ( J./ 6.rXeXlXJ.eXH 6XR R R A.A.E c m n n n f y y w w 6 7 6 : 8 - 8 - & % % % % A.A.A.% % % % - * ",
"> > > > i 3 > > > > > > > > > > wX^ ^ ^ V.V.^ cXV.V.6X/ B / B / G./ E G N N N N B B W.d b W.f f f d jXd 2 1 1 1 9 ; 6 6 6 6 - - - % % % % % A.A.A.% % % % % ",
"A.A.A.A.A.A.A.A.> > > > > > > > wXA.vX5XV.V.bXV.G.G.6XwXB 6XB B G G B N N N N N F F B W.h W.d d d f f 4 1 1 3 1 ; 1 ; ; : ; ; - - % % % % % % % - * % A.A.A.",
"A.A.A.A.A.A.A.A.A.A.A.A.A.A.A.= ^ 6XvXvXbXbXbXbXmX6X6X6X5X5XB B B B M h f M f M f y 2 y 2 # aXy B B B R.4 2 , ; 1 & ; ; ; - - % A.A.A.A.A.A.A.A.A.A.A.A.A.A.",
"A.A.A.A.A.A.A.A.A.A.A.A.A.A.A.* 5XbXmXmXvXbXvXbXmXbX6XwX5XB g f d h d d d f d f d d f y 2 2 2 q h B vXB g a 1 @ @ & - ; ; - % % % % % % % % % % % % % % % A.",
"A.A.A.A.A.A.A.A.A.> > > > > > - vXbX^ bXbXbXbX^ V.G.V.wXR.R.a 2 a f y q f q 4 2 2 2 2 a 2 2 s a s a s s R.g 5 < , @ & & - = - - % % % * * % % A.A.% % % %   ",
"A.A.A.A.A.A.A.A.A.A.A.A.A.A.- = E.A.A.A.A.E.bXbX^ V.V.V.R.R.a 2 4 4 q 2 2 2 2 3 jX, jX, jXjXa a h s a s g E.g 5 & LX& & & % % A.A.A.A.A.* - A.A.A.A.+ % % % ",
"A.A.A.A.A.A.A.A.A.A.A.A.A.A.> = vXiXbXbXiXE.iXE.bXbXvXA.A.R.2 < jX< < < , , < 5 s 5 s 5 B.s g R.h s s s s s 5 s @ o & @ - - % + % * % % % % A.A.A.A.A.A.A.A.",
"A.A.A.A.A.A.A.A.A.A.A.A.A.A.- * A.A.vXbXbXE.bXE.^ bXvX6XvXvXB.< , < , & , & < < q B.2 < a a R.R.A.A.E.A.A.5 A.A.A.o @ ; ; % & % % O % % % % % % * * A.A.A.A.",
"A.A.A.A.A.A.i = > = > > > > > * A.A.A.vXbXA.A.A.vXvXbXE.5 jX< < FXO X X O O O < < < B.< N.s s g s N.B.A.A.E.5 s O o - A.A.- A.A.A.A.A.A.A.A.A.A.* % * A.A.A.",
"A.A.A.A.A.A.A.A.A.A.> > - * % % 5 E.E.vXbXbX^ ^ vXA.A.a B.N.A.A.A.FXO O O $ = O > < N.< N.FXs s s iXs s s A.A.FX% o % = - A.A.A.A.A.A.A.A.A.A.A.A.A.% % % * ",
"A.A.A.A.A.A.A.A.A.A.A.A.= * A.A.A.FXE.E.E.vXE.vXvXE.FXN.N.o = O $ pX4X4XpXX X O O = & , A.A.5 5 s s s h s a A.A.A.A.A.A.- $ A.A.A.A.A.A.A.A.A.A.A.A.A.A.A.A.",
"A.A.A.A.A.A.A.> i > > > * * % * O 5 u A.A.E.A.A.A.E.O A.A.A.A.A.A.X X p X X X X X O O O FXN.N.B.s R.s s 5 A.A.A.+ . % % A.A.A.A.A.A.A.A.A.A.A.A.A.A.A.A.A.A.",
"A.A.A.A.A.A.A.A.A.A.3 A.A.A.= = pX4XX O . O o N.< N., , % & + % X X p p X A.A.% % X O % o & = < s s g a A.A.A.A.A.. % % % X % % % % A.A.A.A.A.A.A.A.A.A.A.A.",
"A.A.A.A.A.A.A.A.A.A.A.i > > > > O * O O O O o o . A.A.A.@ . + + X O p p 4X4X4X  4X4XX 4XA.A.A.A.N.B.4 4 , A.A.A.4X  % * % $ % % % % A.A.A.A.A.A.A.A.A.A.A.A.",
"A.A.A.A.A.A.A.A.A.A.A.A.A.A.A.> * X pXpXpXX . 4X.   + . +   & > = > > > > > > %     X 4X.   & & & = & , A.A.% . .   * % % % % % % % A.A.A.A.A.A.A.A.A.A.A.A.",
"A.A.A.A.A.A.A.> A.A.A.> > > > > i * p p % O . . % . +   @ + - 3 > > > > > 3 > * X % % 4X4X  . + & . + A.A.A.A.% - % * - A.A.A.A.A.% A.A.A.A.A.A.A.A.A.A.A.A.",
"A.A.A.A.A.A.A.A.A.A.A.A.A.A.A.A.A.A.A.A.A.A.  % > = = > & & > > > > > > > > > = > > = -   4X4X4X4X  4X4X    + X % - % * % % - A.A.A.A.A.A.A.A.A.A.A.A.A.A.A.",
"A.A.A.A.A.A.A.A.A.A.A.A.A.A.A.A.A.A.A.A.A.A.- A.A.& & 3 ; 3 > 3 > > > > > > > > > > - = % % X 4Xp 4X4Xp +   % % % * A.A.A.A.A.A.A.A.A.A.A.A.A.A.A.A.A.A.A.A.",
"A.A.A.A.A.A.A.A.A.A.A.A.A.A.A.A.A.A.A.A.A.A.A.A.A.A.A.A.A.A.A.A.A.A.A.A.A.A.A.A.- > - = = - = % p 4X4X4Xp % % % % % % % * - A.A.* A.A.A.A.A.A.A.A.A.A.A.A.A.",
"A.A.A.A.A.A.A.A.A.A.A.A.A.A.A.A.A.A.A.A.A.A.A.A.A.A.A.A.A.A.A.A.A.A.A.A.A.A.A.= = = > > > - = - A.A.4X4X% % - - % % % % % % % % - A.A.A.A.A.A.A.A.A.A.A.A.A.",
"A.A.A.A.A.A.A.A.A.A.A.A.A.A.A.A.A.A.A.A.A.A.A.A.A.A.A.A.A.A.A.A.A.A.A.A.A.> A.A.A.> > * > * - A.A.A.A.A.A.A.A.* % % % % - - A.A.A.A.A.A.A.A.A.A.A.A.A.A.A.A.",
"A.A.A.A.A.A.A.A.A.A.A.A.A.A.A.A.A.A.A.A.A.A.A.A.A.A.A.A.A.A.A.A.A.A.> > > > > > > > > * - * * = A.A.A.A.A.* * * % % % A.A.- A.A.A.A.A.A.A.A.A.A.A.A.A.A.A.A."
};
