/* XPM */
static char *_a20353eb8434bd2f1c2a8740e7404e78vAgghH6n4FzEMlb_28[] = {
/* columns rows colors chars-per-pixel */
"78 86 256 2 ",
"   c #221D1D",
".  c #271D1A",
"X  c #24221D",
"o  c #2B231D",
"O  c #2A291D",
"+  c #231E21",
"@  c #291D28",
"#  c #321B36",
"$  c #1B2C29",
"%  c #252425",
"&  c #2A2524",
"*  c #252926",
"=  c #2A2925",
"-  c #262529",
";  c #2A262B",
":  c #26292A",
">  c #2B2A2B",
",  c #332523",
"<  c #342A24",
"1  c #33252C",
"2  c #3B242C",
"3  c #322A2D",
"4  c #3B2B2B",
"5  c #3B312A",
"6  c #2C2532",
"7  c #2D2A32",
"8  c #2B2638",
"9  c #322634",
"0  c #332A34",
"q  c #3B2B34",
"w  c #34253B",
"e  c #3A253C",
"r  c #352B3A",
"t  c #3A2B3C",
"y  c #3C2433",
"u  c #383138",
"i  c #283332",
"p  c #1D1F20",
"a  c #432B2A",
"s  c #46352B",
"d  c #442A3B",
"f  c #462837",
"g  c #493735",
"h  c #522E37",
"j  c #381C4A",
"k  c #3B2543",
"l  c #3C2B43",
"z  c #392747",
"x  c #3C2653",
"c  c #342E47",
"v  c #4A1C52",
"b  c #432B44",
"n  c #43254C",
"m  c #432B4B",
"M  c #492947",
"N  c #542A48",
"B  c #573748",
"V  c #452B53",
"C  c #4B2C54",
"Z  c #4C2B5B",
"A  c #532C5C",
"S  c #552857",
"D  c #4A3256",
"F  c #573358",
"G  c #653857",
"H  c #692E54",
"J  c #4B2865",
"K  c #542B63",
"L  c #5B2C6C",
"P  c #572768",
"I  c #583367",
"U  c #5A2976",
"Y  c #5B3375",
"T  c #4C306C",
"R  c #652969",
"E  c #663569",
"W  c #632C7C",
"Q  c #662A78",
"!  c #752A79",
"~  c #763679",
"^  c #6A5446",
"/  c #694657",
"(  c #764A6B",
")  c #5B2C85",
"_  c #6B2C84",
"`  c #662886",
"'  c #752B8A",
"]  c #6A3387",
"[  c #763489",
"{  c #6C2A94",
"}  c #742C9B",
"|  c #7B2C9C",
" . c #792897",
".. c #6B3395",
"X. c #7C2CA3",
"o. c #7929A7",
"O. c #772CB0",
"+. c #6D1D92",
"@. c #863789",
"#. c #842B9A",
"$. c #863599",
"%. c #8F2D8C",
"&. c #832CA4",
"*. c #832CAB",
"=. c #892BA9",
"-. c #952AA9",
";. c #8C33AB",
":. c #8836A8",
">. c #9638AA",
",. c #882CB5",
"<. c #952DB7",
"1. c #8C32B3",
"2. c #9737B7",
"3. c #A639A8",
"4. c #A53AB9",
"5. c #B12FB3",
"6. c #924892",
"7. c #AA4E99",
"8. c #9B44B6",
"9. c #8D49AB",
"0. c #A646B7",
"q. c #B74BB7",
"w. c #B453BC",
"e. c #B965B8",
"r. c #C64BB8",
"t. c #CF53B4",
"y. c #C665B9",
"u. c #CD6FB4",
"i. c #DA5BB3",
"p. c #A539C5",
"a. c #B453C3",
"s. c #BC54C4",
"d. c #BB57C8",
"f. c #BB67C5",
"g. c #C857D4",
"h. c #C865C6",
"j. c #D370CD",
"k. c #ED4FE8",
"l. c #CD8BB8",
"z. c #E991D2",
"x. c #D2AFCF",
"c. c #E5B8C9",
"v. c #F9A8E7",
"b. c #EEB0EC",
"n. c #EBCBD4",
"m. c #774A57",
"M. c #774590",
"N. c #35281D",
"B. c #3B2C24",
"V. c #74554A",
"C. c #A83595",
"Z. c #CE37CD",
"A. c #D8B9C9",
"S. c #D9B9D5",
"D. c #E7A9D8",
"F. c #E6B7D7",
"G. c #785655",
"H. c #F392EC",
"J. c #753469",
"K. c #AA54A9",
"L. c #D44ED2",
"P. c #D1B6B7",
"I. c #C987C7",
"U. c #DAA3E3",
"Y. c #F8B6D8",
"T. c #D4C4CF",
"R. c #533B39",
"E. c #514334",
"W. c #473248",
"Q. c #472557",
"!. c #521C6A",
"~. c #673378",
"^. c #6C2B8B",
"/. c #732C94",
"(. c #783397",
"). c #7B33A5",
"_. c #963899",
"`. c #8332A4",
"'. c #8934B7",
"]. c #9945A8",
"[. c #A749AA",
"{. c #B54BAA",
"}. c #B656AA",
"|. c #AC4CB4",
" X c #AC4CBB",
".X c #B34DBC",
"XX c #AC53B7",
"oX c #B453B4",
"OX c #BB53BC",
"+X c #B958B7",
"@X c #C557BA",
"#X c #9935C4",
"$X c #AA46C4",
"%X c #B74AC6",
"&X c #B350CD",
"*X c #9C45C4",
"=X c #C64BC7",
"-X c #C354C4",
";X c #C355CB",
":X c #C45ACB",
">X c #C859C7",
",X c #E94FD2",
"<X c #E96ED3",
"1X c #D48ECF",
"2X c #FAB7E6",
"3X c #F6CDE9",
"4X c #1D1C1C",
"5X c #5B4546",
"6X c #684A46",
"7X c #5F4F64",
"8X c #ECDBE0",
"9X c #B234CA",
"0X c #F471EB",
"qX c #F3ACD1",
"wX c #6F4F50",
"eX c #884C72",
"rX c #B16899",
"tX c #B98DC9",
"yX c #BAC5B2",
"uX c #DFC4B5",
"iX c #68431E",
"pX c #1A1817",
"aX c #381C29",
"sX c #CE28AC",
"dX c #D8C3C8",
"fX c #BAB0A7",
"gX c #D1C5B7",
"hX c #E839DD",
"jX c #3A2425",
"kX c #D657E4",
"lX c #8A3275",
"zX c #2F2B5C",
"xX c #B425CF",
"cX c #835558",
"vX c #594739",
"bX c #69503A",
"nX c #B46BAC",
"mX c #64493A",
"MX c #6B1B64",
"NX c #B88AB4",
"BX c #E3AAB7",
"VX c #4D1732",
"CX c #9B1998",
"ZX c #D658C7",
"AX c #534652",
"SX c #8E626C",
"DX c #922EC4",
"FX c #342F19",
"GX c #513398",
"HX c None",
"JX c #971A60",
"KX c #611828",
"LX c #341419",
"PX c #B91242",
"IX c #170617",
"UX c black",
/* pixels */
"HXHXHXHXHXHXHXHXHXHXHXHXHXHXHXHXO FXO , > & 1 1 * O $ O 3 , 2 2 KXKXVXv j 8 $ $ i $ : 8 - $ O X $ * * X = - % % % % % % % % p % % % % % % + HXHX+ % p HXHX% ",
"HXHXHXHXHXHXHXHXHXHXHXHXHXHXHXHXO FXB.N.; 3 3 1 * $ O * < 3 y y KXKXVXKXj e 8 $ $ $ : $ - - $ p X * * * * % % % % % X % % % % % - - + - % - + % % p + % HXHX",
"HXHXHXHXHXHXHXHXHXHXHXHXHXHXHXHX$ $ = , > HXHX> N.N.FXO O = 2 y KXVXv v A J w # @ aX@ @ $ HXHXHX% * % % HXHX% % % % % % % % % X % + % % HXHXHXHX+ % % p % + ",
"HXHXHXHXHXHXHXHXHXHXHXHXHXHXHXHXHX$ & = > : > > N.FXO FX= = aX2 KXKXv MXK K y # @ # 8 @ $ $ p $ * % % * * = % % % X % % X % % % % % % + + - HXHXp p - + + p ",
"HXHXHXHXHXHXHXHXHXHXHXHXHXHXHXHX: $ 9 2 $ $ O O PXPXKXPXLXLX2 y z c !.P ! MXv KXVXLXaXaX- $ * X - * - - % * % % % X % % % % % % - % + HXHXHXHXHXHX- % + p HX",
"HXHXHXHXHXHXHXHXHXHXHXHXHXHXHXHX$ $ 1 1 i $ N.N.PXPXPXKXLXKX9 y c z U U %.MXKXv LXVX# @ - $ O O * % * * % - % % % % % % X % % % - - % % % - HXHXHXHXHXHXHXp ",
"HXHXHXHXHXHXHXHXHXHXHXHXHXHXHXHXy aXa FX$ $ N.N.KXPXPXPXKXVX7 c - j R W 3.C.KXMXaXVX- - - $ o o * - % * % * % % % % % % % $ X % * * % % % + HXHXHXHXHX% % % ",
"HXHXHXHXHXHXHXHXHXHXHXHXHXHXHXHXVXaXa FX$ $ N.FXPXPXPXPXN.LX8 i c 8 Q ! {.CXKXMXaXaX8 - - 8 o o - * - * & * % % % % % p % % % HXHXHXHXHXHXHXHXHXHXHXHXHXHXHX",
"HXHXHXHXHXHXHXHXHXHXHXHXHXHXHXHX$ $ $ $ $ $ * O N.N.O < 6 8 8 j = = # n 7XY e # : * $ $ 8 $ # VX& % % % - % + - % % - + - % % % - % + % % % HXHXHXHXHXHXHXHX",
"HXHXHXHXHXHXHXHXHXHXHXHXHXHXHXHX$ $ i $ $ $ $ * FXFXi = 7 8 8 8 < = j M E I e VX* * $ $ 8 $ HXHX- - - % % % - % % % % % % - - % + % - HXHXHXHXHXHXHXHXHXHXHX",
"HXHXHXHXHXHXHXHXHXHXHXHXHXHXHXHX& > ; ; i O 5 2 $ $ i i r 0 c c N.N.y y C m 2 q $ $ $ $ 8 8 y y & - % % % % % % % % % % % % + - % % - p - - % + HXHXHXHXHXHX",
"HXHXHXHXHXHXHXHXHXHXHXHXHXHXHXHXHX& ; ; i i q q $ i i i r r c c B.B.e y k e f 4 i $ $ $ 8 8 jX< - ; % % - - - - % % - % % % - % % + HXHXHXHXHXHXHXHXHXHXHXHX",
"HXHXHXHXHXHXHXHXHXHXHXHXHXHXHXHXjXjX2 f 8 c 8 r h VXh KXu d l z N.FXr e w w 3 5 i i 8 w c 8 * $ > ; > - - - = - % % - % - - % - % % % HXHXHX% HXHXHXHXHXHXHX",
"HXHXHXHXHXHXHXHXHXHXHXHXHXHXHXHX3 5 a y i i c r h KXKXN d l k k FXB.y e w e 3 u i i 9 # c 8 O i > > > - - - * - - - % % % + % % + % % + HXHX+ HXHXHXHXHXHXHX",
"HXHXHXHXHXHXHXHXHX3 > ; > - HXHX$ $ r w zXc x zXH H v N c i n n a 4 z k j j t t u f M M c j % i 0 & ; ; & ; - - % % % - * % % % % % HXHXHXHX% % HXHXHXHXHXHX",
"HXHXHXHXHXHXHXHX> & ; > ; > > > $ i r l z z x n H MXN N c c V n s a n n x n d t 5 g M h z z i l 0 0 ; 6 ; & ; - * & * - - % % % + % % - HXHXHX- HXHXHXHXHXHX",
"HXHX; HXHXHXHXHXHX> HXHX> > 7 7 x x l x V D T T ) T D B h h A S J J C M b M W.W.zXHXHXHXT Q.l b q 0 w w w w 7 6 > = = % O O % % % % % * % % % % X % X % % $ ",
"; > > : > ; > ; > > > > > > 7 0 x zXc x D J T ) T ) D W.h N A S K T F D W.B B W.) T GX) T T M b q q r r w r 7 7 > = = & % % X % % % % % % % % % X HXHX$ + HX",
"HX> > > ; > > ; > 7 7 7 7 7 r 0 x zXZ D J T ) GX) GXI A H S P S S A B C B N C C T ) ) ..Y T C C b b d l r 0 7 6 = = = % * X % O % % % % % % X % % p HXHXHXX ",
"> ; > ; > > : > 7 > 7 7 9 7 9 r x x Z J T ) ) ....{ E I F H R P K K B D B B B F T ) ) ..Y Y A Z b b l t 0 0 0 0 = = % = O X X % O % % % % * % % % % % % X % ",
"> > > : > : 7 > 7 > 7 7 0 i u u x J T P ) U } O.{ ..{ ` Q ! ~.Q E E G G G E E ~.) ) ..} ....) U Z Q.b l r 9 0 ; = * & % * X * X % % % % % % X % % % X % p % ",
"> ; > ; ; > ; > > 7 7 7 0 7 r c J T L I ) ) O.O...).....~ ~ [ ~ J.E G E E ~.~.~...{ ..)...).` ) S S b l 0 r 7 0 = = = = X O X * O % % % % * % % % X % % % % ",
": 6 : > : 7 > 7 7 > 0 7 0 0 i u J T Y _ { } O.O.O.O.X.X.#.@.~ ~ J.J.eXJ.lX( [ [ (.(.O.).o.)./.' L S C n r t 0 9 3 & = % * * * * % * % % % % % % % p % p p X ",
"> 7 7 > 7 > 7 : > 7 7 7 7 r u u T T W ] /.).O.'.O.O.*.*.[ $.6.lXeXlXeXeX( J.6.M.)...).O.).o./.+.E L Z C l r r w 3 3 = = O X % * % % % * % % % % % % % % % % ",
"> > ; > > > 3 > 0 7 9 0 u c W.D K I ^.[ o.*.1.*X:.`.*.`.#.$._._.6.@.@.6.].].`. .&.`.*.*.*.:.o.o.W Q K K b x t w 9 6 , ; ; = % HXHXHX= HXHX* % % % X % % % % ",
"> 7 7 > > > > 7 > 0 8 u l l l W.K L ^.^.).:.8.$X:.`.`.*.#.#.$.6.6.6.$.6.$.6.`.#.:.:.*.1.1.O.*.o.Q Q I K D V l t 0 9 ; ; - - = = HXHX= - % - % % % % % HXHXHX",
"HXHXHXHXHX0 3 > > 0 u r l l D T Q W /.} *.2.*X&X9.:.1.*.#.=.8.2.8.|.8.].`.#.;.8.'.'.<.,.,.,.,.O.' ' W L K J m n e e 1 1 ; ; - - ; % - * & % % & $ % % % X % ",
"> 0 > > > 7 > > 0 0 r u l W.A I Q ~./.| 1.8.$X&X].9.8.1.&.=.0.8.0.8.].].=.`.'.2.<.'.'.HXHXHX,.,.' ' ~.Q I K C m k e 1 6 3 ; - - % % % - * - % % % % % % % p ",
"3 > 3 > HXHXHX0 0 0 u d m D K L ^.^.).*.;.8.XXf.f. X#X8.<.#X$X&X=.>.`.;.;.2.2.2.2.'.HXHXHXHX,.,. . .' _ U HXHXHXb e 9 9 ; ; ; & & > = * % % % % % % % % % X ",
"HXHX3 i HXHXHX3 > u u u m W.I I ^.[ `.;.8.0.XXa.f. X$X*X2.#X$X$X=.#.=.:.2.2.DX'.DXHXHX'.'.DX,.,.| (.[ ] ~.Q K J b d 0 0 3 ; ; ; - > - = % % % % % % % % % % ",
"> > > > 0 > 3 3 0 3 t W.D D U Y ^./.*.1.[.XXK.nXa.XX$X$X#X#X$X2.2.2.2.8.2.#X#X'.'.DXDXDX,.,.,.;.`.X.| /._ W L L M v d HXHXy 9 9 ; ; HXHXHX% % % % % % % % p ",
"> 7 > > > 0 0 i u u b c D D Q ~./.| :.'.0.&XoX}.&XXX$X$X#X'.2.2.2.2.2.2.#X2.2.DX#X#X'.#X<.DX1.,.`.#.(.(._ ! I P N M f e q 9 9 1 & - > = HXHX- * % % % % % % ",
"> > i > i > 3 i 5 5 d d D D ] ..).).;.:.XXw.+X+Xd.XX$X8.#X*X2.,.2.#X&X#X#XDXDX#X#XDX#XDXp.#X2.2.:.`.#.#.(. .{ { ` +.!.!.j e aXjX6 3 ; - - - % % % X X HXHXX ",
"i 7 > 7 3 0 3 3 u u l W.F F ....).`.;.;.|.XXoX+Xd.w.#X#X'.#X#X2.#X2.*X#X#Xp.#X#X#X#X#XDX#Xp.*X8.;.:.X.`. .| { +.+.) U !.n d 2 2 9 ; ; ; - * - - X HXHXHXHXHX",
"HX7 > > 0 i 3 u u u C W.L E } ).).:.;.;.[.0.w.@Xf.d.$X#X*X#X#Xp.&XDX#Xp.&X&Xp.#X#X#X#X#X4.0.$X$X8.>.:.`.#.&. . .+.{ ` U S v d e 9 9 ; 6 - - - - % % $ % X X ",
"i > i > 3 3 i 0 u u W.C L Y ..).`.O.:.&.8.[.+XOXd.d.&X$X*X*Xp.$X$X#X$Xp.*X&X9X#X#X#X#Xp.$X$X&X&X$X8.;.:.&.&.X.| } { ` U S v f M 9 9 6 6 - - * - X $ % X % % ",
"3 i > > 0 i 5 u W.l T F Y _ o.).*.'.*.'. Xa.a.a.OX@Xg.s.&X9Xp.p.9X#X&Xp.&X&XxXDX4.p.p.p. X.Xa.%X$X X9.9.*.&.X.X.X.X.^.{ U U S !.r 7 7 : - 6 - p % X X * X $ ",
"> 7 7 > 3 3 r u l W.D T ` _ } O.'.O.,.'.a.&Xa.w.+X@X:Xg.&X&X$X4.p.#X&X9XxX&Xp.p.p.p.9Xp..Xq.%X.X*X&X*X8.:.:.X.X.X. . .{ W Q S !.r 0 HXHXHX: - - % $ % % % % ",
"7 7 i > > i 8 u V m K I ` ] *.O.O.).2.#Xd.d.-XOX@X>Xg.g.d.&X%X%X9X%X&XkXkX&X&X9X4.4.9X%Xq.=X%XOXa.a.0.XX>.;.| #.X.&.X.X.' ` Q U c HXHXHXHX6 - HXHXX % % X % ",
"7 i > > i u 0 r m m K I ^./.*.*.O.'.*X*Xd.d.-Xs.@Xh.ZXg.&Xg.s.s.%X&Xg.g.kXkX&X&X4.9X%X%X-Xs.OXs.f.a.a.*X8.>.:.=.o.*.X.| ' +.Q Q w w 8 6 - HXHX- % % X $ X $ ",
"> > 0 > i i q 0 l x K L [ (.O.,.).:.&XXXf.e.w.+X@X>XZXg.>Xg.>XL.L.g.g.kXkXj.g.g.9X%Xg.g.d.OXw.OXw.a.XX X[.[.].>.#.=.o.&.}  .` +.w r 6 6 : 6 - - X % X * % % ",
"3 i > 7 i 3 0 u x l K P ..(.,.,.).$.*XXXe.a.+Xd.@Xh.;Xg.;XL.g.L.g.g.g.g.kXg.g.&X%X%Xs.%Xf.d.oXOXw.w.XXXX[.0.].>.=.=.X.o.} { ` ) t r r 6 - 6 - - X % $ X X $ ",
"3 3 > > > > > i l l S R [ (.:.;.).).a.a.+X+X@Xh.>X>X-X>Xh.g.>X:X>X>XZXZXkXg.g.g.g.d.+Xa.j.j.XXnX+X+XoXK.[.[.].>.<.2.X.`.} { +.` z z r 8 6 - - - $ % % % % X ",
"> 7 i 3 HXHX0 4 k w S A _ ] =.;.`.:.a.8.+X+X+X>X%X@Xq.@Xh.j.h.:X>X>X>Xg.ZXg.g.g.h.:X+Xf.I.I.f.XX}.XX|.|.[.[.[.].2.2.*.`.} +.) { l k r 9 : HXHXHXHXHXX % % $ ",
"> 3 3 i i > i 3 q u Q.C U ` ,.,.:.'.*X$Xw.d.w.h.h.OXe.h.1Xe.nXnXh.y.ZX@X>XZX>Xh.e.h.j.1Xb.U.tXtXK.}.XXK.oX[.].].8.8.#.#.' /.Q ` k k w 9 HXHXHXHX% % X * * X ",
"0 > 3 > 3 > > u u q Q.Q.P Q ,.o.).O.8.2.a.XXoXs.OXOXh.h.I.tXe.nXj.h.ZXh.g.h.>XZXe.h.1X1XF.U.NXtX}.K.|.|.[.[.HXHX8.0.$.| ^.' U U x k r 9 6 HXHXHX% % * X X % ",
"> > > 3 > 3 > i 5 i m l J I o.o.o.).;.;.w.a..Xq.s.h.j.1Xn.b.b.b.<Xu.u.u.>Xh.>Xh.I.1XD.v.S.U.NXNXK.{.{.K.[.[.[.|.|.8.#. .' ' !.!.l z 9 6 6 - - - % % X $ p HX",
"HXHX3 3 i 3 i 3 < 3 k n Z A { { X.X.&.:. X Xw..Xa.f.j.j.S.b.b.b.<Xj.<Xi.h.ZXh.>Xz.1XD.b.U.S.fXNXoX{.[.|.[.K.8.|.8.].|  .'  .!.!.l k 9 6 6 6 * HXHX% % % % % ",
"i 3 > 3 > i 3 > u i l l V Z L ~. .X.#.#.0.8.d.:X=XL.0X0XH.b.S.S.qXqX3X3XU.NXtXtXx.D.x.S.b.U.}.}.{.{.[.{.[.K.[.7.;.$.o. .{ GX!.x e w 9 6 ; ; - - - % % + % % ",
"3 3 i > 3 3 > > > 3 l l Q.Q.L Y X. .>.#.].>.:Xg.kXZX0X0Xb.b.S.S.D.D.3X3Xx.NXI.tXD.D.D.S.S.x.nX{.{.{.[.}.[.HXHXHX:.#.X.X.+.{ Q.v w w 6 6 6 - + $ - + % - % * ",
"3 > 3 HXHXHXHXHXi 3 t r b n C I +.' #.#.3.-.L.L.k.,Xk.k.Y.v.gXgXA.P.3Xn.A.P.x.T.fXgXx.x.u.NXq.7.r.{.{.{.[.[.[.>.`.$.^.^.U ) x j 8 9 6 - - - - @ % % HXHXHXHX",
"3 3 > 3 HXHXHXHXi 3 r r n b C A +.+.%.#.3.3.L.,Xk.k.,Xk.D.Y.8X8XA.x.dXS.x.P.x.T.yXgXx.S.u.nXq.7.{.{.{.oX[.[.[.C.$. .` ` T !.x j 8 6 - 6 - - $ @ % * HXHXHXHX",
"HXHXHXHXHXHXHXHX7 > i i r b b W.A R Q ! CX3.Z.L.hXhX,Xt.z.l.gXgX3X8X8XT.yXx.yXyXP.P.qX2Xt.}.<XZXZXr.{.r.{.[.>._...{ T T z n w w 8 6 - - - % $ % + % % % % + ",
"HXHXHXHXHXHXHXHXHX3 3 u t t b M A 7X! ! -.CX9XZ.hXhXi.,Xl.BXuXgX8X3XT.T.T.T.x.x.P.P.D.v.y.t.,XZXZXZX{.{.C.[.%.%.{ ` P I x z w w 6 # 6 - $ - + + % % % - HXHX",
"HXHXHXHXHXHXHXi HXHX> 0 8 u l l 5 5 F C ! MXCXC.r.Z.=XL.t.7.c.A.P.P.P.NXS.S.b.b.b.b.H.H.ZXr.L.,X<XkXr.[.3.3.%.' !.T m D w e w 6 8 - - @ - $ % $ % % HXHXHXHX",
"HXHXHXHXHXHX> i HXHX7 > 7 u u d i 5 M m ' ! C.CXZ.-.r.L.{.i.D.l.x.A.x.x.U.3XU.b.U.b.j.j.i.t.L.t.kXZXq.3._._.%.+.) T x l w w 9 6 @ 8 - @ $ @ % % + - HXHXHXHX",
"> > 3 < i > > > > 0 HXHXHX> 0 u q b d M Q P +.' CX#.4.4.r.=Xk.0XqXqXBXc.qXc.v.v.qXz.i.rXi.t.t.i.s.OX0.].' ' ) U x z r u 0 7 ; ; ; @ - - - - HXHXHXHXHXHXHXHX",
"i < > i < < i 3 3 i HXHX> u q q 0 g B B U R ' ! &.=.5.5.Z.=XkXk.BXqXY.c.c.Y.v.z.z.qXu.u.i.rXsXt.q.|.>.>. .+.!.U x z r r 6 9 9 ; - - - p p $ - % % - HXHXHXHX",
"< > < HXHXHXHXHX> > i > 7 > 0 0 5 5 d l M HXHXH lXlX3.3.Z.Z.kXk.i.u.qXD.Y.n.Y.Y.z.u.}.u.y.7.C.3.@.@.E ! !.MXn v z l 8 8 8 8 ; @ - - % HXHXHX- HXHX% % % * % ",
"i > i > > > = 3 > > 3 > > > 3 3 < 5 b u M N HXHXHXHX3.4.kXZ.hXk.i.t.v.D.c.n.qXqXz.u.rX}.{.7._._.%.@.~ ! R P V v 9 w 8 8 8 6 ; - - - % - - p - % % % % % % % ",
"< i 3 > i 3 > i > HXHXHXHXHX3 0 4 3 bX^ iXbXbXG H m.eXeX}.7.9X=XZ.r.u.t.u.l.SXrXrXrX6.6.@.! ~.Q S v v S n v # # 8 6 8 8 6 8 % - * * % + $ X % % % % % % % % ",
"> > > > > > > > > HXHXHXHXHX> 3 < = ^ ^ V.V.cXwXcXlXcXeX[.7.%X9XZ.Z.y.t.rXrXrXrXrX6.[ 6.%.@.J.E HXHXHXH v N y e 6 8 6 8 6 8 + - * % % % % % HXHXHXHXHXHXHXHX",
"HXHXHXHXHX> > > > > HXHXHXHXHX3 FXFX6XV.mXH wXG.G.G.m./ cXeXcXcX6.6.eXlXJ.J./ E Q ~.MX! N S B W.f f aXf # n w HXHX6 8 : : - - - % % % $ % % % % % % % HXHXHX",
"HXHXHXHXHXHXHXHXHXHXHXHX> > > & < N.G.G.mXcX6XwXG.G.6XG m.m.JXH 6.[.lXlXH ( ~.E U U v MXN v W.b aXy aXVXy k k w 9 HXHX6 8 6 - - % % % X % % % % % % % X X % ",
"HXHXHXHXHXHXHXHXHXHXi > > > = - HXHXHXAX^ ^ ^ V.cXHXHX6XHXHXHXHX/ HXHXHXHXHXHXHXHXF N g d HXHXHXd f 1 a 1 y 0 9 HXHX; ; ; ; - - % % % % % % % X HXHXHXHXHXHX",
"HXHXHXHXHXHXHXHXHXHX3 > > > > > 7X^ 5XvXG.^ ^ ^ G.V.6X/ B 5XB B / B B B M N M M F N W.M d W.h d f f f y 1 1 9 & # ; ; 6 - ; - * % % X % O % % % % % % X % p ",
"> > > > > > > > > > > > > > > * ^ vXHXHXHXHXvXHXHXHXHXHXHXHXHXh B B N d HXHXHXb f f a 2 aXaXHXHXN B R.R.2 jX& 1 , ; ; @ - HXHXHXHXHXHXHXHXHXX % * % % % % * ",
"> > > > > > > > > > > > > > = * ^ HXHXHXHXiXbXHXHXmX6XV.B B h d f f f f HXHXf f f f HXHXy y aXa HXHXB R.g q , & & @ % & - HXHXHXHXHXO % X * X HXHXHXHXHXHXHX",
"HXHXHXHXHXHXHXHXHXHXHXHXHXHXHX* E.vXHXHXHXvXbXbXHXHXHXV.E.R.2 4 4 4 q q 4 q 2 2 aX2 2 2 jXa HXHXh HXHXHXg HXHXHXo aX& - * - * HXHXHXHXO * * % X HXHX* % % % ",
"HXHXHXHXHXHXHXHXHXHXHXHXHXHX= - E.bXbXHXHXHXHXHXHXHXHX6XR.R.2 2 2 2 HXHXHXy 1 , 1 aXN.aXaXHXHXHXa a B.HXHXHXHXHXo @ % & % - - HXHXHXHX* % X % * HXHX% % % * ",
"HXHXHXHXHXHXHXHXHXHXHXHXHXHX- = E.HXHXHXHXiXE.vXmXHXHXHXHXHXjX< < HXHXHXHXHXHX3 HXHXa B.B.a R.R.R.iXHXHXHXHXHX5 @ . HXHX% % HXHXHXHXX % X % X % % * HXHXHXHX",
"HXHXHXHXHXHXHXHXHXHXHXHXHXHXHX= HXHXHXHXHXHXvXE.bXHXHXHXE.vX< B.HXHX& & & HXHXHX4 2 B.B.a a s R.h s R.HXHXFXHXHXHX. @ & % @ - - HXHX* % * * X HXHXHXHXX % HX",
"HXHXHXHXHXHX3 > > > > > > > > - HXHXHXHXmXHXHXHXHXHXvXHXHXB.< < = O O HXHXHX< < 3 B.5 jXN.5 s R.B.N.a HXHXHXHX5 O . - - * % % % * % & % & @ % HXHXHXHXHXHXHX",
"HXHXHXHXHXHXHXHXHXHXi > > > * * E.E.vX^ HXHXHXbXbXE.s B.B.< < o O O O X X X = < < < < < a a s s s s HXHXHXHXHXN.o O % % % % % % - % % % % % % & HXHXHXHXHXHX",
"HXHXHXHXHXHXHXi > > = > - = * p $ > s E.vXvXvXHXHXHXO N.= N.O % $ O p X X X * = & & < < B.B.a s s s iXs s B.B., HXHXHX% % % % % % & + % & % & HXHXHXHXHXHXHX",
"HXHXHXHXHXHXHXHXHXHXHXHX- HXHX4XHXHXE.E.5XvXHXHXHXFXO O O HXHX  X 4X4X4X      % + & o & O < B.5 s s s a a N.HXHXHXHXHXHX% HXHXHX% % % % % % % + HXHXHXHXHXHX",
"HXHXHXHXHXHXHXHXHXHX> > > * X 4XpXX O O o o . HXHX, o & % % + + 4Xp p p +   p + + . % + @ & , B.a 5 s HXHX& HXHXHXHXX % X $ % % % & % % & + HXHXHXHXHXHXHXHX",
"HXHXHXHXHXHXHXHXHXHXHX> > = % X X O * O FXo o o o o o . .     % % + % % + - + + . @ + . + HXHX, < HXHX2 HXHX. + pX4X% - % p % X % % % & % % & HXHXHXHXHXHXHX",
"HXHXHXHXHXHXHXHXHXHXHXHX= > = * 4XpXpXpXpX  . . . . + & - 4X4X+ - = * - - = * + 4X  + 4X  + @ & & & , & & . +       % % % % % % % % & % % % & HXHXHXHXHXHXHX",
"HXHXHXHXHXHXHXHXHXHXHXHXHXHXHXHX& % X X   pX. + = . % % - p + 4X* > > > > - - % + % + 4X4X+ HXHX% + . HXHXHX4X    * % % $ p % % @ & - % % % % + HXHXHXHXHXHX",
"HXHXHXHXHXHXHXHXHXHXHXHXHXHXHXHXHXHXHXHXHXHXHX+ - 3 = = - HXHXHXHXHXHXHXHX* > - %   4X4X4X4Xp + p pXpXp 4X4X4X4X4X% % % % p % % HXHXHXHXHXHXHXHXHXHXHXHXHXHX",
"HXHXHXHXHXHXHXHXHXHXHXHXHXHXHXHXHXHXHXHXHXHXHXHX= > > = > > > > : > > > > - > > = - p X 4X4X4X4XpXp p pXpXpX4X4Xp % HXHXHX% % * HXHXHXHXHXHXHXHXHXHXHXHXHXHX",
"HXHXHXHXHXHXHXHXHXHXHXHXHXHXHXHXHXHXHXHXHXHXHXHXHXHXHXHXHXHXHXHXHX= HXHXHXHXHXHXHX* % p pX4XpX4Xp pXpXp pXpX4X4Xp % % % X % HXHXHXHXHXHXHXHXHXHXHXHXHXHXHXHX",
"HXHXHXHXHXHXHXHXHXHXHXHXHXHXHXHXHXHXHXHXHXHXHXHXHXHXHXHXHX= HXHXHXHXHXHXHXHXHX> & * * % % 4X% % + 4Xp p pXp 4X4Xp % % % % $ HXHXHX- % % % * % X HXHXHXHXHXHX",
"HXHXHXHXHXHXHXHXHXHXHXHXHXHXHXHXHXHXHXHXHXHXHXHXHXHXHX: > : > > > > = HXHXHXHXHXHXHX* * - = * HXHXHXHX: % % % HXHXHX* % % % HXHXHX% % HXHXHXHXHXHXHXHXHXHXHX",
"HXHXHXHXHXHXHXHXHXHXHXHXHXHXHXHXHXHXHXHXHXHXHXHXHXHXHXHX= > = > > > > > > > > > > - = > > - > > 7 : > > * * * : * * % - % % HXHXHXHXHXHX% HXHXHXHXHXHXHXHXHX"
};
