/* XPM */
static char *_a20353eb8434bd2f1c2a8740e7404e78vAgghH6n4FzEMlb_29[] = {
/* columns rows colors chars-per-pixel */
"78 86 256 2 ",
"   c #221D1D",
".  c #271D1A",
"X  c #24221D",
"o  c #2B231D",
"O  c #2A291D",
"+  c #231E21",
"@  c #291D28",
"#  c #321B36",
"$  c #1B2C29",
"%  c #252425",
"&  c #2A2524",
"*  c #252926",
"=  c #2A2925",
"-  c #262529",
";  c #2A262B",
":  c #26292A",
">  c #2B2A2B",
",  c #332523",
"<  c #342A24",
"1  c #33252C",
"2  c #3B242C",
"3  c #322A2D",
"4  c #3B2B2B",
"5  c #3B312A",
"6  c #2C2532",
"7  c #2D2A32",
"8  c #2B2638",
"9  c #322634",
"0  c #332A34",
"q  c #3B2B34",
"w  c #34253B",
"e  c #3A253C",
"r  c #352B3A",
"t  c #3A2B3C",
"y  c #3C2433",
"u  c #383138",
"i  c #283332",
"p  c #1D1F20",
"a  c #432B2A",
"s  c #46352B",
"d  c #442A3B",
"f  c #462837",
"g  c #493735",
"h  c #522E37",
"j  c #381C4A",
"k  c #3B2543",
"l  c #3C2B43",
"z  c #392747",
"x  c #3C2653",
"c  c #342E47",
"v  c #4A1C52",
"b  c #432B44",
"n  c #43254C",
"m  c #432B4B",
"M  c #492947",
"N  c #542A48",
"B  c #573748",
"V  c #452B53",
"C  c #4B2C54",
"Z  c #4C2B5B",
"A  c #532C5C",
"S  c #552857",
"D  c #4A3256",
"F  c #573358",
"G  c #653857",
"H  c #692E54",
"J  c #4B2865",
"K  c #542B63",
"L  c #5B2C6C",
"P  c #572768",
"I  c #583367",
"U  c #5A2976",
"Y  c #5B3375",
"T  c #4C306C",
"R  c #652969",
"E  c #663569",
"W  c #632C7C",
"Q  c #662A78",
"!  c #752A79",
"~  c #763679",
"^  c #6A5446",
"/  c #694657",
"(  c #764A6B",
")  c #5B2C85",
"_  c #6B2C84",
"`  c #662886",
"'  c #752B8A",
"]  c #6A3387",
"[  c #763489",
"{  c #6C2A94",
"}  c #742C9B",
"|  c #7B2C9C",
" . c #792897",
".. c #6B3395",
"X. c #7C2CA3",
"o. c #7929A7",
"O. c #772CB0",
"+. c #6D1D92",
"@. c #863789",
"#. c #842B9A",
"$. c #863599",
"%. c #8F2D8C",
"&. c #832CA4",
"*. c #832CAB",
"=. c #892BA9",
"-. c #952AA9",
";. c #8C33AB",
":. c #8836A8",
">. c #9638AA",
",. c #882CB5",
"<. c #952DB7",
"1. c #8C32B3",
"2. c #9737B7",
"3. c #A639A8",
"4. c #A53AB9",
"5. c #B12FB3",
"6. c #924892",
"7. c #AA4E99",
"8. c #9B44B6",
"9. c #8D49AB",
"0. c #A646B7",
"q. c #B74BB7",
"w. c #B453BC",
"e. c #B965B8",
"r. c #C64BB8",
"t. c #CF53B4",
"y. c #C665B9",
"u. c #CD6FB4",
"i. c #DA5BB3",
"p. c #A539C5",
"a. c #B453C3",
"s. c #BC54C4",
"d. c #BB57C8",
"f. c #BB67C5",
"g. c #C857D4",
"h. c #C865C6",
"j. c #D370CD",
"k. c #ED4FE8",
"l. c #CD8BB8",
"z. c #E991D2",
"x. c #D2AFCF",
"c. c #E5B8C9",
"v. c #F9A8E7",
"b. c #EEB0EC",
"n. c #EBCBD4",
"m. c #774A57",
"M. c #774590",
"N. c #35281D",
"B. c #3B2C24",
"V. c #74554A",
"C. c #A83595",
"Z. c #CE37CD",
"A. c #D8B9C9",
"S. c #D9B9D5",
"D. c #E7A9D8",
"F. c #E6B7D7",
"G. c #785655",
"H. c #F392EC",
"J. c #753469",
"K. c #AA54A9",
"L. c #D44ED2",
"P. c #D1B6B7",
"I. c #C987C7",
"U. c #DAA3E3",
"Y. c #F8B6D8",
"T. c #D4C4CF",
"R. c #533B39",
"E. c #514334",
"W. c #473248",
"Q. c #472557",
"!. c #521C6A",
"~. c #673378",
"^. c #6C2B8B",
"/. c #732C94",
"(. c #783397",
"). c #7B33A5",
"_. c #963899",
"`. c #8332A4",
"'. c #8934B7",
"]. c #9945A8",
"[. c #A749AA",
"{. c #B54BAA",
"}. c #B656AA",
"|. c #AC4CB4",
" X c #AC4CBB",
".X c #B34DBC",
"XX c #AC53B7",
"oX c #B453B4",
"OX c #BB53BC",
"+X c #B958B7",
"@X c #C557BA",
"#X c #9935C4",
"$X c #AA46C4",
"%X c #B74AC6",
"&X c #B350CD",
"*X c #9C45C4",
"=X c #C64BC7",
"-X c #C354C4",
";X c #C355CB",
":X c #C45ACB",
">X c #C859C7",
",X c #E94FD2",
"<X c #E96ED3",
"1X c #D48ECF",
"2X c #FAB7E6",
"3X c #F6CDE9",
"4X c #1D1C1C",
"5X c #5B4546",
"6X c #684A46",
"7X c None",
"8X c #ECDBE0",
"9X c #B234CA",
"0X c #F471EB",
"qX c #F3ACD1",
"wX c #6F4F50",
"eX c #884C72",
"rX c #B16899",
"tX c #B98DC9",
"yX c #BAC5B2",
"uX c #DFC4B5",
"iX c #68431E",
"pX c #1A1817",
"aX c #381C29",
"sX c #CE28AC",
"dX c #D8C3C8",
"fX c #BAB0A7",
"gX c #D1C5B7",
"hX c #E839DD",
"jX c #3A2425",
"kX c #D657E4",
"lX c #8A3275",
"zX c #2F2B5C",
"xX c #B425CF",
"cX c #835558",
"vX c #594739",
"bX c #69503A",
"nX c #B46BAC",
"mX c #64493A",
"MX c #6B1B64",
"NX c #B88AB4",
"BX c #E3AAB7",
"VX c #4D1732",
"CX c #9B1998",
"ZX c #D658C7",
"AX c #534652",
"SX c #8E626C",
"DX c #922EC4",
"FX c #342F19",
"GX c #513398",
"HX c #37444E",
"JX c #971A60",
"KX c #611828",
"LX c #341419",
"PX c #B91242",
"IX c #170617",
"UX c black",
/* pixels */
"7X7X7X7X7X7X7X7X7X7X7X7X7X7X> > w 8 $ $ $ $ a a FX= * i t q VXVX- - ; @ f y n # j j 8 c - 8 * X * - - % - + - + - - p p - - - p + + + $ p + - + 7X7X- - % - ",
"7X7X7X7X7X7X7X7X7X7X7X7X7X7X7X7Xw 8 $ $ $ $ LXjXN.= $ O @ aXy aX3 & & , k # j # j j @ 8 8 - X % $ - - + - - % % - + @ - - p - - - + % + % + p p + 7X7X+ - 7X",
"7X7X7X7X7X7X7X7X7X7X7X7X7X7X7X> 8 8 8 i aXVXPXPXPXPXPXKXN.a i i 0 ; y 9 j IX# IXj S z V # # % > : ; - - 7X7X7X7X- % + p - p @ p 7X7X7X+ + + + p % 7X7X7X7X7X",
"7X7X7X7X7X7X7X7X7X7X7X7X7X7X7X> 8 $ i 8 VXVXKXPXPXPXKXPXB.a i i 0 4 e d v IXj j j Y V z 8 8 - 0 : ; - - - * % % p - - - - - - - % p % % - p % + 7X7X7X% 7X7X",
"7X7X7X7X7X7X7X7X7X7X7X7X7X7X7X> 8 6 i i VXf JXJXPXsXJXKXN.a > > 8 u m W.!.j v v !.Y J v w k > r 8 6 = = * - 7X7X7X7X7X7X@ - + - % 7X7X7X+ 7X7X7X% 7X7X7X7Xp ",
"7X7X7X7X7X7X7X7X7X7X7X7X7X7X> 7 8 $ 8 i h s JXlXPXPXJXJXVXa > > u u z c v j !.!.J ` J Q.e l 0 0 7 0 > - & % % X % % % - $ p % % + % % % % % 7X7X7X7X7X7X% 7X",
"7X7X7X7X7X7X7X7X7X7X7X7X7X7X7X7Xc c i i c zX~.6.JXlXN N f b f d l l x x U !.+.+.) ^.!.U Q.n u r 9 9 > - = = % % % X % % - p + - % % % % % % 7X7X7X7X% 7X7X7X",
"7X7X7X7X7X7X7X7X7X7X7X7X7X7X> > i i zXc c HX( eXlXlXv VXa d b d l W.Z x Q W  .+.^./.U W Q.Q.d r 0 7 > > = - 7X7X7X7X7X7X7X7X7X- % - 7X7X7X7X7X7X7X7X7X7X7X7X",
"7X7X7X7X7X7X7X7X7X7X7X7X7X7X7X7Xk k x x /.[ $X%X_.%.Q.J Z n S N V D P T ) ` +. .'.O.....S P x z l w 9 7 ; ; % % % % X % % 7X7X7X7X7X7X7X7X7X7X7X7X7X7X7X7X7X",
"7X7X7X7X7X7X7X7X7X7X7X7X7X7X3 3 k j j x ^.(..X X@.@.v J V V S A Z D T L ` .. .| O.'.{ /.J K n n l l r 7 7 3 & % % * % % % % 7X7X7X7X7X7X7X7X7X+ 7X7X7X7X7X7X",
"7X7X7X7X7X7X7X7X7X7X7X7X7X7X7X> f k v Q.@.%.5.{.6.M.T T T T R L L T W ` { } O.).1.1.}  .R Q K K V z e w 0 9 ; 1 = - = - - 7X7X7X7X7X7X7X7X7X7X% 7X7X7X7X7X7X",
"7X7X7X7X7X7X7X7X7X7X7X7X7X7X3 i n e M Q.lX#.5.sXM.M.T T T T L R I I W ] } ).*.:.1.'.| | Q Q P K D n l k 0 r 3 ; = = * * * = 7X7X* 7X7X7X7X7X7X7X7X7X7X7X7X7X",
"7X7X7X7X7X7X7X7X7X7X7X7X7X7X7X> aXjXw w Z J ] M.T I zXT Y T ] ! ` ] ../.).).).:.:.:.#.&.Q Q U P K J m x l w 9 9 ; ; - ; 7X7X7X7X7X7X7X7X7X7X7X+ 7X7X7X7X7X7X",
"7X7X7X7X7X7X7X7X7X7X7X7X7X7X7X> @ q l w Q.Q.~.~.J I zXT Y Y ~.W _ ..).(.).).:.:.].>.=.&.Q ' Q Q I K V M k w 9 9 1 1 ; ; - = * % - 7X7X7X7X7X7X7X7X7X7X7X7X7X",
"; > > > : > > > > : > : i > i 3 i u c c x x R R S H I I Y E Q ! } &.*.*.).:.:.:.8.8.8.>.#. .' _ ~.L K A M Q.k # 9 6 ; ; ; - - - - - 7X7X7X7X7X7X7X7X7X7X7X7X",
"7X7X; > > ; > ; > : > > > > > 0 i r i c V Q.!.!.H H I I ~.E ~ ~ | X.O.:.'.).9.;.$XXX2.9.#. .^._ ] Q I K Q.n b e 3 9 ; ; ; ; % % - * - 7X7X7X7X7X* 7X7X7X7X7X",
": > > = > > > : 7 i ; : 7 7 0 7 r u l z Z V S A A F Y ~.] ] /./.*.*.=.1.2.*X0.>.0..X>.>.9.2.X.:./.' _ ! L S n n t y 3 ; ; - & > - 7X7X7X7X7X7X7X7X7X% 7X7X7X",
"> > > i > > > > : : : 8 i 7 7X7Xr r l l V Z S F F F E ~.[ ] /.(.1.*.*.:.8.0. X8. Xd.>.4.8.*X).X.(./.] _ L P C n t e 0 ; 9 ; > & = - % % % % * 7X7X* - 7X7X7X",
"7X7X: 7 > > > > : 8 : i 8 7 7 r r l b M C Z P L L ~.' (.(.| *.*.=.;.-.<. X$Xa.$X Xa.>.0.2.8.*.&.X.&./.' Q R A Q.M n e e 1 1 ; ; * - - - % % * % % % 7X7X7X7X",
": > > : : : > : ; i 8 i i 8 i r l t b C A A L Y E ~.[ [ ).).:.`.;.;.2.2.0.a.s.a..Xa.0. X8.8.:.*.&.`.(.(.~ Q F S C M e 2 y 9 > 6 = - - - 7X7X- % % % % % % % ",
"i : i > i > > > i : 8 7 7 0 c r t b C D P P W _ ^.' #.:.*.*.1.'.<.<.4.4..X4.OXq.%X%XOXs.0.0.2.2.'.,.).(.[ W E L !.!.M M y y 3 ; ; ; - * - % % % X 7X7XX % X ",
"> > = > > > > i : 7 7 7 i i r u b W.C A E L W [ [ (.&.`.'.1.1.<.2.4.%X9X%X9X%Xs.-Xd.s.:X2.4.8.2.DX'.`.X.[ _ E L U !.M M y 2 9 9 6 : - - % % X $ X % % % % $ ",
"= > > > > > > > 7 i > 7 r u u c b W.A I W W  .X.`.$.1.1.'.'.2.#Xp.4.%X$Xd.&X;X;X;X;Xs.g.3. X0.4.1.;.`.:.(.[ ! W ) ` S v M n 0 9 6 : - : - % * X * % % $ % X ",
"= i i > > > i : : i 7 i r u l u d W.F I W _ | X.#.`.<.'.<.'.2.#X4.%Xp.$Xd.;X;X-X;X-X%Xd.2.a.$X4.'.1.].1.$.(.[ ! ` ` K P M b 9 9 6 : - - % * p * X $ X X X % ",
"= = = i i > > i 7 0 0 7X7Xt l l J J W ` { } *.*.1.1.>.2.2.0.0. X.X.X%X%X;X;X:Xd.:X:Xd.s.g.d.|.3.2.>.>.:.>.#.' /. .{ Q Q P v r 9 8 ; ; - - - % % $ X * X X X ",
"> i > = > > > > 0 ; 0 4 t t b W.J T ) ] } | =.*.1.2.2.$X$X$X X.X%X%Xd.s.;X;X:X;X:X:Xd.-Xg.a.4.0.0.8.8.8.].].9.9. ./.W W L !.r w 6 6 - - - 7X7X+ X * X % $ * ",
"= i = i > i > i 7 7 0 0 t u l W.U Y ^.{ o.*.,.,.2.2.0. X Xa.s.a.d.d.;Xd.:X:X:X:X:Xg.:Xd.d.s.|.4.0.0.0.0.0. XXX8.X.| /.^.W !.r r 6 : - @ - - $ - % % % % % 7X",
"7X= > = > > > > 6 0 0 3 r l m W.) ] { X.O.*.<.'.4.$X0.a.&Xd.g.d.:Xd.;X:X:X:Xg.:Xg.:Xd.d.d.%X.X0.0.0. X0. X XXX8.X.X./.^.W U r w 8 6 6 - - - p - $ X % $ X X ",
"= i = = i > > > > 9 0 0 t t m V W W /.| &.=.2.2.[.0.0.w.d.d.h.d.d.d.d.:X:Xh.g.:X:X:X:Xh.%Xa.a.%X.X.XXX|.0.XX XXX8.;.).{ ` U k w 7 6 6 6 - % X % % % X $ X % ",
"> = i < i > > > 0 9 3 q t l m V W ~././.X.*.2.2.0.0.XXw.d.d.d.d.d.d.;X:X:Xg.g.:X:X;Xg.g.s.s.-Xd.w. XXX XXX|.8.8.;.:.} } ` ) w z r 7 : 6 - - % $ % X 7X7X7X7X",
"7X7X7Xi > = > i 7 7 r 0 l l V C U ] ^.(.#.#.>.8.[.oXw.w.w.a.s.s.d.;X:X:X:Xg.f.d.d.f.j.j.s.w.;Xs.w..X.X.X X|.|.0.).`.} /.W W k w 9 6 : 8 - - X X % % % X $ % ",
"> i i < > i > > 7 0 0 0 t l C D W ~.' ' $.$._.].oXK.w.w.OXs.d.s.d.d.d.:Xd.d.:X:Xd.f.0X<Xs.s.;Xs.w.w..X|. X|.8.8. .X.} { ` W e z r 8 6 : - % * X % % $ X X 7X",
"7X7X> i > > > > > 0 0 0 l W.V C U ~.^./.#.&.2.2.8.&Xa.e.+X+Xs.s.;Xd.L.g.@X>X+XK.tXtXtXU.&X$Xr.-X.Xw..X.X X0.9.>.*.o.{ } ~.U l l r 7 6 : - - X * X X % % % % ",
"7X7X7X> > < i 3 0 > 0 r l z V V U Y _ [ &.`.;.2.*X*Xa.a.OXOXs.OX&Xg.L.g.@Xt.nXy.I.tX1XtXa.&Xq.%X|..X|..X$X X'.:.O.o.{ } U R z c r 9 > 7X7X7X* X $ % % % p 7X",
"7X7Xi < i > 3 i > > 0 r l l V C J U ^.^.#.&.-.<.9.*XXXw.+XOXOXs.-X>Xh.-XnXe.e.1Xx.U.I.tXa.XXa.@Xw.q.0.oX$X0.:.#.X.o./.(.P P w z 9 7 7 6 ; - % * $ 7X7X7X% $ ",
"7X7X> > i > < i > 0 9 r l l C V P U ` ^.#.| =.,.9.8.XXw.+X+X+XOXs.s.s.OX@Xe.l.U.U.U.tXf.e.a.OX-Xw.w.|..X0.0.=.| X.o.{ /.S A w z r 7X7X7X7X7X% X % % % % 7X7X",
"7X7Xi > > > > i 0 i 0 q l W.D C T U ` ] #.#.=.=.'.>.>.3.w.e.+X+Xy.y.f.e.NXfXx.U.D.z.e.nXw.w.q..Xw.q.|..X0.2.=.#. . ._ +.S v y y 6 6 ; ; * % X * % + % $ + % ",
"7X7Xi > i > i < > 0 r u l l V V U U ^.^.&.#.=.=.;.2.>.[.w.XXXXe.y.e.e.e.1XI.U.S.D.D.K.K.OX+X|.XX.Xw.|.w.>.>.=.&.7X7X_ ` v S w e r 6 6 7X7X* * * $ % % % $ % ",
"> > i < > > > 3 0 > 0 t l l V D U Y /.(.`.&.=.-.-.3.|.+Xw.e.XXe.}.nXNXNXx.yXT.A.D.D.}.}.@Xq.w.w.w.w..Xw.>.$.=.#.| +.+.U v N 0 y 7 9 ; ; - - * X * % % % % % ",
"i > i > > < i i > 3 0 r W.z C D ` ~.(.(.`.#.-.=.-.2..Xs.XXXXnXXX}.y.I.NXx.x.S.A.x.qXu.}.@X@Xw.w.w.q.|. X&.=.&.&.#. .Q Q N S 0 9 6 6 6 ; - * * X % % % % % % ",
"i 3 > > > > i i 3 i q u l W.C Z ` { | | ;.$.3.2.3.$X%X-XoXK.j.I.D.D.S.S.T.yXT.yXU.S.1XI.@XoXq..Xw.|.[.|.>.>.&.&. .+.+.Q v N f # 9 6 7 - - - X * % % % % X % ",
"> > 3 i > > i < 3 i r t l l C C ) ^.(.(.>.`.2.4.%Xs.OXs.e.e.I.I.D.D.x.T.yXT.T.x.x.U.1XI.@XoX.X.X|.q.>.0.2.-.&.#.+./.!.Q v v y 9 6 6 ; ; - - * X % % % $ % $ ",
"> 7 > i i > 3 3 7 0 r u W.W.D D { } X.&.>.>.3.4.%X-XOXOXe.nXU.x.x.S.T.A.T.yXT.yXS.A.I.l.oXK.XX X|.|.3.3.>.>.|  . .+.` Q v S w 9 6 9 6 - * - X % 7X7X7X7X7X% ",
"i > > > < > > > > 0 0 t l c Z D { } } X.2.>. X X%Xs.OX@XnXf.U.U.S.S.x.T.yXT.yXT.F.A.I.I.h.f.a.w.|.|.>.[.;.>.`.#. . .` ` N S e 9 6 6 6 - - - % X % p % + $ % ",
"i > > > 7X7X7X< 3 i q u l l D Z } o.o.'.].>.oXoX-Xr.@X+XNXNXP.A.S.T.F.S.dXc.A.dXS.x.tXU.tXf.%Xr.[.q. X|.>.>.:.:.o.o.+.^.!.P e k 9 6 ; ; * % X * % $ % % % % ",
"> > i > > > i > i 0 q t l W.V D O.O.).).].].oXXXr.=X+X}.NXNXT.dXT.S.A.S.c.dXgXdXS.T.T.U.U.tX=Xq.q..X.X.X2.8.1.2.o.o.^.+.S v j e 6 6 6 ; - % $ X % % % % % % ",
"i 3 < i i > i < i 3 r l l W.D D O.O.*.*._.].}.oX=Xr.}.}.l.P.gXT.S.T.S.S.uXP.dXdXA.yXT.x.U.tX&Xq.q.oX.Xw.0.0.8.>.o.o.^.{ Q.S 8 w 9 7 - % - - X * p % % % % 7X",
"7X> i > > > > 3 > 0 0 u c W.V x O.O.=.:.>.3.q.+X=Xr.}.}.x.x.P.P.T.S.n.n.dXc.uXgXT.x.S.T.kXtX&X%X|.w.3.XX X$X8.1.*.o.{ ^.!.!.w w 6 6 & - - % % % % $ % % % % ",
"> > > i < i = i 7X7X0 u b l D D | | ,.,.2.p.=XL.k.k.<XH.c.x.P.P.P.A.n.n.dXuXgXgXdXdXT.x.7X7XtXNX{.oX.X.X8.].>.].o.o.^./.v !.y w ; > - - * - % % % 7X7X7X7X7X",
"> i 3 i i > > < 7X7Xr r l b D F  .| ,.*.<.#X=XL.L.k.<Xz.c.c.n.A.A.gXn.3XdXP.dXdXgXdXA.A.U.S.tXI.{.oX X.X X X8.]. .o.^./.!.Q.9 w ; - - = % % % X 7X7X7X7X7X7X",
"i > > > = > < > 3 3 3 5 t b V D R ~. .@.{.C.t.t.k.k.0X0XqXv.c.uXA.A.n.8Xc.S.S.S.T.T.A.A.P.P.BXl.{.{.[.K.K.K.].].o.X.{ { v J 9 y > = = % % % % % 7X7X7X7X7X7X",
"> > > > = i 7X7X7X7Xu 0 t l W.D Q ! ' @.r.3.t.i.k.k.0X0Xv.Y.c.n.dXn.8Xn.F.dXS.n.n.T.S.x.P.P.BXBX@X{.7.{.[.oX6.>.X.X.` ^.Q.Q.q w - = * - % % % % 7X7X7X7X7X7X",
"> > i > = : = > > 3 0 0 l l m D ~.U ! ~ @.C.5.r.kXZ.t.<Xv.Y.n.n.8Xn.8Xn.S.S.S.x.S.F.S.S.BXc.n.n.u.i.}.7.{.}.3._.O.o.) ) v n 1 9 > > = - % % % % % % % % X % ",
"> > : > = > = i > > 3 0 t t m C U U [ ~ %.%.5.r.L.kXr.<XqXY.n.n.n.n.n.n.S.S.S.S.S.U.F.F.c.c.uXuX<X<X7.7.[.7.#.#.+.+.) ) x x 9 @ > - * * % % % % % % % % % % ",
"i > > : : : > > > > 0 3 r t m m J T [ _ @.! <.5.&X&X|.e.l.P.fXyXuXuXuXuXS.n.F.S.F.F.F.F.2X2Xc.z.u.<X}.7X7X7X| #.) ) J J l z 1 1 - = % * % % % X X % % % p % ",
"> > > > > > : > > 7X7X4 r t x m J J ~.W %.#.<.5.9X&X}.y.fXNXfXyXuXuXuXuXS.n.S.F.F.F.D.2X3Xv.BXx.i.<X+X{.3.>. . .+.) J T l W.4 1 = * & % % % % % % % p % % % ",
"= i > = : : > : > > 0 7 0 r d t !.!.J P ' ! =.=.4.4.;X%X}.K.c.3XqXqXb.b.S.S.S.S.Y.3XqXqXc.l.nXrX=XkX3.>.#.CX+.+.) U V D 5 q 3 > ; & % - % % % % % % % % % % ",
"> > = > i > : > > > 7 7 0 r d q !.!.J P ! ' =.=.2.2.%X&XnX+Xc.c.v.D.b.b.b.3XF.F.Y.Y.Y.Y.z.l.NXrX=X=X3.-.#.#.%.+.) !.m z 0 0 3 & % & % = % % % % % % % % % % ",
"= > > > : > : i i > 7 7 9 0 r q M f n M R R @.' 5.5.Z.=X,X,X0X0Xv.qXD.D.F.Y.n.2XY.qXl.l.y.e. XXX8.>.&.&.'  .) !.x m r r 3 3 = & % & % % % % - - % % - 7X7X7X",
"< > > > : : > : > : > 7 0 0 q t f d N N R Q @.%.-.5.Z.Z.Z.hX0X0Xv.v.D.qXY.3XY.n.3XY.z.l.e.e.a.8.8.>.#.&.' /.) ) x x r 0 3 3 = & % % % % % % - * % % * % % % ",
"> > > = > i : : > : 6 0 9 0 9 q y y 6XV.m.eX@.$.C.C.Z.Z.Z.hX,X,Xu.BXY.Y.3X3X1X1XnXu.7.}.2.3.DX,.[ @.Q Q U U Q.J q t 0 0 7 8 ; ; % % % - % - % % % % % * %   ",
"> = > > : > : > i > ; 7 9 3 9 e 2 aXwXG.( eX6.6.C.5.Z.Z.Z.hX,XL.l.BXqXY.2X2Xl.l.u.u.}.}.4.9XDXDX$.' W ! !.P Q.x q 9 > 7 6 6 ; ; % % % = % * 7X7X7X7X7X7X7X7X",
"7X= < i : i > : : > > ; 0 > 0 q f aXm.m.J.( 6.( eX6.6.6.K.K.7.t.u.u.l.u.I.I.nXnX7.7.%.lX%.%.! JXR P S L Q.Q.z z 3 < > ; : 8 ; - - - % % % % % % % % % * * 7X",
"7X7X= = > : > > : > 7 > ; 3 9 9 g g ( m.( eX[ ( 7.6._.6.K.].K.7.l.l.nXrXI.I.K.K.7.7.lXC.CX%.lX%.R P S P Q.Z z z < 3 > > 8 8 - - * * % % % % % - * - * 7X7X7X",
"7X7X7X7X7X7X7X7X7X7X> 7 > > 3 ; G.G.wXwXcXV.6XcXcXcXm.cX/ ( ( ( eXeXeX~ J.E J.E E J.E I G F N n N h f d f e q 0 0 > > > 6 7X7X* - * % % % % % % 7X7X7X7X7X7X",
"7X7X7X7X7X7X7X7X7X7X> > > > ; & 7XG.6X6XcXcXm.cXcXcXm.m.G ( ( m.( eX~ J.R R R E ( ~.E F F F S N f M d f 2 y y 3 6 ; & > : 7X7X- - - - * % % % % - * 7X7X7X7X",
"7X7X7X7X7X7X7X7X7X7X7X7X7X7X7X7X7XwXvXmXcXV.bXmXcXV.cXcX/ / B F G F H N N N N S S N N n f VXVXh 7X7X5XB f q 1 3 3 3 > - : - : * 7X7X7X7X7X7X7X7X7X7X7X7X7X7X",
"7X7X7X7X7X7X7X7X7X7X7X7X7X7X7X7X5X6XmXmXbXbX6XbXH cXH cX/ G N B H F G F H G F G N C N N v N N N G G B 5XB d 9 , & & & > ; : 7X7X7X7X7X7X7X7X7X7X7X7X7X7X7X7X",
"7X7X7X7X7X7X7X7X7X7X7X7X7X7X7X7XvXbXV.bXbXbXbXcXG.cXcXcXB 6Xf N f f f VXf VXf f f f N h h f h N h f s h E.R.u 3 , , = ; - * % 7X7X7X7X7X7X7X7X% 7X7X7X7X7X7X",
"7X7X7X7X7X7X7X7X7X7X7X7X7X7X7X7XvXvX^ ^ vXmXbXbXG.G.m.cX6XG d f f N h M h N d f f VXf VXVXf h h f a a a g g g u o o 7X7X> * * * 7X7X7X7X7X7X7X% 7X7X7X7X7X7X",
"7X7X7X7X7X7X7X7X7X7X7X7X7X7X7X7XvX7X7X^ 7XvXvXvX^ V.B V.R.6Xf a aX2 a 2 1 2 2 f d h f h h h R.mXR.h h s s s g s @ o % - - = % % 7X7X7X7X7X7X7X7X7X7X7X7X7X7X",
"7X7X7X7X7X7X7X7X7X7X7X7X7X7X7X7X7X7XbXbXbXmXbXbX6X^ 6XwXB B f 2 a y a 2 2 y f d B f f a a h mX7X7XR.7X7XB.B.g g o . % = - * - * 7X7X7X7X7X7X7X* 7X7X7X7X7X7X",
"7X7X7X7X7X7X7X7X7X7X7X7X7X7X7X7X7XAXvX^ vX7X7X7XbX7X7X7X7X7X3 < < = 7X7Xo N.< B.7X7XB.B.B.a g E.a B.7X7X7X7Xu 7X7Xo + ; - - + + 7X7X% X % % O 7X7X7X7X7X7X7X",
"7X7X7X7X7X7X7X7X7X7X7X7X7X7X7X7X7X7XE.vX^ 7X7X^ vX7X7X7X5 3 < < = 7X7X7Xo = < , < < < N.N.s 7X7X7X7X7X7X7X7X7X< & & @ & - + - - * - % % % % % % 7X7X7X7X7X7X",
"7X7X7X7X7X7X7X7X7X7X7X7X7X7X7X7X7XFXu vXvX5XvXvX5XE.< < = & = O X X X X X X = = = = = 7X7X5 5 s s s s R.s 5 7X7X, & % ; % - 7X7X7X7X7X7X7X7X7X7X7X7X7X7X7X7X",
"7X7X7X7X7X7X7X7X7X7X7X7X7X7X7X7X7Xi E.E.vX7X7X7X7X< O O & O 7X7X7X7X7X7X7X7X+ & X % O = N.N.B.a s R.s s 5 B.< o & . @ & % - % % % % % % % % % % 7X7X7X7X7X7X",
"7X7X7X7X7X7X7X7X7X7X7X7X7X7Xp p pX4XO * o o o o < N.+ & & 7X7X  4X4Xp 4X7X7X+ + . % % X & 7X7X3 5 5 g 5 3 , 7X7X    % & - - - % * - 7X7X7X7X7X- 7X7X7X7X7X7X",
"7X7X7X7X7X7X7X7X7X7X7X7X7X7XO % p O : O o . o o o . & + +   p + %   7X7X7X+ +   + + 4X    7X7X7X7X5 4 4 < o @ 7X7X7X7X% % % % - 7X7X7X7X7X7X7X7X7X7X7X7X7X7X",
"7X7X7X7X7X7X7X7X7X7X7X7X7X7X> 7X7X7Xp 4X7X7X+ +     @ p @ 7X7X7X% * > - @ % - 7X7X4X4X7X7X7X- & > % & & % + + + 4X4X- - % % % - 7X7X7X7X7X7X7X- 7X7X7X7X7X7X",
"7X7X7X7X7X7X7X7X7X7X7X7X7X7X7X= 7X7X7X7X7X    . +   + p - + 4XpX- > = & ; & - 4X7X7X7XpX4X  + + * % + @ @ .     + + + - % + p - % % 7X7X7X7X7X= 7X7X7X7X7X7X",
"7X7X7X7X7X7X7X7X7X7X7X7X7X7X7X7X> * % p 4X4X4X+ 4X% - 7X7X> > = > = : > = = = > % % 4XpXpXpXp 4X4X7X7X7X  4XpXpX+ % % * % % % - X % % % X % 7X7X7X7X7X7X7X7X",
"7X7X7X7X7X7X7X7X7X7X7X7X7X7X7X7X> > * % % % % X + % = > 7X7X7X7X7X7X7X- - - - = & - + 7X7X7X7XpXpXpXpXpXpX4Xp   % 7X7X7X7X7X7X7X7X% 7X7X7X7X7X7X7X7X7X7X7X7X",
"7X7X7X7X7X7X7X7X7X7X7X7X7X7X7X7X> > > = = 7X7X7X* 7X7X7X7X7X7X7X7X7X7X> > > * 7X7X7X* * * + pXpX7X7X7XpX4X4X% % % % % % * 7X7X7X% % * % % % * 7X7X7X7X7X7X% ",
"> > > > > > > > > > > > > > > > > * 7X7X7X7X7X7X7X7X7X7X7X7X7X7X7X7X* = > = - - = * * * - * % pXp 4X4X4X4X+ % - % % % % % % 7X7X7X7X7X7X7X7X7X7X7X7X7X7X7X7X",
"7X7X7X7X7X7X7X7X7X7X7X7X7X7X7X7X7X7X7X7X7X7Xi 3 > > > > 7X7X7X7X7X7X> > > * > : - = 7X7X7X> - % p - + - % = - 7X7X7X7X7X* * 7X7X7X7X7X7X7X7X7X7X7X7X7X7X7X7X",
"7X7X7X7X7X7X7X7X7X7X7X7X7X7X7X7X7X7X7X7X7X7X7X7X7X7X7X7X> > > > > * * - > > > > * - % - * = - = - ; : : - * * * % % % * * * 7X7X7X7X7X7X7X7X7X7X7X7X7X7X7X* "
};
