/* XPM */
static char *_a20353eb8434bd2f1c2a8740e7404e78vAgghH6n4FzEMlb_3[] = {
/* columns rows colors chars-per-pixel */
"78 86 256 2 ",
"   c #221D1D",
".  c #271D1A",
"X  c #24221D",
"o  c #2B231D",
"O  c #2A291D",
"+  c #231E21",
"@  c #291D28",
"#  c #321B36",
"$  c #1B2C29",
"%  c #252425",
"&  c #2A2524",
"*  c #252926",
"=  c #2A2925",
"-  c #262529",
";  c #2A262B",
":  c #26292A",
">  c #2B2A2B",
",  c #332523",
"<  c #342A24",
"1  c #33252C",
"2  c #3B242C",
"3  c #322A2D",
"4  c #3B2B2B",
"5  c #3B312A",
"6  c #2C2532",
"7  c #2D2A32",
"8  c #2B2638",
"9  c #322634",
"0  c #332A34",
"q  c #3B2B34",
"w  c #34253B",
"e  c #3A253C",
"r  c #352B3A",
"t  c #3A2B3C",
"y  c #3C2433",
"u  c #383138",
"i  c #283332",
"p  c #1D1F20",
"a  c #432B2A",
"s  c #46352B",
"d  c #442A3B",
"f  c #462837",
"g  c #493735",
"h  c #522E37",
"j  c #381C4A",
"k  c #3B2543",
"l  c #3C2B43",
"z  c #392747",
"x  c #3C2653",
"c  c #342E47",
"v  c #4A1C52",
"b  c #432B44",
"n  c #43254C",
"m  c #432B4B",
"M  c #492947",
"N  c #542A48",
"B  c #573748",
"V  c #452B53",
"C  c #4B2C54",
"Z  c #4C2B5B",
"A  c #532C5C",
"S  c #552857",
"D  c #4A3256",
"F  c #573358",
"G  c #653857",
"H  c #692E54",
"J  c #4B2865",
"K  c #542B63",
"L  c #5B2C6C",
"P  c #572768",
"I  c #583367",
"U  c #5A2976",
"Y  c #5B3375",
"T  c #4C306C",
"R  c #652969",
"E  c #663569",
"W  c #632C7C",
"Q  c #662A78",
"!  c #752A79",
"~  c #763679",
"^  c #6A5446",
"/  c #694657",
"(  c #764A6B",
")  c #5B2C85",
"_  c #6B2C84",
"`  c #662886",
"'  c #752B8A",
"]  c #6A3387",
"[  c #763489",
"{  c #6C2A94",
"}  c #742C9B",
"|  c #7B2C9C",
" . c #792897",
".. c #6B3395",
"X. c #7C2CA3",
"o. c #7929A7",
"O. c #772CB0",
"+. c #6D1D92",
"@. c #863789",
"#. c #842B9A",
"$. c #863599",
"%. c #8F2D8C",
"&. c #832CA4",
"*. c #832CAB",
"=. c #892BA9",
"-. c #952AA9",
";. c #8C33AB",
":. c #8836A8",
">. c #9638AA",
",. c #882CB5",
"<. c #952DB7",
"1. c #8C32B3",
"2. c #9737B7",
"3. c #A639A8",
"4. c #A53AB9",
"5. c #B12FB3",
"6. c #924892",
"7. c #AA4E99",
"8. c #9B44B6",
"9. c #8D49AB",
"0. c #A646B7",
"q. c #B74BB7",
"w. c #B453BC",
"e. c #B965B8",
"r. c #C64BB8",
"t. c #CF53B4",
"y. c #C665B9",
"u. c #CD6FB4",
"i. c #DA5BB3",
"p. c #A539C5",
"a. c #B453C3",
"s. c #BC54C4",
"d. c #BB57C8",
"f. c #BB67C5",
"g. c #C857D4",
"h. c #C865C6",
"j. c #D370CD",
"k. c #ED4FE8",
"l. c #CD8BB8",
"z. c #E991D2",
"x. c #D2AFCF",
"c. c #E5B8C9",
"v. c #F9A8E7",
"b. c #EEB0EC",
"n. c #EBCBD4",
"m. c #774A57",
"M. c #774590",
"N. c #35281D",
"B. c #3B2C24",
"V. c #74554A",
"C. c #A83595",
"Z. c #CE37CD",
"A. c #D8B9C9",
"S. c #D9B9D5",
"D. c #E7A9D8",
"F. c #E6B7D7",
"G. c #785655",
"H. c #F392EC",
"J. c #753469",
"K. c #AA54A9",
"L. c #D44ED2",
"P. c #D1B6B7",
"I. c #C987C7",
"U. c #DAA3E3",
"Y. c #F8B6D8",
"T. c #D4C4CF",
"R. c #533B39",
"E. c #514334",
"W. c #473248",
"Q. c #472557",
"!. c #521C6A",
"~. c #673378",
"^. c #6C2B8B",
"/. c #732C94",
"(. c #783397",
"). c #7B33A5",
"_. c #963899",
"`. c #8332A4",
"'. c #8934B7",
"]. c #9945A8",
"[. c #A749AA",
"{. c #B54BAA",
"}. c #B656AA",
"|. c #AC4CB4",
" X c #AC4CBB",
".X c #B34DBC",
"XX c #AC53B7",
"oX c #B453B4",
"OX c #BB53BC",
"+X c #B958B7",
"@X c #C557BA",
"#X c #9935C4",
"$X c #AA46C4",
"%X c #B74AC6",
"&X c #B350CD",
"*X c #9C45C4",
"=X c #C64BC7",
"-X c #C354C4",
";X c #C355CB",
":X c #C45ACB",
">X c #C859C7",
",X c #E94FD2",
"<X c #E96ED3",
"1X c #D48ECF",
"2X c #FAB7E6",
"3X c #F6CDE9",
"4X c #1D1C1C",
"5X c #5B4546",
"6X c #684A46",
"7X c #5F4F64",
"8X c #ECDBE0",
"9X c #B234CA",
"0X c None",
"qX c #F3ACD1",
"wX c #6F4F50",
"eX c #884C72",
"rX c #B16899",
"tX c #B98DC9",
"yX c #BAC5B2",
"uX c #DFC4B5",
"iX c #68431E",
"pX c #1A1817",
"aX c #381C29",
"sX c #CE28AC",
"dX c #D8C3C8",
"fX c #BAB0A7",
"gX c #D1C5B7",
"hX c #E839DD",
"jX c #3A2425",
"kX c #D657E4",
"lX c #8A3275",
"zX c #2F2B5C",
"xX c #B425CF",
"cX c #835558",
"vX c #594739",
"bX c #69503A",
"nX c #B46BAC",
"mX c #64493A",
"MX c #6B1B64",
"NX c #B88AB4",
"BX c #E3AAB7",
"VX c #4D1732",
"CX c #9B1998",
"ZX c #D658C7",
"AX c #534652",
"SX c #8E626C",
"DX c #922EC4",
"FX c #342F19",
"GX c #513398",
"HX c #37444E",
"JX c #971A60",
"KX c #611828",
"LX c #341419",
"PX c #B91242",
"IX c #170617",
"UX c black",
/* pixels */
"0X0X0X0X0X0X0X0X0X0X0X0X0X0X0X0X% - % - - - 6 ; # # 8 6 > ; 9 3 # 9 # 9 D c l 6 ; ; # w e w 9 ; @ - - @ 8 p @ @ 0X0X0X0X0X0X0X0X% % % % % + % % 0X0X0X0X% * ",
"0X0X0X0X0X0X0X0X0X0X0X0X0X0X0X0X- % % - 8 - ; 6 8 8 6 7 3 ; 9 6 9 6 6 w AXW.9 0X0X1 9 9 w w 6 @ 6 - - - @ $ - $ - - % % * - - * % - + - % % % - 0X0X0X0X- 0X",
"0X0X0X0X0X0X0X0X* * 0X0X* - - - - - - - - - 6 6 j 8 7 ; ; > 9 6 9 9 8 w D W.w 6 ; 1 9 9 e w 6 6 @ 8 - - - @ p @ - % % % % % % % 0X0X0X0X0X0X0X0X0X0X0X0X0X0X",
"0X0X0X0X0X0X0X0X- = = - * = - = 0X0X6 ; - 8 6 6 8 # ; 6 ; ; ; 9 # 9 # w AXz r # @ ; 9 w k w 6 @ @ - - - p 8 - 8 - - % % % % % % 0X0X0X0X0X0X0X0X0X0X0X0X% 0X",
"0X0X0X0X0X0X0X0X= * * - - - 0X0X- - 6 6 6 9 w 9 r 8 6 ; ; ; 6 6 6 9 8 w 8 w 8 # & , w 9 e w 6 6 - - - - - - @ $ * % = * % = % % * 0X0X0X0X0X0X0X0X0X0X- % + ",
"0X0X0X0X0X0X0X0X- - = = = * = * - - 6 ; 6 8 9 w w w 6 6 6 > 9 6 9 # w # w w e 8 ; ; # 9 w w 6 ; - - - - @ - - - - % - % * * % - 0X0X0X0X0X0X0X0X0X0X0X- % % ",
"0X0X0X0X0X0X0X0X* - = - - = - - 6 - 6 6 w e k l V m l z 9 8 w w 6 9 w w w 8 # # & 3 # 9 w w 6 6 8 @ - - - - @ p % % % % % % % % 0X0X0X0X0X0X0X0X0X0X0X0X0X- ",
"0X0X0X0X0X0X0X0X- = - % 0X0X; - ; ; w w k w l c 7XD m l l w 9 9 8 9 8 # w # e 8 & & w 9 w k 9 6 @ 8 - 8 - - - 8 0X0X- = * - * = 0X0X0X0X0X0X0X0X0X0X0X0X0X0X",
"0X0X0X0X0X0X0X= 0X0X0X0X0X* - > 9 8 k l x j T J Y T v x j k w e 9 9 1 9 # 1 9 9 w 9 x n Z Q.z k 9 9 6 6 - @ @ 6 % % = % = - % % % % 0X0X0X0X0X0X0X0X0X0X0X0X",
"0X0X0X0X0X0X0X* 0X0X0X0X0X> & > 6 9 k z x j T J ~.) J J k k e w e 9 9 6 6 9 # 9 8 w x V Z T x z w w 6 6 8 8 - @ % - - % - - * & % 0X0X0X0X0X0X0X0X0X0X0X0X0X",
"0X0X0X0X0X0X0X> 0X0X0X0X0X= > > 9 y z n J J ) ) ..).Q P Q.Q.k d w z w 9 9 8 w w j x J J U W J Q.n j w k 8 # 6 6 ; & % % % O % % % 0X0X0X0X0X0X0X0X0X0X0X0X0X",
"0X0X0X0X0X0X0X- 0X0X0X0X0X* > > 9 9 n M J !.....M.).~.Q S Q.M n l k t e 6 8 l l n V J U ) _ T J n n w j 8 c w 6 ; & & & % * % & 0X0X0X0X0X0X0X0X0X0X0X0X0X0X",
"0X0X0X0X0X0X0X0X0X0X0X0X0X* - > 9 y M Q.T T M.).*X*XGX] v Q.n M n n l k r r l m J Q.U ` { { ) U Q.v j k k k 8 w & - % = % O % % 0X0X0X0X0X0X0X0X0X0X0X0X0X0X",
"0X0X0X0X0X0X0X> 0X0X0X0X0X> & > 2 e N Q.T GX9.9.9.9.M.) S S C M n Q.l l r l m m J T U W { /.` ) Z Q.n k 8 k 8 6 ; - & & O % % % % % 0X0X0X0X0X0X0X0X0X0X0X0X",
"0X0X0X0X0X0X0X0X0X0X0X0X; & > ; e f Q.S ) Y 9.9.9.9.M.] S P S N S S M M x V J J U Q +.+.} :...^.K S Q.z z w 8 w > ; = % % % % % % % 0X0X0X0X0X0X0X0X0X0X0X0X",
"0X0X0X0X0X0X0X- = > - > ; - > 3 y f S A Y ` ).9.9.9.] ] L K C N N Q.m C Z Z T L U W ^./.| ).(...K K n Q.l z w 9 ; ; & % = 0X0X0X- = 0X0X0X0X0X0X0X0X0X0X0X0X",
"0X0X0X0X* * - * * 0X0X0X& > 0X0Xr t M Q.Q W 9.6.9.6.) ] K K F S S S F A T U ` ` +.{ o.O.).*.{ { L K Z C d t 3 < > - * * % % * * % % & % & % % & % = % 0X0X0X",
"0X0X0X0X* * * = * * - - 0X0X7 7 e t v v W _ (.(.M.$.W _ L P N S F R F G Y ~._ ^.} X.O.'.:.O.....E L K Z b d 5 3 > & = = % o % - ; % % ; - & - & - & & % & % ",
"0X0X0X0X: * * * : * > > 6 7 9 r t u N C ~.[ 9.(.[ (._ ` R R L E R E ~.E { /. . .o.=.1.2.'.`.} { _ _ Y P D W.t q 9 0X0X0X0X0X% = % & & % = % ; % % & % - - & ",
"0X0X0X0X* * * * * * = - ; 9 9 9 t t v C Q ! M.(._ ' ` Q Q R E R E E E ~._ /.X. .o.=.1.2.1.`.).{ ] ^.Y Y D C b r 3 3 0X0X0X0X% - - % 0X0X0X% % & & - % & % % ",
"0X0X0X0X* * * * * : > > > 7 9 9 9 q v n P !.~ [ U Q Q ` ! W ~.! J.J.' [ +.&.&.#.=.=.<.<.;.;.X.X.{ { ` ) F C d t 9 1 & - = & - & 0X0X= ; % = % % - % % - 0X0X",
"0X0X0X0X* * * * * : > - 6 7 r 9 9 t M C P S ~.W U _ ` Q ~.! ! ! ! ~ @.$. .| =.=.=.=.<.2.1.:.X.X...} ..) F C b d q 1 > - * % % - 0X0X% % % % % & - & & % - & ",
"0X0X0X0X* * * * : : ; ; 6 9 9 y y r n n P K Q Q W [ [ _  .[ ' 0X0X@.#.| *.,.<.<.<.<.<.<.1.*.:.O.O.O.) ` E I B b q 9 1 ; ; ; & - & - % ; & - 0X0X% - % - % = ",
"0X0X0X0X* * * : > 0X0X> 6 0 e r q t v N J P L R ~ [ [ [ ' %.#.[ #.[ `.$.,.'.<.<.<.2.<.2.1.1.1.'.O.O...` L A C b d r 3 3 1 & % % % & % % & % & - & = % & & - ",
"; ; - - * - - > > > ; 6 6 9 t e d q M M S P Q ` ` ^. ./.&.&.&.-.=.=.,.,.<.<.#X<.<.DX<.<.=.,.'.9.O.O.} { E L N N b b 0 1 0X0X; - ; - - - & - - - - - - 0X0X0X",
": 6 - : * * > = > * ; 6 9 r t l q f W.N P P ` ` ^./.| } :.;.;.;.<.;.<.<.2.#X<.#X<.#X<.<.,.;.'.2.,.O.} { ~.R S v b b q 4 3 3 ; ; & - - - > - = - * - = - - - ",
"8 - * - * = - > > & 0 9 y e k d M M P P ` ` +.} ).} *.).=.;.2.2.2.2.#X<.2.xXp.#X2.<.<.<.=.;.2.8.DXO.X.&.' ! ! MXN M q q y 1 ; ; & ; - = = - * - % - - = = - ",
"- - - : * * * = ; > 9 9 w w d b M N S L ` ` o.o.} X.`.*.;.2.0.$X4.2.p.#X#X#X#X#X#X#X<.<.<.;.8.2.'.DXX.=.' %.+.MXC C f q 9 9 6 ; - - - - * = - = = = * = - = ",
": - * - * * - > ; ; 9 9 r t b M v P Q ` +.^. .| | X.'.*X$X$X$Xp.$Xp.2.xX#X9X0X0X2.#X2.<.>.2.8.2.#X#X1.'.' %.MX! L L C n b e # 9 - - > - = * - = - 0X0X* - * ",
"- 8 - - : : = > & 3 7 9 w e b B P K ` _ +.{ | X.`.:.2.$X$X$X$X%X$X9Xp.p.0X0X0X<.#X#X2.2.4.2.$X4.*X#X1.1.+.%.+.' R L C n n k e 9 > 0X0X0X- - = - * - - % = = ",
"$ 8 - : * * - 0X0X; 9 w k l n M U W } } X.o.=.=.>.].$X0.a.d.s.%X&X9X&XxX4.<.#X4.#X2.4.4.3.4.4.4.$X$X2.2. .#.'  .^.` !.U Q.Q.k e 1 ; ; ; - - * % * = = = % - ",
": : : ; = > > & ; ; 9 9 l l N C W W } } o.&.=.-.>.0.$Xa.s.&Xd.d.&X&X&X9X9X9Xp.p.2.p.#X0.4..X%X$X&X&X*X8.#.#.%.' ` ` U U J Z l e ; 3 ; - - = - = - - * - * - ",
"* > : : = * : > ; ; 9 w l l A A Q Q +.o.,.o.>.0.|.w.&Xs.d.;X-Xd.=X&X&X9Xg.9Xg.%X4.%X.X%Xq.=XOX%Xa.a.0.0.8.8.(.`./.^.U U Q.Q.n n 9 9 6 : - - - % 0X0X0X* * * ",
"> > > : : : = * ; 6 w 9 l W.Z I Q Q *.o.,.*.].].XXw.s.=X&Xd.d.-X&XL.g.=Xg.&X&X%X$X%X%X%X;X;Xs.s.%Xa. X X0. X`.#.| /.` U J v b n r 9 : 0X0X0X* - 0X0X* * * * ",
"> > : > > * = > 6 - w l n m A I ` ' #.*.,.*.].[.oXoX;X&Xg.d.-Xd.g.g.g.%X&Xg.%X%X%X%X=Xg.;X;X-X-Xw.a.XXXX8.XX>.:.`.| /.` Q !.Q.v k w 9 6 - - = * 0X0X0X0X0X0X",
"> - : > : = > * ; 6 w e z m A K Q _ o.*.,.,.8.[.oXoX%X;X&Xd.-X-Xg.g.=Xg.g.g.=X=X=X;X-X;X;X;X-X-Xs.a.a.XXXXXX:.:.| | (./.Q Q S !.e k 9 0X0X> - * 0X0X0X0X0X0X",
"> > > : > * > > 6 > w l z m A K ' ' *.,.DX,.*X0.{.oX-X%Xg.%X;X-X&Xg.=X;XL.g.=X%X;Xg.=X;X;X-X>X-X+Xs.w.XXXXXX;.$.X.&.#. .' +.R !.b k 9 7 ; ; = > 0X0X0X0X0X0X",
"> - : > : = > > 6 7 w w z m A K ' ' O.o.DXDXa.a.oX+X%X=X&Xg.;X-Xg.g.g.g.g.g.;X;X=X;X;X;X;X:X-X-Xs.+Xw.XXXX|.].$.#.&. . .' ^.` Q b e 9 7 > ; = 0X0X0X* * * * ",
"> > > : = : > > > > r r l m V I +.#.,.O.DXDXa.%XoXoXs.;X;Xs.y.+Xg.=X>Xg.>X;X=X;X;X;X;X>X;X>X@X-Xa.+Xw.a. XXX>.>.=.&.o.&. . .^.+.b e r 9 6 > - > * = * * = * ",
"- > > : : : > > 7 7 r r l z Q.K #.+.O.,.#XDXa.a.oXoX;Xs.d.-X+X@X%Xg.;X;Xg.:XZX;X>X;X=X>X;X-Xs.@Xd.+Xa.XX X8.8.;.=.&.o.o.{ } ` ` l k 9 6 > ; > - - > 0X0X0X0X",
"> > > ; : : > > > 0 0 0 l l V C ` ` O.,.,.O.9X9XoXoX-Xs.g.s.-Xs.;X;XOX@Xy.+X<Xj.;X;X>Xg.>X=X-Xd.f.a.f.XXXX X>.>.&.&.X.o.} o.0X0Xb e 0X0X0X0X> ; > * = - > - ",
"- > : > > : > = > > 9 r z l n C ` ` ,.o.O.,.$X$Xq.+Xs.s.&Xd.s.d.;X;XOX-Xy.@XH.z.-X;X=X>Xg.;X-X-XXXa.XXa.$Xa.8.].| &.X.X.o.} { ) l e 9 8 6 6 & > 0X0X> * * = ",
"> ; > > : : = > > > > 7 w c l V !.` o.,.X.).XX XoXoX%X;Xg.g.s.-X@Xt.e.y.I.1Xv.v.-X:X=XZX>XZXOX:Xa.a.a.XXXXa.2.8.=.&.o.o.o.0X0X) b e r 9 0X0X0X0X0X0X- > - = ",
"> > > ; > > = > > > 9 7 l w m V Q U ,.O.).).|.XXoXw.s.d.&X;Xs.s.@Xt.}.y.j.H.v.v.d.:X=X=X=X>Xs.+Xa.e.a.a.a.a.8.8.:.*.X.o.{ o.) 0X0Xz 9 9 ; 6 - 0X0X0X= * > - ",
": > = > : : = > > > 0 0 r l m m P L | | `.`.[.].{.oX%X%X&Xd.-X-Xy.y.u.l.D.v.b.v.j.h.OXOX-XOXd.d.f.a.a.XXa.a.1.].`.X...o.{ { ) !.b e 9 6 ; 6 0X0X0X0X> * > = ",
"> > > : > : > > 3 i 7 0 l l m V P L } | ).X.].].oXoX-X=Xg.:Xs.@XrX}.l.z.qXv.v.b.y.e.d.-X-X-X+Xd.a.a.a.a.a.a.>.:.X.X.o.).{ { ) !.l k 9 7 6 ; 0X0X* = = - - = ",
"> > > > : : = > > > 7 7 w w n m Z K ^...O.*.$.#.oX@X;Xs.=X;Xy.}.rXrXc.3Xn.F.D.n.e.e.h.d.f.-Xd.s.a.f.&X&X.X0.`.$.#.#.} | ] ` J J t w 7 ; > > > - = > - - > - ",
"= > > > > > > > > > > 7 r r z m Z A ^./.*.o._.$.oXw.;Xs.;X;X@Xt.rXu.Y.3XF.F.D.b.nXK.h.h.@X+X+XOXf.a.&Xf.$X0._.#.`.`.| } W ) J Q.t w 7 6 > ; = > - - - > - - ",
"0X0X0X: i O : = i = > i 0 0 l l x zX~.~.&.#.CX5.k.k.hXZ.,Xg.t.}.NXfX8X3XS.A.D.F.H.1Xh.>XZXr.>Xr.a.a.&Xa.$X0.#.#.=.=.(./.~.U V n r 0 > 7 > - > * * = - - - 0X",
"0X0X> : = = > : > > 3 i 0 0 k l c x I Y &.=.5.CXk.k.k.k.<Xt.}.t.l.l.3X8XS.A.c.A.1X1X@X@Xt.t.@Xq.a.f.&Xd. X0._.#.`.#.{ /.L Y Q.n 0 9 ; ; - > = > - * % - - 0X",
"0X0X0X= > > = i > = > > 0 > r r Q.S !.Q CXCXxXxXhXhX,X,X,X,Xi.i.A.fXn.T.dXT.A.x.1Xj.q.@X=Xt.{.q.XXXXXXXX4.>.-.#.X.X.^...A A k e 0 > ; > > > = - = - - = * = ",
"= > > > = > = = = > > > > 7 r r Q.v MXQ -.<.Z.sXhXhXhX,Xi.,X<X<XP.x.8XT.dXT.A.x.z.U.r.r.ZXZXr.r.|.XX[.[.4.>.*.&.X.} ` ` Q.A w e 0 > > > - > - = * * - = * 0X",
"0X0X= = i = = > > > > > > > r u m m S S %.%.5.5.sXZ.,X,XhX,X<X<X8X3Xn.S.dXdXA.A.U.U.<Xg.ZX@Xh.y.h.@X3.[.3.>.*.O...{ U U m D y 9 0 ; > & 0X0X0X- - = = 0X0X0X",
"0X= i < = = = i > > > 3 > 0 0 r b c v MXJXCX5.5.sXZ.L.k.hX,Xi.<Xn.n.T.T.A.A.A.S.b.U.H.j.ZX@XZXj.j.y.{.3.>.-.,.O.{ { U 0X0XC 9 0 > 0 - > - 0X0X0X* - - * = 0X",
"0Xi = > > < i < = > > > > > 3 u c c V m Q Q #.CX5.xX9XkX=XL.>XZXc.c.BXP.P.c.S.S.b.U.H.j.y.@XZXZXj.j.-X|.-.#.|  .~.Y Z Z b b q 9 > ; > - 0X0X= > % = - = 0X0X",
"0X< = > > > = > > < 3 i > > 3 > u c C n !.MXJX%.CXCX9Xg.Z.L.j.j.qXc.P.l.c.A.n.U.b.U.1X1Xy.u.j.ZX<Xg.-X3.#.#. .{ Y U Z Q.e y 9 0 3 ; > > 0X0X- * - - 0X0X0X> ",
"> = < > i < = > i = > > > > i u c i HXAX] W %.Q -.CX5.<.Z.Z.k.,XD.qXF.F.c.c.qXc.v.U.j.y.<Xi.i.t.@X@X[.CX%.' Q Q K Z x l w 0 3 3 > = > : > = = > = * = : = - ",
"< = i > = > > = < > > = > < 3 i i i c HXP ~.! lX<.-.xXxXZ.Z.,Xk.D.c.Y.Y.F.c.c.F.D.H.u.@Xi.<Xi.t.}.[._.%.! ! R R J Q.z z 9 9 & > > = * : > - - : - > - - : = ",
"i = > = = > i = i > > i > > > > u 3 f d v v MXMXC.-.r.5.L.L.k.kXz.qX2X2XY.Y.qXqXqXD.y.}.@X@X{.[.6._.! ! !.MXA Q.x n l l 7 9 > > > = : - > * = = > > > = > = ",
"> = = = i = = > = = > : i > > i 5 > 0X0Xv S MXMX_._.q.5.k.,XkXhXl.z.2X2XF.D.c.c.z.1XnX}.}.}.[.7._.@.' ! R R K S m l l w 3 > 3 > = > : : > > - - - * * > > - ",
"= O > > > > < = > = > > > > > i 0 1 vXbXV.G.( 7XlX0X0XrX@Xh.g.g.u.u.z.z.Y.Y.z.l.j.u.oX}.[.3.>.-.~ E S MXv N M d t t r 0 7 7 7 ; 6 : : > > = - = > > * - - > ",
"> i = > = > i = > i > > > > > 3 3 > bXV.V.cX( G.lX6.lX7.@Xy.kXkXi.i.<XBX2XY.BXu.u.nX{.[.3.3.>.-.! ! P L S S M b d q 0 0 7 7 7 7 > ; : : > : = > = > = > = > ",
"i < > = = = = i = > > > > > > 3 FX0X0X7X7X^ E.E.G.( ( ( 9.].].[.rXu.u.u.rXl.SXSX[.]._.%.! %.! Q N N VXn y b u d u 5 3 0 7 8 : 6 - > > : > > * - > - > - - > ",
"< > > > i < > < > > 3 i > 3 > 0X0X0X^ 7XG.7X^ ^ ( 7X( ~ (.6._.7.rXrXrXrXl.u.rX7._._.%.%.MX! ! MX0X0XVXM f b q u u u 3 > 7 : 7 8 > > - : * * = > - > - > > > ",
"0X0X0X0X0X0X0Xi 0X0X0X3 > > = & ^ ^ ^ 0X0Xm.6XcXcXcX/ m.G / m.( ( ( J.J.G H H F G E G F F B N N h M f f q d q u 0 9 0 6 > > > > - 0X0X0X0X0X0X0X0X0X0X0X0X0X",
"0X0X0X0X0X0X0X0X0X0X0X> > > < & 7XV.^ AXV.cXV.H cXcXm.m.B / H G ( J.H H B H S H G G F F N S N N M h f f y q q 0 9 9 9 3 > 7 > - > - 0X0X0X0X0X0X0X0X- > - 0X",
"0X0X0X0X0X0X0X> > > > > > > > O AX0X0X0Xm.V.bXmXV.V.6Xm.B / B B G B N N N N M N N N h M f f f f B B 5XB g q 4 3 3 1 3 > > > ; > 0X0X0X0X0X0X0X0X0X0X0X0X0X0X",
"0X0X0X0X0X0X0Xi 0X0X0X0X0X0X= = ^ ^ bX5XbX0X0XH bXm.m.m./ 6XN M B N N h N N f N W.M h d d f d M 5XB AX5XB d 9 , ; 3 ; ; > 0X0X- 0X0X0X0X0X0X0X0X0X0X0X0X0X0X",
"0X0X0X0X0X0X0X0X0X0X0X0X0X0X& & 0X0X0X0X0XmXbXV.G.G.G.0X0X5Xf f d a f d f y f a a f f a f h g R.h a 0X0X0X0Xu 5 ; 1 ; 3 > > - > 0X0X0X0X0X0X0X0X0X0X0X0X0X0X",
"0X0X0X0X0X0X0X3 0X0X0X0X0X0X& & vX5XV.V.mXvXV.bXG.G.0XG.5XB a f f f d d f f f f f a f f f f h h g h s g 0X0Xg 5 , @ ; ; > > > - 0X0X0X0X0X0X0X0X0X0X0X0X0X0X",
"0X0X0X0X0X0X0X0X0X0X0X0X0X0X= & vXvX^ ^ mXvXbXR.^ ^ 5X6XvX5Xa q 4 a 4 jX1 jX4 4 f 0X0Xa s h vXB R.R.R.s s g g s & ; 0X0X> > - > 0X0X0X0X0X0X0X0X0X0X0X0X0X0X",
"0X0X0X0X0X0X0X0X0X> 0X0X0X0X= = 0X0XvX^ mXmXbXmX6XbX6X0X0X0X4 4 4 4 jX, , 1 B.4 g f 2 B.a h 0X0XR.R.E.g a 5 0X0X@ & 0X0X7 3 > > 0X0X0X0X0X0X0X0X0X0X0X0X0X0X",
"0X0X0X0X0X0X0X0X0X0X0X0X> > > < HX0X0X0X0X^ ^ V.R.mXvXE.0X0X< < o O = O , = < 5 3 B.a 5 a s g R.0X0X0X0X0X0X0X0X0X0X0X0X0X0X0X0X0X0X0X0X0X0X0X0X0X0X0X0X0X0X",
"0X0X0X0X0X0X0X0X0X0X0X0X0X0X0X& 5 AX0X0X6X0X0X0X0XvXR.s B.jX< < & < < O N.< < B.B.< B.0X0Xa 0X0X0X0X0X0X0X0X0X0X0X0X0X0X0X0X0X0X0X0X0X0X0X0X0X0X0X0X0X0X0X0X",
"0X0X0X0X0X0X> > > 3 i 0X0X0X% X O 0X0X0X0X5XvXvXvXg a N., < = o O . X X X X o & = < < < B.5 s g 0X0X0X0X0X0X0X0X0X0X0X0X0X0X0X0X0X0X0X0X0X0X0X0X0X0X0X0X0X0X",
"0X0X0X0X0X0X0X0X0X0X3 0X0X0XX 4X0X0X0X0X5XvX5XvXg a N.N., , 0X0X0XX 4XX X . O o & = , < < < 2 0X0X0X0X0X0X0X0X0X0X0X0X0X0X0X0X0X0X0X0X0X0X0X0X0X0X0X0X0X0X0X",
"0X0X0X0X0X0X0X3 0X0Xi 3 0X0XX 4X4X4X% & 0X0X0XO 4 < & & = = - + % % + + @ + % @ @ & @ 0X0X0X0X0X0X0X0X0X0X0X0X0X0X0X0X0X0X0X0X0X0X0X0X0X0X0X0X0X0X0X0X0X0X0X",
"0X0X0X0X0X0X0X0X3 i 0X0X0X0X0X0XX = = = & = o , & o o & -   % + % * + % & @ 0X0X+ + & . o o < 0X0X0X0X0X0X0X0X0X0X0X0X0X0X0X0X0X0X0X0X0X0X0X0X0X0X0X0X0X0X0X",
"0X0X0X0X0X0X0X0X> > 3 > > > > = + 4X0X0X0X0X0X% . X % % - + - 0X0X0X> 0 0 0 3 @ ; % 0X0X0X& ; & 3 , 3 1 & , @ @ + 0X0X0X: 0X0X0X0X0X0X0X0X0X0X0X0X0X0X0X0X0X",
"0X0X0X0X0X0X0X0X0X> i 3 > > > > - 0X0X@ . . . . & + + + @ ; - 0X0X3 i 0 7 0X0X; ; - + + + @ & + % @ & + % + + + % & 0X0X0X0X0X0X0X0X0X0X0X0X0X0X0X0X0X0X0X0X",
"0X0X0X0X0X0X0X0X0X0X0X0X> 3 i > > > > % X 0X0X% & * = = & & 7 ; 7 > 0 0 0 > > > 3 - % + % +   + + + @ + + + %   + % > 0X0X0X0X0X0X0X0X0X0X0X0X0X0X0X0X0X0X0X",
"0X0X0X0X0X0X0X0X0X0X0X0Xi 3 3 > > > > = = = * & = = > > > 7 7 > 7 7 > i 0 7 > > 7 > - % % %     + + . + +   4X+   = & 0X0X0X0X0X0X0X0X0X0X0X0X0X0X0X0X0X0X0X",
"0X0X0X0X0X0X0X0X0X0X0X0X0X0X0X0X0X0X0X0X0X0X0X0X0X0X0X0X0X0X0X0X0X0X0X0X0X0X0X0X0X0X0X0X0X0X0X0X0X0X0X0X0X0X0X0X0X0X0X0X0X0X0X0X0X0X0X0X0X0X0X0X0X0X0X0X0X0X",
"0X0X0X0X0X0X0X0X0X0X0X0X0X0X0X0X0X0X0X0X0X3 i i 0X0X0X0X0X0X0X0X0X0X0X0X0X0X0X0X0X0X0X0X0X0X0X0X0X0X0X0X0X0X0X0X0X0X0X0X0X0X0X0X0X0X0X0X0X0X0X0X0X0X0X0X0X0X",
"0X0X0X0X0X0X0X0X0X0X0X0X0X0X0X0X0X0X0X0Xi 3 > > > > 0X0X0X0X0X0X0X0X0X0X0X0X0X0X0X0X0X0X0X0X0X0X0X0X0X0X0X0X0X0X0X0X0X0X0X0X0X0X0X0X0X0X0X0X0X0X0X0X0X0X0X0X",
"0X0X0X0X0X0X0X0X0X0X0X0X0X0X0X0X0X0X0 > i 3 3 3 0 0X0X0X0X0X0X0X0X0X0X0X0X0X0X0X0X0X0X0X0X0X0X0X0X0X0X0X0X0X0X0X0X0X0X0X0X0X0X0X0X0X0X0X0X0X0X0X0X0X0X0X0X0X"
};
