/* XPM */
static char *_a20353eb8434bd2f1c2a8740e7404e78vAgghH6n4FzEMlb_30[] = {
/* columns rows colors chars-per-pixel */
"78 86 256 2 ",
"   c #221D1D",
".  c #271D1A",
"X  c #24221D",
"o  c #2B231D",
"O  c #2A291D",
"+  c #231E21",
"@  c #291D28",
"#  c #321B36",
"$  c #1B2C29",
"%  c #252425",
"&  c #2A2524",
"*  c #252926",
"=  c #2A2925",
"-  c #262529",
";  c #2A262B",
":  c #26292A",
">  c #2B2A2B",
",  c #332523",
"<  c #342A24",
"1  c #33252C",
"2  c #3B242C",
"3  c #322A2D",
"4  c #3B2B2B",
"5  c #3B312A",
"6  c #2C2532",
"7  c #2D2A32",
"8  c #2B2638",
"9  c #322634",
"0  c #332A34",
"q  c #3B2B34",
"w  c #34253B",
"e  c #3A253C",
"r  c #352B3A",
"t  c #3A2B3C",
"y  c #3C2433",
"u  c #383138",
"i  c #283332",
"p  c #1D1F20",
"a  c #432B2A",
"s  c #46352B",
"d  c #442A3B",
"f  c #462837",
"g  c #493735",
"h  c #522E37",
"j  c #381C4A",
"k  c #3B2543",
"l  c #3C2B43",
"z  c #392747",
"x  c #3C2653",
"c  c #342E47",
"v  c #4A1C52",
"b  c #432B44",
"n  c #43254C",
"m  c #432B4B",
"M  c #492947",
"N  c #542A48",
"B  c #573748",
"V  c #452B53",
"C  c #4B2C54",
"Z  c #4C2B5B",
"A  c #532C5C",
"S  c #552857",
"D  c #4A3256",
"F  c #573358",
"G  c #653857",
"H  c #692E54",
"J  c #4B2865",
"K  c #542B63",
"L  c #5B2C6C",
"P  c #572768",
"I  c #583367",
"U  c #5A2976",
"Y  c #5B3375",
"T  c #4C306C",
"R  c #652969",
"E  c #663569",
"W  c #632C7C",
"Q  c #662A78",
"!  c #752A79",
"~  c #763679",
"^  c #6A5446",
"/  c #694657",
"(  c #764A6B",
")  c #5B2C85",
"_  c #6B2C84",
"`  c #662886",
"'  c #752B8A",
"]  c #6A3387",
"[  c #763489",
"{  c #6C2A94",
"}  c #742C9B",
"|  c #7B2C9C",
" . c #792897",
".. c #6B3395",
"X. c #7C2CA3",
"o. c #7929A7",
"O. c #772CB0",
"+. c #6D1D92",
"@. c #863789",
"#. c #842B9A",
"$. c #863599",
"%. c #8F2D8C",
"&. c #832CA4",
"*. c #832CAB",
"=. c #892BA9",
"-. c #952AA9",
";. c #8C33AB",
":. c #8836A8",
">. c #9638AA",
",. c #882CB5",
"<. c #952DB7",
"1. c #8C32B3",
"2. c #9737B7",
"3. c #A639A8",
"4. c #A53AB9",
"5. c #B12FB3",
"6. c #924892",
"7. c #AA4E99",
"8. c #9B44B6",
"9. c #8D49AB",
"0. c #A646B7",
"q. c #B74BB7",
"w. c #B453BC",
"e. c #B965B8",
"r. c #C64BB8",
"t. c #CF53B4",
"y. c #C665B9",
"u. c #CD6FB4",
"i. c #DA5BB3",
"p. c #A539C5",
"a. c #B453C3",
"s. c #BC54C4",
"d. c #BB57C8",
"f. c #BB67C5",
"g. c #C857D4",
"h. c #C865C6",
"j. c #D370CD",
"k. c #ED4FE8",
"l. c #CD8BB8",
"z. c #E991D2",
"x. c #D2AFCF",
"c. c #E5B8C9",
"v. c #F9A8E7",
"b. c #EEB0EC",
"n. c #EBCBD4",
"m. c #774A57",
"M. c #774590",
"N. c #35281D",
"B. c #3B2C24",
"V. c #74554A",
"C. c #A83595",
"Z. c #CE37CD",
"A. c #D8B9C9",
"S. c #D9B9D5",
"D. c #E7A9D8",
"F. c #E6B7D7",
"G. c #785655",
"H. c #F392EC",
"J. c None",
"K. c #AA54A9",
"L. c #D44ED2",
"P. c #D1B6B7",
"I. c #C987C7",
"U. c #DAA3E3",
"Y. c #F8B6D8",
"T. c #D4C4CF",
"R. c #533B39",
"E. c #514334",
"W. c #473248",
"Q. c #472557",
"!. c #521C6A",
"~. c #673378",
"^. c #6C2B8B",
"/. c #732C94",
"(. c #783397",
"). c #7B33A5",
"_. c #963899",
"`. c #8332A4",
"'. c #8934B7",
"]. c #9945A8",
"[. c #A749AA",
"{. c #B54BAA",
"}. c #B656AA",
"|. c #AC4CB4",
" X c #AC4CBB",
".X c #B34DBC",
"XX c #AC53B7",
"oX c #B453B4",
"OX c #BB53BC",
"+X c #B958B7",
"@X c #C557BA",
"#X c #9935C4",
"$X c #AA46C4",
"%X c #B74AC6",
"&X c #B350CD",
"*X c #9C45C4",
"=X c #C64BC7",
"-X c #C354C4",
";X c #C355CB",
":X c #C45ACB",
">X c #C859C7",
",X c #E94FD2",
"<X c #E96ED3",
"1X c #D48ECF",
"2X c #FAB7E6",
"3X c #F6CDE9",
"4X c #1D1C1C",
"5X c #5B4546",
"6X c #684A46",
"7X c #5F4F64",
"8X c #ECDBE0",
"9X c #B234CA",
"0X c #F471EB",
"qX c #F3ACD1",
"wX c #6F4F50",
"eX c #884C72",
"rX c #B16899",
"tX c #B98DC9",
"yX c #BAC5B2",
"uX c #DFC4B5",
"iX c #68431E",
"pX c #1A1817",
"aX c #381C29",
"sX c #CE28AC",
"dX c #D8C3C8",
"fX c #BAB0A7",
"gX c #D1C5B7",
"hX c #E839DD",
"jX c #3A2425",
"kX c #D657E4",
"lX c #8A3275",
"zX c #2F2B5C",
"xX c #B425CF",
"cX c #835558",
"vX c #594739",
"bX c #69503A",
"nX c #B46BAC",
"mX c #64493A",
"MX c #6B1B64",
"NX c #B88AB4",
"BX c #E3AAB7",
"VX c #4D1732",
"CX c #9B1998",
"ZX c #D658C7",
"AX c #534652",
"SX c #8E626C",
"DX c #922EC4",
"FX c #342F19",
"GX c #513398",
"HX c #37444E",
"JX c #971A60",
"KX c #611828",
"LX c #341419",
"PX c #B91242",
"IX c #170617",
"UX c black",
/* pixels */
"J.J.J.J.J.J.J.J.J.J.J.J.J.J.J.J.; 3 6 9 w w 8 c - 8 - ; , , = = 3 7 9 9 VXaXLXLXLXVXLXaX+ - - $ - $ J.J.% % % % % % % X p % p % - + + % + p p p p + - p % % ",
"J.J.J.J.J.J.J.J.J.J.J.J.J.J.- > > ; ; ; # 8 8 c 8 @ & 1 , , = = 7 3 2 9 aXaXVXLXLXVX# VX> - p $ % % % % X % X * % X % % % % % % p p p p p J.J.+ % p p % + - ",
"J.J.J.J.J.J.J.J.J.J.J.J.J.J.J.J.& 3 3 6 c c F 7Xj # 6 9 3 9 3 3 3 1 1 1 VX# aXLXLXLXaXVX6 6 $ $ % % % % X % % % % % X % % X p % + % J.J.% - + - + p + + % p ",
"J.J.J.J.J.J.J.J.J.J.J.J.J.J.& > ; & 6 ; 8 z AXT 8 w 6 6 ; 6 3 > 3 3 1 1 aXVXaXVXVXLX# aX6 6 - $ % % * X % % O % X % X $ % % % % - p p % p p p p J.J.J.p J.J.",
"J.J.J.J.J.J.J.J.J.J.J.J.J.J.J.J.> & 9 9 c c HX7X8 j 8 8 # 6 9 9 1 9 1 1 # VXv v S S v n 8 - : $ % * % % X J.J.J.X % % % X p X % + + % + + + % p + - p p - J.",
"J.J.J.J.J.J.J.J.J.J.J.J.J.J.& > & 3 9 ; l c T T j 8 k 8 6 9 9 r 0 9 2 1 v VXv v S H N n 8 8 8 $ - * % O % % % % X X X % % % X * J.J.p - % + + + + p + + p J.",
"J.J.J.J.J.J.J.J.J.J.J.J.J.J.J.3 > = ; ; 6 8 8 # : 6 6 6 9 y 8 i r t e k Q.Q.R P S P v j 8 8 $ $ $ - - % % % O % % % & . + % % * % % + % % + p % % p + + + p ",
"J.J.J.J.J.J.J.J.J.J.J.J.J.J.& > = > 6 > 8 8 8 c 8 8 6 9 9 r r r l t b b Z K R R P P Q.n 8 8 8 - * * % % O % % X % X % X % % - J.J.J.J.+ - J.J.J.p - % p - + ",
"J.J.J.J.J.J.J.J.J.J.J.J.J.J.J.J.> = 3 9 6 6 8 6 ; & ; 9 2 e b k n n Q.Z U U W ` ) U !.!.z z - - - - * % @ $ - @ % X & % % + J.J.J.J.J.J.J.J.J.J.J.J.+ - - p ",
"J.J.J.J.J.J.J.J.J.J.J.J.J.J.> > = > & > 6 6 9 8 3 > 9 3 e y b b m m Q.K Q U ` ] ` U J J z z 8 8 8 - * % p p 8 8 % % % - - @ @ % - J.J.J.J.J.J.J.J.J.J.p p % ",
"J.J.J.J.J.J.J.J.J.J.J.J.= > = > = = & > 7 7 6 8 > 0 9 0 w l x W.!.T U U { { { } ^.` !.!.V n z 8 8 : ; - - - 8 # - ; - ; @ @ - + % + J.J.J.J.J.J.J.% + + + % ",
"J.J.J.J.J.J.J.J.J.J.J.J.J.J.> : = = > > 7 6 6 8 > 3 0 0 z l l W.U U U ` ^./.} } ^.` U U n x z l 7 8 > ; ; 8 8 # @ - @ & ; ; + - @ - J.J.J.J.J.J.J.J.- p + + ",
"J.J.J.J.J.J.J.J.J.J.J.J.J.J.= > = > 1 > 6 7 9 6 3 3 9 r l x V D ` { { { o.o.} o./.^.U !.Z Q.l l 8 8 r 6 3 3 w # 9 6 @ ; 6 - - @ - + J.J.J.J.J.J.J.J.% p p J.",
"J.J.J.J.J.J.J.J.J.J.J.J.: > : > = = > 3 6 7 w r 0 3 r t m m D T { { } } o.o.o.o././.W U Z C l c r i r 9 ; 0 w w 9 9 9 6 6 ; - - - + J.J.J.J.% J.J.J.p % % + ",
"J.J.J.J.J.J.J.J.J.; > ; > > > > > = 3 > r 6 r w 4 r t l V D K I O.O.} } } X.X.X.} (.^.` J D x z l r r 0 9 w j 8 b d 0 9 6 6 6 @ + J.J.- * % + J.J.J.+ % p J.",
"J.J.J.J.J.J.J.J.J.> ; > > 7 > & > > ; > 9 r w r q 5 l W.D A T Y { { O.o.o.X.X.X./.} ] ` K J zXW.l l q q w 6 k z AXW.9 9 6 6 6 - - - - - - J.J.+ % p % + % % ",
"> > : > > > > > > > ; > 7 > 9 > > > 9 0 9 0 r t t d Z D U Y Y ` { o.).).&.=.&.o.#. ./.{ U T C C b b M b x j Q.x P L j Q.# 8 8 8 - - - - - - + - % + J.J.J.J.",
"J.J.J.> : i > > > > 3 > > > > ; ; > 7 7 9 r t l d d Z I ) ) ~.~.} ).).).=.=.&.&.#.#.{ { Y Y B C M d b b x x Q.Q.K T j Q.j z # 8 ; - - - - - - + + % % J.J.J.",
"J.J.J.J.J.J.J.J.7 > ; > 7 > 6 0 9 9 r r r c m b W.C I Y ) ....(.o.).:.:.>.1.=.&.=.CXX.X._ ` S A F F Q.C Q.S P P U ] J L j x 8 j - - ; - - - - % % p J.J.J.J.",
"J.J.J.J.J.J.J.> > > > > 7 0 0 7 9 9 9 0 r l m W.C D L L ) ..(.(.).).;.:.8.8.;.;.-.=.X.o.] ] E E E F A S K J L Q ] (.U Y z z 8 8 ; - - - - p % % % % % % X % ",
"> i : > > i > > > > > > > 0 7 0 0 0 r r l W.V Z K K ~.~./.[ `.(.).o.2.>.0.0.1.;.,.=.*.o././.~.Q E E S S Q MX! Q 9.1.{ { x j j 8 : : 6 - - - % % % % % % p % ",
"> : 7 : > : > > > > ; 0 7 > 7 7 9 r r r z W.Z D A L W [ [ (.| #.1.9.8.8. X$X=.:.*.=.*.*.(.(.~ W E E L L Q Q [ [ 8.8.^.{ x x c 8 : - - - - - % - % + % + X % ",
": > > > > > > > > 7 7 > > 0 7 0 0 r u l V D P I R ~.' [ *.`.=.=.:.2.0.0.a. X>.`.1.,.O.*.(.| ' ' ~.~.R Q ' @.=._.$X#X{ { x x c 8 : - - - p - p - % % + + % % ",
"> : : > : > > > 7 > > 7 > 7 7 7 0 r l l C B L L ~.~. .(.:.`.=.=.`.2.a.&Xa.w.-.-.1.,.*.1.| (.[ [ ~ ! Q ! ' #.>.[.$X*X{ +.v zX8 @ ; ; ; - - - % + % p % % % p ",
"> > 7 : > J.J.J.J.> 7 > i 0 r 8 r r W.l Z F W _ (.' &.&.;.;.<.=.>.4.d..Xd.w.>.$X1.1.1.:.:.&.[ #.~ ! ~.! [ (.6.9.8.9.[ Q z n ; 6 6 : J.J.J.+ - % % % % % % % ",
"7 : > i i > > > > 7 i 7 7 7 r u u u W.W.A I _ ] (.(.&.&.<.=.2.<.4.0.d.w.d.a.>.a.1.'.'.'.;.&.#.(.~ ~ [ ~.[ [ (.9.9.).W W n n ; 7 : ; ; - - p + % + % % X % % ",
"i 7 > > > > J.J.J.> > 7 7 7 u u l W.D Z R E /./.*.X.<.=.2.;.4.p.a.%Xd.J.J.d.0.|.2.<.9.DX'.;.&.#. .' ' ' ' ] ' (.)./.U Q k n 6 9 J.J.; - - - - % % % % % X % ",
": > : 7 > i > > > 7 > 7 7 r u u l c Z F Q ~.' (.X.*.<.*.<.<.$X%Xd.&X-Xd.>X:X3.0.8.#XDX'.'.1.`.X.$.(.' ' ' _ _ /.^.` U Q k n @ 9 : : : p - p - - % % X % % % ",
"> > > i J.J.J.J.i 3 3 7 7 0 u c b W.A I _ _ | `.,.<.<.=.4.<.%X&Xd.&Xd.&Xd.h.a.d.0.4.DX#XDX,.,.,.*.*.X.X.^.` Q _ W Q P L n n # # 7 ; - - p % % - $ % % + % % ",
"i > > > J.J.J.J.> 7 7 3 i u u u l W.K I _ _ | :.,.,.<.<.p.4.&Xd.d.d.:Xd.d.h.d.:X4.4.'.2.'.'.,.,.*.*.X.X.^._ W ~.U U P P n v # y : 6 ; - - - + - + - + % X J.",
"J.: i > > > J.J.J.0 > i 0 u l l D D L Y /.[ &.'.1.-.<.-.4.3.%X:Xf.f.j.j.d.d.d.;X$X4.2.2.'.<.,.,.DXDX,.O.(./._ _ _ W P P n Q.e k : : ; - - - p - % + % % % J.",
"J.> > > > > > : 7 i 0 0 0 u l l D D E ~.^.(.=.:.<.,.2.-.q.|.d.d.d.d.j.H.h.h.-Xd.%X4.2.2.'.#XDXO.DXDX,.*.(./.[ ~._ W L Q v v y k 7 : - - - p % % % % % % % J.",
"J.J.J.> i > i > 3 3 3 u 5 u d b Z T Y ) | X.=.1.2.-.4.$X&X&Xd.d.f.f.j.U.&Xh.;X;X=X;X%X$Xp.2.<.,.'.,.*.*.&.o.o.o.o.o.) { J Q.j w > : : - - - % - % - J.J.J.J.",
"J.J.J.3 > 7 > > i i > 3 0 5 W.g K I ] M.X.| ,.1.;.<.%X&Xs.&Xd.&Xw.d.j.H.&Xd.-X-X;X=X%X%X$X$XDXDX<.2.o.=.o.o.o.+.o.J.J.{ v J w w > 7 6 - - - % % % % % % % % ",
"i 3 i i 3 7 0 > 3 i 3 0 u g b D Y Y [ (.`.X.;.,.4.4.s.s.d.&X&Xd.1X1Xb.b.h.y.h.ZXg.>Xg.;X&Xg.g.$X0.2.-.=.*.*.*.o.o.o.{ { A v z z > > ; - % + - - % % % % % % ",
"0 > > 0 > > > 3 3 3 u 0 q t W.D Y Y ....`.*.<.<.4.p.=X;X&Xd.f.&X1Xj.b.H.e.@X-Xd.-X:Xg.:X&X&Xg.g.$X0.8.2.=.,.o.O.o.J.J.{ !.Q.z c 8 : : - J.J.J.- % % % % % % ",
"> 3 > 0 i 3 3 3 0 3 0 u b W.Z F ) ] ..(.:.X.2.2.5.%Xr.-Xf.a.j.j.I.I.S.b.I.1Xh.y.+X+Xd.s.%X%X&X%X$X.X0.0.<.,.o.*.o. .` ` S Q.w r 7 : ; - - + % - - % % % % J.",
"J.i > > > > > i > u 0 u c W.Z T Y ....(.*.).0.$X%X%XOX-X+XOX1X1XI.tXU.U.1X1Xe.}.h.f.h.d.=X;X;Xs.%X%X X0.2.<.*.1.}  .` +.N v r 9 7 : ; - - - % % % % * % % % ",
"0 J.J.3 3 3 3 3 3 3 r t m m A I { { X.).*.&.2.0.q.r.OXr.nXe.1X1XT.T.F.3XD.F.1Xu.e.e.+X+X;X=X%X=Xa.s. X0.p.2.1.*.|  .` Q S M 0 9 7 > - - - - % - - - % % % % ",
"> > 0 > i > > 3 i i r r m W.K I ..(.).).=.;.4.$Xr.q.@XOX+Xe.x.z.x.S.S.S.D.D.I.1Xh.e.f.d.>Xg.=Xs.a..X$X Xp.2.*.o.| { U Q M S r 9 : ; ; - - - % - % + - J.J.J.",
"J.i > i 3 > 0 > i 4 q q b W.K L { O.,.O.1.=.2.$X$X=X+Xw.1XI.I.I.T.A.S.T.S.S.S.T.I.I.&Xf.;X;X=X-Xa..X0.3.=.-.o.o.' ^.Q J.J.J.jX1 : 7 ; - - - - % % % % & % % ",
"3 3 > J.J.3 3 i > u u u W.C I I { O.O.,.,.<.>.J.J.J.+Xw.1Xj.z.z.S.A.S.S.c.S.S.F.1X1Xe.e.;X-X%X%X X$X0.4.-.<.+.o.' +.!.U v v 3 3 7 > : ; p - % % * % * % % % ",
"> 0 > > > 3 i 3 u 3 l l A Z W W O.O.'.,.-.-.-.4.&X&Xf.XXf.j.c.D.c.S.n.A.S.dXn.S.U.U.e.K.s.OX=X>X0.0.3.>.<.,.*.*./.{ Q J.J.N 3 3 7 : : - - - - - - % % % % % ",
"> > > u i 3 i 3 i u l W.Z F Q ~.O.O.'.,.-.<.-.4.a.&Xe.XXU.U.D.3XS.c.S.S.S.S.S.S.U.S.f.nX-X%Xq.L.0.4.-.=.=.=.*.,. .' U Q M N 0 9 > 7 ; J.J.J.J.% % % % % % % ",
"3 i > 3 3 J.J.3 0 r b m A K _ ] O.O.2.;.=.>.3.{.s.s.e.e.I.D.A.J.J.c.S.dXF.dXS.S.T.S.tXtX&XXXOXq.3.3.>.-.=.*.o.*.X.} ` ` S S 9 w 7 : > - + % % % - + - J.J.J.",
"J.J.7 3 3 > 3 i 0 r b m K I ` ^.O.).2.8.3.>.[.5.s.d.e.f.x.D.c.c.c.S.dXS.S.S.S.T.S.b.U.tXf.XX@Xq.|.|.>.-.*.*.o.O.o.X.` ` J.J.8 w 7 : ; - - - - - % % % % % % ",
"3 i > i > 3 i 3 q r V m A L /.[ *.*.3.8.[.{.{.t.OXs.nXNXP.A.uXA.dXS.dXS.dXdXF.S.S.S.U.U.e.XXe.q.q. X3.>.:.&...(.X.} +.^.v !.z w 7 ; ; - - - - % % J.J.J.J.J.",
"J.3 3 i > 3 3 i 0 0 m m S L ] (.,.O.>.>.[.}.}.r.OXd.NXI.P.A.P.gXS.c.n.A.c.S.T.F.S.S.3XU.+XK.:XoX|. X[.CX&.`.....X.} ^.^.S A w 8 6 6 ; @ - - * = % % % % - * ",
"0 0 > 3 3 3 > i e l C Q.Q U O.*.].].[.|.+Xr.t.t.e.ZXD.D.uXBXfXuXP.c.n.8XdXA.c.c.T.yXT.T.BXl.}.rXq.|.q.q.XX].9.:.).X.^.{ !.R j z 9 6 6 6 - J.J.J.X % X X - + ",
"> > i > J.J.i 3 z w Q.Q.` _ *.*.8.8.|.oX}.@Xt.t.y.j.D.F.n.dXuXgXc.dX3X3Xc.A.F.A.yXT.T.x.l.nX}.}.oXq.q.q.|.[.9.>.X.X.{ { P !.x j 9 9 6 ; % - * * $ % p % + - ",
"> 7 3 3 3 > > 5 t t S A ] M.2.'.[.|.}.}.t.rXt.y.0X0Xv.v.2XY.n.dXP.c.3X8XdXc.F.A.U.T.U.U.j.j.ZXq.{.q.|.oX[.[.8.8.:.).} | Q Q n x 9 9 6 @ % % % X p * $ % + - ",
"3 3 > 7 3 i i i t c Q.C ] [ 2.*X[.oX{.7.}.t.t.t.0X0XH.v.F.2XT.n.n.n.n.n.A.A.S.A.T.U.U.U.j.j.ZXq.q.q.|.{.K.[.8.8.8.*.X.).W W Q.x w 9 6 6 - % % * * * X X - + ",
"7 > > > 0 > > i u 5 m V Y ( *X'.|.|.K.}.rX}.}.t.ZXj.qXv.2X2X8X8X3X3Xn.dXA.P.A.P.U.b.b.b.ZX>X,X,X@Xr.{.7.7.{.[.3.0.2.`.;.' _ Z Q.9 w 6 6 * * * X X X p * p % ",
"i 3 0 > > 3 > u u u V m E ] O.*X[.|.K.{.{.t.t.t.t.t.z.v.2X3Xn.uXn.n.c.c.P.A.A.BXU.U.b.U.kXZX,XZX@X@Xr.{.7.7.[.[.0.2.:.;.~ ! Z v 9 9 ; @ - X * * * $ * X % % ",
"3 > > 3 > > i 0 > u W.l A I ..M.[.>.7.[.{.t.@X}.K.rXl.fXgXgXfXuXA.A.P.A.n.n.c.S.n.S.1XI.<Xu.i.t.t.@Xt.r.{.7.3.[.2.*X:.:.[ ! Q.n 9 # 6 ; % * * % p $ X X % - ",
"> 3 3 > > 3 3 > 3 i l l C A ..).>.>.[.{.{.}.r.{.7.rXl.NXgXdXgXfXP.P.P.A.dXc.F.A.A.T.I.I.ZXi.i.t.j.i.}.{.C.7.[._.p.2.>.>.[ _ Q.v w 9 6 ; - % % $ O X X $ % + ",
"> 3 3 > > 3 > > > 5 u c V C K L $./._._.{.q.q.{.9.9.XXXXy.z.BXqXv.H.H.v.v.v.v.v.D.1Xu.u.y.y.t.}.{.{.{.{.0.3.[.K.9.$. .' ' ' !.x 9 # ; 6 - - * X * X p % % @ ",
"3 & > > > < i > > > c r m n A I (./._.%.3.[.[.7.K.9.K.&Xu.u.BXBXH.v.qXH.v.v.v.v.z.u.u.y.u.y.@X{.r.{.r.{.0.[.].]._.#.' +.Q U !.j 9 # 6 ; % - % $ X X $ X % % ",
"> > > 1 3 > > > > u 0 u l b Q.F U W [ 6.C.3.C.sX=XL.hXhXhXk.,X,XZXi.t.,XZX<XZXj.<Xu.t.{.r.r.r.q.{.[._._.=.$.@.' [ ! Q MX!.!.zXzX9 6 6 @ = * % X $ X % X + % ",
"3 & > 3 > > 3 > i 3 0 0 b l m C !.P ' [ C.-.C.C.,Xk.hXk.J.J.t.ZXi.,XZ.i.ZXZXZX@Xj.y.t.t.r.r.r.r.q.[.]._.>.:.[ ' Q Q !.!.v j zXj 6 # @ 6 - % % X X X X % @ J.",
"J.; > 3 3 > > > > > 3 u 0 t b W.M C 6.( 7.lX7.7.5.Z.9XZ.Z.g.Z.kXC.C.%.C.7._.7.C.7.7.3._.%.#.%._.@.' ! ! ` ` !.v N v C M j # 8 $ 6 # @ 6 J.J.p * $ X $ X % + ",
"> 3 > ; > = > 3 > > 0 3 0 r l l m b eX6.lXeXC.lX9X5.5.9X=X=X9Xg.C.C.C.C.C._.6.%.C.7.C.C.%.@.%._.@.! ! @...{ U J v v n n # j $ 8 6 # ; @ J.J.* X X X * p - + ",
"> > > > > > > > > > i i 0 0 u u s 5 ( G.cXcXeXlX6.6.eX@.M.M.M.( eXeX( ( 7X( G F H R R R !.P U L R !.R MX!.!.Q.v f y e t 8 : $ $ 6 @ ; - % % % * $ p X $ + - ",
"> > > > > i > > > u 0 > > > r l g E.cXcXcXeXlXeXSXeX@.( ( ( ( ( 6.6.( ( / / F F R H S P P L U R P P R !.!.!.x !.e y e t 9 : $ $ ; 6 @ - % % X % % % X X % - ",
"> > > i = = > > > > 3 > > 3 3 & G.( J.J.J.J.m.cXcXcX/ wXB / / G ( / / H N N N N F B W.W.h W.d f M N y f y q q 1 7 J.J.J.J.J.J.J.J.- % - % % & % % % % % % % ",
"3 = > > = > = i > > > > > > 3 J.J.J.J.J.J.J.H J.J.J.J.J.B / G / B G F B h N h N F F B M W.W.d d f f f f e y q 9 J.J.> > ; J.J.J.J.J.% % J.J.J.J.J.J.J.J.J.J.",
"J.: > > i > > : 3 > > 3 > > > & wXwX5XvXJ.J.J.H bXV.6XwXB 6XB B B R.N f f M f M d y y 2 2 # aX# N G B B g J.J.1 ; , > > J.J.* J.J.J.J.J.J.J.J.J.J.J.J.J.J.J.",
"J.J.J.: = : > > > > > > > > & - J.J.J.6XmXV.bXmXbXV.m.wX/ B h f h g f d f f f f d f d y y 2 2 f B G 5X5XW.d 2 & & & = - : - J.J.J.J.J.J.J.J.J.J.J.J.J.J.J.J.",
"J.: i : : > > i 3 > > > > > & = 5XJ.J.J.J.J.6XV.V.cXwXG.5XJ.J.f f 4 q f 4 f 2 2 2 y 2 a y a g a J.J.a h R.J.J.J.J.o = & * - % % J.J.J.J.J.J.J.J.J.J.J.J.J.J.",
"J.J.= > > : > * > > 3 > > > > J.J.J.J.J.mXmXV.^ V.V.wX6XR.B a 4 a a 2 2 2 2 2 jXjXaX, 1 aX2 f a h a a s g g g 5 . o - - : * % % J.J.J.J.J.J.J.J.J.J.J.J.J.J.",
": i : > > i > : > > > > > & & - mXE.J.J.mXR.mXvXmXbXmX6XR.B 2 jX< 3 < < , < < 4 g s 4 B.B.s g R.h h s s a s s u J.J.J.* * - J.J.J.J.J.J.J.J.J.J.J.J.J.J.J.J.",
"J.= > : > : > > > > 3 > > 3 J.J.J.J.J.^ J.J.mXJ.J.6XbX6XR.R.jX< < , , , o , < < 5 0 2 B.2 a R.R.s R.h s a J.J.J.. J.J.* - % % - J.J.J.J.J.J.J.J.J.J.J.J.J.J.",
": > i = > : > > > > > > > > & > J.J.J.J.J.J.J.J.J.J.mXs s jXjX, , o O O & & 3 < < < B.N.N.B.s R.B.N.J.J.g E.5 J.J.. % @ % + - J.J.J.J.J.J.J.J.J.J.J.J.J.J.J.",
"J.: : > = i > : > > = > ; & ; - J.J.J.J.J.J.J.J.mXJ.J.J.a N., N.& O X J.J.o , , , < N.N.FXa J.J.J.J.J.J.J.J.J.J.X J.J.J.% - + % J.J.J.J.J.J.J.J.J.J.J.J.J.J.",
"J.: > : > : J.J.J.J.J.J.J.J.% + J.J.J.J.J.J.J.J.vXs s N., , & & X X % p . % & = & & o & N.B.5 5 s s s s J.J.< , & J.J.% % + - + J.J.J.J.J.J.J.J.J.J.J.J.J.J.",
"J.= i > > : > : > 3 > > = J.J.  J.J.J.J.J.J.5XvXs FXN.N.o o . .     pX4X+     + X X O O J.J.J.B.J.J.J.J.J.< , , . J.J.; - + J.J.J.J.J.J.J.J.J.J.J.J.J.J.J.J.",
": > > > : > > > 3 > > > = = +   J.J.J.J.J.J.J.N.2 < , , % @ & . + 4X4X4X  + + +   +   X o o o < J.J.J.J.< & J.J..   - % - % % J.J.J.J.J.J.J.J.J.J.J.J.J.J.J.",
"i > : = i : : > = > > > > - & + J.J.J.J.J.J.J.. J.J.. . + . + + +   + J.J.J.4X4X  4XJ.J.pXJ.J.J.J.B.4 2 , & + J.J.J.+ - % p % % J.J.J.J.J.J.J.J.J.J.J.J.J.J.",
": > > i = : > = > 3 > > > = = - J.J.J.J.J.J.. .   . + . - 4X+ + + - - = @ @ -   4X4X4XpX4X. . % - J.J.J.& + +   pX4X+ J.J.- % % J.J.J.J.J.J.J.J.J.J.J.J.J.J.",
"J.: : > > > : i > > > = > 3 - & J.J.J.J.J.J.J.+ . pX+ + - @ + 4X= > - - - @ J.J.4X  4XpXpX4X4X% % + + + .   J.J.J.J.% - + J.J.J.J.J.J.J.J.J.J.J.J.J.J.J.J.J.",
"J.J.J.J.J.J.J.J.J.J.J.J.J.J.J.J.J.> = = . 4X4X4X- > * J.J.J.J.> J.J.> > - = = * +   J.J.J.4XJ.J.p p p pXpX4X4Xp   J.J.J.J.J.J.* J.J.J.J.J.J.J.J.J.J.J.J.* J.",
"J.J.J.J.J.J.J.J.J.J.J.J.J.J.J.J.J.J.> - - * -   > > > J.J.J.J.J.J.J.J.J.J.J.J.J.- + + 4X4XpXJ.J.J.J.J.p 4XpXpX4XJ.J.J.J.J.J.J.J.J.J.J.J.J.J.J.J.J.J.J.J.J.J.",
"J.J.J.J.J.J.J.J.J.J.J.J.J.J.J.J.J.J.J.> = - = * > J.J.J.J.J.J.J.J.J.J.J.J.J.J.J.J.J.J.% % 4XpXpXpXp pXpXpXpXpX4X% p J.J.J.J.J.J.J.J.J.J.J.J.J.J.J.J.J.J.J.J.",
"J.J.J.J.J.J.J.J.J.J.J.J.J.J.J.J.J.> > > > = - > > = J.J.J.J.J.J.J.J.J.J.J.J.J.J.J.J.> * % % p 4XJ.J.p pXp pX4X  p J.J.J.J.J.J.J.J.J.J.J.J.J.J.J.J.J.J.J.J.J.",
"J.J.J.J.J.J.J.J.J.J.J.J.J.J.J.J.J.J.J.J.J.J.> > J.J.J.J.J.J.J.J.J.J.J.J.J.J.J.J.* J.J.- - = * - p * * - - % % % J.J.J.J.J.J.J.J.J.J.J.J.J.J.J.J.J.J.J.J.J.J.",
"J.J.J.J.J.J.J.J.J.J.J.J.J.J.J.J.J.J.J.J.* > > > > > > = J.J.J.J.J.J.J.J.J.J.J.J.- - * = - J.J.> : - : - * * * - J.J.J.J.J.J.J.J.J.J.J.J.J.J.J.J.J.J.J.J.J.J."
};
