/* XPM */
static char *_a20353eb8434bd2f1c2a8740e7404e78vAgghH6n4FzEMlb_31[] = {
/* columns rows colors chars-per-pixel */
"78 86 256 2 ",
"   c #221D1D",
".  c #271D1A",
"X  c #24221D",
"o  c #2B231D",
"O  c #2A291D",
"+  c #231E21",
"@  c #291D28",
"#  c #321B36",
"$  c #1B2C29",
"%  c #252425",
"&  c #2A2524",
"*  c #252926",
"=  c #2A2925",
"-  c #262529",
";  c #2A262B",
":  c #26292A",
">  c #2B2A2B",
",  c #332523",
"<  c #342A24",
"1  c #33252C",
"2  c #3B242C",
"3  c #322A2D",
"4  c #3B2B2B",
"5  c #3B312A",
"6  c #2C2532",
"7  c #2D2A32",
"8  c #2B2638",
"9  c #322634",
"0  c #332A34",
"q  c #3B2B34",
"w  c #34253B",
"e  c #3A253C",
"r  c #352B3A",
"t  c #3A2B3C",
"y  c #3C2433",
"u  c #383138",
"i  c #283332",
"p  c #1D1F20",
"a  c #432B2A",
"s  c #46352B",
"d  c #442A3B",
"f  c #462837",
"g  c #493735",
"h  c #522E37",
"j  c #381C4A",
"k  c #3B2543",
"l  c #3C2B43",
"z  c #392747",
"x  c #3C2653",
"c  c #342E47",
"v  c #4A1C52",
"b  c #432B44",
"n  c #43254C",
"m  c #432B4B",
"M  c #492947",
"N  c #542A48",
"B  c #573748",
"V  c #452B53",
"C  c #4B2C54",
"Z  c #4C2B5B",
"A  c #532C5C",
"S  c #552857",
"D  c #4A3256",
"F  c #573358",
"G  c #653857",
"H  c #692E54",
"J  c #4B2865",
"K  c #542B63",
"L  c #5B2C6C",
"P  c #572768",
"I  c #583367",
"U  c #5A2976",
"Y  c #5B3375",
"T  c #4C306C",
"R  c #652969",
"E  c #663569",
"W  c #632C7C",
"Q  c #662A78",
"!  c #752A79",
"~  c #763679",
"^  c #6A5446",
"/  c #694657",
"(  c #764A6B",
")  c #5B2C85",
"_  c #6B2C84",
"`  c #662886",
"'  c #752B8A",
"]  c #6A3387",
"[  c #763489",
"{  c #6C2A94",
"}  c #742C9B",
"|  c #7B2C9C",
" . c #792897",
".. c #6B3395",
"X. c #7C2CA3",
"o. c #7929A7",
"O. c #772CB0",
"+. c #6D1D92",
"@. c #863789",
"#. c #842B9A",
"$. c #863599",
"%. c #8F2D8C",
"&. c #832CA4",
"*. c #832CAB",
"=. c #892BA9",
"-. c #952AA9",
";. c #8C33AB",
":. c #8836A8",
">. c #9638AA",
",. c #882CB5",
"<. c #952DB7",
"1. c #8C32B3",
"2. c #9737B7",
"3. c #A639A8",
"4. c #A53AB9",
"5. c #B12FB3",
"6. c #924892",
"7. c #AA4E99",
"8. c #9B44B6",
"9. c #8D49AB",
"0. c #A646B7",
"q. c #B74BB7",
"w. c #B453BC",
"e. c #B965B8",
"r. c #C64BB8",
"t. c #CF53B4",
"y. c #C665B9",
"u. c #CD6FB4",
"i. c #DA5BB3",
"p. c #A539C5",
"a. c #B453C3",
"s. c #BC54C4",
"d. c #BB57C8",
"f. c #BB67C5",
"g. c #C857D4",
"h. c #C865C6",
"j. c #D370CD",
"k. c #ED4FE8",
"l. c #CD8BB8",
"z. c #E991D2",
"x. c #D2AFCF",
"c. c #E5B8C9",
"v. c #F9A8E7",
"b. c #EEB0EC",
"n. c #EBCBD4",
"m. c #774A57",
"M. c #774590",
"N. c #35281D",
"B. c #3B2C24",
"V. c #74554A",
"C. c #A83595",
"Z. c #CE37CD",
"A. c #D8B9C9",
"S. c #D9B9D5",
"D. c #E7A9D8",
"F. c #E6B7D7",
"G. c #785655",
"H. c #F392EC",
"J. c #753469",
"K. c #AA54A9",
"L. c #D44ED2",
"P. c None",
"I. c #C987C7",
"U. c #DAA3E3",
"Y. c #F8B6D8",
"T. c #D4C4CF",
"R. c #533B39",
"E. c #514334",
"W. c #473248",
"Q. c #472557",
"!. c #521C6A",
"~. c #673378",
"^. c #6C2B8B",
"/. c #732C94",
"(. c #783397",
"). c #7B33A5",
"_. c #963899",
"`. c #8332A4",
"'. c #8934B7",
"]. c #9945A8",
"[. c #A749AA",
"{. c #B54BAA",
"}. c #B656AA",
"|. c #AC4CB4",
" X c #AC4CBB",
".X c #B34DBC",
"XX c #AC53B7",
"oX c #B453B4",
"OX c #BB53BC",
"+X c #B958B7",
"@X c #C557BA",
"#X c #9935C4",
"$X c #AA46C4",
"%X c #B74AC6",
"&X c #B350CD",
"*X c #9C45C4",
"=X c #C64BC7",
"-X c #C354C4",
";X c #C355CB",
":X c #C45ACB",
">X c #C859C7",
",X c #E94FD2",
"<X c #E96ED3",
"1X c #D48ECF",
"2X c #FAB7E6",
"3X c #F6CDE9",
"4X c #1D1C1C",
"5X c #5B4546",
"6X c #684A46",
"7X c #5F4F64",
"8X c #ECDBE0",
"9X c #B234CA",
"0X c #F471EB",
"qX c #F3ACD1",
"wX c #6F4F50",
"eX c #884C72",
"rX c #B16899",
"tX c #B98DC9",
"yX c #BAC5B2",
"uX c #DFC4B5",
"iX c #68431E",
"pX c #1A1817",
"aX c #381C29",
"sX c #CE28AC",
"dX c #D8C3C8",
"fX c #BAB0A7",
"gX c #D1C5B7",
"hX c #E839DD",
"jX c #3A2425",
"kX c #D657E4",
"lX c #8A3275",
"zX c #2F2B5C",
"xX c #B425CF",
"cX c #835558",
"vX c #594739",
"bX c #69503A",
"nX c #B46BAC",
"mX c #64493A",
"MX c #6B1B64",
"NX c #B88AB4",
"BX c #E3AAB7",
"VX c #4D1732",
"CX c #9B1998",
"ZX c #D658C7",
"AX c #534652",
"SX c #8E626C",
"DX c #922EC4",
"FX c #342F19",
"GX c #513398",
"HX c #37444E",
"JX c #971A60",
"KX c #611828",
"LX c #341419",
"PX c #B91242",
"IX c #170617",
"UX c black",
/* pixels */
"P.P.P.P.P.P.P.P.P.P.P.P.P.P.P.P.> > ; > ; : > & > & > ; ; 6 ; : 6 6 6 7 w 6 ; @ aXaXaXaXo @ X % $ p $ X $ $ % X O . . o - P.P.@ p - P.P.P.P.P.P.% - + P.P.P.",
"P.P.P.P.P.P.P.P.P.P.P.P.P.P.P.P.; > > > > > > - = > > 7 6 > : 7 ; 7 7 8 9 # ; 1 @ aXjXLX@ o $ % p * p % p $ p % o o o & - % - p - p p p + p p % + + % P.P.% ",
"P.P.P.P.P.P.P.P.P.P.P.P.P.P.P.P.> > > - ; : > * > = > ; ; 6 ; 9 6 9 9 w e # # aX1 @ @ & , @ O X p $ $ X $ p $ % . o @ . - p p - - p P.P.p P.P.p % p p % % % ",
"P.P.P.P.P.P.P.P.P.P.P.P.P.P.> P.P.> > > > > > = = > ; > 6 > 9 ; 6 6 w w e e e y y aX, aX& & % % % X $ % p $ p + & o & & - - - p p % P.P.- p p + p p p P.P.P.",
"P.P.P.P.P.P.P.P.P.P.P.P.P.P.P.P.P.> > > : > = = > > > ; 7 > 6 9 e y e e v v Q.S n # aX1 * % * % % % p $ $ p % $ 6 @ @ @ - - + p % p P.P.% P.P.P.P.P.P.P.+ P.",
"P.P.P.P.P.P.P.P.P.P.P.P.P.P.> > - > - > > = = = > > ; 7 > 0 9 0 # w VXk n N A A n k # # : % O % * % * p p $ % * @ @ - - p - % - % + P.P.+ + + + + % P.P.P.P.",
"P.P.P.P.P.P.P.P.P.P.P.P.P.P.P.= : > > > > > = = - > ; ; 9 3 9 9 k n v N A P U Q Q.n w 8 : - O % X X * * $ p X p # # @ # - - % $ p P.P.P.P.P.P.P.P.% P.P.P.P.",
"P.P.P.P.P.P.P.P.P.P.P.P.P.P.: > > = > : > > = > > > 3 7 9 6 0 0 k b Q.S P L U L Q.Q.w w - : = % * * $ X * $ % $ 8 # 8 8 - - p @ % % P.P.P.P.P.P.P.P.P.P.P.P.",
"P.P.P.P.P.P.P.P.P.P.P.P.P.P.P.P.= = = = > > 7 > > 1 6 7 9 9 w r n n P Q M.9.Y U J !.j 8 > 6 = % 8 @ - - - - @ @ 8 j j 8 @ - $ p % + P.P.P.P.P.P.- P.P.P.P.P.",
"P.P.P.P.P.P.P.P.P.P.P.P.P.P.P.P.P.O = = > > 6 > > > 0 0 q 9 r r n Q.P E M.M.Y U J zXc j 6 7 = O 6 - % - - - @ 6 # # j z 8 - * % % + P.P.P.P.P.P.% P.P.P.P.P.",
"P.P.P.P.P.P.P.P.P.P.P.P.P.P.P.P.P.P.= > 3 & 0 9 0 > 7 P.P.t l b Q.K U ] ].XX[ (.P Q.z j 9 9 3 ; - 6 ; ; - 8 6 @ j j zXD 8 6 O X - % P.P.P.% % % + P.P.P.P.P.",
"P.P.P.P.P.P.P.P.P.P.P.P.P.P.P.P.P.P.= = 3 3 9 0 0 0 9 r r t z m v K U [ 9.].(.[ P J k k r w ; ; 6 @ ; - 8 - # 6 j j x zXw 6 * * - * P.P.P.P.P.P.% P.P.P.P.P.",
"P.P.P.P.P.P.P.P.P.P.P.P.P.P.P.P.P.= 1 3 0 > 9 0 0 0 r l l l c W.J P Q [ ].].' ' K v b n l w 9 9 9 7 3 > 6 6 w k J J T ) 8 j * O % % P.P.P.P.P.P.% P.P.P.P.P.",
"P.P.P.P.P.P.P.P.P.P.P.P.P.P.P.P.> P.P.> 3 3 r u r r r c l l D W.J L _ (.].].' %.I P C n l k r r 9 9 1 3 9 9 w w T T T !.e # * X - - P.P.P.P.P.P.P.P.P.P.P.P.",
"P.P.P.P.P.P.P.P.P.P.P.P.P.P.P.; 3 ; 3 9 9 r l l l W.b l W.W.F A !.L U Q (.$.Q Q R L S C V n z x e e 3 3 w r j x ) T !.zXk j * = * P.P.P.- P.P.P.P.P.P.P.P.P.",
"P.P.P.P.P.P.P.P.P.P.P.P.P.P.; 3 ; > 9 0 0 t u b l c W.W.W.D C F L Q Q Q [ @.Q ! R L S C m n l l r r 0 0 w r j V ) T !.j j k = * - * P.P.P.P.P.P.P.P.P.P.P.P.",
"P.P.> > > > > 3 > 6 P.P.> 7 7 6 0 3 0 r l l W.l T T ) ) T Y Q Q Q Q Q W [ [ ' ] ' Q R P Z Z V c l l r r r 9 w r 6 ; 8 - : - - - - - - % % % P.P.P.P.P.P.+ + ",
"> > > > > > > > ; 3 P.P.7 > 6 > 6 9 9 t l l m W.T Y ) ) Y ~.~.~.~.~._ ~ ' _ [ ] ' Q Q R Z D V m b b u r 9 0 9 9 6 : - 8 : 8 - - - - - % % P.P.P.P.P.P.+ - - ",
"> > > > > > > > > > > ; 0 > 9 P.P.0 l l m m Z A U ) ..] ~.] _ ~ [ ^././././...(.#.' _ ! Y L A K C m d t 9 9 7 6 : : : - $ - - - + - % % % + P.P.P.P.P.P.P.p ",
"> > > > > > 3 > > ; 3 3 > 0 9 0 0 r l l C D D I ) ] ] ..[ [ [ [ /.[ [ ..(.(.)...#.#.[ ' E Y I K C C b b 9 9 7 7 6 6 8 - 8 - - - - - % - % - % % % % + % p P.",
"P.> > > > > > > 3 ; 7 7 0 > 0 0 r t l W.A S L L ` ..(.(.(.(.#.(.| X.*.).O.'.O.DX&.*.X.| [ ^.W W F A M d q y 0 1 6 6 6 - - - @ $ - - % % P.P.P.P.P.P.P.+ p - ",
"> > > > > > > > > > 0 ; 3 7 3 r r l m M A A L E ^.] (.(.$.$.P.P.`.`.O.:.'.O.DXO.P.P.X.| ..] _ ~.I F B M t q 0 4 8 6 - 8 - - $ @ - - + - % * P.P.P.P.+ % + % ",
"> > > > > > 3 > 7 > 0 > 7 9 0 r b b C F U W _ ] } | *.&.&.#.=.:.,.,.'.<.DXDXDXDXDXDX*.*.X.| /.^.E R S C M b d q 9 9 - - - 8 8 @ + - - % % P.P.P.P.P.% % - % ",
"3 i > > 0 > > > > 7 P.P.7 0 r r b b C F Q ~.[ [ (.X.:.:.=.=.=.=.,.,.'.DXDXO.DX,.DX'.,.,.X.| /./.J.R I S D M t t 9 3 8 - - @ $ @ - - % % - + P.P.P.P.P.+ + + ",
"> 3 > > 7 > > > P.P.0 > 7 r u u l W.K I ~.] (.(.).).1.,.*.,.=.=.<.-.<.5.DX<.<.DX'.'.<.;.X.X.| (.W ~ E S A C d e 9 9 > ; - - - - % % % @ % % P.P.P.P.- - % % ",
"> i 7 > > > > 0 P.P.0 i 7 r u l W.W.F I ~.~.(.[ `.`.1.*.;.*.=.<.<.<.-.<.#X#XDX<.<.'.1.1.`.&.| (.~.W R I A A M d 0 y 3 ; ; - - - ; % % % - - * P.P.P.+ p % + ",
"> > > > i 3 3 > P.P.3 7 r u u l D D E W ^.(.X.*.,.'.'.,.<.<.1.<.sX5.5.5.p.9X#X<.2.DX<.<.=.*.&.X.' ' Q Q K P B b q 2 3 & ; - - - - % % - - - % % % % % % + - ",
"i > > 0 > > P.P.P.P.7 3 0 u l W.D F U ~./.(.`.O.'.,.'.#X2.1.<.<.9X5.5.xX&X&Xp.2.2.<.<.<.*.:.*.X.^.[ ~.R R K M M t y & 1 ; ; - - % - % % % % + P.P.P.% + - + ",
"3 > > > i 3 i 3 0 > i 3 q u l l B F ~ ~.| `.,.'.DX,.DXDX2.2.2.2.sXsXsXsX9X=X&X9X4.#X<.2.P.P.P.P.(./.^.` Y U C M k e 3 3 - & : 6 % - % % % % * P.P.P.- % % % ",
"> > > > > > > > 7 0 0 0 r u l W.F I ~.] ).`.,.DXDXDXDX<.<.4.4.2.sXZ.Z.,X%X9X$X9X#Xp.<.DXDX,.DXO.| } ] ^.~.U S N b k 9 3 & ; - - - % % % - - - P.P.P.% % % + ",
"> > P.P.P.< > < > i 3 3 t l W.W.F I [ ] ).:.'.'.,.DX<.<.<.4.2.#XZ.sXZ.sX%X9X&X&X2.#XDXDXDXDX'.DX|  ././.~.W A S n n r 0 6 6 8 - - - - - % + - P.P.P.P.P.P.P.",
"i 3 3 3 i 3 > i > 0 3 u t t W.V E E [ [ *.).,.'.DX'.2.#X<.p.4.$XsXhXZ.Z.=X&X9Xp.p.#X<.DXDXO.DX'.`.).| (.] _ K A V V t r 7 6 8 : - - - - - - * % % % % % % % ",
"i > < > > > > 3 3 3 i 0 l W.C D E E [ ' ).O.'.'.DX<.<.#X4.$X X%XZ.%X:X:X;Xs..X$X$X%X#X#X<.<.DX,.DX,.O.O.(.^.Q L D W.l l r 9 8 6 ; - - - ; - $ p - % % % % $ ",
"< > > < < 3 > > 3 i r u l z C D R R ! _ `.o.'.'.<.<.#Xp.p.p.0.%Xg.;Xg.:X:X-X%Xq.9X&X<.9X<.DX,.,.DXO.O.O.[ ' ~.Q F M l l r 8 7 6 ; - ; - ; P.P.P.- % % $ % % ",
"> < > i > > < > > i r r x m Z I Q ! $.[ '.'.*X#X#X$X%X&X%X%X%X;Xg.%X-X-Xw.-Xs.OX9X%X<.p.<.DX<.,.,.,.,.O././._ ` L K C n z c 8 8 ; ; - - - - - % % % % X $ X ",
"> > > > < > = B.i < r u l V K K !.R /.[ 1.:.*X*Xp.*Xp.9X%X&X;X;Xg.:Xj.h.+X-X-Xs.%X9X<.p.<.<.,.,.,.,.,.*././._ _ L I C Q.z z w 8 6 6 6 - - - + % % % X $ X * ",
"> > > > > i < i 5 u r r V x K P ' ! _.>.XX8.&Xa.p.4.0.p.9X$Xd.g.a.j.H.H.h.OX-X-X9X%X#X#X<.#X,.'.=.<.;.8.].:.#./.` Q !.J x Q.z z 8 6 6 ; @ ; - - $ % X X $ P.",
"P.< < i > < < > i 5 c r x V L I ' %.6.].a. Xa.&X0.$X%X%X%X%X&Xg.f.kXH.H.h.-X-X%X=X&XxX5.<.p.1.<.<.1.;.2.>.>.$.(.^.` J P j n w j 9 6 6 6 ; ; % @ % + $ % $ X ",
"< i > < > > < 3 i 0 l l Q.J Q U _.6.[.K.e.XXs.w.w.s.-X%Xs.%X&Xg.g.h.j.U.OXZX>X>X=Xg.9X9X5.<.2.2.].0.|.XX X X8.8.>.$.' ' P P Q.x l w 6 @ 6 @ P.P.% $ P.P.P.P.",
"P.P.> > 3 > > = u 0 l l Z Z Y ~.6.].K.[.w.w.OXw.w.s.;X-X&Xs.&Xg.:Xf.0Xz.OX@Xg.g.g.g.$X9X5.<.4.$X0.%X X X X X|.8.].#.Q _ !.!.v j w w 9 6 6 6 - % % % X % % X ",
"< > 3 = > > < i 0 0 l l I J ) ]  X$X|.|.oXoX+XoXOX+X:X-X%X%X%X%Xg.g.g.>X;X-X;X>Xg.g.%X9X0..X%X.XoX|.oX{..X0.0.q.|.[.].6.6.[ L Q e e # # ; @ ; @ X % $ X X p ",
"> > > < 3 > 3 5 0 0 l l K J ] [ $X X|.XXK.+X+XoXOXOXd.-Xs.=X=X%X;X:X;X:Xg.:X>X>Xg.%Xs.=X%X%X%Xs.oXXXq.oX.Xq.q.4.].[.K.].6.(.L L e e y # # 9 @ ; % % p * % $ ",
"3 > i i 3 i = P.P.7 b e L P ..} K.XXK.K.}.+XOXOXOXOXs.=X;X%X;X=Xq.=X;X>Xg.:Xg.g.=X%X;X=X;X-X-Xs.w.oX|.|.{.q.q.q.[.].[.7.6.6.W ! n e 9 w ; # @ @ X % X X % X ",
"> > < > > > 3 > r 9 b k T P } (.[.XX{.oXoX}.+X+XOX@X-X-X;X;Xg.g.9X%Xg.=Xd.&Xf.&XOXr.g.g.;X-XOXq.oXq.q.[.|.q.q.[.8.K.].].9.].[ _ k n w y 1 6 % @ X % % % X * ",
"> 0 3 > 3 3 > i r 6 b k Y Y (.(.K.XXK.XXoX}.OXq.r.@X=X>X=X=X@X>XZX>X@X+X1X1Xf.f.-XOX=XL.-X-X%X=X=Xr.q.|.|.{.K.[.].].].].].].$.' n n 1 9 9 @ @ ; * % X X p * ",
"> > > 7 > > > 5 r 7 b l P T (.).8.XXXXXX}.|.|.q.q.OX=X=X=X;X@XOXr.r.+XOX1X1Xf.&X-Xs.ZXL.-X;Xq.%X=X9X|.|.{.|.[.[.[.].[.K.].].(.' n n 9 # 9 6 ; @ X % $ X X X ",
"3 ; 3 > P.P.P.P.7 0 b w J P ..(.].|.[.K.{.{.q.{.q.@X@X@X@XOXw.f.t.y.z.1XU.b.j.j.d.+X>Xg.=X>XOXOXw.|.XX|.K.K.K.7.8.8.[.].].]. . .b k y 9 # ; - @ X % X X X * ",
"; 0 > 3 P.P.i 3 r r l z U J ^.(.].].].K.oX}.q.q.q.w.r.r.+X+Xe.h.+Xy.z.H.b.b.tXU.e.d.ZX>X>X=XOXs.a.q.|.XXK.K.].7.8.[.].K.]._. .' n n # 9 9 @ % - % X $ X X p ",
"> 7 > > > > > > u u W.l J K _ [ =.CX2.>.{.3.q.OXZ.Z.,X,Xk.hXoXh.NXl.8X8Xc.c.b.Y.e.nX:X;Xg.L.%XOX%X.X0.$X[.[.[.7.6.].].].`.).{ ` d e 9 9 ; 9 ; ; & % - % % X ",
"> > > 0 3 i > > 3 i z b J P _ ' o.CX>.C.{.{.+Xt.,X,X,X,XkXk.+Xe.NXBXn.8XF.P.P.F.f.e.-X>X=X=Xq.q.%Xw.a..X[.6.].].].K.].].$.$...{ b e y # 9 @ @ - @ % % % % % ",
"i > > > > > > 3 7 i t l x J L ~.o.o.CX,.3.q.t.t.<X<X,Xi.L.kXj.<XP.uX8X8XgXgXdXA.I.NX@X@X=X=X}.{.{.}.[.|.XXXX|.8.|.8.$._.) { J x r y 9 ; ; 6 @ @ - + % . + % ",
"3 > 7 > P.P.> i 7 0 r t Q.J P L ,.O.,.=.3.3.}.{.i.i.ZXi.L.L.j.u.A.BXn.dXgXgXA.uX1XI.@X@XL.r.{.{.{.{.].{.XX|.[.].[.XX>.>.{ { !.v w y ; # ; @ - - - % % % % % ",
"> 3 > > i 3 0 > 0 > 0 u z b Z A O.O.O.&._._.4.%Xr.t.ZX<X<X<Xu.<XP.P.P.P.gXfXgXgXc.v.j.<XZXZX<X<Xt.7.7.7.0.0.*X2. .| ^./.U U x v w w 1 6 ; ; % % - + % % + - ",
"> > 3 > 3 > > > > > 0 0 b z C C O.O.,.=.%.#.3. XC.r.@X<XkXZXu.i.3X2XdXn.gXgXgXfXD.2Xj.j.ZXZXi.<Xi.i.7.7.0.0.2.<. . ./.^.U !.x v e w ; ; ; @ % % + - - + P.P.",
"P.P.P.> > > 3 3 i 3 0 u t r b b U Y :.} ,.o.1.8.5.Z.9X9X5.5.7.}.1X1Xl.A.dXdXdXS.2X2X@Xy.ZXZX<XZX<XZX{.3.4.2.*.o.{ ` P U M n @ ; 1 9 @ ; - % % + % % - % + % ",
"> > P.P.P.> > > > 3 > 3 r r M b J P (.(.).o.=.=.5.9X4.=Xr.=X}.rXu.l.l.x.uXdXn.S.3X2X@Xy.kXZXZXZXj.j.[.3.>.-.o.o.^.+.!.!.M n 9 9 1 # ; & @ ; - & + % + - - % ",
"& 3 3 & 3 1 = 3 i 3 > i 0 0 u c l W.Z F _ Q  .+.O.O.CX,.CXxXhXhX,Xk.0XH.D.b.v.2XH.z.t.y.ZXZX%Xq.$X2.2.&.| { ] ` Q.V c r r 0 ; ; ; ; @ % % @ % % + - % % % % ",
"3 ; 3 3 = > 3 3 > 3 i > 3 0 l u z m C A Q W  . .,.O.,.,.<.9XxXxXL.kX0X0XD.D.2X2Xz.<X@XZXZX-X{.5.0.2.:.o.(.^._ W Z V w l 0 3 ; ; & @ % % % % % % - + % % + P.",
"P.P.P.P.P.P.P.P.P.i > > i > 9 r 5 q b r v S H H MXlX;.>.xXZ.xXhXhXk.,X<Xl.1XH.H.<XZXr.5.5.3._.#.=.&.' ! Q P J Q.l t 0 7 8 8 6 6 - % % % % = - % + % % + % P.",
"P.P.P.P.P.P.> > > > > > 3 > 0 0 q q W.d S R H J.H lX>.8.xXZ.hXxXZ.L.,X0Xl.1Xz.z.ZXt.3.C.3.C._.CX=.| _ _ ~.!.Q.Q.r w 7 7 8 8 6 : - = % % % % % % + % % % + P.",
"P.> < > > > > > > > > > > > 3 3 0 0 ^ 7XG 6XG G H H lXeX].6.9X9X3.3.a.d.rXnXu.nX}.{.C.%.' lX[ @.Q MXP P A v b l 0 3 7 > 7 8 : 8 % * % % P.P.% % - % % P.P.% ",
"> > = > > > = < > i > > > i > > r ; / G.V.cXcXm.cXcXH J.7.C.DXp.OX[.f.d.u.nXnXrX{.3._.%.! ~ lX@.! Q P !.A Q.m l 3 ; 7 7 6 6 : - - % % % P.P.% % % % % % % % ",
"> > > > > > > > > : > > > > > < 3 N.wX/ H m.wXm.cXV.m.cXeXeXlXeXlXlX~ ( ( ( lXH lXJ.! MXS MXN N v Q.b e d y 4 4 9 6 7 ; : - 6 - - % % P.P.P.P.% % % % % % % ",
"P.P.P.P.P.P.P.P.P.i > > 3 > & > u E.7XwXG m.G m.bXV.G m.lXcXlXlX6.6.eXeXJ.G lXH MXJ.MXMXS H S N N S N M d y 1 3 7 9 ; ; 8 8 - - - % % * % % - % * % $ % - * ",
"> > > > > > P.P.P.P.P.P.P.> > = ^ 7X^ 5XV.wXwXV.cXV.wX6Xh 6XB G m./ / G F P.P.P.P.F B W.W.h P.P.f f aXa y 2 0 1 9 ; ; ; ; P.P.- - % % % % % * - % % % - % % ",
"> > > > > > > > > > > > > > = = P.P.5XvXG.G.6Xm.V.6X6XB N 5XB P.P.P.P.N N N M N B S N d M W.M f f f f 2 1 1 0 1 ; 1 ; ; ; ; * - - % P.P.P.P.P.P.P.P.P.* % % ",
"> > > > > > > > > > > > i > = : ^ ^ vXmXbXbXvXmXmXmXB 6X5XB B B B W.h P.P.P.P.d f y q y y aXaXaXh B g R.B.jX, & & & ; & : * - % % % * % % % % % % % % - % % ",
"> > > > > > > > > > i > > = = * ^ vXvXmXbXmXmXbXmXmXV.V.5X5Xf P.P.d f f d P.P.P.P.P.f a y y y f R.B R.g g a 1 . , @ % % - * % % % % - % % % % % % % % * % % ",
"5 > > > > > > > > > > > > > - * vXvXbX^ bXvXbXbXbXV.V.wXvXR.f 4 a 4 y y 4 y 2 2 aXy a f 2 4 h a s a B.s g E.3 < , . ; ; = * % % % % % * % % % * P.P.P.P.P.P.",
"i > > > i < > > > > > > > > > = P.P.P.bXE.iXbXbX^ 6X^ ^ R.R.2 2 2 2 4 1 2 9 2 2 aXjXaX, aXjXa f a a FXs s s 5 5 o o & & - P.P.P.P.P.P.% % % P.P.P.P.P.P.P.P.",
"= > > > i > > > > > > : > = * - E.P.P.bXE.E.E.P.P.P.vXP.P.R.< N., , , , , , , , P.P.P.P.a a R.R.iXP.P.P.B.s 5 s P.P.& @ - % - P.P.P.% % % = % P.P.P.P.P.P.P.",
"P.> > > > > > > > = > > > > > = vXP.P.bXiXvXbXvXmXmXvXmXR.E.P.P.jXo o & o & , P.P.3 P.P.B.P.P.P.P.s s s FXFXFXE.. . + & % % . % P.P.% % % % % % P.P.P.P.P.P.",
"> P.P.P.P.> > i < > = > : > * % E.E.E.vXP.P.P.P.vXvXvXP.P.P., , < O O X X & , , jX< N.B.B.a s g a P.P.iXP.P.P.< P.P.P.& % % % % P.P.* * % % % O P.P.% P.P.P.",
"P.> > = > > > > i = > > > > * % E.g E.5XvXmX^ ^ iXP.P.P.jXP.P., = = O X O = < , < P.P.P.N.s s s s s s a P.P.P.FXo o @ ; % X % P.P.P.P.- * P.P.P.P.P.P.P.P.P.",
"P.> > > > > > > > > > > > : X X * > g E.vXvXvXvXvXg B.N.o & & o X X 4X4X  4X% % & % o N.N.N.a s s g P.P.P.P.P.P.o , & & % % % % % % % % % % % * P.P.P.P.P.P.",
"P.> > > > > > > i > > > > : * O O 5 P.P.P.E.vXP.P.5 N.N.LX. . . p 4X4X4X  X   % X X o o N.FXP.P.P.s s s B.B.o o . . + % % % P.P.P.P.P.P.P.P.P.P.P.P.P.P.P.P.",
"> > > > > > i = < > > > > > = * pXX O = o o o < < B.P.P.P.% X + + p p p + 4XP.P.P.P.. % . . o jX5 5 5 5 3 < P.P.  4X% % % % % p P.P.P.P.% % % % P.P.P.P.P.P.",
"> > > > > > = i > > > > < i > = = = = * & O N.P.P.LX@ P.P.P.  + 4X  4Xp pX4X4X4X4X4XpX. . . . P.P.< jXjX, o . P.P.pX& % X % % p % % % % % % % P.P.P.P.P.P.P.",
"> i < > > > > < > = > = > > i > = X pX4X4XX .       +   + 4X- - * - - > @ ; - + P.P.P.P.    + ; * P.P.+ o + .     4X% % % p - % % % * P.P.P.P.% P.P.P.P.P.P.",
"P.> i = > > > > > i > > > > 3 3 i % 4X4XX   . . + P.P.4X+ + > 3 - - > ; ; ; = - 4X+   pXpX  . +     .     pX4X  X X % % % $ % % P.P.P.P.P.P.P.* P.P.P.P.P.P.",
"P.P.P.P.P.P.P.P.P.P.P.P.P.P.P.P.= P.P.P.%       P.P.P.P.P.P.P.P.- P.P.= - - P.P.= - + + 4XpXpX4XpX4XpX4X  + % % % % * P.P.P.P.P.P.P.P.P.P.P.P.P.P.P.P.P.P.P.",
"P.P.P.P.P.P.P.P.P.P.P.P.P.P.P.P.P.P.P.P.P.P.+ % > > > > > > > > * > > * = P.P.P.P.= % *     P.P.4X4X4XpX4X%   + % % - P.P.P.P.% P.P.P.P.P.P.P.P.P.P.P.P.P.P.",
"P.P.P.P.P.P.P.P.P.P.P.P.P.P.P.P.P.P.P.P.P.P.P.P.P.P.P.P.P.P.P.P.= > > - P.P.P.- * - - = * % % + pX4XpX4X% % % % % % P.P.P.P.% P.P.P.P.P.P.P.P.P.P.P.P.P.P.P.",
"P.P.P.P.P.P.P.P.P.P.P.P.P.P.P.P.P.P.P.P.P.P.P.P.P.P.P.P.P.P.P.= > - = * = - * = * * = * - * - = P.P.4X4X4X% % * % P.P.P.P.P.P.P.P.P.P.P.P.P.P.P.P.P.P.P.P.P.",
"P.P.P.P.P.P.P.P.P.P.P.P.P.P.P.P.P.P.P.P.P.P.P.P.P.P.P.P.P.P.P.P.P.P.* > * > P.P.P.P.P.= - > - * p - % % * - P.P.P.P.P.P.P.- % X P.P.P.P.P.P.P.P.P.P.P.P.P.P.",
"P.P.P.P.P.P.P.P.P.P.P.P.P.P.P.P.P.P.P.P.P.P.P.P.P.P.P.P.P.P.P.P.P.P.- = - = - = > P.P.P.P.P.* * * * % P.P.P.% % P.P.P.P.P.P.P.P.P.P.P.P.P.P.P.P.P.P.P.P.P.P."
};
