/* XPM */
static char *_a20353eb8434bd2f1c2a8740e7404e78vAgghH6n4FzEMlb_32[] = {
/* columns rows colors chars-per-pixel */
"78 86 256 2 ",
"   c #221D1D",
".  c #271D1A",
"X  c #24221D",
"o  c #2B231D",
"O  c #2A291D",
"+  c #231E21",
"@  c #291D28",
"#  c #321B36",
"$  c #1B2C29",
"%  c #252425",
"&  c #2A2524",
"*  c #252926",
"=  c #2A2925",
"-  c #262529",
";  c #2A262B",
":  c #26292A",
">  c #2B2A2B",
",  c #332523",
"<  c #342A24",
"1  c #33252C",
"2  c #3B242C",
"3  c #322A2D",
"4  c #3B2B2B",
"5  c #3B312A",
"6  c #2C2532",
"7  c #2D2A32",
"8  c #2B2638",
"9  c #322634",
"0  c #332A34",
"q  c #3B2B34",
"w  c #34253B",
"e  c #3A253C",
"r  c #352B3A",
"t  c #3A2B3C",
"y  c #3C2433",
"u  c #383138",
"i  c #283332",
"p  c #1D1F20",
"a  c #432B2A",
"s  c #46352B",
"d  c #442A3B",
"f  c #462837",
"g  c #493735",
"h  c #522E37",
"j  c #381C4A",
"k  c #3B2543",
"l  c #3C2B43",
"z  c #392747",
"x  c #3C2653",
"c  c #342E47",
"v  c #4A1C52",
"b  c #432B44",
"n  c #43254C",
"m  c #432B4B",
"M  c #492947",
"N  c #542A48",
"B  c #573748",
"V  c #452B53",
"C  c #4B2C54",
"Z  c #4C2B5B",
"A  c #532C5C",
"S  c #552857",
"D  c #4A3256",
"F  c #573358",
"G  c #653857",
"H  c #692E54",
"J  c #4B2865",
"K  c #542B63",
"L  c #5B2C6C",
"P  c #572768",
"I  c #583367",
"U  c #5A2976",
"Y  c #5B3375",
"T  c #4C306C",
"R  c #652969",
"E  c #663569",
"W  c #632C7C",
"Q  c #662A78",
"!  c #752A79",
"~  c #763679",
"^  c #6A5446",
"/  c #694657",
"(  c #764A6B",
")  c #5B2C85",
"_  c #6B2C84",
"`  c #662886",
"'  c #752B8A",
"]  c #6A3387",
"[  c #763489",
"{  c #6C2A94",
"}  c #742C9B",
"|  c #7B2C9C",
" . c #792897",
".. c #6B3395",
"X. c #7C2CA3",
"o. c #7929A7",
"O. c #772CB0",
"+. c #6D1D92",
"@. c #863789",
"#. c #842B9A",
"$. c #863599",
"%. c #8F2D8C",
"&. c #832CA4",
"*. c #832CAB",
"=. c #892BA9",
"-. c #952AA9",
";. c #8C33AB",
":. c #8836A8",
">. c #9638AA",
",. c #882CB5",
"<. c #952DB7",
"1. c #8C32B3",
"2. c #9737B7",
"3. c #A639A8",
"4. c #A53AB9",
"5. c #B12FB3",
"6. c #924892",
"7. c #AA4E99",
"8. c #9B44B6",
"9. c #8D49AB",
"0. c #A646B7",
"q. c #B74BB7",
"w. c #B453BC",
"e. c #B965B8",
"r. c #C64BB8",
"t. c #CF53B4",
"y. c #C665B9",
"u. c #CD6FB4",
"i. c #DA5BB3",
"p. c #A539C5",
"a. c #B453C3",
"s. c #BC54C4",
"d. c #BB57C8",
"f. c #BB67C5",
"g. c #C857D4",
"h. c #C865C6",
"j. c #D370CD",
"k. c #ED4FE8",
"l. c #CD8BB8",
"z. c #E991D2",
"x. c #D2AFCF",
"c. c #E5B8C9",
"v. c #F9A8E7",
"b. c #EEB0EC",
"n. c #EBCBD4",
"m. c #774A57",
"M. c #774590",
"N. c #35281D",
"B. c #3B2C24",
"V. c #74554A",
"C. c #A83595",
"Z. c #CE37CD",
"A. c #D8B9C9",
"S. c #D9B9D5",
"D. c #E7A9D8",
"F. c #E6B7D7",
"G. c #785655",
"H. c #F392EC",
"J. c #753469",
"K. c #AA54A9",
"L. c #D44ED2",
"P. c #D1B6B7",
"I. c #C987C7",
"U. c #DAA3E3",
"Y. c #F8B6D8",
"T. c #D4C4CF",
"R. c #533B39",
"E. c #514334",
"W. c #473248",
"Q. c #472557",
"!. c #521C6A",
"~. c #673378",
"^. c #6C2B8B",
"/. c #732C94",
"(. c #783397",
"). c #7B33A5",
"_. c #963899",
"`. c #8332A4",
"'. c #8934B7",
"]. c #9945A8",
"[. c #A749AA",
"{. c #B54BAA",
"}. c #B656AA",
"|. c #AC4CB4",
" X c #AC4CBB",
".X c #B34DBC",
"XX c #AC53B7",
"oX c #B453B4",
"OX c #BB53BC",
"+X c #B958B7",
"@X c #C557BA",
"#X c #9935C4",
"$X c #AA46C4",
"%X c #B74AC6",
"&X c #B350CD",
"*X c #9C45C4",
"=X c #C64BC7",
"-X c #C354C4",
";X c #C355CB",
":X c #C45ACB",
">X c #C859C7",
",X c #E94FD2",
"<X c #E96ED3",
"1X c #D48ECF",
"2X c #FAB7E6",
"3X c #F6CDE9",
"4X c #1D1C1C",
"5X c #5B4546",
"6X c #684A46",
"7X c #5F4F64",
"8X c #ECDBE0",
"9X c #B234CA",
"0X c #F471EB",
"qX c #F3ACD1",
"wX c #6F4F50",
"eX c #884C72",
"rX c #B16899",
"tX c #B98DC9",
"yX c #BAC5B2",
"uX c #DFC4B5",
"iX c #68431E",
"pX c #1A1817",
"aX c #381C29",
"sX c #CE28AC",
"dX c #D8C3C8",
"fX c None",
"gX c #D1C5B7",
"hX c #E839DD",
"jX c #3A2425",
"kX c #D657E4",
"lX c #8A3275",
"zX c #2F2B5C",
"xX c #B425CF",
"cX c #835558",
"vX c #594739",
"bX c #69503A",
"nX c #B46BAC",
"mX c #64493A",
"MX c #6B1B64",
"NX c #B88AB4",
"BX c #E3AAB7",
"VX c #4D1732",
"CX c #9B1998",
"ZX c #D658C7",
"AX c #534652",
"SX c #8E626C",
"DX c #922EC4",
"FX c #342F19",
"GX c #513398",
"HX c #37444E",
"JX c #971A60",
"KX c #611828",
"LX c #341419",
"PX c #B91242",
"IX c #170617",
"UX c black",
/* pixels */
"fXfXfXfXfXfXfXfXfXfXfXfXfXfXfX- > > 7 : ; ; > ; > > ; ; ; ; : 8 - r # # y # # y 8 8 $ $ p - - % p p - - - % % + - + % + fXfX% % % + fXfXfXfXfX+ p + fXfX- fX",
"fXfXfXfXfXfXfXfXfXfXfXfXfXfX; fXfXfXfXfX; > - ; - & - ; ; > 6 6 ; r # # b e 9 # - 8 $ p $ $ p $ - % - p + % + - % % % - fXfX% % p % + + + % % p + % + % p fX",
"fXfXfXfXfXfXfXfXfXfXfXfXfXfXfXfXfXfXfX7 > > - > fXfXfX> > ; 7 ; k z j x Z C j j 8 - % - @ + p - - + - % % % % % p % % + % p % % + % fXfXfXfXfXfXfXfXfXp p + ",
"fXfXfXfXfXfXfXfXfXfXfXfXfXfX; fXfXfX; : > > > > - > - = ; : ; 6 8 z j n T Z j w - 8 % - @ $ - % % % % - + - % - - - + - % % % + % fXfXfXfXfXfX% fXfXfXfXfXfX",
"fXfXfXfXfXfXfXfXfXfXfXfXfXfXfXfXfXfXfX; = > > > > - > = - ; ; ; j x T Y ~.Y x j ; # - - & % @ % - % % % % % - + - + p % % - % % + % % % + % + % % - + p p + ",
"fXfXfXfXfXfXfXfXfXfXfXfXfXfX; fXfXfX> 7 fXfX- : > > - > ; ; 6 > j x I Y ( ] j j 9 # % - @ % % % - % - % % - % % % - - % + fXfX% % % fXfXfXfXfXfXfXfXfX% p % ",
"fXfXfXfXfXfXfXfXfXfXfXfXfXfXfXfX; > > > = > > 7 - - & > 6 6 9 6 j z 7X~.M.M.j j # ; % % % % @ & % - % - - % % % % % + % + - + - % + fXfXfXfXfXfXfXfXfXfXfXfX",
"fXfXfXfXfXfXfXfXfXfXfXfXfXfXfXfXfX: 7 > = * > > - > > ; 7 ; 9 0 j z Y 7XM.M.j j 6 # & - % % % = % % % % + - - % - % - + - + % % % % - % fXfXfXfXfXfXfXfXfXfX",
"fXfXfXfXfXfXfXfXfXfXfXfXfXfXfXfX> = ; ; 7 6 fXfXfX6 ; fXfX; w 9 w k j k 7XI k # 6 6 + - $ X X X % % % + % % % - + - - % % + - % % % fXfXfXfXp fXfX+ + p p + ",
"fXfXfXfXfXfXfXfXfXfXfXfXfXfXfXfXfX= > 0 7 7 6 6 7 > 6 7 9 9 9 w w k w j F D j k 9 6 - - * % $ % $ % - - + % + + % % % % % - - % % - fXfXfXfX+ % % p fXfX% p ",
"fXfXfXfXfXfXfXfXfXfXfXfXfXfXfXfX> > ; 3 9 9 0 0 6 0 9 9 7 9 w 9 # r # # k w e k 7 7 $ * * * * % % - % % - + % % - % % - % % % % fXfXfXfXfXfXfXp fXfXfX% p + ",
"fXfXfXfXfXfXfXfXfXfXfXfXfXfXfXfXfX> 9 3 9 7 fXfXfX; 7 9 7 0 w r 8 k w 8 w j e k 7 7 i * : * - * - - % - - - % - % % - + % - % % fXfXfXfXfXfX+ % % + + + fXfX",
"fXfXfXfXfXfXfXfXfXfXfXfXfXfX> > > > 9 6 9 r 9 r 9 9 9 r r r w r r w 0 r r r e e 7 6 > > 6 6 1 9 - ; - - - % % % % % % % - % - % fXfXfXfXfXfX+ % % % p % + % ",
"fXfXfXfXfXfXfXfXfXfXfXfXfXfX& > > > 0 9 r u fXfXfXfXfXr r c r c l r r l l l k w 9 0 i i 7 7 9 9 > 7 > > - - - % - - % - % % % % - - * fXfXfXfXfXfXfX+ p p % ",
"fXfXfXfXfXfXfXfXfXfXfXfX& > 7 ; 7 r c u l l c W.W.V l l l l t l r 8 t t e b n VXy b m w z w w w 8 7 6 ; 6 - - @ - % % - - % - % - fXfXfXfXfXfXfX% fXfXfXfXfX",
"fXfXfXfXfXfXfXfXfXfXfXfX7 > 6 3 9 9 t l l l W.c AXAXW.l b l b l c r t t e e M n b b V l c l l r 0 7 7 7 : ; ; - % - - - % - % - fXfXfXfXfXfXfXfX+ fXfXfXfXfX",
"fXfXfXfXfXfX3 > fXfX7 9 > ; > 0 z w x V J Z T L U T K K c b u b u c t u M e N G U T T T Z Q.M M l w 9 w 8 8 8 : - - : % * - * - - % % X % % % % p p % % % p ",
"> > > > > > > ; > > 0 > 0 0 7 0 c c l x Z T P Y Y U P K b W.b l i u r g W.y v N ) U T T Z Q.Q.n l w w 8 8 8 7 7 - - : % * * % % % * % % % % % % % % % X % % ",
"> > > > > > > ; 7 3 0 > 6 9 fXfXz z Z Z L T U ` ` Y Q U F D D F I F H B B B MXN U ) ) ` W U S !.n k w w 8 8 8 fXfX* : * % % % % % % % $ % % % X % % p % fXfX",
"fXfXfXfX3 > > 0 ; 3 > 0 0 0 r r z V Z T U Y ` ` _ _ U U F I F F F D h N B N H N ` U ) ] W W L J m n w w 8 8 8 8 : - : % % % % % % p % % p % % % X p % % X fX",
"fXfXfXfX& > > 0 > 0 > 0 0 r t u x V J L ` ^. .{ +./.` _ ~.E E E lXH H JXJ.J.lX! +.'  ././.fXfXQ C M e e 9 9 w 8 - - * * % % $ * % % % % % % % % % X % % X % ",
"> > > > > > > > 0 fXfX> 0 r t t V V P P ` ] } } /. .' /.~.~.( E H JXcXH JXlXlXlX#. .} /.[ ..~.! N M d t r 9 9 8 > - * % X % % - % % % X % p % % X % p % % p ",
"> > > > > ; > 7 7 0 0 0 r q u l J J U ` { } O.o.o.o.| | [ [ [ ~ JXC.JXJXC.JXCXCX<.-.O.fXfXo./.{ K S C Q.b e e w 1 & * - % % % % X % % % % % O % % % $ % % fX",
"fXfXfXfX7 3 > 7 > 3 0 0 r r l l J K W W o.X.*.,.*.*.`.`.[ [ ( [ lXJXJXlXJXC.CXCX-.-.,.*.O.X././.E K S M b b r 9 3 & - - % % % - % % X % X % % % % + p % % p ",
"fXfXfXfXfXfX3 7 0 7 0 u t l b W.T Y _ _ | (.1.;.:.=.:.;.#.$._._.C.JXJXC.CXlXCXCX*.).*.*.).)./.^.W W P K C b e e 3 & ; - fXfXfXfXfXfXfX% % % % % % % % p fXfX",
"fXfXfXfXfXfX7 > 7 0 r r u u W.W.K L ^.` | $.8.2.;.:.;.:.#.$.6.$.C.C.lXCXCXC.CXC.).).:.*.).X....._ Q Y L C M t e 3 3 & - > = % - - * % % % % % % % % % % % X ",
"fXfXfXfXfXfX> 0 7 7 u u b b D D Y Q ' +.#.:.8.&X2.2.2.1.=.=.>.8.C.C.C.3.-.-.5.#X'.DXDX,.*.,.O.o.^.^.W W F S m n 9 9 > ; - fXfXfXfXfXfX% % % % % % X % % % % ",
"fXfXfXfXfXfXi > 0 0 t r b b D F U W /.^.:.:.$X&X$X2.2.<.;.;. X8.{.C.C.C.5.-.5.<.'.'.DX'.,.O.o.X.[ ^._ W F Q.b n r y 0 ; 6 ; * fXfXfXfXfX& % % * % % %   % % ",
"fXfXfXfX7 > > 0 0 r u l W.W.Z I U ` (.(.>.].0.s.w.|.4.3.<.*X&X$X=.=.-.<.<.<.DXDX'.2.DX'.,.,.*.O.).X.^.] I K m M t r r 9 6 6 ; ; % * - % % % % % % % % X fXfX",
"fXfXfXfXi > 0 i 0 r u l W.V F I U W #.(.].]. Xw.w.0.4.4.2.#X$X4.-.-.<.-.<.DXDXxX#X'.'.DX<.'.,.*.).X.^.] ~.R A C l t r 9 7 6 : ; fXfXfXfX% % % % % % X % % % ",
"3 3 > > 0 > 0 0 u 3 t l C C L I { ^.X.`.8.XX+XoX+X[.[.0.2.<.2.2.;.1.<.4.#XxXDXDX#XDX#XDX'.<.;.*.*.*.(./.W Q A A m m e w 9 9 6 6 ; @ - + % * % % % % % % % % ",
"> 7 7 3 3 3 0 0 0 u l d D D L ~.^.' #.`.8.XX+XXX+X[.|.3.2.<.<.2.1.1.p.4.#Xp.#X9Xp.'.2.'.DX<.<.1.O.*.(./.[ ~.I I m m l z w 9 6 @ & ; % % & - $ % % % % % % = ",
"3 7 7 3 i 0 0 0 FXi W.g R F _ ! :.| =.`. Xw.OXoX%X[.4.3.#X4.<.<.<.2.p.p.9XxXDXp.#X#X#X#X1.<.2.$X&.&.| &. . .o.+.` !.J zXj e aX1 @ 1 ; @ - - + % fXfXfXfXfXfX",
"7 7 3 7 3 0 3 0 5 5 u u I S ' [ `.`.>.`.|.XX+Xw.s..X2.>.<.<.p.#X2.<.#Xp.#X9XxXDXDXDX#XDX<.2.p.$X`.:.| `. .o.#. .{ ) J J k j 1 9 ; 1 fXfX- @ % - fXfXfXfXfXfX",
"7 3 3 7 0 4 3 0 i 5 W.d E R [ #.*.,.=.=.|.0.OXs.s.OX.X4.5.#X#X4.9X<.p.p.9X9X<.<.DX#X#X#X4.4.$X&X2.;.#.:.&. . .X.{ ..U U Q.v e k 1 ; ; ; ; - - - fXfXfXfXfXfX",
"7 7 7 > 0 0 0 u 5 i W.b ~.E #.[ *.;.=.&.0.[.OXs.d.w.%X$Xp.4.4.p.p.p.p.9X&X%XxXxXDX#X#Xp.4.$Xs.&X8.1.&.:. .&.&. .....) U Z v k f 9 9 6 @ ; @ % @ fXfXfXfXfXfX",
"3 7 7 3 3 0 0 q u u F D _ _ #.&.,.,.,.;.0. X%Xs.-X-X;X;X%X4.5.3.5.#Xp.p.9X9Xp.5.<.<.<.<.5.4.5.%Xa.*X9.1.`.X. .X.X.} { { U U !.!.w 9 ; 6 fXfX@ fXfXfXfXfXfXfX",
"7 3 7 7 0 3 0 u l W.I F [ ! `.:.,.,.1.1.a.a.-Xs.OX%Xg.>X=X.X4.4.p.p.&X&X=X9Xp.p.4.p.4.<.0..X=X=XXXd.*X8.:.&.X.o.} X.}  ._ U P !.w 9 9 @ 6 @ - - fXfXfXfXfXfX",
"0 > 3 6 0 0 0 u l z I D  .` =.*.O.DX2.2.&X%Xd.s.=X;Xg.g.;X=Xq.4.4.%Xg.g.kX=X9X%X5.p.4.p.r.-X=Xq.*Xa.XX*X].&.#. .o.o.o.o.{ ^.U U e w 9 fXfX# - @ fXfXfXfXfXfX",
"fX0 > 0 3 3 u u z l I Z ^.` =.=.O.,.$X$X&X&X;Xs.=X>X=Xg.L.>X%X9X%X%XkXg.g.g.=X=X<.4..X%X@X=X=Xr.XX*X*Xf.8.:.&.#.o.&. .X././.` +.e e 9 9 1 @ @ - fXfXfXfXfXfX",
"0 0 > 0 0 0 3 u m z K Z ..' =.*.&.=.a.a.a.w.h.s.;Xg.;Xg.g.g.g.g.=X-Xg.g.g.kXg.g.$X%XOX-X+X{.OXoX8. Xa.$Xa.8.>.=.o.=.X.o. .} +.) e w w fXfXfX- fXfXfXfXfXfXfX",
"0 > 0 0 3 0 0 0 z z I Z [ ' =.=.$.#.$Xa.w.w.>Xs.-X-X=Xd.g.L.g.g.@X-Xg.g.L.g.g.ZX.X%Xq.-Xf.XXOX|.XXXX0.0. X X8.;.*.=. .o. .} +.+.w w 9 6 6 6 @ - fXfXfXfXfXfX",
"0 0 > > 3 0 0 5 l l Z Z ..[ o.o.#.#.oXXXOXoX+X@X:Xg.g.:X:X:X:X:Xy.>Xh.g.g.kXj.kXd.h.e.h.j.j.f.nXXXXX XXXXX X X8.=.;.| X.{ } ) +.k k w fXfX6 @ - fXfXfXfXfXfX",
"fX0 0 0 0 3 u r c l T D /._ =.*.#._.|.|.}.fXfX}.s.-Xd.s.:Xg.h.:X>Xy.g.>Xg.kXZXZX Xd.}.e.1XtXK.9.w.XXXX0.|.|. XXX#X2.X.X.{ +.` ` k k 9 w 6 @ - fXfXfXfXfXfXfX",
"fXfX0 3 0 3 9 r c r D x _ W | | *.;. X2.+XoX}.@Xy.>Xe.h.j.I.u.nXy.nX@Xs.-X-XZX@XXXe.I.I.U.x.tXtXoXK.|.K.[.[.|.]. X2. .#.+./._ ' k k w 9 6 6 - - fXfXfXfXfXfX",
"0 7 3 0 3 0 3 u i c D x W U ).).=.;.>.>.+X+X}.}.+X+Xe.h.I.I.nX}.y.y.-X@X=X-X@X@XnXe.I.I.1Xx.NXtX}.K.|.|.XX[.8.XX8.>.| | '  .` ^.b k 9 6 6 8 @ fXfXfXfXfXfXfX",
"7 0 7 i 3 0 3 0 r r V l Y U o.).DX,.<.'.d.;X{.q.oX+Xj.j.D.v.D.F.j.u.j.h.>X>X@X>XtXj.U.D.x.x.tXtXoXK.K.[.|.[.8.[.0.8. .' '  .U !.k e 8 8 - @ - - fXfXfXfXfXfX",
"i > 0 > 7 > 0 0 r r W.x U T } o.,.,.,.,.:X;X{.{.}.e.f.I.z.D.x.D.z.j.j.ZX>X-Xi.>X1XtXS.U.x.U.NXNX}.oXoX[.[.[.|.[.8.8.#. .' +.U !.k k 9 8 - 6 - fXfXfXfXfXfXfX",
"3 > i 3 7 > 0 3 r 0 l l V J I Y #.$.;.:.-.4.>XL.,XhX0X0Xv.qXA.P.c.c.n.8XP.NXl.1XyXA.D.x.v.D.K.[.oXXX[.|.XX].0.0.:.8. .$._ ` m n j 8 8 8 - - @ - p - p - X $ ",
"> 7 > 3 > i i 3 8 u c l V V T 7X#.$.`.&.4.4.kXL.k.k.0X0XY.2XdXdXuXuX3X8XP.l.l.l.S.A.c.x.D.z.oX[.{.{.XX|.|.[.8.8.#.>.(.#.` U n n # 8 8 - 8 @ $ - - p - p X % ",
"> > > 7 > > 3 fXfX0 r l m c D D ` +.! ' _._.ZXZX,X,XfXfXqXn.uXgXgXP.8X8XdXP.A.yXyXyXA.P.l.l.e.7.{.7.K.7.|.8.0.8.| `.` ^.!.x e e - 8 8 $ - - - p X % % % % X ",
"> > > i > 7 fXfX0 7 r u c z C D  . .' #._.].ZXZX,X,X,XZXc.n.uX8XyXyXgXT.T.gXT.T.yXyXA.P.nXnXy.}.7.7.7.[.|.[.8.0.| #.` ` J Q.t w 8 8 @ 8 - - $ @ % X % % X fX",
"fXi > 3 > > 3 > > 7 0 r W.t m m !.P Q Q @.' {.{.ZX,Xi.i.BXuXgXgX8X8XT.T.yXx.yXyXT.yXD.D.u.u.,XZX{.7.C.7.[.[.].$.^.' U U j Q.w w 8 - - @ - $ $ @ X % % % p % ",
"> > > 3 > i > 3 0 fXfXr t l M m P L ! [ $.@.q.5.,Xi.u.i.BXBXgXuX8X3XT.T.x.yXyXT.P.gXqXz.i.u.<XZXfXfXfXfX7.].].$.' ' U !.j v e 9 - 8 $ 8 - - @ $ % % % $ % % ",
"> > > i 3 > > i > i 7 fXfXfXn b M m A A Q Q %.#.C.3.t.@X}.t.D.H.D.U.U.x.S.D.S.F.3XY.z.u.,Xi.,X,Xi.>X{.{._._.~ ! P P n n # 8 1 , 8 @ - @ p 8 - - % % % % % fX",
"fXfX> > > > 3 > 3 3 7 7 r t z m C D Z K Q Q #.CX3.5.@Xu.y.rXD.1XU.b.D.U.F.D.S.Y.Y.3Xu.u.i.,X,X,XZX>X|.oX_.%.! ~ Q.Q.n V w 9 , & @ 8 $ $ @ $ p - % X % % % X ",
"> > > = > > > > > > i 3 0 0 r q q g M g R R MX+.,.+.p.p.Z.9X0X0Xv.v.qXc.uXP.qXn.c.Y.u.rXu.u.q.@X X[.>.$.^.' U !.x x j 8 - 8 + 6 % % % % % X % p % $ % X % % ",
"> > > i > > > > > > > fXfXi r r 5 f d N P S lXMX,.o.4.4.5.Z.k.0Xv.v.c.qXuXP.qXn.c.Y.l.rXy.j.@Xq.oX|.>.>. ./.U U x x c j 8 - 6 + % % % % % % % X % % % % X fX",
"fXfX: > > i * fXfXfXfXfX> > 3 0 0 0 k w v v H H %.! 2.#XZ.=Xk.k.r.<Xz.qXc.Y.qXBXBXz.@X}.{.{._.C. .' ~.R v !.j v c c 8 zX: 6 % % O % X * & % % % % p % % % X ",
"= i > > = = i : > i 3 > > > 3 0 4 fXfXl N S H H lX' 2.4.Z.Z.,Xk.i.ZXqXqXBXn.qXY.z.l.y.t.{.@X[.3.#.@.! Q L !.j n c j 8 8 6 - * % % * % % O % % % % % % % % % ",
"* i = * : * i > > > > 3 i 3 3 < 8 w / ^ V.iXbXbXJ.( @.6.7.{.%X4.r.sXu.t.u.u.rXrXK.rX_.6.@.! E R R MXN v Q.C # w 8 8 8 : - - O O % X * X * X % X % % X % X fX",
"fX* O i > : = = > > > > 3 > = > w # 7XwXbXV.cXcXeX~ ~ lX7.6.5.4.{.r.u.u.l.u.7.SXK.7.6.].@.! Q E MXS v v n C w e 8 8 8 7 - - O X % % % * % % * % X % X % % % ",
"i $ i : : i : : fXfXfXfXfXfX3 , 3 . V.m.KXcXbXV.cXbXG fXfXlXlXJ.7.6.J.J.cXH H H J.H MX! S !.D C d VXaXy 2 y @ 0 3 > = > X O X O % X % * X * X % O % % * % O ",
"> * i * : : i fXfXfX3 > > > 3 & 4 4 G.bXV.bXiXbXcXcXm.H lXlXJ.eX6.6.J.lXJ.H H fXfXH MX! v S F N f f f f aXy , 1 > > * $ O O X O % % O X % % % % % * X % % O ",
"fXfXfXfXfXfXfXfXfXfXfXfXfXfX& 1 fXfX6X6XV.m.6XcXcXbX6X6Xg 5XF / fXfXG B B N N N N C W.h g d y y f VXaXjX1 1 1 0 fXfXfXfX> ; % % % fXfXfXfXfXfXfXfXfXfXfXfXfX",
"fXfXfXfXfXfXfXfXfXfXfXfXfXfX& fXfXfXfX5XfXfXfXcXG.V.6XG W.6XB B G B B N h N N M B N g b d d f y y 2 4 2 jXy 1 3 ; ; ; ; - - % * % fXfXfXfXfXfXfXfXfXfXfXfXfX",
"fXfXfXfXfXfXfXfXfXfXfXfXfXfXfX& wXfXfXfXfXfXmXmXmXbX6XfXfX5XB B g h f f f f f f f aX2 2 aXaXLXa h h R.g fXfXfXfXfXfXfXfXfXfXfXfXfXfXfXfXfXfXfXfXfXfXfXfXfXfX",
"fXfXfXfXfXfXfXfXfXfXfXfXfXfX& & AXfXfXfXmXmXmXmXR.mX6XV.R.B g fXfXf f f f f f f a f y 2 y jXVXh fXfXB fXfXfXfXfXfXfXfXfXfXfXfXfXfXfXfXfXfXfXfXfXfXfX- * * fX",
"fXfXfXfXfXfXfXfXfXfXfXfXfXfX& & mXvX^ bXbXbXbXbX^ V.^ V.5XR.4 4 2 2 2 4 4 2 2 jXaXjXjXB.2 a fXfXa fXfXfXfXfXfXfXfXfXfXfXfXfXfXfXfXfXfXfXfXfXfXfXfXfXfXfXfXfX",
"fXfXfXfXfXfXfXfXfXfXfXfXfXfX& & fXfXfXfXfXfXfXfXV.V.fXfXfXfX< 1 jXjXjX< 2 jX, aXaXaXjXLXjXfXfXs fXfXfXfXfXfXfXfXfXfXfXfXfXfXfXfXfXfXfXfXfXfXfXfXfXfXfXfXfXfX",
"fXfXfXfXfXfXfXfXfXfXfXfXfXfX= > fXfXfXfXfXfXfXE.fXfXfXfXfXfXfX, N.N.o N., , o B.5 5 B.fXfXs R.R.R.fXfXfXfXfXfXfXfXfXfXfXfXfXfXfXfXfXfXfXfXfX* % % % X fXfXfX",
"fXfXfXfXfXfXfXfXfXfXfXfXfXfXfX> fXfXfXfXfXfXfXbXvXbXvXbXg R., , N.o o o o o fXfXfXN.N.N.N.s s h fXfXfXfXfXfXfXfXfXfXfXfXfXfXfXfXfXfXfXfXfXfXfXfXfX% % p fXfX",
"fXfXfXfXfXfXfXfXfXfXfXfXfXfXfXfXfXfXfX5XmXmX^ mXvXvXvXR.B.jXN.& < o X fXfXfXfXfXfX, B.N.fXfXR.s s B.fXfXfXfXfXfXfXfXfXfXfXfXfXfXfXfXfXfXfXfX* * * * % % * fX",
"fXfXfXfXfXfXfXfXfXfXfXfXfXfXfXfX5 s E.vXmXbX^ bXvXfXfXN.N.N.N.< O fXfXO fXfXfX< , , fXfXfXfXfXfXfXfXfXfXfXfXfXfXfXfXfXfXfXfXfXfXfXfXfXfXfXfXfXfXfXfXfXfXfXfX",
"fXfXfXfXfXfXfXfXfXfXfXfXfXfXfXfX= 3 s E.E.vXvXvXE.E.FXfXfXo X % fXfXfXfXfXfXfXfXO fXfXfXfXfXfXfXfXfXfXfXfXfXfXfXfXfXfX- fXfXfXfXfXfXfXfXfXfXfXfXfXfXfXfXfXfX",
"fXfXfXfXfXfXfXfXfXfXfXfXfXfXfXfX= 5 g E.E.fXfXfXE.FXN.o . .     4X4X4X4X4X  fXfX. fXfXfXfXfXfX4 fXfXfXfXfXfXfXfXfXfX% & fXfXfXfXfXfXfXfXfXfXfXfXfXfXfXfXfXfX",
"fXfXfXfXfXfXfXfXfXfXfXfXfXfXfXfXfX  & O o o N., < , , , & + +   p 4Xp p 4X  + + + +   . . . & < fXfXfXfXfXfXfXfXfX  % + fXfXfXfXfXfXfXfXfXfXfXfXfXfXfXfXfXfX",
"fXfXfXfXfXfXfXfXfXfXfXfXfXfXfXfXfXfX& & & o o . . . o + . . + p 4X4XfXfXfXfXfXpX4XpXpX4X. . o N.fXfXfXfXfXfXfXfXfX  % fXfXfXfXfXfXfXfXfXfXfXfXfXfXfXfXfXfXfX",
"fXfXfXfXfXfXfXfXfXfXfXfXfXfXfXfX- . pXpXpX. . pX    4X4X+ pX% fXfXfXfX; fXfX% fXfX  fXfX. fXfX= fXfXfXfXfXfX+ % X % - fXfXfXfXfXfXfXfXfXfXfXfXfXfXfXfXfXfXfX",
"fXfXfXfXfXfXfXfXfXfXfXfXfXfXfXfX3 fXfXfX%     . . fXfXpXfXfXfX> * - - - ; ; - % fXfX4XfXfXfX      . fXfXfXfX  . = = & - % % * fXfXfXfXfXfXfXfXfXfXfXfXfXfXfX",
"fXfXfXfXfXfXfXfX: > > : = fXfXfXfXfXfXfXfXfXfXfXfXfXfXfXfXfXfXfXfXfXfXfXfXfXfXfXfXfXfXfXfXfXfXfXfXfXfXfXfXfXfXfXfXfXfXfXfXfXfXfX% * & % % * fXfXfXfXfXfXfXfX",
"fXfXfXfXfXfXfXfXfX= > = > > - fXfXfXfXfXfXfXfXfXfXfXfXfXfXfXfXfXfXfXfXfXfXfXfXfXfXfXfXfXfXfXfXfXfXfXfXfXfXfX+ + + - fXfXfXfXfXfXfXfXfXfXfXfXfXfXfXfXfXfXfXfX",
"fXfXfXfXfXfXfXfXfX> : > > > > = fXfXfXfXfXfXfXfXfXfXfXfXfXfXfXfXfXfXfXfXfXfXfXfXfXfXfXfXfXfXfXfXfXfXfXfXfXfXfXfXfXfXfXfXfXfXfXfXfXfX% % % % % fXfXfXfXfXfXfX",
"fXfXfXfXfXfXfXfX= > > > = > > : fXfXfXfXfXfXfXfXfXfXfXfXfXfXfXfXfXfXfXfXfXfXfXfXfXfXfXfXfXfXfXfXfXfXfXfXfXfXfXfXfXfXfXfXfXfXfXfX% % * % % % % % fXfXfXfXfXfX",
"fXfXfXfXfXfXfXfX: > > = fXfXfXfXfXfXfXfXfXfXfXfXfXfXfXfXfXfXfXfXfXfXfXfXfXfXfXfXfXfXfXfXfXfXfXfXfXfXfXfXfXfXfXfXfXfXfXfXfXfXfXfXfXfXfXfXfXfXfXfXfXfXfXfXfXfX",
"fXfXfXfXfXfXfXfXfXfX: > > > = fXfXfXfXfXfXfXfXfXfXfXfXfXfXfXfXfXfXfXfXfXfXfXfXfXfXfXfXfXfXfXfXfXfXfXfXfXfXfXfXfXfXfXfXfXfXfXfXfX* % % % - fXfXfXfXfXfXfXfXfX"
};
