/* XPM */
static char *_a20353eb8434bd2f1c2a8740e7404e78vAgghH6n4FzEMlb_33[] = {
/* columns rows colors chars-per-pixel */
"78 86 256 2 ",
"   c #221D1D",
".  c #271D1A",
"X  c #24221D",
"o  c #2B231D",
"O  c #2A291D",
"+  c #231E21",
"@  c #291D28",
"#  c #321B36",
"$  c #1B2C29",
"%  c #252425",
"&  c #2A2524",
"*  c #252926",
"=  c #2A2925",
"-  c #262529",
";  c #2A262B",
":  c #26292A",
">  c #2B2A2B",
",  c #332523",
"<  c #342A24",
"1  c #33252C",
"2  c #3B242C",
"3  c #322A2D",
"4  c #3B2B2B",
"5  c #3B312A",
"6  c #2C2532",
"7  c #2D2A32",
"8  c #2B2638",
"9  c #322634",
"0  c #332A34",
"q  c #3B2B34",
"w  c #34253B",
"e  c #3A253C",
"r  c #352B3A",
"t  c #3A2B3C",
"y  c #3C2433",
"u  c #383138",
"i  c #283332",
"p  c #1D1F20",
"a  c #432B2A",
"s  c #46352B",
"d  c #442A3B",
"f  c #462837",
"g  c #493735",
"h  c #522E37",
"j  c #381C4A",
"k  c #3B2543",
"l  c #3C2B43",
"z  c #392747",
"x  c #3C2653",
"c  c #342E47",
"v  c #4A1C52",
"b  c #432B44",
"n  c #43254C",
"m  c #432B4B",
"M  c #492947",
"N  c #542A48",
"B  c #573748",
"V  c #452B53",
"C  c #4B2C54",
"Z  c #4C2B5B",
"A  c #532C5C",
"S  c #552857",
"D  c #4A3256",
"F  c #573358",
"G  c #653857",
"H  c #692E54",
"J  c #4B2865",
"K  c #542B63",
"L  c #5B2C6C",
"P  c #572768",
"I  c #583367",
"U  c #5A2976",
"Y  c #5B3375",
"T  c #4C306C",
"R  c #652969",
"E  c #663569",
"W  c #632C7C",
"Q  c #662A78",
"!  c #752A79",
"~  c #763679",
"^  c #6A5446",
"/  c #694657",
"(  c #764A6B",
")  c #5B2C85",
"_  c #6B2C84",
"`  c #662886",
"'  c #752B8A",
"]  c #6A3387",
"[  c #763489",
"{  c #6C2A94",
"}  c #742C9B",
"|  c #7B2C9C",
" . c #792897",
".. c #6B3395",
"X. c #7C2CA3",
"o. c #7929A7",
"O. c #772CB0",
"+. c #6D1D92",
"@. c #863789",
"#. c #842B9A",
"$. c #863599",
"%. c #8F2D8C",
"&. c #832CA4",
"*. c #832CAB",
"=. c #892BA9",
"-. c #952AA9",
";. c #8C33AB",
":. c #8836A8",
">. c #9638AA",
",. c #882CB5",
"<. c #952DB7",
"1. c #8C32B3",
"2. c #9737B7",
"3. c #A639A8",
"4. c #A53AB9",
"5. c #B12FB3",
"6. c #924892",
"7. c #AA4E99",
"8. c #9B44B6",
"9. c #8D49AB",
"0. c #A646B7",
"q. c #B74BB7",
"w. c #B453BC",
"e. c #B965B8",
"r. c #C64BB8",
"t. c #CF53B4",
"y. c #C665B9",
"u. c #CD6FB4",
"i. c #DA5BB3",
"p. c #A539C5",
"a. c #B453C3",
"s. c #BC54C4",
"d. c #BB57C8",
"f. c #BB67C5",
"g. c #C857D4",
"h. c #C865C6",
"j. c #D370CD",
"k. c #ED4FE8",
"l. c #CD8BB8",
"z. c #E991D2",
"x. c #D2AFCF",
"c. c #E5B8C9",
"v. c #F9A8E7",
"b. c #EEB0EC",
"n. c #EBCBD4",
"m. c #774A57",
"M. c #774590",
"N. c #35281D",
"B. c #3B2C24",
"V. c #74554A",
"C. c #A83595",
"Z. c #CE37CD",
"A. c #D8B9C9",
"S. c #D9B9D5",
"D. c #E7A9D8",
"F. c #E6B7D7",
"G. c #785655",
"H. c #F392EC",
"J. c #753469",
"K. c None",
"L. c #D44ED2",
"P. c #D1B6B7",
"I. c #C987C7",
"U. c #DAA3E3",
"Y. c #F8B6D8",
"T. c #D4C4CF",
"R. c #533B39",
"E. c #514334",
"W. c #473248",
"Q. c #472557",
"!. c #521C6A",
"~. c #673378",
"^. c #6C2B8B",
"/. c #732C94",
"(. c #783397",
"). c #7B33A5",
"_. c #963899",
"`. c #8332A4",
"'. c #8934B7",
"]. c #9945A8",
"[. c #A749AA",
"{. c #B54BAA",
"}. c #B656AA",
"|. c #AC4CB4",
" X c #AC4CBB",
".X c #B34DBC",
"XX c #AC53B7",
"oX c #B453B4",
"OX c #BB53BC",
"+X c #B958B7",
"@X c #C557BA",
"#X c #9935C4",
"$X c #AA46C4",
"%X c #B74AC6",
"&X c #B350CD",
"*X c #9C45C4",
"=X c #C64BC7",
"-X c #C354C4",
";X c #C355CB",
":X c #C45ACB",
">X c #C859C7",
",X c #E94FD2",
"<X c #E96ED3",
"1X c #D48ECF",
"2X c #FAB7E6",
"3X c #F6CDE9",
"4X c #1D1C1C",
"5X c #5B4546",
"6X c #684A46",
"7X c #5F4F64",
"8X c #ECDBE0",
"9X c #B234CA",
"0X c #F471EB",
"qX c #F3ACD1",
"wX c #6F4F50",
"eX c #884C72",
"rX c #B16899",
"tX c #B98DC9",
"yX c #BAC5B2",
"uX c #DFC4B5",
"iX c #68431E",
"pX c #1A1817",
"aX c #381C29",
"sX c #CE28AC",
"dX c #D8C3C8",
"fX c #BAB0A7",
"gX c #D1C5B7",
"hX c #E839DD",
"jX c #3A2425",
"kX c #D657E4",
"lX c #8A3275",
"zX c #2F2B5C",
"xX c #B425CF",
"cX c #835558",
"vX c #594739",
"bX c #69503A",
"nX c #B46BAC",
"mX c #64493A",
"MX c #6B1B64",
"NX c #B88AB4",
"BX c #E3AAB7",
"VX c #4D1732",
"CX c #9B1998",
"ZX c #D658C7",
"AX c #534652",
"SX c #8E626C",
"DX c #922EC4",
"FX c #342F19",
"GX c #513398",
"HX c #37444E",
"JX c #971A60",
"KX c #611828",
"LX c #341419",
"PX c #B91242",
"IX c #170617",
"UX c black",
/* pixels */
"K.K.K.K.K.K.K.K.K.K.K.K.K.K.K.= > * > = 7 0 w w 9 w 6 6 ; > 9 9 8 # j c W.D r 8 # 9 y # 9 6 - > 6 - - $ ; % % & K.K.K.K.K.K.- % % % K.K.p + + + + % K.K.K.K.",
"K.K.K.K.K.K.K.K.K.K.K.K.K.K.= > * * > > 6 0 w w # w 8 : ; 7 9 w w 8 # k D W.r 8 ; 9 w y 9 6 - > : 6 8 - - & @ & & K.K.K.K.K.K.K.K.K.% + % K.K.K.K.K.% % % K.",
"K.K.K.K.K.K.K.K.K.K.K.K.K.K.K.K.: > = > 9 6 w e w w 7 : ; > 9 9 8 # k w W.D r 8 1 9 y e 9 9 - & - 8 $ - - - & % % K.K.K.K.K.K.K.K.K.K.K.+ K.K.% K.K.K.+ + K.",
"K.K.K.K.K.K.K.K.K.K.K.K.K.K.> > = > = = 9 0 w 9 w w : 8 ; 6 9 w w 6 k c D m w 8 9 9 # e 6 ; - - 8 - $ - & % @ % % % K.K.K.K.K.K.K.K.% % % K.K.K.K.K.K.% p K.",
"K.K.K.K.K.K.K.K.K.K.K.K.K.K.K.K.= > = > 9 9 w w w w 8 7 ; 7 9 9 8 8 # w r l w 8 9 1 # # 9 6 - > - $ $ @ - @ K.K.% - K.K.K.K.K.K.K.K.K.+ + p % + K.K.K.K.K.K.",
"K.K.K.K.K.K.K.K.K.K.K.K.K.K.> > > > > = 9 9 w w w w 7 7 7 6 9 w w 6 j w c w c w 3 1 e y 6 6 - ; @ 8 $ 8 - - - - % * K.K.K.K.K.K.K.K.K.% + + p p K.K.K.+ + p ",
"K.K.K.K.K.K.K.K.K.K.K.K.K.K.K.> > ; ; 9 k k n n j k z w w w w w 9 8 w j w w # 8 9 1 # y 9 ; : : 8 @ $ p - - - - % & K.K.K.K.K.K.K.% + + % % K.K.K.K.K.p p K.",
"K.K.K.K.K.K.K.K.K.K.K.K.K.K.& > ; > 9 ; k k m V Q.C w z w w w w w w 8 j w 8 j 8 1 3 e e 6 9 7 : $ 8 $ 8 - @ - + % + K.K.K.K.K.K.K.K.K.p % + K.K.K.+ K.K.+ % ",
"K.K.K.K.K.K.K.K.K.K.K.> > > > > 9 9 w e Q.x ~.U ~.~.v v n n w e 9 9 2 9 1 1 1 1 k k j v j Q.x z 8 8 : : ; - ; - = K.K.K.K.K.K.K.K.K.- K.K.K.K.K.% K.K.K.K.K.",
"K.K.K.K.K.K.K.K.; > 3 > > > ; 0 ; 9 r t Q.v ~.~.] ] Q.Q.j n t w w 0 q 1 1 1 q 9 k k n j V Z D x w 8 8 8 ; ; & - K.K.K.K.K.K.K.K.K.K.% + % p K.K.p K.K.K.K.K.",
"K.> > > > > > > > > > > > > > 3 w e n n !.!.[ [ (.(.E U v v n n e e 0 y 1 9 y y n n !.J U U L Q.z j 8 9 9 7 ; ; K.K.K.K.K.K.K.K.% + % p % K.K.K.K.K.K.K.K.K.",
"K.3 > > 3 > 3 > > > > > > 7 > > w 9 n m !.J (.(.6.9.] _ v !.n M t e q r 4 q t r n z !.P Y ~.~.!.n n w r 9 6 > - - K.K.K.K.K.K.K.% - + % % K.K.K.K.K.K.K.K.K.",
"> > 3 > > > 3 > > > > > > 3 ; 0 8 r n n !.U M.M.9.9.M.M.!.!.Q.Q.b b y t y 4 e d v !.U ] (._ Q !.Q.v b k w w 6 ; - * K.K.K.K.K.K.- % p % K.K.K.K.K.K.K.K.K.K.",
"K.K.K.> > > ; > > > > > 7 > 3 > r r n Z _ ] 9.9.9.9.M...!.!.Q.Q.b n t t 0 q e e Q.J ` ] (.` U Q S Q.n b w 9 ; 6 K.K.K.K.K.K.K.K.+ % - + % % % + K.K.K.K.K.K.",
"> > & 3 3 > > ; 3 > ; 3 > 3 0 7 8 i n V ` ] 9.9.9.9.).M.P U A Z n M n l l b V C U U { } /...' _ L !.n n z w 9 6 & - * - - * * - % % + % + K.K.K.K.K.% p - + ",
"3 1 > > > & 0 > > > > K.K.K.> 0 7 r n V _ ] 9.9.9.9.[ ] L U K I Q.S M M b W.C D U U { } (.:.(.(.L Q.Q.n l z w w > & K.K.K.K.K.K.% % % % K.K.K.K.K.K.K.K.K.K.",
"K.= > = 3 K.K.K.K.> i > 0 > 7 i 7 i l V _ ] 9.9.9.$.] _ I I T I P MXMXJXJXJXJXJX} ......).9.{ { K S n n x k z 8 ; ; = * % % % K.K.K.+ % p - + K.K.- + p + p ",
"= > > & = > & > > > 3 > 3 i 3 0 8 i m V ] [ 9.9.$.[ ] ! I I T 7XR R JXMXJXJXJXJXO...O.).).).} { L S Q.n l k w w > - - > % % % % % % % % p - % % % p + - % + ",
"> > > 3 > > 3 > > > > > > 7 0 i i i c c ~ ~.9.6.(.[ _ ~ E E ~.E J.! JX! JXJX! JX&.CX'.1.9.'.} { U U K Z n n w j ; ; - - - % % - % + + - - + - % p % % + p - ",
"3 K.K.K.K.K.1 > > > > > > 3 3 0 i c x D W M.9.9.[ [ ] ~.~.~.~.~.! lXMXJXMXJXJXlXCX=.9.'.'.9.{ { W W P K C m k k 3 & & & - - % % - % % + - % % + - K.K.K.% + ",
"> > i > > > 3 > > > > 7 7 7 r r i u b W.L L ~ M.~ ] ~.] ~ ~.~ [ ' ~ %.MXMXCX%.%.=.-.8.2.'.9.o.{ ^.` Y U J Q.z z 3 3 & - - - - % % % % - p % + % p - p - % + ",
"> > 3 > > > > > > > > > > 0 r u i i m M Q P ~.~.~.~.~.~._ ~ [ [ [ @.%.%.%.%.#.%.-.CX8.2.9.).} } ..{ ] Y A Z m x 9 0 7 - - - % % - - % + - % % % + - - p + % ",
"i < > > 3 i > i i > 3 i 0 0 r u u c m V I A E R _ ] [ /.[ @.@.[ M...+. .#.CX>.2.).).).).).9.=.&.} } ` ` P K V n e w 8 9 6 6 - - - p % % - p - + % % + % % - ",
"> > 3 > > > > 3 > > 3 > > 0 t u u u m V L A R I _ _ ] [ @.[ #.@.....#.#._.CX-.8.).).9.).).:.-.=.X.} ..) P P Z Q.t r 9 6 : : - - - - + % - - + - p - % + K.K.",
"K.> > > > > i > > > i 3 3 0 q t c u D C T L ` ) ^.[ (. .#.`.1.1.).).).`.<.=.-.5.=.*.-.-.-.-.-.>.X.} ^.] L L Z Q.m k w 9 6 6 ; 6 - - - % - + - + % - % % % % ",
"i < < > > > < > > i 3 3 0 0 u u HXu C D L I _ ` ..(.#.(.&.:.'.'.9.9.:.:.-.<.CX5.<.5.-.=.-.5.2.<.X.X.] ^.L Q A C m n w w 6 6 6 - - p - - % - % % p p % % % + ",
"> > i > > > i > > 3 i 4 q t l l b W.Z A U ` { } X.*.;.;.1.2.DX#X5.sXCX-.<.<.DX<.sXsXsXsX5.5.4.3.'.*.{ } _ ] P P Z Q.k z w # 6 - 8 - % % % % % % - - % + p - ",
"i i > > > > > K.K.> 0 0 t u t l W.D F I ) ` o.o.X.*.1.'.2.8.#Xp.5.5.<.-.2.DX<.#XsXhXsXsXsX5.4.-.'.'.} )._ ] L K Z Q.z z w 8 8 8 - @ % - - % - % % - % - + - ",
"> > i 3 > > > > i 3 3 0 t t b V Z K U W ^.{ X.&.X.:.2.8.8.$X$X0.xX5.4.4.#X'.2.#XhXsXsXsX5.5.'.9.'.'.O.:.(.(.Y L P Z n x c z 8 8 6 - p - % % % % - % % + K.K.",
"K.K.K.K.K.K.3 i 3 3 0 3 u t b m I I ~._ /.{ X.*.:.;.8.8.8.$X$X$XsXsX4.#X*X#X4.#XsXsXhXsXZ.5.*X*X#X8.:.'.(.(.W U L K V n c k 6 8 - 6 - - % - % - % + % - - + ",
"> K.K.3 3 > i > > 3 0 3 l l V Z Y ~.^.^. .} &.:.>.>.0.&X&X&Xd.%X*Xa.XX9.$Xp.5.p.4.4.4..X X0.*X9.#X8.'.2.#.#.^.^.Q U K Z Q.n z j 6 ; - @ - - % % - + + % + K.",
"K.i > > > > < > 3 3 i u t l V C Y Y ^.]  .| =.2.>.2.$Xd.&X&Xd.d.f.*X*X*X$X$X5.9X4.4.%X$X0.$X9.8.$X$X'.*X`.`.[ [ _ ~.T J V x z k 6 6 6 + - - - + - - + $ % % ",
"> > > > i > > = > 3 r q l l Q.D _ `  .o.&.X.>.3.|.|.&Xd.&Xd.-Xs.&Xa.%X%X%X$X.X4.4.q.%Xq.%X.X.X.X0.$X8.8.>.:.$.(. .' +.U !.!.Q.j 9 1 @ K.K.@ + - - - K.K.K.K.",
"> > < > < > > i 3 > u 0 k l C Z _ ` } +.&.&.0.0..X%X%Xd.:Xd.-Xd.d.d.%X%X%X X%X%X%X%X9Xr.9Xq.%X%X%Xa.$X0.].9.:.$.|  .` ` ) !.V v q 9 6 - 6 - - - p - K.K.K.K.",
"i > > i i = i < > i r r l m V Z ] ^.o.o.=.&.0.4.q.q.=X&Xd.g.@X@Xd.d.s.s.%X%Xs.q.s.q.OX%Xq.%XOX%Xa.a.a.XX8.8.>._.#. . .^.` ) J v t w 9 6 @ 6 + - - % - % % $ ",
"i > > = i = O i 3 3 r t k l Q.D ..` o.o.*.=. X0.q.w.&X&Xg.d.@XOX:Xg.;Xd.-X-X%X%X%Xs.%X=X;X=Xs.s.a.a.a. X|.0.2.:. . ././.` ` K Q.e w 6 6 6 6 6 K.K.- $ % % X ",
"> > i > > i O = i > u r l m n Z ..^.o.O.;.1..X.Xq.w.;Xd.g.d.@X@Xd.;X:X;X:X;Xs.%Xs.;Xs.;Xd.=X-X%Xs.%XXXXX X0.>.;. .o. .X.^.` P !.l e 9 9 6 6 K.K.- K.K.% % $ ",
"> > > > O i < * 3 3 r t k l V C ] ] o.*.1.<..X.Xw.q.;X&Xd.;X@X-X:X;X:X:X:X:X:X;X-X;X;X;X;X;X-X-X-X%Xw. X X0.>.&.#. . . .^.+.R P l l e 9 # 6 8 K.K.- % % % % ",
"i > > > > = i = > > r u l m m D ] ] O.*.2.'.s.%XOXw.%Xd.;Xd.@X@Xg.g.d.:Xd.:X:Xd.:X>Xg.;X;X;X-X%Xs.OX XXX|.8.].$.&. . . ././.Q !.m k w w 6 6 8 @ - % % % + $ ",
"> > > i O i O = 3 3 r r k b Q.Z ] ] *.1.'.#Xs.%XOXs.%X;Xd.-X@X}.g.g.;X:Xh.d.d.h.:X>X>X;X;X-Xs.s.s.-XXXq.XX|.].:.=.#. . . .{ W R l b w 9 6 9 - K.K.K.% p % % ",
"> > > : > = = = > i q u l l V C ` _ O.1.1.2.&X&X+Xq.-Xs.-X;X@X@XkXL.g.d.nXXXU.j.:Xh.g.g.;X;X=X-XOXs.q.|.|.|.].>.&. .o.o.o.o.+.!.l b w w 6 6 @ K.K.K.% % X % ",
"> > > i > > O = 3 i t q l m V C U W :.*.1.2.$X%XoX@Xs.s.;Xs.@X@XL.kXh.d.e.XXH.j.:Xh.g.g.;X;Xs.s.s.a.w.w.|.|.].>.#.o.o.o.+.O.` !.k n w w 6 6 8 K.K.K.% K.K.% ",
"> > > 7 * i i i > 0 u r m m V C P Q &.o.=.1.0.%X+Xq.%Xs.s.;X@Xy.g.L.h.h.I.l.H.b.d.y.;X>Xg.=XOX+X+X-Xw.w.|.|.8.>.,.o.o.o.} o.U U z z 9 9 6 8 - - % % % p X K.",
"K.i : > = FXi O > 3 r r l m V Z P !.&.X.=.*.0.%X}.oX-Xs.-Xs.@X@XL.=X+Xe.I.1XU.U.y.-Xg.g.>X;X+X+XOX@XXX|.|.|.].>.,.=.o.o.{ } U U m z w K.K.K.@ - $ % X X % $ ",
"> > > i = i FX> 3 i q u l m C Z !.S  .| =.=.[.|.oX+X%Xs.s.s.t.@X=X-Xl.I.qXF.Y.Y.h.d.>Xg.=X=Xw.+XOXOXw.XX|.|.0.>.,.o.O.o.O.{ U J l k 9 8 K.K.K.K.% p % p p % ",
"> > i > i O O i 3 i q t W.m C C MXP '  .&.&.3.3.{.oX-Xs.-XOXy.}.@Xr.j.1XF.F.b.F.d.y.g.g.L.>XOX+XOXw.w.oX|.|.>.>.o.O.o.o.} { T !.k z w 8 K.K.8 - % % X % % p ",
"> > > > FX> i = 3 3 r r l c Z V S Z ! ' -.#.3.[..Xw.s.d.s.>X@Xy.+Xt.2Xb.c.F.F.Y.y.y.;X>Xg.=X-X@Xa.w.oX|.|.0.-.=.o.=.o.} { +.J x z 9 6 6 - - - - % X % % % % ",
"> > > > i > < = i > r r l m C n A S +.' #.#.3.3.q.s.d.:X-X-X@X@X{.y.3X2Xc.x.c.F.e.h.g.ZX=Xg.@Xs.d.%XoXoX0.0.#.#.*.o.o.} ..` J v 8 8 6 8 8 @ * - X % % % % X ",
"i > > i < i = i < i 5 > u r l W.x D ~._ =.CXxX5.hXhX,X,X=X>X+X}.tXI.3X3Xc.x.A.A.1Xj.:X:XL.L.g.>Xs.OXa.%X0.0.$.#.&.;.} /.W U n n 6 6 6 6 - - - p - % % % % % ",
"> > > > = i = = i < i > r u l u D D W ~.CX=.CX5.hX,X,Xk.ZXZXy.}.x.x.3X3Xc.P.c.P.1X1X>Xd.=X=X=X>X%X.Xd.$X4.[.=.#.X.=./.| U U f j 6 6 : 6 @ - $ @ - + % % % % ",
"= = > i > > > = = = = 5 7 3 r u c x R ~.=.CXDXxXhXhX,Xk.i.,Xi.i.x.x.n.3XA.K.K.P.1XNXf.XX%XL.r.5.[.{.w.|.>.>.#.#.&.| ^.^.v J e w 6 6 - 6 - - - $ % % % % % % ",
"i i = < = = i i > i > > 3 0 r u x c Q ~.CX,.xXCXhXhX,X,XZ.t.<Xi.A.A.n.n.A.A.A.P.1X1Xf.d.=X9XL.t.3.{.q.[.-._.=.#.X.#.^.` !.Q.e # : 8 - - - - - - % % % X % * ",
"O > = = < i i O < > > > > > u u u t W.D  .X.5.<.hXZ.L.k.hXZ.<X0XK.3XK.S.x.P.tXP.x.x.j.1XZX<XZXi.t.}.[.C.>.%.#.#.(.} U U z n 0 9 6 - - - - - - p K.K.K.K.K.K.",
"< > i < i O < > i < i > > 3 3 u r u M B +.CX<.-.hXZ.,X,X,XZ.,X<XK.K.S.S.P.x.P.A.D.D.z.z.,X,X<X<Xy.y.[.[.>.#.#.#.(.{ !.K.K.n 9 K.K.6 - - - p - - K.K.K.K.K.K.",
"i > < > = < i = = = > < 3 > > i 4 s d N ! lX%.%.4.4.=XL.r.L.y.y.c.x.P.1Xc.c.F.F.qXH.H.H.i.ZXi.i.j.h.[.[.=.#. . .] W Q.Q.y 9 & & - - - - - $ - % % % % % % % ",
"O = i O = = O > = < > 3 > > 3 5 4 f f v MX! %.CX-.#.Z.=XL.ZXj.j.c.x.P.BXx.c.F.qXv.v.H.z.ZXZXi.i.@XZX[.3._. .'  .U U Q.Q.r e 3 & - - - K.K.- % * K.K.K.K.K.K.",
"K.K.K.K.K.K.i > i > > > > > i 5 5 q g h R Q #.+.o.+.2.2.q.5.ZXL.z.v.D.qXF.c.2X2XH.U.u.l.@Xy.@X7.}.{.>._.#.' Q W J J x z 8 0 = = % * % % * - % % K.K.K.K.K.K.",
"K.K.K.K.K.K.= > > > > > > > 3 i B.5 K.K.MX!.+. .o.X.2.-.=X5.L.,XqXv.Y.Y.F.F.z.x.v.qXj.u.@Xh.@Xt.{.{._._.' ' ` W J J z j 6 6 & % & % = % % % % % K.K.K.K.K.K.",
"K.K.K.K.K.K.> : > > i > > i 3 > < 3 e 9 v v MXH C.%.9XZ.k.hXhXhXi.<XY.Y.Y.Y.D.Y.z.l.}.rX{.{.[.3._._.~ ! MXR v Q.x zX8 k , ; = % % & & % % K.K.K.K.K.K.K.K.K.",
"K.K.K.K.K.K.> > K.K.: : > > > 3 < 3 W.b P A E J.lXC.r.Z.,XhXk.hXl.z.3XY.Y.2XqX2XK.K.K.K.K.}.[.[._.%.! ! Q MXn Q.x j w 8 ; ; * = % % % % % K.K.K.K.K.K.K.K.K.",
"K.K.K.K.K.K.> * * * > : > : > > 9 6 K.K.mXm.G G lXC.7.{.L.ZXk.k.i.i.z.z.qXv.l.l.u.rX3.C._.7._.%.~ ! S R S Z k z r 8 7 6 ; ; - ; & = - % % O % % * % % % % K.",
"K.K.K.K.K.K.: i i i = = > > > > 9 ; wX7Xm.cXcXcXlXlXC.7.r.r.k.kXu.i.u.z.Y.2Xl.z.rX}.{.7._.%.@.@.! R H MXS Z k z r 7 6 6 ; ; & % % % - % % * % % - % % K.K.K.",
"K.> > > i : : : = : i > > > < > < o wXwXmXH wXm.G.G.m.eX6.eX6.6.u.u.rXu.u.l.rXSXeX7.%.! ! ! R ! v N f f e f 9 y > K.K.= = * ; - % % % % % % % % % % % % % % ",
": : : i : > K.K.= i : > > > > > B.a G.6X6XcX6XG.G.( ( ( ~ eX6.6.u.u.7.rXl.u.SXlX@.lX! %.! MXMXMXH N N N f f 9 0 0 ; > - = * ; - * * % % % % % % % % % % - * ",
"> : : i > > : K.K.K.K.K.K.K., > K.K.^ ^ K.K.mX6XcXcXG./ B / / ( ( ( J.E H H H G E G F N B C M f d h aXf y y 0 9 K.K.> K.K.- O K.K.K.K.K.K.K.K.K.K.K.K.K.K.K.",
"K.K.K.K.K.: i > > > > > > > > , K.K.^ 5XcXV.H cXcXV.m./ B / G G m.G J.G H S S H G R F N N C M M VXM f f 2 y y 9 6 6 K.K.K.K.O % K.K.K.K.K.K.K.K.K.K.K.K.K.K.",
"K.K.K.K.K.K.K.K.K.K.K.K.K.K.K.K.7XwXvXvXV.V.H mX6XV.6XwX/ K.K.F B B N M N N N M h M f f y VXVXf B B B R.4 2 1 1 , ; - ; > - = * K.K.K.K.K.K.K.K.K.K.K.K.K.K.",
"K.K.K.K.K.K.K.K.K.K.K.K.K.K.K.K.^ 5XmXmXbXmXmXmXmX6Xm.m.B 5Xh W.B N h N M N d h M f f f d y f h B B B R.K.K.K.& ; ; & ; K.K.K.K.K.K.K.K.K.K.K.K.K.- * - * - ",
"K.K.K.K.K.K.K.K.K.K.K.K.K.K.K.K.5XK.K.^ bXbXmXV.^ G.V.wX5X5Xa f y a y y f y f aXVXaXf a f f h R.h a s h g g 5 3 & , ; & K.K.K.K.K.K.K.K.K.K.K.K.K.- % * - * ",
"K.K.K.K.K.K.K.K.K.K.K.K.K.K.K.K.5XK.K.^ vXK.K.K.K.G.wXwXB B y 2 f a f y y a f y y aXaXa aXa VXh a a B.s g g g 5 + o % K.K.K.K.K.K.K.K.K.K.K.K.K.K.K.K.K.K.K.",
"K.K.K.K.K.K.K.K.K.K.K.K.K.K.K.& E.E.^ ^ E.vXvXvXmX^ 5XK.K.5X2 jX2 < jXjX, 1 jX2 f g 4 a K.K.K.K.K.K.K.K.s s s 5 @ , & % = * % K.K.K.K.K.K.K.K.- K.K.K.K.K.K.",
"K.K.K.K.K.K.K.K.K.K.K.K.K.K.& & ^ K.K.vXvXiXbXmXmX6X5X6XR.R.jX2 jX, , @ , aX1 2 a f jXjXa VXR.R.s h s s a B.5 g . o % % - - % K.K.K.K.K.K.K.K.K.K.K.K.% K.K.",
"K.K.K.K.K.K.K.K.K.K.> > > > = = 5XE.E.vXK.K.K.6XvXvXE.R.a , < , o o = % & & < 1 2 < K.K.K.K.K.g s a a s K.K.s K.K.K.= K.K.K.- K.K.K.K.K.K.K.K.K.K.K.K.K.K.K.",
"K.K.K.K.K.K.K.K.> K.K.K.K.K.= & u 5 E.5XK.K.K.^ K.K.K.a N.N., , & & O O % o , , < K.K.B.B.B.s s s s s s K.K.K.N.o o % ; * K.K.- K.K.K.K.K.K.K.K.K.K.K.K.K.K.",
"K.K.K.K.K.K.K.K.K.K.K.K.K.K.%   X = g K.K.K.K.K.vXg B.K.K.& % X O X p K.K.  & & % & N.= K.K.K.K.K.s iXK.K.K.jXK.K.K.% % * % % * K.K.K.K.K.K.K.K.K.K.K.K.K.K.",
"K.K.K.K.K.K.K.K.K.K.K.K.K.K.X   K.K.K.K.R.K.K.K.s B.N.O . o . K.K.K.K.K.K.4X  X X K.K.K.K.N.jXa s h s s a K.K.K.& o & K.K.K.K.* K.K.K.K.K.K.K.K.K.K.K.K.K.K.",
"K.K.K.K.K.K.K.K.= > > > > > %   pX4XX X o o o < < jX, , @ + - + + + 4X4XK.K.K.K.  + + % . , , 1 4 5 g 4 < , K.K.. . % % * % % % K.K.K.K.K.K.K.K.K.K.K.K.K.K.",
"K.K.K.K.K.K.K.K.K.K.K.K.> > * % % % K.K.K.K.K.LXo . + + + K.K.4XK.K.K.K.4X  K.K.K.  4X.   . + < < 2 4 2 , & + + 4XK.K.K.% % % - K.K.K.K.K.K.K.K.K.K.K.K.K.K.",
"K.K.K.K.K.K.K.K.K.K.K.K.K.K.= * % 4X4X4X4X+ .       +   + p 4X+ K.K.K.- - @ - 4XK.K.K.K.  K.K.* & & & @ + + . + 4Xp % K.K.K.K.K.K.K.K.K.K.K.K.K.K.K.K.K.K.K.",
"K.K.K.K.K.K.K.K.K.> > > > > = > * + X % .       - 4X- + + + % - - - ; > & - - - + K.K.K.4X4X  + + + + . .     4XX   % % % X K.K.K.K.K.K.K.K.K.K.K.K.K.K.K.* ",
"K.K.K.K.K.K.K.K.K.K.K.> K.K.K.- - = % - % + K.K.K.* - % * - % & * > > > - > = - %   4XpX4X4XK.K.4X4X4X4X4X4X4X4X4X4X+   K.K.K.K.K.K.K.K.K.K.K.K.K.K.K.K.K.K.",
"K.K.K.K.K.K.K.K.K.K.K.> > > = > & - & - * K.K.K.- = = * - - * * K.K.= K.K.K.= * + % 4X4XpX4XK.K.K.K.K.K.pXpX4X  4X% + % K.K.K.K.K.K.K.K.K.K.K.K.K.K.K.K.K.K.",
"K.K.K.K.K.K.K.K.K.K.K.K.K.K.K.K.K.K.K.- K.K.K.K.* > > - - = - K.K.K.K.K.K.K.K.K.K.* * - % 4XpXpXK.K.K.K.4XpX4Xp % p % % % K.K.K.K.K.K.K.K.K.K.K.K.K.K.K.K.K.",
"K.K.K.K.K.K.K.K.K.K.K.K.K.K.K.K.K.K.K.K.K.K.K.K.K.- = > > > K.K.K.K.> K.K.K.> = - K.K.- - % 4X4XK.K.K.K.K.4Xp 4X% % % % * * K.K.K.K.K.K.K.K.K.K.K.K.K.K.K.K.",
"K.K.K.K.K.K.K.K.K.K.K.K.K.K.K.K.K.= * - > > > > > > - * = * > > > > > K.K.K.K.K.K.- > = * - - % K.K.* % - K.K.K.K.X K.K.K.* - % * K.K.K.K.K.K.K.K.K.K.K.K.K.",
"K.K.K.K.K.K.K.K.K.K.K.K.K.K.K.K.K.K.K.= > = > > > = > > K.K.K.K.K.K.> K.K.K.K.> K.K.= > % - K.K.K.K.K.K.K.K.K.K.K.K.K.K.K.K.K.K.% K.K.K.K.K.K.K.K.K.K.K.K.% "
};
