/* XPM */
static char *_a20353eb8434bd2f1c2a8740e7404e78vAgghH6n4FzEMlb_34[] = {
/* columns rows colors chars-per-pixel */
"78 86 256 2 ",
"   c #221D1D",
".  c #271D1A",
"X  c #24221D",
"o  c #2B231D",
"O  c #2A291D",
"+  c #231E21",
"@  c #291D28",
"#  c #321B36",
"$  c #1B2C29",
"%  c #252425",
"&  c #2A2524",
"*  c #252926",
"=  c #2A2925",
"-  c #262529",
";  c #2A262B",
":  c #26292A",
">  c #2B2A2B",
",  c #332523",
"<  c #342A24",
"1  c #33252C",
"2  c #3B242C",
"3  c #322A2D",
"4  c #3B2B2B",
"5  c #3B312A",
"6  c #2C2532",
"7  c #2D2A32",
"8  c #2B2638",
"9  c #322634",
"0  c #332A34",
"q  c #3B2B34",
"w  c #34253B",
"e  c #3A253C",
"r  c #352B3A",
"t  c #3A2B3C",
"y  c #3C2433",
"u  c #383138",
"i  c #283332",
"p  c #1D1F20",
"a  c #432B2A",
"s  c #46352B",
"d  c #442A3B",
"f  c #462837",
"g  c #493735",
"h  c #522E37",
"j  c #381C4A",
"k  c #3B2543",
"l  c #3C2B43",
"z  c #392747",
"x  c #3C2653",
"c  c #342E47",
"v  c #4A1C52",
"b  c #432B44",
"n  c #43254C",
"m  c #432B4B",
"M  c #492947",
"N  c #542A48",
"B  c #573748",
"V  c #452B53",
"C  c #4B2C54",
"Z  c #4C2B5B",
"A  c #532C5C",
"S  c #552857",
"D  c #4A3256",
"F  c #573358",
"G  c #653857",
"H  c #692E54",
"J  c #4B2865",
"K  c #542B63",
"L  c #5B2C6C",
"P  c #572768",
"I  c #583367",
"U  c #5A2976",
"Y  c #5B3375",
"T  c #4C306C",
"R  c #652969",
"E  c #663569",
"W  c #632C7C",
"Q  c #662A78",
"!  c #752A79",
"~  c #763679",
"^  c #6A5446",
"/  c #694657",
"(  c #764A6B",
")  c #5B2C85",
"_  c #6B2C84",
"`  c #662886",
"'  c #752B8A",
"]  c #6A3387",
"[  c #763489",
"{  c #6C2A94",
"}  c #742C9B",
"|  c #7B2C9C",
" . c #792897",
".. c #6B3395",
"X. c #7C2CA3",
"o. c #7929A7",
"O. c #772CB0",
"+. c #6D1D92",
"@. c #863789",
"#. c #842B9A",
"$. c #863599",
"%. c #8F2D8C",
"&. c #832CA4",
"*. c #832CAB",
"=. c #892BA9",
"-. c #952AA9",
";. c #8C33AB",
":. c #8836A8",
">. c #9638AA",
",. c #882CB5",
"<. c #952DB7",
"1. c #8C32B3",
"2. c #9737B7",
"3. c #A639A8",
"4. c #A53AB9",
"5. c #B12FB3",
"6. c #924892",
"7. c #AA4E99",
"8. c #9B44B6",
"9. c #8D49AB",
"0. c #A646B7",
"q. c #B74BB7",
"w. c #B453BC",
"e. c #B965B8",
"r. c #C64BB8",
"t. c #CF53B4",
"y. c #C665B9",
"u. c #CD6FB4",
"i. c #DA5BB3",
"p. c #A539C5",
"a. c #B453C3",
"s. c #BC54C4",
"d. c #BB57C8",
"f. c #BB67C5",
"g. c #C857D4",
"h. c #C865C6",
"j. c #D370CD",
"k. c #ED4FE8",
"l. c #CD8BB8",
"z. c #E991D2",
"x. c #D2AFCF",
"c. c #E5B8C9",
"v. c #F9A8E7",
"b. c #EEB0EC",
"n. c #EBCBD4",
"m. c #774A57",
"M. c #774590",
"N. c #35281D",
"B. c #3B2C24",
"V. c #74554A",
"C. c #A83595",
"Z. c #CE37CD",
"A. c #D8B9C9",
"S. c #D9B9D5",
"D. c #E7A9D8",
"F. c #E6B7D7",
"G. c #785655",
"H. c #F392EC",
"J. c #753469",
"K. c #AA54A9",
"L. c #D44ED2",
"P. c #D1B6B7",
"I. c #C987C7",
"U. c #DAA3E3",
"Y. c #F8B6D8",
"T. c #D4C4CF",
"R. c #533B39",
"E. c #514334",
"W. c #473248",
"Q. c #472557",
"!. c #521C6A",
"~. c #673378",
"^. c #6C2B8B",
"/. c #732C94",
"(. c #783397",
"). c #7B33A5",
"_. c #963899",
"`. c #8332A4",
"'. c #8934B7",
"]. c #9945A8",
"[. c #A749AA",
"{. c #B54BAA",
"}. c #B656AA",
"|. c #AC4CB4",
" X c #AC4CBB",
".X c #B34DBC",
"XX c #AC53B7",
"oX c #B453B4",
"OX c #BB53BC",
"+X c #B958B7",
"@X c #C557BA",
"#X c #9935C4",
"$X c #AA46C4",
"%X c #B74AC6",
"&X c #B350CD",
"*X c #9C45C4",
"=X c #C64BC7",
"-X c #C354C4",
";X c #C355CB",
":X c #C45ACB",
">X c #C859C7",
",X c #E94FD2",
"<X c #E96ED3",
"1X c #D48ECF",
"2X c #FAB7E6",
"3X c #F6CDE9",
"4X c #1D1C1C",
"5X c #5B4546",
"6X c #684A46",
"7X c #5F4F64",
"8X c #ECDBE0",
"9X c #B234CA",
"0X c #F471EB",
"qX c #F3ACD1",
"wX c #6F4F50",
"eX c #884C72",
"rX c #B16899",
"tX c #B98DC9",
"yX c #BAC5B2",
"uX c #DFC4B5",
"iX c #68431E",
"pX c #1A1817",
"aX c #381C29",
"sX c #CE28AC",
"dX c #D8C3C8",
"fX c #BAB0A7",
"gX c #D1C5B7",
"hX c #E839DD",
"jX c #3A2425",
"kX c #D657E4",
"lX c #8A3275",
"zX c #2F2B5C",
"xX c #B425CF",
"cX c #835558",
"vX c #594739",
"bX c #69503A",
"nX c #B46BAC",
"mX c #64493A",
"MX c #6B1B64",
"NX c #B88AB4",
"BX c #E3AAB7",
"VX c #4D1732",
"CX c #9B1998",
"ZX c None",
"AX c #534652",
"SX c #8E626C",
"DX c #922EC4",
"FX c #342F19",
"GX c #513398",
"HX c #37444E",
"JX c #971A60",
"KX c #611828",
"LX c #341419",
"PX c #B91242",
"IX c #170617",
"UX c black",
/* pixels */
"ZXZXZXZXZXZXZXZXZXZXZXZXZXZXZX* * * = * > > w 9 ; i - * 9 1 9 9 9 1 6 9 w w j j 8 8 : 8 - - $ - - @ & & % p % % % % % p % ZXZXZXZXZXZXZXZXZXZXZXZXZXZXZXZXZX",
"ZXZXZXZXZXZXZXZXZXZXZXZXZXZX* > = * : = 7 0 9 w : 7 : : 1 9 9 2 3 1 9 6 j z j k c c w 8 8 $ - $ - % & + % X % % % p % + + ZXZXZXZXZXZXZXZXZXZXZXZXZXZXZXZXZX",
"ZXZXZXZXZXZXZXZXZXZXZXZXZXZX= : > > > > r w z k c 8 8 r 9 9 9 9 9 1 y y n j n v Q.T v j 8 # $ 8 ; @ * - & % + % % % p % ZXZXZXZXZXZXZXZXZXZXZXZXZXZXZXZXZXZX",
"ZXZXZXZXZXZXZXZXZXZXZXZXZXZX* > > > 3 > l l z n 8 w 6 r 0 r y y 9 y w e n n v Z J I V n c 8 8 : , - * % X & % % X ZXZX% + ZXZXZXZXZXZXZXZXZXZXZXZXZXZXZXZXZX",
"ZXZXZXZXZXZXZXZXZXZXZXZXZXZXZXZX6 0 9 w x Z Y ] n x k j e l e 0 4 q k k v v U U W _ S Q.n n 9 9 6 6 - = & % % % % % ZXZX- % + ZXZXZXZXZXZXZXZXZXZXZXZXZXZXZX",
"ZXZXZXZXZXZXZXZXZXZXZXZXZXZXZXZX; 0 e w x J 7XM.n Q.k j t e 0 r 1 1 k b Q.S W W ` W P v n z q 9 6 6 > > % O % ZXZX% - + % p - + ZXZXZXZXZXZXZXZXZXZXZXZXZXZX",
"ZXZXZXZXZXZXZXZXZXZXZXZXZXZXZXZX9 w e k v !.M.M.L L Q.v n k e d r 0 n n !.U (.9.' ` R !.Q.v e e w 9 - ; * = ZXZXZXp % % % ZXZX+ ZXZXZXZXZXZXZXZXZXZXZX% % ZX",
"ZXZXZXZXZXZXZXZXZXZXZXZXZXZX> > # 9 k j v !.M.9.] ~.Z v n b t e t t n Q.P L ^.' ' ` Q R S n b k z w ; & % - - - - - ZXZX+ ZXZXZXZXZXZXZXZXZXZXZXZXZXZXZXZXZX",
"; > > > ; > > > > > > ; > > > ; 7 i n x ] ] M.9.M.M.!.v V Q.x V m D K T ` ` o.{ | 9.] _ A Q.Q.n z w 9 6 ; ; - - - - % % % % % + ZXZXZXZXZXZXZXZXZXZXp + % p ",
"> > ; > > > ; > > > ; > 3 ; > > 8 i n V ] ] 9.9.).(.J !.C V m V D D L Y ` ^.X.o.:.:.[ _ P K M n l l 9 6 ; ; ; ; ; p % - + % % ZXZXZXZXZXZXZXZXZX+ + - + p - ",
"> > > > > > > > > & > > > > 7 > 7 u n n ] ] 9.9.M.).P U J A K K Y Y Y ` ^./.&.o.:.:.#./.Q Q P Z m k w w 9 8 ; ; ; ZXZXZXZXZXZXp ZXZXZXZXZXZXZX% ZXZX- + + - ",
"ZXZXZXZXZXZXZXZXZXZX7 ZXZXZX7 7 7 0 n n ~.] 9.9.M.M.U U K K P I Y Y ~.) { /.*.&.$.`.#.(._ W L K V m l l w w 6 6 : - - - ZXZX- + ZXZXZXZXZXZX% + ZXZXp + % p ",
"ZXZXZXZXZXZXZXZX3 ZXZXZXZXZX7 7 7 0 d k P J ( ~ T A K P R L W Q _ ] ' ^.| | `.>.>.$.$.(.' ^.W U C C n z ZXZXZX6 : 6 - - - - ZXZXZXZXZXZXZXZX% + % + + % p + ",
"ZXZXZXZXZXZXZXZX& > 7 ZXZXZX> 0 3 3 k d T J Y L Y K A P L ~.~.! _ ] /.(.| :.-.>.>.].:.(./.' ` Q A C m m l t 0 9 6 6 8 - - - - - ZXZXZXZXZXZXZX% p - % + % - ",
"ZXZXZXZXZXZXZX> ZXZX> > > i 7 0 9 0 n n K Q.Z Q.K I P R ! _ ' ' #.#.#.#.-.-.3.5.0.3.2.:.X.X.{ ^.L P Z Q.m x l z w w 6 6 - - - ZXZX+ % - - ZXZXZXZXZX+ $ - p ",
"ZXZXZXZXZXZX3 ZXZXZXZXZXZXZX7 0 4 0 n n Z j Z n I I R Y _ ! ! ' [ #.#.$.-.3.5.5.0.0.2.1.:.X. .{ E L A A V m l k 9 w 6 8 - 6 6 - - ZXZXZXZXZXZXZXZXZXZXZXZXZX",
"ZX> > > ZXZX6 > 3 > 7 i 7 7 7 r c z x m n n Z A L G R E ^._  . .#.=.;.;.4.>.4.3.0..X9.:.>.2.#.#.W W L P T T V m l w 9 8 6 6 ; : % & @ % % @ X % - % p + % p ",
"; > ; > ; > 3 > > 7 7 > 7 7 7 7 z c l l V C S A F G E ~.' ] | | &.=.;.>.4.4.|.4. Xw.>.8.9.<. .=.~ ! Y Y I P C V l e 9 9 7 6 6 6 ; % % % % % % % + + p + p p ",
"0 > > 7 3 > > > > > > i 7 7 r u l r b M M C K L R Q ! _ (.(.&.=.;.1.-.<.4.0..X.X Xq.].8.1.8.#.#.' /.^.` W U K Z M b 9 q 9 9 6 : ; % % % % % % % - + % $ @ p ",
"> > ; 3 > 6 > > > > 7 7 7 7 0 u l r b m A F A R E ~._ [  .| =.:.,.1.2.2.0.4..X%Xa.w.9.8.>.8.-.#. .' ^._ W W K K W.M t t r 7 6 6 ; - % @ % @ % % - - p p p p ",
"; > > - ; - > > 7 > 7 > 7 0 r r t t M W.A I W ! ^./.| | &.&.;.<.<.2.$X2.0.0.%X;Xa.a.XXa.8.8.8.2. . .(.| ..' Q L A S M b t r 9 ; ; % % & % - % % @ p + p p @ ",
"- ; & > ; > ; > > > i 0 0 ZXZXZXt g W.W.K E ` ] } (.#.| =.:.<.1.<.2.$X$X%X$X-X;Xd.s.&Xf.8.*X0.0. .| (.).(.(.~.U A A m M t w 9 9 ; % % % % % + % - - $ p p p ",
"7 > > > 7 > > 7 7 ZXZX7 r 0 l l M W.A R U ` } } o.*.*.:.1.2.2.*X4.4.$X$X%X%Xs.;Xd.&X&Xf.>.8.8.].;.&.:.:.:.(.[ _ L P S C M y 9 9 - & % - + - p - p @ p @ p $ ",
"7 0 0 i 7 7 7 > > i 7 7 r u l W.W.W.K K ` _ X.X.o.:.1.'.1.2.#Xp.$X$X$X%Xd.g.=X&Xj.f.*Xf.2.0.8.2.;.;.;.2.9.`.[ ] E R F S b M 9 1 ; ; % - + - $ @ - - $ p - % ",
"> > i 3 i 3 > > 0 3 0 3 r u l m J J ) ` +.o.O.*.&.;.;.>.2.0. X0. X X%Xs.;X;X;X%X-X:XOXq.d. X[.0.;.2.8.2.>.`.$.`. .} +.+.!.U e 9 6 6 @ - @ - - - % % p X p p ",
"> > > > > > > 7 ZXZX0 0 r r l c P U ) ` +.+.o.*.=.:.>.2.2.0.0.0.%X%X%X;X;X>X;X>X>X>Xs.OXf.a.0.2.8.8.8.0.8.9.:.:.| | { +.U !.y 9 : - - - 8 - - - % % $ X % $ ",
"> > 7 > 3 ZXZXZXZXZX> 0 w r m x W Y ^./.+.o.,.,.2.>.2. X Xa.%X X.X-X-X-X=Xg.;Xg.>X>X-X-Xd.w.0.3.].0.].0.XX[.].>.:.#.} } !.U b y 6 6 6 @ @ - - p % % % % % X ",
"> 0 > > > > 3 ZXZXZXZXZXl r m V ] ~./. . .&.,.,.2.2.0.XX Xa.s.s.=X%X-X-X=X>X>X>X>X-X=X%Xa.%X0.[.2.[.0. X|.XXXX8.9.:.} +.MXMXk e 6 : 6 ; - @ - - X % p $ X X ",
"> i 7 > > > > > > i 0 r r t V n ` ] /.| | &.>.>.0.0. XOX.X%Xs.OX:X;X-X-X-X-X-X>X-X>X>X;Xa..XXX|.|.|.|.|.K.K.0.8.1.:.o.} Q Q v j 6 8 6 6 - 6 p - % p % X % X ",
"> 3 > > > 7 ZXZXi 3 3 u r l n n ` W | | #.&.>.2.4.0.w.d.s.s.:Xs.;X-X=X-X-X-X;X=X-X-Xg.j.OX.Xa.w.w. X|.|.K.K.XX8.:.X.} o.` Q n e w 6 6 6 - - ; ZXZX% $ X X % ",
"7 7 : > i > > > 3 ZXZXr l l n V U W /.(.X.&.>.3.|. Xw.d.d.d.OX:X;X>Xs.-X=Xs.=X-X;X;X<Xj.s.w.OXw.a.XXXX|.|.|.0.8.:.X.X.)._ R n k k 8 6 6 8 @ - - % % % % p ZX",
"ZX7 i > > > > ZXZX> 0 0 k l n V U W /.(.&.&.>.4. X X X Xs.d.w.s.-X-X=X-X-X-X=X-X;Xd.H.<Xd.s.s.w.a.w.|.|.|.XX].>.X.| X.X.W Q n z k w 6 6 @ - - - % % % p $ ZX",
"ZXZXZXZXZX= = ZXZX> r r l l m C Y L ^./.`.*.#Xp.*X&XXXXXw.s.a.s.;X;XL.L.t.t.@X{.tXtXtXtX&X&X-Xw.OX+X|.|. X X9.:.X.} { X.Y Q x l ; > 6 ; - - - % ZXZXZXZXX % ",
"> i > i = i = i i ZXZXq ZXZXV Z U Q _ /.&.'.#X#X*X*Xa.e.w.+X%Xs.g.=XL.L.L.r.+XOXtXtXU.f.&Xf.-Xd.a.d.[. X0. X1.&. .X.{ } Q L x z > ; 6 ; - @ + % ZXZXZX% ZXZX",
"ZXZXZXZX= = < * 3 ZXZXZXZXZXZXC L Y _ ] *.1.<.#X*Xf.XXa.+XOXs.OX%X-X-X-XnX@Xu.I.U.U.1XtXf.XXf.w.w.w.0. X0.0.=.o.o.o.{  .P L x c 6 6 ; - - - % % % * ZXZXZXZX",
"ZXZXZXZXZXZX> > ZXZXZXZXZXZXV C I I _ ^.).'.<.#X9.9.8.XXw.+X+Xw.q.%Xr.r.@Xe.j.1Xb.b.tXe.*XXXXX Xw.w.8. X3.2.&.X. .o.+.` K L x z 6 ; ; - - * % % % % ZXZXZXZX",
"ZXZXZXZXZXZXZXZX> ZXZXZXZXZXZXC Y W /.(.`.:.,.1.O.:.].XXa.e.XXe.+X+XnXe.NXNXx.S.F.D.nXnX+XOXd.&XXXXXXX X>.>.X.#. .#.+.Q S S z k 6 6 ; 6 - - p $ $ X % $ % % ",
"ZXZXZXZXZXZXZXZXZXZXZXZXZXZXZXZXU Y /...`.:.-.-.).'.9.0.XXXXXXXX+X|.e.e.I.tXx.x.D.z.7.7.d.d.&X&XXXw. X X>.&. .&.|  .` +.Q.A l z 9 @ ; @ - - % % $ % X $ $ ZX",
"ZXZXZXZXZXZXZXZXZXZXZXZXk m C D ) ) /.(.`.`.=.=.&.2. Xa.a.e.XXXX}.t.tXtXyXx.T.S.c.qX}.7.-X+X&X$XoXq. X0.#.#.| | }  .` Q v S 9 r 9 6 6 @ - - % % % % % % p % ",
"ZXZXZXZXZXZXZXZX> ZXZXZXl m V C ] ] } (.:.`.-.-.-.8.a.a.XXXXK.e.7.rX1XtXT.x.T.A.qXqXrXrXs.OX&Xf.|.|.0.[.#.#.#. .+.{ Q Q M Q.r w 6 6 6 - - % % % % % % % ZXZX",
"ZXZXZXZXZXZX> > 3 ZXZXZXZXb ZXZX^...).| :.`.-.2.3.$Xa.a.XXXXI.j.2Xv.S.S.T.yXdXyXx.c.u.nXOXoX&X$Xs.q.3.[.`.>.| } ^.+.!.` v v y w 9 # - - + - $ p $ % % p ZXZX",
"ZXZXZXZXZXZXi < ZXZXZXr b m C D ` ..(.| :.&.>.2.0.$Xa. XXXXXj.1Xb.D.S.S.yXT.gXgXc.c.l.l.oXXXa.%Xw.|.>.2.>.>.| | ' +.+.MXv v w w 6 6 6 @ - + % % p % + $ ZXZX",
"ZXZXZXZXZXZXZXZX0 ZXZXZXl m D D { { ).X.9.:.[.4.4..XXX XnXnXU.D.F.F.A.S.T.yXdXyXA.dXl.NXK.K.a. X[.|.3.3.>.#.| | /. .U Q v v l w 8 6 @ - - + - % % % % % % % ",
"ZXZXZXZXZXZXZXZXZXZXZXZXm V C Z { { X.&.2.2.0.0. X Xw.XXe.f.x.U.F.S.S.A.T.yXgXgXA.P.l.l.f.e.a.w.>.[.>.[.>.>.).).{ +.` ` S Q.l w 6 # 8 - - - - + ZXZXZX% % % ",
"ZXZXZXZXZXZXZXZXZXZXZXZXc W.ZXZX} { *.O.8.2.ZXZXq.OXoXXXNXNXP.dXA.A.A.dXA.dXyXA.dXA.x.x.tXf.q.oX3.q.|.|.>.8.:.:.} o.` +.!.S z j 6 # : 6 - % % p % X ZXZXZXZX",
"ZXZXZXZXZXZXZXZXZXZXZXZXZXZXZXD O.).*.*.8.9.|.XXq.s.oXe.l.l.A.P.A.dXc.A.A.A.T.T.T.A.U.x.tXtXOXq.q.q..Xq.8.8.1.1.X.o.` ` Q.!.c j 8 6 8 @ - % X % % X ZXZXZXZX",
"i > i > * ZXZX> > 0 r l m m Z D o...*.O.>.8.XX+Xq.q.K.e.l.x.gXuXT.T.P.A.uXA.dXdXA.T.T.T.U.tX%X{.q.OX.X.X8.0.8.'.X.o.^.+.!.J z j 8 @ 6 - % + X $ p $ % % X ZX",
"ZXZXZX= i = i < 0 ZXZXu c W.x D ).).1.*.>.>.w.+Xq.|.K.+XA.c.gXuXT.yXdXgXA.A.dXdXT.A.T.x.tXtX@X@X+Xq. Xa.8.8.8.1.o.} { ^.J J 8 j 8 8 - - % - X % % X % X % % ",
"> > : 7 > : > i 0 0 r c l D Z T [ ] $.[ C.C.i.sX,X<X<XH.c.n.gXgXP.n.3X8XdXgXdXA.dXT.T.x.b.x.tXtX%Xs.%X.X0.[.>.>.X.X.^./.P P # 8 > - - - - - % % ZXZXZXZXZXZX",
"ZX: > : > i > > 3 i r c x l zXF (.] (.@.C.3.,XsX,X,X<Xz.c.F.gXgXc.dX8X8XdXP.gXT.gXT.T.A.b.U.tXI.%X%X.X%X|.0.>.>. .X././.!.!.# w & % - = % % % % ZXZXZXZXZXZX",
": 7 : 7 7 : : > > > r 0 l l V D ~.U &.#.5.r.i.i.k.k.0X0X2Xv.c.c.dXS.ZXZXS.A.S.T.S.T.T.x.x.P.BXBX{.}.{.oX[.[.>._.X.#././.!.P 9 9 > = * % % % % % % % % % % % ",
"> : > : : : 7 7 7 0 0 r l c m m Q !.+. .3.5.i.i.hXhX0X0Xv.v.n.n.S.n.3X8XA.x.S.S.S.S.dXx.x.P.c.BX+X+X[.[.7.[._.%. .&.^.' J !.q w - = * & % % % % ZXZXZXZXZXZX",
": i : : i > > 7 > 0 7 0 l u b m ) `  .' -.3.5.r.hXhX=X<Xv.v.n.3X8Xn.n.n.x.x.S.x.x.S.S.S.BXn.c.n.j.u.}.7.[.[.>.>.| } ` ) e b # ; > = * % % % % % ZXZXZXZXZXZX",
"> : > i : : > > > i 7 0 u c z b !.` #. .%.%.4.5.kXk.L.0Xv.v.n.n.n.n.n.dXS.S.S.x.S.S.S.S.Y.n.uXn.z.I.}.K.[.3.%._.} o.!.!.e n @ ; - - - - % % % % ZXZXZXZXZXZX",
": > : : > > > > > 0 7 7 r u l l Q.P (./.&.| [.0.kXkXoXy.P.fXfXfXuXuXP.uXn.S.F.S.F.n.b.F.2X2Xz.BXu.u.e.{.>.>.#.#.....v x t t & - * % * % % % % % % % % % % % ",
": i : > i : > > > 7 7 7 7 8 u l v J (./.=. .>.>.9XkX@Xu.NXfXfXuXfXfXuXP.F.F.S.S.U.F.U.D.3XY.l.z.y.u.h.oX>.%. .#.(...J K t t > & * = * = % % - ZXZXZXZXZXZXZX",
": > i > 7 > : 7 > > > 0 i 0 u r J J E R ~ ~ #.%.5.4.$X#X6.rXBXc.BXz.b.b.S.b.S.F.Y.3XY.Y.z.BXrXrXK.}.3.3.=.#.o.+.) ) v J 9 0 O & - * - ZXZXZXZXZXZXp % p % + ",
"7 > : : : : > : > 7 > 0 0 7 r u Q.J S H ! J.#.%.-.3.%X$XrXrXP.c.v.v.b.b.b.3Xc.F.Y.n.Y.Y.z.l.u.rX{.}.>._.#.o.+.+.) !.x x 9 9 = O = * - % % % % % % $ % % % ZX",
"ZXZX> > > > > > > i > > 7 > 0 u d d N M R R #.#.-.CXZ.kXL.Z.0X0XqXz.qXz.qX3XD.c.Y.qXz.l.i.+X{.|.[.[.CX$.+.' !.) Q.x j 8 < < ZXZX= ZXZXZXZXZXZXZXX % % % $ p ",
"> > > 7 > > > > > : > 7 > 7 0 7 t d N M R R #.@.<.xXxXxXhXkX0X0Xv.qXD.qXY.3XY.Y.Y.qXz.l.y.}.XX|.[.3.%.%.! ' ) !.x Q.j 8 & & * O % % % % % % % % $ % % p % % ",
"> > > > 7 : > 7 > > > 0 0 3 3 0 4 4 wX6XJ.m.@.@.C.C.Z.xXhXhXk.,Xz.BXqXY.3X2Xz.l.rXu.7.7.>.3.,.-.@.@.Q +.U U x x r w ZXZXZX6 ; - ; @ ZXZXZXZXZXZXp % X $ p ZX",
"ZX7 > > > > > > > > > > > i > 3 f jXG.wXeXeX9._.sXC.xXsXZ.Z.k.k.BXz.qXY.2XZXZXl.u.rXrXt.0.4.<.<.#.[ ' %.W Q J x r 0 ; ; 6 ; - 6 ZXZXZXZXZXZXZXZX% % + + $ % ",
"> > ; 7 > > 7 > : 7 7 > 3 > 3 > 5 , G.V.wXm.eXeXeXrXC.%.6.7.u.{.i.u.u.u.I.I.nXnX7.ZXZX@.%.%.! ! R MXv P n Q.z x 3 > * = $ - 8 8 % - % % % % % % % % % % X % ",
"7 > > : > > > > > : > > > > > 3 a a cX6Xm.cXeXeXlXeXC.@.7.7.7.7.BXu.rXrXI.I.K.K.7.6.6.C.%.%.' lXR MXS R n A x z i = * - 8 - 8 # - ZXZXZXZXZXZXZXZXp $ % % % ",
"ZXZXZXZXZXZXZXZXZXZXZXZXZXZX= = wXG.wX^ cXm.H cXcXcXm.m.F ( ( ( eX( eX~ E E E R J.J.G F F G N M N M f d f y e 0 7 6 > > - * X X ZXZXZXZXZXZXZXZXZXZXZX% X ZX",
"ZXZXZXZXZXZXZXZXZXZXZXZXZXZX& = wX7X5X6XZXZXcXV.cXcX( m./ / E ( ( ( ( J.E G H J.G ( G S B S N N d N h f y e e 9 7 > > - - * X * % % % % % % % % % ZXZX% ZXZX",
"ZXZXZXZXZXZXZXZXZXZXZXZXZXZX> - / 6XmXmXcXcX6XmXm.V.wXG./ / F G G G H S S S B B N N M f VXn f N B G B B q ZXZXZX9 ZXZX- - - % * * O ZXZXZXZXZXZXZXZXZXZXZXZX",
"ZXZXZXZXZXZXZXZXZXZXZXZXZXZX* = ^ 6X5XZXZXiXH mXH V.m.m.G 5XN N F G N N H B N S N N N M VXM h N H B 5XB h f 9 , ; & - = - % % % * * ZXZXZXZXZXZXZXZXZXZXZXZX",
"ZXZXZXZXZXZXZXZXZXZXZXZXZXZX- * vX5XV.bXbXmX6XcXV.G.G.G.5X/ f f f d VXf f VXe VXf f f f VXZXZXN ZXZXa g R.R.u q & & & % - % X ZXZXZXZXZXZXZXZXZXZXZXZXZXZXZX",
"ZXZXZXZXZXZXZXZXZXZXZXZXZXZX> * vXvXbXV.mXmX6XV.m.V./ m.B B f f f d M M M M M f y VXf VXVXf f h VXh a h g g g q o @ - & : * $ ZXZXZXZXZXZXZXZXZXZXZXZXZXZXZX",
"ZXZXZXZXZXZXZXZXZXZXZX> > > = : vXZXZXZXiXR.mXmXbX6XZXZXB 5Xy y y y y 2 aX2 y 2 d W.h f f h h mXR.R.s s a s g 5 o o * * * % p ZXZXZXZXZXZXZXZX% % % % p ZXZX",
"ZXZXZXZXZXZXZXZXZXZXZXZXZXZX> = vXvXbX^ mXvXbXbXZXZXZXwXR.B 2 2 2 2 2 2 aXjX2 q h d jXa a f B B R.h h ZXZXZXg g o + % - * % ZXZXZXZXZXZXZXZXZXZXZXZXZXX ZXZX",
"ZXZXZXZXZXZXZXZX> > > > > > % % E.E.vX5XvXbX^ ^ 6XvXvXE.s jX< < , & & & & & , jXZXZXjXjXZXZXh R.a N.ZXZXZXZXZX5 o . % % % % % ZXZXZXZXZXZXZXZXZXZXZXZXZXZXZX",
"ZXZXZXZXZXZXZXZXZX> > > > : O 4X5 E.vX5XvXvXZXZXZXvXZXZXjX, , , % O O O X & , 3 < < B.< ZXZXZXZXZXZXZXZXZXZXZX< o & % & - * % % ZXZXZXZXZXZXZXZX* - - * % % ",
"> > > > > > > > > > > > > * X 4Xi i ZXZXvXZXZXZXZXZX5 < & o % % * O * p X O = & = ZXZXZXZXZXZXZXZXg h ZXZXZX< ZXZXZX@ ZXZXZXZX% ZXZXZXZXZXZXZXZX% % % ZXZXZX",
"ZXZXZXZXZXZXZXZX> ZXZXZXZXZXZX4XO 5 5 5XE.E.5XZXZXa N.o o o   . 4X4XpXpXpXpX4X+ O ZXZXN.ZXZXZXZXZXZXZXZXZXZX, ZXZXZX% & * % % % ZXZXZXZXZXZXZXZXZXZXZXZXZX* ",
"> > > > > > * > ZXZX* ZXZXZXZX4XZXZXO ZXZXZX. o < , , % + + % p % 4X4XpX4X4X4X+ + + % . ZXZXZX3 a g g s 1 ZXZXZXX o   - % ZXZXZXZXZXZXZXZXZXZXZXZX% % % * ZX",
"ZXZXZXZXZXZX> > > * > > > = - % X * % * & . o . ZXZXZXZXZX+ p 4Xp 4XpX4X4X+ 4X4X4X+ 4X4XZXZXo ZXZXZXZX4 ZXZXZXZXX ZXZXZX$ X % X % % % % % % % % % ZXZXZXZXZX",
"ZXZXZXZXZXZXZX> ZXZX: ZXZXZX* * pXpXpX4XpXpX+       4XpX+ 4XZXZX% 4XX - + + + pX4X+ 4X4XZXZXZX- ZXZXZXZXZXZXZXZX    * % % % $ ZXZXZXZXZXZXZXZXZXZXZX* % & ZX",
"ZXZXZXZXZXZXZXZXZXZXZXZXZXZX- = % 4X+ %   pX4XpX  pXpXp @ + + - - * > > 0 > - 4X% + + pXpXZXZXZX% . + + ZXZXZX  X X % - X % p ZXZXZXZXZXZXZXZXZXZX% ZXZXZXZX",
"ZXZX= > > = ZXZXZXZXZXZXZXZX- * * * % 4X4X4X4X4Xp 4X% % = > ZXZXZX* - = - - ZXZXZX% ZXZXpXpXp 4XpXpX4Xp 4X4X4X4X4X4X% % $ % % % ZXZXZXZXZXZXZXZX* ZXZXZXZXZX",
"ZX: > > : ZXZXZXZXZXZXZXZXZX> > - - % - % +   + % % * > - & > > - = > ZXZXZXZX- + + % + 4XpXp 4XpXpXpXpX4X4XZXZXX % % % p % X % % % % % % % % % - ZXZXZXZX* ",
"> = : ZXZXZXZXZXZXZXZXZXZXZXZX> - * = - * - * % % * ZXZXZXZXZXZX> * ZXZXZXZX= % % % * * % % 4XpXp pXpXpX4X4X% % % % % % % % - ZXZXZXZXZXZXZXZXZXZXZXZXZXZX* ",
": > > = ZXZXZXZXZXZXZXZXZXZXZXZXZXZXZXZX= - > ZXZXZXZXZXZX* ZXZXZXZX* ZXZXZX* * % - * - % % %   p p 4XpXp 4X% * % % * % - * * ZXZXZXZXZXZXZXZXZX* ZXZXZXZXZX",
"ZX= > : ZXZXZXZXZXZXZXZXZXZXZXZXZX> > = > > > > > > > > * * = > > > * ZXZXZX- * % % % % ZXZXZX* ZXZXZX* % % % % % * ZXZX% % ZXZXZXZXZXZXZXZXZXZX- ZXZXZXZXZX",
"ZXZXZXZXZXZX= ZXZXZXZXZXZXZXZXZXZXZXZX> : > > > = : > = - > - > > > = ZXZXZX* = * % % % % * * * ; - - ZXZXZXZXZXZXZXZXZX% % % % - ZXZXZXZXZXZXZXZXZXZXZXZXZX"
};
