/* XPM */
static char *_a20353eb8434bd2f1c2a8740e7404e78vAgghH6n4FzEMlb_35[] = {
/* columns rows colors chars-per-pixel */
"78 86 256 2 ",
"   c #221D1D",
".  c #271D1A",
"X  c #24221D",
"o  c #2B231D",
"O  c #2A291D",
"+  c #231E21",
"@  c #291D28",
"#  c #321B36",
"$  c #1B2C29",
"%  c #252425",
"&  c #2A2524",
"*  c #252926",
"=  c #2A2925",
"-  c #262529",
";  c #2A262B",
":  c #26292A",
">  c #2B2A2B",
",  c #332523",
"<  c #342A24",
"1  c #33252C",
"2  c #3B242C",
"3  c #322A2D",
"4  c #3B2B2B",
"5  c #3B312A",
"6  c #2C2532",
"7  c #2D2A32",
"8  c #2B2638",
"9  c #322634",
"0  c #332A34",
"q  c #3B2B34",
"w  c #34253B",
"e  c #3A253C",
"r  c #352B3A",
"t  c #3A2B3C",
"y  c #3C2433",
"u  c #383138",
"i  c #283332",
"p  c #1D1F20",
"a  c #432B2A",
"s  c #46352B",
"d  c #442A3B",
"f  c #462837",
"g  c #493735",
"h  c #522E37",
"j  c #381C4A",
"k  c #3B2543",
"l  c #3C2B43",
"z  c #392747",
"x  c #3C2653",
"c  c #342E47",
"v  c #4A1C52",
"b  c #432B44",
"n  c #43254C",
"m  c #432B4B",
"M  c #492947",
"N  c #542A48",
"B  c #573748",
"V  c #452B53",
"C  c #4B2C54",
"Z  c #4C2B5B",
"A  c #532C5C",
"S  c #552857",
"D  c #4A3256",
"F  c #573358",
"G  c #653857",
"H  c #692E54",
"J  c #4B2865",
"K  c #542B63",
"L  c #5B2C6C",
"P  c #572768",
"I  c #583367",
"U  c #5A2976",
"Y  c #5B3375",
"T  c #4C306C",
"R  c #652969",
"E  c #663569",
"W  c #632C7C",
"Q  c #662A78",
"!  c #752A79",
"~  c #763679",
"^  c #6A5446",
"/  c #694657",
"(  c #764A6B",
")  c #5B2C85",
"_  c #6B2C84",
"`  c #662886",
"'  c #752B8A",
"]  c #6A3387",
"[  c #763489",
"{  c #6C2A94",
"}  c #742C9B",
"|  c #7B2C9C",
" . c #792897",
".. c #6B3395",
"X. c #7C2CA3",
"o. c #7929A7",
"O. c #772CB0",
"+. c #6D1D92",
"@. c #863789",
"#. c #842B9A",
"$. c #863599",
"%. c #8F2D8C",
"&. c #832CA4",
"*. c #832CAB",
"=. c #892BA9",
"-. c #952AA9",
";. c #8C33AB",
":. c #8836A8",
">. c #9638AA",
",. c #882CB5",
"<. c #952DB7",
"1. c #8C32B3",
"2. c #9737B7",
"3. c #A639A8",
"4. c #A53AB9",
"5. c #B12FB3",
"6. c #924892",
"7. c #AA4E99",
"8. c #9B44B6",
"9. c #8D49AB",
"0. c #A646B7",
"q. c #B74BB7",
"w. c #B453BC",
"e. c #B965B8",
"r. c #C64BB8",
"t. c #CF53B4",
"y. c #C665B9",
"u. c #CD6FB4",
"i. c #DA5BB3",
"p. c #A539C5",
"a. c #B453C3",
"s. c #BC54C4",
"d. c #BB57C8",
"f. c #BB67C5",
"g. c #C857D4",
"h. c #C865C6",
"j. c #D370CD",
"k. c #ED4FE8",
"l. c #CD8BB8",
"z. c #E991D2",
"x. c #D2AFCF",
"c. c #E5B8C9",
"v. c #F9A8E7",
"b. c #EEB0EC",
"n. c #EBCBD4",
"m. c #774A57",
"M. c #774590",
"N. c #35281D",
"B. c #3B2C24",
"V. c #74554A",
"C. c #A83595",
"Z. c #CE37CD",
"A. c #D8B9C9",
"S. c #D9B9D5",
"D. c #E7A9D8",
"F. c #E6B7D7",
"G. c #785655",
"H. c #F392EC",
"J. c #753469",
"K. c #AA54A9",
"L. c #D44ED2",
"P. c #D1B6B7",
"I. c #C987C7",
"U. c #DAA3E3",
"Y. c #F8B6D8",
"T. c #D4C4CF",
"R. c #533B39",
"E. c #514334",
"W. c #473248",
"Q. c #472557",
"!. c #521C6A",
"~. c #673378",
"^. c #6C2B8B",
"/. c #732C94",
"(. c #783397",
"). c #7B33A5",
"_. c #963899",
"`. c #8332A4",
"'. c #8934B7",
"]. c #9945A8",
"[. c #A749AA",
"{. c #B54BAA",
"}. c #B656AA",
"|. c #AC4CB4",
" X c #AC4CBB",
".X c #B34DBC",
"XX c #AC53B7",
"oX c #B453B4",
"OX c #BB53BC",
"+X c #B958B7",
"@X c #C557BA",
"#X c #9935C4",
"$X c #AA46C4",
"%X c #B74AC6",
"&X c #B350CD",
"*X c #9C45C4",
"=X c #C64BC7",
"-X c #C354C4",
";X c #C355CB",
":X c #C45ACB",
">X c #C859C7",
",X c #E94FD2",
"<X c #E96ED3",
"1X c #D48ECF",
"2X c #FAB7E6",
"3X c #F6CDE9",
"4X c #1D1C1C",
"5X c #5B4546",
"6X c #684A46",
"7X c #5F4F64",
"8X c #ECDBE0",
"9X c None",
"0X c #F471EB",
"qX c #F3ACD1",
"wX c #6F4F50",
"eX c #884C72",
"rX c #B16899",
"tX c #B98DC9",
"yX c #BAC5B2",
"uX c #DFC4B5",
"iX c #68431E",
"pX c #1A1817",
"aX c #381C29",
"sX c #CE28AC",
"dX c #D8C3C8",
"fX c #BAB0A7",
"gX c #D1C5B7",
"hX c #E839DD",
"jX c #3A2425",
"kX c #D657E4",
"lX c #8A3275",
"zX c #2F2B5C",
"xX c #B425CF",
"cX c #835558",
"vX c #594739",
"bX c #69503A",
"nX c #B46BAC",
"mX c #64493A",
"MX c #6B1B64",
"NX c #B88AB4",
"BX c #E3AAB7",
"VX c #4D1732",
"CX c #9B1998",
"ZX c #D658C7",
"AX c #534652",
"SX c #8E626C",
"DX c #922EC4",
"FX c #342F19",
"GX c #513398",
"HX c #37444E",
"JX c #971A60",
"KX c #611828",
"LX c #341419",
"PX c #B91242",
"IX c #170617",
"UX c black",
/* pixels */
"9X9X9X9X9X9X9X9X9X9X9X9X9X9X9X> > & - 9 6 @ c j - 6 6 ; & 1 = & 3 6 # 8 6 6 9 6 9 ; - - 8 8 # @ @ @ $ @ X % X % p X $ 9X9X+ $ p 9X9X9X9X9X9X9X9X% 9X9X% - * ",
"9X9X9X9X9X9X9X9X9X9X9X9X9X9X> > > & @ 3 @ @ zX$ : 6 ; ; 1 ; , 3 ; 9 w 8 6 9 ; 9 6 @ 6 6 8 - # @ @ $ @ $ % $ $ p % % X % 9X9Xp 9X9X+ 9X9X9X9X9X9X9X9X+ % % - ",
"9X9X9X9X9X9X9X9X9X9X9X9X9X9X> & & 3 ; 0 j j T 7X9 6 9 6 & 3 ; ; 1 3 8 w w w e e 6 8 8 - - @ # # @ p p $ % p X p p p p p p % % X 9X9X9X9X9X9X9X9X9X9X9X9X9X9X",
"9X9X9X9X9X9X9X9X9X9X9X9X9X9X> > & 3 ; 1 @ 8 AXT 6 6 6 9 3 & 1 3 9 0 w 9 w w e e z 8 - 8 8 8 @ 8 @ 8 $ @ X $ X * % $ % 9X9Xp $ % % % + 9X9X9X9X9X9X9X9X9X9X9X",
"9X9X9X9X9X9X9X9X9X9X9X9X9X9X9X9X= 3 ; 3 8 8 T 7X8 # w 6 6 9 3 3 3 3 9 9 k z v Q.Q.x j 8 6 6 @ ; $ 8 - - $ @ X p X 9X9X9X% % $ p 9X9X+ 9X9X9X9X9X9X9X9X+ 9X9X",
"9X9X9X9X9X9X9X9X9X9X9X9X9X9X9X& 3 = ; 0 8 8 7XT 8 w 6 w 9 6 3 9 3 0 0 6 z z v Q.T x c # 8 6 1 # 8 @ @ @ - p * p % p % p 9X9Xp % 9X9X9X9X9X9X9X9X9X9Xp 9X9X9X",
"9X9X9X9X9X9X9X9X9X9X9X9X9X9X3 > > - p 6 p p c @ 8 8 8 8 w w 9 w 0 q w l x Q.J !.U !.v j 6 9 3 ; $ @ $ $ $ % + * % $ % $ % p % X 9X9X9X9X9X9X9X9X9X9X9X+ 9X9X",
"9X9X9X9X9X9X9X9X9X9X9X9X9X9X9X9X- - - - 8 # c 8 # j 8 9 w w w w 4 q w c J zX!.U U P Q.x 9 9 ; ; 8 @ p - @ p % p % p + % p $ % % - 9X9X9X9X9X9X9X9X9X9X9X9X9X",
"9X9X9X9X9X9X9X9X9X9X; > > > > > = = = > 6 7 6 8 = = > > 8 9 w t x x !.J U U ) GX) !.x v k z c 8 6 @ - - - - - @ % + @ $ @ - - @ - + 9X9X9X9X9X9X+ - + + - 9X",
"9X9X9X9X9X9X9X9X9X9X> 9X9X9X9X9X= = - > 6 6 8 : = = 3 > 9 9 l l J J J T U ) { { +.) !.zXz l 8 j 6 6 - @ - @ - p + - p - @ p @ - p 9X9X9X9X9X9X9X9Xp p 9X9X+ ",
"> > > > > > > > > > 3 3 > > > > = > > = > 7 6 6 < = 3 3 w w l l T P U ` { ) +.o.+.GX!.!.x x w c 9 ; @ 8 8 @ $ 8 - @ @ @ @ - $ + - 9X9X9X9X9X9Xp + + - p p % ",
"9X9X9X9X9X9X9X9X9X9X> & 9X9X> > > = = > ; 6 6 7 3 = 3 0 r c z W.U Y ) ` ) +.O.+.O.) T !.x x z w 9 9 8 - 8 @ @ @ @ - $ @ $ @ - @ - 9X9X9X9X9X+ % % p 9X9X+ 9X",
"9X9X9X9X9X9X9X9X> > > > > > > 3 3 > = < 6 7 6 8 = 3 0 0 l l D D ` ` ' /. . .CXo.} { U !.Q.Q.t w 9 9 9 6 8 - 8 8 8 @ @ @ 8 @ - @ - - 9X9X9X9Xp 9X9X9X9X+ + 9X",
"9X9X9X9X9X9X9X9X> ; 3 3 > > > > > > > > 7 9 8 9 < < r q z W.C D _ +. .+.} } o.o.o.{ ` W J Q.l e q q 9 9 8 - 8 @ 8 8 8 8 @ 8 - - - @ 9X9X9X9X9X9X9X9Xp % p % ",
"3 > > > > 3 > > > 3 > ; > 0 0 > > > 0 > r 9 w r B.3 t d C C P I +. . .o.#.#.CX,.o./.` ` L P M b t k e 9 8 8 8 8 zXc 8 8 8 # 8 8 @ - % % 9X9X% + % p + p + p ",
"> > > > > > 9X9X9X9X9X9X> > > > > 3 > 0 r 9 w c 4 5 d b F A Y Y +./.=.&.=.=.*.CX} } ^.^.Q P M b b d e r c j j c AXc 8 8 8 8 8 @ - - 9X9X9X9X+ - + + p % p $ ",
"> > > > > > > > > > > > > 7 7 7 > i 0 0 r r k m x Q.J J K I W Q +.o.*.*.,.=.o.&.X. ././.Q L C N b b z x Q.x v Q.J I j Q.k j 8 - @ - - $ + + p % + + - p + + ",
"> > > > > > > > > > > > > > > 7 3 3 u 0 r c k m Q.Z J K L L ~.Q } o.*.o.1.,.+.o.X.| (./.~.R S S M b l x Z Q.J Q.Z K n Z z # 8 # - - - @ + - - + % p p % % + ",
"> > : > : > > i > > > > 7 7 0 3 3 0 u r l l m b Z Z K L ~.~._ ' o.o.,.*.2.<.o.&.&.X.| (._ Q L P A Z Z Z J v P !.P L Q.L x j j 8 @ 6 % % - - % % + + - + p - ",
"> > > : > > : > > > > 7 > 3 > i i 0 r r l l M C Z K L L ~.~.' [ o.o.<.,.8.2. .X.&.X.| /.] _ E R A F K Z P S !.U Q ] P U x j j # ; @ - - p - % p p - + % % + ",
": > > > : > : 9X9X9X9X9X> 0 0 0 7 r u l u u W.D P Y W ` ^./. .X.=.-.<.5.p.$X*.,.,.*.*.O././.Q W E E P R MX!.! Q ;.>.^.` x x c 8 - - * % % % % % - - % + % p ",
"> > : : i > : > > > > > > 7 > i 7 u u u l b C C P Y _ ] /./.&.&.-.<.5.p.&X$X,.,.,.*.*.*.(./.! [ E ~.L R Q Q ' [ 8.8.] ^.x z c 8 - * - - p 9X9X9X% + % + p % ",
": i : > > > > : > > > 7 7 7 0 9 r r d t M M S F ` ^.} o.X.*.*.=.-.<.p.p.&X%X1.'.<.,.,.*.X.| ' [ ! ~ _ W ' ' _.$.&X#X+.{ x j 8 8 : - - - % % - + + p - % - - ",
"> > i > > i > > 3 > i > > 0 i 0 0 u t g W.W.I I ) ] ).).*.*.;.1.<.4.%X%X&X%X*.2.<.,.,.=.&.`. .(.] ~ _ W  .[ 9.].&X#X{ { x zXzX8 - - - - p % + % % % - + % p ",
"9X9X9X> > > : i > 7 7 > 7 0 r 8 u t W.m Z K U Y o.} O.O.1.*.;.:.4.4.s..Xs.a.`.0.#.=.<.,.*.=.| | [ [ ~.[ [ $.9.[.K.9.J.R n n c 8 - - - - % - - + % % - + % % ",
"> > : > i > 7 > > : > 7 7 i 0 u u t W.D J J ` _ } o.'.,.1.;.<.<.4.$X=Xq.%X%X;.0.=.;.1.1.1.*.X.X.(.[ _ ~.' ' @.].6.6.R R z j j 8 8 - - - - + - + p % + - + % ",
"7 : 9X9X> 9X9X9X9X> 7 7 7 0 u l c W.V T Y U ^./.*.O.'.,.;.;.2.3.%Xa.;X%Xw..X].8.,.'.<.'.,.,.*.O. .} ^.^.' _ [ (.(._ P P j n 8 w @ 6 % % % % + % - - - + - p ",
"> > > i 7 > > > > > i 7 7 8 u u b W.D F ` W } (.,.,.'.,.2.1.0.$X:X%X;X@Xw.w. X X'.'.DXDX'.<.*.*.(.| /.' _ ' _ ' [ W !.!.k k w w 6 @ % - % - - % % - + % % - ",
": 7 > i > > > > : 7 7 0 0 0 u c W.D Z I ] ] } ).,.,.1.<.>.2.%X%X%X.X>XOXOXd.f.:X'.2.DX2.<.<.,.,.*.*.|  ./.^.W Q U U J P k n # y @ @ - % % - + % % % % % % + ",
"i > > > > > i > i > > i i 0 u u c W.I I ` ] ).`.1.'.2.<.2.4.&X&X-X;X:Xh.d.>Xg.f.#X#X<.DXDX<.,.,.*.=.&.&.' ' W ` Q U J J n n k # 6 6 - @ % % - 9X9X- - + - p ",
"> > 7 3 > > > > > 9X9X0 t u t W.D F Y Y ..[ &.:.=.;.>.2.0.0.a.d.g.j.j.kXh.-Xd.d.p.p.<.#X<.<.-.-.DXDX,.,.| | ^.^.` ) U U M Q.k # 6 6 - + - - - + % - % + + - ",
"> > > i > i 7 9X9Xi 0 u u r l b D F Y ~.(.(.`.:.:.=.>.0. X0.a.d.g.g.0X0X:X:Xd.:Xp.p.p.<.2.<.<.,.DXDX,.,.|  .^.^.` ` U Y Q.Q.j e 6 6 - - % - % % % % % - % 9X",
"9X9X9X9X> i 0 > > 3 q q t t Q.A T Y _ ] (.| =.`.>.$.8.8.*XXXXXf.f.f.1XU.&Xh.-X>Xj.&X&X&X$X$X4.-.;.;.=.:.o.&.o.+.+. .` ) Q.S j # 6 ; - - @ - % - % % - @ % 9X",
"9X9X9X9X> > > 3 9X9Xt q b t S A T Y ] ..`.`._.=.:.:.XXXXa.a.XX&Xf.h.tXU.XXw.q.s.d.&X&Xp.4.#X>.;.2.;.&.;.&.o. .o.{ { ` ` A A j 8 ; 6 ; - - - % - % % % - + 9X",
"9X9X9X> > > > i < 5 t t b b C F U ` { (.`.`.-.>.;.>.a.a.a.a.XXXX1XU.b.3XnXu.t.ZXkXf.kX&Xs.%X X$X0.>.=.>.*.*.*.o.X.+.^.` J Q.j 8 ; ; - - - - - % - + % % % % ",
"9X9X9Xi 7 > > 3 > 3 q t b b C A ) ] } (.`.`.;.>.>.[.f.a.f.a.f.&XtXtXU.b.nXu.@X@Xf.g.&XkXs.$X X%X0.2.:.>.,.=.*.O.9X9X` ` Q.Q.j 8 ; ; ; @ - - % - % - % % + % ",
"> > > > > > i i < i q t b b Z I ` ..} 9X9X`.>.>.3. Xd.+X&XXXtXtXNXtXS.3Xl.l.j.y.+Xa.d.&X:X%X0.a.XXa.].].=.&.*.X.o.o.` +.Q.Q.z j ; ; ; ; - - % % % - - % % + ",
"> > : 7 > > > > 3 5 q d b b A I ] ] | } :.:.>.2.0.%Xw.d.f.a.f.1XtXtXx.F.I.l.u.@Xd.w.g.g.:X;X$X%Xw.a.XX8.>.=.*.o.X.o.` ` v !.c 8 ; ; ; ; - ; % % % % - + % 9X",
"9X9X9X7 > i i > 3 3 t u M M K Y { { X.o.;.2.>.0.0.XXw.f.nXXXj.U.A.S.x.n.F.D.1Xj.e.K.%X&Xd.s.w..Xw.w.XXw.8.`.&.&.X.{ ` ` v Q.j 8 3 ; ; - @ - - % % - % % % 9X",
"9X9X9X9X> > > > 3 B.t t M C I L ^.{ *.).2.2.0.$X.Xa.f.9X9Xe.NX1XS.S.P.A.D.x.1Xz.j.w.s.s.OX%Xa..XXXoXXXOX X>.&.X.} } ` ) Q.v c 8 ; ; ; ; - - % - - + % % + - ",
"> > 7 : i > 7 i 0 0 l l m D U Y o.O.O.1.&.=.>.0.&X&Xf.f.f.I.l.u.S.c.A.9X9Xx.x.x.U.f.&Xd.|.OX%X%Xa..X$X4.=.#.&.o. .{ Q Q v v 3 6 9 ; - - - % % % + % - % % + ",
"> > > : > > > > 0 r t b C D L Y { O.*.O.:.=.>.4.&Xf.f.&X1X1Xz.z.A.A.A.T.x.S.S.U.U.1Xh.a.s.d.s.a.a.%X4.<.=.=.o.o.9X9X!.Q v v 9 9 ; ; - - @ - % - - % % % 9X9X",
"9X9X9X9X> > i > 0 0 l l C D W ` O.O.o.*.#.=.>.>.&X&Xf.XXj.I.b.2Xc.A.dXdXx.T.T.S.U.1Xy.+X@X@Xs.a.$X X<.=.o.=.o.o.^.+.U U n v r 9 6 ; - - - @ 9X9X- % - + % + ",
"9X9X> > > > i > 0 9 l W.M D W ~.O.O.*.'.>.-.>.-.&X*Xf.&X1XU.D.D.c.A.T.A.S.T.S.S.x.1Xu.@X@X@Xs.s.0.4.,.+.CXo.o. ./.^.Q Q n M r r ; ; - - % - - % - % % 9X9X9X",
"9X9X9X> > 7 i > 0 0 t l D D ) ] o.o.>.>.%._._.3.$Xa.e.nXI.D.c.F.dXuXA.gX9X9XT.A.b.U.tXtXd.d.s.%X0.4.=.#.*.*. .X.} { ` ` v 9X9X9X; ; ; @ - - % - % - + - - 9X",
"9X9X9X9X> > i > 0 r l b V D _ ..o.O.9.2.>.3.[.[.&Xa.f.f.1XD.c.A.n.P.uXdXdXdXS.S.3Xb.U.U.g.d.s.%X4.0.-.-.*.=.X.} }  .` ` A Q.c 8 1 ; ; - - + % % % % % % + % ",
"> > > > > > > 0 r r z m C F ] [ X.X.>.8.[.7.{.{.w.a.nXNXP.gXA.uXn.A.S.S.A.S.S.A.A.x.BXBXh.}.+XoX X X4.2.:.:.o. .X.} ^.^.!.Q.k 8 6 ; 9X9X@ - + - % % % + % 9X",
"9X9X9X> i > > 0 r u b b D D ] ..`.:.>.0.7.}.{.@Xd.f.I.1XP.A.gXgXA.A.S.c.S.S.dXA.A.A.c.n.j.e.w.oX.X.X$X0.<.;.&. . .X.^.` P J k k 6 6 - @ - - - % % - % - % - ",
"i i > > > i 3 3 r l c D ) ) O.o.>.].[.oX{.r.t.t.@Xy.D.D.gXdXgXgXc.A.n.8XS.S.S.S.x.S.c.1Xz.l.}.}.|.oX|.|.8.[.8.].`.X./.^.U !.M M 9 9 ; @ ; ; - % % 9X9X9X9X9X",
"9X> > > 3 3 0 u l l W.V ) ) *.O.].8.XXw.{.r.Z.t.y.nX1XD.dXdXgXgXA.n.8X3XS.A.S.A.T.x.D.x.l.1X7.7.oX|.0.[.[.].8.9.;.)./.^.R U n VX9 9 6 @ ; ; * & % % * % % % ",
"= = > > 3 i 7 r l W.V V ] ..'.:.[.K.{.oXr.t.t.i.0X0Xv.v.v.2XF.c.uXA.3X8Xc.9X9XS.gXyXA.P.l.1X+XK.}.}.[.[.[.[.[.].2.:.(.} ` U n v y 9 9 @ @ - - % % % - % % % ",
"i i < i i > r r l l D D ....9.'.|.[.[.[.r.r.ZX,Xk.0XH.H.D.v.F.F.c.uXn.n.S.A.A.S.gXyXA.P.u.u.@X}.}.K.K.[.[.K.].[.8.'.).).` Q N M 9 9 6 9 ; - - - % - * 9X9X9X",
"= > > > 3 i r u l m D T ] ] 6.M.].K.[.{.r.t.t.t.kXkXH.H.2Xv.Y.3Xn.8Xn.n.S.x.x.A.P.yXD.D.j.i.,XL.e.}.K.[.[.7.|.].8.8.9.`.Q _ S v y 9 @ @ - @ = % % % * 9X9X9X",
"9X9X9X9X> 0 8 u l c x V Y ] (.$.[.].[.[.sXt.Z.t.L.ZXH.H.b.2Xn.n.8Xn.n.c.A.S.A.x.yXP.D.z.j.y.kXkXy.}.9X9X9XK.].[.$X8.`.:.' Q N v 9 9 6 6 ; % * % % % * 9X9X9X",
"> = > > 7 0 7 0 c u x b T Y (.$._.].[.[.{.{.t.t.}.}.I.1XP.P.fXyXA.c.A.c.F.F.S.b.b.2XH.<Xi.,Xk.k.h.y.oXK.K.K.[.[.XX9.:.:.[ Q C v w 9 6 6 - ; - - 9X9X9X9X9X9X",
"9X9X9X9X> 7 7 7 r c l l K T /.(.$.6.[.{.r.5.sXr.K.rXl.D.A.gXgXfXBXP.BXx.F.F.F.b.b.3X<Xh.,X,XhXk.h.u.+XXX[.[.8.].|.>.`.`.[ Q M n y 9 @ 1 - @ * 9X9X% 9X9X9X9X",
"9X9X: 9X9X9X7 3 7 9 r c b W.Z L ' #._.].|.{.{.{.C.[.}.{.u.I.z.v.v.v.v.H.v.v.v.v.1Xj.j.j.g.ZXt.t.j.@X[.7.[.7.8.XX(.$. .' (.U x x 9 9 6 @ ; 9X9X9X9XX % % % % ",
"7 : i 9X9X9X9X7 7 0 r u b t Q.K MX+._._.|.[.3.[.{.+X}.oXu.u.z.2XH.v.v.v.v.v.v.H.1Xj.g.h.>X>Xr.t.t.t.{.{.[.].9.9.#. .` ` ] ) Q.j 9 , @ 6 - @ % % % % % % % % ",
": : i : > > > > 7 7 7 0 r r Q.n MX+.(.$.].].>.3.g.L.L.Z.,X,XL.,X<X<Xj.<Xj.I.h.j.j.y.@Xr.r.r.7.{.{.{.].>.`.:...[ [ [ U !.J x z z 9 # 9 @ ; @ % % p % % % % X ",
": i > : : 7 i 7 i 0 0 7 r r V n !.U @.(.%._._.>.kXg.L.L.0Xk.L.L.ZXZXj.j.f.j.y.nXj.@Xq.r.t.{.r.7.}.[._.$.9.$.(.] ! W P !.j x j j # 9 @ 6 @ - * % % % p % 9X9X",
"9X7 : > > 9X9X9X9X7 7 0 r u x b S S 6.( lXeX7.lXC.3.CX5.L.,XL.,X6.@.6.@.6.6.eXeXoX[.3.>.@.%.6.@.@.%.Q ! _ _ I J S C n b c 8 6 ; # @ ; @ - - % % % % % % X 9X",
"9X: 7 : : 7 > > > > > 7 7 r x m v v eX6.eXeX7.7.3.{.5.r.L.k.,XL.eXeX6.eXeXeXlXlX[.3.3.C._.%.~ @.@.! ! Q W W Q.J M n k b j 8 6 9 6 6 6 @ - + % % % % % p % % ",
": 7 : : > : 9X9X> 0 > 3 > 7 q q VXa cXcXcXlXSXcXSXeXcXlXJ.( E E ( 6.J.J.cXH G B +.JX! +.! Q U P MXMXS v Q.K z z l k r 7 6 6 ; @ ; @ @ - - + X % % % % % % % ",
"> : > > > > > > > > > > 0 0 4 0 f VXm.cXcXm.JXcXeXSXlXcX( eX( ( 6.eXeX( J.G H H ! MXMX+.Q Q P v H N v v v v j z z z 9 7 ; @ ; ; @ 6 @ @ - @ X % % % X % - * ",
"9X9X9X9X9X9X9X9X9X9X> > > 3 3 3 9X9X9X6XcX6XcX9X9X9X9XwXN / J.m./ m.G H B N N S B F N W.W.h f y M h a f y y 9 w 9X9X9X9X9X- X X * - % % + 9X9X9X9X9X9X9X9X9X",
"9X9X9X9X9X9X9X9X9X9X9X9X9X9X, 1 G.wX6X9X9XcXH 9X9X9XV.G B G G G G G B N N h M N F N B M d M d d VXM f f # y y 9X9X7 > > > = O O % - - - 9X9X9X9X9X9X9X9X9X9X",
"9X9X9Xi : > > > > > > > > > & & 6XwXR.9X9XV.6X6XmXH V.cXG / B B N g f f VXf f f f y 2 y aXaXaXa N B B B 2 2 # 1 ; 9X9X9X9X9X9X9X9X9X9X9X9X9X9X9X9X9X9X9X9X9X",
"9X: : 7 > > > > > > > 3 > & - & 5X6XmXmXmXmXmXmXmXcXcXH 6XB N N h h f f h f a f f f f 2 # f y f N B B B g f 1 @ 9X9X9X9X9X9X9X9X9X9X9X9X9X9X9X9X9X9X9X9X9X9X",
"> > > > > : > > > > > > & 9X9X% vXvXbXV.bXbXbX9X9X9X9Xm.B B f a a y jX2 2 4 2 jXaX2 2 2 a a h f f a a a g g f 9X9X9X9X9X9X9X9X9X9X9X9X9X9X9X9X9X9X9X9X9X9X9X",
": i : : : > > > > > > > > & ; = vXbX^ ^ mXiX9X9XV.V.m.wXB B a f a 2 jX1 2 2 2 aXaX@ jX, aX2 a f f VX9X9XR.9X9X9X9X9X9X9X9X9X9X9X9X9X9X9X9X9X9X9X9X9X9X9X9X9X",
"> : : > > > > > > > & > > > % % 9X9X9X9XvX9X9X9XmX9X9X9XR.R., jX< , , o & < < < a 5 4 B.4 a R.R.h h s s s 9X9X9XX 9X9X9X9X9X9X9X9X9X9X9X9X9X9X9X9X9X9X9X9X9X",
"9X9X9X9X: i 9X9X9X9X9X9X& > - 9X9X9X9XbXmXiXbXmX9X9X9X6XB B , jXN., o o o , < < 5 B.jXjXa a R.R.9X9Xg 9X9X5 s g . o 9X9X9X9X9X* 9X9X9X9X9X9X9X9X9X9X9X9X9X9X",
": : : > : : > : > = = = > > & = E.E.E.^ vXvX^ ^ mXvXvXs 9X9X, , & o o O o 9X9X< B.jXFXN.FXs R.s FXa a a s R.9X9X9X9X- - * - 9X9X9X9X9X9X9X9X9X9X9X9X9X9X9X9X",
": > > : > : : > = > > > > - & X 9X9X9XvXbXbXbXbXvXvXR.B.N.N.o N.O & O X X O , , N.N.N.N.N.9X9X9X9X9Xa s s g 5 B.. . - & * 9X9X* 9X9X9X9X9X9X9X9X9X9X9X9X9X9X",
": : : : : > > : = > > = - = 9X9X* i E.E.E.9X9X9X9X9XB.< o o X O O X 4Xp   9X9X9XO O o N.B.FXB.9X9X9X9X9X9X9X9X9X. o & & 9X9X9X9X9X9X9X9X9X9X9X9X9X9X9X9X9X9X",
"9X9X: > : > * > > > > > > -   9X9X9Xu E.E.E.vX9X9X5 FXN.. o X   9X9X9X9X9X9X  + X X N.o N.B.B.9X9X9X9X9X9X9X9X9Xo & - 9X9X9X9X9X9X9X9X9X9X9X9X9X9X9X9X9X9X9X",
": > > : : > > : - = - 3 > =   9X9X9XX O X o o 9X9XN.& & % + p % 9X9X9X4X4X4X  +     X X X o o B.s a 9X9X9X9X9X9X    % = * 9X9X9X9X9X9X9X9X9X9X9X9X9X9X9X9X9X",
"i : : > > : : : > - & > > - -   O X X X o O X . . . o + .   X p 9X9X4X4X+ 9X9X9X. 4XpX. . 9X9Xo jX4 9X9X9X9X9X9X4X. - * % 9X9X% % % % % % % % % % % % % % % ",
"* > : : * : : : = & - & = > = & pXpX4X9X9X9X  9X9X9X9X9X9XpX4Xp * - * = - - + 4X4XX   pX4X. . % & % 9X9X9X9X9X4XpX4X% * 9X9X9X9X9X9X9X9X9X9X9X9X9X9X9X9X9X9X",
"9X* > : > : > * - > > > - & - - X p X X . pXpX9X9X9X+ p + + + * * - > > > & - + X X X pXpX.   % & 9X9X9X9X9X9X. 9X9X9X9X% 9X9X9X9X9X9X9X9X9X9X9X9X9X9X9X9X9X",
"9X9X9X9X9X9X9X9X9X9X9X9X9X9X9X> * > : :   pXpXpX- - % * * - = % * > 9X9X> - - % - +   4XpX4X9X9X9X4X9X9X9X9X9X9X9X9X9X9X9X9X9X9X9X9X9X9X9X9X9X9X9X9X9X9X9X9X",
"9X9X9X9X9X9X9X9X9X* > > > * > > : : - * = % % p - = = * % = % - 9X9X9X9X> 9X9X= = %   4X4X4X4X4X4X4X4Xp 4X4X4X4X4X4X9X9X9X9X% 9X9X9X9X9X9X9X9X9X9X9X9X9X9X9X",
"9X9X9X9X9X9X9X9X9X9X9X9X9X9X9X9X> 9X9X> 9X9X- = - > = = > = & - 9X9X9X9X9X9X> > - * % 4Xp 4X4X4X4XpXpXpXpXpX4X4X  % % % % % % 9X9X9X9X9X9X9X9X9X9X9X9X9X9X9X",
"9X9X9X9X9X9X9X9X9X9X9X9X9X9X9X9X9X9X9X9X9X> 9X9X9X9X9X- = - = - 9X9X9X9X9X9X9X- = * %   p p 4X4X4X4X4Xp pX4XpXpX% % - * * 9X9X9X= 9X9X9X9X9X9X9X9X9X9X9X9X9X",
"9X9X9X9X9X9X9X9X9X9X9X9X9X9X9X9X9X9X* > > > > > > - > > - * * * * 9X9X9X9X9X> = - * - -   + % X 9X9X9X9X* - - 9X9X9X9X9X9X9X9X9X9X9X9X9X9X9X9X9X9X9X9X9X9X9X",
"9X9X9X9X9X9X9X9X9X9X9X9X9X9X9X9X9X9X9X9X- * - = = * 9X9X> * = - 9X9X9X9X9X9X9X- * = * * * * % - - * * 9X9X9X9X9X9X9X9X9X- * 9X9X9X9X9X9X9X9X9X9X9X9X9X9X9X9X"
};
