/* XPM */
static char *_a20353eb8434bd2f1c2a8740e7404e78vAgghH6n4FzEMlb_36[] = {
/* columns rows colors chars-per-pixel */
"78 86 256 2 ",
"   c #221D1D",
".  c #271D1A",
"X  c #24221D",
"o  c #2B231D",
"O  c #2A291D",
"+  c #231E21",
"@  c #291D28",
"#  c #321B36",
"$  c #1B2C29",
"%  c #252425",
"&  c #2A2524",
"*  c #252926",
"=  c #2A2925",
"-  c #262529",
";  c #2A262B",
":  c #26292A",
">  c #2B2A2B",
",  c #332523",
"<  c #342A24",
"1  c #33252C",
"2  c #3B242C",
"3  c #322A2D",
"4  c #3B2B2B",
"5  c #3B312A",
"6  c #2C2532",
"7  c #2D2A32",
"8  c #2B2638",
"9  c #322634",
"0  c #332A34",
"q  c #3B2B34",
"w  c #34253B",
"e  c #3A253C",
"r  c #352B3A",
"t  c #3A2B3C",
"y  c #3C2433",
"u  c #383138",
"i  c #283332",
"p  c #1D1F20",
"a  c #432B2A",
"s  c #46352B",
"d  c #442A3B",
"f  c #462837",
"g  c #493735",
"h  c #522E37",
"j  c #381C4A",
"k  c #3B2543",
"l  c #3C2B43",
"z  c #392747",
"x  c #3C2653",
"c  c #342E47",
"v  c #4A1C52",
"b  c #432B44",
"n  c #43254C",
"m  c #432B4B",
"M  c #492947",
"N  c #542A48",
"B  c #573748",
"V  c #452B53",
"C  c #4B2C54",
"Z  c #4C2B5B",
"A  c #532C5C",
"S  c #552857",
"D  c #4A3256",
"F  c #573358",
"G  c #653857",
"H  c #692E54",
"J  c #4B2865",
"K  c #542B63",
"L  c #5B2C6C",
"P  c #572768",
"I  c #583367",
"U  c #5A2976",
"Y  c #5B3375",
"T  c #4C306C",
"R  c #652969",
"E  c #663569",
"W  c #632C7C",
"Q  c #662A78",
"!  c #752A79",
"~  c #763679",
"^  c #6A5446",
"/  c #694657",
"(  c #764A6B",
")  c #5B2C85",
"_  c #6B2C84",
"`  c #662886",
"'  c #752B8A",
"]  c #6A3387",
"[  c #763489",
"{  c #6C2A94",
"}  c #742C9B",
"|  c #7B2C9C",
" . c #792897",
".. c #6B3395",
"X. c #7C2CA3",
"o. c #7929A7",
"O. c #772CB0",
"+. c #6D1D92",
"@. c #863789",
"#. c #842B9A",
"$. c #863599",
"%. c #8F2D8C",
"&. c #832CA4",
"*. c #832CAB",
"=. c #892BA9",
"-. c #952AA9",
";. c #8C33AB",
":. c #8836A8",
">. c #9638AA",
",. c #882CB5",
"<. c #952DB7",
"1. c #8C32B3",
"2. c #9737B7",
"3. c #A639A8",
"4. c #A53AB9",
"5. c #B12FB3",
"6. c #924892",
"7. c #AA4E99",
"8. c #9B44B6",
"9. c #8D49AB",
"0. c #A646B7",
"q. c #B74BB7",
"w. c #B453BC",
"e. c #B965B8",
"r. c #C64BB8",
"t. c #CF53B4",
"y. c #C665B9",
"u. c #CD6FB4",
"i. c #DA5BB3",
"p. c #A539C5",
"a. c #B453C3",
"s. c #BC54C4",
"d. c #BB57C8",
"f. c #BB67C5",
"g. c #C857D4",
"h. c #C865C6",
"j. c #D370CD",
"k. c #ED4FE8",
"l. c #CD8BB8",
"z. c #E991D2",
"x. c #D2AFCF",
"c. c #E5B8C9",
"v. c #F9A8E7",
"b. c #EEB0EC",
"n. c #EBCBD4",
"m. c #774A57",
"M. c #774590",
"N. c #35281D",
"B. c #3B2C24",
"V. c None",
"C. c #A83595",
"Z. c #CE37CD",
"A. c #D8B9C9",
"S. c #D9B9D5",
"D. c #E7A9D8",
"F. c #E6B7D7",
"G. c #785655",
"H. c #F392EC",
"J. c #753469",
"K. c #AA54A9",
"L. c #D44ED2",
"P. c #D1B6B7",
"I. c #C987C7",
"U. c #DAA3E3",
"Y. c #F8B6D8",
"T. c #D4C4CF",
"R. c #533B39",
"E. c #514334",
"W. c #473248",
"Q. c #472557",
"!. c #521C6A",
"~. c #673378",
"^. c #6C2B8B",
"/. c #732C94",
"(. c #783397",
"). c #7B33A5",
"_. c #963899",
"`. c #8332A4",
"'. c #8934B7",
"]. c #9945A8",
"[. c #A749AA",
"{. c #B54BAA",
"}. c #B656AA",
"|. c #AC4CB4",
" X c #AC4CBB",
".X c #B34DBC",
"XX c #AC53B7",
"oX c #B453B4",
"OX c #BB53BC",
"+X c #B958B7",
"@X c #C557BA",
"#X c #9935C4",
"$X c #AA46C4",
"%X c #B74AC6",
"&X c #B350CD",
"*X c #9C45C4",
"=X c #C64BC7",
"-X c #C354C4",
";X c #C355CB",
":X c #C45ACB",
">X c #C859C7",
",X c #E94FD2",
"<X c #E96ED3",
"1X c #D48ECF",
"2X c #FAB7E6",
"3X c #F6CDE9",
"4X c #1D1C1C",
"5X c #5B4546",
"6X c #684A46",
"7X c #5F4F64",
"8X c #ECDBE0",
"9X c #B234CA",
"0X c #F471EB",
"qX c #F3ACD1",
"wX c #6F4F50",
"eX c #884C72",
"rX c #B16899",
"tX c #B98DC9",
"yX c #BAC5B2",
"uX c #DFC4B5",
"iX c #68431E",
"pX c #1A1817",
"aX c #381C29",
"sX c #CE28AC",
"dX c #D8C3C8",
"fX c #BAB0A7",
"gX c #D1C5B7",
"hX c #E839DD",
"jX c #3A2425",
"kX c #D657E4",
"lX c #8A3275",
"zX c #2F2B5C",
"xX c #B425CF",
"cX c #835558",
"vX c #594739",
"bX c #69503A",
"nX c #B46BAC",
"mX c #64493A",
"MX c #6B1B64",
"NX c #B88AB4",
"BX c #E3AAB7",
"VX c #4D1732",
"CX c #9B1998",
"ZX c #D658C7",
"AX c #534652",
"SX c #8E626C",
"DX c #922EC4",
"FX c #342F19",
"GX c #513398",
"HX c #37444E",
"JX c #971A60",
"KX c #611828",
"LX c #341419",
"PX c #B91242",
"IX c #170617",
"UX c black",
/* pixels */
"V.V.V.V.V.V.V.V.V.V.V.V.V.V.7 > 6 7 6 6 8 8 AX7X8 8 - - ; ; 6 ; : 8 aXVX; 6 ; - aXaX$ $ $ @ , o o O % % % p - - @ p % X X X * X p X V.V.V.V.V.% % % p + % p ",
"V.V.V.V.V.V.V.V.V.V.V.V.V.V.: > 6 6 6 8 8 # zXAX8 8 6 8 ; ; ; 6 8 - aXVX; @ - - aXaX$ $ @ $ LX@ % X X % % % - p @ $ % + X p X X X % V.V.V.V.V.V.V.V.p % + % ",
"V.V.V.V.V.V.V.V.V.V.V.V.V.V.6 > ; > - 6 - p j 8 6 8 - - ; ; 6 ; - : # y : - - @ @ # $ $ @ - @ . % % % % % X % X @ @ p % * X X X % 4XV.V.V.V.V.V.V.V.V.V.V.V.",
"V.V.V.V.V.V.V.V.V.V.V.V.V.V.: 7 ; ; - ; 8 @ 8 $ - 6 - 6 ; - 6 6 8 $ y aX: 8 - - # # $ $ - + @ o % % p % % p % $ $ p - + p * X X % % % % % % V.V.V.V.V.V.+ V.",
"V.V.V.V.V.V.V.V.V.V.V.V.V.V.V.; > = * > > > > 6 6 ; - & ; ; ; 9 9 ; , # - 8 ; @ 1 , - $ & aX% $ - - @ @ + X X X X X X X X % % V.V.V.% + + + V.V.V.V.V.p + p ",
"V.V.V.V.V.V.V.V.V.V.V.V.V.V.; > > * - > ; > ; > ; ; > - ; 3 V.V.1 6 1 9 8 $ 6 6 @ 1 - - @ @ % X + - $ @ X % X O O X X % * % + V.V.V.V.V.V.% V.V.V.V.V.% % + ",
"> > ; > > > ; > > > - > - > > > : > = > > > ; ; ; ; 6 6 6 ; 9 9 # y e e c 8 # aX; @ * - jXLX* * - - - @ * X X X X % + % @ - % + + - V.V.V.V.V.V.V.V.% + p % ",
"> > > > > > > > ; > > > > > > > > > = > > > > & 7 > > > 0 7 9 0 w y e z i 8 y # ; - - * aX, $ * - - - - * X X X X X - + - + - @ % V.V.V.V.V.p V.V.V.V.V.V.V.",
"> > > > 7 V.V.V.V.V.V.V.V.V.V.; 3 > = = = > > > > > 7 7 7 9 9 r 0 0 l b S R v v @ 8 * * $ $ $ : & % - - 8 - p @ @ - 8 @ @ @ V.V.+ @ V.V.V.V.V.+ V.V.V.V.V.V.",
"V.V.> > > > > V.V.V.V.V.V.V.3 > > > = = > & > > > > 7 7 9 0 r u 0 3 m b A E VXj 6 8 O $ $ $ O $ & % V.V.@ @ 8 p @ - - @ - @ V.V.- V.V.V.V.V.V.V.V.V.V.V.V.V.",
"V.V.3 3 > > 3 > > > > > > > > ; > = > > 3 > 3 > 0 3 9 r r r t l l b K K ~.! !.v KXVXjXKX$ $ @ 6 , V.V.V.V.V.# 8 8 # 8 8 8 p $ 8 + V.V.V.V.+ V.V.- V.V.V.V.V.",
"V.V.i > > 3 > > > > > > V.V.V.7 > > 3 > > > > 3 0 > 0 r u l l b b M L L [ ! Q.!.N KXKXN.$ $ 9 9 & ; 8 @ 8 8 8 p c 8 # 8 8 8 @ V.V.V.V.V.V.V.V.V.+ V.V.V.V.V.",
"V.3 > > 3 3 > 3 V.V.V.V.V.V.V.V.V.V.3 > 3 > 3 3 0 0 r t l l m C S P MX` { +.!.J PXPXPXPXiXa y # 1 ; 6 6 j 8 j j T x j # @ 8 @ @ % % V.V.V.+ V.V.V.V.V.V.V.V.",
"7 > > 3 i > > V.V.V.> > > > 7 > > > 7 3 9 3 0 u r t u b l V.V.C P S ! Q ../.J !.PXPXPXPX< B.# # 2 4 6 # 8 j zXzXT zXc j 8 @ @ @ % + V.V.V.V.V.V.V.V.V.V.V.V.",
"> > > > > > V.V.V.V.V.V.V.V.> 7 0 7 9 0 r r t b b d C M C A L K ! ! #.+.).).) ) PXPXPXPXjX3 y e 4 9 z j zXj zXT Y P Q.j # 8 p - - V.V.V.V.V.V.V.V.V.V.V.V.V.",
"V.u > > 3 > > 3 > > 0 > > > > 0 9 0 0 r t t l t W.W.C D A F E L ! !  .%.9.9.] U sXPXPXPX4 2 d e 0 0 c w x zXT Y ) U J j w # - - V.V.V.V.% V.V.V.V.V.V.V.V.V.",
"V.V.V.V.V.V.V.V.V.7 > > > 0 0 7 r 7 u u l l b m Z Z K P Y Q ' [ /./.9.9.4.0./.` ` U K Q.t e r r 3 3 r 9 J !.) ` #X4.' ' # # - * - - - - V.V.V.V.V.V.V.V.V.V.",
"V.V.V.V.0 ; > > 3 > > 7 3 > 7 0 r u u u l W.C D Z A I I L ~.^.[ | ).8.9.0. X^...U ` L K M b t l 5 5 r w x !.) ) 2.#X_ ' j # & - - - - - V.V.V.V.V.V.V.V.V.V.",
"V.0 > 3 > 3 0 > 7 > > 7 V.V.V.i 0 u t u C B F F L L ~.) ] ^.| | X.`.XX*X8.8.' (.+.` Y U C M b l u q t w j V.V.~.].].Q Q j j 6 6 - - V.V.V.V.V.V.V.V.% V.V.+ ",
"> > > > ; > > ; > 3 > 3 0 3 0 u u u d W.W.C F F L Y ] ] [ (.| X.X.`.*X&X*XXX(.(././.E Q F A M b u u l e v x P U ].9.Q !.j # - 8 ; ; V.V.V.V.V.V.V.% p V.V.V.",
"6 ; > ; 7 > > 6 > > 0 V.V.V.u u q q g W.A F ~.~.) ] } } X.).:.=.:.&.&X&Xa.*X).(.} /.] W L L C b M b l e k n m C ~ Q Q.v 6 # 8 - p - - V.V.V.V.V.V.% p p - + ",
"> > 7 7 > 6 7 > 3 > 7 7 0 3 0 u u g b W.S I W ~.] ..X.).*.*.;.:.2.&.*Xa.*X*X).9.| (.[ _ E R A D W.M b b k k n M J.S v v 8 w 8 - - @ V.V.V.V.% V.V.V.V.V.+ % ",
"7 > 7 > 0 > > 0 i > 7 3 0 r u l b b F F U ~./.| } ).1.*.'.1.-.2.2.-.&X&X*X$X=.*.*.*.(./.~.~.R K A A D m b k e b M b # e 6 6 ; - + - * V.V.V.% + + + + % + % ",
"7 0 > 0 > 7 7 > 7 > 0 7 3 u l l W.W.F I Q ~.| (.} ).'.O.,.1.<.<.-.;.a.a.8.2.*.1.:.*.(.(._ ~.E I F A C V b k e k e b # k ; @ - - V.V.V.V.V.V.- % % % + + $ V.",
"V.V.> 0 > > 0 0 3 7 0 3 0 r l l B C R ~._ ^.`.&.O.O.,.,.,.,.<.2.-.<.%X4.2.;.*.<.,.,.,.*.+.#.! _ Y P Z Z z l u r 8 9 8 : ; - - - & % V.V.V.V.% V.V.p + % % 4X",
"> 3 > > 7 > > > > 0 0 0 r r l W.V D Y ~.' (.:.:.,.1.DX'.<.<.#X2.<.4.%X4.2.;.o.<.,.,.,.o. . .' _ Y L Z Z W.l c r 8 w 8 : ; @ % % % % % V.V.V.V.V.V.V.% % % % ",
"> > > 0 > 3 > > > 7 3 0 r u l D A I Q W (.| ;.;.DX#XDXDXDX2.5.<.5.4.q.q.4.$X<.<.DX,.DX,.,.*. . .Q U L T D x l r c 8 8 8 & ; - % - - % % % % * V.V.V.V.V.+ p ",
"7 3 > > > 7 3 > 0 3 0 0 u l W.W.K L ~.[ | #.;.;.'.DX#X#X#X#X4.4.3.-.4.4.2.0.<.,.,.DX,.,.*.o. . .] Q Y T D D W.c w w 6 8 ; ; % ; = = V.V.V.V.V.V.V.% V.V.V.V.",
"> 3 3 > 7 > > 0 > 0 0 u t t V D U W (.(.o.:.;.1.<.DX#X#Xp.$X4.%X4.q.%X.X0.0.<.#XDXDXDXDX,.,.=.+.^.^.` U Z T W.l z z 9 9 ; & ; ; ; % V.V.V.V.- * % % - - % - ",
"7 > > > > 3 3 > > 3 3 r l u W.V Y ] (.(.=.:.<.1.#X#Xp.$Xp.$Xq.%X%X=X;XOX%X0.<.<.DXDXDXDX,.,.o.o././._ ` I J m c k l r 9 9 - ; - % % % V.V.V.V.V.* - - % - - ",
"> 7 > 7 7 3 > > 0 3 r r l l V Z ` ..o.).*.=.<.2.2.$X0.$X|. X.X%Xr.r.>XOX&Xg.$Xp.DXxXDXDX<.,.,.*.o.} { { Y U Z V m n l w 6 6 - - % + + - * V.V.V.V.V.V.- V.V.",
"9 > > 3 > > 0 3 3 0 u u W.W.D F { ..O.).;.1.2.2.p.$X$X$X%XOX%X-XZX;Xh.:Xd.&X&X$XDXDXxXDX<.<.,.,.o.X.} ^.~.U D Z m m t w 6 ; ; - - % - % V.V.V.V.V.V.V.% V.V.",
"V.7 > > > > > 3 i 3 u t l V K I ....).:.=.2.2.2.0.$Xq.a.s.a.w.h.H.<Xh.@XZXZXZ.Z.0.4.3.>.;.-.=.=.O.,.O.O.` ` K J M b e e 9 ; ; - - % % % % % % % % $ % % % $ ",
"> > > > > > 3 3 3 u t u m W.K Y ..} *.O.;.;.<.p.$X$X%Xs.d.d.h.h.0X1X@Xh.=XL.Z.r..X X3.0.2.2.=.=.DXO.O.o._ ` P K M M k e 6 ; ; ; & - - % % % % % % X % % % % ",
"3 > > 3 i 3 > 3 3 V.V.b V D Y Y /.(.*.:.<.<.2.p.q.OX+X+Xe.e.j.j.j.j.e.nX>X>Xt.>X-X.X3.|.4.4.2.>.,.*.o.o./._ U U Z Q.k e 9 6 @ - = - % % * * X X % % % % % % ",
"> 7 > 3 3 i 3 3 0 u t t V D Y Y (.).*.*.-.2.4.p.s.s.+X+Xe.u.j.1X1X1Xe.f.h.>Xg.>X;X%X0. X4.0.2.-.*.*.o.,.' ^.L P Z C b k 9 1 ; ; % % % % X % % $ % p % % X % ",
"3 > 3 > 7 3 3 3 r u l l D Z W ] ..).:.'.=.<.2.$Xa.d.e.K.u.1Xz.z.U.U.1XI.e.XXf.+Xs.s.a.a.0.4.2.2.*.o.&.X././.) ) T T x j w 9 - = - & * % $ X % X % % % % % % ",
"> 7 > V.V.V.3 0 0 0 l W.D T ) ] ..(.:.`.<.;.2.$X Xa.f.e.l.1Xv.D.b.b.U.1Xe.XXa.d.d.d.s.d.4. X2.0.=.&.o.o.(./.` ) U !.x x r 9 & & & - * - % % X % % % X % % % ",
"> 3 > 3 7 3 3 0 r r l W.K Z ` ..(.(.*.:.<.<.2.#X*X$Xf.a.1XI.D.b.D.D.D.U.h.+Xd.+X:Xd.s.&X$X$X4.2.&.=.&.&.).| ..^.) !.Q.J w z 0 ; % & % % * * V.V.V.X % % p % ",
"7 > 7 > > > 3 > r u V l I J ` /.(.(.=.:.;.<.<.2.#X$Xf.f.I.j.b.b.2X2X2Xb.h.e.-Xd.;X;X%Xs.$X%X2.2.=.&.*.&.).(...^.) ) Q.J l l 9 3 - = = - * - - * X % % % % % ",
"> : : i : i > i r t W.m I K ^...[ $.&.`.=.-.;.<.#X#X$X&Xf.f.j.1XqX2X1XI.@XoX>X;Xg.g.d.&X$Xp.4.3.=.:.:.>.>.:.#. .` U Q.J j l 8 w 6 6 ; V.V.V.V.V.* % % % % % ",
": i : i i : 3 3 r r W.l I I ..} @.$.>.;.2.<.-.<.,.<.2.0.a.e.j.1XY.D.1Xu.@Xe.-X-Xs.&X&X&X%X4.>.-.;.>.>.2.>.;.$.(.` ` !.P j x 8 # 6 6 6 V.V.V.V.V.% % % % % % ",
"i : : : i > r 0 r t C m Y E (.(.].6.0.8.p.0.0.p.#X<.<.4.8.8.f.f.l.l.y.u.r.ZXg.=Xg.;X%Xp.<.2.>.4.0.$X$X X X0.8.8.:.$.Q ' Q.K x x w # 6 6 ; V.V.- % % % % p % ",
": i : i > i 7 u t t F m Y I :.M.].K. Xa.$X&X%X$X#X<.-.<.a.0.f.&Xl.u.y.u.>XZXL.:Xg.g.$X4.3.2.4.0. Xa.0.0.0.0.[.8._.$.U Q Q.Q.j j 8 9 9 @ - ; - @ % % % % % % ",
"O i * i > 3 r r l l K Q.] ..:.9.].XX X XXX X.Xq..X%Xq.q. X Xd.d.i.rXu.l.ZXZXkXg.5..Xw..Xa.a.a.a.w.XX X0.[.|.|.|.|.[.@._.` _ P U e 9 9 6 6 @ - @ O % X * X % ",
"i i = i > i r u l l A C ) ..:.9.XXK. X X.Xw.|..Xq.q.q.%X X0.d.f.rXrXI.j.>Xh.g.g..X%Xs.s.s.s.%Xa.w.w.|.|.0.[.|.|.[.[.@.@.Q Q !.!.e # 9 ; 6 @ ; - % % O % % % ",
"i * > < i > 0 r l z Z Z /.).O.8.XX8..XXXoX{.{.{.{.{.{.{.@X@Xj.0Xn.qX3X3Xj.j.&Xf.OXs.d.d.d.s.q.q.oXoX|.[.[.[.[.[.[.XX].[.[ $.` U k e # 9 @ 9 - - * % % % % % ",
"i = > > 3 > 0 r l l Z F ).).9.XXXXXX|.XXq.oXr.+X}.{.t.t.q.+Xj.0XY.c.3X2XH.j.g.&XOXs.-Xd.s.w.q.q.oXoX|.XX|.|.[.K.[.[.].K.$.(.` ` k y 3 9 6 @ - - % % % % % * ",
"O = i = > 3 3 u e b C Q./.(.*X*X8.8. Xa..Xs.=XL.hXhXg.kX1X1XA.P.T.dX3XV.V.yXx.tXK.e.+Xy.w.s.%X=X%X%X$X0.7.[.7.7.7.6.].7.$.`.{ { k e # 9 ; @ - @ % % % % % % ",
"= > = < = V.V.0 n m C C /.).*X*XXXXXa. Xq.=XL.L.hXhXxXkXU.z.A.P.dXT.3XV.V.x.x.fXj.h.+X+X+Xd.9X=X%X%X%X0.[.{.C.[.eX7.].7.`.).} { e k 9 # 6 6 - @ % - % V.V.V.",
"V.< = FX> 3 0 0 b n Q.C ..(.*X8.[.].K.K.V.V.V.ZXhXhXkXk.Y.v.n.n.dXP.n.8XS.x.A.x.tXtX.Xd.s.@X5.r.q.q.q.[.7.C.7.7.{.[.[.>.,.O.o.o.k # 9 # @ @ - 6 - + % % - % ",
"= = = i < 3 q q n b S A ^.(.2.2.].[.7.[.{.r.t.ZXhX,X,X,XqXqXn.n.dXdX8XT.A.A.T.T.I.tX|.%XOX-Xr.r..X.Xq.{.7.7.C.7.{.7.>.].*.o.O.o.e e 9 6 6 6 @ V.V.% % % + - ",
"= = = 3 3 3 r 0 n m Q.A ] [ @.>.].].K.[.sXr.r.t.,X,X<X0Xv.v.uXuXn.n.V.V.V.V.V.x.S.D.0X0Xr.ZXi.<X>Xr.}.{.{.7.3.[.[.[.].>.*.*.+.o.e # w 9 # @ - - - % + - % % ",
"= = > < 3 > 9 9 k n Q.Q.~.] @.$._.V.V.K.{.{.r.r.,X,X0X0Xv.qXuXuX3Xn.n.dXS.V.V.V.F.F.0X0XZXZXi.<XZXt.}.{.{.[.[.[.3.3.>.>.*.O.{ +.k e # 9 8 8 @ - - + % + % + ",
"= O = > > > 3 3 e l n b P L  .#.(.:.8.0.q.|.q.q.t.t.u.j.c.A.yXV.V.A.P.A.S.F.b.S.b.b.0X0X,X,Xi.<Xj.ZXt.{.{.{.3.[.>.0.>._.o.} ) !.k w 6 6 @ 8 V.V.V.+ - - % - ",
"= i = > > 3 3 3 e l n b !.P ' /./. .].>..X.X[.5.7.{.u.z.dXA.yXfXP.BXA.A.F.F.S.U.H.U.0X0X,X,Xi.i.ZXZX@X+X{.[.[.>.3.>.#.$.).o.!.!.j w 9 # 6 @ - - % % % + % p ",
"* i O i O i > i 9 r r l b m J P [ ..(.[ $.#.3.3.[.V.V.7.NXu.v.v.D.v.S.D.F.F.H.b.z.<Xj.j.,XZXi.sX@X{.{.}.XX[.].9.[ [ ' ! U !.Q.x 8 6 6 6 - - p - % + % - % % ",
"* $ * $ $ * = : 9 w w l k l Q.P (.^.@.$._.%.C.-.K.oXnX}.j.V.V.qXv.v.F.b.F.F.H.b.<Xj.:Xh.L.>Xi.i.@Xq.[.K.[.6.$.$.[ [ ! Q J v j x 6 # - - - - % - % - + p + % ",
"* $ i O i * * V.V.V.9 9 r l Q.C N B S C R MX@.lX=Xq.V.V.V.L.i.,Xj.H.v.3X2X2Xv.H.<Xi.r.r.r.{.{.sX6.@.6.6.6.[ ~._ T K C C b k j 8 6 6 ; ; - - - - $ p % % % % ",
"O i $ * * * * i 9 7 9 r w l n Q.B N E A ! MX@.%.=X=XL.L.k.,X,X,Xz.z.v.2X2Xv.H.1XV.V.r.{.t.r.sX7.@.@.@.@.! Q Q Q J Z n n k k 9 8 6 6 @ - + - + p + % - + % % ",
"$ * * $ * : = : 6 9 9 0 w r m n a 5 G.G.eXeXeX( %.%.C.C.Z.t.,X,X@Xu.u.i.h.e.nXnX}.7.7.C.%.lXeXeX~ _ L L R R Q.Q.n m l w r 9 > ; ; - - - % % + + % $ % + % + ",
"i O * i * i i O > > 6 0 9 r m n jX, G.G.m.eX( 6.%.6.3.3.r.t.sX,Xy.i.u.i.f.y.nXrX7.7._.C.C.V.V.~ Q Q Q.K S v v n j j c w 9 6 6 ; - - - - $ % % $ % % % % % - ",
"* i * i * $ = * 6 6 9 6 9 0 q y q , G.7Xm.m.SXG.( G.G.( eXeXeXcXeX6.C.lXlXlXJ.H R J.MX! E MXF D M b e M M y r y 0 9 7 6 > ; - * % % - % p - % % % + % % % + ",
"* $ * O : : : > 6 > ; 9 7 9 y q u W.SXG.cX( 7XG.SX( m.m.( ( lXJ.rX7.C.C.lXJXcXH J.MXMX! R MXD z M b d M d f y y 9 9 7 6 ; ; * * $ + $ % % % % $ % + % V.V.V.",
"V.V.V.V.V.V.V.V.V.V.V.V.V.> 3 , wX7X^ ^ V.V.V.V.V.G.V.V.V.V.E ( ( / m.G G H G F F F B M W.W.d VXb d aXf 2 y 0 3 1 ; 6 ; - > & % % % - % % V.V.V.V.V.V.V.% V.",
"V.V.V.V.V.V.V.V.V.V.V.V.V.V.1 & wXG.V.V.V.V.V.V.V.V.V.m.V.V.V.V.( G G G S S N F B F V.V.g M N f d f h a 2 y 3 9 ; 1 ; ; - - % % % % * * % % % % - V.V.V.V.V.",
"V.V.V.V.V.V.V.V.V.V.V.V.V.V.= % V.V.V.V.V.V.V.V.V.V.V.V.V.V.V.V.B B g f h d f h f f y y y aXaXy V.V.R.V.V.jX, @ , ; & ; V.V.V.% % % V.V.V.V.V.V.V.V.V.V.V.V.",
"V.V.V.V.V.V.V.V.V.V.V.V.V.V.V.V.V.V.V.V.V.V.V.V.V.V.V.V.V.V.V.V.B B N N B W.M M f f d y y e VXf R.B B R.g q , aX& & @ ; > * - % % % V.V.V.V.V.V.V.V.V.V.V.V.",
"V.V.V.V.V.V.V.V.V.V.V.V.V.V.V.V.V.V.V.V.V.V.V.V.V.V.V.V.V.V.V.V.4 y 2 1 2 3 y 2 aXy 2 a q a a g KXa a s g g 5 B.@ o & & & % % V.V.V.V.V.V.V.V.V.% % % % % % ",
"V.V.V.V.V.V.V.V.V.V.V.V.V.V.V.V.V.V.V.V.V.V.V.V.V.V.V.V.V.V.V.a f f g q s f d y 2 jXaXjXV.V.V.h s N.a B.g g s 5 . o @ ; ; % - % % % % % % % % * V.V.V.V.V.V.",
"V.V.V.V.V.V.V.V.V.V.V.V.V.V.V.= V.V.V.V.V.V.V.V.V.V.V.V.V.V.2 2 < < < , & , < B.4 V.V.V.V.s R.R.s s s s 5 s 5 g . . % aX- - - V.V.V.V.V.V.V.- % % - V.V.V.V.",
"V.V.V.V.V.V.V.V.V.V.V.V.V.V.V.V.V.V.V.V.V.V.V.V.V.V.V.V.V.V.jX1 2 < & , & 1 < jXB.4 4 4 V.V.V.h R.R.R.s FX5 5 E.. . % ; - % + % V.V.V.V.V.V.V.V.V.* V.V.V.V.",
"V.V.V.V.V.V.V.V.V.V.V.> > > = % V.V.V.V.V.V.V.V.V.V.V.V.V.V.V.V.= < = & O V.V.3 V.V., B.B.a g g N.N.a s E.E.5 V.V.V.o & % O V.V.V.V.V.V.V.V.V.V.V.V.V.V.V.V.",
"V.V.V.V.V.V.V.V.V.V.V.V.V.> % 4XV.V.V.V.V.V.V.V.V.V.V.V.V.V.V.V.V.V.V.V.V.X , , < , , B.B.a s s iXa s s s s < FXo o & & % % X % V.V.V.V.V.V.V.V.V.% % V.V.V.",
"V.V.V.V.V.V.V.V.V.V.V.V.V.V.V.V.V.V.V.V.V.V.V.V.V.V.V.V.V.V.V.V.V.V.X V.V.V.& & = & o , N.B.a s s s s V.V.V.V.o . . % & % X % X V.V.V.V.V.V.V.V.X V.V.V.V.V.",
"V.V.V.V.V.V.V.V.V.V.V.V.V.V.V.V.V.V.V.V.V.V.V.V.V.V.V.V.V.V.V.V.X 4X4XV.V.V.V.% X % o V.V.N.B.4 s R.s s 5 B.N.o . . % V.V.X % % % % % % % % % % % % % % % % ",
"V.V.V.V.V.V.V.V.V.V.V.> V.V.V.  V.V.V.V.V.V.V.V.V.V.V.V.V.V.V.V.V.V.pXV.V.V.V.V.V.+ % . . & aX1 FXs g 5 3 o . V.V.. % & X V.V.V.V.V.V.V.V.V.V.V.V.V.V.V.% V.",
"V.V.V.V.V.V.V.V.V.V.V.V.V.V.V.+ V.V.V.V.V.V.V.V.V.V.V.V.V.V.V.V.V.V.V.V.V.V.+ 4X  +   4X  . . , B.B.B.jX, o % . pX4X% % % O X % % % % % % % % % % p p V.V.V.",
"V.V.V.V.V.V.V.V.V.> > V.V.V.V.= V.V.V.V.V.V.V.V.X V.V.V.V.4X4X% * * V.V.V.V.V.V.V.+ + 4X      % O V.V.% %   V.V.X V.V.X % % X X V.V.V.V.V.V.V.V.V.V.% % % V.",
"V.V.V.V.V.V.V.: > > > > > V.V.V.V.  X % V.V.V.4XV.V.    % + % * * > V.V.V.V.V.% + + + 4XpX  + -   X   .   .   4XpXX X % X % % V.V.V.V.V.V.V.V.V.V.V.V.X % p ",
"V.V.V.V.V.V.V.V.V.V.V.V.V.V.V.V.V.* - % + 4XV.V.V.* % % % % % V.V.* = = - - % V.V.& V.V.V.V.4XV.V.V.V.V.V.V.V.V.V.  V.V.V.V.V.V.V.V.V.V.V.V.V.V.V.V.V.V.V.V.",
"V.V.V.V.V.V.V.V.V.V.V.V.V.V.V.V.> * - = V.V.V.% - % = = - % % % % - * - - - - V.V.V.X V.V.V.V.V.V.V.V.V.V.V.V.V.V.V.V.V.V.V.V.V.V.V.V.V.V.V.V.V.% V.V.V.V.% ",
"V.V.V.V.V.V.V.V.V.V.V.V.V.V.V.V.V.V.V.V.V.V.V.V.V.V.V.V.V.V.V.V.= - * * = = - - V.V.- 4X% V.V.V.V.V.V.V.V.V.V.V.V.V.V.V.V.V.V.V.V.V.V.V.V.V.V.V.V.V.V.V.V.V.",
"V.V.V.V.V.V.V.V.V.V.V.V.V.V.V.V.V.V.V.V.V.V.V.V.V.V.V.V.V.V.V.V.- = - - * - = * V.V.* % p 4X% X V.V.V.V.V.V.V.V.V.V.V.V.V.V.V.V.* V.V.V.V.V.V.V.- V.V.V.V.V.",
"V.V.V.V.V.V.V.V.V.V.V.V.V.V.V.V.V.V.V.V.V.V.V.V.V.V.V.V.V.V.V.V.V.- = = - = = - V.V.V.* - % % % V.V.V.V.V.V.V.V.V.V.V.V.V.V.V.- - % % % % % % % % V.V.V.V.V.",
"V.V.V.V.V.V.V.V.V.V.V.V.V.V.V.V.V.V.V.V.V.V.V.V.V.V.V.V.V.V.V.> - = * - * - * * V.V.V.V.% % % % V.V.V.V.V.V.V.V.V.V.V.V.V.V.V.= % V.V.V.V.V.V.V.V.V.V.V.* * "
};
