/* XPM */
static char *_a20353eb8434bd2f1c2a8740e7404e78vAgghH6n4FzEMlb_37[] = {
/* columns rows colors chars-per-pixel */
"78 86 256 2 ",
"   c #221D1D",
".  c #271D1A",
"X  c #24221D",
"o  c #2B231D",
"O  c #2A291D",
"+  c #231E21",
"@  c #291D28",
"#  c #321B36",
"$  c #1B2C29",
"%  c #252425",
"&  c #2A2524",
"*  c #252926",
"=  c #2A2925",
"-  c #262529",
";  c #2A262B",
":  c #26292A",
">  c #2B2A2B",
",  c #332523",
"<  c #342A24",
"1  c #33252C",
"2  c #3B242C",
"3  c #322A2D",
"4  c #3B2B2B",
"5  c #3B312A",
"6  c #2C2532",
"7  c #2D2A32",
"8  c #2B2638",
"9  c #322634",
"0  c #332A34",
"q  c #3B2B34",
"w  c #34253B",
"e  c #3A253C",
"r  c #352B3A",
"t  c #3A2B3C",
"y  c #3C2433",
"u  c #383138",
"i  c #283332",
"p  c #1D1F20",
"a  c #432B2A",
"s  c #46352B",
"d  c #442A3B",
"f  c #462837",
"g  c #493735",
"h  c #522E37",
"j  c #381C4A",
"k  c #3B2543",
"l  c #3C2B43",
"z  c #392747",
"x  c #3C2653",
"c  c #342E47",
"v  c #4A1C52",
"b  c #432B44",
"n  c #43254C",
"m  c #432B4B",
"M  c #492947",
"N  c #542A48",
"B  c #573748",
"V  c #452B53",
"C  c #4B2C54",
"Z  c #4C2B5B",
"A  c #532C5C",
"S  c #552857",
"D  c #4A3256",
"F  c #573358",
"G  c #653857",
"H  c #692E54",
"J  c #4B2865",
"K  c #542B63",
"L  c #5B2C6C",
"P  c #572768",
"I  c #583367",
"U  c #5A2976",
"Y  c #5B3375",
"T  c #4C306C",
"R  c #652969",
"E  c #663569",
"W  c #632C7C",
"Q  c #662A78",
"!  c #752A79",
"~  c #763679",
"^  c #6A5446",
"/  c #694657",
"(  c #764A6B",
")  c #5B2C85",
"_  c #6B2C84",
"`  c #662886",
"'  c #752B8A",
"]  c #6A3387",
"[  c #763489",
"{  c #6C2A94",
"}  c #742C9B",
"|  c #7B2C9C",
" . c #792897",
".. c #6B3395",
"X. c #7C2CA3",
"o. c #7929A7",
"O. c #772CB0",
"+. c #6D1D92",
"@. c #863789",
"#. c #842B9A",
"$. c #863599",
"%. c #8F2D8C",
"&. c #832CA4",
"*. c #832CAB",
"=. c #892BA9",
"-. c #952AA9",
";. c #8C33AB",
":. c #8836A8",
">. c #9638AA",
",. c #882CB5",
"<. c #952DB7",
"1. c #8C32B3",
"2. c #9737B7",
"3. c #A639A8",
"4. c #A53AB9",
"5. c #B12FB3",
"6. c #924892",
"7. c #AA4E99",
"8. c #9B44B6",
"9. c #8D49AB",
"0. c #A646B7",
"q. c #B74BB7",
"w. c #B453BC",
"e. c #B965B8",
"r. c #C64BB8",
"t. c #CF53B4",
"y. c #C665B9",
"u. c #CD6FB4",
"i. c #DA5BB3",
"p. c #A539C5",
"a. c #B453C3",
"s. c #BC54C4",
"d. c #BB57C8",
"f. c #BB67C5",
"g. c #C857D4",
"h. c #C865C6",
"j. c #D370CD",
"k. c #ED4FE8",
"l. c #CD8BB8",
"z. c #E991D2",
"x. c #D2AFCF",
"c. c #E5B8C9",
"v. c #F9A8E7",
"b. c #EEB0EC",
"n. c #EBCBD4",
"m. c #774A57",
"M. c #774590",
"N. c #35281D",
"B. c #3B2C24",
"V. c #74554A",
"C. c #A83595",
"Z. c None",
"A. c #D8B9C9",
"S. c #D9B9D5",
"D. c #E7A9D8",
"F. c #E6B7D7",
"G. c #785655",
"H. c #F392EC",
"J. c #753469",
"K. c #AA54A9",
"L. c #D44ED2",
"P. c #D1B6B7",
"I. c #C987C7",
"U. c #DAA3E3",
"Y. c #F8B6D8",
"T. c #D4C4CF",
"R. c #533B39",
"E. c #514334",
"W. c #473248",
"Q. c #472557",
"!. c #521C6A",
"~. c #673378",
"^. c #6C2B8B",
"/. c #732C94",
"(. c #783397",
"). c #7B33A5",
"_. c #963899",
"`. c #8332A4",
"'. c #8934B7",
"]. c #9945A8",
"[. c #A749AA",
"{. c #B54BAA",
"}. c #B656AA",
"|. c #AC4CB4",
" X c #AC4CBB",
".X c #B34DBC",
"XX c #AC53B7",
"oX c #B453B4",
"OX c #BB53BC",
"+X c #B958B7",
"@X c #C557BA",
"#X c #9935C4",
"$X c #AA46C4",
"%X c #B74AC6",
"&X c #B350CD",
"*X c #9C45C4",
"=X c #C64BC7",
"-X c #C354C4",
";X c #C355CB",
":X c #C45ACB",
">X c #C859C7",
",X c #E94FD2",
"<X c #E96ED3",
"1X c #D48ECF",
"2X c #FAB7E6",
"3X c #F6CDE9",
"4X c #1D1C1C",
"5X c #5B4546",
"6X c #684A46",
"7X c #5F4F64",
"8X c #ECDBE0",
"9X c #B234CA",
"0X c #F471EB",
"qX c #F3ACD1",
"wX c #6F4F50",
"eX c #884C72",
"rX c #B16899",
"tX c #B98DC9",
"yX c #BAC5B2",
"uX c #DFC4B5",
"iX c #68431E",
"pX c #1A1817",
"aX c #381C29",
"sX c #CE28AC",
"dX c #D8C3C8",
"fX c #BAB0A7",
"gX c #D1C5B7",
"hX c #E839DD",
"jX c #3A2425",
"kX c #D657E4",
"lX c #8A3275",
"zX c #2F2B5C",
"xX c #B425CF",
"cX c #835558",
"vX c #594739",
"bX c #69503A",
"nX c #B46BAC",
"mX c #64493A",
"MX c #6B1B64",
"NX c #B88AB4",
"BX c #E3AAB7",
"VX c #4D1732",
"CX c #9B1998",
"ZX c #D658C7",
"AX c #534652",
"SX c #8E626C",
"DX c #922EC4",
"FX c #342F19",
"GX c #513398",
"HX c #37444E",
"JX c #971A60",
"KX c #611828",
"LX c #341419",
"PX c #B91242",
"IX c #170617",
"UX c black",
/* pixels */
"> > : > : : > : : : - : > : : > > > = - > = - > - = - - - ; ; ; @ 8 # # # # 8 6 $ $ @ ; - @ $ $ $ p - - % % % X % % Z.Z.% % p % p % Z.Z.Z.Z.Z.Z.Z.Z.Z.% + + ",
": : : : > : : > > : * > : * - * = - - > - * = - > * - - - - ; ; $ i # # n # 8 - - $ @ @ - - $ $ $ p % % % % p % % p Z.Z.% % % X % Z.Z.Z.Z.Z.Z.Z.Z.Z.Z.p p % ",
": > > : : > : > : Z.Z.: > : : > * > > > = * = * = - - @ - Z.Z.Z.8 # j v Z C c 8 ; : @ # 1 1 $ $ - - Z.Z.Z.Z.p % % p % p % p % p % % Z.Z.Z.Z.Z.Z.Z.Z.Z.Z.Z.Z.",
"Z.: : > : > : : : * : * * : : * > > = > = = = = * - ; ; - Z.Z.Z.Z.8 k n A F 8 8 : > 2 aX; @ $ $ - - * Z.Z.Z.Z.% X % % % X % % % Z.Z.Z.Z.Z.Z.Z.Z.Z.Z.Z.Z.Z.Z.",
"* > > : : > : Z.Z.: : : - * > - Z.Z.- & * = = = - > - - ; 6 6 6 j k P P ~.~.z j 2 3 aXVXaXaX- - - % % % % X p % % % $ % % % % % Z.Z.Z.Z.Z.Z.Z.Z.Z.Z.Z.% p + ",
": : : > > : : > > - : Z.Z.Z.- > = > > > = > = = - = > ; ; ; 9 6 j j R ~.~ ( x j # @ aXLXLX@ - * % - % % % % % % p % p + % p % p Z.Z.Z.Z.Z.Z.Z.Z.Z.Z.Z.Z.Z.Z.",
"Z.: > : : - > : - : ; : : - > - > > > - = > & = > > & > 7 7 6 6 j j ~.! 6.M.j j aX@ LXLXLXaX% - % % % % % % % X % % X % X % X % + % Z.Z.Z.Z.Z.Z.Z.Z.Z.Z.Z.Z.",
"Z.: > : > i : > : > > : > : > : - > > > > = = > = - ; & 6 ; 6 r n j Q ~ M.6.j j aX# LXLXLXLX% * % % X % p % p % X % % % X % p % Z.Z.Z.Z.Z.Z.Z.Z.Z.Z.Z.Z.Z.Z.",
"Z.Z.i > > > > > > > > = Z.Z.Z.Z.> 6 > ; 0 ; > ; > ; > 6 7 7 7 r w w VXN E E z # p + . LXLX@ X X % % % p % % X % % % % % % % % % + % Z.Z.Z.Z.Z.Z.Z.Z.Z.Z.Z.Z.",
"Z.< i > i > > > > > > > > > Z.Z.Z.7 7 > 7 > ; > > 3 > > 6 9 8 8 w w M M S S z j - + LX@ LXaX& % % % % % X % % % % p % p X % X % % % Z.Z.Z.Z.Z.Z.Z.Z.Z.Z.Z.Z.",
"i < > > i < Z.Z.Z.Z.Z.Z.Z.Z.Z.Z.7 ; 7 > ; 0 ; 3 3 6 6 ; 6 9 9 0 8 r # VXk k 8 c > > aXaXaXLX* > % % % % % % % % % % % % % % % X % Z.Z.Z.Z.Z.Z.Z.Z.Z.Z.Z.Z.Z.",
"Z.> > > 3 > > > > > > > > > Z.Z.6 6 3 7 0 > 3 > 9 3 0 0 7 9 9 9 r 8 VXe k k 8 zX; > a aXjXaX> i * % % % % % % % % % % % % % % % % Z.Z.Z.Z.Z.Z.Z.Z.Z.Z.Z.Z.Z.",
"Z.> > > i 3 3 > > > > > > > > > 7 7 9 7 0 0 r r q r 0 9 w e e e i i 2 y e y $ 8 8 8 VX2 y aX: > > > * * * - % % + % + % X % % $ Z.Z.Z.Z.Z.Z.Z.Z.Z.Z.Z.Z.Z.Z.",
"i 3 < i Z.Z.Z.Z.Z.> > > > > > > 7 7 0 r 0 r r u t l r e w e t t i 8 y q b b 8 8 : i y y y # 8 : > > > - > > * % % % % % % % % % - Z.Z.Z.Z.Z.Z.Z.Z.Z.Z.Z.Z.Z.",
"Z.Z.Z.Z.Z.Z.Z.Z.Z.i > > Z.Z.Z.Z.r 8 r w r l l l W.W.b e n b Q.M c i t q d d 8 i 8 i f f f f 6 6 7 7 > - - & - - - % % % % % % + - % Z.Z.Z.Z.Z.Z.Z.Z.Z.Z.Z.Z.",
"Z.Z.Z.Z.Z.Z.Z.Z.Z.Z.> Z.Z.Z.Z.Z.8 w r l l Z.Z.W.AXD W.b C M n m u i d u d l i c c 8 f M d d 9 6 7 0 > > - - * % - % % - % % % % - * Z.Z.Z.Z.Z.Z.Z.Z.Z.Z.Z.Z.",
"Z.Z.Z.Z.Z.Z.Z.Z.Z.Z.Z.Z.7 i 7 0 r r l l Q.Q.U U I I P S Q.C W.b u c b g t g k f zX!.!.U MX!.l x r w 9 3 9 ; ; @ ; ; - - - @ - - p - % % % + % 4X% % X p p % ",
"3 i 3 > 3 > > 3 Z.Z.7 7 > 3 r 8 r r l W.J T T ) L P K P Z A W.W.u l u h d t M n !.U ` ` P !.x x t e 9 9 ; ; ; ; - ; - - - $ $ @ - - % % % % % % Z.Z.% % X % ",
"3 3 > > Z.Z.> > > 7 7 7 9 0 r u l l D C T T ) { ` ) R P S F B D AXAXsXPXPXPXH H GXzX^.` Q MXQ.x b y 9 y 9 9 6 ; - : - $ - @ @ $ % + % $ % % % p % p p % % p ",
"= > > 3 & > > 3 7 > 7 7 0 8 u r l b W.W.U ) { ..` ^.L P F B D B AXc PXPXPXPXN MXzXGX/.{ ! Q J J b M t q 9 9 7 6 8 - - 8 8 $ - @ % p % % % X $ % % % X p p % ",
"> ; & & > > > & > 7 7 7 9 0 t u b M K K ) ..} o.{ } Q Q E E E E AX/ PXsXPXsXPXJXGXGX....CX+.` U A S M k y 9 6 ; 8 - - - $ @ @ $ % + % % % % % X % p p % p X ",
"1 ; > > & ; > 3 7 Z.Z.0 0 r t l m D K I ` ] O.} (.} ' ! J.E E 7XG G PXPXsXPXJX%.GXGXo... .CX` ) A S M b e w 9 6 - 8 $ 8 - $ $ @ % % % % % % p % % X % % p % ",
"> > > > > > > ; 7 7 7 9 r r l W.Z K U W } } O.O.X.*.| ' [ ~ [ lXeXlXsXJXlX%.[ @.} } *.=.*.*.o.+.L P N S b e w 9 @ 8 $ - - - @ $ % % % % % % p % % % p p % X ",
"7 3 7 3 0 > 7 3 7 7 0 0 r Z.Z.c Z I W W } } O.O.*.:.#.#.[ @.~ ~ ( eXeXlX%.lX@.(.(.} =.*.,.,.+.+.R L A M b b w w 6 : - - 8 $ @ p p % % p % % % % p % % X % Z.",
"Z.0 > 7 0 > 7 7 7 7 r r l l m W.A F _ _ | `.'.'.*.:.&.#.@. .$.$.@.$.M.M.M.M.M.GX=.-.,.=.=.=.o.+.Q Q K K C m l w w 8 6 ; - ; - - - % % % % % % % % % X % % % ",
"7 > 7 > > 7 > 0 7 9 0 r l z V D K L ` Q | X.'.*X1.'.#.`.$.[ 6.].M.6.M.M.GXM.).M.-.,.=.=.*.=.o.o.Q Q I K C m l l w w ; ; ; - % % - % % % % % O % % p % % X p ",
"0 > 7 > 7 > 7 7 7 7 r u l c D Z ~.W  .+.| &.*X$X#X8.2.;.&.`.8.8.].].8.9.).).*X'.<.,.,.DX,.,.,.O.^._ L U Z K D l w w 6 6 Z.Z.Z.Z.Z.% % % & % % % % % % p p % ",
"> 7 > 0 > 0 > Z.Z.0 r r l c Z D ~.W (.^.&.:.$X&X$X$X2.2.:.9.*X8.8.8.].9.9.O.'.'.<.Z.Z.Z.,.O.O.,.^.^.Q Y T Z V x z w 7 6 ; - - ; * % % % % % % % % % % % % % ",
"7 > 7 > 0 > 3 7 7 0 r l l c Z D ` /.X.| >.].w.a. X X4.$X2.<.*X*X-.-.<.<.DXDXDXDXDX<.,.,.,.,.,.O.| | ^.` L P V V b e r 9 3 ; - - Z.Z.= % % % * Z.Z.Z.% % % % ",
"> 7 > 7 > 7 > 7 7 0 r u c D Z D ` ^.&.&.].8. Xa.a.$X4.p.2.2.*X*X-.CX-.2.p.xXxXDX<.DX<.,.O.,.O.O.X.| /.^.Y L Z Z b b Z.Z.Z.& ; & % % - - Z.Z.Z.* % % % % X % ",
"7 Z.Z.> 7 0 > 3 i u c l D C A I { { #.:.0.|.oX+Xa.a.$X$X2.<.2.,.<.<.'.*X#XDXDXDX<.<.<.<.<.<.=.=.O.,.} /._ ` L K C M t e 2 1 @ 1 @ - Z.Z.Z.Z.Z.Z.Z.% % * % % ",
"7 7 7 7 7 > 3 0 r r l l C D K I  ./.&.&.|.|.w.+Xa.a.$X4.2.<.;.*.,.<.O.DX*XDXxXDXxXDX<.<.<.,.1.,.,.*.} X._ _ L L C b d e 9 1 ; ; - - * % * Z.Z.Z.Z.Z.Z.Z.- * ",
"Z.Z.7 7 3 i > 0 c i m l K K W ! X.#.#.#.nX}.+X}.:X%X4.4.4.<.<.<.<.#X&X9X#Xp.DXxXDXDX#XDX;.<.2.p.&.=.| `.} X.{ ) ) !.J J j e , 1 @ 6 - - - - - - Z.Z.Z.Z.Z.Z.",
"7 i 7 7 i > 0 0 u r W.c E K ] [ &.&._.#.K.}.+X}.:Xs.4.3.<.<.2.<.DX4.p.p.xX9X#X#XDX#XDXDX-.<.2.$X;.:.X.:.} ).{ { ) ) J J z # 3 1 ; ; - - - - - p Z.Z.Z.Z.Z.Z.",
": 8 7 7 0 > r u i c D l R I [ (.,.,.-.=.[.[.s.-X;Xs.9X4.4.<.2.p.p.p.p.p.9X9XxX#XDX#X#X#X2.4.$X&X2.2.&.:.} X.} { +.) U !.Q.n e # 8 w 6 - @ - @ - % % % % % % ",
"i 7 7 7 > 0 0 r i c V m E L [ (.=.,.-.=.|.[.s.-X;Xs.%X%Xp.4.4.p.9X#Xp.9X&X&X9XxX#X#X#X#X0.%X&X&X0.8.:.;.X.o.} } { ) U U Q.v d n 9 8 6 @ - - - - Z.Z.Z.Z.Z.Z.",
": : 8 7 i 0 0 5 c i D c ~.R | #.,.,.,.<..X Xs.s.=X=Xg.;X%X4.4.5.4.#Xp.9X9X&XDXxX2.2.4.<.5.4.%X%X$X X2.2.| #. .o.}  .{ ` U !.!.Q.e w 6 6 6 @ - @ - % % % % % ",
"8 7 i Z.Z.7 q u u c D D ~.E (.#.,.,.<.<.s.s.%Xs.%X;XL.g.=X%Xq.4.p.p.&X&Xg.9X9Xp.p.#Xp.4.q.q.%X%Xa.&Xp.8.`.:. .o.}  .{ +.Q U J !.e e 9 6 6 - - - * Z.Z.Z.Z.Z.",
": 6 7 : 0 > 0 u c c D D [ W &.&.*.;.2.2.w.oXOXs.=X=X=Xg.>X=X%X0.4.%Xg.g.g.g.9X%X%X9X4.p.OXr.%X@Xa.a.0.0.;.>. . . .o. .o.` +.U !.k w 6 8 @ 6 - - - Z.Z.Z.Z.Z.",
"Z.i 7 8 3 i 0 u u c D Z ] _ *.&.*.,.0.4.oXoX-X:X>X;XL.g.;X;Xs.$X%X%Xg.&XkXkX&X9X5.p.%X%X-X-X=X.Xa.s.$Xa.>.>.#. .+. . . .` +.Q ` l w 8 # 8 - - @ - % % % % % ",
": > > i = i 5 u l l F D [ [ ;.*.#.|  X XoX}.s.OX-X>XL.;XkX&Xg.g.=X-Xg.g.kXg.g.L.#X$Xs.>X-X+XOXoXs.a. X X8.0.8.8.+.*.o.X.{ { ` !.l k 9 9 6 6 - ; Z.Z.Z.Z.Z.Z.",
"> > = = < > r u l l D F [ [ *.&.$.#.XX|.oXoX-Xq.%Xr.=X%XkXg.kXkX>X>Xg.g.=Xg.g.g.9X%X.X;Xd.d.s.q.w.s.XX X[.[.0.0.=.*. .X./. .+.+.k k w 9 6 @ - - * % % % % % ",
"> > i i > > 0 u l l I Z [ (.*.*.).#.a. XoX+X@X-X>X>Xg.;Xg.f.g.d.>Xh.g.g.L.g.>Xg.h.g.OXh.j.j.f.nXw.oXXX|.|.[.[.>.=.&. .&.{ } !.+.e w w 8 6 6 - - - - Z.Z.Z.Z.",
"Z.> > > 3 > r q l l D Z ] ' =.*.`.X.XX8.+XoX@X@X-X@X%X%Xg.d.d.g.h.h.g.g.kXg.L.L.d.:Xe.d.1XtXXX9.oXXXXXXX[.[.].].2.=.| #.+. .!.+.k k w w 6 @ Z.Z.- % % % % % ",
"i < > > > < u u r c D Z ` )  .&.O.,.0.2.+XoXr.@X@X+Xe.h.1XI.tXnX@Xy.>X-Xg.>X@Xr.e.f.I.I.U.U.tXtXK.K.{.K.[.K.[.[.8.8.#.#.' ' Q ` k z 6 8 - 6 ; - % Z.Z.Z.Z.Z.",
"= i > > Z.Z.0 0 c r D D ` ` X.*.*.O.8.-.+X+X}.@X@X{.+X+X1XtXf.nXj.y.:X>XL.g.ZX=Xe.f.I.1Xx.U.tXtX}.K.oX[.[.K.[.].|.[. . ._ ' Q U k w 6 9 6 6 - Z.Z.Z.Z.Z.Z.Z.",
"= i > > Z.Z.Z.0 c 8 V x ` U +.&.O.O.:.&.+X+X{.q.}.+Xj.j.b.b.b.S.<Xj.h.>X>X>XZXZXtX1XU.U.U.S.tXtXK.{.K.K.[.[.].[.8.8.#.' Q ' MX!.k # 6 6 @ 8 ; @ Z.Z.Z.Z.Z.Z.",
"> O > < 3 3 0 0 w w V x ) U  .X.DXO.=.#.OX@X{.@XoXf.<X0X2XH.F.F.z.j.j.h.>X>Xr.>X1Xf.b.U.S.U.tXtX}.}.|.[.K.[.K.|.8.XX#.#.+.+.+.!.k w 6 6 6 6 - - - Z.Z.Z.Z.Z.",
"> = = > > i 3 0 7 0 l t m C S P ] [ :.>.>._.@X@X,Xk.<X0Xv.2XdXP.uXc.n.8XNXtXI.tXx.S.D.x.z.D.}.7.7.{.K.{.[.|.0.0.2.0.#.| ` ' !.!.8 w 8 6 6 - - - p % % X % X ",
"= i > > > > 3 0 7 7 t t M Q.K K [ (._.].[._.@X@XhXk.<X0Xv.v.dXdXqXBX8X8Xx.1X1XtXx.x.D.x.z.z.7.7.}.{.|.K.0.|.0.[.-.&.^. .' ` !.v j # 6 6 @ Z.Z.- - + X % % X ",
": > i > i > : i i > r q n M Z A Q ~.$.>.[.7.>X>X,X,XkX,Xv.Z.Z.uXuXgX8X8XA.fXx.yXyXyXA.BX1XI.}.[.{.{.{.[.|.q.0.0.X.{ ` { T J j j 8 8 8 - - - @ + Z.Z.$ % % % ",
"i * i = : : > : > 0 0 q z M Q.Q.P Q  .$._.3.ZXj.<X,X<XZXv.2XuX8XuXgXT.T.T.x.yXT.gXyXA.BXnXnX+X}.{.{.[.7.3.|.0.0.o.o.` ..P T j j 8 8 @ 8 - 8 - $ % % % % % % ",
"* > i : > : : : : > 3 0 k b M m M A Q ! %.$.[.[.i.t.@Xu.l.x.uXuX8X8XdXdXT.yXP.P.P.P.D.D.j.i.L.L.t.{.3.[.3.0.>.>.) ..T T j m 9 6 8 8 @ - - - - $ + % % X % % ",
"> : : > > : : i 7 > 3 0 e k n n v N !.MX' %.C.3.r.i.<Xz.l.Z.Z.Z.8XgX8XgXdXA.yXx.gXyXz.D.ZXy.kXkXt.t.{.[.3.3.>.&.) ) T J k z 9 9 @ 8 - - - - p % Z.Z.Z.% % $ ",
"> : i : > : i : : > 3 > e r k l b b v MX! ' $._.C.C.t.}.rX}.z.qXD.qXS.F.qXF.Y.v.b.b.H.<XZX,X,Xk.h.j.q.{.>.>.&. .T Z m b r r 7 7 8 $ - - - $ % % - + % % % % ",
": > > > : 7 : > 7 : > > 9 0 k e e b !.v !.! %.%.5.r.@Xt.y.rXz.qXD.D.D.F.qXY.b.2X2Xb.z.h.,X,X,Xk.y.j.+Xq.>.$.| ' V V b l y 0 6 ; - - - @ $ @ % * % % % % p % ",
"7 > > > > > > > : > * i > 9 r r u l W.B E E +. .+.CXp.5.5.9X0X0Xb.D.D.D.c.n.Y.n.Y.qXu.rXt.rX@X@X-Xs.>.>./.` U P x x c 8 8 8 $ 8 - - + % % X % X % X p % % % ",
"> > > ; 7 > > > 7 : i > 0 > 9 r u u h d R K ^. .CX+.4.-.9Xg.0X0XD.b.D.c.A.A.F.Y.Y.qXi.u.i.i.t.{.q.OX8.<././.Y !.x x j zX8 8 8 - - $ % % * % * X X X % % % X ",
"> > 7 > > > > 7 > > : : 9 > 7 0 5 < 5 5 M M H H #.! 3.[.L.L.k.k.ZX,Xz.H.Y.2X3XY.z.z.t.@X}.+X[.C.@.%.Q ' K Q.z k c j 8 8 8 8 $ 8 % % X % % % X % % $ % % % % ",
"> > > > > > > > > : : > 7 7 0 > = i E.i N N R E %.lX>.-.&XxXkXhXZXZXz.v.2X2XqXqXz.l.@X@X@X@X[._.@.' Q Q A !.b k c 8 8 8 8 8 8 p % % * % % % * % % p % % X % ",
"> > > > > > > > > > * > ; > > 0 FXO vX^ / 6X6XH H J.eXeX_.[.3.4.sXt.u.u.u.u.rXrXe.K.[._.@.lXE E MXMXC Q.l x r r 7 8 8 6 8 $ p @ % % X % % X % O X X $ % % % ",
"7 > > ; > > > > > > > : 6 6 > > FXO vX^ 6XwXm.m.J.J.eXlX[.7.3.5.r.t.}.t.u.}.rX7.K.7.>._.%.@.~ ~.S MXQ.Q.x z 0 0 8 8 - : $ 8 - $ * % * % % % % % X % % % % % ",
"> > > > > > > > > > : : > > > & FXFX5XwXG / bXcXV.m.J.6XeXlXlX6.Z.Z.( J.lXlXH KXJ.E ! R S S b t f VXaXf r y 0 & = = * = * - - @ * X % % % X $ % % X % % % % ",
"> > > > i > > > > > > > 7 > > 3 FX5 AX^ / / G 6XwXV.H cXeXeXlXlXeXeX6.H JXJXH KXMXR MX!.S MXW.d f f f a 0 9 1 1 - = > - * - - p X X % O * % % X * % Z.Z.Z.Z.",
"Z.Z.Z.Z.Z.Z.> > > > > > > > > = ^ 7XvX6X6XH V.cXcX6X6X/ Z.Z./ G / m.G H N N N N S B N W.M W.f # f VX@ a 1 , ; ; ; & ; Z.Z.- % % * % % & + % % % Z.Z.Z.Z.Z.Z.",
"Z.Z.Z.Z.Z.Z.> > > > > > > > > % ^ ^ vXvXcXV.bXcXV.m./ / B AXG F B G B N N h M N B S W.M d d f d f f 2 aXaX& ; # ; & 6 ; ; Z.Z.Z.Z.& % % % % & Z.Z.Z.Z.Z.Z.Z.",
"Z.Z.Z.> > > > > : > > > = > * % ^ 5XvXmXbXbXmXbXmXmXG 6XB AXB B B h f f VXf f f f y 2 y # aXaXa h h R.R.< , , & & @ ; & - - - & % + - - & @ % % % X % % * Z.",
"Z.> > > > > > > > : > > > > > % 5X5XiXmXmXmXmXmXmXmX6XwX5XB g g f f f a f f f a VXf a y aXf y f M B 5XZ.Z.a , . & aX& - - = % % % & % & % % & % % % % % % % ",
"> > > > > i 3 > : : > > > > : Z.Z.Z.Z.bXiXbXbXbX^ ^ wX^ 5XB 3 4 a 2 2 2 2 2 2 < # 1 jXa 2 a f a s KXN.Z.Z.s Z.Z.LXZ.Z.= ; = + % & @ % & % % % & % % % % % % ",
"> > > > > > 3 > > : = > > > * % E.vXbXbXE.iXmXbX^ wX6X^ B R.2 2 2 2 , jX1 jXjXaXaXaXaX@ aXjXa s a Z.Z.s g s Z.Z.Z.Z.& 1 % % % % & % % % & % + % Z.Z.Z.Z.Z.% ",
"> > > > > > > > > > = : > = * * E.E.bXbXiXiXvXvXvXvX5X5XR.g < , , , , Z.Z.N., , 5 5 jXjXB.Z.Z.h s s s s s Z.Z.Z.Z.Z.@ ; & % Z.Z.Z.% % % % % % % % % Z.Z.Z.Z.",
"Z.Z.Z.Z.= > > > > : > > > > * X vXiXvXvXvXvXbXbXvXbXE.^ g R.< , o o o . . o N.Z.Z.B.< B.Z.Z.Z.R.s R.s Z.Z.B.Z.Z.Z.Z.; , & & * % % & & % % % + Z.Z.Z.Z.% % * ",
"> : > > = > * = * = > > > > O X g E.vXvXvXvXV.bXvXvXvXR.B., < & O o X . pXO o , , N.N.N.N.B.s s a Z.Z.a g E.s 5 X o % = % % * Z.Z.Z.Z.Z.Z.Z.Z.Z.Z.Z.Z.Z.Z.Z.",
"> > = > > > > > > > : > > > X 4Xg g E.Z.Z.Z.^ Z.Z.E.s Z.Z.Z.N.O O O = O X O , < , N.N.N.N.s Z.Z.Z.Z.Z.a s s B.N.O X % % % % % Z.Z.Z.Z.Z.Z.Z.Z.Z.- Z.Z.Z.Z.Z.",
"= > > Z.Z.Z.= = i > > > > = % p O 3 s Z.Z.Z.E.vXE.E.FXN.Z.Z.Z.X X 4XpXpXpXpXX X o O . FXFXZ.Z.Z.Z.h s s s a jXZ.Z.Z.& - % % % % Z.Z.Z.Z.Z.Z.Z.Z.% % * - % * ",
"> > > > > > > i > > > > : = % Z.Z.Z.5 Z.Z.Z.Z.E.s B.< O X X X X Z.Z.Z.Z.Z.  X X % X N.Z.Z.Z.N.a s s s s a N.o .   . - & % $ % % % % % % % % % % % % % % & Z.",
"Z.Z.Z.> > = = > > > > = > > * & Z.Z.pXO . o o N.< = & = X % Z.Z.+ p p p 4X+ Z.Z.. +   X o o N.N.B.s s q < , @   4XZ.Z.= % % + Z.Z.Z.Z.Z.Z.Z.Z.Z.Z.Z.Z.Z.Z.* ",
"> > > : : > > > > = > > > > = = % Z.Z.Z.Z.Z.. . . X . . X Z.Z.4X4XpXpXpX4X4XpXpXpX  pX. pX. . o N.B.4 2 , . +     4X- * % % $ % % % % % % % % % % % % % % % ",
"= > > = > = > > Z.Z.Z.> > = > > % 4X4XpXpXpX. Z.Z.. Z.Z.Z.Z.Z.* = - > 7 ; ; %   4X4X4XpX      * & % @ & % + +   % % % % % % % % Z.Z.Z.Z.Z.Z.Z.Z.Z.Z.Z.Z.Z.Z.",
"Z.: > > > > : > > = * > : > > > 3 = X 4XZ.Z.4X  4XpX% p + p X - Z.Z.Z.Z.& Z.Z.Z.* % X X pX4X  X .   . + .   4X+ X % * Z.Z.Z.Z.Z.Z.Z.Z.Z.Z.Z.Z.Z.Z.Z.* % % % ",
"Z.Z.Z.Z.Z.Z.- Z.Z.Z.Z.Z.Z.Z.Z.Z.Z.Z.Z.= 4X4X4X4X* > - = > = - > * * > - - = = - * % % 4X4Xp 4X4X4X4X4X4X4X4X+   X % % % % % % - Z.Z.Z.Z.Z.Z.Z.Z.% Z.Z.Z.Z.Z.",
"Z.> Z.Z.Z.Z.= * Z.Z.Z.Z.Z.Z.Z.Z.Z.> & - * % % 4X- * * > * - - = > Z.Z.= - : * - - % % % X 4X% p 4X% 4X4X4X  % - * % % % % % % * % % % % % % % % % % % % Z.Z.",
"Z.> Z.Z.Z.Z.Z.Z.Z.Z.> > > > > = > > Z.Z.% & - * = = Z.Z.Z.Z.= : * = = Z.Z.- - = = % % % % % %   p pX4Xp % * = * * % * - % % * * % % % % % % % % % % Z.Z.Z.Z.",
"> Z.Z.Z.Z.Z.- = > * - = > * Z.Z.Z.Z.Z.- - - * * * - - Z.Z.> - * > - - > > * Z.Z.* % % % % % - - % 4XpX4X- > > - = Z.Z.% % Z.Z.Z.Z.Z.Z.Z.Z.Z.Z.Z.% % % % - * ",
"> > Z.Z.Z.Z.Z.Z.= > * > > > = > > > - > * * - = - * Z.Z.Z.Z.- = = - > - Z.Z.Z.Z.* Z.Z.Z.* = * % * - - Z.Z.Z.> - * Z.Z.Z.Z.Z.Z.Z.* % % % % % % % * % % % * - ",
"> > > > > > > * - > > - - - > - - = = : - - Z.Z.Z.Z.* Z.Z.> > > : - * = = > * * * - Z.Z.Z.* * - * * * * * = * = - - * * * Z.Z.Z.* Z.Z.Z.Z.Z.Z.Z.Z.Z.* Z.Z.% "
};
