/* XPM */
static char *_a20353eb8434bd2f1c2a8740e7404e78vAgghH6n4FzEMlb_38[] = {
/* columns rows colors chars-per-pixel */
"78 86 256 2 ",
"   c #221D1D",
".  c #271D1A",
"X  c #24221D",
"o  c #2B231D",
"O  c #2A291D",
"+  c #231E21",
"@  c #291D28",
"#  c #321B36",
"$  c #1B2C29",
"%  c #252425",
"&  c #2A2524",
"*  c #252926",
"=  c #2A2925",
"-  c #262529",
";  c #2A262B",
":  c #26292A",
">  c #2B2A2B",
",  c #332523",
"<  c #342A24",
"1  c #33252C",
"2  c #3B242C",
"3  c #322A2D",
"4  c #3B2B2B",
"5  c #3B312A",
"6  c #2C2532",
"7  c #2D2A32",
"8  c #2B2638",
"9  c #322634",
"0  c #332A34",
"q  c #3B2B34",
"w  c #34253B",
"e  c #3A253C",
"r  c #352B3A",
"t  c #3A2B3C",
"y  c #3C2433",
"u  c #383138",
"i  c #283332",
"p  c #1D1F20",
"a  c #432B2A",
"s  c #46352B",
"d  c #442A3B",
"f  c #462837",
"g  c #493735",
"h  c #522E37",
"j  c #381C4A",
"k  c #3B2543",
"l  c #3C2B43",
"z  c #392747",
"x  c #3C2653",
"c  c #342E47",
"v  c #4A1C52",
"b  c #432B44",
"n  c #43254C",
"m  c #432B4B",
"M  c #492947",
"N  c #542A48",
"B  c #573748",
"V  c #452B53",
"C  c #4B2C54",
"Z  c #4C2B5B",
"A  c #532C5C",
"S  c #552857",
"D  c #4A3256",
"F  c #573358",
"G  c #653857",
"H  c #692E54",
"J  c #4B2865",
"K  c #542B63",
"L  c #5B2C6C",
"P  c #572768",
"I  c #583367",
"U  c #5A2976",
"Y  c #5B3375",
"T  c #4C306C",
"R  c #652969",
"E  c #663569",
"W  c #632C7C",
"Q  c #662A78",
"!  c #752A79",
"~  c #763679",
"^  c #6A5446",
"/  c #694657",
"(  c #764A6B",
")  c #5B2C85",
"_  c #6B2C84",
"`  c #662886",
"'  c #752B8A",
"]  c #6A3387",
"[  c #763489",
"{  c #6C2A94",
"}  c #742C9B",
"|  c #7B2C9C",
" . c #792897",
".. c #6B3395",
"X. c #7C2CA3",
"o. c #7929A7",
"O. c #772CB0",
"+. c #6D1D92",
"@. c #863789",
"#. c #842B9A",
"$. c #863599",
"%. c #8F2D8C",
"&. c #832CA4",
"*. c #832CAB",
"=. c #892BA9",
"-. c #952AA9",
";. c #8C33AB",
":. c #8836A8",
">. c #9638AA",
",. c #882CB5",
"<. c #952DB7",
"1. c #8C32B3",
"2. c #9737B7",
"3. c #A639A8",
"4. c #A53AB9",
"5. c #B12FB3",
"6. c #924892",
"7. c #AA4E99",
"8. c #9B44B6",
"9. c #8D49AB",
"0. c #A646B7",
"q. c #B74BB7",
"w. c #B453BC",
"e. c #B965B8",
"r. c #C64BB8",
"t. c #CF53B4",
"y. c #C665B9",
"u. c #CD6FB4",
"i. c #DA5BB3",
"p. c #A539C5",
"a. c #B453C3",
"s. c #BC54C4",
"d. c #BB57C8",
"f. c #BB67C5",
"g. c #C857D4",
"h. c #C865C6",
"j. c #D370CD",
"k. c #ED4FE8",
"l. c #CD8BB8",
"z. c #E991D2",
"x. c #D2AFCF",
"c. c #E5B8C9",
"v. c #F9A8E7",
"b. c #EEB0EC",
"n. c #EBCBD4",
"m. c #774A57",
"M. c None",
"N. c #35281D",
"B. c #3B2C24",
"V. c #74554A",
"C. c #A83595",
"Z. c #CE37CD",
"A. c #D8B9C9",
"S. c #D9B9D5",
"D. c #E7A9D8",
"F. c #E6B7D7",
"G. c #785655",
"H. c #F392EC",
"J. c #753469",
"K. c #AA54A9",
"L. c #D44ED2",
"P. c #D1B6B7",
"I. c #C987C7",
"U. c #DAA3E3",
"Y. c #F8B6D8",
"T. c #D4C4CF",
"R. c #533B39",
"E. c #514334",
"W. c #473248",
"Q. c #472557",
"!. c #521C6A",
"~. c #673378",
"^. c #6C2B8B",
"/. c #732C94",
"(. c #783397",
"). c #7B33A5",
"_. c #963899",
"`. c #8332A4",
"'. c #8934B7",
"]. c #9945A8",
"[. c #A749AA",
"{. c #B54BAA",
"}. c #B656AA",
"|. c #AC4CB4",
" X c #AC4CBB",
".X c #B34DBC",
"XX c #AC53B7",
"oX c #B453B4",
"OX c #BB53BC",
"+X c #B958B7",
"@X c #C557BA",
"#X c #9935C4",
"$X c #AA46C4",
"%X c #B74AC6",
"&X c #B350CD",
"*X c #9C45C4",
"=X c #C64BC7",
"-X c #C354C4",
";X c #C355CB",
":X c #C45ACB",
">X c #C859C7",
",X c #E94FD2",
"<X c #E96ED3",
"1X c #D48ECF",
"2X c #FAB7E6",
"3X c #F6CDE9",
"4X c #1D1C1C",
"5X c #5B4546",
"6X c #684A46",
"7X c #5F4F64",
"8X c #ECDBE0",
"9X c #B234CA",
"0X c #F471EB",
"qX c #F3ACD1",
"wX c #6F4F50",
"eX c #884C72",
"rX c #B16899",
"tX c #B98DC9",
"yX c #BAC5B2",
"uX c #DFC4B5",
"iX c #68431E",
"pX c #1A1817",
"aX c #381C29",
"sX c #CE28AC",
"dX c #D8C3C8",
"fX c #BAB0A7",
"gX c #D1C5B7",
"hX c #E839DD",
"jX c #3A2425",
"kX c #D657E4",
"lX c #8A3275",
"zX c #2F2B5C",
"xX c #B425CF",
"cX c #835558",
"vX c #594739",
"bX c #69503A",
"nX c #B46BAC",
"mX c #64493A",
"MX c #6B1B64",
"NX c #B88AB4",
"BX c #E3AAB7",
"VX c #4D1732",
"CX c #9B1998",
"ZX c #D658C7",
"AX c #534652",
"SX c #8E626C",
"DX c #922EC4",
"FX c #342F19",
"GX c #513398",
"HX c #37444E",
"JX c #971A60",
"KX c #611828",
"LX c #341419",
"PX c #B91242",
"IX c #170617",
"UX c black",
/* pixels */
"> > > = > > : = : > > = > - = > = = = & 6 ; 6 : 6 6 6 - > M.M.M.M.9 8 8 T D k # KXKXKXKXLXLX% p - - $ p @ $ p $ p p p p - % % $ + M.M.M.M.M.M.M.M.M.% % % % ",
"> > : > = > > > : = - * > * = = = = > = 7 ; ; 7 6 : ; 6 ; > 3 ; @ 6 @ j T T v # KXKXKXKXLXLX% - - % $ @ p $ @ @ @ $ p $ + p % p p M.M.M.M.M.M.M.M.M.M.+ + - ",
"> : > > M.M.> > > - > > - > = : > = > > 6 6 6 6 6 6 : 6 ; ; & 1 9 3 # 8 F I # aXKXLXKXLXLXN.N.; @ $ @ p @ @ - p p p - @ + % + + + M.M.M.M.% M.M.+ M.M.M.% M.",
"M.> = > > > = > > * = > > : = = > & > > 6 6 7 6 6 6 6 6 ; 7 3 3 9 ; c j D C v # KXKXLXKXLXN., , - - - - $ - p - p - $ p % p $ M.M.M.M.M.M.M.M.M.M.M.M.M.M.M.",
"> M.M.M.> > > - = > * > = > = M.M.- > ; 7 9 w 9 w 8 9 9 9 9 9 1 aX@ 8 @ c 8 8 # aXaXVXKXjXaX8 8 - - - - p - - p + % p $ p $ p + M.M.M.M.M.M.M.M.M.M.M.M.M.M.",
"> = > > > > > > > > - > > : > - > > ; 3 7 9 8 9 r w r 8 9 3 0 1 , @ 8 6 $ 8 # 8 a aXjXLXjX, 8 8 8 - - - - - - p % + % % % % % % M.M.M.M.M.M.% + M.M.+ + M.M.",
": > > ; > M.M.> - - ; > > - - > : 6 7 7 z w k l l c l e e e e e jX2 6 r $ 8 8 8 3 ; jXjXy aX8 8 8 6 6 - - 8 $ - $ + p - + % % $ % M.M.% % % + + % % p + % p ",
"> > > > > > > > > > > > & > > > : 7 7 9 l w k b m D W.r w e k k jX@ 8 8 $ 8 7 - 1 ; 2 a 1 2 8 j 6 ; - 6 8 p @ - % % % - p p % p % % % + % % % - % M.M.% % M.",
"M.M.M.M.M.M.M.M.M.M.M.M.M.M.- > $ i 8 8 m z L Z ~.~.v v k x l w y @ 9 9 ; 7 8 i # 8 k n T T J j 9 9 6 6 8 - - - p - % % X X % X % % % % p % + p - p % - % % ",
"M.M.M.M.M.M.M.M.M.M.M.M.M.M.M.M.8 8 r c V z E K ~.~ J S n z m l y 1 9 9 8 7 7 r 8 8 k x T T J J w # 6 6 8 8 - 8 - - * X % X M.M.p % % % % + % % % + + M.M.M.",
"M.M.M.M.M.M.M.M.M.M.M.M.M.M.M.3 8 i c z K v (._ (.9.Q Q Q.Q.c r y 9 9 2 0 q t t x z Q.Q.!.U ) T M e w w # 8 - - - % % % X X %   % % + % % % + p + M.M.M.+ M.",
"M.M.M.M.M.M.M.M.M.M.M.M.M.M.M.0 i r c c L Z (.] 9.9.W W C n l u # y 9 e t r l l b x Q.Z T ) T ) M k j # 8 8 8 - - % % X % X % % % % % % % % % % % + + p % M.",
"M.M.M.M.M.M.M.M.M.M.M.M.M.M.M.0 c i x z U P :.(.>.8.[ ' S v b t b b j e n f A M P J U ` ^.{ +.+.Q.n b k 8 8 6 ; * % % M.M.X % % + % % % % p % + + p % p p % ",
"M.M.M.M.M.M.M.M.M.M.M.M.M.M.M.M.8 8 c z R U 9.9.9.8.[ [ N S W.d e # IXIXIXIXVXf !.U U _ ^.{ { +.A m n k c w 6 6 % % % X X % % X % % - % % % % % % p p - + M.",
"M.M.M.M.M.M.M.M.M.M.M.M.M.M.M.M.j 8 Q.J ^._ *X#X2.0.[ [ P S N S C D @ # # # MXS U ` +.^.X.} } +.A P M Q.k l 9 6 : - % % X % X % % M.M.M.M.M.+ % % % - + % M.",
"M.M.M.M.M.M.M.M.M.M.M.M.M.M.M.M.c j J Q.' ^.$X*X2.4. .@.R S F N k C IX# # LXv N ) U ^./.o.).+.o.R K C n l z 9 6 - * * % * X * % % * - % % % - + - p % + + % ",
"> > = < i > = > > > i > > > 3 i z x J !.^./.8.$X9.:.[ [ L K P P L A v # v v U ` ^.^.(.#.#.`. .{ Y U Z J e k 9 9 6 - - % % $ p % + % M.M.M.M.M.% M.M.M.M.M.M.",
"= > > = = > < > i > > > i > 3 i z z J J /./.*X*X`.:.[ _ L P L L E L v A !.Q Q !  ./.`.$.:.:. . ._ ) Q.K e m 9 9 > - $ % % % + % $ X % % % % % 4XM.M.M.M.M.M.",
"> > > > > > i = > > > 3 > 3 3 u w y Z Q.] [ :.:.#. .~.~ R R E E E E ~.~.(.(./.^.| #.;.;.>.>.#. .] ` P P f b r 0 7 M.M.- + $ % M.M.% M.M.M.M.M.% M.M.M.M.M.M.",
"M.M.M.> = = > = > > > > > i i 3 r 9 C Q.~ ~ $.$.@. .Q W E E E ~.E ~.~.~.[ [ (./.| #.8.1.9.1.| #...] K Y b C r t 7 6 - - - % % + % % % % % p M.M.M.M.M.M.M.M.",
"M.< > > > > > > > > > > > i 9 u 5 4 B n L K ~ [ ! _ ~.J.E ~ ~ ~ _ [ ..[ } } o.*.*.;.2.2.1.1.&.o.{ ..U Y C D l l 9 6 : - % % % M.M.p % % % % % % 4XM.M.M.M.M.",
"> i > > i < M.M.M.M.> i 3 > 0 0 5 5 C M L S ~ lXW ! ~.~ ! ~ [ ~ _ [ (.(.X.X.=.*.*.*.8.1.<.1.&.&.} } U Y b D l l w 9 : > $ % + p % p M.M.M.M.M.M.M.M.M.M.M.M.",
"M.i i < < > > < 7 > > 7 7 0 r r l t A m R S ~.W ~ ! ~ ~ [ [ /. .(.(.:.).o.*.,.'.,.,.#X'.1.=.o.&.O.).` ` S A M b l r 6 ; - % - - % % % - M.M.M.M.M.M.% M.M.M.",
"> < > > > > > > > i > > 3 i u l t t C C L P W R [ [ [ [ ' @.@. .| (.(./.o.O.'.,.<.'.8.'.<.=.o.&.O.O.) ` Z A M M l l 7 7 - - % % % * % * * M.M.M.M.M.M.M.M.M.",
"M.i > > > > i > 0 7 0 > 0 0 l u b l C C L Q _ (.[ [ #.).o.*.;.'.2.1.O.*.,.DX'.'.'.'.'.<.'.<.2.'.*.o.` ^.A K B C b k 9 9 > - = - - - = M.M.M.M.M.M.M.M.M.M.M.",
"> > > > > i 3 > 7 7 9 0 9 r r l b W.A F R ~._ [ [ [ (.| o.o.,.1.'.*.,.'.<.DXDXDXDXDX#X'.1.1.2.8.).o._ [ K I C M b l r 9 > M.M.- = % - - M.M.M.M.M.M.M.M.M.% ",
"> 3 > > > > > > 6 6 9 0 r r l l m C K I _ _ | (.%.$.:.;.1.2.*X$X,.<.<.<.#XDXDX#X#X#X2.DX2.1.2.#XO.,.} ).Q ~.A A m M k r 0 6 & ; % ; * - * M.M.M.M.M.M.M.M.M.",
"M.i > > > > 3 3 7 0 0 ; r u l l C D L L _ [ | #. . .&.=.,.'.#X#X2.2.#X2.<.#XDX#XDXDX'.<.2.2.2.0.,.,.} (.W ~.A A C m l e 0 9 ; & ; - - = * % % % % % % % * % ",
"> > 3 > > i > i M.M.7 0 9 r W.b C Z U ` } | `.=.:.>.*X$X0.$X$X$X$Xp.p.#XDX#X#X#X#XDX<.2.*X#X*X8.DXO.).).Q ' L L K Z m x l w 8 > - - - * - - M.M.M.- % % % % ",
"3 i > > > 3 > > 7 6 7 0 r u z M V F Y _ } ).#.=.&.:.*X$X8.*Xp.$X&X$Xp.2.#X#X#X#X#X#XDX#X$X$X8.#X#X8.).:.W ' R E I J V x l w 7 7 > : > * - * M.M.* M.M.M.M.M.",
"> M.M.7 > > i > 9 9 0 q t l m m K I ^...| X.=.`.>.0.&X&X&X&Xa.&X%X%X9Xp.4.#XxX<.p.#X$X#X$X#X2.0.2.#X;.>.%.' Q W U P J !.x j z w 6 6 ; - - + M.M.M.M.M.% % % ",
"i 3 > > > M.M.3 0 0 0 r t l m C K L ^.^.).} :.>.0.0.&Xd.&X&Xd.d.p.&X%Xp.9Xp.p.p.#X#X$X$X$X0.0.$X*X$X8.8.#.$.^.! Q U T J x x c w 6 6 6 6 @ M.M.M.M.M.M.M.* M.",
"M.M.> 3 > > 3 > 4 0 r t b b F I _ W  .} *.X.].>.w.w.%Xd.&Xd.d.:Xs.%X$X.X9X%X9X%Xq.4.%X9Xq..X%X.X%Xa. X$X;.>. .{ { +.U U J x j e 9 8 6 6 M.M.M.M.M.% M.M.M.M.",
"M.M.> > < > > 3 0 q t t b C A F W W { { *.o.8.].+XOX&X;Xg.d.:Xd.d.g.;X%X%X%X%X%X9X%Xq.%X%X%Xd.d.&X&X Xa.].8.#.| { { U U J zXk e 9 9 6 6 6 - - - - - % * % % ",
"i 7 > > > < 3 3 0 0 t t m m A L ` ` X.o.*.o.|.8.oXw.s.&Xd.d.d.@X;X-Xd.s.=X%X%X9X%Xq.OX%XOX%XOX%Xa.w.w.a.8. X8.].{ } ^.) U !.Q.n e w w 8 6 6 M.M.M.M.M.M.M.X ",
"> 7 > i = i 3 3 3 0 e l l m A A W ` o.X.'.*.8.8.oXoXs.s.d.;X@X-X;Xd.;Xs.%X=Xs.r.q.=X-X-X=X-X-Xs.a.a.w.a.[.0.8.9.o.{ ..) U !.N n k w 9 9 6 @ - @ - * % X % % ",
"7 7 > > > < 3 > 0 0 y t l V A K ` _ o.o.'.`. X XoXoXd.s.;X&X-X@X=Xg.;X;X;Xd.%X-X%X-X-X-X-X-Xs.-X+Xa.w.+XK.[.>.>. .X.}  .{ ` U !.k e w 9 6 6 6 @ % - % % % % ",
"7 M.M.> > = > < 3 3 9 w m m K I _ _ *.o.'.:.a. XoXoXs.s.d.d.-X-Xg.;Xg.g.;X;X>X:X:X:X>X>X-X-X-X%Xs.w.w.w.].|.]._.+. .}  .^.{ U !.b k w 9 6 6 - ; - % % % % % ",
"> 7 3 > > > > 3 3 3 r r l z Z F ` _ *.X.'.:.d.a.oXw.s.s.d.;X@X-XL.=X;X;Xh.d.d.h.d.:Xg.>X>X;X@XOX+Xw.oXw.K.|.].].#.+.o.o. . .{ ` k k w w @ # - - % % % = M.M.",
"M.7 > > > > 3 > 9 0 q t l W.Z A W ] ).X.'.1.a.a.+XOXs.s.d.d.h.-XL.g.g.>Xd.d.-Xf.h.:X>Xg.ZX;X-X-Xw.+X+XoX|.[.].>.#.&.+. .{ { ^.+.k e w 8 8 @ ; - % % % % % % ",
"> > > > < > > i 3 0 q u l l C D W ~.).).'.1.a.a.oXOXs.-Xd.;X>X@XL.L.%X;XnXnXz.1X&X:Xg.>Xg.L.-X-Xd.$Xa.a.0.a.9.2.&. .} +.` ` Y U z l r w M.M.M.M.- - % % % % ",
"3 i 3 i > > 3 3 i > r q l l m V U W ).X.1.=.0.a.+XOXs.s.;Xd.+X-XL.L.-X>XnXnXH.1X:Xf.>Xg.>XL.-X-Xa.a.a.a.$Xa.>.>.X.o.} +.` ` Y Y b k e M.M.6 - - + * M.M.M.M.",
"M.M.M.> > 3 3 > > 0 7 r u l M D L L `.} :.&.0.w.+XoXs.s.&Xd.-Xs.ZX>Xe.y.I.I.b.b.d.f.g.g.L.=X-XOXw.a.a.a.XXa.;.>.o.o.o.o.} { { ` l k M.M.M.M.M.M.% M.M.M.M.M.",
"> > 3 > > > > > 7 > 0 u c u W.m P R ).(.;.&.0. XoXoXs.s.;X;X-X@X=XZX+Xy.l.1XU.2Xy.h.g.g.g.=X@Xr.s.w.a.XX Xw.>.>.o.#.+.o./.{ { ` l l w z M.M.M.M.M.M.M.M.M.M.",
"> > > > > i 3 3 ; 3 9 0 r l b m S P (. .:.#.[.|.XXoXs.s.%Xs.s.@Xy.@Xl.I.F.F.F.F.f.d.g.ZXg.=X@XOX}.oXoXXX|.oX:.>.=.+.+.o.} { +.) l k r 9 6 6 - @ M.M.M.M.M.M.",
"3 3 i > > > > > > 7 7 0 r l b b P S ' +.#.#.>.[.{.{..X%Xs.s.OX@X}.@XI.1Xx.F.x.x.-Xf.g.>XL.L.-Xr.oXoXoXXX|.|._.$.=.o.O.O.o.} +.+.b k 9 M.M.M.M.M.M.M.M.M.M.M.",
"> > i 3 > > > > > > 7 0 r u d k S S ' ` #.#.3.3.q.|.%Xs.s.%Xr.oXy.u.qX2XA.S.S.S.e.f.;Xg.=XZX@XOX+Xq.q.oX|. X=.=.=.=.o.o.+.+.) ) l w w 8 ; ; - % - - M.M.M.M.",
"M.> > > > 3 > > & > 7 7 r r n n S S Q ` #.#.3.3.}.|.d.%Xs.s.+Xq.}.}.3X3XF.A.F.S.h.e.;X;X>X=Xr.@Xr.oXq. X|.q.#.-.=.#.+.O.M.M.M.M.l M.M.M.- 6 % + % * M.M.M.M.",
"M.M.> i * i = > > > 7 > 7 0 u u D zX) Y &.>.5.5.k.k.kXL.i.,Xr.@XfXl.8X8XT.A.S.D.j.1X@X-X-X-X=X=Xq.r.oXq..X X&.=.#.#. .| { { J J t 9 6 6 ; ; % % % % % % % % ",
"M.M.= > > = > > = = ; 7 9 r r u HXzXY ) #.-.9X5.k.k.kXk.,X,X@X+XNXfXn.8XdXA.F.x.z.1Xs.-X-X@X=X=X@Xq.w.q.0.0.#.#.=.#. .&.` M.M.zXe 9 M.M.M.- % % % % % + % * ",
"> O > = i = > > > > > > 0 i u i x c R Q -.-.sXsXsXhXhXhX,XhX,Xi.BXP.8X8XdXgXS.A.I.I.OXh.@X@Xr.r.r.r.q.q.<.4.#.#.o.+.+.{ !.J zXzX9 9 6 6 ; - - - % % M.M.M.M.",
"> i : > * > > > > > > > > 7 0 r c c !.MXCX_.xX5.hXhXhX,XsX,X,XZXP.BXdXdXdXdXS.S.I.I.OX>X-Xt.t.r.r.r.q.{.CX-.o.#.o.o.+.+.T J j j 9 # ; ; ; - % % % * M.M.M.M.",
"M.M.M.= = = > > ; > 6 > > > 0 0 c u S S %.#.CX5.,XsXZ.,Xi.,X<XZX3X3Xn.T.P.gXA.P.U.D.<X0Xt.ZXZXi.ZXr.{.4.-.#.o.o.{ { U R x n 8 9 ; 6 - * - $ % % % M.M.M.M.M.",
"* > * > i : > > > > > ; ; 7 7 7 c c H N ! CXCX5.sXsX,Xk.i.,X<X<X3X3XdXT.dXgXA.P.D.b.0XH.ZXZXi.<X,XZXq.5.#.-.o.o.{ ` U P j x w 8 ; ; - - % % % p % % M.M.M.M.",
"i = : = O * > > > : > ; > 7 > 0 l u M M MXMX#.-.5.4.=Xg.t.-Xj.I.D.D.P.x.c.uXF.F.v.b.0X0X,Xt.i.ZX<XkXq.5.=.o.+.o.MXS N v e b 9 6 6 @ % - % % @ p X % % % % % ",
"= = i = * > > > ; > 6 > ; > > > c 9 M n MXQ #.-.-.-.9X;X=X=Xj.f.x.D.P.x.uXdXF.M.M.M.<X0XL.,Xi.i.L.ZXq.|.#.CX+.+.S S v M y y 9 M.M.M.M.% $ % p $ M.M.M.M.M.M.",
"> = > > * > = > > - ; > ; > 6 0 i HXr r P S ' ' M.M.4.-.5.4.@Xt.z.D.x.D.Y.Y.2XD.H.b.g.ZX,XZX,Xi.%X.X#.=././.P U Q.z M.M.M.M.6 6 - 8 @ - - p p - % % M.M.M.M.",
": > * * * * : > - > 7 ; 7 ; 7 7 8 i r r P S  .' ,.=.<.-.q.q.-Xi.b.D.Y.D.Y.Y.qXx.b.U.g.g.,XZXi.t.r.q.-.&./.| U U n j j k 6 8 6 - - - p - $ 8 @ $ % * M.M.M.M.",
"M.: = : = : * > > - > > 7 ; ; 6 8 8 9 6 v j R Q CXC.r.r.k.,Xk.hX1X1X2X3XF.n.Y.3XH.H.h.f.h.-Xq.r.>._.! ' L L M n k w 8 8 8 8 - - - - - % @ $ p - % % % % * - ",
"> > > > * * > - - > > 6 ; > ; 7 i i l r A v MX!.C.CXsXr.,XZ.k.,Xu.D.2X3Xc.n.qXqX1X1Xh.a.@Xq.3.C._._.' _ U ~.V V z w 8 8 8 8 - - - @ $ + $ @ @ - % % % % % % ",
": i = = * * > > ; > ; 7 > ; ; 6 . 1 6XAX/ AXG G JXJX7.7.ZXZX,Xk.ZXi.l.z.qX2Xl.l.nX}.K.oX7.7.6.%.MXR J S V V t t 9 ; 7 ; - 6 - - % % - - % - - - % % % O % % ",
"> * > * * > > = : ; > ; ; 7 3 ; aXa 7XG.( ( ( ( lXcXlXJX=XZX,XkXZXi.<Xz.v.2Xl.l.nX}.[.q._.%._._.R MX!.v x n r w 0 9 ; ; : : - - % % - - - - M.M.M.M.M.M.M.O ",
"> = = : - * > > > - ; > 6 > ; 9 FXN.G.6X/ 6X6X6XG.wXeXcX6.6.XX8.t.ZXu.u.z.u.7.7.6.6.lX%.MXMXR H h VX# f t w 9 9 & < & o O & - + % % % % + - % % % O % X % % ",
"= = i * = * * > - > 7 ; > ; 3 ; FXN.V.B wX/ 6XwXSXG.lXH ~ [ 9.$.i.i.7.u.u.u.rXSX6.6.lX@.! MXR R h VXf f e 9 9 ; < & & & & O & % % % % % - % % % % % % % % % ",
"> > > : > = i = > > > - > > = & ^ ^ ^ 5XH bXcX6XcXH m.G h / G / ( eXJ.G G G H R F H S C C S M e f f aX4 9 9 3 , ; 6 ; - ; M.M.M.% % * % % % % * M.M.M.M.M.M.",
"M.: > = > > > = > > : > > - o o wX/ 6XvXV.V.mXM.M.cX6X6Xh G G H G G F N N N N S S F S C M Q.b n e f a 1 1 9 9 ; ; ; ; 6 - p % % % % % % % % % M.M.M.M.M.M.M.",
"M.M.M.M.M.M.M.M.> : M.M.M.* - % 6XmXvXvXM.M.M.mXmX6XH H B B h B B B M h M f M f M n f e y y # f N B R.W.3 , , @ & ; & ; : - * % % % % % % % O % % % M.M.M.M.",
"M.= : > = > > * = > > > > * % + vXvXmXmXmXmXmXmXmX6XbXcX6XB f f d N d d f M VXn f f e y w VXy y N B B 5Xg f 1 & & @ % & : - * - % % X % X X % % * % % % * - ",
"> : > > > > > > > > > > > - * M.M.M.M.M.M.M.mX^ bXV.wX/ B B a f a f 2 y f e a 2 # a y d y d f h a a a M.M.g 5 > % o % & = * % % % O * X * X * % % % & M.M.M.",
"M.M.= > : > * > > > M.M.= = - M.M.M.M.M.iXmXM.M.V.V.6XwXR.R.aXaXy 2 y aX2 2 y 1 # aXaX1 aX2 f f f a B.M.M.E.g M.M.M.% ; * & % % % % % % % % O % % % % * M.M.",
"M.= > > > > > > > > > > M.M.- - M.M.M.M.vXiXE.vXmXbXvX6XR.R.jXjX< , < , ; 1 1 1 2 q 4 2 y f g R.R.s s s 5 M.M.M.M.M.& ; % % % % % X X * X % % % * % % % M.M.",
"M.M.M.M.M.M.M.M.M.> M.M.M.M.M.* E.E.mXvXvXbXbXbXmXbXvX6XM.M.jXjX, & aX@ % aX, 2 q 4 2 2 a f R.R.h g s s B.M.M.M.M.M.M.M.- % % & * % % % * * X % % % % % % % ",
"> > > * > M.M.> : * > > > > * * E.M.M.M.M.M.^ bXmXvXvXs 3 , O = O O o X   M.M.M.< < N.N.N.a s s B.FXa s s M.M.M.o . % & % % & % % % % % - % % % * - % % % M.",
"M.M.M.M.M.M.M.M.: M.M.M.M.- X   g E.vXM.M.M.bX^ E.R.s N.N.o O O O O & M.M.M.M.M.M., N.N.N.a s s s s N.iXM.M.M.M.o o & ; & % % % % % & % & + % & - * % % - * ",
"M.M.M.M.M.M.M.M.: = > > > * p 4X$ FXE.M.M.M.M.M.M.s FXO O X X X X X p 4X4X  o & O & o N.FXN.B.a s s s s s B.N.N.. . ; & % % % % % % % % - % % & M.M.M.M.M.M.",
"M.M.M.M.M.M.M.> M.M.M.M.M.* X M.M.i u E.E.E.mXE.5 B.= M.M.4XX 4Xp X M.M.M.M.. % o . FXLXN.N.B.B.a M.M.M.M.M.N.. . . & ; % & % % & % & % & M.M.M.M.M.M.M.M.M.",
"M.M.M.M.M.M.M.M.M.* - M.M.* X 4X4X4XO X O O X O O O O O 4X4Xp $ p M.M.M.M.M.+ M.M.M.X X X M.M.< a s a a < N.X . M.M.M.% % % % % % % % + M.M.M.M.M.M.M.M.M.M.",
"M.M.M.M.M.M.M.M.- * = * > - - + O X O * O M.M.M.pXX 4Xp p 4X4X4Xp 4XpX4X4X4X4XpXpX4XM.M.. . o N.FXN.jXa M.M.. .   + & - = % % % & % % % & % & @ M.M.M.M.M.M.",
"M.M.M.M.M.M.M.M.> > > > > * - * pXpXpXpXpXpXpXX p 4XpXpXp pX4Xp % % = - & M.M.. 4X4X4X4X    . = o & @ o & . . pX  % % % - % + % + & % & % & % & M.M.M.M.M.M.",
"M.M.M.M.M.M.M.M.M.M.M.M.= > > * % 4XX % X pXpXpXp pXp 4X$ p $ O - : > > > > % % %     4X4XM.M.. . . . . . pX4X. + + % & % % % % - % % % % % % % M.M.M.M.M.* ",
"M.M.M.* = > M.M.> > > > > M.M.M.M.- & M.M.M.M.  M.M.* - - % - % > M.M.> > * M.M.M.+ . 4X4X4X4X+ 4XpX4Xp 4X4X4X4X4XX X % % % % % M.M.M.M.M.M.M.M.M.M.M.M.M.M.",
"M.M.M.M.M.M.M.M.M.M.M.M.M.M.M.M.= - M.M.M.M.M.M.* * = - M.M.* M.M.M.M.> = > M.M.% % % 4X4X4Xp 4X4XpX4Xp 4X4XpX4X  4X% % p p % % M.M.M.M.M.M.M.M.M.M.M.M.M.M.",
"M.= M.M.M.= > - M.M.M.M.M.M.M.M.M.M.M.M.M.M.M.M.M.M.M.M.M.M.M.M.M.M.M.M.M.M.> = = * % 4X% 4X4X4X4XpXpXpXpX4X4X4Xp % - % M.M.M.% M.M.M.M.M.M.M.M.M.M.M.M.M.M.",
": > > > - : M.M.M.M.M.M.M.M.M.> M.M.M.M.M.M.M.M.M.M.M.M.M.M.M.M.M.M.M.M.M.M.* - * * * % p X p   p M.M.M.4X4XpXpX% M.M.* * M.M.M.M.M.M.M.M.M.M.M.M.M.M.M.M.M.",
"M.= > > * > > * M.M.M.M.M.M.M.M.M.M.M.M.M.M.M.M.M.M.M.M.M.M.M.M.M.M.M.M.M.M.M.M.= * * * - % % % - % % * * * - % M.M.M.M.M.M.M.M.M.M.M.M.M.M.M.M.M.M.M.M.M.M.",
"M.M.M.: > > > > M.M.M.M.M.M.M.M.M.M.M.M.M.M.M.M.M.M.M.M.M.M.M.M.M.M.M.M.M.M.M.M.M.M.M.M.M.- - * - * * * * % % % - % - M.M.M.M.M.M.M.M.M.M.M.M.M.M.M.M.M.M.M."
};
