/* XPM */
static char *_a20353eb8434bd2f1c2a8740e7404e78vAgghH6n4FzEMlb_39[] = {
/* columns rows colors chars-per-pixel */
"78 86 256 2 ",
"   c #221D1D",
".  c #271D1A",
"X  c #24221D",
"o  c #2B231D",
"O  c #2A291D",
"+  c #231E21",
"@  c #291D28",
"#  c #321B36",
"$  c #1B2C29",
"%  c #252425",
"&  c #2A2524",
"*  c #252926",
"=  c #2A2925",
"-  c #262529",
";  c #2A262B",
":  c #26292A",
">  c #2B2A2B",
",  c #332523",
"<  c #342A24",
"1  c #33252C",
"2  c #3B242C",
"3  c #322A2D",
"4  c #3B2B2B",
"5  c #3B312A",
"6  c #2C2532",
"7  c #2D2A32",
"8  c #2B2638",
"9  c #322634",
"0  c #332A34",
"q  c #3B2B34",
"w  c #34253B",
"e  c #3A253C",
"r  c #352B3A",
"t  c #3A2B3C",
"y  c #3C2433",
"u  c #383138",
"i  c #283332",
"p  c #1D1F20",
"a  c #432B2A",
"s  c #46352B",
"d  c #442A3B",
"f  c #462837",
"g  c #493735",
"h  c #522E37",
"j  c #381C4A",
"k  c #3B2543",
"l  c #3C2B43",
"z  c #392747",
"x  c #3C2653",
"c  c #342E47",
"v  c #4A1C52",
"b  c #432B44",
"n  c #43254C",
"m  c #432B4B",
"M  c #492947",
"N  c #542A48",
"B  c #573748",
"V  c #452B53",
"C  c #4B2C54",
"Z  c #4C2B5B",
"A  c #532C5C",
"S  c #552857",
"D  c #4A3256",
"F  c #573358",
"G  c #653857",
"H  c #692E54",
"J  c #4B2865",
"K  c #542B63",
"L  c #5B2C6C",
"P  c #572768",
"I  c #583367",
"U  c #5A2976",
"Y  c #5B3375",
"T  c #4C306C",
"R  c #652969",
"E  c #663569",
"W  c #632C7C",
"Q  c #662A78",
"!  c #752A79",
"~  c #763679",
"^  c #6A5446",
"/  c #694657",
"(  c #764A6B",
")  c #5B2C85",
"_  c #6B2C84",
"`  c #662886",
"'  c #752B8A",
"]  c #6A3387",
"[  c #763489",
"{  c #6C2A94",
"}  c #742C9B",
"|  c #7B2C9C",
" . c #792897",
".. c #6B3395",
"X. c #7C2CA3",
"o. c #7929A7",
"O. c #772CB0",
"+. c #6D1D92",
"@. c #863789",
"#. c #842B9A",
"$. c #863599",
"%. c #8F2D8C",
"&. c #832CA4",
"*. c #832CAB",
"=. c #892BA9",
"-. c #952AA9",
";. c #8C33AB",
":. c #8836A8",
">. c #9638AA",
",. c #882CB5",
"<. c #952DB7",
"1. c #8C32B3",
"2. c #9737B7",
"3. c #A639A8",
"4. c #A53AB9",
"5. c #B12FB3",
"6. c #924892",
"7. c #AA4E99",
"8. c #9B44B6",
"9. c #8D49AB",
"0. c #A646B7",
"q. c #B74BB7",
"w. c #B453BC",
"e. c #B965B8",
"r. c #C64BB8",
"t. c #CF53B4",
"y. c #C665B9",
"u. c #CD6FB4",
"i. c #DA5BB3",
"p. c #A539C5",
"a. c #B453C3",
"s. c #BC54C4",
"d. c #BB57C8",
"f. c #BB67C5",
"g. c #C857D4",
"h. c #C865C6",
"j. c #D370CD",
"k. c #ED4FE8",
"l. c #CD8BB8",
"z. c #E991D2",
"x. c #D2AFCF",
"c. c #E5B8C9",
"v. c #F9A8E7",
"b. c #EEB0EC",
"n. c #EBCBD4",
"m. c #774A57",
"M. c #774590",
"N. c #35281D",
"B. c #3B2C24",
"V. c #74554A",
"C. c #A83595",
"Z. c #CE37CD",
"A. c #D8B9C9",
"S. c #D9B9D5",
"D. c #E7A9D8",
"F. c #E6B7D7",
"G. c #785655",
"H. c #F392EC",
"J. c #753469",
"K. c #AA54A9",
"L. c #D44ED2",
"P. c #D1B6B7",
"I. c #C987C7",
"U. c #DAA3E3",
"Y. c #F8B6D8",
"T. c #D4C4CF",
"R. c #533B39",
"E. c #514334",
"W. c #473248",
"Q. c #472557",
"!. c #521C6A",
"~. c #673378",
"^. c #6C2B8B",
"/. c #732C94",
"(. c #783397",
"). c #7B33A5",
"_. c #963899",
"`. c #8332A4",
"'. c #8934B7",
"]. c #9945A8",
"[. c #A749AA",
"{. c #B54BAA",
"}. c #B656AA",
"|. c #AC4CB4",
" X c #AC4CBB",
".X c #B34DBC",
"XX c #AC53B7",
"oX c #B453B4",
"OX c #BB53BC",
"+X c #B958B7",
"@X c #C557BA",
"#X c #9935C4",
"$X c #AA46C4",
"%X c #B74AC6",
"&X c #B350CD",
"*X c #9C45C4",
"=X c #C64BC7",
"-X c #C354C4",
";X c #C355CB",
":X c #C45ACB",
">X c #C859C7",
",X c #E94FD2",
"<X c #E96ED3",
"1X c #D48ECF",
"2X c #FAB7E6",
"3X c #F6CDE9",
"4X c #1D1C1C",
"5X c #5B4546",
"6X c #684A46",
"7X c #5F4F64",
"8X c #ECDBE0",
"9X c #B234CA",
"0X c #F471EB",
"qX c #F3ACD1",
"wX c #6F4F50",
"eX c #884C72",
"rX c #B16899",
"tX c #B98DC9",
"yX c #BAC5B2",
"uX c #DFC4B5",
"iX c #68431E",
"pX c #1A1817",
"aX c #381C29",
"sX c #CE28AC",
"dX c #D8C3C8",
"fX c #BAB0A7",
"gX c #D1C5B7",
"hX c #E839DD",
"jX c #3A2425",
"kX c #D657E4",
"lX c #8A3275",
"zX c #2F2B5C",
"xX c #B425CF",
"cX c #835558",
"vX c #594739",
"bX c #69503A",
"nX c #B46BAC",
"mX c #64493A",
"MX c #6B1B64",
"NX c #B88AB4",
"BX c #E3AAB7",
"VX c #4D1732",
"CX c #9B1998",
"ZX c None",
"AX c #534652",
"SX c #8E626C",
"DX c #922EC4",
"FX c #342F19",
"GX c #513398",
"HX c #37444E",
"JX c #971A60",
"KX c #611828",
"LX c #341419",
"PX c #B91242",
"IX c #170617",
"UX c black",
/* pixels */
"ZXZXZXZXZXZXZXZXZXZXZXZXZXZXZXZX; > - 7 # 8 9 8 8 8 # 6 6 ; 6 6 9 9 9 9 y 9 # # w j 6 8 3 @ - + - - + - + - % - p - % p p - p - % + % % + ZXZXZX+ + + + ZXZX",
"ZXZXZXZXZXZXZXZXZXZXZXZXZXZXZX> > ; 6 w 6 6 8 6 # 8 6 8 6 ; 9 6 9 9 # 9 w w w e c k 8 9 ; ; - - @ - + - % % % + % + % + % p + % % % % % - ZXZXZXZXZX+ ZXZXZX",
"ZXZXZXZXZXZXZXZXZXZXZXZXZXZXZX> 8 i r c 8 w w j w # 6 8 9 9 9 9 9 9 w w n n v Z T Q.8 j 9 9 @ 6 - - - - p - + % + % + + p + % p ZXZXZXZX% % % p p $ % p ZXZX",
"ZXZXZXZXZXZXZXZXZX> > > > > = = : : r c z j z k z k 6 w 9 9 9 9 9 9 e w VXn Q.K I J l k 9 9 6 6 - - - - % % - % ZXZX- + - + % - % % % % p % + % % + % % % ZX",
"ZXZXZXZXZXZXZXZX> > > > > ZXZX> $ 8 8 8 j x ~.Y z z l k w e w # 9 e c c v v J U Q Q Z n e e w w 8 8 @ ZXZXZX+ % - + - + + p % % ZXZXZX% % + + + + - % + % ZX",
"ZXZXZXZXZXZXZXZXZXZX> > > > - > 8 i c 8 j l ~.[ m V z j w k k e y d V x !.J U W Q Q Z Q.k w 9 9 8 @ - - - p - - + % p % + % - p ZXZXZXZX% % % % % + % ZXZXZX",
"> > > > > > > > > > > > > > > > 8 8 x z v Q.(.M.Y U Q.Q.j z k z e b Q.J U Q ^.{ ' +.Q !.n b r w 8 8 - - - - - - + - $ p ZXZXp - + ZXZXZX+ ZXZX% % % % ZXZXZX",
"ZXZXZXZXZXZXZXZXZXZXZXZX7 > > > 8 i V x v !.M.).( Y Q.Q.x x k w l m J !.U Q ^./.#.+.Q R m n l l 8 8 6 6 : : + - - + + % % + - + ZXZXZXZXZXZXp % % % p + % + ",
"ZXZXZXZXZXZXZXZXZXZXZX> > > > > 8 c x J ] ^.*X9.$.(.Q.S D W.c c C C S H U Q +./.| #. .+.J Z x x r r 6 9 ; ; ; - - - p - - + % % % % % % - ZXZX% p % + % - ZX",
"ZX> > i > > > > > > > > : > > ZXZXr x x ] ] 8.XX(.' !.v D W.D x C C S L ` Q {  .&.#.+.CXT J V l c c 9 7 6 ; - ; - % % % - + % + + % % % - ZXZX+ ZXZX% ZXZXZX",
"> > > > > > > > > > > = > > > 7 r 0 j n ] ] ].].9.(.P J Z Z l D U W _ _ /.{ | `.$.:. . .U U J Z z l e y 9 9 ; ; % % p + % + + % ZXZXZXZXZX+ + % ZXZXZXZXZXZX",
"ZXZXZXZX> > > > > * > > > > ; > t q j k ~.~ ].9.(.6.L P I A T D W ~.^.` /./.`.:.:.;. ./.W W J J V l d e 9 9 6 ; - - - - + - p $ % - ZXZXZXZXZXZXZXZXZXZXZXZX",
"ZXZXi < > > > > - > : > > > > > < O 0 9 S S ~ Q U ` !.P I I L I _ ^.} /.| &.:.1.>.>.#. .' ^.L L K A M b e y 6 6 ; + - p - % + - % % % % % % % % % ZXZXZXZXZX",
"> > > > > = > > > > > > > > > > = < t e S v R R U U P L ~.I ~.Y ] ^.(.| X.&.>.9.9.2.>.&./.' L R I K M n b y 9 6 - - - - % p + + ZXZXZXZXZXZXZXZX+ ZXZXZXZXZX",
"ZXZXZXZXZXZXZXZXZX> > > > > > 0 3 3 e e C n R R P ~.R Q ~.Q Q ~ X.} o.=.,.*.;.2.8.8.2.;. .| Q W Q Q S S n M w w 6 # - @ - p - - % + ZXZXZXZXZXZXZXZXZXZXZXZX",
"ZX> > > > > > > ZXZXZXZXZXZXZXZX3 3 e y C n P v P Y R L ~.Q ~.] o.o.o.O.'.1.>.2.0.$X9.>.=.$.' ' W Q A A C m l w 8 6 - 6 - + @ - % % - - % % % + % + ZXZXZXZX",
"i > * = : > : > > > > ; 7 > 0 3 w l t b C C A S S R R Q ~ _ [ [ O.*.*.=.].:.].>.8.a.>.8.9.1.X.:.[ ' R R A S Q.Q.k k 9 6 - @ - + @ - % + p - + % + p % p - + ",
"* > i : > : : : > 7 > > > > i 7 w c l b M S S L S L R W [ [ $.(.,.O.;.*.>.>.0.8.8.a.>.>.1.8.X.).@.' Q R A P Q.C b k 9 6 ; - - - - + + - + % - + + % - p p + ",
"> : : > : > > > > > > > > > 9 7 c l l l C C L L R R _ (.(.(.*.).,.=.;.;.].8. X XXXXX].8.>.9.#.(.#.' ! Q P L K A C n e e 3 # - @ - - + % p % + ZXZXZX+ % p - ",
": > > : : : ZXZX; > ; ; 0 > 9 r r c l x Q.F L R E ~.' [ $.(.*.*.1.,.2.2.[.2. Xw.XX X8.0.1.2.`.).' ' ! ' ~.Q K K C n t e 9 9 ; - + - - % - % p - p p % + % p ",
"> : > = > : > > > > 6 > > 0 0 r l l m m K K W W ^.' | &.*.*.O.DX<.<.$X2.0.3.a.a.a.a.a.a.2.8.2.8.#.+. .#.(.] ~.P S C n z e 9 9 @ - - @ % % + % p - p - + + p ",
": > : > > : > > ZXZXZX7 7 ZXZXr l l V C K L W ] ] ^.X.`.o.*.,.DX<.#X$X4..X0.a..Xa.a.%Xd.1.8.8.2.=.=.| `.[ (.~.Y A Q.n n w 9 6 6 ; - % - % % % % + - p - + - ",
"> > > > > > > > ZXZXZX> ZXZXZXt l b Z Z U W { } X.X.*.,.<.DX*X&X4.4.%X$Xd.OX-Xs.s.OXa.a.>.3.0.>.<.;.&.;.$.$.[ [ Q P Q.Q.n z 9 9 6 - - % - + % + + p ZXZXZX% ",
"> > > > i > > > 7 > 0 7 > 6 r r b b Z K Y ` { o.o.).,.,.<.'.p.$Xp.$X$X$Xd.d.s.s.s.d.%Xa.0.$X2.2.<.<.:.;.$.$.[ [ ~.P Z Z n m w # - - % - % - % + % + p % + p ",
"i i : 7 : : 7 7 6 9 9 7 y 9 l l J T ` ` { } o.O.&.:.;.2.2.0.0.0.$X%X$X%X-X-X-X-Xs.-Xs.OXd.a.0.0.0.0.>.2.].>.6.:.[ ^.U U x x z j 9 @ ; - % - + % % p %   % p ",
"> : i : i 7 : : 6 6 9 9 ZXZXt l T T ` ..{ X.*.*.&.;.8.0.0.&X&X&X&X%X%Xg.-X;X-X-X:X-Xs.s.d.a.0.4.2.2.0.0.].>.9.6.(.(.Y ) J J l w ; 6 - - + - - % + % p % + ZX",
"ZX: : > > : > : 9 6 6 0 9 ZXZXm U U ^.^.} | ;.;.;.8.8. X%X&Xs.&Xs.&X;X;X-X:X>X>X>X-X-X%Xs.w.0.0.|.0.4.|.].8.8.>.:.O...) !.J l k 9 6 @ 6 - - - + ZXZXZXZXZXZX",
": 7 : > : 7 : 7 6 7 9 9 w r l l ] ` /.^.} | 2.8.8.8.$XXXs.&X&Xd.d.g.g.;X>X:X>X-X-X-X-X-Xa.%X.X|.0.|.0.|.0.0.8.8.9.O...` J P b k w 6 - @ - @ % % % % % % % % ",
"7 : : 7 : > : : 9 7 0 7 r r l m W ` ' /.| #.8.>.>.0.XX+Xa.d.s.d.d.:X;X;X>X>X-X>X-X-X:X-X.X.Xw.q.|..X|.|.[.0.|. X2.*.} } U !.Q.v 9 # ; 6 - + % + p % p % % % ",
": 7 : i 7 : 7 : 6 9 9 9 r r m W.W W /./.| #.8.8.8.0.w.a.a.d.;Xd.g.;Xg.:X-X:X:X@X>Xd.g.h.a.s.a.%Xq..X.Xq.[.|.8.].'.o.} | ` U v v w 6 6 @ - - % % % % X %   % ",
": 7 : 7 : 7 > > 0 6 9 r ZXZXV V Q _  .| #.#.8.8.0. XXXw.a.d.s.;X;X;X;X;X-X>X-X+Xd.-Xj.j.d.OXw.w.XXq.|.oX|.|. X8.X.} o.o.+.` !.!.w # 6 @ - - % % % p % p % % ",
"8 : 7 : > : > > 9 ZXZXZXZXd n C U W  .(.| #.2.8.]. Xw.w.s.s.;X-X;X;Xd.;Xs.h.>X:Xh.kX1X<Xd.a.w.q.w..X|.|.|.|.8. XX.} } X.{ +.!.v w # @ 6 - ZXZXZXZXZXZXZXp % ",
": > > : > > 0 > 7 9 7 r r l W.V L U ` /.o.#.=.4.*XXXXXXXOXOX-X-X;X;Xs.d.OX;X@X@XtXtXtXtX&X&Xw.w.|.w.[.XX|.XX'.8.{ } { ).] ) x z 9 6 6 @ @ - & + % & + % + % ",
"> > : > : > ; > 7 7 0 r l l V V P P ' '  . .=.<.XX*XXXXXs.w.-X%X-Xg.%Xd.q.-X@X@XU.tXkXtXf.&Xw.oX[.w.].K.0.XX`.:.+.} { o.U U x j 6 6 @ 6 + - % % + % % + % % ",
": 7 i > > > > > > 7 0 r c t m V P U `  .#.=.=.,.9.*XXXXXw.w.r.@X@X>X:Xh.e.y.j.j.U.S.tXf.a.w.d.%X[.XX].XX|.0.&. . . .{  .!.P n j 9 # 6 6 - @ % % % % % + % . ",
"> : : > = : > > > 7 0 0 l l x D P L ^. .+.o.=.-.9.*XK.XXXXoXr.q.r.q.s.:X+X+X1XI.b.b.tXf.a.w.%X%X[.XXK.XX8.0.| | o.X.{ { !.!.n x 6 # @ @ - & % % % & + % % + ",
": > : > = > > ZXZXZX0 r u l V V U U { { | | #._.>.>._.].XXXX+X+XXXXX9.tXI.tXS.U.A.S.}.nXw.oX%Xa.XXK.].XX].].| | ' | { ^.J T j k w 6 @ 6 @ - % % + % % % + ZX",
"ZX: ZXZXZX* > > > 7 9 0 l l l D U U { ..`.#.=.#.-.-.].[.XXXXoXw.+Xf.nX*XtXI.x.x.x.l.XX}.+Xw.a.%XoXXX[.XX_.`.X.|  . .` ^.J P j k 6 w 6 @ - @ % + % % + % % + ",
"> : : > > > > > > 7 ZXZXZXl x D U ) } (.=.#.CX#.=.3.0.XXXXXX X&X+Xe.tXtXU.S.x.S.x.x.}.}.w.+XoXoXoX|.|.w.#.#.#.| '  .+.` v J 9 2 6 6 @ 6 & @ % % + % . + % % ",
"> > > : > > > > 7 7 0 0 u c m W.) ` } | $.#.-.#.-.4.|.w.XXXXXX&X+XOXtXtXS.U.x.x.S.x.}.}.q.OXw.oXXX[.[.XX .$.`. .' +.!.U v Z w e 6 # 6 1 % % % & & % % %   % ",
": 7 : > : : > > 7 0 0 0 l l V V +.`  .X.:.#.>.3.4.4.q.w.XXXXtXtXx.F.P.A.T.x.T.T.x.x.tXj.+X}.w.q.|.3.>.0.$.;.&. .+.' Q +.j Q.6 t 6 @ 8 @ - @ % % % % % % % % ",
": : > > > > > > > 7 0 r u ZXZXZX` { | #.>.$.>.4. X%Xq.q.XXe.1XtXc.D.A.A.yXT.T.T.U.x.1Xj.oX+XoXw.q.|._.[.>.].&. .' +.!.` v v 9 9 6 8 - 6 - - % - X % X . . X ",
"7 : i : > > > > 7 7 0 r c l m V +.o.| &.-._.3.0.q..X|.XXXXnXx.U.F.F.P.A.yXT.x.yXx.P.I.NXK.+XoXoX|.3._.4.>.>. .+.+.' Q U x Q.6 6 6 # 8 @ - - % X % X % % % % ",
": > > > * > 3 > > 7 0 0 t l V V X.X.&.&.>.>.q.4.%X.XoXoXnXf.U.U.S.S.A.A.gXT.yXgXT.x.1XI.+Xh.oXq.|.0.>.3.$.>. ./.+.+.Q +.x Z ; 6 @ 8 @ - @ % + % . % X % X % ",
": > > i > > > > 7 0 9 r l l m V o.O.*.=.>.].w.|.q.q.{.{.nXtXA.x.S.F.P.P.gXgXdXA.yXyXT.x.U.kXOXOX5.q..X%X>.8.`.X.} +.) { Q.J 8 8 8 - - - - - % % - % + % - % ",
"> > : > > * ZXZXZXZX0 r ZXZXm V o.O.=.=._.].|.q.q.q.{.K.tX1XyXA.x.A.P.A.gXP.dXT.yXx.U.T.U.tXOX@Xq.q..X.X>.].:.:.X.} +.{ Q.J 8 8 @ - - @ + - @ + % % % % . % ",
": > > : : > > > > 7 0 u l c m V O.O.*.*._.>.q.{.q.q.K.K.x.x.dXP.A.A.A.dXuXBXdXP.T.T.b.U.kXU.&X%X4.s.0.a.>.0.2.=. .o.{ { zXJ 8 8 - 6 - - % % + - % + % + % % ",
": > : > > > > > 7 > r u l l x x O.O.:.=._.].r.q.q.{.}.7.x.x.P.P.A.A.dXdXBXuXuXP.T.T.S.S.tXkX&X%Xr.q. X.X].XX2.=.X.o.) { !.J 8 j 8 @ - - - @ - + & % % & % - ",
"> > > : > > - ; 6 9 0 r t l C W.` { O.,.<.p.=X=X,X,XH.0X3XqXdXP.P.dX8X3XuXBXuXP.P.n.S.x.b.x.tXnX%X%X.X%X0.0.2.>.X.X. . .S S VXj ; ; - - % % p % % % % % % % ",
"> > > > > > & 3 7 0 r r l l m D ) ` '.O.<.4.=XL.,X,X0Xz.c.qXA.P.A.uX3X8Xc.uXc.P.P.P.A.A.b.U.tXl.%X%X$X$X.X4.3.>.X.X.+.' !.v e # ; - - % - % ZXZXZXZXZXZXZXZX",
"ZX> = > > > ; 3 ; 0 9 r t l m A L L $.| 3.3.t.i.hXk.0XH.v.2XdXP.A.dXn.8Xc.A.ZXZXA.A.A.A.A.P.BXfXK.{.{.{.{.[.7.].O.o.+.+.C n 0 3 = % % & % % % % ZXZXZXZXZXZX",
"= > ZXZX> > ; ; 7 7 9 r t l b C P L ).#.-.5.t.r.hXhX<X0XY.Y.dXn.T.T.3Xn.A.c.F.F.A.S.S.x.P.P.BXBX{.{.{.[.[.[.>.>.*.o.) ` C C 0 0 = * = % $ % ZXZXZXZXZXZXZXZX",
"> : > > > = & ZXZX7 9 9 r t l m S H  .[ _.#.|.q.hXk.g.<X2X3X8Xn.8Xn.n.uXA.A.D.x.x.S.S.x.BXBXn.n.u.i.}.7.{.[.].>.O.O.) !.n m 3 ; = * = % % % ZXZXZXZXZXZXZXZX",
"> > : > > > > - 7 7 9 9 e l z M N S [ ' =.#.[.{.kXhX:X<Xv.2Xn.n.n.n.dXn.F.F.S.S.S.F.F.c.c.c.c.c.<Xj.}.7.[._.>.#.O.+.) !.n n 0 ; = * * % O ZXZXZXZXZXZXZXZXZX",
"> > : > : > = > ; ; 6 0 r u l b v S ^.' &.&.<.p.p.&X&Xf.l.P.yXgXfXuXuXuXF.n.n.F.Y.F.D.D.Y.Y.D.D.<X<Xy.{.3.>.;.*.) GXJ !.k k 3 ; = * % % % % % % ZXZXZXZXZXZX",
"> = > > > > > > 6 ZXZX6 r u t u S v Q ` o.o.<.<.&X&Xe.f.fXNXfXgXuXgXuXuXF.n.S.c.F.F.D.F.3XY.z.l.z.i.y.{.>._.o.+.+.` P J e e ZXZX% * % O * % % O ZXZXZXZXZXZX",
"ZX: : : : : : 6 > > 6 6 8 r r u !.J P R ^.' =.CX-.9X%X$X9.rXc.F.c.F.3Xb.3XS.x.A.Y.Y.Y.qXBXl.rXrXt.t.0.3.*.*.+.GXU !.x z z w ; ; % % % % % X % % % % % - ZXZX",
"ZX: : > : : > > ; 7 : 6 7 9 0 8 v J P R ' _ #.#.<.xX&X&XnXK.z.qXb.b.b.b.S.F.A.A.Y.Y.qXY.BXl.rXrXr.r.3.C.o.o.+.+.T !.j j 8 w ; - % % O % % % % * % % % * % % ",
": i : : : : 7 : > ; 6 ; 6 7 i r f t f h !.R ' #.CX5.Z.Z.L.L.0X0Xb.D.D.D.c.Y.c.c.qXqXz.l.t.}.[.[.q.3.#.#.+. .U !.x x j c 8 8 6 ; % O % O * % % % ZXZXZXZXZXZX",
": : i : : : > : > 7 6 ZXZX7 7 0 y f M g MXR ' #.CX5.9XZ.,XhX0X0XD.v.D.qXY.3Xc.c.Y.qXl.u.}.nXoXq.3._.| #. .} U !.x x c j 6 8 ; - % % % % % % % % ZXZXZXZXZXZX",
"ZXZX* * : : 7 7 ZXZX6 6 6 6 7 7 N.a bXbXm.G ~ @.sXsXsXsXhXhXk.k.u.BXqXY.3XY.BXl.u.}.7.7.5.-.CX<.@.@.! ! L T V V q 0 ; > 6 8 ; - - % % % % * % % * % % % % % ",
": > : : : : > > 7 > 7 6 6 6 7 9 a N.cXV.m.( 6._.C.C.C.sXZ.Z.hXhXBXz.Y.Y.Y.Y.ZXZXZXZX{.{.4.9XDX<.lX@._ Q Y L Q.x q y > > : 6 : - - * X % % % & % - % % % % % ",
": * > : : : 6 ZXZXZX6 ; 6 6 9 9 B.N.V.V.m.m.eXeXeXeXC.6.>.[.{.}.i.u.l.i.<Xl.t.rX7.7.C._.%.CXCXMXMXH S S V x l w < = O O 6 : 6 - % % % * % % % % % % % % % % ",
"> i : : : : : ZXZXZX> 6 ; 7 7 9 N.a cXV.m.wXlXeXeXSXlXlX0.|.[.t.<XBXu.i.l.ZXZX7.C._.C._.CX#.! CXN v S Q.x x l r = < % O 6 - - @ = % % % % % * % % % % % % - ",
": > : = i : > : & > 7 > ; ; & & wXG.^ ^ 6Xm.cXcXcXcX( G.B ( ( ( eXeX( J.J.G E J.E J.G K F F S N M W.y d d r 9 9 6 ZXZX@ - - - - % % % ZXZXZXZXZXZXZXZXZXZXZX",
": * = * O * > : ; ; ; ; > 6 & & wX7XmXvXm.cXZXZXcXm.m.m.AX( G ( ( J.E H H G H E E E E F S S C S M M b f r e 9 6 6 6 6 ; - = - - O & ZXZXZXZXZXZXZXZXZXZXZXZX",
"ZX: : > : : : : & > > - - - & + ^ 6XvXmXV.bXbXbXG 6Xm.m./ / G B G B N N M N N N N N N M M d f f B B AXAXq 0 1 1 & , ZXZXZXZXZXZXZXZXZXZXZXZXZXZXZXZXZXZXZXZX",
": > > : > > : > > > & ZXZXZX+ % 5X6XmXmXmXmXmXH bXm.wXm.F / B B B F N N F N N C N M M M n VXn n F / 5XB g t 4 & @ & ZXZXZXZXZXZXZXZXZXZXZXZXZXZXZXZXZXZXZXZX",
"ZXZXZX: : : > : > > ; & > & % + ZXZXZX^ bXmXbXV.wXG.G.G.6X5Xf f f f a f f f f f d M d f M f N h h f s g B E.u 3 & + ZXZXZXZXZXZXZXZXZXZXZXZXZXZXZXZXZXZXZXZX",
": > * : > : : > > & > > & & % % vXvX^ bXmXiX6XbX6XwXZXZXB B f f f d d f n d d f f f f f VXf d h g f a h E.u g u ZXZXZXZXZXZXZXZXZXZXZXZXZXZXZXZXZXZXZXZXZXZX",
": > : > > * : > > > > > ; > % % vXE.^ ^ vXvXmXmXbX^ 5X5XR.R.2 2 2 2 1 1 aX, 2 4 q s q ZXZXZXR.R.B R.g ZXZXZXZXZXZXZXZXZXZXZXZXZXZXZXZXZXZXZXZXZXZXZXZXZXZXZX",
"ZX: > : : = i : & > & & > - % - E.vXbXvXmXvXbXmX5XmXvX^ W.5XjX2 2 1 1 @ , 1 2 q q f a y ZXZXZXN ZXZXg s 5 5 u g . o ZXZXZXZXZXZXZXZXZXZXZXZXZXZXZXZXZXZXZXZX",
"* : : : : : > * > * = = - - = ZXZXZX5XZXZXZXZX^ vXvXE.g 4 , , & 3 & & @ o , 1 2 4 B.2 jX2 a h s a B.ZXZXZXg g 4 ZXZXZXZXZXZXZXZXZXZXZXZXZXZXZXZXZXZXZXZXZXZX",
": > : > * > : > * > = > = = + . u ZXZX^ bXvX^ ^ vXE.g B., & & & - @ ; @ @ & , 1 1 , jXjXjXZXZXh s a a s g s 5 < ZXZXZXZXZXZXZXZXZXZXZXZXZXZXZXZXZXZXZXZXZXZX",
": > : > > : : > - ZXZXZX= -   4X* i u E.vX5XvXZXZXZX< O % X % % p p p p     & - * % ZXZXB.< B.s s g s h s 5 jX+ ZXZXZXZXZXZXZXZXZXZXZXZXZXZXZXZXZXZXZXZXZXZX",
": : > * : : > : - > = > > - 4X4X< 3 ZXZX5XE.5XvXu < ZXZXZX  X   p p p pX4X4X. + @ + o o o N.jX4 ZXZXR.s 4 jXN.LXZXZXZXZXZXZXZXZXZXZXZXZXZXZXZXZXZXZXZXZXZXZX",
"i = : : > * : > > = > > - = + 4XpX  X % . & o & = & - + p p + p p $ p p p @ + @ ZXZX+ + . & < 1 4 5 a f 3 , @ ZXZXZXZXZXZXZXZXZXZXZXZXZXZXZXZXZXZXZXZXZXZXZX",
"ZX* ZXZXZXZX: ZXZX= & - & - % . % % % % & % o . X   p ZXZXZXp p p p ZXZXZXp ZXZX4X  .   . + , , 3 2 a jX< . @   ZXZXZXZXZXZXZXZXZXZXZXZXZXZXZXZXZXZXZXZXZXZX",
": : > : > > : * = & & & - > = % pXpX4X4XpX4X4Xp 4X4Xp ZXZXZXp $ % % - ; 6 @ - 4X4Xp 4X4XpX. + - & & , @ @ + +   %   ZXZXZXZX* * ZXZXZX* * ZXZXZXZXZXZXZXZXZX",
"ZXZX: > : : i = - - - > > & - % + 4X+ + 4XpX4X4X+ ZXZXp p + $ @ ZXZXZX: ; ; - @ + + 4X4X4X4X. + + + @         + X % % % ZXZXZXZXZXZXZX= ZXZXZXZXZXZXZXZXZXZX",
"ZXZXZX> > : > > > > > > > > = - - % 4X4X4X4X4XpX4X4X% - % % * - - > = > - > - > - % 4XpXpX4XpX4XpXZXZXpXpX4X4X+ % ZXZXZXZXZXZXZXZXZX% - % - * % * % % % % ZX",
"ZXZXZXZX> ZXZX> ZXZXZXZXZXZXZXZX> > % % 4X4X% % p p - ZXZXZXZX- - - - - - ZXZX> - - + + 4XpX4XpX4X4XZXZXZXZX4X    % % % % % % - % % & * * - = % * % % % % - ",
"ZXZXZXZXZXZX* > ZXZXZXZXZXZXZXZX- - - * ZXZXZXZX* - * * ZXZXZXZXZXZXZXZXZXZX= - ZXZX* - * % 4XpXZXZXZXZXp 4X4X% % ZXZXZXZXZXZX* % % - % = - * % - * - % % % ",
"ZXZXZXZX: > > > ZXZXZXZXZXZXZXZXZX* - * - = * = * % : * ZXZXZXZXZXZXZXZXZXZXZXZXZXZX= > > - p 4Xp p p 4X4X4X- = % * % - ZXZXZXZXZXZXZX= % - * % % - = * ZXZX",
"ZXZXZXZX> > > > ZXZXZXZXZXZXZXZXZX= ZXZXZX> ZXZX> * * - ZXZXZXZXZXZXZXZXZXZX: = - = * * = - * ZXZX- > : - = * - * % ZXZXZXZXZXZXZXZX* * % % = % % % % * * * ",
"> > > > > > = ZXZXZXZXZXZXZXZX* ZXZX> > * - - - * - = ZXZXZXZXZXZXZXZXZXZXZX= - > - % % % * - = ; > > > = > - * ZXZXZXZXZXZXZXZXZXZX= - * - - % = - = % = - "
};
