/* XPM */
static char *_a20353eb8434bd2f1c2a8740e7404e78vAgghH6n4FzEMlb_4[] = {
/* columns rows colors chars-per-pixel */
"78 86 256 2 ",
"   c #221D1D",
".  c #271D1A",
"X  c #24221D",
"o  c #2B231D",
"O  c #2A291D",
"+  c #231E21",
"@  c #291D28",
"#  c #321B36",
"$  c #1B2C29",
"%  c #252425",
"&  c #2A2524",
"*  c #252926",
"=  c #2A2925",
"-  c #262529",
";  c #2A262B",
":  c #26292A",
">  c #2B2A2B",
",  c #332523",
"<  c #342A24",
"1  c #33252C",
"2  c #3B242C",
"3  c #322A2D",
"4  c #3B2B2B",
"5  c #3B312A",
"6  c #2C2532",
"7  c #2D2A32",
"8  c #2B2638",
"9  c #322634",
"0  c #332A34",
"q  c #3B2B34",
"w  c #34253B",
"e  c #3A253C",
"r  c #352B3A",
"t  c #3A2B3C",
"y  c #3C2433",
"u  c #383138",
"i  c #283332",
"p  c #1D1F20",
"a  c #432B2A",
"s  c #46352B",
"d  c #442A3B",
"f  c #462837",
"g  c #493735",
"h  c #522E37",
"j  c #381C4A",
"k  c #3B2543",
"l  c #3C2B43",
"z  c #392747",
"x  c #3C2653",
"c  c #342E47",
"v  c #4A1C52",
"b  c #432B44",
"n  c #43254C",
"m  c #432B4B",
"M  c #492947",
"N  c #542A48",
"B  c #573748",
"V  c #452B53",
"C  c #4B2C54",
"Z  c #4C2B5B",
"A  c #532C5C",
"S  c #552857",
"D  c #4A3256",
"F  c #573358",
"G  c #653857",
"H  c #692E54",
"J  c #4B2865",
"K  c #542B63",
"L  c #5B2C6C",
"P  c #572768",
"I  c #583367",
"U  c #5A2976",
"Y  c #5B3375",
"T  c #4C306C",
"R  c #652969",
"E  c #663569",
"W  c #632C7C",
"Q  c #662A78",
"!  c #752A79",
"~  c #763679",
"^  c #6A5446",
"/  c #694657",
"(  c #764A6B",
")  c #5B2C85",
"_  c #6B2C84",
"`  c #662886",
"'  c #752B8A",
"]  c #6A3387",
"[  c #763489",
"{  c #6C2A94",
"}  c #742C9B",
"|  c #7B2C9C",
" . c #792897",
".. c #6B3395",
"X. c #7C2CA3",
"o. c #7929A7",
"O. c #772CB0",
"+. c #6D1D92",
"@. c #863789",
"#. c #842B9A",
"$. c #863599",
"%. c #8F2D8C",
"&. c #832CA4",
"*. c #832CAB",
"=. c #892BA9",
"-. c #952AA9",
";. c #8C33AB",
":. c #8836A8",
">. c #9638AA",
",. c #882CB5",
"<. c #952DB7",
"1. c #8C32B3",
"2. c #9737B7",
"3. c #A639A8",
"4. c #A53AB9",
"5. c #B12FB3",
"6. c #924892",
"7. c #AA4E99",
"8. c #9B44B6",
"9. c #8D49AB",
"0. c #A646B7",
"q. c #B74BB7",
"w. c #B453BC",
"e. c #B965B8",
"r. c #C64BB8",
"t. c #CF53B4",
"y. c #C665B9",
"u. c #CD6FB4",
"i. c #DA5BB3",
"p. c #A539C5",
"a. c #B453C3",
"s. c #BC54C4",
"d. c #BB57C8",
"f. c #BB67C5",
"g. c #C857D4",
"h. c #C865C6",
"j. c #D370CD",
"k. c #ED4FE8",
"l. c #CD8BB8",
"z. c #E991D2",
"x. c #D2AFCF",
"c. c #E5B8C9",
"v. c #F9A8E7",
"b. c #EEB0EC",
"n. c #EBCBD4",
"m. c #774A57",
"M. c #774590",
"N. c #35281D",
"B. c #3B2C24",
"V. c #74554A",
"C. c #A83595",
"Z. c #CE37CD",
"A. c #D8B9C9",
"S. c #D9B9D5",
"D. c #E7A9D8",
"F. c #E6B7D7",
"G. c #785655",
"H. c #F392EC",
"J. c #753469",
"K. c #AA54A9",
"L. c #D44ED2",
"P. c #D1B6B7",
"I. c #C987C7",
"U. c #DAA3E3",
"Y. c #F8B6D8",
"T. c #D4C4CF",
"R. c #533B39",
"E. c #514334",
"W. c #473248",
"Q. c #472557",
"!. c #521C6A",
"~. c #673378",
"^. c #6C2B8B",
"/. c #732C94",
"(. c #783397",
"). c #7B33A5",
"_. c #963899",
"`. c #8332A4",
"'. c #8934B7",
"]. c #9945A8",
"[. c #A749AA",
"{. c #B54BAA",
"}. c #B656AA",
"|. c #AC4CB4",
" X c #AC4CBB",
".X c #B34DBC",
"XX c #AC53B7",
"oX c #B453B4",
"OX c #BB53BC",
"+X c #B958B7",
"@X c #C557BA",
"#X c #9935C4",
"$X c #AA46C4",
"%X c #B74AC6",
"&X c #B350CD",
"*X c #9C45C4",
"=X c #C64BC7",
"-X c #C354C4",
";X c #C355CB",
":X c #C45ACB",
">X c #C859C7",
",X c #E94FD2",
"<X c #E96ED3",
"1X c #D48ECF",
"2X c #FAB7E6",
"3X c #F6CDE9",
"4X c #1D1C1C",
"5X c #5B4546",
"6X c #684A46",
"7X c #5F4F64",
"8X c #ECDBE0",
"9X c #B234CA",
"0X c #F471EB",
"qX c #F3ACD1",
"wX c #6F4F50",
"eX c #884C72",
"rX c #B16899",
"tX c #B98DC9",
"yX c #BAC5B2",
"uX c #DFC4B5",
"iX c #68431E",
"pX c #1A1817",
"aX c #381C29",
"sX c #CE28AC",
"dX c #D8C3C8",
"fX c #BAB0A7",
"gX c #D1C5B7",
"hX c #E839DD",
"jX c None",
"kX c #D657E4",
"lX c #8A3275",
"zX c #2F2B5C",
"xX c #B425CF",
"cX c #835558",
"vX c #594739",
"bX c #69503A",
"nX c #B46BAC",
"mX c #64493A",
"MX c #6B1B64",
"NX c #B88AB4",
"BX c #E3AAB7",
"VX c #4D1732",
"CX c #9B1998",
"ZX c #D658C7",
"AX c #534652",
"SX c #8E626C",
"DX c #922EC4",
"FX c #342F19",
"GX c #513398",
"HX c #37444E",
"JX c #971A60",
"KX c #611828",
"LX c #341419",
"PX c #B91242",
"IX c #170617",
"UX c black",
/* pixels */
"jXjXjXjXjXjXjXjXjXjXjXjXjXjXjXjX$ * - - # w k # ; ; > > ; 1 6 9 ; 9 6 @ 9 1 j k k j ; @ + & * % * % % % - % % + % % % % % % % % + % % + + % % + jXjXjXjX- - ",
"jXjXjXjXjXjXjXjXjXjXjXjXjXjXjXjX: p + - # 8 e @ ; > > > jXjX6 6 @ 6 6 6 9 9 w j k j 9 6 % & * * % % % % + - % - + % + % % + - + % % + % % + jXjXjXjXjXjX* jX",
"jXjXjXjXjXjXjXjXjXjXjXjXjXjX* - : - @ @ # # j w w w 9 0 6 9 6 6 6 # 8 9 e l Q.Q.Q.Q.k j 9 # & ; ; - - % % % % - jXjX+ % - p jXjXjXjXjXjXjXjXjXjXjXjXjXjXjXjX",
"jXjXjXjXjXjXjXjXjXjXjXjXjXjX* = : - - 6 # j l k e w 9 9 0 9 6 ; 6 9 w 6 k k v J Y J n n 9 9 0 ; > - - - % - % - - % - % % - jXjXjXjXjXjXjXjXjXjXjXjXjXjX+ jX",
"jXjXjXjXjXjXjXjXjXjXjXjXjXjXjX> ; 6 # w k Q.T T Q.n j k e w 8 8 7 8 z z Q.Q.!.U ^.U J v z k w w ; ; - - = * - + % % % % % % + - - jXjXjXjXjXjXjXjXjXjX% + % ",
"jXjXjXjXjXjXjXjX> * > - > * - jXjXjX8 w n C E ( Q.v z z l k r 8 8 8 z l Q.J U ` ] W P J n k w 9 7 7 > > - jXjXjXjXjXjX- - - - jXjXjXjXjXjXjXjXjXjXjXjX% % p ",
"jXjXjXjXjXjXjXjXjXjX- = - : > = # 6 z j v !.(.M.L P v v n z c c u c n n P !.+.` X.+.U U Q.Q.z w 9 9 9 6 ; @ ; ; % % - - jXjXjXjXjXjXjXjXjXjXjXjXjXjXjXjXjX% ",
"jXjXjXjXjXjXjXjXjXjX* > = = - > 9 9 n j !.P ..M.~.L Z Q.m n r r u c m Q.U R ` /. .{ ` Q C Q.l k r 0 9 9 6 9 ; ; ; % - * jXjXjXjXjXjXjXjXjXjXjXjXjXjXjXjXjXjX",
"jXjXjXjXjXjXjXjXjXjXjXjXjXjX> > 8 r x v W _ M.9.6.M.v S C n M M Q.T T T U ` +.+.=.`.' [ Z P n n k e w 9 6 9 ; ; ; ; % % % % jXjXjXjXjXjXjXjXjXjXjXjXjXjXjXjX",
"jXjXjXjXjXjXjXjXjXjXjXjXjXjX> > r r j n W ] 9.9.M.[ !.v M b D M J T U U ` ^. . .:.=./.^.S P j n k k w # 9 9 6 ; ; ; = % & & jXjXjXjXjXjXjXjXjXjXjXjXjXjXjXjX",
"jXjXjXjXjXjXjXjXjXjXjXjXjXjXjXjXl u n M ~ [ 9.9.M.M.P J S Q.S A U Y ) ) ^. .X.&.:.;. .#.R Q P v n n k j 9 w 9 jXjX; - = % % * * jXjXjXjXjXjXjXjXjXjXjXjXjXjX",
"jXjXjXjXjXjXjXjXjXjXjXjXjXjXjXjXu r v Q.~.[ 9.6.[ M.R P S S F S Y ] ` `  .} &.:.>.>.#.(.Q Q P !.M Q.n k w w 6 9 , ; & & O % = % jXjXjXjXjXjXjXjXjXjXjXjXjXjX",
"jXjXjXjXjXjXjXjXjXjXjXjXjXjXjXjX> 0 e k J Q.) ( Z P J !.H R R R ` { } { &.&.'.1.>.>.(.#.` ' !.Q A C V M r w 9 7 ; & = & jXjX* * jXjXjXjXjXjXjXjXjXjXjXjXjXjX",
"jXjXjXjXjXjXjXjXjXjXjXjXjXjXjXjX- 3 b e Q.v Y E v P Q.A R E E ~.` } X.+.&.:.'.'.>.9.X.`.+.' Q Q A Z V V t e 9 9 > - = % jXjX- - jXjXjXjXjXjXjXjXjXjXjXjXjXjX",
"jXjXjXjX* * * : * jXjXjXjXjXjX> > i l e n j A Z C I R P R R _ [ o.o.&.=.&.;.2.2.8.8.;.:. .$._ ' G F A C W.b r w 9 9 ; ; % ; % % - - jXjXjXjXjXjXjXjXjXjXjXjX",
"jXjXjXjXjXjXjXjX* : jXjXjXjXjX> > > w e n n Z C S I R R Q ! ' (.o.o.*.&.&.>.2.*X0.0.>.8. . ._ ' E E F A D M d e q 9 9 , ; & ; jXjXjXjXjXjXjXjXjXjXjXjXjXjXjX",
"jXjXjXjXjXjXjXjXjXjXjXjXjXjXjXjXc c r w m n Z C B F R E /.(. . .o.,.<.,.0.2.4.4.0. X>.].>.]. .(.{ { Y ) Z Z D b t r 3 1 & ; ; ; - % - % % - % ; % - jXjXjXjX",
"jXjXjXjXjXjXjXjXjXjXjXjXjXjXjXjX8 j r t b b Z Z F F E E _ _  .| ,.*.#X<.8.2.8.0. Xw.>.>.8.8.| (.{ ` ) U I A W.C b d q 1 3 & ; ; & jXjXjX; % - % % = - % % - ",
"jXjXjXjXjXjXjXjXjXjXjXjXjXjXjX7 8 8 t u M W.A I I E _ ] /. .| :.<.*.<.-.p.2.0. X|..X>.].>.8.`.| { ^.` ^.Y P A Z M b t y 1 3 6 ; ; - % - % % - % - % jXjXjX= ",
"jXjXjXjXjXjXjXjXjXjXjXjXjXjXjXjXi 8 t d W.C F I E ~.] [  . .&.:.,.=.2.2.0.4.$Xa..X.X>.0.:.8.:.`. .{ ` ` ~.Y A Z W.M u q 9 9 ; 6 jXjX- - % - % ; % % ; % % - ",
"jXjXjXjXjXjXjXjXjXjXjXjXjXjXjXjX4 q b W.A A U ` ) ` { { X.).=.*.-.;.4.4..X4.q.OXs.OXa.d.>.0.8.>. . ././.] ] Q P A N d l y 9 9 ; ; @ - - % - - - jXjXjXjX% ; ",
"jXjXjXjXjXjXjXjXjXjXjXjXjXjXjXjX0 f b M A L Y ` ] ....} :.'.:.:.-.2.%X4.%X0.OXs.s.s.d.:X8.0.8.8. . .(.$.[ [ Q L F C W.l r y 9 9 6 ; - - % % - - jXjX- % % % ",
"jXjXjXjXjXjXjXjXjXjXjXjXjXjXe q d b v K ) ` } } ).{ O.).&.;.2.2.4.4.%X0.s.q.%X-XOX%XOXd.3.4.0.>.;.=.$.2.:.:. .+.` ` !.!.Q.Q.e e ; ; ; - - % - * - jXjXjXjX% ",
"jXjXjXjXjXjXjXjXjXjXjXjXjXjXjXe d M S P ) ) { O.} (.*.X.:.1.2.*X$X4.%X4.-X%X>Xs.-Xs.a.;X4..X X4.>.-.>.8.>.>.#.#.+.` U U J Q.k k 9 ; ; - % % - - % = - % ; % ",
"jXjXjXjXjXjXjXjXjXjXjXjXjXjXe t Q.A U W +.^.}  .| X.'.*X8.8.$X0..X.X%X%X=X;X;X-X-X;XOX%X;Xs.0..X0.0.2.>.:._.6.9.` Q L L S A k k 7 9 ; 6 - - % $ - * % * * * ",
"jXjXjXjXjXjXjXjXjXjXjXjXjXjXjXb J P U ` { { } } ).`.8.*X$X$X$X$X$X%X;Xs.-X;X;X-X-X:X%XOX:Xs.4.4.4.>.8.>.].9.$.6./.^.Y Q Q.S k k 9 6 ; ; - - % % jXjX* * * * ",
"jXjXjXjXjXjXjXjXjXjXjXjXjXjXb b U Y { } +.o.*.*.:.9.8.8.%Xa.a.s.-Xs.-X;X;X;X;X-X;X>X-X-X;X-X3.3.[.4.|..XK.[.].].:.:._ _ !.!.n k 9 9 6 - - ; - * % * * % % * ",
"jXjXjXjXjXjXjXjXjXjXjXjXjXjXjXM U ` } } X.X.*.;.>.8.$X$Xa.d.:X:X;X;X;X;X;X:X;X;X;X-X-X-X-X@Xq.q.q.0.0.0.|.].[.].;.:.[ ^.MXR n k r 6 6 6 ; - % * - * % % * % ",
"jXjXjXjXjXjXjXjXjXjXjXjXjXjXjXb ` ` ).} O.O.=.1.>.[. X.XOX-X-X-Xd.;Xd.;Xd.d.-X>X-X-X@X@Xr.+Xq.q.{.|.q.|.|.[.[.].>.;. .(.` ^.C n w 9 6 ; > - * * * * jXjX% % ",
"jXjXjXjXjXjXjXjXjXjXjXjXjXjXjXM U _ } } O.*.;.>.8.0..Xw.OXOX%XOXd.d.;Xd.:X:X>X>X>X-X>XZXr.r.r.@Xq.q.q.q.{.|.[.8.;.:./.| ^.+.Q.n r 9 6 6 - - - : jXjX* % % - ",
"jXjXjXjXjXjXjXjX; jXjXr t l b M P L ^.^.#.$.$.>. Xa.XXw.OXq.-X-X-X-X-X;X:Xd.-Xd.@X@Xj.ZXr.{.-Xr.w.q.|.[.|.|.[.|.`.&.} | /.^.m n r 9 6 6 ; ; : - * * % * * * ",
"jXjXjXjXjXjXjXjX> 6 9 9 k t b b P U ^./.#.#.$.>.a.XX0. Xq.-Xq.-X%X-Xd.:Xd.d.h.@X@X@X<X<Xr.r.@X@Xq.q.{.[.[.[.8.0.| #. .| ^./.Q.z r 6 7 6 > ; : : - * % * * * ",
"> jXjXjXjXjX* jXjX> 7 r k n m C U U ` ..#.&.>.>.*Xa.a. Xq.OX%Xr.;X;X;X;Xa.a.e.e.j.j.j.z.=X-X>X>X|.oX|.|.a.*X9.2.| | } ).` { n x r 9 7 ; > - * = * % * * * * ",
"7 jXjXjXjXjXjX= > > 9 jXjXz m M T U { { &.=.#.>.XXa.w.w.r.OXr.s.s.=X;Xg.w.d.e.h.z.1Xj.j.q.q.OX-Xq.+X|.oX*X&X:.:.| X.{ (.` { n k 9 r ; jXjX: jXjX* - jXjXjXjX",
"jXjXjXjXjXjXjXjX> > 6 r z k m C !.U ` { &.&.-.-.9.*X X.XOXr.r.@X-X>XZX@Xe.e.h.1XU.H.1XI.w.q.w.s.w.OX0.w.XXXX`.| (.} ^.(.` ` n k 9 9 ; 6 > = * jXjXjXjXjXjXjX",
"jXjXjXjXjXjX= > 7 > 7 r k z m C T U ^...&.&.#.>.9.9.0. Xq.OXOX@Xr.-XOXq.y.e.j.U.v.b.j.f.w.+XOXq.w.w.XX X$X8.(./.} } ^./.U U n z r 9 0 ; * - * * * * jXjXjXjX",
"jXjXjXjXjXjXjX= > > 9 r z z m C ) U ) ..&.&.#.=.$.>.>.|.q.oXq.@X}.@Xy.e.l.l.z.b.U.D.nXK.XXXXXXXXq.|.|.oX8.8.|  .} (._ [ !.P m z r 9 7 ; - = * * - % jXjXjXjX",
"jXjXjXjXjXjX= > > > 6 r k z m C U U ..).&.&.#.&.#.:.3.[.{.q.{.q.}.@XnXe.1X1XU.D.U.U.K.K.XXw.w.w.q.XX|..X>.>.#.(.| (.[ [ !.!.l z r w > ; > - * * % % O jXjXjX",
"jXjXjXjXjXjXjXjXjXjX9 9 k z b C U ) { ..&.=.#.#.#.<.4.q.|.|.XX+XnXrXl.j.D.x.D.x.x.U.nXK.e.w.a.w.XX X0.a.&.>.X.X./.(.R R C M w w 0 9 3 ; > = - : * * % * * % ",
"jXjXjXjXjXjX= > > > 0 r z l C D ` ) ..).&.&.CX#.-.3.|.q.oX|.oX-XrXK.l.I.D.x.S.x.x.S.nXrXXXK.w.w. X|.|.XX#.=.$.} ' (.S P n M c w 0 9 7 - > - * * % * * % * - ",
"> > : : = * > > > 7 r r l l m jXjX^.|  .=.#.-.4.3.4.q.q.XXK.j.1Xx.S.S.x.x.yXx.T.U.S.tXnXe.+X@X@Xd.|.>.3.;.2.&.&. .+.Q +.n n e w 9 7 ; ; > ; - > - * - * * = ",
"jXjX> : : > jXjXjXjXjXjXl z m C { ^. .| ;.&.>.4.4. Xq.|.K.oX1X1XS.F.S.S.T.x.T.x.T.U.tXtXe.+X-X-Xw.|.>.0.0.4.o. .' ' ` ` n n e w 9 7 > ; : - * = = - = - - - ",
"jXjXjXjXjX> jXjXjX7 0 r z x m C { { X.| >.-.4.4.4.OXw.q.nXnX1XU.x.T.T.T.T.T.T.T.A.x.tXNX}.}.-X-XXX|.>.[.>.>.&.o.+.o.+.` V n k k 9 7 ; ; - = - > - * - = = - ",
"> > : : : = > jXjXjXjXt z l m F +.+.| | >.3.4.0.q.s.OXoXnXe.1XD.T.S.T.T.T.T.yXyXA.x.x.I.h.e.@X+X|.|.0.[._.>.*.o. . .+.+.V n l e 9 6 ; - - - * - = % = - * * ",
"jXjX: : > : > > > i 0 r z m C C +.+.o.&.].8.q.3.q.OX}.}.NXNXx.A.x.T.S.A.T.T.T.T.x.T.U.x.tXf.a.w.w.XX|.|.>.>.>.:. . .{ { Z n l x 9 9 > ; - - - = - * - = - * ",
"> > > > : = > > > 7 0 r jXjXjXD O.o.&.o.>.3.q..Xq.%X}.+Xl.l.A.A.x.T.A.A.T.A.T.A.T.T.S.U.U.f.w.a.w.w.oXw.8.].8.8.X. .^./.D V m l 0 9 - ; - * > > = - * - = * ",
"> > > : > = > > > 3 9 r x l V C O.O.&.X.>.3.q.q.q.q.{.e.P.BXgXP.S.S.c.c.T.A.dXgXT.T.x.x.U.tX$XXXw.w.XXw.0.0.].9.} | ^.{ A Q.b z 9 ; > & > = - = = - % - - - ",
"> > : > * = = i i > 9 0 l x Q.Q.O.O.&.| >.3.OX=XOXOXK.@XA.x.gXgXS.A.n.n.dXA.P.A.T.T.S.x.j.tXa.e.w.w. Xw.|.0.8.:.| | { ^.F C z W.0 3 ; - - = - = - = - % = - ",
"i > : 7 : : > > > > 0 r b b K J o.{ o.X.3.3.t.t.Z.L.<XH.c.c.uXP.uXc.n.n.uXc.uXuXgXn.S.x.U.U.e.j.XXw.a.a.|.|.9.>.(.).^.^.P !.x x 7 > > > jXjXjXjXjXjXjXjXjXjX",
"jXjXjXjXO i = > < > 0 r n n Z A { { X.X.3.4.t.i.,X,X0X1Xn.Y.P.gXc.c.8Xn.c.uXdXP.P.dXS.A.F.S.1XI.w.e.$Xa.XXXX>.>.(.| ^.{ U U j x 7 7 > - = jXjXjXjXjXjXjXjXjX",
"7 i 7 : i < > 3 i < 0 0 l b M A R ~.| | q.5.t.7.hXk.0X0X3XY.uXuXc.c.3X3XF.c.F.S.A.A.A.A.A.P.BXBXK.XXK.K.|.|.].>.o.o.^.{ L K n j > jXjXjXjXjXjXjXjXjXjXjXjXjX",
": : 7 > > > > > jXjX3 0 l b M M L ~.| (.4.q.t.i.hXk.,X<XY.n.uXn.F.n.3Xn.c.A.S.F.S.T.A.A.x.BXuXBXK.jXjXXX|.oX>.>.} o.` ` C Q.e VX> jXjXjXjXjXjXjXjXjXjXjXjXjX",
"7 7 7 : i > < > > > 0 0 t l b W.) Y ] ] _._.5.q.hX,XZX<Xv.Y.n.uX8Xn.n.n.S.x.x.x.S.S.F.x.BXn.c.qXI.j.K.{.[.[.2.<.O.{ ) ) M m 9 y 0 > jXjXjXjXjXjXjXjXjXjXjXjX",
"i : > > > = i > 3 > 0 r t l b m Y ) ] ~.%.%.C.5.hX,XZX<XY.Y.n.n.n.n.n.n.F.F.D.S.x.F.F.F.n.Y.uXn.1Xu.{.{.[.3.;.;.O...U U M V 1 9 > > jXjXjXjXjXjXjXjXjXjXjXjX",
"jX: 7 > > i > > > i 0 0 r u l W.T U ..{ =.*.5.4.Z.Z.a.e.l.l.gXgXuXuXuXuXc.F.F.F.F.Y.qXF.Y.Y.BXqXj.j.:X.X3.>.$.| GX] I I b W.q 0 jXjXjXjXjXjXjXjXjXjXjXjXjXjX",
"7 > i > > > > > 3 3 7 0 r t u l T T { } o.*.CX<.=XL.d.h.l.fXgXgXuXBXuXc.n.F.S.S.F.3XD.D.2XqXz.l.<Xj.j.a.>._. . .] Y J K e e 0 4 > > jXjXjXjXjXjXjXjXjXjXjXjX",
"i > > i > i > > > > 0 0 0 0 t u T T J L (.[ ,.+.%XZ.C.r.rXrXBXc.qXqXb.b.b.b.S.c.Y.Y.qXY.z.BXu.rX-X>X|.3.-.=.&. .Y T Q.V r 9 < < > > jXjXjXjXjXjXjXjXjXjXjXjX",
"> > > > > > 7 > > > > 0 i u t t J J Q.J ' [ *.*.9X5.r.r.i.u.BXc.v.qX2Xb.3XF.F.F.Y.Y.Y.Y.z.l.u.rXOXq.3.3.=.-.&. .J J n n y 0 < = > > jXjXjXjXjXjXjXjXjXjXjXjX",
"> : > > > > > > > > i 0 i 0 0 u b y x x !.R [ ' CXsXZ.hX,X,X0X<XY.qXY.qXF.Y.c.n.Y.qXz.u.@X+XXX0.>.>.#.#.' #.Q !.Q.V z c 3 3 O = > > jXjXjXjXjXjXjXjXjXjXjXjX",
"i > > > > i > > 0 > 0 > 0 i 0 3 e 9 C D P R [ @.5.5.sXhX,XsX0Xk.v.qXY.qXn.Y.c.Y.Y.Y.l.l.y.@Xa.d.>.>.#.#.[ $._ !.V x l z 0 3 N.= > jXjXjXjXjXjXjXjXjXjXjXjXjX",
"> > > > > > i i > > i 0 i i 0 0 t 9 ^ ^ m.eX[ M.C.C.Z.Z.hXhX0X0Xz.BXqXY.3X2XBXl.nXnXrX}.>.0.<.,.$.$._ _ Q Q S S s q u jXjX8 8 7 ; jXjXjXjXjXjXjXjXjXjXjXjXjX",
"jX> > i > > > > i 0 > > > 0 > 0 t q V.G.SXSXM.6.sX5.sXZ.Z.Z.k.k.BXBXqXn.2X2Xl.l.u.rX}.}.0.$X#X<.[ @.[ (.Q Q F S u q i u 9 7 8 jXjX> jXjXjXjXjXjXjXjXjXjXjXjX",
"jX> > : > > > > 3 > 3 3 i 0 i 3 q q ( ( ( M.~.~ eXeX<.1.4.2.{.i.i.u.nXrXl.I.K.rX7.6._.@.%.#.! %.H R P R v Q.m m 5 < < < 8 8 c j > jXjXjXjXjXjXjXjXjXjXjXjXjX",
"> > > i 3 i i > > 0 i > 3 > 3 3 u g 7X( ( eX~ 6.eXeX>.;.4.3.3.C.BXl.l.nXe.NXK.nX6.6.@._.%.%.+.' E E S R S A m b 5 < > > 8 - c jXjXjXjXjXjXjXjXjXjXjXjXjXjXjX",
"jXjXjXjXjXjXjXjXjXjXjXi 3 i 3 > ^ ^ ^ ^ cXcXjXjXjXjXcXH m.( J.eXeXeXeXJ.J.( E J.( ( E E F F F B N N f f f t t t r 0 7 > 7 7 : 7 : jXjXjX* jXjXjXjXjX= - > = ",
"jXjXjXjXjXjXjXjXjXjXjXjX3 3 & - wXG.6X5XjXjXcX6XSXSXH cXG cXm.G eX( ~ J.J.E J.E J.J.E G H S S jXjXW.W.d t y t q r 9 > 0 7 > : : jXjXjXjXjXjXjXjX* > > * = jX",
"jXjXjXjXjXjXjXjXjXjXjXjXjXjXjX= 6XjXjXjXV.cXcXmXcXcXH m./ m.H G G G H S N S S F G F B C N M M jXjXAXG jXjXf q 1 jXjXjXjXjX: ; * jXjXjXjXjXjXjXjXjXjXjXjXjXjX",
"jXjXjXjXjXjXjXjXjXjXjXjXjXjX> * 6X^ 5X6X6XiXH 6XH cXcXcXG G B H G H H H H S H N N N M N M f M N / B 5XAXjXjXq 1 jXjXjX> ; : : ; jXjXjXjXjXjXjXjXjXjXjXjXjXjX",
"jXjXjXjXjXjXjXjXjXjXjXjXjXjX> = vXmX^ ^ mXmX6XjXjXSXG.( 6XG M h f f f f f f f f d h N h f N B R.g f g R.5XjXjXjX& ; 3 ; > : : : jXjXjXjXjXjXjXjXjXjXjXjXjXjX",
"jXjXjXjXjXjXjXjXjXjXjXjXjXjX: - vXmXV.^ mXmX6XV.G.G.G.G.B 5Xh d h f h N N N N N M f f f f h h N h h a h g jXjXu ; & ; > 7 jXjXjXjXjXjXjXjXjXjXjXjXjXjXjXjXjX",
"jXjXjXjXjXjXjXjXjXjXjXjXjXjX- = vXiXjXjXjXR.bXmXjXjXjXwX5X5Xt u a f a a a f f a f h h g h B B vXR.R.R.g g g g g @ ; ; jXjXjX> - jXjXjXjXjXjXjXjXjXjXjXjXjXjX",
"jXjXjXjXjXjXjXjXjXjX> > > > > = mXR.bXjXjXjXmXiX6X6X5X^ B B s 4 f f a aXaXy d a h f f a h h vXB R.B R.jXjXB.g R.& ; - 7 > > : jXjXjXjXjXjXjXjXjXjXjXjXjXjXjX",
"jXjXjXjXjXjX> > > > > > > > > - E.5XjXjXjXjXjX^ 5XvXvXvXs 2 < < O = < = < < jXjXjX5 5 < B.s s R.a B.jXjXjXjXjXjXjXjXjXjXjXjXjXjXjXjXjXjXjXjXjXjXjXjXjXjXjXjX",
"jXjXjXjXjXjXjXjXjXjX> > > > * * g E.jXjXjXjXjXjX6XvXg jXjX< < < o = O jXjXO B.< < jXjXjXa s jXjXjXjXjXjXjXjXjXjXjXjXjXjXjXjXjXjXjXjXjXjXjXjXjXjXjXjXjXjXjXjX",
"jXjXjXjXjXjXjXjXi > jXjXjXjXjXjX% jXjXjXjXjXjXjXjXjX5 B.< jXjX* & o % O X O & < = 3 < 5 N.a s s s g jXjXjXjXjXjXjXjXjXjXjXjXjXjXjXjXjXjXjXjXjXjXjXjXjXjXjXjX",
"jXjXjXjXjXjXjXjXjXjXjXjXjXjXjXjX& jXjXjXjXjXjXjXE.5 N.N.& < = O jXjXjXp . X jXjX= < = < N.B.5 a g R.jXjXjXjXjXjXjXjXjXjXjXjXjXjXjXjXjXjXjXjXjXjXjXjXjXjXjXjX",
"jXjXjXjXjXjXjXjXjXjXjXjXjXjXjXjXpXjXjXjXjXjXjXjX3 , = - = % % % - jXjXjX+ jXjXjX; @ - - , & 2 3 5 jXjXjXjXjXjXjXjXjXjXjXjXjXjXjXjXjXjXjXjXjXjXjXjXjXjXjXjXjX",
"jXjXjXjXjXjXjXjXjXjXjXjXjXjXO % jXjXjXjXjXjX& N.= o % ; % % + % jXjXjX+ @ + @ + + @ + + . & , 3 5 jXjXjXjXjXjXjXjXjXjXjXjXjXjXjXjXjXjXjXjXjXjXjXjXjXjXjXjXjX",
"jXjXjXjXjXjXjXi i jXjXjXjXjXjX> + pXjXjXjXjXjXjXjX  + + @ p - ; 7 i 7 8 9 7 @ p @ @ + + + @ ; 1 > , 1 jXjX; & jXjXjXjXjXjXjXjXjXjXjXjXjXjXjXjXjXjXjXjXjXjXjX",
"jXjXjXjXjXjXjXjXjX3 jXjXjXjXjXjXjXjXjXjXjXX . . X   4XpX$ @ - p u 7 7 u r r 8 + 8 8 p @ . @ + - % % % @ @ + . + - - = jXjXjXjXjXjXjXjXjXjXjXjXjXjXjXjXjXjXjX",
"3 i > 3 jXjX3 i jXjXjXjXi > 3 i > = - 4XjXjXjXjX  X = > > 3 > > > > i > 3 > > 3 = = - 4X    + + + 4X+ +   4X4X  * * > - > > - * jXjXjXjXjXjXjXjXjXjXjXjXjXjX",
"jX< i 3 3 > 3 < jXjXjXjXjXjX> > > > > * % * X % % * 3 i 0 i 3 > 3 > 3 > 3 i 3 i > = = % % % + 4X4X      4X  % % - > * = * = - = jXjXjXjXjXjXjXjXjXjXjXjXjXjX",
"jXi < i 3 > i i jXjXjXjXjXjXjXjXjXjXjXjXjXjX< = - jXjX> 3 i i i 3 jXjXjXjXjXjXjXjX= = - * * p 4X+ p 4X4X4X+ * - = - jXjXjXjX- > jXjXjXjXjXjXjXjXjXjXjXjXjXjX",
"3 3 i i > > > jXjXjXjXjXjXjXjXjXjXjXjXjX0 > > i > jXjXjXjXjXjXjXi i jXjXjXjX> > > > > > > : % X % + 4X4XjXjX> = > > > - - = * * > jXjXjXjXjXjXjXjXjXjXjXjXjX",
"jXjXjX3 3 > > 3 jXjXjXjXjXjXjXjXjXjXjX0 jXjXi 3 i u 3 > 3 > > > > i 3 jXjXjXjXjXjXjX> > > > jXjX* * - = * jXjXjX= = : = jXjXjX> * jXjXjXjXjXjXjXjXjXjXjXjXjX",
"> i i > 3 i i 3 jXjXjXjXjXjXjXjXjXjXjXjX5 i i 0 3 > > > > > jXjX3 i 3 jXjXjXjXjXjXjXjXjXjXjXjXjX- > > > > > > - - jXjX- jXjXjX* jXjXjXjXjXjXjXjXjXjXjXjXjXjX"
};
