/* XPM */
static char *_a20353eb8434bd2f1c2a8740e7404e78vAgghH6n4FzEMlb_5[] = {
/* columns rows colors chars-per-pixel */
"78 86 256 2 ",
"   c #221D1D",
".  c #271D1A",
"X  c #24221D",
"o  c #2B231D",
"O  c #2A291D",
"+  c #231E21",
"@  c #291D28",
"#  c #321B36",
"$  c #1B2C29",
"%  c #252425",
"&  c #2A2524",
"*  c #252926",
"=  c #2A2925",
"-  c #262529",
";  c #2A262B",
":  c #26292A",
">  c #2B2A2B",
",  c #332523",
"<  c #342A24",
"1  c #33252C",
"2  c #3B242C",
"3  c #322A2D",
"4  c #3B2B2B",
"5  c #3B312A",
"6  c #2C2532",
"7  c #2D2A32",
"8  c #2B2638",
"9  c #322634",
"0  c #332A34",
"q  c #3B2B34",
"w  c #34253B",
"e  c #3A253C",
"r  c #352B3A",
"t  c #3A2B3C",
"y  c #3C2433",
"u  c #383138",
"i  c #283332",
"p  c #1D1F20",
"a  c #432B2A",
"s  c #46352B",
"d  c #442A3B",
"f  c #462837",
"g  c #493735",
"h  c #522E37",
"j  c #381C4A",
"k  c #3B2543",
"l  c #3C2B43",
"z  c #392747",
"x  c #3C2653",
"c  c #342E47",
"v  c #4A1C52",
"b  c #432B44",
"n  c #43254C",
"m  c #432B4B",
"M  c #492947",
"N  c #542A48",
"B  c #573748",
"V  c #452B53",
"C  c #4B2C54",
"Z  c #4C2B5B",
"A  c #532C5C",
"S  c #552857",
"D  c #4A3256",
"F  c #573358",
"G  c #653857",
"H  c #692E54",
"J  c #4B2865",
"K  c #542B63",
"L  c #5B2C6C",
"P  c #572768",
"I  c #583367",
"U  c #5A2976",
"Y  c #5B3375",
"T  c #4C306C",
"R  c #652969",
"E  c #663569",
"W  c #632C7C",
"Q  c #662A78",
"!  c #752A79",
"~  c #763679",
"^  c #6A5446",
"/  c #694657",
"(  c #764A6B",
")  c #5B2C85",
"_  c #6B2C84",
"`  c #662886",
"'  c #752B8A",
"]  c #6A3387",
"[  c #763489",
"{  c #6C2A94",
"}  c #742C9B",
"|  c #7B2C9C",
" . c #792897",
".. c #6B3395",
"X. c #7C2CA3",
"o. c #7929A7",
"O. c #772CB0",
"+. c #6D1D92",
"@. c #863789",
"#. c #842B9A",
"$. c #863599",
"%. c #8F2D8C",
"&. c #832CA4",
"*. c #832CAB",
"=. c #892BA9",
"-. c #952AA9",
";. c #8C33AB",
":. c #8836A8",
">. c #9638AA",
",. c #882CB5",
"<. c #952DB7",
"1. c #8C32B3",
"2. c #9737B7",
"3. c #A639A8",
"4. c #A53AB9",
"5. c #B12FB3",
"6. c #924892",
"7. c #AA4E99",
"8. c #9B44B6",
"9. c #8D49AB",
"0. c #A646B7",
"q. c #B74BB7",
"w. c #B453BC",
"e. c #B965B8",
"r. c #C64BB8",
"t. c #CF53B4",
"y. c #C665B9",
"u. c #CD6FB4",
"i. c #DA5BB3",
"p. c #A539C5",
"a. c #B453C3",
"s. c #BC54C4",
"d. c #BB57C8",
"f. c #BB67C5",
"g. c #C857D4",
"h. c #C865C6",
"j. c #D370CD",
"k. c #ED4FE8",
"l. c #CD8BB8",
"z. c #E991D2",
"x. c #D2AFCF",
"c. c #E5B8C9",
"v. c #F9A8E7",
"b. c #EEB0EC",
"n. c #EBCBD4",
"m. c #774A57",
"M. c #774590",
"N. c #35281D",
"B. c #3B2C24",
"V. c #74554A",
"C. c #A83595",
"Z. c #CE37CD",
"A. c #D8B9C9",
"S. c #D9B9D5",
"D. c #E7A9D8",
"F. c #E6B7D7",
"G. c #785655",
"H. c #F392EC",
"J. c #753469",
"K. c #AA54A9",
"L. c #D44ED2",
"P. c #D1B6B7",
"I. c #C987C7",
"U. c #DAA3E3",
"Y. c #F8B6D8",
"T. c #D4C4CF",
"R. c #533B39",
"E. c #514334",
"W. c #473248",
"Q. c #472557",
"!. c #521C6A",
"~. c #673378",
"^. c #6C2B8B",
"/. c #732C94",
"(. c #783397",
"). c #7B33A5",
"_. c #963899",
"`. c #8332A4",
"'. c #8934B7",
"]. c #9945A8",
"[. c #A749AA",
"{. c #B54BAA",
"}. c #B656AA",
"|. c #AC4CB4",
" X c #AC4CBB",
".X c #B34DBC",
"XX c #AC53B7",
"oX c #B453B4",
"OX c #BB53BC",
"+X c #B958B7",
"@X c #C557BA",
"#X c #9935C4",
"$X c #AA46C4",
"%X c #B74AC6",
"&X c #B350CD",
"*X c #9C45C4",
"=X c #C64BC7",
"-X c #C354C4",
";X c #C355CB",
":X c #C45ACB",
">X c #C859C7",
",X c #E94FD2",
"<X c #E96ED3",
"1X c #D48ECF",
"2X c #FAB7E6",
"3X c #F6CDE9",
"4X c #1D1C1C",
"5X c #5B4546",
"6X c #684A46",
"7X c #5F4F64",
"8X c #ECDBE0",
"9X c #B234CA",
"0X c #F471EB",
"qX c #F3ACD1",
"wX c #6F4F50",
"eX c #884C72",
"rX c None",
"tX c #B98DC9",
"yX c #BAC5B2",
"uX c #DFC4B5",
"iX c #68431E",
"pX c #1A1817",
"aX c #381C29",
"sX c #CE28AC",
"dX c #D8C3C8",
"fX c #BAB0A7",
"gX c #D1C5B7",
"hX c #E839DD",
"jX c #3A2425",
"kX c #D657E4",
"lX c #8A3275",
"zX c #2F2B5C",
"xX c #B425CF",
"cX c #835558",
"vX c #594739",
"bX c #69503A",
"nX c #B46BAC",
"mX c #64493A",
"MX c #6B1B64",
"NX c #B88AB4",
"BX c #E3AAB7",
"VX c #4D1732",
"CX c #9B1998",
"ZX c #D658C7",
"AX c #534652",
"SX c #8E626C",
"DX c #922EC4",
"FX c #342F19",
"GX c #513398",
"HX c #37444E",
"JX c #971A60",
"KX c #611828",
"LX c #341419",
"PX c #B91242",
"IX c #170617",
"UX c black",
/* pixels */
"rXrXrXrXrXrXrXrXrX- - * = - = = = > ; 9 w 8 8 8 8 @ @ @ & o = = ; ; 6 8 ; 6 6 8 8 # - % % X % * * - * * % % % % % % - % % @ - rXrX- % % % rXrXrXrX% + % - % ",
"rXrXrXrXrXrXrXrXrX= = - - * % - > 3 ; 9 8 # zX8 @ 8 @ - & , = < 3 ; : 6 6 ; # 6 8 - - + X $ - $ % % - * % % % % % % % % % - % - - % % - % - rXrXrXrXrX% + % ",
"rXrXrXrXrXrXrXrXrXrXrXrXrXrX- = % = @ 9 j c AX7X8 8 8 - & > > - 6 ; 6 6 # 6 w k # j 6 + - * - * * * - - % % & % % % - % % - % % % % % % + - rXrXrXrXrXrXrXrX",
"rXrXrXrXrXrXrXrXrXrXrXrXrXrX% - = 3 6 ; 8 j D 7X6 # - 6 = & - > ; 6 6 6 6 6 w z z k 8 6 * : - - * % % % - * @ % % = % - % * * & - % % - - % - rXrXrXrX% + + ",
"rXrXrXrXrXrXrXrXrXrXrXrXrXrXrX- = 3 ; ; 8 c AXT # 8 # 8 @ @ 6 6 6 6 6 8 8 c j Q.Q.x z k 8 6 > > - - % & % % % - % - % % & % % = * - - - - - - * rXrXrX- % + ",
"rXrXrXrXrXrXrXrX- = * = = - - = X > ; 9 c c T 7X8 j 8 8 # 8 6 6 7 7 8 7 z c x Q.J Q.x k r 8 > : - % - % % % & % ; & % - % % % % rXrXrXrXrXrXrXrX* rXrXrXrX% ",
"rXrXrXrXrXrXrXrXrXrX* - - = = = > 3 6 : 8 - 8 8 8 j 8 @ 8 9 9 r 8 8 8 c x x J U U U Q.x z 9 7 6 * * - * % % * ; = % * = * % % * rXrXrXrXrXrXrXrX- - % % % rX",
"rXrXrXrXrXrXrXrX* = - = - * - - - - - ; c 8 j 8 8 8 8 8 6 8 9 w 8 r c c V V P U U !.Q.x l w 8 6 > * - % % % % % = - = * O & * * rXrXrXrXrXrXrXrX- - - % % % ",
"% % * * % % * * * * * - % * % * * - - & ; ; ; ; & & ; 3 9 9 y r l z Q.J rXrX` Q U U Q.n z w 7 7 > & - - * - & - - - & > & & % % - - rXrXrXrXrXrXrXrXrXrXrXrX",
"% - * * * % * rXrXrXrX* % % % = = - = - ; ; ; - o & ; 6 q 9 r y V z J J U U ^.+.U !.Q.Q.l k 9 7 > > > > = = @ % & % = > = * rXrXrXrXrXrXrXrXrXrXrXrXrXrXrXrX",
"rXrXrXrXrXrXrX- rXrXrXrXrX* = % = - * - - = - = & = 3 3 9 r d M v S U U ` /. .+.` ` J Z m z k w 3 3 > ; - - ; % @ @ - - - > - - % - rXrXrXrXrXrXrXrXrXrXrXrX",
": = * > rXrX= - = - > * > * * = = - - = - - = > & = 0 0 y q f M P I _ ^.^./. . .^.' L J V z r r 3 3 & 1 ; - - - ; 1 & 3 > & > & - = rXrXrXrXrXrXrXrXrXrXrXrX",
"rX- - - > - - > - > > ; - = - - - > = * - - ; ; > > 9 q b n Q.Z ! !  .#. .#.X.#.../.Q !.Z n k z e w 9 9 6 9 9 9 9 9 3 ; 1 3 ; ; ; & % - - - % % rXrXrXrXrXrX",
"> * - > - ; > - - - - > rXrX> - * = * = > > 7 > > 0 y r n N A K ! lX| #. .#.| X.(./.Q U K Q.n n l t w e 6 9 9 1 u r 9 3 & & ; ; % ; - % - = % - rXrXrXrXrXrX",
"rX; & & & > & & - > ; & = - = - - > * = 1 & 9 q 9 q b M S P L Q CX#.-.CX#.CXo.&.#.| _ Q U P Z Q.Q.n k k w e 9 9 D W.q 2 # @ 6 6 - - % % % - - - rXrXrXrXrXrX",
"; & - > - ; ; - - = & - - > - - = > - = 3 0 0 0 r t n m F K L Q CXCX-.-.=.#.X.&.#.`.[ ^.L L S Z Q.n k k k e y q C W.q q 6 6 6 @ ; ; rXrX% rXrX* rXrXrXrXrXrX",
"rX& ; 1 - ; ; 3 & > > > = > ; > ; : > > 9 r r k v J Q.Q.R U Q !  .#.,.1.).).).).).| /.' Y L B C b n k b v j A v K L v Q.z # 8 # - 6 - ; - rXrXrXrXrX- * rXrX",
"rX> ; & > & ; & > - - > > > ; > 7 > > 7 0 9 w l Q.Q.J P Q R Q ' &.&.,.1.9.:.).).| | (.{ Y L F B m n e n n v Q.Q.K A Q.Z w w 8 6 6 - - - - - rXrXrXrX* * = % ",
"> = - > > & & > - : = > = > 6 7 6 7 8 8 w 9 k l C A K K R R ' /.&.&.,.=.8.'.`.).*.X.CX+.Q _ R S F A n Q.Q.v R P L Y Q.P z x 8 8 : 6 : - - - rXrXrXrX- - % % ",
"& > = & = - = > : * > > > : 6 7 8 7 8 8 c z b m C S L L ~.~.' ' X.=.*.O.8.8.:.*.*.X.#.#.+.! S R E I Z Z A Z Q Q ] [ P L V V c # 6 : ; - - rXrXrXrXrX% - - * ",
"= - = > & & > = > rXrXrXrX> 7 7 7 9 0 0 0 t b M K I Q ~.[ .. .| o.).2.4.q.5.1.).=.=.CXCXCXCXMXR R Q P S MX!.! ~.8.8.^.] x V c 8 6 ; : ; - rXrXrXrXrX- % % & ",
"& = = & > = > & : : * - > > 6 9 9 7 9 r r t M D K I ~.~./.[ `.).O.).4.$Xq.9X*.*.-.-.CX5.CXJXR ! E ~ P L Q Q [ [ *X8.^.^.x x c i ; 7 ; - - - rXrXrXrX* % * * ",
"> = & > = > = = > ; > ; > > 6 8 9 r y q d M S F ) _ { { X.o.O.1.).O.0.%X=Xr.=.=.-.<.sXsXCXCX[ [ [ [ Q Q ' ' 6.6.&X*X} { x x i 8 6 rXrXrXrX- rXrXrXrX= - - = ",
"> & = > & & = - ; > & - > ; 6 9 9 r q q W.W.A F ` ] } ).).).'.'.).).%X=X=X=X>.-.<.CXsXxXsXCX@.@.~ [ ~.~ ' @.].].&Xp.} } zXx i 8 ; 6 : > - - rXrXrXrX* - % % ",
"> ; : : : : 8 : : 6 ; > ; 6 3 0 r t b b S A L Y } +.O.O.O.'.'.'.9.*Xr.r.L.r.3.0.'.'.5.5.-.CX(.[ ' [ ~ ~ @.$.9.].$X].~ ! m b : 8 6 ; : ; ; - : * * - - = - % ",
": : : : : : : : 6 ; ; ; 6 7 0 0 q t b b D A Y ~.o.{ '.O.DX'.'.2.8.*XL.r.t.=X8.$X8.'.5.<.3.-.(.^.[ [ ~ [ [ [ $._.].$.! ! m x i 8 > 6 > ; ; : - - - - = - = rX",
"rX$ 8 $ 8 $ $ 8 ; ; 6 6 6 6 3 0 t d V C U Y ^...o.X.DXO.DX'.$Xp.f.a.>Xr.=X-X[.8.#X#X#X#X-.5.o.X.#.[ [ [ [  .' #.%.' MXU n n : 8 7 ; ; : : ; ; - - = rXrX= - ",
": : : : : : : : 6 6 6 6 7 7 0 q u l C A ~.~././.o.'.'.'.#X#X#X$Xf.&X>X=XZX-X X X'.DXxXxX<.-.&.X. .(.' ' @.' ' ' @.' !.MXk z 7 8 7 8 : - : - ; - - - - = - * ",
"$ : $ : : i $ : 6 ; 6 ; 9 8 r u b W.A I ....).X.,.'.#X1.2.4.%X%XkXf.j.d.@X-Xw.h.DXxXDXDX<.<.,.=.&.&.|  .' ' ' Q ^.U !.!.k n 0 w > 6 > ; - - = - % = - = = - ",
"- i 8 : $ - : : 6 9 6 9 6 r u u l W.K I ] (.).O.,.'.#X<.#Xp.9X&Xj.d.g.g.OX>Xd.h.*X#X#XDX<.#X4.=.;.=.#. ./.' [ _ _ Q J !.n b r 9 7 6 > ; - - - - - - - = - * ",
": : rXrX: 6 ; : ; @ 9 6 9 9 l l b W.L E /.(.).:.#X<.2.-.4.4.=X;Xd.d.j.j.+X-Xd.:X9XxX#X<.-.#X4.=.;.1.,.*.| (./.' ^.` P U n C r r 9 6 ; > > - = - - = * - = - ",
"- rXrXrX: : - : 1 6 6 9 9 r l l M W.I E ..(.*.`.2.'.<.2. X.Xs.g.f.g.0XH.h.f.-XOXkXxX9Xp.2.9Xp.-.<.-.,.;.| /./.' ^.Q P U m m r e 6 6 : ; ; - - - - - - = = - ",
"> : - > ; : - - 6 ; 6 9 w z M m T U { ..| &.&.=.>.-.0.4.%X-Xf.@Xf.h.1XU.g.e.:Xg.g.;X%X&Xp.4.2.2.2.>.-.=.O.*.O.O.} ^.Q P Q.Q.y w 7 : 6 6 - - - % * - & % - = ",
": : rXrXrX> > = ; 7 9 9 w t n V ) ) { ..&.&.&.#.2.-. X0.s.s.+Xf.f.h.0XU.a.+X@X>X:X;X&X=X$Xp.4.2.3.<.<.-.'.O.,.O././.Q U m C r w 8 6 : : - - * = = - = % - % ",
"rXrXrXrXrX> > > - > 9 w k l C C ) ) } ).=.&.=.=.4.3.a.%X:Xd.f.f.1X1Xb.b.nXrXrXh.g.:Xg.d.d.&X9X&X4.2.-.-.'.O.'.'.(.[ _ U Q.C e w 8 6 6 - - - - % = % % = - - ",
"> > > > > > > > ; > 9 rXrXl V C ) ) } X.=.rXrX#. X$X;Xs.h.h.f.h.1X1Xb.b.e.e.y.}.d.s.&Xg.&X&X%Xg.%X4.4.>.'.'.'.O.(.(.[ ~ V C w t : 8 - 6 rXrX% % % = rXrX= - ",
"> > = > > > > > 3 3 r r l m C A +.{ ).o.=.=.-.<.%X&X:Xd.f.f.1Xj.tXtXS.b.1XI.j.y.d.&Xg.g.kXg.=X%Xs.s.0.4.8.2.O.). .(.[ W Q.C w e 6 : : : % - = % * & = % = * ",
": > rXrX> > rXrXrX7 r rXrXb Q.A ` { } } :.=.2.$X%Xd.d.s.a.f.1X1XtXtXU.b.x.I.y.y.f.a.;Xg.g.g.&X=X%XOX.X0.8.1.'.:.' (.~.Q C V k w 7 6 6 ; = - - % = * % * = - ",
": > > > > > > > ; 3 r r b n A A { } ).X.>.-.4.4.%Xd.q..XnXnXx.I.T.T.T.8XF.U.I.j.f.XX;Xg.&X=X%X%Xq.q..X.X8.2.:.O. .[ Q P M Q.0 9 8 7 ; ; - - - * O % % = - - ",
"> > > = > > > > > > r r l M A S { } X.#.2.2.4.%X&Xd..X.Xe.K.x.I.T.T.x.S.F.S.z.z.f.a.g.g.=X%X%Xq..X%X X0.8.'.).). .' Q P C m 0 e 7 6 6 - % rXrX- * % = % - * ",
"> = > > > > - rXrXrX0 0 b m U U o.o.X.&.-.-.4.$X%Xd.OXh.e.j.1X1XT.T.T.T.T.S.U.U.U.f.g.&X-Xq.s.=Xq.%X.X0.;.;.:.).' ' R !.C M 4 0 8 7 7 rXrX- = * * = & * - = ",
"> > = > rXrXrX> 7 7 3 u n V U Y } o.X.X.>.;.4.0.%Xs.OXh.f.I.z.I.T.S.T.U.S.T.3XU.U.U.f.f.-XOX%Xq..Xq.4.-.;.:.O.)./.' Q !.M M 4 4 7 7 7 rXrXrX- * & % * & - - ",
": = > : > > > > 7 i r u C Z W _ o.o.X.&.;.>.3.4..X%XoX+XNXl.A.x.T.x.T.T.T.T.S.S.U.1Xf.f.-X@X@XOX%X4.2.>.:.:.*.). ./.U !.M M 4 3 8 7 7 6 - - rXrX* % % % - = ",
"> > > > > > > > 7 7 u l Q.Z ` ` o.O.X.*.-.-.3.3..XOXoXe.I.1XS.x.S.rXrXyX8XT.b.b.U.1Xf.f.-X-Xq.q.3.4.>.-.*.;.O.).(.' Q !.C M 0 1 7 8 : > > * rXrX% = = * - - ",
"> : > = - = > > 7 i l c J K _ ^.O.'.*.*.>.>.3.rXrXq.oXy.P.x.dXdXT.A.uXc.dXn.n.S.b.U.j.tXd.OXs.%X%X4.>.-.=.*.).o.X.o.+.!.C V y 0 7 8 7 7 - - = = = = % * = - ",
"= > > > > > > > 7 8 l W.Z I ^./.'.O.:.;.rXrX5.q.%X.X{.j.D.F.n.dXn.dXn.dXgXdXn.S.3XU.H.1Xh.@X%Xs.%X4.4.-.`.:.).).X.+.) ) C V q w 8 7 7 > rXrX: > * % * & - - ",
"> > > > > > > > 9 u x b K L (.(.O.O.>.;.3.rXrXr.=X=XOXj.A.c.dXgXc.c.T.S.S.n.F.A.S.c.c.BXh.e.OXr.%X%X3.-.:.=.&.| o.o.+.!.J Z e e r 7 7 7 - rXrXrXrX% = % - - ",
": > > > = > > > 0 r b m K K (.(.:.'.>.2.4..X-Xr.;XkXj.z.A.F.P.gXc.c.n.F.S.dXT.n.c.A.c.c.e.+Xr.w.%X%X X>.#.;.`.&.o.o.` ` A Z e w 7 9 ; 7 - - rXrX% * & * rXrX",
"rXrX> > : 7 : : r r Z x U U X.=.9.].].|.q.r.t.Z.t.u.z.qXn.c.gXgXF.F.3X3XA.c.dXc.yXT.A.T.tXtXnXnX$X%X[.|.].].].:.*.&.+.{ P P k n 0 9 7 6 rXrX= - = * = * rXrX",
"rXrX7 : 7 : 7 i r t V x W U | =.XX8. X XOXr.L.t.y.y.z.D.dXdXgXrXrXn.3X3Xc.c.c.A.T.yXyXT.tXtXe.K.%X%Xq.w.K.[.].>.;.*.{ } U !.n y 9 r 9 7 > & > = * = & rXrXrX",
"rXrXi 7 7 7 7 3 l c D V (.M.1.8.].|.{.oXr.t.ZXZX0X0Xv.H.2Xv.2XY.T.S.S.8XA.S.T.A.T.S.D.D.j.j.>X@X.X%XoXK.[.[.].[.<.=.X.X.R !.M n y 0 0 9 > > > > * = % % - rX",
"rXrXrX: > i > 0 u r Z V (.(.'.2.[.[.|.oXr.>XZXZXk.0Xv.H.v.b.F.Y.S.n.8X8XA.A.A.T.A.S.D.b.1XI.g.-X%X%XXX{.K.K.[.[.*X1.o.*.` U v M r 0 ; 9 ; ; - > = = % = - = ",
"rXrXrXrX7 i i 7 u i D c ] [ 9.9.[.[.K.oXr.r.t.t.k.kXH.H.v.v.2X3X8X3X8XS.x.A.A.A.qXv.v.v.<Xj.,XL.>X-X}.}.7.7.K.[.*X8.:.:.] _ Z Z r y 0 ; > - > - * = % = * rX",
"rXrXrX7 7 : > 7 u u V V ] ] :.>.].].[.|.r.t.Z.t.L.,XH.H.2Xv.n.3X3X8XS.T.A.x.A.A.D.Y.v.z.ZXi.L.,X>X>Xt.}.7.{.[.{.$X X'.:.] ] A Z t 9 6 0 & - > = = * * & - % ",
"rXrXrXrXrX7 i i i 8 m l U U ..(.6.].[.[.5.t.r.r.{.}.l.1XA.P.P.gXc.c.S.S.A.c.c.A.BXqXz.z.t.t.i.ZXZXL.t.}.}.7.{.{.|.8.:.:...` K Q.q 9 3 0 rXrX* > * * - % - - ",
"rXrXrXrX7 : > 7 7 r c l T U ..(.$.6._.C.{.{.r.r.7.}.I.z.A.A.P.fXx.S.S.c.c.c.A.P.qXqXz.l.t.i.,XZXZXj.@Xt.{.7.{.3.8.|.9.:.] ` K Q.r 9 6 9 ; > > > = = - & = - ",
"rXrXrX7 rXrX7 > 7 0 l l C Z K E @.@.>._.[.|.{.q.{.K.}.[.j.l.v.v.v.v.v.v.v.v.v.D.z.z.u.u.y.t.@XnXr.@X{.3.|.|.].[.]._.#.(.` U J J q 9 6 9 - - rXrX% * - * = > ",
"> > : > > > > > 9 i l r Q.Q.P L ' [ 6._.|.K.{.q.{.}.+X7.u.u.z.v.v.v.v.v.v.b.v.D.z.u.y.t.@XnX+X+X@Xr.r.{.XX|.[.]._.(.' ' Y U !.J r 9 9 > > & rXrX= = = = - - ",
"rXrXrXrXrXrXrXrX7 3 r r l M S S R P 6.@._.6.].[.%XL.k.Z.,XL.Z.L.,X,X<X<X<Xj.ZXt.<XZX-Xr.t.@Xs.OXq.{._.%._.$.(.(.[ ' Q Q !.Q.zXx y 9 1 9 & ; = = = = = * - - ",
"rXrXrXrXrXrXrXrX7 7 r r k M C C P P [ [ $.@.>._.9XL.L.L.k.,X,XL.L.ZXj.0XZXj.h.ZXZX@X@X@X+Xr.@XOX{.[._._.>.$.(./.' Q R !.J !.x zXr 9 6 ; > ; > > = - * = = > ",
"> > > > > > > 3 > > 0 r t t M W.S C eXM.7.eXeX7.5.{.5.=XkX,XZXZXC.C.C.C.6.lX%.%.{.C.3.3.].].6.9.@.@.' ~ ] ] T J S !.M n c w 8 8 9 9 1 9 & > = > * = = * - - ",
"rXrXrXrXrXrXi > 7 0 0 0 t l M M N N 6.( eXeXlXSX{.5.r.5.ZXkXZX=Xr.5.7.C.7.C.7.C.{.C.[.C.$.$.$.(.[ ~ _ ~ ..) T T S S n M w c i 8 9 9 ; 6 > - - : - = * = rXrX",
"rXrXrXrXrXrXrXrX> > 7 3 0 0 u 5 VXa cXcXcXcXJXcXeXSXeXlX6.( eX( eXlXcXJ.m.G H H ! J.! R I P T K P !.v !.J J x x v M t b i i $ $ 6 9 > 6 ; > > = = - % - - - ",
"rXrXrXrXrXrXrXrXrXrX7 7 4 0 0 0 a a V.H cXcXcXeXSXeXcXm.eX6.eX6.SX6.lXcXG H H mXR MXMXMXL P I P !.J !.v J T J J v n t d i i $ $ 6 9 3 ; > ; > > > = = = > - ",
"rXrXrXrXrXrXrXrXrXrXrXrXrX3 < 1 wX^ wXrXrXrXcXcXcXcXwXm.G m.m.( m./ / H B B B N B B W.B W.B d d M M f d d rXrXrXrXr 3 0 7 7 > : > > & ; > rXrXrXrXrX> > * rX",
"rXrXrXrXrXrXrXrXrXrXrXrXrXrX1 , G.G.^ 6XcXcXbXcXcXcXm.m.G m./ / / G F B h N N N F F W.D M W.M g M M rXrXrXrXrXrXrXrXrXrXrX7 rXrXrXrXrXrXrXrXrXrX> rXrXrXrXrX",
"rXrXrXrXrXrXrXrXrXrXrXrXrXrX= & rXrX5XrXrXrX6X6Xm.V.rXrX6X/ B B B R.W.h h h d f f d d d y 2 y rXrXF rXrXrXrXrXrX0 3 rXrX: > rXrXrXrXrXrXrXrXrXrXrXrXrXrXrXrX",
"rXrXrXrXrXrXrXrXrXrXrXrXrXrX= = AX^ 6XmXbXbXrXrX6XrXrXrXrXrXrXN N h f f f f f f f f d d d d d M 6XrXrXrXrXrXrXrXrXrXrXrXrXrXrXrXrXrXrXrXrXrXrXrXrXrXrXrXrXrX",
"rXrXrXrXrXrXrXrXrXrXrXrXrXrX= & ^ ^ V.rXrXrXrXrXrXG.G.G.5XB f a f s q q 4 B.2 1 2 2 4 a f d h g rXrXrXrXrXrXrXrXrXrXrXrXrXrXrXrXrXrXrXrXrXrXrXrXrXrXrXrXrXrX",
"rXrXrXrXrXrXrXrXrXrXrXrXrXrX= & vX^ rXrXrXrXrXrXrXrXm.m.B 6Xf f 4 f 4 4 4 2 2 , jX< 2 2 2 2 f g h g rXrXrXrXrXrXrXrXrXrXrXrXrXrXrXrXrXrXrXrXrXrXrXrXrXrXrXrX",
"rXrXrXrXrXrXrXrXrXrXrXrXrXrX& & vXvXrXrXrXmXmXmXV.^ 6X6XvXB a a 5 < < N.= N.< < g g 5 5 g g R.B rXrXrXrXrXrXrXrXrXrXrXrXrXrXrXrXrXrXrXrXrXrXrXrXrXrXrXrXrXrX",
"rXrXrXrXrXrXrXrXrXrXrXrXrXrX= & vXE.^ rXrXrXrXrXrX^ 6XwXR.vX5 5 < < N.o O = B.5 g 5 2 jXa g R.5XR.R.rXrXrXrXrXrXrXrXrXrXrXrXrXrXrXrXrXrXrXrXrXrXrXrXrXrXrXrX",
"rXrXrXrXrXrXrXrXrXrXrXrXrXrX= 3 u rXrXrXrXrXrXV.mXvXvXR.s jXN.< FXO O O N.O N.N.B.< N.N.FXs s E.rXrXrXrXrXrXrXrXrXrXrXrXrXrXrXrXrXrXrXrXrXrXrXrXrXrXrXrXrXrX",
"rXrXrXrXrXrXrXrXrXrXrXrXrXrX= & rXrXrXrXrXrXrXrXmXvXR.rXrXN.N.O O O O O o FXN.FXrXrXrXrXB.rXrXrXrXrXrXrXrXrXrXrXrXrXrXrXrXrXrXrXrXrXrXrXrXrXrXrXrXrXrXrXrXrX",
"rXrXrXrXrXrXrXrXrXrXrXrXrXrXrXrX* rXrXrXrXrXrXrXrXrXa N.N.rXrX& O X X X . X O o & = N.< B.B.a rXrXrXrXrXrXrXrXrXrXrXrXrXrXrXrXrXrXrXrXrXrXrXrXrXrXrXrXrXrXrX",
"rXrXrXrXrXrXrXrXrXrXrXrXrXrXrXrXrXrXrXrXrXrXrXrXg a FXN., , & o X . X 4X. . X o o & N.N.N.FXB.5 rXrXrXrXrXrXrXrXrXrXrXrXrXrXrXrXrXrXrXrXrXrXrXrXrXrXrXrXrXrX",
"rXrXrXrXrXrXrXrXrXrXrXrXrXrXrXrXrXrXrXrXrXrXrXrX4 < & & = = % % % p       . + . + @ . % o , < B.rXrXrXrXrXrXrXrXrXrXrXrXrXrXrXrXrXrXrXrXrXrXrXrXrXrXrXrXrXrX",
"rXrXrXrXrXrXrXrXrXrXrXrXrXrX- rXrXrXrXrXrXrXrX< & o & & - + + + % % X % + @ . . + +   . . o , < rXrXrXrXrXrXrXrXrXrXrXrXrXrXrXrXrXrXrXrXrXrXrXrXrXrXrXrXrXrX",
"rXrXrXrXrXrXrXrXrXrXrXrXrXrXrX* - p rXrX% . rXrXo . % + - @ - - ; 7 3 i 0 3 - + % +   + @ o & & rXrXrXrXrX& @ @ % rXrX- : > rXrXrXrXrXrXrXrXrXrXrXrXrXrX- * ",
"rXrXrXrXrXrXrXrXrXrXrXrXrXrXrXrX= - + +   X   . .     + % ; & - > > > 0 > 0 1 % % - % 4X. + + & % - % & % rXrXrX+ & - = * - - * rXrXrXrXrXrXrXrXrXrXrXrX= rX",
"rXrXrXrXrXrXrXrXrXrXrXrX3 rXrXrX- rXrX+ % X   rXrXrX- = - > > - rXrXrX0 > 0 > > > = + + + + + + + . + + + +   4X% & % = - rXrXrX- = > rXrXrXrXrX> - > rXrXrX",
"rXrXrXrXrXrXrXrXrXrXrXrXrXrXrXi > > - rXrXrX- % * * > > > 3 > rXrXrXrXrX> > > > > - - rXrXrXrXrX+ + + + + 4X%   % % - - = = * rXrXrX* rXrXrXrXrX= * rXrXrXrX",
"rXrXrXrXrXrXrXrXrXrXrXrXrXrXrXrXrXrXrXrXrXrXrXrXrXrXrXrXrXrX7 rXrXrXrXrXrXrXrXrXrX> = * - p X 4X4XrXrXrXrX4X% % % - * rXrXrXrXrXrX= * rXrXrX- = rXrXrXrXrXrX",
"rXrXrXrXrXrXrXrXrXrXrXrXrXrXrXrXrXrXrXrXrXrXrXrXrXrXrXrXrXrXrXrXrXrXrXrXrXrXrXu > > > - * * X X p + p rXrXrX- * > & rXrXrXrXrXrXrX- > rXrXrXrX* = : rXrXrXrX",
"rXrXrXrXrXrXrXrXrXrXrXrXrXrXrXrXrXrXrXrXrXrXrXrXrXrXrXrXrXrXrXrXrXrXrXrXrXrXrXrXrXrXrXrXrXrXrXrXrX> : - > rXrXrXrXrXrXrXrXrX> rXrX> * rXrXrXrX> - rXrXrXrXrX",
"rXrXrXrXrXrXrXrXrXrXrXrXrXrXrXrXrXrXrXrXrXrXrXrXrXrXrXrXrXrX> rXrXrXrXrXrXrXrXrXrXrXrX3 > > > > > > > > > > > > > rXrX> rXrX= > rXrXrXrXrXrXrXrX> rXrXrXrXrX"
};
