/* XPM */
static char *_a20353eb8434bd2f1c2a8740e7404e78vAgghH6n4FzEMlb_6[] = {
/* columns rows colors chars-per-pixel */
"78 86 256 2 ",
"   c #221D1D",
".  c #271D1A",
"X  c #24221D",
"o  c #2B231D",
"O  c #2A291D",
"+  c #231E21",
"@  c #291D28",
"#  c #321B36",
"$  c #1B2C29",
"%  c #252425",
"&  c #2A2524",
"*  c #252926",
"=  c #2A2925",
"-  c #262529",
";  c #2A262B",
":  c #26292A",
">  c #2B2A2B",
",  c #332523",
"<  c #342A24",
"1  c #33252C",
"2  c #3B242C",
"3  c #322A2D",
"4  c #3B2B2B",
"5  c #3B312A",
"6  c #2C2532",
"7  c #2D2A32",
"8  c #2B2638",
"9  c #322634",
"0  c #332A34",
"q  c #3B2B34",
"w  c #34253B",
"e  c #3A253C",
"r  c #352B3A",
"t  c #3A2B3C",
"y  c #3C2433",
"u  c #383138",
"i  c #283332",
"p  c #1D1F20",
"a  c #432B2A",
"s  c #46352B",
"d  c #442A3B",
"f  c #462837",
"g  c #493735",
"h  c #522E37",
"j  c #381C4A",
"k  c #3B2543",
"l  c #3C2B43",
"z  c #392747",
"x  c #3C2653",
"c  c #342E47",
"v  c #4A1C52",
"b  c #432B44",
"n  c #43254C",
"m  c #432B4B",
"M  c #492947",
"N  c #542A48",
"B  c #573748",
"V  c #452B53",
"C  c #4B2C54",
"Z  c #4C2B5B",
"A  c #532C5C",
"S  c #552857",
"D  c #4A3256",
"F  c #573358",
"G  c #653857",
"H  c #692E54",
"J  c #4B2865",
"K  c #542B63",
"L  c #5B2C6C",
"P  c #572768",
"I  c #583367",
"U  c #5A2976",
"Y  c #5B3375",
"T  c #4C306C",
"R  c #652969",
"E  c #663569",
"W  c #632C7C",
"Q  c #662A78",
"!  c #752A79",
"~  c #763679",
"^  c #6A5446",
"/  c #694657",
"(  c #764A6B",
")  c #5B2C85",
"_  c #6B2C84",
"`  c #662886",
"'  c #752B8A",
"]  c #6A3387",
"[  c #763489",
"{  c #6C2A94",
"}  c #742C9B",
"|  c #7B2C9C",
" . c #792897",
".. c #6B3395",
"X. c #7C2CA3",
"o. c #7929A7",
"O. c #772CB0",
"+. c #6D1D92",
"@. c #863789",
"#. c #842B9A",
"$. c #863599",
"%. c #8F2D8C",
"&. c #832CA4",
"*. c #832CAB",
"=. c #892BA9",
"-. c #952AA9",
";. c #8C33AB",
":. c #8836A8",
">. c #9638AA",
",. c #882CB5",
"<. c #952DB7",
"1. c #8C32B3",
"2. c #9737B7",
"3. c #A639A8",
"4. c #A53AB9",
"5. c #B12FB3",
"6. c #924892",
"7. c #AA4E99",
"8. c #9B44B6",
"9. c #8D49AB",
"0. c #A646B7",
"q. c #B74BB7",
"w. c #B453BC",
"e. c #B965B8",
"r. c #C64BB8",
"t. c #CF53B4",
"y. c #C665B9",
"u. c #CD6FB4",
"i. c #DA5BB3",
"p. c #A539C5",
"a. c #B453C3",
"s. c #BC54C4",
"d. c #BB57C8",
"f. c #BB67C5",
"g. c #C857D4",
"h. c #C865C6",
"j. c #D370CD",
"k. c #ED4FE8",
"l. c #CD8BB8",
"z. c #E991D2",
"x. c #D2AFCF",
"c. c #E5B8C9",
"v. c #F9A8E7",
"b. c #EEB0EC",
"n. c #EBCBD4",
"m. c #774A57",
"M. c #774590",
"N. c #35281D",
"B. c #3B2C24",
"V. c #74554A",
"C. c #A83595",
"Z. c #CE37CD",
"A. c #D8B9C9",
"S. c #D9B9D5",
"D. c #E7A9D8",
"F. c #E6B7D7",
"G. c #785655",
"H. c #F392EC",
"J. c #753469",
"K. c #AA54A9",
"L. c #D44ED2",
"P. c #D1B6B7",
"I. c #C987C7",
"U. c #DAA3E3",
"Y. c #F8B6D8",
"T. c #D4C4CF",
"R. c #533B39",
"E. c #514334",
"W. c #473248",
"Q. c #472557",
"!. c #521C6A",
"~. c #673378",
"^. c #6C2B8B",
"/. c #732C94",
"(. c #783397",
"). c #7B33A5",
"_. c #963899",
"`. c #8332A4",
"'. c #8934B7",
"]. c #9945A8",
"[. c #A749AA",
"{. c #B54BAA",
"}. c #B656AA",
"|. c #AC4CB4",
" X c #AC4CBB",
".X c #B34DBC",
"XX c #AC53B7",
"oX c #B453B4",
"OX c #BB53BC",
"+X c #B958B7",
"@X c #C557BA",
"#X c #9935C4",
"$X c #AA46C4",
"%X c #B74AC6",
"&X c #B350CD",
"*X c #9C45C4",
"=X c #C64BC7",
"-X c #C354C4",
";X c #C355CB",
":X c #C45ACB",
">X c #C859C7",
",X c #E94FD2",
"<X c #E96ED3",
"1X c #D48ECF",
"2X c #FAB7E6",
"3X c #F6CDE9",
"4X c #1D1C1C",
"5X c #5B4546",
"6X c #684A46",
"7X c #5F4F64",
"8X c #ECDBE0",
"9X c #B234CA",
"0X c #F471EB",
"qX c #F3ACD1",
"wX c #6F4F50",
"eX c #884C72",
"rX c #B16899",
"tX c #B98DC9",
"yX c None",
"uX c #DFC4B5",
"iX c #68431E",
"pX c #1A1817",
"aX c #381C29",
"sX c #CE28AC",
"dX c #D8C3C8",
"fX c #BAB0A7",
"gX c #D1C5B7",
"hX c #E839DD",
"jX c #3A2425",
"kX c #D657E4",
"lX c #8A3275",
"zX c #2F2B5C",
"xX c #B425CF",
"cX c #835558",
"vX c #594739",
"bX c #69503A",
"nX c #B46BAC",
"mX c #64493A",
"MX c #6B1B64",
"NX c #B88AB4",
"BX c #E3AAB7",
"VX c #4D1732",
"CX c #9B1998",
"ZX c #D658C7",
"AX c #534652",
"SX c #8E626C",
"DX c #922EC4",
"FX c #342F19",
"GX c #513398",
"HX c #37444E",
"JX c #971A60",
"KX c #611828",
"LX c #341419",
"PX c #B91242",
"IX c #170617",
"UX c black",
/* pixels */
"yXyXyXyXyXyXyXyX> * * - = = - - 8 - 8 8 p c AXAXi 6 8 8 6 7 - = , = O o < , , o & @ & % * * - & * % % % % % % + % % $ p - % - $ - p - % + - yXyXyXyX% % % yX",
"yXyXyXyXyXyXyXyX= - > = - > - & - 8 - 8 @ 8 c HX: 6 : ; @ ; & = < o N.o , , , , @ & % O = % & % - % % $ p $ % $ $ % - % % % - p p - - % % % yXyXyX- - yXyX+ ",
"yXyXyXyXyXyXyXyX- = - - = - & > - - ; - - - 8 8 : - 6 - = = & > & < & = 1 1 1 & @ + X % yXyXyX% % * % X $ % - p p % % - $ % - p $ p + yXyXyXyXyXyXyXyXyXyXyX",
"yXyXyXyXyXyXyXyX> * > * : > ; ; ; 6 : 6 - 8 - - - 6 yXyXyX= & & O & o , , 1 , , % % % % = - % % $ % % $ % % - $ - % $ p p % - - % + - % - + % yXyXyXyX- % % ",
"yXyXyXyXyXyXyXyX> = * > - * - = & ; - > - = - - 8 6 ; : : = & & ; , 1 ; 9 9 9 @ % @ & % = - % - % % % $ + % % % - % p $ - $ - p % % % % + % % % yXyXyXyXyX- ",
"yXyXyXyXyXyXyXyX* - - = = > - - > & > - > - - - 8 - ; : = = > - 3 ; ; ; # 9 9 # @ @ % O = - & & $ * % $ % $ - p $ % - % % % - - p % % + % - + % - yXyXyXyXyX",
"yXyXyXyXyXyXyXyX- = yXyXyXyX& > - - > - = - * = - : : ; ; 3 ; 3 6 6 # 9 w e w # 9 @ - = - ; & % - % - - + % % $ - - % - % % p - yXyXyX- yXyXyXyX% % % % - yX",
"yXyXyXyXyXyXyXyXyX> > yXyX> > & - = = * - = > > - 8 6 6 3 0 9 9 9 9 9 w k k c w 9 9 & 1 & % % ; - % + % % % % - % - * % - % % - yXyXyXyXyXyXyXyXyX% % % % - ",
"* = % * - = % * * = & % = yXyXyXyXyXyX* - - > - = > > > 0 0 r l e t n b J zXc c u q 3 > ; ; ; - @ p p 8 8 p 8 8 6 @ - - & % - + - % yXyXyXyXyXyXyXyXyXyXyXyX",
"yX% = = & % = * % - % % % = yXyX> yXyX> > > ; > = = > > 9 0 e k t d m D AXT x c t t 3 3 & ; ; - 8 8 $ p p 8 @ 8 6 8 - - = = % % - - yXyXyXyX* yXyXyXyXyXyXyX",
"% & - = * % = = = yXyX- - * * = * : > > > - > > 7 7 r r e r n yXyXyXR ! Y L x x d e 9 4 3 ; , ; @ - p 8 # # 8 8 j 8 @ 9 o & @ ; % @ - * * * - - yXyXyXyXyXyX",
"; & > & & - - > = % = = = = yXyX> = > > > > 0 7 7 0 8 r e l M m MXH R J.~.~.zXx d f q 1 3 9 ; ; ; - # $ # 8 j j j j 6 6 , , @ ; % - - = * - yXyXyXyXyXyXyXyX",
"yX; - & ; ; - ; & - - = * - - - : > > > 7 > 7 0 r 8 c r l l yXyXJXPXJXCXCXCXU !.M M q y q 9 9 1 9 1 6 6 8 # j j x Z n # 1 # - ; ; @ & % * * - * yXyXyXyXyXyX",
"& > ; ; ; & & ; > - = yXyX= > > : > > > i 7 0 0 c r r c W.z Z A JXJXJXCX%.' W U N W.d y q 9 3 9 9 9 9 6 # 8 zXx J J k j 1 , 9 @ ; @ * yXyX& % % yXyXyXyXyXyX",
"yX& - & ; ; & - ; ; - - ; > ; > ; 7 3 0 0 0 q r k l yXyXm S P L sXPXsXPXCXCX/.` S S M n e e e e 9 9 9 ; # j T P Y Y n # 9 ; 6 ; - ; = % % % yXyXyXyXyXyXyXyX",
"yX; ; ; & yXyXyX; ; > - ; ; 6 > > > 0 0 0 q q t m l M M C F U Y PXsXsXsXCX_./.^.F F n M b d t t e 9 9 9 k k U Y T P n # 9 # 6 6 yXyXyXyX* & = = yXyXyXyXyXyX",
"yXyXyXyXyXyXyX> - & & > ; 7 > 0 ; > 9 q r t l m Z K R E Q ~.! _ %.%.5.5.3.5...] Q MXJXMXJXKXd t 0 > 0 9 v v U W 9.(...] z j $ 8 & ; - * - * yXyX= % - + % - ",
"yXyXyXyXyXyXyXyX- - > ; ; > 6 3 > 0 0 r d d M m I E E ~.~.~.~.[ %.lXr.5. X X[ ..E MXKXJXMXJXl b u 3 q 0 j n U ` 9.9.] ) j j - - - ; > * % yXyXyX- - % - % yX",
"yXyXyXyXyXyX> > > > ; > 9 ; 0 0 y y t d m F T U Q ] ] [ [ /.(./.CXCX5.r..X%X)...] W MXJXJXKXu t u t e w Q.Q.U ) 9.9.] U j j 8 8 - & = - = = - - yXyXyX% % - ",
"yXyXyXyXyXyX> & - > > > 9 0 9 0 r r d b S S T Y Q ~.[ [ ' [ (.[ CX_.Z.r.%X4.{ ..] _ JXJXJXMXAXc u t t r v Q.Y Y M.M.) T c j 8 $ & - - - - % - % yXyXyXyX% % ",
"yXyXyXyXyXyXyX> > & 6 6 9 9 r q t d C M P L W ~...[ (.(.(.).).).-.-.&X%X&Xp.O.O...) ! ! MXMXD x C M n n x n J x I T z z 8 8 - 8 ; - - - - - - = yXyX% % = - ",
"yXyXyXyXyXyX- > & > 6 0 9 0 r t u b M C L E ] ] /.[ `.$.:.).:.:.-.-.L.=X&X9XO.GX^...! lXJ.J.AXD W.M b b x Q.Q.Q.AXT j c j 8 6 6 ; ; - - - = yXyXyXyX% - - - ",
"yXyXyXyXyXyX> = & > 6 3 w q e l d b S F W W _ ^.| (.`.`.'.*.'.'.'.DX&X9X$X&XO.O.{ { +.%.~.! 7XD K S Q.Q.n n x x zXx j c 8 # @ 6 ; @ & - * - * - - - * - % % ",
"yXyXyXyXyXyX> - > ; ; 7 e w t l d d S I _ [ ^.(.| (.| (.'.'.'.'.9.#X&Xp.*X*XO.O.).} ' ' ~ ] T T R F C N V x x z z z j c # # 6 @ ; ; - - % - > yXyXyX- - - yX",
"yXyXyXyXyXyX: : ; 6 3 0 q r b m W.W.F R ^.^.| ).:.*.,.<.<.1.<.'.DX*X$X#X#X#X<.'.,.,.&.=. .| ^.' ` Q J J V m l r j c # c - - = = = - * = - yXyXyX- = - % - - ",
": : : : : : ; : > > 3 9 y t z b b C L E ' (.).:.;.:.'.'.#X<.2.2.#X*X$X$X#X*XDX<.<.,.=.&.#.| [ ' ` Q P P V m c c j w 8 8 = - % % - = - - - = - - - - % % - yX",
"yXyXyXyXyXyX: : ; > 9 0 d t m m Z Z W ~./.| O.1.<.<.<.2.p.<.#Xp.2.$X$Xp.$X#X2.DX<.<.,.,.&.*.' /./.+.Y U Z Z W.c c k 8 6 & & = % * - - > - ; - yXyXyX- - % = ",
": : : : : : > 7 0 > 9 q d d m C A K ~.] | `.:.1.1.<.<.#X2.2.p.$X#X$X$X$X$X4.#X2.DX<.,.DX*.&./.[ /.' ~.~.I J c c z w 6 # ; ; ; % - - ; - - - - ; - - = - - % ",
"yXyXyXyXyXyX; : ; > y r d b C N P Y ^.(.=.*.1.<.<.#Xp.p.DX9X%X9X$X9X&X&X$X9X#X#X#XDXDXDX,.,.).| |  .^.^.Y P x x l k 8 9 ; & - & = - - - - - ; - - yXyXyX- yX",
"yXyXyXyXyXyX> > ; 0 9 q d d M M P ~.^.(.*.*.1.<.2.#Xp.p.4.yXyXyX&X&X&X&X&X&Xp.p.#XDXDXDX,.,.).| #. .^./.U T D x V x 9 9 > - - > - - - - - - > - > - - - - = ",
"> * > = > > - ; 6 9 w e n M M C U ~.} X.,.,.<.<.#X#Xp.p.%X&X&X9X&Xg.&Xg.kX&X9Xp.#X#XDXDXDX,.,.*.*.o./.^.Y U D V m x 9 9 ; ; & > - = * > ; - - yXyXyX= - - - ",
": : - > > * & ; 9 6 r t d b M B _ ] | (.;.1.<.2.p.p.p.$X&X&Xg.&Xg.g.g.g.kXkX9X&Xp.DXDX#XDXDX;.,.O.o.} { Y U J V V l r w > > > & - - - - - - > - - - = - yXyX",
"= > & > = > & > 6 9 e e M n N S ^./.X.`.;.<.4.4.2.$Xa.kXf.f.e.nX0Xj.d.d.h.ZXkX&Xp.2.2.$X#X,.,.,.*.O.o.} W U A Q.V n w w > ; > & = * - * - - - - = - = - yXyX",
"> = > = > > & > 6 9 e t b b S F ^...`.:.1.1.$Xp.p.$X&Xd.&XXXf.e.H.U.f.f.g.h.kXkX%X$X$X$X#X<.'.,.,.O.} } W Q K C V x z 9 7 ; & > - * = - - - = - - - * - yXyX",
", = & > , , = 1 9 0 k k n Q.P L } { `.:.2.2. X4.a.;Xd.e.nXnXl.l.tXU.a.nX>X-X&X&Xd.-X$X0.2.2.<.'.,.,.O.o.[ ` P !.Z V l k 0 9 ; ; = * * & - = - - - = - - - - ",
"= & < = & > & < 9 9 k k n n L R ..} &.:.2.>.$X%Xs.d.f.f.e.nXI.1XU.H.XXf.y.:Xg.d.;X;Xa.a.$X$X#X2.,.,.o.O./.' U P Z V l c 0 9 3 ; = * & % yXyX- = - - - yXyXyX",
"< = & = & = 3 3 0 r k b Q.C R L O.o.o.).-.;..X%X-Xs.+Xh.e.1Xx.D.S.b.NX1Xy.@X>X>X-Xh.a.%Xp.&X4.<.<.,.&.|  . .` Q K Z V x w e 3 ; ; > = - yXyX; % = - - - yXyX",
"& > & 3 > < 1 = y r k l Q.C L R } o.X.`.;.>.4.4.h.s.+Xy.j.U.D.F.U.3X1X1Xh.}.-X-Xs.-Xd.a.$X$X$X2.<.,.&.#.(./._ W K J V n r q 0 9 > & = * yXyX= ; % - = - yXyX",
"& > = = & = , 3 9 r k b Z A R ~.o.o.`.:.;.yXyX3.%X0..X.XtXtXU.S.T.8XU.D.j.y.:Xs.:X:Xg.g.$X$X0.0.-.-.#.=.#. .' ' U U Z Q.b k q 9 ; ; & & - = ; % - - - > - - ",
"< = = , 3 = > > r 9 k b Z A ! ] ).o.X.*.-.;.2.2.$X0.s.:XU.U.S.b.U.T.b.D.j.y.:XOXd.h.g.s.$X4.4.0.2.;.&.#.#.|  .' ~.L K Z b b r 0 9 9 ; ; - - - & - & - & yXyX",
"& > & < > 3 > 3 9 r l W.J P ! [ [ (.| `.>.>.<.-.<.p..X Xg.%Xj.H.U.b.1X1XZX>X:X;Xg.g.&X&X$X0.2.>.1.1.2.2.>.:.$.[ W W P K Q.Q.z l 9 9 > : ; ; % ; - > & - % - ",
"& = yXyX> & & > 0 r b M P I ' [ (.^.).9.2.8.2.0.p.p.4.0.g.s.0X0XS.U.1X1X@X-X;X;Xg.&X&X&X0.0.>.2.8.2.8.8.9.9.(.(.] W Y P V V l k 9 9 yXyX; - ; % - & - & = = ",
"< > & & = 3 3 > r c b D L U [ $._.6.XX8.a.a.$X4.<.5.5.<.p.9X:Xg.1Xx.e.nXZXZX;X=X;X=X%X$X4.0.[.0.0.0. X$X$X X8.8.6.[ ] Q P !.Q.v w w yXyX; ; - ; = = & - % - ",
"= & < = > > > 0 r r V D U Q $._.].9.a.a.$X X$X4.4.4.p.4.%X%X-Xj.NXI.e.y.-Xg.=Xg.g.;X%X%X3.4.0. X%X$Xa.$X$X0.8.8.9.(.] ] P v Q.j t w 6 6 ; - - ; = - & % - = ",
"= & < = , 3 3 3 l l V Z W ~.>.9.K.[.OXw.a.a.%Xs.s.;X%X5.%X%Xg.:XnXNXj.I.g.>Xg.;Xq.=X-Xq.s.q.q..X.X X X.X$X X X0.].].9.$.~.~.J !.e e 9 0 6 1 & ; - - yXyX% & ",
"< > & & = = & 3 l l Z Z W ] 9.9.|.K.w.w.s.d.s.:X:Xg.%X%X%Xs.g.g.nXrXI.H.h.>Xg.d.%Xs.-X-X=X=X.XOX.X.X X%X Xa. X0.K.].].9.[ [ P P b e 9 9 ; @ ; ; % & yXyX* & ",
"> & = > > < 3 0 l z Z K (.(.9. XXX].|.oXq.-XOX@X{.@X@X{.@X@Xz.H.S.x.b.2X<Xj.g.g.r.-X>X>X-X@Xw.OXw.q.|..X X|.XX|.8.XX].9.(.(.U U b k e w 9 6 ; ; & - yXyX* * ",
"3 = < > & = 3 3 z b Q.Z [ $.8.0.K.[.{.oXq.q.OXq.q.@X@X@X@X@Xj.j.S.S.3X3X1Xj.kXg.>X>X>Xg.-X-XOXOXOXOXq.|.|.XX0.XX8.K.].9.9.$.Q Q M b 9 w 6 9 ; - > & yXyX* * ",
"> > > > 3 > 0 0 b l J !./.(.8.XX8.XX X Xq.OXr.ZX;Xg.d.j.l.x.yXP.S.n.3X3XqXD.x.1Xf.nXf.d.@X@X@X+XOX+X|.|.[.{.[.7.|.|.8.8.9.9.) ) b n w w 9 9 > ; - - * $ * * ",
"> 3 3 > > > 0 3 b x P J /.(.9. X XXXa.a.q.@Xr.L.g.kXf.h.BXz.A.P.x.3X8X8XF.c.D.D.f.e.f.f.oXq.q.oXOX+X|.q.{.[.[.K.XX|.*X8.:.:.^.` m b t w 9 6 ; ; - - % * % * ",
"> 3 > > 3 7 4 0 l l K Z ] (.2.*X].K.{.}.t.t.t.t.,Xk.<X0XqXz.n.n.T.T.8XyXyXA.F.S.tXtXe.e.+X@X@X@XOXr.q..X7.{.7.{.[.XX XXX9.:...] m l w r r 6 ; ; * % * % * * ",
"> > > 3 > > > 3 l l Z J _ ^.1.*X7.K.{.}.r.t.i.i.L.k.kX0Xz.v.3Xn.S.dXn.8Xc.dXF.n.x.I.e.e.{.@X@Xr.OXq.q..X[.7.[.7.|.XX X$X:.:.] ` M k r r 6 6 6 ; - - - * - * ",
"> 3 > i 3 > > 0 l t V V Q ~.O.'.].].|.yXyX=XZXt.L.,X<X0XqXqXn.n.8X8Xn.n.dXP.n.S.D.D.<X1Xt.ZXZXZXr.t.q.r.{.{.[.[.XXXX8.|.).).) Y b k 9 w 6 6 ; : : : * * - - ",
"> > > > > 3 4 i t t V V L ~.*.'._.yXyXyXyXr.r.L.yXyX<X0XY.Y.c.uX8X3XdXT.P.dXc.c.z.v.H.<X,Xt.i.<Xt.r.}.q.{.}.[.[.|.|.8.].).(.U U b k w 9 6 6 ; ; - * - * % - ",
"i = > < > < > 3 9 w l m P P ..).).:.2.0.5.=X=X=X5.{.u.1Xc.c.uXuXS.S.S.A.F.c.F.2XH.b.0X<X,Xi.i.,Xj.h.@Xr.[.{.0.0.8.8.>.`./._ T !.l l w 9 6 ; ; ; = yXyX* - - ",
"3 3 3 > 3 > i 3 r r m l J T { { X.`.2.2.4.9X5.Z.q.{.u.1Xc.n.fXuXx.x.F.A.c.c.D.2XH.b.H.<X,XyXyXyXyXi.}.}.{.3.8.0.8.9.#.| W ` J J l e w 9 6 6 ; ; - > = > - : ",
"* i = i = i = i 7 8 c r V C P E (.[ $. ._._._.>.}._.7.7.u.u.v.D.D.v.F.F.Y.qXv.v.z.<Xu.h.ZXZXZX>Xh.@Xr.{.[.[.9.:.)...^.` K K C n w w 8 9 6 6 ; ; * > yXyXyXyX",
"i i O $ i O i = 8 u r c m V K I Q W $.' $.$._.%.7.{.+XK.nXyXyXyX2X2Xn.b.F.c.2X2Xz.j.yXyXZXZX=X>X@X@X{.7._._.`.:.....` Q Q.!.n x l r 6 6 6 6 7 ; - = - yXyXyX",
"O $ O i = = = i i i r 8 l l C C S v ~.R R ! lX%.5.%X,XyXyXyXL.,X<Xz.2X2X2Xv.H.<X1Xj.@X+X>X@Xq.|.[.>.$.' [ @.[ M.T T J Q.m l w 9 9 8 : 8 7 : 6 ; > = - > yXyX",
"yX= i O * i = i 7 8 r c c l n M S Q.~.~.! ! @.@.5.9XZ.L.0X,X,X,X1X0X3X2X2X2Xz.0Xj.y.@X+Xq.q.|.|.3._.%.#.[ ' ] ] U J Q.Q.k l w w 9 8 6 8 : 8 : : - * * > yXyX",
"O i O $ * i = = i 8 r i r u l b d M ( ( cXlXeXeXC._.5.5.L.,Xj.ZXy.t.j.i.j.j.e.e.nXK.[.[.6.6.@.@.[ ! U P K P C Z V x b b l r 8 8 8 7 : - 8 : ; : - : = - - - ",
"i * FXi * i i = 8 i 8 u w r d t d M SXyXyXcXeXeX3.C.C.5.=XZXZXr.u.y.j.u.j.j.nXe.}.K.].6.@.@.[ @.Q ! R !.K P Z Z V n b l z w r 8 8 : : 8 - : : - > - * > yXyX",
"yXO $ i i : > i 7 i i 8 7 0 q 3 2 1 G.( m.m.yXyXyXcXeXcXeXeX( eXeX6.C.7.6.lX( J.@.@.! ! R R S P M v n M d M l t t t r 0 r 7 8 i 6 8 : - : : : > - * - = - = ",
"= i < i > > > > 7 7 7 7 7 7 0 4 2 0 G.G.m.m.cXcXyXyXyXlXyXyXyX( rXrXeX%.6.lX( G ! ! R ! R H S !.N N VXv b b u t t t 0 0 8 8 8 6 : 8 : 8 : : - : : - > > * > ",
"i = i > > i > > > 7 > > > i , 1 ^ 7X^ yXyXV.V.cXcXcXm.wXG wX/ / ( ( ( / G G G B F F B F C W.B M g d 4 q q q r 0 4 0 3 3 6 > 7 ; > : : ; - : ; : - - yXyXyXyX",
"i = > > > > > > > > 7 i > 3 3 , wXG.5X^ V.cXm.V.cXcX6XwXB 6XG F ( / G F N S S B F H B N B M d f d f f 4 2 4 0 q 0 1 3 ; 7 > ; ; : ; ; : : : ; > * yXyXyXyXyX",
"yXyXyXyXyXyXyXyXyXyXyXyXyXyX> % ^ ^ vXvXcXV.6XbXbXwX6XwXAX6XB R.B B B N N M W.N h d d f f 4 a yXyX5XB W.u 2 3 , ; 1 ; & - & > > yXyXyXyXyXyXyXyXyXyXyXyXyXyX",
"yXyXyXyXyXyXyXyXyXyXyXyXyXyXyX* ^ yXyXbXbX6X6X6XmX6X6XwXB 5Xh W.B W.h d d h h d d yXyXyXy y f f 5XB E.5XE.g 3 & , , 3 1 > > > & yXyXyXyXyXyXyXyXyXyXyXyXyXyX",
"yXyXyXyXyXyXyXyXyXyXyXyXyXyX> - 5XvX^ ^ bXbXbX6XV.G.V.G.6XvXyXyXg d d g f d f q q q a f 4 f yXyXs a s E.E.E.yXyXyX, ; 3 > > > > yXyXyXyXyXyXyXyXyXyXyXyXyXyX",
"yXyXyXyXyXyXyXyXyXyXyXyXyXyXyX> yXyXyXV.vXbXbXV.V.G.wXV.R.B f f f a u f 4 q 4 2 2 jX2 jX4 4 yXyXs a s s g E.g 5 , & 3 ; 3 3 ; > yXyXyXyXyXyXyXyXyXyXyXyXyXyX",
"yXyXyXyXyXyXyXyXyXyXyXyXyXyXyX; vXvXbX^ bXiXbXbXbXV.6X6XR.vXB.yXyX4 5 B.< 3 < B.q 5 4 a a yXyXR.R.R.s s s s s E.@ , & 3 > > > ; yXyXyXyXyXyX> > yXyXyXyXyXyX",
"yXyXyXyXyXyXyXyXyXyXyXyXyXyX& = yXyXbX^ vXbXmXE.bXbX6X6XyXyXB.5 3 < < = < B.5 yXyXg B.4 yXyXvX5Xs R.E.s 5 FX5 E.@ ; 3 3 3 & & & yXyXyXyXyXyXyXyXyXyXyXyXyXyX",
"yXyXyXyXyXyXyXyXyXyXyXyXyXyX& & E.AXvX5X^ bX^ ^ vXmXmXyXyXB.FXN.< O O = N.< < 5 5 yXyXFXB.yXyXyXs FXs yXyXyXyXyXO & & 3 > & = = > > - > * > - yXyXyXyXyXyXyX",
"yXyXyXyXyXyXyXyXyXyXyXyXyXyXyXyXHXyXyXE.vX^ ^ V.vXyXyXyXyXyXyXN.< o O O O O N.B.< B.B.B.a yXyXyXyXyXyXyXyXyXyXyXyXo & < > & = > > * yXyX> > = > yXyXyXyXyXyX",
"yXyXyXyXyXyXyXyXyXyXyXyXyXyXyX  O FXE.5XvXyXyXyXyXs s FX, , , yXyXo O X o O yXyX= & < < FXs s s s E.R.R.s 5 B.< yXyX> > * - = > * > * > = - yXyXyXyXyXyXyXyX",
"yXyXyXyXyXyXyXyXyXyXyXyXyXyXyXyXO i yXyXvXvXvXvXR.s N.LXN.N.o o . O pXyXyXyXyXyX& yXyXyXyXN.5 a s s R.yXyXyX3 N.o o = 1 = = * * > = > - > * > yXyXyXyXyXyXyX",
"yXyXyXyXyXyXyXyXyXyXyXyXyXyXyXyXX X O * & < & B.B.< o & % & % & % X   % + + & % & , = & , < yXyXs s g u 4 3 & ,   X > > = * * = - > - > = > : > yXyXyXyXyXyX",
"yXyXyXyXyXyXyXyXyXyXyXyXyXyXX % O $ O * o O o o N.yXyX, % + % +   - X p + . . . @ + + & o yXyXyXB.5 s 5 3 < yXyXyXyX& - * * * > > = > * > * = > yXyXyXyXyXyX",
"yXyXyXyXyXyXyXyX> i i > > > 3 = % 4X4X4X  % & & .   + + + p @ ; > > ; > 4 3 ; ; % % % + & + & & = & yXyXyXyX& % 4XyXyX= * * = * : - > > - > : > yXyXyXyX> = ",
"yXyXyXyXyXyXyXyXyX> yXyXyXyXyX3 > % % % . .     yXyXyXyX+ - ; ; > > > > 3 9 0 3 % % % + yXyX@ & & o yXyXyXyXyX% % % = = = : : yXyX> = : yXyX= - yXyXyXyX* yX",
"yXyXyXyXyXyXyXyXyXyXyXyXyXyXyXyX> > u : * X X   = > < > i > > 3 > > 3 yXyX> i 3 > - % - + + + % % + %   + 4X%   - = yXyXyXyXyXyX= > yXyXyXyXyXyX= * = yXyXyX",
"yXyXyXyXyXyXyXyXyXyXyXyXyXyX3 yXyXyX> > < = * % > < 3 i 3 3 i > > > > 0 > > 3 i 3 & ; yXyXyXyX+ +   4X  + +   % % - = - > = > yXyX* > yXyXyXyXyX- - yXyXyXyX",
"yXyXyXyXyXyXyXyXyXyXyXyXyXyXyXyXi > i 3 i > > > > 3 yXyXi 3 yXyXi 3 i yXyXyXyXyXyXyX& > - % % % 4X4X4Xp 4X% % % * - - yXyXyX= > > > > yXyXyX* - * - yXyXyXyX",
"yXyXyXyXyXyXyXyXyXyXyXyXyXyXyXyX3 3 i > > > > > > i yXyXyXyXyXyX> > 3 yXyXyXyX> yXyXyXyX= * % * p 4X4X% yXyX% * * yXyXyXyX* > yXyX> yXyXyXyXyX= * = yXyXyXyX",
"yXyXyXyXyXyXyXyXyXyXyXyXyXyXyXyXi 3 > i 3 > > > > > 3 i 3 3 3 > > > > yXyXyXyXyXyXyXyXyXyXyXyX> > > > * yXyXyXyXyXyXyXyXyXyXyXyXyXyX> yXyXyXyX- yXyXyXyXyXyX",
"yXyXyXyXyXyXyXyXyXyXyXyXyXyXyXyXi yXyX3 3 i 3 > > > 3 > > i > > > > > yXyXyXyXyXyXyXyXyXyXyXyXyXyXyXyXyXyXyXyXyXyXyXyXyXyXyXyXyXyXyXyXyXyXyXyXyX= yXyXyXyXyX"
};
