/* XPM */
static char *_a20353eb8434bd2f1c2a8740e7404e78vAgghH6n4FzEMlb_7[] = {
/* columns rows colors chars-per-pixel */
"78 86 256 2 ",
"   c #221D1D",
".  c #271D1A",
"X  c #24221D",
"o  c #2B231D",
"O  c #2A291D",
"+  c #231E21",
"@  c #291D28",
"#  c #321B36",
"$  c #1B2C29",
"%  c #252425",
"&  c #2A2524",
"*  c #252926",
"=  c #2A2925",
"-  c #262529",
";  c #2A262B",
":  c #26292A",
">  c #2B2A2B",
",  c #332523",
"<  c #342A24",
"1  c #33252C",
"2  c #3B242C",
"3  c #322A2D",
"4  c #3B2B2B",
"5  c #3B312A",
"6  c #2C2532",
"7  c #2D2A32",
"8  c #2B2638",
"9  c #322634",
"0  c #332A34",
"q  c #3B2B34",
"w  c #34253B",
"e  c #3A253C",
"r  c #352B3A",
"t  c #3A2B3C",
"y  c #3C2433",
"u  c #383138",
"i  c #283332",
"p  c #1D1F20",
"a  c #432B2A",
"s  c #46352B",
"d  c #442A3B",
"f  c #462837",
"g  c #493735",
"h  c #522E37",
"j  c #381C4A",
"k  c #3B2543",
"l  c #3C2B43",
"z  c #392747",
"x  c #3C2653",
"c  c #342E47",
"v  c #4A1C52",
"b  c #432B44",
"n  c #43254C",
"m  c #432B4B",
"M  c #492947",
"N  c #542A48",
"B  c #573748",
"V  c #452B53",
"C  c #4B2C54",
"Z  c #4C2B5B",
"A  c #532C5C",
"S  c #552857",
"D  c #4A3256",
"F  c #573358",
"G  c #653857",
"H  c #692E54",
"J  c #4B2865",
"K  c #542B63",
"L  c #5B2C6C",
"P  c #572768",
"I  c #583367",
"U  c #5A2976",
"Y  c #5B3375",
"T  c #4C306C",
"R  c #652969",
"E  c #663569",
"W  c #632C7C",
"Q  c #662A78",
"!  c #752A79",
"~  c #763679",
"^  c #6A5446",
"/  c #694657",
"(  c #764A6B",
")  c #5B2C85",
"_  c #6B2C84",
"`  c #662886",
"'  c #752B8A",
"]  c #6A3387",
"[  c #763489",
"{  c #6C2A94",
"}  c #742C9B",
"|  c #7B2C9C",
" . c #792897",
".. c #6B3395",
"X. c #7C2CA3",
"o. c #7929A7",
"O. c #772CB0",
"+. c #6D1D92",
"@. c #863789",
"#. c #842B9A",
"$. c #863599",
"%. c #8F2D8C",
"&. c #832CA4",
"*. c #832CAB",
"=. c #892BA9",
"-. c #952AA9",
";. c #8C33AB",
":. c #8836A8",
">. c #9638AA",
",. c #882CB5",
"<. c #952DB7",
"1. c #8C32B3",
"2. c #9737B7",
"3. c #A639A8",
"4. c #A53AB9",
"5. c #B12FB3",
"6. c #924892",
"7. c #AA4E99",
"8. c #9B44B6",
"9. c #8D49AB",
"0. c #A646B7",
"q. c #B74BB7",
"w. c #B453BC",
"e. c #B965B8",
"r. c #C64BB8",
"t. c #CF53B4",
"y. c #C665B9",
"u. c #CD6FB4",
"i. c #DA5BB3",
"p. c #A539C5",
"a. c #B453C3",
"s. c #BC54C4",
"d. c #BB57C8",
"f. c #BB67C5",
"g. c #C857D4",
"h. c #C865C6",
"j. c #D370CD",
"k. c #ED4FE8",
"l. c #CD8BB8",
"z. c #E991D2",
"x. c #D2AFCF",
"c. c #E5B8C9",
"v. c #F9A8E7",
"b. c #EEB0EC",
"n. c #EBCBD4",
"m. c #774A57",
"M. c #774590",
"N. c #35281D",
"B. c #3B2C24",
"V. c #74554A",
"C. c #A83595",
"Z. c #CE37CD",
"A. c #D8B9C9",
"S. c #D9B9D5",
"D. c #E7A9D8",
"F. c #E6B7D7",
"G. c #785655",
"H. c #F392EC",
"J. c #753469",
"K. c #AA54A9",
"L. c #D44ED2",
"P. c #D1B6B7",
"I. c #C987C7",
"U. c #DAA3E3",
"Y. c #F8B6D8",
"T. c #D4C4CF",
"R. c #533B39",
"E. c #514334",
"W. c #473248",
"Q. c #472557",
"!. c #521C6A",
"~. c #673378",
"^. c #6C2B8B",
"/. c #732C94",
"(. c #783397",
"). c #7B33A5",
"_. c #963899",
"`. c #8332A4",
"'. c #8934B7",
"]. c #9945A8",
"[. c #A749AA",
"{. c #B54BAA",
"}. c #B656AA",
"|. c #AC4CB4",
" X c #AC4CBB",
".X c #B34DBC",
"XX c #AC53B7",
"oX c #B453B4",
"OX c #BB53BC",
"+X c #B958B7",
"@X c #C557BA",
"#X c #9935C4",
"$X c #AA46C4",
"%X c #B74AC6",
"&X c #B350CD",
"*X c #9C45C4",
"=X c #C64BC7",
"-X c #C354C4",
";X c #C355CB",
":X c #C45ACB",
">X c #C859C7",
",X c #E94FD2",
"<X c #E96ED3",
"1X c #D48ECF",
"2X c #FAB7E6",
"3X c #F6CDE9",
"4X c #1D1C1C",
"5X c #5B4546",
"6X c #684A46",
"7X c None",
"8X c #ECDBE0",
"9X c #B234CA",
"0X c #F471EB",
"qX c #F3ACD1",
"wX c #6F4F50",
"eX c #884C72",
"rX c #B16899",
"tX c #B98DC9",
"yX c #BAC5B2",
"uX c #DFC4B5",
"iX c #68431E",
"pX c #1A1817",
"aX c #381C29",
"sX c #CE28AC",
"dX c #D8C3C8",
"fX c #BAB0A7",
"gX c #D1C5B7",
"hX c #E839DD",
"jX c #3A2425",
"kX c #D657E4",
"lX c #8A3275",
"zX c #2F2B5C",
"xX c #B425CF",
"cX c #835558",
"vX c #594739",
"bX c #69503A",
"nX c #B46BAC",
"mX c #64493A",
"MX c #6B1B64",
"NX c #B88AB4",
"BX c #E3AAB7",
"VX c #4D1732",
"CX c #9B1998",
"ZX c #D658C7",
"AX c #534652",
"SX c #8E626C",
"DX c #922EC4",
"FX c #342F19",
"GX c #513398",
"HX c #37444E",
"JX c #971A60",
"KX c #611828",
"LX c #341419",
"PX c #B91242",
"IX c #170617",
"UX c black",
/* pixels */
"7X7X7X7X7X7X7X7X7X7X7X7X7X7X7X> % = % * % = = & = % ; 6 6 6 6 @ ; ; 1 @ # 9 6 # 8 p 8 8 p $ % + % $ X $ $ + % % % X % O - - - - - - p - - % 7X7X7X7X+ % * - ",
"7X7X7X7X7X7X7X7X7X7X7X7X7X7X7X= = % O % % % % & * * ; - ; ; ; 6 , @ , # ; aX# @ $ 8 $ $ @ $ % p % % $ % % + $ p % $ % * - - - - @ - - - % - 7X7X7X% % 7X7X% ",
"7X7X7X7X7X7X7X7X7X7X7X7X7X7X= - % = - * * = % % = - - - @ % - ; ; 1 6 @ # # w y 8 8 $ 8 $ $ p $ X $ + % + $ % % % % % & % - - - + - % - % 7X7X7X7X7X7X7X7X+ ",
"7X7X7X7X7X7X7X7X7X7X7X7X7X7X> & % & % = = % * = - & % ; - - ; - @ , # 1 9 e k e 8 8 8 $ $ @ - - 7X7X+ $ $ $ % - % % * % % * - - - - % % % % 7X7X7X7X7X% + 7X",
"7X7X7X7X7X7X7X7X7X7X7X7X7X7X7X7X- & > - 7X7X= - = - * - & ; ; 6 ; 1 w 9 k n n v c j 8 8 * * * % % % $ + % $ p - % - = > O % % * % % % % % - 7X7X7X7X7X7X7X% ",
"7X7X7X7X7X7X7X7X7X7X7X7X7X7X7X> - ; = * * - * * - = = = ; ; ; 6 9 ; w y n n Q.n c j 8 8 $ % - * * % 7X7X$ % $ % % * - - % O % O % % % % % + - - * 7X7X7X7X7X",
"7X7X7X7X7X7X7X7X7X7X7X7X7X7X7X7X& & - - - - = - > - - > 9 ; 9 9 # e n n v S P !.x x 8 j : ; $ * * % X % 7X7X7X- 6 7X7X& * O % O % O - * - % * - - - % - * % ",
"> * > * > * > 7X7X7X7X7X7X7X7X= % % % - 7X7X- > * = > > 0 0 r r w l Q.Q.P P Q P x zXc c : : * - $ % $ - % $ - + @ 8 - - O O % % % % 7X7X7X7X7X7X7X- - 7X7X7X",
"= * * = = * = = = 7X7X7X7X7X- = * > * 7X7X7X7X7X> > & > 9 r e k d b P ! ].9.~.R x x j 8 i : 8 - : - = O p - 8 8 8 8 8 # ; ; o o @ 7X7X7X7X7X7X7X7X7X7X7X7X7X",
"- = = > = = > - = 7X7X7X7X7X= - 7X7X7X7X7X7X7X7X> > 3 7X7X7Xl w # d R R :.6.~.R x x c 8 7 8 - 8 > > = & : @ @ @ 8 j 8 z 6 & O FX& 7X7X7X7X7X- 7X7X7X7X7X7X7X",
"- > & > - - & > - 7X7X= * = - > 7X7X7X7X7X> 7X7X7X7X7Xu l l VXk VXv ! ~ 8.8.^.` Z x c z 7 7 9 7 6 6 3 ; 6 ; 8 @ j j j x 9 9 o o & % - % * - % 7X7X7X7X7X7X7X",
"> 7X7X> & > > 7X7X7X7X7X7X7X- 7X7X7X7X7X7X7X7X7X7X7Xr r l b n j VXN ! [ 8.8.[ ^.Z Q.c w r 9 7 9 3 9 ; ; 6 ; 8 6 zXzXx zX# 9 & o ; @ % % - - % 7X7X7X7X7X7X7X",
"& ; > ; ; > & 7X7X7X7X7X7X7X> - > 7X7X7X7X7X7X7X9 0 r u t b M VXVXKX+.lX>.8...` Z V k k r w 9 9 9 w 9 3 ; ; w # T T I T e 7X7X7X7X& - % - = - % 7X7X7X7X7X7X",
"7X7X7X7X7X7X7X7X7X7X7X7X7X7X7X7X7X7X7X7X7X7X7X7Xr r t u b b N M KXMXJX+.2.0.{ ) K J m m t t y 9 w w 9 9 9 6 8 w T T I J e # & , - ; % - - % % - 7X7X7X7X7X7X",
"- ; 7X7X7X- - & > * * > - : - 7X7X7X7 > 9 0 t q t t d l n N MXv MXMXJXJX#.$.) ) L L S M M M b n d e 9 y y 9 8 8 Y Y J J e # & , - & % % % - 7X7X7X7X7X7X7X7X",
"> ; ; > > & > - > - > > - ; ; 7X7X7X7X7X7X7Xu t d d b W.N N S H JXKXJXMX(.#.) ` E L C F B M M b k k t w 0 0 8 8 ~.T v v k # , ; & ; % % - % - * 7X7X7X7X7X7X",
"7X; ; ; > = - 7X7X> = > - - 6 6 7X7X0 q q t b C J T ) ) K K ! R Q R ! Q ! [ W _ ! ~.Q R F N M N b l l w r 8 8 7 > > > > 0 6 & & - 7X7X- = - - = * - - % - 7X",
"7X; & - - > * * * > - - & > ; 0 7X7X7X0 t t C B T Y ) ) P E R E ~ J.~.! [ [ [ ] ] _ ~.R S F M N W.m l w w 8 r 8 7 > > > ; ; > & 7X7X= - = - - - 7X7X7X7X- = ",
"; ; - ; * * * * * * > - ; > 9 ; 9 r r t M M K K Y Y ..M.~.! [ [ ' [ [ '  .(.).(.(.(...^.R R S L W.M l t w w 0 6 6 ; > - - - - - = - 7X7X7X7X7X7X7X7X7X7X7X7X",
"; 6 - & - * * * * * > > > 7 9 9 0 0 t d D C I Y Y Y M.M.~.~ ' ~ [ ' (.' [ #.).).(.(.[ ] ~.~.L I D M W.l e w 9 9 ; 6 > ; > = > - - 7X7X7X7X7X7X7X7X7X7X7X7X7X",
"; ; - - * * * * > * > - ; 7 9 r r t l g C F U ` ~.] )...' (.(.(.#.| X.`.O.O.O.9.'.).).o.] ..W W I A M M b t y 9 3 & > ; - ; - - - = 7X7X7X7X7X7X7X7X7X7X7X7X",
"; ; > = * * * * * * : > 6 7 9 9 0 u t d A I _ ] ] ] ).).[ [ #.$.`.`.:.*.'.O.DXO.O.'.).).^./.~.! I S C m b b t 9 3 1 0 6 & & & - * > 7X7X7X7X7X7X7X7X7X7X7X7X",
"6 - > - : * * : : - - ; ; 0 9 y t l d M I I ^.] ..).O.O.X. .$.#.1.,.'.'.'.DXDX'.DX'.O.O.(.(.' ^.E I F S M M t r 9 9 ; ; ; - ; ; - - 7X7X7X7X7X7X7X7X7X7X7X7X",
"- 6 - - * * = * > > > > ; 9 e r t l M W.I I /...).).DX'.&. .#.#.*.'.,.'.DX'.DXDX'.DXO.:.(.(.^./.~.Y F F D M b d y 9 ; ; ; ; - ; - - 7X7X7X7X7X7X- 7X7X7X7X7X",
"- - = - * * * = = = = > 3 3 9 q l m Z Z Y W } X.).).'.'.=.&.,.,.<.<.,.<.<.2.'.DX<.'.'.*.`.&.| | ~ ! Q ~.R P M b y 9 & ; ; ; - - - ; - ; - - 6 - - - - = - = ",
"- - = = X * = = * = = > 9 3 e t n m D Z ~.] } (.O.'.'.2.<.=.<.,.<.'.<.<.#X#X#X2.<.<.1.1.`.&.X.#.~ ! ~.W L P m M q 9 9 & ; ; - ; - - - : : - : : - * - - - - ",
"- - * * * O = = > > 4 > 9 q d t n V U L ^...*.*.'.O.#XDX4.<.<.#X2.4.#X5.p.p.#X<.<.<.<.<.,.;.=.=.] ] ~.~.L P D m d t 3 3 ; ; ; - ; : 7X7X7X7X7X7X7X7X7X7X7X7X",
"> - * * * O * = & > ; 3 9 0 d d m V Y Y ^.(.*.*.'.'.#XDX2.<.2.DXp.<.p.p.$X$Xp.#X#X4.<.<.<.-.,.=.[ ] ~.~.L P D m d t 3 3 ; ; ; ; ; ; 7X7X7X7X7X7X> 7X7X7X7X7X",
"- - * = * * % & = 3 3 3 9 y t b M C U ~.} } ,.,.,.'.#X<.4.<.#XxX<.p.9X9X9X%X9Xp.#X#X#X<.DXDXDXDX(.(.[ ..~.L Z V b d 0 3 6 > ; 6 ; 7X7X7X7X7X7X7X7X7X7X7X7X7X",
"7X: * * * O = * & & 9 ; 9 r d M C N W ~.} | ,.,.'.'.DX<.p.<.#X9X5.p.&X&X&X9X%X&X5.#X#XDXxX<.DXDX(.(...] ~.U A C W.d 0 0 7 6 : ; ; ; 7X7X7X7X7X7X7X7X7X7X7X7X",
"7X7X* * * = = = > 3 9 0 e t M M M S _ _ | X.'.,.,.DX2.<.4.5.#Xp.9X%X&XZ.&X9X9X&X4.p.4.<.<.DX#XDX:.).(.(.~ ~.I Z M M t w r 7 6 6 ; : ; ; 7X7X7X7X7X7X7X7X7X7X",
"7X7X> * = = = = & > 9 9 t t b b B B _ _ ).X.'.#X,.<.2.<.<.p.xX#X&X&X&Xg.9X&X7X7X7Xp.#XxXDXDXDX#X).).(.(.[ ~.I A W.M t r 9 9 8 6 6 6 : ; 7X7X7X7X7X7X7X7X7X7X",
"> > > : 7X7X= > > > 9 0 k l C C U R ] ^.'.).'.'.,.<.-.2.$Xp..X%X&Xg.d.g.g.kX&X&X&X9X#Xp.<.<.<.'.'.DXX.X.[ ' ~.R F C m k r w r 9 7 6 8 6 ; - - - - - % * $ - ",
": 7X7X> = = > = 3 > r t l l C D L U .._ ).*.'.'.1.<.2.$X&X$X%X$Xg.g.kXg.f.g.&X&Xg.9X#X9X7X7X7X<.DXO.).X.[ [ W Q F C b m l l w l r 7 7 : : : 7X7X: * 7X7X7X* ",
"> > = > > > > > > > w r k m Z A _ W ' ' `.`.0.$X2.$X4.$X%X%Xd.s.g.d.d.OXs.h.g.%X&X%X5.p.<.<.-.<.'.,.*.*.[ [ _ ~.E L C n l k l w r 6 7 7 8 ; - - * * - * % * ",
"= > > > > > > > > 3 r r l m A A Q R ' ' $.:.8.*X*X&X%Xp..X$X;Xg.g.d.h.h.-Xh.g.:X&X%X4.p.<.<.;.=.<.'.*.=.(.(.~ ~.E A F C m k c l r 7 8 8 6 7X7X7X7X% * - * - ",
"> > > = > * > > > > r t b n K L ! ~ ].].a.8.a.a.0.0.9X.X5.%X>X>XOXh.H.H.y.K.}.@Xg.&Xp.p.<.>.<.2.;.2.0.$X].:.(.[ ~.Q R P Z v v v 0 9 7 7 7 ; 7X7X* - - * - * ",
"> : > > > > > > 3 7 0 r n V P L ! [ 6.9.XX|.a. X0.$X%X%Xq.%X=X>Xq.g.b.H.7X7X}.@XkXg.9X#X-.<.2.2.-.2.2.8.].:.(.[ ' Q Q L S J n Q.r 0 i 8 : ; 7X7X* * % - * % ",
"> > : > > > > > > 3 r u Q.C U W _.6.[.[.s.w.s.s.s.%X%Xq.q.=X-Xg.g.-XH.H.h.h.h.d.g.kX&X9X4.#X0.p.0..X%Xa.a.a.XXXX_.(.' _ Q MXP v r w 7 8 6 ; - - : - $ * - * ",
": = > > > > > > 7 i r u V Z U _ ].].K.].w.|.a.a.s.d.g.=X%X%X=Xg.:X:X0XH.d.d.:X:X&XkX%X&Xp.p.p.p. X$X X XXX0.8.8.].>.@.' W Q R !.r r 8 8 8 : : - - * - * * - ",
"> > > = > > > > 7 7 l u Z K ` _ ].K.XX{.oXoXOXOXOXOX=Xg.=X=XOXq.;X:X:X:X:Xf.d.d.kX7X7X%X9X%X%Xs..X.X|.w. X X X X|.8.].].6.M.R R W.l 8 8 7 6 ; ; * % * * % $ ",
"> = > > > : > > 7 i c l Z I _ ] [.[.{.XXoXoXw.q.OXq.;X;X;X;X%X=Xd.:Xs.s.:Xd.g.d.&Xg.%X%X%X%X=X%Xa.a..Xw.a. X X X8.XX8.].9.M.Q U l l 8 9 7 6 ; ; % $ X * * * ",
"> > = : > > > > 7 u c m K I /./.XXXXK.{.{.oXr.}.@X+Xr.@X-X-X-X@Xq.;Xg.:Xf.d.&Xj.-X=X=X=X=Xq.q.OXq.w.q.XXXX|. X|.K.8.].].].].Q MXM l t 9 9 6 > ; : * * * % * ",
": > > > > > > > 8 u m l J I /.(.XXXX[.[.q.{.{.@X+XOX@X@X-X>X>X-X.Xq.s.OXa.d.&Xd.s.;X=Xg.-X=X=X=X+XoXoXoXw. X X0. X|.XX].K.>.' ` b k t w 9 7 ; ; * % % * * * ",
"> > > > > > > > r r m W.!.P | | 9.XXXXXX{.{.}.r.t.}.@X@X;X;X-X:Xg.@X+Xh.1XH.j.f.s.-X>Xh.:X-XOXOXw.+Xq.}.{.}.K.[.[.].].XX9.K.{ /.m k e r r 6 ; ; : % * * * * ",
"> > > > > > > > 8 u D x P P (.| ].XXXXXX+Xr.}.q.{.{.r.@X-X;XOX:XOX{.+Xe.j.H.h.f.-X-X>X>X:X>Xs.-X+Xw.oXoXK.}.K.K.K.K.K.].8.9.' /.n b w w 9 9 ; ; : - $ * % * ",
"> > > i i > i > 9 u D z U U /.X.9.8.XXXX}.r.r.{.}.t.r.@X>X;Xd.f.nXu.1Xz.b.b.I.1Xe.f.>X>X>X-X@X+X+X+XoX}.K.}.K.[.[.[.].].].9...[ m l 7X7X7X7X& ; = * * * * % ",
"i > 7 > > > > > 0 0 x j U U } (.6.9.[.|.{.}.{.r.r.{.r.t.%X=Xd.>X}.u.z.z.b.U.j.1Xf.y.h.>X>X-X+X@X+X+XoX+X}.}.[.K.[.[.XXK.9.].^./.7X7Xr 9 0 7X7X7X* - * - - 7X",
"7X7 : 7 > 7 : 7 8 u W.t T T ^.(.=.=.-.>.{.{.=XZXL.L.L.L.k.,Xr.i.NXl.3X3Xc.c.S.b.f.a.&Xg.>X-Xs.a.a.d.&X&XXXoXK.[.[.8.].XX9.9.] ] b e 0 0 9 ; & ; > * * * * - ",
"7 > : i i > 7 7 7 8 l l J P ` ] o.+._.:.5.{.ZXt.kXZXkX,X,X,Xt.Z.l.BX3X3Xx.S.S.n.e.f.kXg.q.q.[.w.a.a.a.&X+XXX[.[.].K.].].6.(.] ] t e q 9 9 ; > & = > - - - = ",
"> : > 7 > > > 7 7 0 c c n C K L O.O.DXO..Xq.t.i.i.,Xi.ZXi.t.i.,Xx.A.n.7XP.P.T.n.l.NXy.+X7X7X+XoXK.XXXXXXoX+X0.[.|.XX6._.[ ' T J l e 9 4 3 , ; - - = = - - - ",
"i 7 > : i 7 : > 7 7 r r Q.M P I o.O.,.O.3.4.{.i.i.i.i.<Xi.i.ZXi.x.x.n.n.P.P.T.T.I.l.OX{.7X7X+X{.].K.8.XXXXXX].8.[.8.:._.' W !.!.t e 0 9 & ; - - = = * > > - ",
"> > : i > > > > > 7 0 0 l b A C O.O.GXo._._.5.q.t.t.ZX<Xj.u.<X<X3X3XF.n.P.P.gXgXz.Y.z.z.<Xi.i.z.u.e.C.{.{.|.2.8.} X. ./.R U n Q.t w 9 9 , ; = = % = = 7X7X7X",
"7X7X7X7X7X> > i 7 3 r r k b C N O.O.o.o.%.%.3.3.r.sXt.ZXu.i.i.<X3X3Xn.A.uXP.fXP.BXD.z.u.<Xi.7X7Xu.u.7.7.3.0.'.2.X.*.'  .U R Z Q.t t 9 1 ; ; % > & % > > > - ",
"7 > > > > > > > > 7 9 0 t t W.W.L I [ ^.&.X.<.p.5.9X9Xs.i.t.t.t.I.1Xx.l.c.n.x.n.2X2X>XZX<Xk.<XZXh.h.q.[.3.>.=.=.....U U m M 9 0 9 9 9 9 ; ; = - & & 7X7X7X7X",
"i : > i i > > > > > 0 0 q r b W.K I ] /.&. .-.2.p.p.q.Z.r.sX7.7.nXI.F.qXc.n.P.F.3X2X@X@X<XZX<Xi.j.u.@X{.>.$.X.o...GXU U b C 0 7 9 9 ; 1 ; ; > - - = 7X7X7X7X",
"> i > > > i > > 3 7 0 0 0 i t d M B N F Q Q &. .-.CXCXCXxXxXxXhXh.ZX0X<XqXz.2X3Xz.z.i.@XkXj.g.9X%X9X-.#.#. ./.(.T Z l l r 0 < = 0 6 ; ; > > : : = = > 7X7X7X",
"> > > > > > > > > > i 0 0 u t q N f M N P Q  . .CX-.CX5.xXxXkXhXi.i.0X<Xv.v.v.7X7X1Xh.@Xg.L.9Xp.%Xp.-.#.#.| ^.(.Q.Q.z l r 0 < = 6 6 ; ; > ; * : = * > 7X7X7X",
"> : i > i > > > > > 7 > i 0 0 u a 2 d e v N H H #.%.-.5.xX9XhXxXL.,X0X<XH.z.H.H.j.u.oX|.4.3.>._.>.`.' _ E L C m l g r u r 9 i 7 ; : : - > : : > - > > > > * ",
"i > > > > > i > i 3 7 0 0 i 0 i a jXn C S S N VXlX%.>.$XxX9XxXZ.Z.Z.<X0Xz.<X1Xj.h.7X7X{.CX_.$._.:.#.^.^.( ~.F D d t u 0 7 7 7 8 7 ; > : : : * : * > > 7X7X- ",
"> > i > > i > > 7 > 3 i > i 0 0 y y 6X^ bXbXG m.G JXeXeX7.C.5.xX3.{.+Xd.e.u.e.u.7.]._.$.lXJ.Q ~ E R v Q.V V l l u 5 3 3 i 7 c 8 > * : : : : : * > * 7X7X= - ",
"> > > > > > > > > > 3 0 i 0 3 i a y V.G.cXcXm.cXcXcXlXlXC.C.Z.5.%X5.+X+Xe.y.nXnX[.7.$.@.! ~ ~ ~ Q P !.S Z Z V c 5 3 < < 7 8 8 c : : : : * : : > > * 7X7X* > ",
"> > > i i > > > 0 > > i 0 3 3 3 B.B.( G.G.m.mXH cXcXV.iXV.cXeXeX6.6.@.lXeXeXJ.H lX! ! ! H H F G B W.a f d t r r r r 0 3 7 7 - - > * : > : > : : > = 7X7X7X7X",
"> i > > > > i > u > 0 > > i 3 > N.B.G.G.G.( KXcXcXcXcXcXJXcXeXlXK.6.~ J.J.J.H H J.7X7XMXG F F F h h f f t y 0 9 r r 7 6 7 8 : - : - * : * : * - > - * > - 7X",
"7X> 3 > > < > > > 3 > > i 3 > & ^ ^ ^ ^ V.G.^ G.G.G./ ^ AX6XAX7X7X/ / G B B B N F F W.B h B W.d g g y q 4 1 9 0 9 3 3 3 > > ; > > > = > - > = 7X7X7X7X7X7X7X",
"> > i > > i i > 3 i > > 3 3 > > ^ V.5X5XV.G.V.V.G.G.6X6XW.5XF B / 5XF B N N N N B B B W.W.W.f 7X7X7X7X7X7Xq 9 3 4 1 ; ; > ; > ; > - > > = > > - > > > > > > ",
"7X7X7X7X7X7X7X7X7X7X7X7X7X7X7X* vX7X7X7X^ ^ bXbX^ ^ 5X5X5X5XR.W.B B B d f M f M d s f 4 y 2 y a 7X7X7X7X7X7X7X7X7X7X7X7X7X7X7X7X7X7X7X7X7X7X7X7X* - : = * 7X",
"7X7X7X7X7X7X7X7X7X7X7X7X7X7X> 7X7X7XbXvXbX^ bXbXbX^ ^ ^ B AXh g N d f f f f f f 7X7Xf f y f f g 7X7X7X7X7X7X7X7X7X7X7X7X7X7X7X7X7X7X7X7X7X7X7X7X> > > > > 7X",
"7X7X7X7X7X7X7X7X7X7X7X7X7X7X7X7XvX7X7X7X7X7X7X^ 7X7X7X7X5X5X4 q f q q f q q 2 y < jX4 a a 7X7X7X7X7X7X7X7X7X7X7X7X7X7X7X7X7X7X7X7X7X7X7X7X7X7X7X7X7X7X> > > ",
"7X7X7X7X7X7X7X7X7X7X7X7X7X7X7X7XE.bX^ ^ bXE.^ ^ 7X7XV.wX5XR.4 4 4 f 5 q 4 2 1 jXjXjXjXjX2 2 7X7X7X7X7X7X7X7X7X7X7X7X7X7X7X7X7X7X7X7X7X7X7X7X7X7X7X7X7X7X7X7X",
"7X7X7X7X7X7X7X7X7Xi > > > > > * E.E.7X7XE.E.bXiXbX^ vX^ E.B 2 B.< < 3 < & < 3 < s s 5 a s s vX7X7X7X7X7X7X7X7X7X7X7X7X7X7X7X7X7X7X7X7X7X7X7X7X7X7X7X7X7X7X7X",
"7X7X7X7X7X7X7X7X> > > > 3 > > * 7X7X7XbXbXiXbX7X7X7XvX7X7XE.B.< < B.= o o < 3 7X7X5 B.B.7X7XR.vX7X7X7X7X7X7X7X7X7X7X7X7X7X7X> 7X7X7X7X7X7X7X7X> - > - = * > ",
"7X7X7X7X7X7X7X7Xi > > > i 3 < 7X7X7XE.vXvX^ V.V.E.vX7X7X7XjXN.B.O O N.O O N.N.FX< B.N.B.FXs s R.7X7X7X7X7X7X7X7X7X7X7X7X7X7X7X7X7X7X7X7X7X7X> 7X7X7X* - = - ",
"7X7X7X7X7X7X7X7X7X3 3 i 7X7X7Xo 7X7X7XvX^ ^ ^ ^ vXE.s s N.N.N.O O O 7X7X7X7X7XN.7X7XN.N.s B.7X7X7X7X7X7X7X7X7X7X7X7X7X7X7X7X7X7X7X7X7X7X7X7X7X7X7X7X7X7X7X7X",
"7X7X7X7X7X7X7X7X> 7X7X7Xi 3 * X FXi E.vXE.vXvXvXvXE.FXN., , = o 7X7X7X7X. X o o & = , 7X7XB.7X7X7X7X7X7X7X7X7X7X7X7X7X7X7X7X7X7X7X7X> * - : 7X7X7X7X7X7X7X7X",
"7X7X7X7X7X7X7X7X7X7X7Xi > > > * FX5 E.HXvXE.vXvXE.5 FXN.o 7X7X7X7X7X7X7X7X7XO 7X7X7X7XFXN.N.B.5 7X7X7X7X7X7X7X7X7X7X7X7X7X7X7X7X= - = - = - = 7X7X7X7X7X7X7X",
"7X7X7X7X7X7X7X7X7X7X> > i i < = $ pXO O O = O o < & 7X7X& 7X7X% X % 7X7X7X% 7X7X7X7X& & & N.< jX7X7X7X7X7X7X7X7X7X7X7X7X7X7X7X7X7X7X> = - * > = 7X7X7X7X7X7X",
"7X7X7X7X7X7X7X7X7X7X7X7X3 3 > > $ O * O O O O o o o o o % X X % % % X % 7X7X7X7X+ @ X o 7X7X7X7X7X7X7X7X7X7X7X7X7X7X7X7X7X7X7X7X- * = - > - - - 7X7X7X7X7X7X",
"i > i > > 7X7X7X3 7X7X7X3 i < > * * $ 4X4XX X O     . % 7X7X; 7 > > > 0 q 0 0 7X7X+ + + + 7X7X7X7X7X7X7X7X7X7X7X7X7X7X7X7X7X* = = * % - * - = % 7X7X7X7X7X7X",
"3 3 3 3 i 3 7X7X7X7X> 7X7X7X7X7Xi * * X X X . X 4X. 4X4Xp % 6 7 7 7 > 0 ; 3 0 ; - % p 7X7X. & & % & & 7X7X7X7X- % = 7X7X7X7X* * > * - = = * - * 7X7X7X7X7X7X",
"7X7X7X7X7X7X7X7X7X> 7X7X7X7X7X7X< > i : & 7X7X7X7X7X7X7X> > i 7X7X7Xi > > 3 3 > = > > & X 4X4X%   7X7X+ + % % % 7X7X- = > 7X7X7X% * = - * - 7X7X7X7X7X7X7X7X",
"7X7X7X7X7X7X7X7X7X7X7X7X7X7X7X3 7X7X7X7X7X7X7X7X7X7X7X7X> > 7X7X7X7X3 3 > > i > 3 > 3 > = % % 4X7X7X7X7X. + % % - = > 7X7X7X7X7X- - * = - = * 7X7X7X7X7X7X7X",
"7X7X7X7X7X7X7X7X7X7X7X7X7X7X7X7X7X7X> 7X7X7X7X7X7X7X7X7X7X7X7X7X7X7X7X7X7X7X7X7X7X= > > > > = 7X7X7X7X7X% % * * = - > 7X7X> 7X7X= - * - = * 7X7X7X7X7X7X7X7X",
"7X7X7X7X7X7X7X7X7X7X7X7X7X7X7X7X7X7X7X7X7X7X7X7X7X7X7X7X7X7X7X7X7X7X7X7X7X7X7X7X7X7X7X> > > > i 7X7X7Xp % % - = * > 7X7X7X7X7X7X- = * - = - 7X7X7X7X7X7X7X7X",
"7X7X7X7X7X7X7X7X7X7X7X7X7X7X7X7X7X7X7X7X7X7X7X7X7X7X7X7X7X7X7X7X7X7X7X7X7X7X7X7X7X7X7X7X7X7X7X7X7X7X7X7X7X7X7X7X7X7X> 7X7X7X7X7X= * - = = * 7X7X7X7X7X7X7X7X",
"7X7X7X7X7X7X7X7X7X7X7X7X7X7X7X7X7X7X7X7X7X7X7X7X7X7X7X7X7X7X7X7X7X7X7X7X7X7X7X7X7X7X7X> > > > = > > > > > > > > - > - * 7X7X> * * - = - - * 7X7X7X7X7X7X7X7X"
};
