/* XPM */
static char *_a20353eb8434bd2f1c2a8740e7404e78vAgghH6n4FzEMlb_8[] = {
/* columns rows colors chars-per-pixel */
"78 86 256 2 ",
"   c #221D1D",
".  c #271D1A",
"X  c #24221D",
"o  c #2B231D",
"O  c #2A291D",
"+  c #231E21",
"@  c #291D28",
"#  c #321B36",
"$  c #1B2C29",
"%  c #252425",
"&  c #2A2524",
"*  c #252926",
"=  c #2A2925",
"-  c #262529",
";  c #2A262B",
":  c #26292A",
">  c #2B2A2B",
",  c #332523",
"<  c #342A24",
"1  c #33252C",
"2  c #3B242C",
"3  c #322A2D",
"4  c #3B2B2B",
"5  c #3B312A",
"6  c #2C2532",
"7  c #2D2A32",
"8  c #2B2638",
"9  c #322634",
"0  c #332A34",
"q  c #3B2B34",
"w  c #34253B",
"e  c #3A253C",
"r  c #352B3A",
"t  c #3A2B3C",
"y  c #3C2433",
"u  c #383138",
"i  c #283332",
"p  c #1D1F20",
"a  c #432B2A",
"s  c #46352B",
"d  c #442A3B",
"f  c #462837",
"g  c #493735",
"h  c #522E37",
"j  c #381C4A",
"k  c #3B2543",
"l  c #3C2B43",
"z  c #392747",
"x  c #3C2653",
"c  c #342E47",
"v  c #4A1C52",
"b  c #432B44",
"n  c #43254C",
"m  c #432B4B",
"M  c #492947",
"N  c #542A48",
"B  c #573748",
"V  c #452B53",
"C  c #4B2C54",
"Z  c #4C2B5B",
"A  c #532C5C",
"S  c #552857",
"D  c #4A3256",
"F  c #573358",
"G  c #653857",
"H  c #692E54",
"J  c #4B2865",
"K  c #542B63",
"L  c #5B2C6C",
"P  c #572768",
"I  c #583367",
"U  c #5A2976",
"Y  c #5B3375",
"T  c #4C306C",
"R  c #652969",
"E  c #663569",
"W  c #632C7C",
"Q  c #662A78",
"!  c #752A79",
"~  c #763679",
"^  c #6A5446",
"/  c #694657",
"(  c #764A6B",
")  c #5B2C85",
"_  c #6B2C84",
"`  c #662886",
"'  c #752B8A",
"]  c #6A3387",
"[  c #763489",
"{  c #6C2A94",
"}  c #742C9B",
"|  c #7B2C9C",
" . c #792897",
".. c #6B3395",
"X. c #7C2CA3",
"o. c #7929A7",
"O. c #772CB0",
"+. c #6D1D92",
"@. c #863789",
"#. c #842B9A",
"$. c #863599",
"%. c #8F2D8C",
"&. c #832CA4",
"*. c #832CAB",
"=. c #892BA9",
"-. c #952AA9",
";. c #8C33AB",
":. c #8836A8",
">. c #9638AA",
",. c #882CB5",
"<. c #952DB7",
"1. c #8C32B3",
"2. c #9737B7",
"3. c #A639A8",
"4. c #A53AB9",
"5. c #B12FB3",
"6. c #924892",
"7. c #AA4E99",
"8. c #9B44B6",
"9. c #8D49AB",
"0. c #A646B7",
"q. c #B74BB7",
"w. c #B453BC",
"e. c #B965B8",
"r. c #C64BB8",
"t. c #CF53B4",
"y. c #C665B9",
"u. c #CD6FB4",
"i. c #DA5BB3",
"p. c #A539C5",
"a. c #B453C3",
"s. c #BC54C4",
"d. c #BB57C8",
"f. c #BB67C5",
"g. c #C857D4",
"h. c #C865C6",
"j. c #D370CD",
"k. c #ED4FE8",
"l. c #CD8BB8",
"z. c #E991D2",
"x. c #D2AFCF",
"c. c #E5B8C9",
"v. c #F9A8E7",
"b. c #EEB0EC",
"n. c #EBCBD4",
"m. c #774A57",
"M. c #774590",
"N. c #35281D",
"B. c #3B2C24",
"V. c #74554A",
"C. c #A83595",
"Z. c #CE37CD",
"A. c #D8B9C9",
"S. c #D9B9D5",
"D. c #E7A9D8",
"F. c #E6B7D7",
"G. c #785655",
"H. c #F392EC",
"J. c #753469",
"K. c #AA54A9",
"L. c #D44ED2",
"P. c #D1B6B7",
"I. c #C987C7",
"U. c #DAA3E3",
"Y. c #F8B6D8",
"T. c #D4C4CF",
"R. c #533B39",
"E. c #514334",
"W. c #473248",
"Q. c #472557",
"!. c #521C6A",
"~. c #673378",
"^. c #6C2B8B",
"/. c #732C94",
"(. c #783397",
"). c #7B33A5",
"_. c #963899",
"`. c #8332A4",
"'. c #8934B7",
"]. c #9945A8",
"[. c #A749AA",
"{. c #B54BAA",
"}. c #B656AA",
"|. c #AC4CB4",
" X c #AC4CBB",
".X c #B34DBC",
"XX c #AC53B7",
"oX c #B453B4",
"OX c #BB53BC",
"+X c #B958B7",
"@X c #C557BA",
"#X c #9935C4",
"$X c #AA46C4",
"%X c #B74AC6",
"&X c #B350CD",
"*X c #9C45C4",
"=X c #C64BC7",
"-X c #C354C4",
";X c #C355CB",
":X c #C45ACB",
">X c #C859C7",
",X c #E94FD2",
"<X c #E96ED3",
"1X c #D48ECF",
"2X c #FAB7E6",
"3X c #F6CDE9",
"4X c #1D1C1C",
"5X c #5B4546",
"6X c #684A46",
"7X c #5F4F64",
"8X c #ECDBE0",
"9X c #B234CA",
"0X c #F471EB",
"qX c #F3ACD1",
"wX c #6F4F50",
"eX c #884C72",
"rX c #B16899",
"tX c #B98DC9",
"yX c #BAC5B2",
"uX c #DFC4B5",
"iX c #68431E",
"pX c #1A1817",
"aX c #381C29",
"sX c #CE28AC",
"dX c #D8C3C8",
"fX c #BAB0A7",
"gX c #D1C5B7",
"hX c #E839DD",
"jX c #3A2425",
"kX c #D657E4",
"lX c #8A3275",
"zX c #2F2B5C",
"xX c #B425CF",
"cX c #835558",
"vX c #594739",
"bX c #69503A",
"nX c #B46BAC",
"mX c #64493A",
"MX c #6B1B64",
"NX c #B88AB4",
"BX c #E3AAB7",
"VX c None",
"CX c #9B1998",
"ZX c #D658C7",
"AX c #534652",
"SX c #8E626C",
"DX c #922EC4",
"FX c #342F19",
"GX c #513398",
"HX c #37444E",
"JX c #971A60",
"KX c #611828",
"LX c #341419",
"PX c #B91242",
"IX c #170617",
"UX c black",
/* pixels */
"> = - > * - - * VXVXVXVXVXVXVX- = - = VXVX- % & & - VXVXVXVXVX6 pXFX6 6 # # @ 8 ; - 6 - - - X * * * - * % % % % % @ % - % % % + + - % % % VXVXVXVXVX% % % % ",
"* - = * > = = > VXVXVXVXVXVXVXVX- * * - - = - - ; - ; ; ; ; 6 - pXO @ 6 z z @ 8 ; - - @ - - X X * * - - % - % % - - - + + % % - - - % + + % VXVXVX- - VXVX+ ",
"* > - > * - * > VXVXVXVXVXVXVXVX* - - = * - = = - - - - - - 6 - - ; j z J J j j 6 6 6 - 8 - + * % % = - % % % - % % % - + % % + % p % % % p VXVXVXVXVXVXVX% ",
"- VXVXVX> = - VXVXVXVXVXVXVXVXVX= - * = % = * - - - - ; ; ; - ; ; 6 x x T T zXj ; 6 6 6 @ @ * % % - - - - % VXVXVX- % % % % % % % % + - % % - - VXVXVX- % - ",
"= - - - > * - = VXVXVXVXVXVXVXVXVXVXVXVX* : - - & - - - > ; 6 6 j c T T ) ) x j 6 6 ; - ; - X % % - & ; - - % + % % - - % - % % % % p + % + % + VXVXVXVXVX- ",
"= > = * - = * > VXVXVXVXVXVXVXVXVXVX- - - - - - - > > - ; > 6 7 c x T T ) ] j j 6 6 6 6 ; - * O - = & % - - % - - % - p % + - + % + - - % % % % - VXVXVXVXVX",
"VX> * > > > * = VXVXVXVXVXVX- & VXVXVXVXVXVX- : > ; ; ; ; > 9 9 j j ] ] M.(.z # 8 6 8 8 ; 6 % X % - % - - % - % % % % % % + % + - % - + % % % % % % + % - VX",
"VXVXVXVXVXVXVX- VXVXVXVXVXVX; & & % - - - - ; ; 7 7 ; ; ; 7 r 9 j x ] ..M.6.n j 6 : 8 8 - ; O O - % - % % % % % - % - % % - + - + - + % VXVXVX- % % % VXVXVX",
"> > > - = > > - > > - > = : VXVX& & = & ; ; 6 6 8 6 8 6 ; 9 w @ w @ j Z Y Y l # 3 3 6 # - 6 % X & % - % % % % % % % % % % - % % - VXVXVXVXVXVXVXVXVXVXVXVXVX",
"* = - - : - = VXVXVX= - - = - - & & = - ; 6 8 6 8 : 6 : - 6 9 @ @ + j V T T k # 9 # 8 8 6 6 X O - - % - - - % % - % - % - + % - + VXVXVXVXVXVXVXVXVXVXVXVXVX",
"= * * = = * = * * * = * VXVX= - & = ; ; 6 ; 9 w r 8 9 w 6 9 aX+ . IXIXj j j 9 # 3 ; 6 6 6 @ X & % & - % % - % - % % - % % - % % - VXVXVXVXVXVXVXVXVXVXVXVXVX",
"* = = = * = = = = * = = = = > & & & 3 > 6 6 9 8 8 9 8 9 9 0 @ @ @ + # j v j 9 9 1 9 8 6 ; ; & & % * = * % % - % % % + - - + % - - * VXVXVXVXVXVXVXVXVXVXVXVX",
"- & - > - & > & VXVX= * = = - - = = > & 9 9 w w k w e w r r q @ LX. # # v e 2 y y 2 w w 6 # ; ; & = > = * - * - % - % - % - % % - % % + % % % VXVXVXVXVXVXVX",
"- & - & > & - > VXVX* = * = = > = = > 3 7 9 e l k l l t u t r 9 LXFX# # n n 1 9 q q e w w w 3 3 > & * = - - - % % % % % % % - + % % % % + - VXVXVXVXVXVXVXVX",
"VXVXVXVXVXVXVXVX- & VXVX= - VXVX1 3 9 0 r r e e C F n M t l b e FXa f e Q.Q.f f f e k k z j 9 9 0 9 - > ; - - - % & % % * - - % - - % - - - - % VXVXVXVXVXVX",
"- ; > & - > - ; ; & * VXVX> > > > 4 r r q d b b I I M M t l l t s FXf f n Q.d d e d b z z z w r 0 9 > > 6 - * * - * - * - - % % + % % % % VXVXVX* VXVXVXVXVX",
"VX> > ; ; 6 VXVXVXVX- VXVXVX7 7 0 r t b Q.V U U ~.I Z Q.b m b t b b q f g d M M J J U T J Q.b b r r 8 8 6 8 - ; * - : - * - * - - % - % ; % - % VXVXVX= - % ",
"; ; ; 7 ; > - - - > > = VXVX7 7 q t l l Z I Y W L L A Q.m b b W.W.b g g M g M M J T Y Y J Q.n m r r 8 r 8 8 : > : * * : * * % * % - % - - % = VXVXVXVXVX% % ",
"; ; ; ; - * > : > = ; ; 0 3 9 9 l l m B P Y { ^.` U U P Z D D W.C A D W.N C A S !.) ] ) U P Z Z l l c z w 8 6 6 : : : * * % * - - % VXVXVX% VXVXVXVXVX- + VX",
"VXVX; ; - > - * > > ; > 3 9 r 9 t l C C U L { { ` ` ~.L F T F AXF F D B F B F A ) ) ..` Y U Z Z m z l w 8 w 6 6 : : * % * % % - % % - - % - % % * VXVXVX- % ",
"- 8 : ; > * - : : : & ; 0 9 q 0 x V J I W W } } ) { ) ) I E I I ~.W ~.I I E Q R +.{ GXO...] Y U Z V z l r r ; 6 > & * * X * X $ % - % & - - * VXVXVXVX- - % ",
"6 : ; ; * - : * : > ; 7 9 0 w t b c K P W _ } X.....^.` E ~.7XY ~.7XE E ~.( ~.~.{ { ..O.....~.U A Z m b l l 9 9 > - = = * % % * % % - % % - VXVXVXVXVXVX% % ",
"6 @ ; : VXVXVX- ; ; 3 0 0 y t l V Z U ) ^.} o.o.} } ^...~.( ~.( [ ] [ M.[ lX[ [ O.O.O.O.).o.^.` I K C M z z e w 3 ; & - + - - - % % - - - % - - = VXVXVX- % ",
"6 6 ; ; * : * : ; & 6 9 9 r l l C Z U Y } | o.*.).} (.(.] ] ] ( (.6.~ M.[ @.[ $.O.'.O.O.).X.] ` R L A D m M e w 1 @ ; - % & - - - % - = % % - VXVXVXVX* % VX",
"VX; - * * * = = - ; 9 0 t t n m P P { { | $.2.4.o.o.X.X./.[ :.`.6.lX6._.].].$.' =.:.*.'.O.).o.o.Q Q Q U Q.Q.k e 9 1 ; @ ; @ VXVXVXVXVX= - - - = - - - - - % ",
"; ; : - * % = > ; > 9 0 t t n V J P ` ^.| $.2.$Xo.`.`.&.' [ ].6.eX6.@.6._.%.#.#.*.:.*.*.*.*.o.o.W Q Q !.Q.Q.b k 9 9 ; ; - 6 - - - - - - - = - - VXVXVXVX% % ",
"> - : = * * & > 9 ; e t k b M C !.U  . .#.:.8.$X'.2.2.&. .| 2.8.].].]._.>.#.-.<.<.1.,.,.,.,.O.O._ Q W U J P m n q e 6 6 6 @ ; ; - ; : - - - = = VXVXVX* - % ",
"- - > - * = > ; ; 9 w w b M m C R Q } | `.:.$X$X*X8.2.:.#.`.8.8.7.].7.]._.-.;.<.1.<.1.,.'.*.,.O.' _ W U A P V M d y 9 ; 6 6 6 @ - - * - = - - - - VXVX% VXVX",
"; : : - * * > > 9 9 e l b m C C ` { } X.`.:.0.$X$X X0.2.2.;.0.$X#.`.:.>.<.<.<.DXDX<.'.,.'.,.O.,.} } ] ` L P C m d t 9 9 6 6 7 VXVX; - - - = = - = VXVX* - % ",
"- ; * * % * & ; 7 9 w l n m C F ` { | X.2.>.$Xa.a.$X0.0.>.>.$X0.=.#.;.1.2.#XDX<.'.'.'.DX'.,.'.O.(.} ] ] L L D C b b r r 9 9 7 6 ; ; * - - - - - - - - - - - ",
": : : ; VXVX& ; 9 w z k V C K L {  .X. .[.8.w. Xa.a.0.0.2.2.4.-.2.-.DX#X#X#X#X#XDXDXDXDX,.,.,.,.).X.(./.~.U A Z W.M d e k w 9 9 6 6 VXVXVXVXVXVXVXVXVX= * VX",
"VXVX6 ; - > ; 3 w w n m V Z L L  .{ &.X.a.XXw.w.a.$X0.2.4.<.2.&.2.2.#XDX9X#XxXDXDXDX'.DX,.,.'.1.`.)./.(.~.VXVXK B M b l r e y w VXVXVXVXVXVXVXVX* VXVXVX* - ",
"- > > = & > ; 9 3 4 d d K K ` ^.o.X.`.$.XXXXw.XXa.a.4.3.4.#X<.<.2.#X#Xp.p.p.xXDXDXDX*XDX:.'.2.$XX.#. .&.#.=.+.#.+.) !.!.x j y e 9 8 6 : 6 6 6 @ VXVXVXVXVX% ",
"> > > > & - 9 0 9 q d W.K Y ` ] *.O.$.#.K.K.e.XX&X$X4.2.#X<.#XDX#X#Xp.#X9Xp.xX#X#XDXDXDX1.'.2.4.:.=. .| +.#.#.+.) +.U !.x v f e 7 r 6 6 6 - - VXVXVXVXVXVXVX",
"VX& 1 > ; 0 9 y f e M M U Q /.[ ,.,.;.*.XX|.a.d.d.d.%X4.4.#X#X4.9Xp.p.p.xX&X#Xp.#X#X2.DX0.$X$X$X8.2.&.;.#.=.o.#.+.{ ) !.v v v n w 8 7 8 6 - - 8 % * : - * - ",
"; > & 1 ; 3 9 y y d M M U W /.(.,.O.1.o.|.8.a.d.d.VXVX%X9X<.#X#X$X#Xp.p.&X&Xp.xX#X#X#X#X$X&X&X&X$X0.;.>. .=.#. .} { ` ) P v M n r w 8 8 - 8 @ - $ * * * * * ",
"3 ; > 3 ; 3 e t b b N Q.` ^. .| DXO.,.,.$X$X&Xd.g.d.g.;X%X4.4.5.4.#Xp.#X9X9Xp.9Xp.<.<.2.4.%X.X%X$X$X8.8.X.`.o.#.| } /.{ U U !.!.r r 8 8 6 6 - - : - $ - * - ",
"& > & > 3 3 9 r e b C S ` /.| | ,.DX,.DXa.$Xd.&X&Xg.g.g.s.9Xp.4.p.p.&X&X&X9Xp.p.$X2.2.2.q..X%X%X&Xa.8.8.:.:. . .} } /.{ W Q !.VXVX8 8 8 - 8 @ 8 * * * VXVX* ",
"& > 3 ; ; 9 9 q k b S A ^.{ o.X.O.,.DX,.a.w.d.%X&X=Xg.=X=X%X%Xq.0.%Xg.g.g.=X&X&X9X4.4.$Xq.OXOXOXXXa.8.a.>.>.|  .X.X. .} ^.+.Q U w w 8 8 8 - @ : VXVXVXVX* - ",
"> ; 3 > 3 3 0 w k m C A ^./.*.&.O.,.*X#Xd.a.d.d.g.g.VXVXg.=X=X&X%X%Xg.kXg.g.9Xg.<.4.0.$Xr.-X%Xs.a.a.$X&X2.0.=.#. .o.} | ^.^.` U l w 8 8 6 6 - - * VXVXVX$ - ",
"3 ; 3 ; > > 0 0 l l V D ....O.X.#.#.a.a.XXXXOX+X-X>X;Xg.g.g.g.g.h.d.g.g.kXL.;X&X%X9Xf.:X+X+XoXq.XXw.VXVX|.|.[.].&.*. .X.{ /.` ) l c 8 r 8 - 8 6 * * VXVXVX% ",
"> & ; > & 3 3 0 l c D J ..] ).).$.#.a.a.e.XX+X@Xq.-XL.=Xg.g.g.g.d.h.:Xg.g.g.g.g.s.%Xw.+Xd.d.OX{.w.w.w.XX|.0.].].o.=.} ).{ /.+.!.c VXVXw 8 8 : - = * * X * % ",
"; > > & 3 & ; 3 r l D Z ) ..).*.#.#.a. XoXoX@X@X;Xg.g.;X:X:Xh.h.@Xf.g.g.g.L.g.:X:X:Xe.e.j.tXXXK.oXoXXXoX|.[.[.>.&.&. .X.{ +.) !.z l w 9 6 6 : 6 - VXVXVXVXVX",
"3 & ; 3 ; > > 0 c c V Z Y ] ).O.#.#.XX8.+XoX+XOX%Xq.@Xq.g.:Xd.:Xe.e.>XZXL.L.>X>Xf.f.XXXXI.tXK.9.oX}.oXq.{.[.[.].>.;.X.&.` ` +.+.l k c z 8 6 : 8 - VXVXVX% * ",
"3 > 3 > > > 3 ; 0 f m C R W X.X.O.,.0.2.q.oX{.@Xh.OXy.y.1Xf.nXnXy.e.>X-X>XZXh.ZXf.f.tXI.U.U.tXtX}.oX|.|.|.|.[.|.8.8.(.#.` /._ ^.z z k w 6 8 : 8 - = * - * - ",
"& > > > 3 > ; 3 q u W.V !.U | =.,.*.8.2.OX+X{.}.OXoX+X+X1XtXnXK.y.h.ZX>X=Xg.>Xh.e.f.tX1XU.x.tXtXoX}.K.{.[.|.[.|.8.XX#.$.' /.` _ l z w w 6 8 6 : > = % % * VX",
"VXVXVX> > > 0 7 3 5 m l U U (.$.'.,.;.:.+X+X{.{.w.w.j.j.2XD.3XS.j.u.j.@XZX>X@Xh.I.1XU.S.T.T.tXtX}.XX|.|.[.[.|.|.XX8./. .^.^.P !.l z r 9 6 6 ; - & - * * = - ",
"> 7 0 > > > 7 7 3 5 b M !.R  .`.'.O.>.:.d.@X{.}. Xf.j.j.2Xz.b.S.I.j.h.h.>XZX@XZXU.I.x.U.x.x.tXtX}.}.|.K.|.[.[.0.].9.| (._ /.U !.z l w 8 7 8 6 ; - % * = * = ",
"> > > > > > 0 u 7 0 l l C D K E (.(.'.O.9.].OX>X,X,X0XH.v.2X3XT.c.c.3X3Xl.NX1XtXA.x.x.x.H.U.nX}.K.K.XXXX|.[.0.|.:.>.(.[ ] ] C b c 8 7 : 8 : - - ; * > ; - - ",
"> 0 > 7 > > > > 0 0 t t m C S K  . .'.9.9.9.>X>X,Xi.0X0Xb.v.S.T.c.c.3X3Xl.NXx.I.x.x.x.x.U.1X}.K.oX}.|.XX[.[.[.0.$.$.' ' _ U M n r r 8 8 8 : : $ VXVXVX: > - ",
"> i > > VXVXVXVX> > u r b b S F +.lX#.&.3.3.,XL.,X,X,X,Xv.v.n.dXdXdX8X8XT.x.T.gXyXgXP.A.u.I.|.K.7.K.{.K.[.[.>.0.' $.' [ J !.b k 8 8 i 8 - - 8 8 > * VXVXVXVX",
"> > > i > i VXVXVX0 r r l l C F ! !  .#.C.3.ZX,X,X,X,X,XH.v.A.8XT.n.8XT.A.yXT.yXfXP.A.A.NXnXK.|.VXVX7.[.K.|.>.[.'  ._ [ !.J l k 8 8 8 : 8 $ $ : * VXVXVXVXVX",
"VXVXVXVXVXVXVX7 3 3 0 0 t u M W.MXH MX! -.3.5.Z.hXk.r.ZXz.D.gXuX8X8XS.T.A.x.T.T.P.c.D.z.j.j.,X<Xy.}.7.{.[.[.2.9./. .L R x n l e r 8 7 8 8 $ 8 $ = * VXVXVXVX",
"VXVXVXVXVXVXVX> > i 0 0 r t M C N H MXR CX-.sXsXhXk.ZX<Xl.BXuXn.8X8XT.T.A.A.gXA.c.c.1XBXj.h.kXkXu.y.7.{.[.3.;.;.^.^.P P x n e z 8 8 8 : : 8 : : = = VXVXVXVX",
"i > > > > > > > i 7 0 0 0 u t u u HXD Z W ' 4.-.sXZ.%XkX7.}.x.D.BXc.D.qXb.U.b.b.v.v.H.<X,XkX,X,X>Xh.h.oX_._. .#.U U n m r 9 7 9 6 8 $ 8 8 : 8 : - = VXVXVXVX",
"> > VXVXVXVXVXVX3 > i 7 0 0 t t u u x C U Q 2.-.Z.xXL.kX+Xy.1XA.z.c.Y.F.U.b.b.b.v.b.H.<X,X,X,X,X:X-XOX{._.%. .^.U J x l u r 9 8 8 8 8 - i 8 : : = > VXVXVXVX",
"VXVXVXVXVXVXVXVXVXVX> 0 i u 0 u t l l u I I ] ~ _. .-.-.9XkX0X0XBXBXY.qXBXBXn.Y.3X3Xu.u.rXu.@X@X>Xw.>._.'  .Q !.x J r r 7 7 8 j ; 6 - VXVXVX* - = > VXVX- * ",
"> > > > > > > i 0 > 0 i i 0 i u u u g AXT I Q ~ #.%.5.4.&X&X0X0XqXqXY.qXc.c.n.n.Y.qXrXrXrXrX{.@X+X}.>._.#.' ` U zXx r r 7 6 j 8 6 ; & > - > > > > - * = = > ",
"VXVXVXVXVXVXVXVXVXVXVXVXVXVXr r d t k n M M H H lX%.4.5.9XZ.k.,Xt.<XH.v.qXqXqXqXz.z.}.nXt.OX].].@.@.! ~ v S c m x l 8 r 8 8 8 8 > * - * > > * = * - * VXVXVX",
"VXVXVXVXVXVXVXVX> 0 VXVX7 i 3 u 0 y n m B A h B @.lX<.#Xg.9X,XL.i.,Xz.H.qXqXqXqXz.l.K.K.}.q.$.>.' ' Q [ S S V V W.l w 8 8 8 8 8 > = > > = > - > = VXVXVXVXVX",
"i > > i i > 3 3 VXVX> 7 VXVX4 4 e e 6XG.bXbXmXmXJ.J.@.%.7.7.C.C.5.r.i.h.u.i.u.rXnXrX9.6.:.(.[ _ H R n S V Z z D u r i > $ : : VXVXVX- > > - > = * VXVXVXVXVX",
"VXVXVXVXVXVXVXi > > 0 3 0 > 0 4 e 9 wXG.V.cXH V.eXVXVXVX%.C.C.{.Z.r.OX@XrXrXrXrX7.7.6.6.(./.! ! E R Q.S V J x x u 0 > i i 8 : - > = > = > = VXVX- VXVXVXVXVX",
"VX3 VXVXVX3 > > > > > > 3 > = < FXN.V.V.bXV.bXbXG.G.G.m.( ( ( VXVXVX6.eX( ( H J.E E ! Q E H h B h f aXa k k w w 0 0 < FX= = 8 : - > * > * > - VXVXVXVXVXVXVX",
"VX> > 3 > > > 3 i > 3 i > > < 3 5 FXV.cXbXcXbX^ G.G.m./ / J.( ( rX6.lX~ ~.E I G H H R R H P B N d f a f z m l z 0 6 = = = = : 6 * > > > - = = - = VXVXVXVXVX",
"VXVXVXVXVXVXVXVXVXVXVXVXVXVX3 > VXVXVXVXVXVXwXG.G.G.6X/ AX/ VXVXVXVXVXVXVXVXVXVXVXN W.W.b g M y f f < 2 2 1 6 0 3 3 ; VXVX; > = VXVXVXVXVXVXVXVXVXVXVXVXVXVX",
"VXVXVXVXVXVXVXVXVXVXVXVXVXVX& VXVXVXVXVXVXVXVXVXVXVXVXwXVXVXVXVXVXVXVXVXVXVXVXVXVXC W.f d d f d q d q 2 1 2 6 9 3 VXVXVXVX& - > VXVXVXVXVXVXVXVXVXVXVXVXVXVX",
"VXVXVXVXVXVXVXVXVXVXVXVXVXVXVXVXVXVXVXVXVXVXVXVXVXVXVXVXVXVXVXVXVXVXVXVXVXVXVXd f d a f 2 2 aXy g B E.W.q 2 1 & 1 = & > VXVXVXVXVXVXVXVXVXVX> > > > > > > > ",
"VXVXVXVXVXVXVXVXVXVXVXVXVXVXVXVXVXVXVXVXVXVXVXVXVXVXVXVXVXVXVXVXVXVXVXVXVXVXVXVXVXVXq f d VXVXVXB B B E.g 5 VXVX& 1 > 3 VXVXVXVXVXVXVXVXVXVXVXVXVX= : = > = ",
"VXVXVXVXVXVXVXVXVXVXVXVXVXVXVXVXVXVXVXVXVXVXVXVXVXVXVXVXVXVXVXf d VXVXVXVXVXVX2 jX2 VXVXVXVXVXVXVXVXVXg E.g u < = < > > VXVXVXVXVXVXVXVXVXVXVXVXVX* - > = - ",
"VXVXVXVXVXVXVXVXVXVXVXVXVXVXVXVXVXVXVXVXVXVXVXVXVXVXVXVXVXVXa 4 4 q VXVXVXVXVX, 1 VXVXVXVXVXa h VXVXVXVXE.VXVXVX& , & 3 3 > VXVXVXVXVXVXVXVXVXVXVXVXVXVXVXVX",
"VXVXVXVXVXVXVXVXVXVXVXVXVXVXVX- VXVXVXVXVXVXVXVXVXVXVXVXVXVXVXVXVXVXVXVXVXVXB.< g g B.B.s s R.R.R.s s s E.s s s @ 1 3 & 3 & > - > > VXVXVXVXVXVXVXVXVXVXVXVX",
"VXVXVXVXVXVXVXVXVXVXVXVXVXVX& = VXVXVXVXVXVXVXVXVXVXVXVXVXVXVXVXVX< VXVX= VXVXB.s B.< jXa s VXVXVXVXs s FX5 VXVXVXVXVXVX> VXVXVX> * VXVXVXVX= VXVXVXVXVXVX- ",
"VXVXVXVXVXVXVXVXVXVXVXVXVXVX> = E.^ vXvXvXbX^ VXVXVXVXVXVXVX< < O O O O o FXB.B.B.B.B.N.N.s s E.B.VXVXVXVXVXVXVXVXO 3 VXVXVXVXVXVXVXVXVXVXVXVXVXVXVX> * > = ",
"VXVXVXVXVXVXVXVXi VXVXVXVXVXVX= E.HXvXvXbXVXVXVXVXVXVXVXVXVXVXo O O O O FXo < < O VXVXVXa FXs s s s a iXVXVXVX< O = VXVX= VXVXVX= - * > = > * - VXVXVXVXVXVX",
"VXVXVXVXVXVXVXVXVXVXVX> > > % X $ FX5 VXVXVXVXVXVXVXVXVXVXVX& VXVXVXX O VXVXVX& = O O VXVXVXa VXVXVXs VXVXs B.jXVXVXVXVXVXVXVXVXVXVXVXVXVXVXVXVXVXVXVXVXVXVX",
"VXVXVXVXVXVXVXVXVXVXVXVXVXVX& 4XO i g E.E.5XVXVXVXVXVXVXVXo O o X   VXVXVXVXVXVXO o N.N.VXVXVXVXVXg VXVX5 B.< o VXVXVXVXVXVXVXVXVXVXVXVXVXVXVXVXVXVXVXVXVXVX",
"VXVXVXVXVXVXVXVXVXVXVXi 3 > % X 4XX $ O X O o VXVXVXVXo & % % 4XVXVXVXX . + + @ + & & & o o < B.5 5 g g 3 < VXVXVXVXVXVXVXVXVXVXVXVXVXVXVXVXVXVXVXVXVXVXVXVX",
"VXVXVXVXVXVXVXVXVXVXVXVXVX> = & O * VXVXVXVXo O O o X & X   % 4X  VXVX4XVXVX+ . . + . . o . o jX< 5 5 4 < & VXVXVXVXVXVXVXVXVXVXVXVX- * - = * VXVXVXVXVXVXVX",
"VXVXVXVXVXVXVXVXVXVXVXVXVXVXVXVXX pX$ $ VXVXVX=     - VXVXVX+ - > > - > 3 3 - @ - + + p + @ VXVXVXVXVXVX% VXVXVXVXX = = = > VXVXVXVXVXVXVXVXVXVX* VXVXVX= - ",
"VXVXVXVXVXVXVXVXVXVXVXVXVXVX3 > > * * O X O pX4XVXVXVXVX+ @ - + > 0 VXVX1 ; 3 - % * 4XVXVXVX+ % & & & + + VXVX. % % = = * = VXVXVXVXVXVXVXVXVXVX- = = - - * ",
"VXVXVXVXVXVXVXVXVXVXVXVXVXVXVXVXVXVXVXVXVXVXVXVXVXVXVXVXVXVX> VXVX7 > 0 > > > > - +   4X4X%   + VXVXp   +   4X%   % - - * VXVXVXVXVXVXVXVXVXVXVXVXVXVXVXVXVX",
"VXVXVXVXVXVXVXVXVXVXVXVXVXVXVXVXVXVXVXVXVXVXVXVXVXVXVXVXVXVX> VXVXVXVX> > > 0 VXVX- + +   p 4X  VXVXVXVX4Xp   4X+ % = = > > VXVXVXVXVXVXVXVXVXVXVXVXVXVXVXVX",
"VXVXVXVXVXVXVXVXVXVXVXVXVXVXVXVXVXVXVXVXVXVXVXVXVXVXVXVXVXVXVXVXVXVXVXVXVXVXVXVXVXVXVX: : % 4X4XVXVXVXVXp %   % % % = - VXVXVXVXVXVXVXVXVXVXVXVXVXVXVXVXVXVX",
"VXVXVXVXVXVXVXVXVXVXVXVXVXVXVXVXVXVXVXVXVXVXVXVXVXVXVXVXVXVXVXVXVXVXVXVXVXVXVXVXVXVXVXVXVX% 4X4XVXVXVXVXVXVX% - % % VXVXVXVXVXVXVXVXVXVXVXVXVXVXVXVXVXVXVXVX",
"VXVXVXVXVXVXVXVXVXVXVXVXVXVXVXVXVXVXVXVXVXVXVXVXVXVXVXVXVXVXVXVXVXVXVXVXVXVXVXVXVXVXVXVXVX* = - VXVXVXVX* * - * * VXVXVXVX: VXVXVXVXVXVXVXVXVXVXVXVXVXVXVXVX",
"VXVXVXVXVXVXVXVXVXVXVXVXVXVXVXVXVXVXVXVXVXVXVXVXVXVXVXVXVXVXVXVXVXVXVXVXVXVXVXVXVXVXVXVXVXVXVX> > > > > > > = VXVXVX> > > > VXVXVXVXVXVXVXVXVXVXVXVXVXVXVXVX"
};
