/* XPM */
static char *_a20353eb8434bd2f1c2a8740e7404e78vAgghH6n4FzEMlb_9[] = {
/* columns rows colors chars-per-pixel */
"78 86 256 2 ",
"   c #221D1D",
".  c #271D1A",
"X  c #24221D",
"o  c #2B231D",
"O  c #2A291D",
"+  c #231E21",
"@  c #291D28",
"#  c #321B36",
"$  c #1B2C29",
"%  c #252425",
"&  c #2A2524",
"*  c #252926",
"=  c #2A2925",
"-  c #262529",
";  c #2A262B",
":  c #26292A",
">  c #2B2A2B",
",  c #332523",
"<  c #342A24",
"1  c #33252C",
"2  c #3B242C",
"3  c #322A2D",
"4  c #3B2B2B",
"5  c #3B312A",
"6  c #2C2532",
"7  c #2D2A32",
"8  c #2B2638",
"9  c #322634",
"0  c #332A34",
"q  c #3B2B34",
"w  c #34253B",
"e  c #3A253C",
"r  c #352B3A",
"t  c #3A2B3C",
"y  c #3C2433",
"u  c #383138",
"i  c #283332",
"p  c #1D1F20",
"a  c #432B2A",
"s  c #46352B",
"d  c #442A3B",
"f  c #462837",
"g  c #493735",
"h  c #522E37",
"j  c #381C4A",
"k  c #3B2543",
"l  c #3C2B43",
"z  c #392747",
"x  c #3C2653",
"c  c #342E47",
"v  c #4A1C52",
"b  c #432B44",
"n  c #43254C",
"m  c #432B4B",
"M  c #492947",
"N  c #542A48",
"B  c #573748",
"V  c #452B53",
"C  c #4B2C54",
"Z  c #4C2B5B",
"A  c #532C5C",
"S  c #552857",
"D  c #4A3256",
"F  c #573358",
"G  c #653857",
"H  c #692E54",
"J  c #4B2865",
"K  c #542B63",
"L  c #5B2C6C",
"P  c #572768",
"I  c #583367",
"U  c #5A2976",
"Y  c #5B3375",
"T  c #4C306C",
"R  c #652969",
"E  c #663569",
"W  c #632C7C",
"Q  c #662A78",
"!  c #752A79",
"~  c #763679",
"^  c #6A5446",
"/  c #694657",
"(  c #764A6B",
")  c #5B2C85",
"_  c #6B2C84",
"`  c #662886",
"'  c #752B8A",
"]  c #6A3387",
"[  c #763489",
"{  c #6C2A94",
"}  c #742C9B",
"|  c #7B2C9C",
" . c #792897",
".. c #6B3395",
"X. c #7C2CA3",
"o. c #7929A7",
"O. c #772CB0",
"+. c #6D1D92",
"@. c #863789",
"#. c #842B9A",
"$. c #863599",
"%. c #8F2D8C",
"&. c #832CA4",
"*. c #832CAB",
"=. c #892BA9",
"-. c #952AA9",
";. c #8C33AB",
":. c #8836A8",
">. c #9638AA",
",. c #882CB5",
"<. c #952DB7",
"1. c #8C32B3",
"2. c #9737B7",
"3. c #A639A8",
"4. c #A53AB9",
"5. c #B12FB3",
"6. c #924892",
"7. c #AA4E99",
"8. c #9B44B6",
"9. c #8D49AB",
"0. c #A646B7",
"q. c #B74BB7",
"w. c #B453BC",
"e. c #B965B8",
"r. c #C64BB8",
"t. c #CF53B4",
"y. c #C665B9",
"u. c #CD6FB4",
"i. c #DA5BB3",
"p. c #A539C5",
"a. c #B453C3",
"s. c #BC54C4",
"d. c #BB57C8",
"f. c #BB67C5",
"g. c #C857D4",
"h. c #C865C6",
"j. c #D370CD",
"k. c #ED4FE8",
"l. c #CD8BB8",
"z. c #E991D2",
"x. c #D2AFCF",
"c. c #E5B8C9",
"v. c #F9A8E7",
"b. c #EEB0EC",
"n. c #EBCBD4",
"m. c #774A57",
"M. c #774590",
"N. c #35281D",
"B. c #3B2C24",
"V. c #74554A",
"C. c #A83595",
"Z. c #CE37CD",
"A. c #D8B9C9",
"S. c #D9B9D5",
"D. c #E7A9D8",
"F. c #E6B7D7",
"G. c #785655",
"H. c #F392EC",
"J. c #753469",
"K. c #AA54A9",
"L. c #D44ED2",
"P. c #D1B6B7",
"I. c #C987C7",
"U. c #DAA3E3",
"Y. c #F8B6D8",
"T. c #D4C4CF",
"R. c #533B39",
"E. c #514334",
"W. c #473248",
"Q. c #472557",
"!. c #521C6A",
"~. c #673378",
"^. c #6C2B8B",
"/. c #732C94",
"(. c #783397",
"). c #7B33A5",
"_. c #963899",
"`. c #8332A4",
"'. c #8934B7",
"]. c #9945A8",
"[. c #A749AA",
"{. c #B54BAA",
"}. c #B656AA",
"|. c #AC4CB4",
" X c #AC4CBB",
".X c #B34DBC",
"XX c #AC53B7",
"oX c #B453B4",
"OX c #BB53BC",
"+X c #B958B7",
"@X c #C557BA",
"#X c #9935C4",
"$X c #AA46C4",
"%X c #B74AC6",
"&X c #B350CD",
"*X c #9C45C4",
"=X c #C64BC7",
"-X c #C354C4",
";X c #C355CB",
":X c #C45ACB",
">X c #C859C7",
",X c #E94FD2",
"<X c #E96ED3",
"1X c #D48ECF",
"2X c #FAB7E6",
"3X c #F6CDE9",
"4X c #1D1C1C",
"5X c #5B4546",
"6X c #684A46",
"7X c #5F4F64",
"8X c #ECDBE0",
"9X c #B234CA",
"0X c #F471EB",
"qX c #F3ACD1",
"wX c #6F4F50",
"eX c #884C72",
"rX c #B16899",
"tX c #B98DC9",
"yX c #BAC5B2",
"uX c #DFC4B5",
"iX c #68431E",
"pX c #1A1817",
"aX c None",
"sX c #CE28AC",
"dX c #D8C3C8",
"fX c #BAB0A7",
"gX c #D1C5B7",
"hX c #E839DD",
"jX c #3A2425",
"kX c #D657E4",
"lX c #8A3275",
"zX c #2F2B5C",
"xX c #B425CF",
"cX c #835558",
"vX c #594739",
"bX c #69503A",
"nX c #B46BAC",
"mX c #64493A",
"MX c #6B1B64",
"NX c #B88AB4",
"BX c #E3AAB7",
"VX c #4D1732",
"CX c #9B1998",
"ZX c #D658C7",
"AX c #534652",
"SX c #8E626C",
"DX c #922EC4",
"FX c #342F19",
"GX c #513398",
"HX c #37444E",
"JX c #971A60",
"KX c #611828",
"LX c #341419",
"PX c #B91242",
"IX c #170617",
"UX c black",
/* pixels */
"aXaXaXaXaXaXaXaXaXaXaXaXaXaX: * $ O $ $ i i c 8 8 8 - - & 3 ; @ @ @ @ # y # j j j j 6 # - 1 O O - - * - - aXaXaXaXaX- - + - + - aXaXaXaXaXaXaXaX- % + % - - ",
"aXaXaXaXaXaXaXaXaXaXaXaXaXaX: - O O $ O 7 i j @ - 8 6 8 > 3 @ . 1 2 9 1 e e j x z z w w 3 > & O = - % % * & aXaXaXaX% % - - - aXaXaXaXaXaXaXaXaXaXaXaXaXaX* ",
"aXaXaXaXaXaXaXaXaXaXaXaXaXaXaXaX$ $ : : # 8 j j w w 6 9 r r 6 @ 9 r t e n n v Q.J Z x k 9 9 < > = = & % - aXaXaXaXaX- - - - p - aXaXaXaXaXaXaXaX- % * aXaXaX",
"aXaXaXaXaXaXaXaXaXaXaXaXaXaXaXaX* $ : : 6 w x c e z 9 l t q # @ 9 e e t n j x Q.I K m x 9 y 3 3 > = = = * * * aXaXaX- - - - - - % % % % - % = - % % aXaXaX% ",
"aXaXaXaXaXaXaXaXaXaXaXaXaXaXaX> ; - w w z V I U Q.Q.n x l l e 9 y r t l v v !.) ] Y Z Q.k e r r > & * = * - - - % % p - + - p - % % % % % % % - % % - aXaX% ",
"aXaXaXaXaXaXaXaXaXaXaXaXaXaXaXaX; ; c w n V Y 7XA F n n l l t l r r b b v J U ) ..U Z Z b d r r 3 0 > : - = - aXaXaXaX- - - - - - % - - - - % - + - * aXaXaX",
"aXaXaXaXaXaXaXaXaXaXaXaXaXaXaXaX# 6 k n !.!...(.~.L Z v x x l l m m Q.C U U ) ^.{ ) P !.n Q.k l 9 9 7 i ; 6 - : ; ; - - - - - - ; % % % % - - % - aXaXaXaXaX",
"aXaXaXaXaXaXaXaXaXaXaXaXaXaX> - 9 9 n x !.P (.M.Y Y A Q.V V V m V V A Q.U U ) ` ^.` W P S C l k r 0 7 7 6 : - - - - p @ - - - - % % - % % % - = % % % % * aX",
"aXaXaXaXaXaXaXaXaXaXaXaXaXaXaXaX9 e n n ] ~.9.6.M.6.P !.J x Z x D C A K Q ` +.{ ;.9._ ] P T x x r w 7 7 8 : ; ; - - - * - aXaX- aXaX- % % - aXaXaX% + % % aX",
"aXaXaXaXaXaXaXaXaXaXaXaXaXaXaXaX# 9 j Q.~.] 6.6.[ [ !.Q.D Z D x I I P P ` ` { +.9.:.^...T U x V l l r 8 8 8 : : : : * > - - % % % % % ; - aXaXaXaX% % aXaXaX",
"aXaXaXaXaXaXaXaXaXaXaXaXaXaX- > 9 r j n ] ] 9.9.M.M.P !.T J Z V E E ~.Q  . .o.*.:.:.(./.W U J P m n l z r 6 6 ; - > * - - % % % = - ; % % % aXaXaX- aXaXaX% ",
"aXaXaXaXaXaXaXaXaXaXaXaXaXaXaX> y t n n ~.] 9.9.[ (.L P T T T Z Y ~.[ !  .&.*.'.:.:./.(.U W L P D m l c w w 7 6 > - - - & - - = - % % - ; % - = aXaXaXaXaXaX",
"aXaXaXaXaXaXaXaXaXaXaXaXaXaX& > & 0 k e D J ( ] P P K Z T T Y Y ' [ #.' #.#.1.9.;.:.X.| ' _ Q _ I A m b l t 0 9 > ; : : - - - % % % % % % - - - aXaXaXaXaXaX",
"aXaXaXaXaXaXaXaXaXaXaXaXaXaX& & & r b l Q.x ) ( K P K Z Y Y Y Y ' ! [  .#.-.>.2.9.>.).).' ' ! Q F A W.V l l r 9 6 : * * * * % - % % % - - % - - * - - * - - ",
"aXaXaXaXaXaXaXaXaXaXaXaXaX> > ; ; q l x x x I I K I L S ~.Y Y .. .' #.&.<.;.;.8.8.8.'.9. ./.' ! ~.L I K C Q.b e 7 ; ; ; ; - - - - - - - % = - = % % - - - - ",
"aXaXaXaXaXaXaXaXaXaXaXaX> > > 0 > 0 z z x x A Z S S L G Y ~.] M.@. .=.=.2.;.>.2.8.8.>.;.#.$.~ ' ~.~.E K C C b e 0 0 > ; : - : - - - - - - - - = * - % - % - ",
"- > ; - > - aXaX* - aXaX* > > 7 z z z x V x D F F H R J...] ....X.&.;.;.8.>.2.8.8. X>.].;.2.o.X./.{ _ W K Z V M w 9 6 6 6 6 - ; - 6 - - - - - = - - - * % % ",
"> - : ; - aXaX> > - = > : > > i j c z x V V D D S G R ~...] ..M.&.&.1.:.8.8.0.0.0.a.1.2.9.8.).).} { _ ` L A C b t r 7 7 6 7 6 ; - - - - - - - - - = - aXaXaX",
"> > ; > > - : - : : = > > > 9 7 7 r c W.C C A F R ~.! ' { } ).O.*.=.;.<.4.8. X X X X>.0.8.*X:.o.o.o.] ^.~.U A C b k t k r r 6 6 6 6 - 6 ; ; = * - * * % * - ",
"- - ; : ; aXaX: - * > > > > 0 0 r u c D C D F I Q ! ' ' (.} '.).,.*.2.<.8.0.$Xa.a.a.2.0.8.8.'.:.o.X.[ /.~.U I A b l l r r r 8 7 6 6 aXaXaX; - - * - * * * * ",
"- 6 : : - : : * : : - - > 7 0 u u u c x J T Q W ' '  .#...O.'.DX=.-.4.2.0.0.s.d.a.s.%Xd.2.0.2.2.o.o.(./._ W L K Z M m k k k r 6 8 ; ; 6 - ; : * - * * * aXaX",
"aX- 8 - : - * * * : > > 7 7 r r u u D D K P W _ ' /. .=.O.O.DXDX<.2.$X$X%X$Xs.d.d.d.d.g.2.$X*X*X+.o./.(.[ ] E E S Q.b b l w 9 r 7 7 ; : - ; * - * - $ * * * ",
"6 - 8 : : : * : : * & > 0 0 t t b W.Z K U U /. .&.X.=.=.:.'.p.p.4.p.%X9X%X%X-X-X;X;X:X:X3.0.$X4.2.2.9.>.$.(.] ] L P Q.v Q.n 7 r 8 7 : ; - - * : - * % - * - ",
"- 6 - - - - : * : : > > 0 0 u u d W.Z I ` ` { } &.`.=.;.:.1.#Xp.&X$X$X%X;Xs.-X%X;X;X%Xd.4.$X$X4.2.2.2.:.9.$.[ [ Q Q K Q.Q.n 9 9 7 8 6 ; - : - : $ * aXaX$ - ",
"6 - - ; * * * * > : > 7 9 r l l J J T U ` ` } &.&.:.0.$X2.2.0.0.0..Xq.%X-Xs.-X%X-X:Xs.s.:X%X4.[.[.2.].>.].9.9.$.^.' W U !.!.e w 8 i 7 6 - - * * = - * * = % ",
"- 6 ; - : : * $ : : > > r u l l J J T Y { { o.o.;.<.>.4.0.0.0.0..X%X-X%X-X=X-X-X-X:X-X-X:Xd.3.|.2.0.8.8.9.].].9.[ ' W Q P !.l z 8 7 7 ; - - * * aXaX= = * * ",
"aXaX- - * * * : > > 9 9 r l m l T ) ..{ o.} &.`.2.2.>.|.a.d.s.%X=Xq.-X-X-X>X-X-X-X>X-X-X-XOX3.4.|.0.0.0.0.0.XX8.>.`.[ [ U Q z l r 8 8 ; > : : * * - * % aXaX",
"7 : : : * : * : > > 7 9 l l l M ) ) ....X.o.:.>.0.0.3.0.d.:X-Xs.s.=X-X-X>X-X>X>X>X-X-X-X-XOX.X.X|..X XXX$X0.0.8.9.>.(.[ Q U l z 8 7 7 7 - ; * - % % % * % % ",
": : : > : : > > ; 7 6 9 z t n m ) ) } } ).:._.:.>.[.[.0.d.s.s.s.d.-X-X-X>X:X>X-X-X>Xh.>XOX@XOX.Xq.w..X.X X|.0.[.>.>.$.(.+.Q v n r w 7 8 > - - $ % % * % * - ",
"6 : : > : : * = 7 > r r w l n b U ] ..} X.*.>.].].[. X%Xd.d.s.;X-X-X>X-X-X-X-X>X:X-Xh.g.s.%Xs.s.w.q.q.XX X0.0.0._.$.:.#.+.Q n n r w 8 7 > - : * * * % * * * ",
": : : : > * > > > 7 9 r k l Q.C U ~.] [ &.=.>.>.$Xa.a.f.d.d.-X-X>X>X>X-X-X>X>X:X-X-Xj.j.-XOXOXr.oXw.K.K.K.[.[.].$.| | | /.{ n Q.r w 9 8 ; ; * - * O * * - * ",
"8 : 7 : * > = > 6 > w w z z V V U ` ] ' X.&.9.].$X$Xa.&Xd.s.-X;X:X-X-X-X-X-X>X>Xh.h.0X0X-XOX%XOXoXw.K.{.K.[.[.[.#.#. . . ./.Q.n r w 7 6 : : * * % % * % * = ",
"> aXaXaX* = = = ; > 6 r k l b C P Q ^./.o.=.;.8.*XXXa.a.OX-X>X=X-X>XL.=Xr.@X+X}.tXtXtXtX&X&X-Xq.q. XXX|.0.0.8.8.O.X.o. .{ +.Q.n r 9 8 7 - * = * = = * - - - ",
"> > > > = = = = > > r 9 l l V C P U ' ' o.:.`.8.9.9.XXa.-X-Xr.=X-X-XL.=X@X-X+Xf.tXU.U.tXf.&X>X=XoX|.|. X X|.8.>.=.&. . .+.U Q.n r r 7 6 & - * = - * % & - & ",
"> > > > i O = > : > r r k l m C U Q ` ' *.*.`.>.9.*XXXa.OXOX-X>X-X-Xy.@XnXe.j.1XU.U.U.tXd.f.XXOXXXXXXX|.0.8.;.:.=.&.+.o.R !.M n r 7 8 : ; & > = = * % & - - ",
"> = = = * * = = > > 6 r k l m m P Q ' ' o.*.`.;.9.9.0.XXOX%Xr.r.OXs.OX+Xy.y.I.1Xb.U.tXe.a.XX.XOXa. XXX|.0.0.:. .X.&.} { L S n k r 8 7 6 > - - = & % = * % - ",
"> > = > = * = O > > 9 w k l C C P Q ' /.*.*.&.&.9.>.].[.w.a.@X@Xy.@Xe.nXtXtXx.U.b.D.oXnXOXOXs.OXXXXXXX8.8.8.#./.X.*.aXaXA C b k 8 r 7 6 & - = * * * * % = * ",
"> = > = * > = i 7 > r w l l V C U Q ' ' *.O.&.&.`.>.>.0.a.+XOXOXt.}.nXe.I.x.S.U.b.D.K.7.@XOXOXw. XXX XXX].8. ./.X.o.^.` S Q.l k r 7 7 6 ; - = - = & = % = - ",
"> > = > = : = > > > 8 r l l m W.Q _ ' (.=.=.#.-.-.>. Xd.w.w.+Xw.}.rXNXl.x.x.S.S.2XF.}.rX+XOXXXXXXXXX XXX:.;.| )././.W U S Z l e r 8 7 7 ; - = = * % & = - - ",
"- > = = * = = > > > r r l l C C U _ ' [ =.=.>.-.#.>..Xd.f.w.+Xf.rXy.tXtXT.x.S.S.Y.Y.}.}.h.OXXXf.w.XX0.[.| &.| } /./.W U S Q.l e w 8 7 6 > & * = = * * % - * ",
"> > = = = = > > > > r r l z M D ` { (.| =.=.>.>.-.0.q.-X+Xw.j.f.qXD.S.x.T.yXT.T.U.S.I.j.-X+X+Xw.w. X0.[.`.(.o.} /.^.U U P Z 3 < w 8 7 6 - - = * - * - * - = ",
"& > > = = * = > > > w r l W.C C ` ..(.(.;.2.2.4.3..XOXd.w.f.H.<XD.qXS.S.yXT.T.yXS.S.I.l.y.+Xa.a.|.|.].[.8.>.).X.^.{ ` U P !.3 B.8 9 7 7 > - - = = = = = - > ",
"> & > > = * > = > i r u l W.V C { O.} $.>.2.0.0.0.s.+X@XnXe.D.D.x.S.A.T.T.yXyXT.A.A.I.NX}.K.d.w.|.[.].].].].X.|  .{ ` ` P P 5 r r 7 6 6 = & - = % = = * - > ",
"> > > = * * < > 7 7 r r l z D D { O.| | >.4.0.q.q.s.OXOXe.f.U.b.F.S.S.A.yXT.T.T.S.A.1Xl.e.+Xf.w.XX].[.>.].].*.| }  .` ` P P 5 3 8 7 8 : - - = = % * = = - = ",
"> > = i i O > > > u u r z l V D O.O.X.&.2.0.[.[.5.@X+X@XNXNXx.F.F.F.S.F.A.dXdXP.A.x.x.x.tX&X-XOXoXXXK.[.].>.>.`.} X.` ) !.!.w r 8 6 7 7 - - * = = aXaX= - - ",
"< > = = O i i < > 0 r r W.b D Z O.O.`.`.].0.[.|.q.r.{.}.l.l.D.F.F.S.c.S.dXc.dXuXA.S.T.U.U.tX-Xs.XXoX|.|.0.].8.9.X.} { { U U 9 r r 6 6 6 ; - = - % aXaX* = > ",
"> > > > O i O > 7 > u l l W.D D O.O.:.*.>.0.{.{.q.q.7.{.l.x.dXdXT.T.F.n.n.c.uXdXA.T.T.T.U.f.&XoXoXoX[.[.[.].8.>. .X.{ { P !.e e 8 6 6 ; ; & * = = - - = - aX",
"aX> > = i = < > > i r u z l D D O.O.&.:.3.0.{.+Xr.{.{.7.x.x.dXP.T.T.F.c.c.uXdXgXx.T.T.x.f.U.&Xw.K.XX[.|.0.[.8.;.} } { { v !.e r r 6 7 6 & - = = * = > - > - ",
"> i > > = = > 5 i = 0 u b M A A | X.'.DX2.*XhXkX=XZXz.z.Y.S.dXdXBXuX8X8XuXdXdXdXS.T.T.A.b.U.f.NXw.w.$X X|.0.>.>.#.`./.^.J P e e i 3 > > = > > * - > = - - - ",
"7 > aXaXi * > > > < r q l b A Z | X.DXDX#Xp.kXkX=XkXj.<XF.D.n.P.A.n.8X8Xn.uXuXuXx.T.T.T.b.S.tXI.w.a.0.&X0.0._.>.X.X./...U !.d e 3 i > > - = : > - - - - aXaX",
"7 > > > < i = = > < 5 0 t l m D ! ! aXaXaXaXaXaXaXaX0XH.Y.Y.uXuXc.aXaX3Xc.c.S.T.S.T.S.x.A.P.BXl.K.XXK.oX}.}._.>.X.o././.J v 9 e > > > > > > = = - - > = aXaX",
"aX7 > 7 > = i i > i i 0 t t M C Q ! +.#.-.3.L.,X,X,X0X0XY.n.uXuXn.n.3Xn.S.A.S.S.A.S.A.x.P.x.qXBXK.K.[.oX{.}.].>.|  .{ /.!.Q.y y 3 > > > = > - > > > - - aXaX",
"i 7 7 : > : > > > > i u r t b m aXaX! [ _.3.sX5.,Xi.L.kX2X2Xn.n.n.n.n.n.aXaXS.x.x.U.S.S.c.c.qXn.u.l.7.7.7.{.>._.).o.W _ x V 3 1 i 3 > = > * - = = - > - - - ",
"8 : > i > > < > > > aXaXaXr z m S R Q [ #.>.5.5.,X,X=Xj.v.v.n.uXn.n.n.n.S.x.x.x.x.S.S.S.Y.n.c.uX1Xu.7.7.C.7.#._.).o.U L m n 1 3 > > > > = > > > - - - aXaXaX",
"7 i > 7 > : i > > 7 7 0 r r l l K I ~.]  .| 9Xp.L.L.}.f.1Xx.P.gXfXuXuXuXn.n.F.S.F.2XF.b.2X2XD.z.u.j.@X}.3.[.&.=.....T T u r 3 > > > > > - > = : > - - & - - ",
": 7 : > > > > > > > 7 7 7 8 l l Z I ) ] (. .9X<.g.=X}.j.l.P.gXfXuXuXuXuXF.3Xn.S.3XF.U.D.2X3Xz.D.y.y.t.}.3.C. .#.GX..Z T 0 u 3 3 > > > > * > > > = - > - aXaX",
"aXaXaXaXaXaXaXaXaXi 7 aXaX> aXaXzXT T Y ....,.*.-.2.|.XX9.nX3XF.qXqX3Xb.b.b.S.F.3XY.Y.n.qXl.u.rX{.+X3._.#.#.} X.) ) x x u 5 i 3 3 > > - aXaXaXaX- * aXaXaXaX",
"aXaXaXaXaXaXaXaX3 aXaX3 0 aXaXaXT T T Y .... .=.-.4. X XrXnXx.c.v.v.b.b.b.3XF.aXaXY.Y.Y.BXz.u.rX@X{.3.3.#.&.| X.GXT x z 3 < 3 < > > > = aXaXaXaX= > aXaXaXaX",
"aXaXaXaXaXaXaXaXaXaXaXi aXaX0 u g q S N U U lX' Z.5.Z.hX=XL.H.0XY.qXqXqXY.Y.F.Y.Y.qXz.u.@Xe.|.8.[.>.#.%._ ' U !.j x c l 0 3 ; 7 > ; aXaXaXaXaXaXaXaXaXaXaXaX",
"aXaXaXaXaXaXaXaXaXaXaXaX0 i 0 0 4 a S B U ! lX%.sXxXZ.Z.hXL.<X0XY.v.v.Y.n.3XF.Y.Y.qXBXl.+X+XXXa.].:.' $._ ' U P x x l z 9 9 0 6 - > aXaXaXaXaXaXaXaXaXaXaXaX",
"aXaXaXaXaXaXaXaXaXaXaXaXaX3 0 3 B.B.V.V.cXcXlXlX5.5.xXZ.Z.L.k.,Xz.BXqXY.2X2X1XBXu.rX7.7.3.3.,.=.[ (.Q ! P U Q.J g 5 5 i 8 8 c aXaX: aXaXaXaXaXaXaXaXaXaXaXaX",
"aXaXaXaXaXaXaXaXaXaXaXaX3 i 3 0 B.a V.cXlXSXlXlX5.5.Z.9XL.L.,X,Xl.qXY.3X3X2X1Xl.rXt.t.7.4..X2.1.$.@._ ] U ~.T T u q 3 > r 8 8 8 = > aXaXaXaXaXaXaXaXaXaXaXaX",
"aXaXaXaXaXaXaXaXaXaXaXaXaXaX3 3 aXaXG.G.cXlXcXlXeXeX].6.[.].{.7.u.u.u.nXI.I.K.rX7.7.lX%.CX%.%.CXG S N N n M e t 5 3 aXaX: 8 c c > aXaXaXaXaX* > aXaXaXaXaXaX",
"aXaXaXaXaXaXaXaXaXaXaX> > > 3 aXaX5 G.G.eXeX( cX6.6.:.6.].6.3.7.BXl.nXrXl.I.K.nXlX7.C.C.%.C.%.CXG H N F m S t t 3 B.O O 8 - 8 j > aXaXaXaXaX> > aXaXaXaXaXaX",
"aXaXaXaXaXaXaXaXaXaXaXaXaXaXaXaXaXaXaXaXaXcXbXcXcXSXwXcXG cXJ.( 6.eX( eX~ J.J.E eX~.G F F R N N N W.f d q y e e 3 3 > aXaX> > > aXaXaXaXaXaXaXaXaX> > > = : ",
"aXaXaXaXaXaXaXaXaXaXaXaXaXaXaXaXV.G.5X^ V.cXcXm.SXcXJXcXG m.G J.( lX~ J.J.E E R ( E G R F H F S N h M d a y e w 3 3 > > > > > aXaXaXaXaXaXaXaXaXaXaXaXaXaXaX",
"aXaXaXaXaXaXaXaXaXaXaXaXaXaXaXaX^ aXaXaXcXcXH mXcXm.H cXG / G G G G G H H S N N H S N M VXM h d B F 5XB d y 4 & > 1 = & > * * * aXaXaXaXaXaXaXaX- > = : aXaX",
"aXaXaXaXaXaXaXaXaXaXaXaXaXaXaXaX6X^ 6XbXbXbXV.6XH cXm.cXm.wXH G G G R G G F H H S S N N M N N B B 5XAX6XB g 9 , 1 & aXaXaX= = : aXaXaXaXaXaXaXaX* > - > * - ",
"aXaXaXaXaXaXaXaXaXaXaXaXaXaXaXaXaXbX^ bXbXbXbXV.G.SX( G./ / d d d M h h h f f f f h h h f aXaXh h s g R.E.5Xu 3 , , - = > > = * aXaXaXaXaXaXaXaXaXaXaXaXaXaX",
"aXaXaXaXaXaXaXaXaXaXaXaXaXaXaXaXvXbXV.V.bXmXV.6XG.cXG.G.B 6Xf N h N N W.N d N d f f f f f VXf h g f a h 5Xg aXaXaX& > > = > : aXaXaXaXaXaXaXaXaX* - aXaX* - ",
"aXaXaXaXaXaXaXaXaXaXaXaXaXaXaXaXaXvXbXV.mXmXmXmX^ ^ 5XwXB 5Xq 5 4 4 4 jXjX2 2 a h g g f s R.R.5XR.R.s s s s 5 g & o = = > = > = aXaXaXaXaXaXaXaX* = - * - = ",
"aXaXaXaXaXaXaXaXaXaXaXaXaXaXaXaXaXaXaXaXmXmXbXiX^ ^ 5X6X5X5X5 q a 4 4 4 2 2 4 g g f a a a h E.mXR.R.R.g 5 B.u E.o N.> > > * = = aXaXaXaXaXaX> aXaX= aXaXaXaX",
"aXaXaXaXaXaXaXaXaXaXaXaXaXaXaXaXaX5X5XvXvX^ ^ ^ vX5XvXE.s 2 < < < = N.< N.= jX5 < 5 5 5 5 5 E.E.a s B.aXaXaXg s O o & 1 aXaX> > > > * = > * - > * - * % * aX",
"aXaXaXaXaXaXaXaXaXaXaXaXaXaXaXaXaXvXvX5X^ aXaXaXaXvXg s B.< = O & o O & N.aXaX3 < 5 FXFX5 5 5 s s s s s g E.u 3 X O ; & - - & - aXaXaXaXaXaXaXaXaXaX= - - = ",
"aXaXaXaXaXaXaXaXaXaXaXaXaXaXaXaXaXi g E.aXaXaXaXaXaX< B.< aXaXaXaXO % - % O & , < = < i FX5 5 g g g vXR.g 5 B.3 . aXaX1 * = = - aXaXaXaXaXaXaXaXaX- - = * - ",
"aXaXaXaXaXaXaXaXaXaXaXaXaXaXaXaX> FXu aXaXaXaX6XaXaXB.o o , X O   .   p X O & + & < < < < < B.< aXaXaXg s 4 < , . & & > > - aXaXaXaXaXaXaXaXaXaX% aXaXaX= - ",
"aXaXaXaXaXaXaXaXaXaXaXaXaXaXaXaXaXaXO * o o o o 3 & & % * aXaXaXp p p p p p p p % % * - = = & 3 s g aXaXaX3 aXaX+ % > > - : - : aXaXaXaXaXaXaXaXaXaXaX- * = ",
"aXaXaXaXaXaXaXaXaXaXaXaXaXaXaXaX* * = = = o aXaXo aXaX- % % p + p p p p @ p p p 4X% X - % = & , 3 u q 4 3 < & , . % & & * : * : aXaXaX- = > > - = - - * * - ",
"aXaXaXaXaXaXaXaXaXaXaXaXaXaXaXaX  4X4X% 4X  . & X . + - p @ - - - 8 @ 8 8 8 8 p @ p + + 4X+ - aXaX1 1 1 & - % % + % % % - - * * aXaX- = - = - - aXaXaXaXaXaX",
"aXaXaXaXaXaXaXaXaXaXaXaXaXaXaXaXaX- % % X   .   %   p p p - - @ c $ 8 8 $ @ p p @ @ p 4X4X  @ - = % % @ @ . + % % - % aXaX: : - > > > * = : > aXaXaXaXaXaXaX",
"aXaXaXaXaXaXaXaXaXaXaXaXaXaXaXaX> > * 4X4X4XX % % X - > 3 > > > aXaXaX> > > 7 > > % aXaXaXaXaXaXp 4Xp + + 4X4XpX% - - - > aXaXaX> - > - > - * > aXaXaXaXaXaX",
"aXaXaXaXaXaXaXaXaXaXaXaXaXaXaX> > > - * % X X % - * > > > > > > > > 7 > > 7 > > > > aXaXaXaXaX+ 4XaXaXaXaXaXaXaXaX* aXaXaXaXaXaX* = aXaX= = - * aXaXaXaXaXaX",
"aXaXaXaXaXaXaXaXaXaXaXaXaXaXaXaXaXaXaX> < > > = = > > aXaX> > > aXaXaXaXaXaXaXaXaXaXaXaXaXaXaXaX% 4X4X4XaXaX* = aXaXaX> aXaXaXaX- = aXaX- = = aXaXaXaXaXaXaX",
"aXaXaXaXaXaXaXaXaXaXaXaXaXaXaXaXi > > > i > > i > > aXaXaXaXaXaXaXaXaXaXaXaXaXaXaXaXaXaXaXaXaXaXaX% % aXaX* : > % * aXaXaXaXaXaX> - > aXaX: > - aXaXaXaXaXaX",
"aXaXaXaXaXaXaXaXaXaXaXaXaXaXaX> 3 > > > > i > > i aXaXaXaXaXaXaXaXaXaXaXaXaXaXaXaXaXaXaXaXaXaXaX* * = - * > = > > aXaXaXaXaXaXaXaX: * - - = - * aXaXaXaXaXaX",
"aXaXaXaXaXaXaXaXaXaXaXaXaXaXaXaX3 > > > > 3 3 3 3 aXaX3 i aXaXaXaXaXaXaXaXaXaXaXaXaXaXaXaXaXaXaXaXaXaXaXaXaXaXaXaXaXaXaXaXaXaXaX- = = > * > > = aXaXaXaXaXaX"
};
