/* XPM */
static char *_e88205f89e94b2197b2373fbdfc2b18UnVFidCCNX3OQ9Y0[] = {
/* columns rows colors chars-per-pixel */
"35 35 12 1 ",
"  c None",
". c #080000",
"X c #B97371",
"o c #67979B",
"O c #67979C",
"+ c #68989C",
"@ c #CF9C9B",
"# c #9CC8CC",
"$ c #9CC8CD",
"% c #9DC9CD",
"& c #E3C6C5",
"* c white",
/* pixels */
"                                   ",
"              ........             ",
"            ............           ",
"          ....@@@@@@@@....         ",
"         ...@&&&&&&&&&&@...        ",
"        ..@&&&&&&&&&&&&&&@..       ",
"       ..@&&&&&&&&&&&&&&&&@..      ",
"      ..@&&&&&&&&&&&&&&&&&&@..     ",
"      ..&&&&&&&&&&&&&&&&&&&&..     ",
"     ..@&&&&&&&&&&&&&&&&&&&&@..    ",
"     ..&&&&&&&&&&&&&&&&&&&&&&..    ",
"    ..@&&&&&&&&&&&&&&&&&&&&&&@..   ",
"    ..@&@....@&&&&&&&&@....@&@..   ",
"    ..@&.**...&&&&&&&&.**...&@..   ",
"    ..@@.**...&&&&&&&&.**...@@..   ",
"    ..X@......&&....&&......@X..   ",
"     ..@......&......&......@..    ",
"     ..X@....@&.****.&@....@X..    ",
"      ..@###@&&......&&@###@..     ",
"      ..X###&&&&&&&&&&&&###X..     ",
"       ..+#%&&&&&&&&&&&&##O..      ",
"        ..O#@&&&&&&&&&&@#O..       ",
"         ...O@&&&&&&&&@O...        ",
"          ....X@@@@@@X....         ",
"           ..............          ",
"          ..@&........&@..         ",
"         ..@&&@@@@@@@@&&@..        ",
"         ..@&.@&&&&&&@.&@..        ",
"         ..@&.&&&&&&&&.&@..        ",
"          ....&&@..@&&....         ",
"           ...&&&..@&&...          ",
"            ...&&..@&...           ",
"             ..........            ",
"              ...  ...             ",
"                                   "
};
